<?xml version="1.0" encoding="UTF-8"?>
<svg id="Layer_1" data-name="Layer 1" xmlns="http://www.w3.org/2000/svg" viewBox="0 0 593.39 598.22">
  <defs>
    <style>
      .cls-1 {
        fill: #fae8bd;
      }

      .cls-2 {
        fill: #153447;
      }

      .cls-3 {
        fill: #f2cc6d;
      }

      .cls-4 {
        fill: #eba800;
      }

      .cls-5 {
        fill: #ed5740;
      }
    </style>
  </defs>
  <path class="cls-3" d="M373.6,231.49c1.56.42,3.1.88,4.63,1.36l2.61-8.25c-1.75-.55-3.5-1.06-5.28-1.54l-1.96,8.43Z"/>
  <path class="cls-3" d="M382.33,234.24c1.52.54,3.02,1.11,4.51,1.72l3.23-8.02c-1.69-.69-3.41-1.34-5.14-1.95l-2.6,8.25Z"/>
  <path class="cls-3" d="M328.35,228.83c1.59-.23,3.18-.44,4.78-.6l-.66-8.62c-1.83.17-3.64.41-5.44.66l1.32,8.55h0Z"/>
  <path class="cls-3" d="M238.27,345.51l58.44-11.16c.44-1.71.96-3.39,1.56-5.04l-57.84-24.64c-4.9,12.66-7.68,26.42-7.87,40.84h5.71,0Z"/>
  <polygon class="cls-1" points="388.56 241.82 370.82 285.87 391.05 254.44 388.56 241.82"/>
  <path class="cls-3" d="M444.51,286.65c.82,1.42,1.61,2.85,2.37,4.31l7.53-3.94c-.86-1.66-1.76-3.3-2.69-4.91l-7.21,4.54h0Z"/>
  <path class="cls-3" d="M346.54,227.72c1.61.03,3.22.07,4.81.18l.66-8.62c-1.81-.11-3.64-.17-5.47-.21v8.65h0Z"/>
  <path class="cls-3" d="M364.69,229.52c1.59.29,3.16.61,4.72.96l1.96-8.42c-1.78-.4-3.57-.76-5.37-1.08l-1.31,8.54Z"/>
  <path class="cls-3" d="M355.65,228.23c1.6.16,3.2.37,4.78.6l1.31-8.55c-1.8-.26-3.61-.49-5.43-.66l-.66,8.62h0Z"/>
  <path class="cls-1" d="M296.71,359.99l-58.44-11.16h-5.7c.19,14.41,2.98,28.17,7.87,40.84l57.84-24.64c-.6-1.64-1.12-3.32-1.56-5.04h0Z"/>
  <path class="cls-1" d="M392.93,292l6.14-3.43,23.25-23.92c-.17-.17-.35-.34-.51-.51l-12.64,2.64-16.24,25.22h0Z"/>
  <path class="cls-3" d="M263.83,433.16l-5.98,6.15c1.31,1.31,2.65,2.59,4.02,3.83l2.07-2.49,1.36-6.05c-.5-.47-.98-.96-1.47-1.44h0Z"/>
  <path class="cls-3" d="M427.99,264.31c1.11,1.19,2.21,2.39,3.27,3.63l6.43-5.65c-1.21-1.41-2.45-2.79-3.72-4.13l-5.98,6.15h0Z"/>
  <path class="cls-3" d="M434.07,271.29c1.02,1.27,2.01,2.58,2.98,3.89l6.84-5.11c-1.1-1.5-2.22-2.98-3.38-4.43l-6.44,5.65Z"/>
  <path class="cls-3" d="M346,238l10.85,60.11c1.67.45,3.3.99,4.89,1.61l23.96-59.5c-12.31-5.04-25.69-7.89-39.7-8.1v5.88Z"/>
  <path class="cls-3" d="M439.58,278.76c.92,1.36,1.81,2.73,2.67,4.12l7.21-4.54c-.99-1.59-2-3.15-3.05-4.69l-6.83,5.11h0Z"/>
  <path class="cls-3" d="M287.43,403.42l15.37-29.11c-1.23-1.98-2.32-4.06-3.28-6.22l-57.87,24.66c5.43,12.93,13.11,24.63,22.52,34.59l23.25-23.92h0Z"/>
  <path class="cls-1" d="M327.03,299.72c1.6-.62,3.23-1.15,4.9-1.61l10.84-60.11v-5.88c-14.01.21-27.39,3.06-39.7,8.1l23.96,59.5h0Z"/>
  <path class="cls-3" d="M289.71,288.57l28.3,15.81c1.93-1.26,3.95-2.39,6.05-3.37l-23.97-59.52c-12.58,5.59-23.95,13.49-33.64,23.17l23.26,23.92h0Z"/>
  <path class="cls-1" d="M299.51,326.25c.96-2.16,2.05-4.24,3.28-6.22l-15.37-29.11-23.25-23.92c-9.41,9.96-17.09,21.66-22.52,34.6l57.86,24.66h0Z"/>
  <path class="cls-3" d="M337.42,227.89c1.6-.1,3.21-.15,4.82-.18v-8.65c-1.83.03-3.66.09-5.47.21l.66,8.62h-.01Z"/>
  <path class="cls-3" d="M228.76,335.59c.16-1.65.36-3.29.58-4.93l-8.31-1.35c-.25,1.85-.48,3.72-.65,5.6l8.38.68Z"/>
  <path class="cls-3" d="M231.94,317.12c.41-1.61.85-3.19,1.32-4.77l-8.02-2.68c-.54,1.79-1.04,3.6-1.5,5.42l8.19,2.02h0Z"/>
  <path class="cls-3" d="M230.02,326.3c.28-1.63.58-3.25.93-4.86l-8.18-2.02c-.39,1.83-.74,3.67-1.06,5.53l8.31,1.35Z"/>
  <path class="cls-3" d="M234.61,308.14c.53-1.56,1.09-3.11,1.67-4.65l-7.79-3.31c-.67,1.75-1.3,3.5-1.9,5.28l8.01,2.68h0Z"/>
  <path class="cls-3" d="M237.92,299.41c.65-1.52,1.31-3.03,2.01-4.5l-7.52-3.94c-.8,1.68-1.56,3.4-2.29,5.13l7.8,3.32h0Z"/>
  <path class="cls-3" d="M229.35,363.67c-.22-1.63-.43-3.27-.58-4.92l-8.38.68c.18,1.88.4,3.74.65,5.6l8.31-1.35h0Z"/>
  <path class="cls-3" d="M230.95,372.91c-.35-1.6-.65-3.23-.93-4.86l-8.31,1.35c.32,1.86.67,3.7,1.06,5.53l8.18-2.02h0Z"/>
  <path class="cls-3" d="M228.26,344.95c.03-1.65.08-3.31.18-4.95l-8.38-.68c-.11,1.87-.17,3.74-.2,5.63h8.4Z"/>
  <path class="cls-3" d="M241.9,290.96c.76-1.46,1.56-2.89,2.37-4.31l-7.2-4.54c-.93,1.61-1.83,3.25-2.69,4.91l7.52,3.94h0Z"/>
  <path class="cls-3" d="M228.44,354.34c-.1-1.65-.14-3.3-.18-4.96h-8.4c.03,1.89.09,3.76.2,5.63l8.38-.67h0Z"/>
  <path class="cls-3" d="M263.83,261.17c1.16-1.15,2.34-2.27,3.53-3.37l-5.49-6.61c-1.37,1.24-2.71,2.52-4.02,3.82l5.98,6.15h0Z"/>
  <path class="cls-3" d="M246.53,282.88c.86-1.39,1.76-2.76,2.68-4.12l-6.84-5.11c-1.05,1.54-2.06,3.1-3.04,4.69l7.2,4.54Z"/>
  <path class="cls-3" d="M285.56,244.18c1.39-.84,2.78-1.66,4.19-2.44l-3.83-7.74c-1.61.88-3.2,1.81-4.78,2.76l4.41,7.41h0Z"/>
  <path class="cls-3" d="M293.58,239.72c1.44-.72,2.91-1.4,4.38-2.07l-3.23-8.02c-1.68.75-3.34,1.53-4.98,2.35l3.83,7.74h0Z"/>
  <path class="cls-3" d="M301.94,235.96c1.49-.61,3-1.18,4.52-1.72l-2.61-8.25c-1.73.61-3.44,1.26-5.14,1.95l3.23,8.02Z"/>
  <path class="cls-3" d="M310.54,232.85c1.53-.48,3.07-.94,4.64-1.36l-1.97-8.43c-1.77.48-3.53.99-5.27,1.54l2.61,8.25h0Z"/>
  <path class="cls-3" d="M277.9,249.26c1.31-.95,2.65-1.87,4-2.76l-4.41-7.41c-1.54,1.01-3.06,2.05-4.55,3.13l4.97,7.03h0Z"/>
  <path class="cls-3" d="M270.62,254.91c1.24-1.05,2.5-2.07,3.78-3.06l-4.97-7.04c-1.45,1.13-2.9,2.28-4.31,3.48l5.5,6.62Z"/>
  <path class="cls-3" d="M251.73,275.18c.97-1.32,1.95-2.62,2.97-3.89l-6.43-5.65c-1.16,1.45-2.29,2.93-3.39,4.43l6.85,5.11h0Z"/>
  <path class="cls-3" d="M257.52,267.94c1.06-1.24,2.15-2.44,3.27-3.63l-5.98-6.15c-1.27,1.35-2.51,2.72-3.72,4.13l6.43,5.65Z"/>
  <path class="cls-3" d="M319.37,230.48c1.56-.35,3.14-.67,4.73-.96l-1.31-8.54c-1.81.32-3.6.68-5.38,1.08l1.97,8.42h0Z"/>
  <path class="cls-1" d="M295.85,402.34l-6.14,3.42-23.26,23.93c.17.17.34.34.52.51l12.64-2.64,16.24-25.22h0Z"/>
  <path class="cls-3" d="M448.85,294.91c.7,1.48,1.36,2.98,2.01,4.5l7.8-3.32c-.73-1.73-1.49-3.44-2.29-5.13l-7.51,3.94h0Z"/>
  <path class="cls-3" d="M315.18,462.85c-1.56-.42-3.11-.88-4.64-1.36l-2.61,8.25c1.75.54,3.5,1.07,5.27,1.54l1.97-8.43h0Z"/>
  <polygon class="cls-1" points="300.22 452.52 317.96 408.47 297.73 439.9 300.22 452.52"/>
  <path class="cls-3" d="M450.52,348.83l-58.44,11.16c-.43,1.72-.96,3.4-1.56,5.04l57.84,24.64c4.9-12.67,7.67-26.43,7.87-40.84h-5.71Z"/>
  <path class="cls-3" d="M369.41,463.86c-1.56.35-3.14.66-4.72.96l1.31,8.55c1.81-.33,3.6-.69,5.37-1.09l-1.96-8.41h0Z"/>
  <path class="cls-1" d="M392.07,334.35l58.44,11.16h5.71c-.2-14.41-2.97-28.18-7.87-40.84l-57.84,24.64c.6,1.64,1.12,3.32,1.56,5.04Z"/>
  <path class="cls-3" d="M360.43,465.51c-1.59.23-3.18.44-4.78.6l.66,8.62c1.82-.18,3.63-.41,5.43-.67l-1.31-8.55Z"/>
  <path class="cls-3" d="M351.36,466.45c-1.6.09-3.21.15-4.81.18v8.65c1.83-.04,3.66-.1,5.47-.2l-.66-8.62h0Z"/>
  <path class="cls-3" d="M333.13,466.11c-1.6-.16-3.19-.37-4.78-.6l-1.32,8.55c1.8.25,3.61.49,5.44.67l.66-8.62Z"/>
  <path class="cls-3" d="M342.24,466.62c-1.61-.03-3.22-.08-4.82-.18l-.66,8.62c1.81.11,3.64.17,5.47.2v-8.65h.01Z"/>
  <path class="cls-3" d="M324.1,464.82c-1.59-.29-3.16-.6-4.73-.96l-1.97,8.41c1.78.41,3.57.76,5.38,1.09l1.31-8.55h0Z"/>
  <path class="cls-3" d="M424.95,261.17l5.98-6.15c-1.31-1.31-2.65-2.58-4.02-3.82l-2.07,2.49-1.36,6.05c.49.47.97.95,1.47,1.44h0Z"/>
  <path class="cls-3" d="M390.82,237.65c.34.15.66.31.99.46l6.64-4.96.58-1.17c-1.64-.82-3.3-1.6-4.98-2.35l-3.23,8.02h0Z"/>
  <path class="cls-3" d="M233.26,381.99c-.47-1.57-.92-3.16-1.32-4.76l-8.19,2.02c.46,1.83.96,3.63,1.5,5.43l8.02-2.68h0Z"/>
  <path class="cls-3" d="M150.17,362.43l11.17-1.01c-.29-3.98-.47-7.99-.52-12.04h-11.18c.05,4.38.22,8.73.53,13.05Z"/>
  <path class="cls-3" d="M342.77,456.33l-10.84-60.11c-1.67-.45-3.3-.99-4.9-1.61l-23.96,59.5c12.32,5.04,25.69,7.89,39.7,8.1v-5.88h0Z"/>
  <path class="cls-3" d="M297.96,456.69c-.33-.16-.66-.32-.99-.46l-6.64,4.96-.58,1.17c1.64.82,3.31,1.6,4.98,2.35l3.23-8.01h0Z"/>
  <path class="cls-3" d="M399.07,405.76l-28.3-15.81c-1.93,1.27-3.95,2.4-6.05,3.38l23.97,59.52c12.57-5.59,23.95-13.48,33.63-23.16l-23.25-23.93h0Z"/>
  <path class="cls-1" d="M361.75,394.61c-1.59.62-3.22,1.16-4.89,1.61l-10.85,60.12v5.87c14.01-.21,27.39-3.06,39.7-8.1l-23.96-59.5h0Z"/>
  <path class="cls-1" d="M389.26,368.09c-.96,2.16-2.05,4.24-3.27,6.22l15.37,29.11,23.25,23.92c9.41-9.96,17.09-21.66,22.52-34.59l-57.87-24.66h0Z"/>
  <path class="cls-3" d="M385.99,320.03c1.23,1.99,2.32,4.06,3.27,6.22l57.87-24.66c-5.43-12.94-13.11-24.63-22.52-34.6l-23.25,23.92-15.37,29.11h0Z"/>
  <path class="cls-3" d="M306.46,460.11c-1.52-.55-3.03-1.12-4.52-1.73l-3.23,8.02c1.7.69,3.4,1.34,5.14,1.95l2.61-8.24Z"/>
  <path class="cls-3" d="M378.23,461.49c-1.53.48-3.07.94-4.63,1.36l1.96,8.43c1.78-.47,3.53-1,5.28-1.54l-2.61-8.25h0Z"/>
  <path class="cls-3" d="M460.01,358.75c-.15,1.65-.36,3.29-.58,4.92l8.31,1.35c.25-1.86.48-3.72.65-5.6l-8.38-.68h0Z"/>
  <path class="cls-3" d="M460.34,340.01c.1,1.64.14,3.3.17,4.95h8.4c-.03-1.89-.09-3.76-.2-5.63l-8.38.68h.01Z"/>
  <path class="cls-3" d="M458.76,368.04c-.28,1.63-.59,3.26-.93,4.86l8.18,2.02c.4-1.83.75-3.67,1.07-5.53l-8.31-1.35h-.01Z"/>
  <path class="cls-3" d="M456.85,377.22c-.41,1.6-.86,3.19-1.32,4.76l8.02,2.68c.53-1.79,1.04-3.6,1.5-5.43l-8.19-2.02h0Z"/>
  <path class="cls-3" d="M460.51,349.38c-.03,1.66-.07,3.31-.17,4.96l8.38.67c.1-1.87.17-3.74.2-5.63h-8.41Z"/>
  <path class="cls-3" d="M452.51,303.5c.59,1.53,1.15,3.09,1.67,4.65l8.02-2.68c-.6-1.78-1.23-3.54-1.9-5.28l-7.79,3.31Z"/>
  <path class="cls-3" d="M455.52,312.35c.47,1.58.91,3.16,1.32,4.77l8.19-2.02c-.46-1.83-.96-3.63-1.5-5.42l-8.02,2.68h0Z"/>
  <path class="cls-3" d="M457.83,321.43c.35,1.61.65,3.23.93,4.86l8.31-1.35c-.32-1.86-.67-3.7-1.07-5.53l-8.18,2.02h.01Z"/>
  <path class="cls-3" d="M459.43,330.66c.22,1.63.42,3.27.58,4.93l8.38-.68c-.17-1.88-.4-3.75-.65-5.6l-8.31,1.35Z"/>
  <path class="cls-3" d="M454.17,386.19c-.52,1.56-1.08,3.11-1.67,4.65l7.79,3.32c.67-1.75,1.3-3.51,1.9-5.29l-8.02-2.68Z"/>
  <path class="cls-3" d="M410.88,445.08c-1.31.95-2.65,1.86-4,2.76l4.42,7.41c1.54-1.01,3.06-2.05,4.55-3.13l-4.97-7.03h0Z"/>
  <path class="cls-3" d="M403.22,450.16c-1.38.84-2.77,1.66-4.19,2.44l3.83,7.74c1.61-.89,3.2-1.81,4.78-2.77l-4.42-7.41h0Z"/>
  <path class="cls-3" d="M424.94,433.16c-1.15,1.15-2.33,2.27-3.53,3.37l5.5,6.61c1.36-1.24,2.7-2.52,4.02-3.83l-5.98-6.15h0Z"/>
  <path class="cls-3" d="M395.2,454.62c-1.44.72-2.9,1.41-4.38,2.07l3.23,8.01c1.68-.75,3.34-1.53,4.98-2.35l-3.83-7.74h0Z"/>
  <path class="cls-3" d="M450.86,394.93c-.64,1.52-1.3,3.02-2.01,4.5l7.52,3.94c.8-1.69,1.55-3.4,2.28-5.12l-7.8-3.32h.01Z"/>
  <path class="cls-3" d="M386.84,458.38c-1.49.61-2.99,1.18-4.51,1.73l2.6,8.24c1.73-.61,3.45-1.27,5.14-1.95l-3.22-8.02h-.01Z"/>
  <path class="cls-3" d="M446.88,403.38c-.76,1.45-1.55,2.89-2.37,4.31l7.21,4.54c.93-1.61,1.83-3.25,2.69-4.91l-7.53-3.94Z"/>
  <path class="cls-3" d="M431.26,426.41c-1.06,1.23-2.16,2.44-3.27,3.63l5.98,6.16c1.27-1.36,2.51-2.73,3.72-4.14l-6.43-5.65h0Z"/>
  <path class="cls-3" d="M442.25,411.45c-.86,1.39-1.76,2.77-2.67,4.12l6.83,5.11c1.05-1.53,2.06-3.09,3.05-4.68l-7.21-4.54h0Z"/>
  <path class="cls-3" d="M437.05,419.16c-.97,1.32-1.96,2.62-2.98,3.9l6.44,5.65c1.16-1.45,2.28-2.92,3.38-4.43l-6.84-5.11h0Z"/>
  <path class="cls-3" d="M418.16,439.43c-1.24,1.05-2.5,2.06-3.78,3.06l4.97,7.04c1.45-1.14,2.89-2.29,4.3-3.49l-5.49-6.62h0Z"/>
  <path class="cls-3" d="M504.41,254.69c1.92,3.49,3.76,7.03,5.47,10.66l10.16-4.87c-1.84-3.93-3.8-7.79-5.88-11.57l-9.75,5.79h0Z"/>
  <path class="cls-3" d="M475.65,215.27c2.73,2.87,5.36,5.84,7.91,8.88l8.64-7.46c-2.76-3.3-5.62-6.51-8.58-9.62l-7.97,8.2h0Z"/>
  <path class="cls-3" d="M486.36,227.52c2.47,3.1,4.82,6.31,7.11,9.57l9.23-6.65c-2.47-3.54-5.04-6.99-7.73-10.36l-8.61,7.44Z"/>
  <path class="cls-3" d="M511.65,269.38c1.61,3.65,3.13,7.35,4.51,11.12l10.55-3.94c-1.5-4.08-3.11-8.11-4.86-12.07l-10.2,4.89h0Z"/>
  <path class="cls-3" d="M517.64,284.66c1.29,3.78,2.46,7.62,3.52,11.49l10.84-2.99c-1.14-4.21-2.41-8.36-3.82-12.45l-10.54,3.95h0Z"/>
  <path class="cls-3" d="M522.31,300.42c.96,3.87,1.77,7.81,2.5,11.78l11.03-2.01c-.78-4.3-1.68-8.55-2.73-12.75l-10.81,2.98h.01Z"/>
  <path class="cls-3" d="M451.4,193.82c3.17,2.35,6.29,4.76,9.3,7.31l7.23-8.86c-3.26-2.76-6.63-5.41-10.06-7.95l-6.46,9.5h-.01Z"/>
  <path class="cls-3" d="M423.93,176.94c3.52,1.75,6.96,3.65,10.36,5.62l5.62-10.03c-3.67-2.14-7.42-4.16-11.24-6.05l-4.74,10.45h0Z"/>
  <path class="cls-3" d="M463.97,204.02c2.97,2.62,5.85,5.32,8.64,8.13l7.96-8.19c-3.02-3.04-6.14-5.99-9.35-8.82l-7.26,8.89h.01Z"/>
  <path class="cls-3" d="M409.2,170.47c3.66,1.42,7.26,2.98,10.81,4.64l4.76-10.5c-3.84-1.79-7.76-3.45-11.73-4.99l-3.84,10.85Z"/>
  <path class="cls-3" d="M393.98,165.34c3.78,1.09,7.5,2.29,11.18,3.62l3.84-10.85c-3.98-1.44-8.01-2.75-12.1-3.93l-2.91,11.16h0Z"/>
  <path class="cls-3" d="M460.71,493.21c-3.01,2.55-6.13,4.96-9.3,7.31l6.46,9.5c3.44-2.55,6.8-5.19,10.06-7.95l-7.23-8.86h.01Z"/>
  <path class="cls-3" d="M438.02,184.77c3.36,2.06,6.65,4.21,9.87,6.48l6.44-9.47c-3.48-2.46-7.06-4.8-10.69-7.02l-5.62,10.02h0Z"/>
  <path class="cls-3" d="M493.47,457.25c-2.29,3.26-4.63,6.47-7.11,9.58l8.61,7.43c2.69-3.36,5.26-6.82,7.74-10.35l-9.23-6.65h0Z"/>
  <path class="cls-3" d="M527.43,332.91c.3,3.99.48,7.99.52,12.04h11.18c-.04-4.38-.22-8.73-.53-13.04l-11.17,1h0Z"/>
  <path class="cls-3" d="M483.56,470.18c-2.55,3.05-5.17,6.01-7.91,8.89l7.97,8.19c2.96-3.11,5.82-6.31,8.58-9.62l-8.64-7.46h0Z"/>
  <path class="cls-3" d="M472.61,482.2c-2.79,2.81-5.67,5.51-8.64,8.13l7.26,8.89c3.21-2.83,6.33-5.79,9.35-8.83l-7.96-8.2h-.01Z"/>
  <path class="cls-3" d="M509.87,428.99c-1.7,3.62-3.55,7.16-5.47,10.66l9.75,5.79c2.08-3.78,4.04-7.65,5.88-11.57l-10.16-4.87h0Z"/>
  <path class="cls-3" d="M502.26,443.48c-2,3.46-4.09,6.85-6.3,10.16l9.2,6.63c2.39-3.58,4.66-7.26,6.83-11l-9.74-5.79h0Z"/>
  <path class="cls-3" d="M525.57,377.79l11.02,2c.68-4.27,1.24-8.59,1.65-12.95l-11.12-1c-.39,4.02-.91,8-1.54,11.95h0Z"/>
  <path class="cls-3" d="M527.43,361.42l11.17,1.01c.31-4.32.49-8.67.53-13.05h-11.18c-.05,4.05-.23,8.06-.52,12.04h0Z"/>
  <path class="cls-3" d="M521.15,398.19c-1.06,3.88-2.23,7.71-3.52,11.49l10.54,3.95c1.41-4.1,2.68-8.25,3.82-12.46l-10.84-2.98h0Z"/>
  <path class="cls-3" d="M524.8,382.14c-.73,3.97-1.53,7.9-2.5,11.78l10.81,2.98c1.04-4.2,1.95-8.46,2.73-12.76l-11.03-2h-.01Z"/>
  <path class="cls-3" d="M516.16,413.84c-1.38,3.77-2.9,7.47-4.51,11.12l10.2,4.89c1.74-3.95,3.36-7.98,4.85-12.07l-10.54-3.94Z"/>
  <path class="cls-3" d="M525.57,316.56c.63,3.94,1.15,7.92,1.54,11.95l11.12-1c-.41-4.36-.97-8.67-1.65-12.95l-11.02,2h0Z"/>
  <path class="cls-3" d="M172.62,280.5c1.38-3.76,2.9-7.47,4.51-11.12l-10.2-4.89c-1.74,3.95-3.36,7.98-4.85,12.07l10.55,3.94h-.01Z"/>
  <path class="cls-3" d="M178.9,265.35c1.7-3.63,3.55-7.16,5.47-10.66l-9.75-5.79c-2.07,3.78-4.04,7.64-5.88,11.57l10.16,4.87h0Z"/>
  <path class="cls-3" d="M167.63,296.15c1.06-3.88,2.23-7.72,3.52-11.49l-10.55-3.95c-1.4,4.09-2.68,8.24-3.82,12.45,0,0,10.85,2.99,10.85,2.99Z"/>
  <path class="cls-3" d="M195.32,237.09c2.28-3.26,4.63-6.47,7.11-9.57l-8.62-7.44c-2.68,3.36-5.26,6.82-7.73,10.36l9.23,6.65h.01Z"/>
  <path class="cls-3" d="M186.52,250.85c2-3.46,4.09-6.84,6.3-10.15l-9.21-6.63c-2.39,3.58-4.67,7.25-6.83,11l9.74,5.78Z"/>
  <path class="cls-3" d="M163.97,312.2c.73-3.97,1.53-7.9,2.5-11.78l-10.81-2.98c-1.04,4.2-1.95,8.45-2.73,12.75l11.03,2.01h.01Z"/>
  <path class="cls-3" d="M236.28,390.84c-.59-1.53-1.15-3.08-1.67-4.65l-8.01,2.68c.59,1.79,1.23,3.54,1.9,5.29l7.79-3.32h0Z"/>
  <path class="cls-3" d="M163.22,316.56l-11.02-2c-.68,4.27-1.24,8.59-1.65,12.95l11.12,1c.39-4.02.92-8,1.55-11.95Z"/>
  <path class="cls-3" d="M205.22,224.15c2.55-3.04,5.18-6.01,7.9-8.88l-7.96-8.2c-2.96,3.11-5.83,6.32-8.58,9.62,0,0,8.64,7.46,8.64,7.46Z"/>
  <path class="cls-3" d="M161.34,332.91l-11.17-1c-.31,4.31-.49,8.66-.53,13.04h11.18c.05-4.05.23-8.05.52-12.04Z"/>
  <path class="cls-3" d="M268.77,175.11c3.55-1.66,7.14-3.22,10.81-4.64l-3.84-10.85c-3.97,1.54-7.89,3.2-11.73,4.99l4.76,10.5Z"/>
  <path class="cls-3" d="M298.95,164.15c3.76-.99,7.59-1.82,11.44-2.56l-1.94-11.35c-4.18.8-8.31,1.73-12.4,2.8,0,0,2.9,11.11,2.9,11.11Z"/>
  <path class="cls-3" d="M330.54,158.88c3.87-.3,7.77-.49,11.7-.54v-11.5c-4.26.05-8.49.22-12.68.55l.97,11.49h.01Z"/>
  <path class="cls-3" d="M314.63,160.8c3.84-.64,7.7-1.2,11.61-1.59l-.97-11.44c-4.24.42-8.43.99-12.58,1.69l1.94,11.33h0Z"/>
  <path class="cls-3" d="M216.17,212.14c2.79-2.8,5.67-5.51,8.63-8.13l-7.25-8.89c-3.21,2.83-6.33,5.78-9.35,8.82l7.97,8.19h0Z"/>
  <path class="cls-3" d="M346.54,158.34c3.93.05,7.83.24,11.7.54l.98-11.49c-4.19-.33-8.42-.5-12.68-.55v11.5h0Z"/>
  <path class="cls-3" d="M362.54,159.22c3.91.39,7.78.94,11.62,1.59l1.94-11.33c-4.15-.7-8.35-1.27-12.58-1.69l-.97,11.44h-.01Z"/>
  <path class="cls-3" d="M228.07,201.13c3.01-2.55,6.14-4.96,9.3-7.31l-6.47-9.5c-3.44,2.54-6.8,5.19-10.06,7.95l7.23,8.86Z"/>
  <path class="cls-3" d="M240.88,191.25c3.22-2.26,6.51-4.42,9.88-6.48l-5.63-10.02c-3.64,2.22-7.21,4.56-10.7,7.02l6.45,9.47h0Z"/>
  <path class="cls-3" d="M283.63,168.96c3.67-1.33,7.4-2.53,11.17-3.62l-2.91-11.16c-4.09,1.18-8.13,2.49-12.11,3.93l3.84,10.85h.01Z"/>
  <path class="cls-3" d="M378.39,161.58c3.85.74,7.68,1.57,11.45,2.56l2.89-11.11c-4.08-1.07-8.22-2-12.4-2.8l-1.94,11.35h0Z"/>
  <path class="cls-3" d="M254.49,182.56c3.4-1.97,6.83-3.87,10.36-5.62l-4.74-10.45c-3.82,1.89-7.57,3.91-11.25,6.05l5.63,10.03h0Z"/>
  <path class="cls-3" d="M495.96,240.7c2.2,3.31,4.3,6.7,6.3,10.15l9.74-5.78c-2.16-3.75-4.44-7.42-6.83-11l-9.2,6.63h0Z"/>
  <path class="cls-3" d="M224.81,490.33c-2.96-2.62-5.85-5.32-8.64-8.13l-7.97,8.2c3.02,3.04,6.14,5.99,9.35,8.83l7.25-8.89h0Z"/>
  <path class="cls-3" d="M237.38,500.52c-3.17-2.35-6.29-4.77-9.3-7.31l-7.23,8.86c3.26,2.76,6.63,5.41,10.06,7.95l6.47-9.5Z"/>
  <path class="cls-3" d="M250.76,509.56c-3.36-2.05-6.66-4.21-9.88-6.48l-6.44,9.48c3.48,2.45,7.05,4.8,10.69,7.02l5.63-10.02Z"/>
  <path class="cls-3" d="M213.12,479.07c-2.73-2.88-5.36-5.84-7.9-8.89l-8.64,7.46c2.76,3.31,5.62,6.51,8.58,9.62l7.96-8.19h0Z"/>
  <path class="cls-3" d="M202.42,466.83c-2.47-3.11-4.83-6.31-7.11-9.58l-9.23,6.65c2.47,3.54,5.04,6.99,7.73,10.35l8.61-7.43h0Z"/>
  <path class="cls-3" d="M279.58,523.87c-3.66-1.43-7.26-2.98-10.81-4.64l-4.76,10.49c3.85,1.8,7.76,3.45,11.73,4.99l3.84-10.85h0Z"/>
  <path class="cls-3" d="M310.39,532.75c-3.85-.75-7.68-1.57-11.44-2.56l-2.9,11.11c4.08,1.08,8.22,2.01,12.4,2.82l1.94-11.36h0Z"/>
  <path class="cls-3" d="M294.8,529c-3.77-1.1-7.5-2.29-11.17-3.62l-3.84,10.85c3.98,1.44,8.01,2.75,12.1,3.93l2.91-11.16h0Z"/>
  <path class="cls-3" d="M264.85,517.4c-3.53-1.75-6.96-3.65-10.36-5.62l-5.63,10.02c3.68,2.14,7.42,4.15,11.25,6.04l4.74-10.45h0Z"/>
  <path class="cls-3" d="M192.82,453.64c-2.2-3.31-4.3-6.7-6.3-10.16l-9.74,5.79c2.16,3.75,4.44,7.42,6.82,11l9.21-6.63h.01Z"/>
  <path class="cls-3" d="M254.7,423.05c-1.02-1.28-2-2.58-2.97-3.9l-6.84,5.11c1.1,1.5,2.22,2.98,3.38,4.43l6.43-5.65h0Z"/>
  <path class="cls-3" d="M184.37,439.65c-1.91-3.49-3.76-7.03-5.47-10.66l-10.16,4.87c1.84,3.93,3.8,7.79,5.88,11.57l9.75-5.79h0Z"/>
  <path class="cls-3" d="M260.79,430.03c-1.11-1.18-2.21-2.4-3.27-3.63l-6.43,5.65c1.21,1.41,2.45,2.78,3.72,4.14l5.98-6.16Z"/>
  <path class="cls-3" d="M326.24,535.13c-3.91-.4-7.78-.94-11.62-1.59l-1.94,11.33c4.15.7,8.34,1.27,12.58,1.7l.97-11.44h0Z"/>
  <path class="cls-3" d="M249.21,415.57c-.92-1.35-1.81-2.72-2.68-4.12l-7.2,4.54c.98,1.59,2,3.15,3.04,4.68l6.84-5.11h0Z"/>
  <path class="cls-3" d="M239.93,399.44c-.7-1.48-1.36-2.99-2.01-4.5l-7.8,3.32c.73,1.72,1.49,3.43,2.29,5.12l7.52-3.94Z"/>
  <path class="cls-3" d="M244.27,407.69c-.81-1.42-1.61-2.86-2.37-4.31l-7.52,3.94c.86,1.66,1.76,3.3,2.69,4.91l7.2-4.54Z"/>
  <path class="cls-3" d="M177.13,424.96c-1.61-3.65-3.13-7.35-4.51-11.12l-10.55,3.94c1.5,4.08,3.11,8.11,4.85,12.07l10.2-4.89h.01Z"/>
  <path class="cls-3" d="M163.22,377.79c-.63-3.95-1.16-7.93-1.55-11.95l-11.12,1c.41,4.36.97,8.67,1.65,12.95l11.02-2Z"/>
  <path class="cls-3" d="M171.15,409.68c-1.29-3.78-2.46-7.61-3.52-11.49l-10.85,2.98c1.14,4.21,2.42,8.36,3.82,12.46,0,0,10.55-3.95,10.55-3.95Z"/>
  <path class="cls-3" d="M166.47,393.92c-.97-3.88-1.77-7.81-2.5-11.78l-11.03,2c.78,4.3,1.68,8.56,2.73,12.76l10.81-2.98h-.01Z"/>
  <path class="cls-1" d="M344.39,531.63c99.03,0,179.32-82.58,179.32-184.46s-80.29-184.46-179.32-184.46-179.31,82.59-179.31,184.46,80.28,184.46,179.31,184.46ZM205.46,408.89c-1.14,2.01-3.65,2.68-5.6,1.51-1.96-1.17-2.62-3.74-1.48-5.76,1.14-2.01,3.64-2.7,5.59-1.52,1.96,1.17,2.62,3.75,1.48,5.76h0ZM230.84,461.21l3.31-5.25-.04-.04-5.2,3.29-1.55-1.59,3.18-5.37-.05-.06-5.04,3.46-1.51-1.55,7.38-4.75,1.91,1.97-2.71,4.63.06.05,4.5-2.78,1.92,1.97-4.62,7.59-1.52-1.55-.02-.02ZM241.67,462.63c-.64-.79-1.2-1.44-1.68-1.94-.28-.29-.51-.5-.68-.63s-.32-.2-.43-.21c-.1-.01-.2,0-.28.06-.08.05-.18.14-.3.27-.14.15-.24.27-.28.36s-.04.18,0,.28.13.25.28.45l.96,1.28c.35.45.55.86.6,1.23.05.37,0,.71-.18,1.04-.17.32-.44.67-.8,1.05-.51.53-1,.83-1.46.9-.45.08-.88,0-1.29-.24-.4-.24-.85-.63-1.35-1.13-.36-.38-.68-.73-.96-1.08-.27-.34-.55-.73-.85-1.16l1.15-1.19c.61.79,1.13,1.41,1.58,1.85.46.48.8.75,1,.82.11.04.21.04.29,0,.09-.04.18-.12.3-.25.15-.15.24-.26.28-.34.05-.08.05-.17,0-.26-.03-.09-.13-.25-.28-.44l-1.1-1.46c-.22-.29-.38-.55-.47-.8s-.1-.52-.03-.82c.08-.43.39-.93.93-1.48.57-.58,1.08-.93,1.54-1.04.46-.11.89-.06,1.27.16.39.22.82.58,1.3,1.07.84.87,1.54,1.69,2.1,2.46l-1.18,1.21.02-.02ZM286.03,496.28c-2.18.6-4.42-.74-5-2.99-.58-2.26.73-4.56,2.91-5.15,2.19-.59,4.43.74,5.01,3,.58,2.25-.73,4.55-2.92,5.14h0ZM348.71,513.47c-.55.79-1.29,1.31-2.21,1.56-.93.25-2.1.37-3.53.37-1.05,0-2.01-.04-2.89-.13s-1.83-.22-2.86-.41v-3.42c1.98.22,3.61.33,4.87.33,1.34,0,2.2-.1,2.6-.31.22-.1.35-.25.41-.44s.09-.45.09-.8c0-.42-.03-.73-.09-.91-.05-.18-.18-.31-.37-.39-.2-.07-.53-.15-1.01-.22l-3.64-.46c-.74-.08-1.34-.24-1.81-.46-.48-.22-.87-.6-1.19-1.12-.48-.74-.72-1.92-.72-3.52s.26-2.94.77-3.79c.52-.84,1.21-1.4,2.08-1.65.86-.26,1.99-.39,3.37-.39,2.43,0,4.59.15,6.47.44v3.49c-2.03-.21-3.75-.3-5.14-.3-.82,0-1.44.03-1.87.1s-.75.18-.93.33c-.16.14-.27.3-.31.5s-.06.48-.06.84c0,.43.04.74.1.92.07.19.2.32.4.4s.55.15,1.05.22l3.17.41c1.13.14,2,.43,2.59.89.59.45.99,1.04,1.2,1.76.2.72.31,1.61.31,2.7,0,1.52-.28,2.68-.82,3.46h-.03ZM405.99,494.33c-1.13,2.01-3.64,2.68-5.59,1.51-1.95-1.17-2.62-3.75-1.48-5.76,1.14-2.01,3.64-2.69,5.6-1.52,1.95,1.17,2.62,3.75,1.47,5.76h0ZM452.13,465.86l-1.23-1.27,2.74-2.82-1.12-1.15-2.32,2.38-1.23-1.27,2.32-2.38-1.18-1.22-2.74,2.82-1.23-1.27,4.25-4.38,6,6.17-4.25,4.38h0ZM460.48,457.07c-.24.41-.6.88-1.1,1.39-.37.38-.71.7-1.05.98-.33.28-.71.57-1.13.88l-1.15-1.18c.76-.63,1.36-1.17,1.8-1.62.46-.47.73-.82.8-1.03.04-.12.03-.21,0-.29-.04-.09-.12-.2-.24-.31-.14-.15-.25-.24-.34-.28-.08-.04-.17-.04-.25,0-.09.04-.24.13-.43.28l-1.42,1.14c-.28.23-.55.39-.78.48-.24.09-.5.11-.79.03-.42-.08-.89-.4-1.44-.96-.57-.58-.91-1.11-1.01-1.59-.11-.48-.06-.91.16-1.32.21-.4.56-.84,1.04-1.33.84-.87,1.64-1.59,2.39-2.16l1.18,1.21c-.77.65-1.4,1.23-1.89,1.72-.28.3-.49.53-.62.7-.12.18-.2.33-.2.45-.01.11,0,.2.06.29.06.08.14.19.26.31.14.15.26.25.34.29.09.04.18.04.27,0,.1-.05.24-.15.44-.3l1.23-.99c.44-.36.84-.56,1.2-.61.36-.06.7,0,1.01.18.31.17.65.45,1.01.82.51.52.81,1.02.88,1.49.08.47,0,.91-.24,1.33h0ZM489.93,340.03h17.32v12.64h-3.55v-8.13h-3.25v6.88h-3.55v-6.88h-3.42v8.13h-3.55v-12.64h0ZM481.98,283.81c1.14-2.01,3.64-2.69,5.6-1.52,1.95,1.17,2.61,3.75,1.47,5.76-1.14,2.01-3.64,2.69-5.6,1.52s-2.61-3.75-1.48-5.76h.01ZM484.47,402.69c2.19-.59,4.43.75,5.01,3,.58,2.25-.73,4.55-2.92,5.14-2.18.6-4.43-.75-5-3-.58-2.25.73-4.56,2.91-5.15h0ZM460.17,237.03l-1.23,1.26-2.73-2.82-1.12,1.15,2.32,2.38-1.23,1.26-2.32-2.38-1.18,1.22,2.74,2.82-1.23,1.26-4.26-4.38,6-6.17,4.26,4.38-.02.02ZM450.21,226.82l1.54,1.6-1.17,5.14.04.04,3.09-3.18,1.44,1.49-5.95,6.13-1.41-1.45,1.34-5.61-.04-.05-3.4,3.5-1.44-1.48,5.95-6.13h.01ZM401.41,196.42c2.19-.6,4.42.75,5.01,2.99.58,2.25-.73,4.56-2.91,5.15-2.19.59-4.42-.75-5.01-3-.57-2.25.73-4.56,2.91-5.14ZM336.75,178.94h4.47l5.52,9.17h.12v-9.17h4.17v17.68h-4.07l-5.94-10.1h-.12v10.1h-4.14v-17.68h-.01ZM281.45,198.37c1.14-2.01,3.65-2.69,5.6-1.52,1.95,1.17,2.61,3.75,1.47,5.76s-3.65,2.69-5.6,1.53c-1.96-1.17-2.61-3.75-1.48-5.76h0ZM231.69,230.42l5.1,3.4.04-.04-3.2-5.36,1.55-1.6,5.23,3.28.05-.05-3.36-5.18,1.5-1.56,4.62,7.59-1.91,1.96-4.5-2.78-.05.05,2.7,4.63-1.91,1.98-7.38-4.76,1.52-1.56h0ZM226.24,236.07l5,1.21.04-.05-3.09-3.18,1.45-1.48,5.95,6.12-1.41,1.45-5.46-1.38-.04.05,3.4,3.5-1.43,1.47-5.95-6.12,1.55-1.59h0ZM344.39,214.58c21.29,0,41.37,5.37,59.09,14.82l32.24-24.1-8.98,39.96c28.42,24.33,46.55,60.98,46.55,101.91,0,73.1-57.82,132.58-128.89,132.58-21.28,0-41.37-5.37-59.08-14.81l-32.24,24.08,8.98-39.96c-28.42-24.33-46.55-60.98-46.55-101.91,0-73.11,57.82-132.59,128.89-132.59v.02ZM200.88,281.86c2.19-.6,4.43.74,5.01,2.99s-.73,4.56-2.92,5.15c-2.19.59-4.43-.75-5-3-.58-2.25.73-4.56,2.91-5.14ZM181.54,348.58v-4.61l12.12-3.02v-.16l-12.12-2.49v-4.48l17.31,4.09v5.67l-10.4,2.66v.16l10.4,2.66v5.7l-17.31,4.09v-4.5l12.12-2.67v-.13l-12.12-2.98h0Z"/>
  <path class="cls-3" d="M420.01,519.23c-3.55,1.65-7.15,3.21-10.81,4.64l3.84,10.85c3.97-1.55,7.89-3.2,11.74-4.99l-4.76-10.49h0Z"/>
  <path class="cls-3" d="M342.24,536c-3.94-.05-7.83-.24-11.7-.54l-.97,11.49c4.19.32,8.42.5,12.68.55v-11.5h-.01Z"/>
  <path class="cls-3" d="M405.16,525.38c-3.67,1.33-7.4,2.53-11.18,3.62l2.91,11.16c4.09-1.18,8.13-2.49,12.1-3.93l-3.84-10.85h0Z"/>
  <path class="cls-3" d="M374.15,533.54c-3.84.64-7.7,1.19-11.62,1.59l.97,11.44c4.23-.43,8.43-1,12.58-1.7l-1.94-11.33h.01Z"/>
  <path class="cls-3" d="M434.29,511.78c-3.4,1.97-6.83,3.87-10.36,5.62l4.74,10.45c3.82-1.89,7.57-3.91,11.24-6.04l-5.62-10.02h0Z"/>
  <path class="cls-3" d="M389.84,530.19c-3.77.99-7.59,1.81-11.45,2.56l1.94,11.36c4.18-.81,8.32-1.74,12.4-2.82l-2.89-11.11h0Z"/>
  <path class="cls-3" d="M358.24,535.47c-3.87.3-7.77.49-11.7.54v11.5c4.26-.05,8.49-.22,12.68-.55l-.98-11.49h0Z"/>
  <path class="cls-3" d="M447.9,503.08c-3.22,2.27-6.51,4.42-9.87,6.48l5.62,10.02c3.64-2.22,7.21-4.57,10.69-7.02l-6.44-9.48Z"/>
  <path class="cls-2" d="M344.39,104.74c-62.95,0-122.13,25.21-166.65,71.01-44.51,45.79-69.02,106.67-69.02,171.42s24.51,125.63,69.02,171.43c44.51,45.79,103.7,71,166.65,71s122.14-25.22,166.65-71c44.51-45.79,69.03-106.67,69.03-171.43s-24.51-125.63-69.03-171.42c-44.51-45.8-103.71-71.01-166.65-71.01ZM160.82,349.38c.05,4.05.23,8.06.52,12.04l-11.17,1.01c-.31-4.32-.49-8.67-.53-13.05h11.18ZM344.39,162.71c99.03,0,179.32,82.59,179.32,184.46s-80.29,184.46-179.32,184.46-179.31-82.58-179.31-184.46,80.28-184.46,179.31-184.46ZM161.67,365.84c.39,4.02.92,8,1.55,11.95l-11.02,2c-.68-4.27-1.24-8.59-1.65-12.95l11.12-1ZM163.97,382.14c.73,3.97,1.53,7.9,2.5,11.78l-10.81,2.98c-1.04-4.2-1.95-8.46-2.73-12.76l11.03-2h.01ZM167.63,398.19c1.06,3.88,2.23,7.71,3.52,11.49l-10.55,3.95c-1.4-4.1-2.68-8.25-3.82-12.46,0,0,10.85-2.98,10.85-2.98ZM172.62,413.84c1.38,3.77,2.9,7.47,4.51,11.12l-10.2,4.89c-1.74-3.95-3.36-7.98-4.85-12.07l10.55-3.94h-.01ZM178.9,428.99c1.7,3.62,3.55,7.16,5.47,10.66l-9.75,5.79c-2.07-3.78-4.04-7.65-5.88-11.57l10.16-4.87h0ZM186.52,443.48c2,3.46,4.09,6.85,6.3,10.16l-9.21,6.63c-2.39-3.58-4.66-7.26-6.82-11l9.74-5.79h-.01ZM195.31,457.25c2.29,3.26,4.64,6.47,7.11,9.58l-8.61,7.43c-2.68-3.36-5.26-6.82-7.73-10.35l9.23-6.65h0ZM205.22,470.18c2.55,3.05,5.18,6.01,7.9,8.89l-7.96,8.19c-2.96-3.11-5.83-6.31-8.58-9.62l8.64-7.46h0ZM216.17,482.2c2.79,2.81,5.67,5.51,8.64,8.13l-7.25,8.89c-3.21-2.83-6.33-5.79-9.35-8.83l7.97-8.2h-.01ZM228.08,493.21c3.01,2.55,6.13,4.96,9.3,7.31l-6.47,9.5c-3.44-2.55-6.8-5.19-10.06-7.95l7.23-8.86ZM240.88,503.08c3.22,2.27,6.51,4.42,9.88,6.48l-5.63,10.02c-3.64-2.22-7.21-4.57-10.69-7.02l6.44-9.48ZM254.49,511.78c3.4,1.97,6.83,3.87,10.36,5.62l-4.74,10.45c-3.82-1.89-7.57-3.91-11.25-6.04l5.63-10.02h0ZM268.77,519.23c3.55,1.65,7.14,3.21,10.81,4.64l-3.84,10.85c-3.97-1.55-7.89-3.2-11.73-4.99l4.76-10.49h0ZM283.63,525.38c3.67,1.33,7.4,2.53,11.17,3.62l-2.91,11.16c-4.09-1.18-8.13-2.49-12.1-3.93l3.84-10.85h0ZM298.95,530.19c3.76.99,7.59,1.81,11.44,2.56l-1.94,11.36c-4.18-.81-8.31-1.74-12.4-2.82l2.9-11.11h0ZM314.63,533.54c3.84.64,7.71,1.19,11.62,1.59l-.97,11.44c-4.24-.43-8.43-1-12.58-1.7l1.94-11.33h0ZM330.54,535.47c3.87.3,7.77.49,11.7.54v11.5c-4.26-.05-8.49-.22-12.68-.55l.97-11.49h.01ZM346.54,536c3.93-.05,7.83-.24,11.7-.54l.98,11.49c-4.19.32-8.42.5-12.68.55v-11.5h0ZM363.51,546.57l-.97-11.44c3.91-.4,7.78-.94,11.62-1.59l1.94,11.33c-4.15.7-8.35,1.27-12.58,1.7h-.01ZM380.33,544.12l-1.94-11.36c3.85-.75,7.68-1.57,11.45-2.56l2.89,11.11c-4.08,1.08-8.22,2.01-12.4,2.82h0ZM396.89,540.16l-2.91-11.16c3.78-1.1,7.5-2.29,11.18-3.62l3.84,10.85c-3.98,1.44-8.01,2.75-12.1,3.93h0ZM413.03,534.72l-3.84-10.85c3.66-1.43,7.26-2.98,10.81-4.64l4.76,10.49c-3.84,1.8-7.76,3.45-11.74,4.99h0ZM428.67,527.85l-4.74-10.45c3.52-1.75,6.96-3.65,10.36-5.62l5.62,10.02c-3.67,2.14-7.42,4.15-11.24,6.04h0ZM443.65,519.58l-5.62-10.02c3.36-2.05,6.65-4.21,9.87-6.48l6.44,9.48c-3.48,2.45-7.06,4.8-10.69,7.02ZM457.87,510.02l-6.46-9.5c3.17-2.35,6.29-4.77,9.3-7.31l7.23,8.86c-3.27,2.76-6.63,5.41-10.06,7.95h-.01ZM471.23,499.22l-7.26-8.89c2.97-2.62,5.85-5.32,8.64-8.13l7.96,8.2c-3.02,3.04-6.14,5.99-9.35,8.83h.01ZM483.62,487.26l-7.97-8.19c2.73-2.88,5.36-5.84,7.91-8.89l8.64,7.46c-2.76,3.31-5.62,6.51-8.58,9.62h0ZM494.97,474.25l-8.61-7.43c2.47-3.11,4.82-6.31,7.11-9.58l9.23,6.65c-2.47,3.54-5.05,6.99-7.74,10.35h0ZM505.17,460.27l-9.2-6.63c2.2-3.31,4.3-6.7,6.3-10.16l9.74,5.79c-2.16,3.75-4.44,7.42-6.83,11h0ZM514.15,445.44l-9.75-5.79c1.92-3.49,3.76-7.03,5.47-10.66l10.16,4.87c-1.84,3.93-3.8,7.79-5.88,11.57h0ZM521.85,429.85l-10.2-4.89c1.61-3.65,3.13-7.35,4.51-11.12l10.54,3.94c-1.5,4.08-3.11,8.11-4.85,12.07ZM528.18,413.63l-10.54-3.95c1.29-3.78,2.46-7.61,3.52-11.49l10.84,2.98c-1.14,4.21-2.41,8.36-3.82,12.46h0ZM533.11,396.9l-10.81-2.98c.96-3.88,1.77-7.81,2.5-11.78l11.03,2c-.78,4.3-1.68,8.56-2.73,12.76h.01ZM536.58,379.78l-11.02-2c.63-3.95,1.15-7.93,1.54-11.95l11.12,1c-.41,4.36-.97,8.67-1.65,12.95h0ZM538.61,362.43l-11.17-1.01c.3-3.98.48-7.99.52-12.04h11.18c-.04,4.38-.22,8.73-.53,13.05h0ZM527.96,344.95c-.05-4.05-.23-8.05-.52-12.04l11.17-1c.31,4.31.49,8.66.53,13.04h-11.18ZM527.11,328.51c-.39-4.02-.91-8-1.54-11.95l11.02-2c.68,4.27,1.24,8.59,1.65,12.95l-11.12,1h0ZM524.8,312.2c-.73-3.97-1.53-7.9-2.5-11.78l10.81-2.98c1.04,4.2,1.95,8.45,2.73,12.75l-11.03,2.01h-.01ZM521.15,296.15c-1.06-3.88-2.23-7.72-3.52-11.49l10.54-3.95c1.41,4.09,2.68,8.24,3.82,12.45l-10.84,2.99h0ZM516.16,280.5c-1.38-3.76-2.9-7.47-4.51-11.12l10.2-4.89c1.74,3.95,3.36,7.98,4.86,12.07l-10.55,3.94ZM509.87,265.35c-1.7-3.63-3.55-7.16-5.47-10.66l9.75-5.79c2.08,3.78,4.04,7.64,5.88,11.57l-10.16,4.87h0ZM502.26,250.85c-2-3.46-4.09-6.84-6.3-10.15l9.2-6.63c2.39,3.58,4.66,7.25,6.83,11l-9.74,5.78h0ZM493.47,237.09c-2.29-3.26-4.63-6.47-7.11-9.57l8.61-7.44c2.69,3.36,5.26,6.82,7.73,10.36l-9.23,6.65h0ZM483.56,224.15c-2.55-3.04-5.17-6.01-7.91-8.88l7.97-8.2c2.96,3.11,5.82,6.32,8.58,9.62l-8.64,7.46h0ZM472.61,212.14c-2.79-2.8-5.67-5.51-8.64-8.13l7.26-8.89c3.21,2.83,6.33,5.78,9.35,8.82l-7.96,8.19h-.01ZM460.71,201.13c-3.01-2.55-6.13-4.96-9.3-7.31l6.46-9.5c3.44,2.54,6.8,5.19,10.06,7.95l-7.23,8.86h.01ZM447.9,191.25c-3.22-2.26-6.51-4.42-9.87-6.48l5.62-10.02c3.64,2.22,7.21,4.56,10.69,7.02l-6.44,9.47h0ZM434.29,182.56c-3.4-1.97-6.83-3.87-10.36-5.62l4.74-10.45c3.82,1.89,7.57,3.91,11.24,6.05l-5.62,10.03h0ZM420.01,175.11c-3.55-1.66-7.15-3.22-10.81-4.64l3.84-10.85c3.97,1.54,7.89,3.2,11.73,4.99l-4.76,10.5ZM405.16,168.96c-3.67-1.33-7.4-2.53-11.18-3.62l2.91-11.16c4.09,1.18,8.13,2.49,12.1,3.93l-3.84,10.85h0ZM389.84,164.15c-3.77-.99-7.59-1.82-11.45-2.56l1.94-11.35c4.18.8,8.32,1.73,12.4,2.8l-2.89,11.11h0ZM374.15,160.8c-3.84-.64-7.7-1.2-11.62-1.59l.97-11.44c4.23.42,8.43.99,12.58,1.69l-1.94,11.33h.01ZM358.24,158.88c-3.87-.3-7.77-.49-11.7-.54v-11.5c4.26.05,8.49.22,12.68.55,0,0-.98,11.49-.98,11.49ZM342.24,158.34c-3.94.05-7.83.24-11.7.54l-.97-11.49c4.19-.33,8.42-.5,12.68-.55v11.5h-.01ZM325.27,147.77l.97,11.44c-3.91.39-7.78.94-11.61,1.59l-1.94-11.33c4.15-.7,8.34-1.27,12.58-1.69h0ZM308.45,150.23l1.94,11.35c-3.85.74-7.68,1.57-11.44,2.56l-2.9-11.11c4.08-1.07,8.22-2,12.4-2.8ZM291.89,154.18l2.91,11.16c-3.77,1.09-7.5,2.29-11.17,3.62l-3.84-10.85c3.98-1.44,8.01-2.75,12.11-3.93h-.01ZM275.74,159.62l3.84,10.85c-3.66,1.42-7.26,2.98-10.81,4.64l-4.76-10.5c3.84-1.79,7.76-3.45,11.73-4.99ZM260.11,166.49l4.74,10.45c-3.53,1.75-6.96,3.65-10.36,5.62l-5.63-10.03c3.68-2.14,7.43-4.16,11.25-6.05h0ZM245.13,174.76l5.63,10.02c-3.36,2.06-6.66,4.21-9.88,6.48l-6.45-9.47c3.49-2.46,7.06-4.8,10.7-7.02h0ZM230.91,184.32l6.47,9.5c-3.17,2.35-6.29,4.76-9.3,7.31l-7.23-8.86c3.26-2.76,6.63-5.41,10.06-7.95ZM217.55,195.13l7.25,8.89c-2.96,2.62-5.84,5.32-8.63,8.13l-7.97-8.19c3.02-3.04,6.14-5.99,9.35-8.82h0ZM205.16,207.08l7.96,8.2c-2.73,2.87-5.36,5.84-7.9,8.88l-8.64-7.46c2.76-3.3,5.62-6.51,8.58-9.62ZM193.81,220.08l8.62,7.44c-2.48,3.1-4.83,6.31-7.11,9.57l-9.23-6.65c2.47-3.54,5.05-6.99,7.73-10.36h-.01ZM183.61,234.07l9.21,6.63c-2.2,3.31-4.3,6.7-6.3,10.15l-9.74-5.78c2.16-3.75,4.44-7.42,6.83-11ZM174.62,248.9l9.75,5.79c-1.91,3.49-3.76,7.03-5.47,10.66l-10.16-4.87c1.84-3.93,3.8-7.79,5.88-11.57h0ZM166.92,264.49l10.2,4.89c-1.61,3.65-3.13,7.35-4.51,11.12l-10.55-3.94c1.5-4.08,3.11-8.11,4.85-12.07h.01ZM160.6,280.71l10.55,3.95c-1.29,3.78-2.46,7.62-3.52,11.49l-10.85-2.99c1.14-4.21,2.42-8.36,3.82-12.45ZM155.66,297.44l10.81,2.98c-.97,3.87-1.77,7.81-2.5,11.78l-11.03-2.01c.78-4.3,1.68-8.55,2.73-12.75h-.01ZM152.2,314.56l11.02,2c-.63,3.94-1.16,7.92-1.55,11.95l-11.12-1c.41-4.36.97-8.67,1.65-12.95ZM150.17,331.91l11.17,1c-.29,3.99-.47,7.99-.52,12.04h-11.18c.05-4.38.22-8.73.53-13.04ZM149.48,407.99c3.1,9.78,6.7,19.38,11.12,28.59,4.45,9.19,9.42,18.1,15.06,26.55,22.37,33.94,54.62,60.76,91.41,76.06,18.4,7.65,37.83,12.46,57.55,14.47,9.86.93,19.78,1.1,29.68.67,9.88-.64,19.73-1.77,29.43-3.79,38.85-7.93,75.13-28.11,102.99-56.97,28.07-28.66,47.68-65.99,55.39-105.95,1.97-9.98,3.07-20.12,3.69-30.28.42-10.18.24-20.37-.65-30.52-1.04-10.13-2.59-20.21-4.96-30.11-2.42-9.88-5.34-19.65-9.1-29.09-14.86-37.85-40.94-71.03-73.94-94.04-8.22-5.8-16.88-10.92-25.81-15.5-8.96-4.54-18.3-8.24-27.8-11.43-9.53-3.14-19.32-5.37-29.18-7.1-9.89-1.66-19.9-2.47-29.95-2.77,40.2-.82,80.62,11.32,114.5,34.1,33.87,22.81,60.96,56.24,76.75,94.78,16,38.49,20.05,82.03,12.22,123.12-7.74,41.17-27.76,79.76-56.58,109.47-28.87,29.66-66.4,50.24-106.42,58.2-39.95,8.05-82.27,3.9-119.7-12.56-37.47-16.25-69.96-44.11-92.14-78.96-22.15-34.85-33.95-76.44-33.15-117.78.29,10.33,1.07,20.62,2.69,30.8,1.69,10.16,3.85,20.22,6.91,30.03h-.01ZM141.46,258.04c9.85-27.12,25.51-52.18,45.55-72.76,20-20.63,44.36-36.73,70.72-46.87,26.33-10.19,54.77-14.32,82.23-11.46-27.43,2.87-53.88,9.85-78.25,21.33-24.36,11.45-46.47,27.38-65.29,46.68-18.78,19.35-34.25,42.11-45.4,67.16-11.17,25.07-17.94,52.29-20.71,80.5-2.76-28.25,1.26-57.49,11.16-84.58h-.01ZM568.42,393c-8.53,45.33-30.58,87.81-62.31,120.52-31.78,32.65-73.09,55.32-117.15,64.11-43.99,8.88-90.58,4.31-131.8-13.79-41.28-17.87-77.09-48.54-101.55-86.91-24.45-38.37-37.49-84.18-36.68-129.76.3,11.38,1.15,22.74,2.92,33.96,1.85,11.2,4.22,22.31,7.58,33.12,3.4,10.78,7.37,21.38,12.23,31.55,4.89,10.14,10.37,19.99,16.58,29.31,24.65,37.48,60.22,67.09,100.82,83.99,10.13,4.29,20.61,7.61,31.21,10.36,10.61,2.72,21.44,4.47,32.3,5.65,10.89,1.02,21.84,1.23,32.76.75,10.9-.7,21.78-1.95,32.49-4.18,42.89-8.74,82.96-31.01,113.73-62.86,30.98-31.65,52.62-72.88,61.12-116.99,2.17-11.02,3.38-22.22,4.06-33.43.46-11.24.27-22.5-.73-33.7-1.14-11.18-2.86-22.31-5.49-33.24-2.67-10.9-5.9-21.68-10.07-32.1-16.44-41.77-45.24-78.35-81.67-103.72-9.07-6.39-18.64-12.02-28.5-17.06-9.89-4.99-20.2-9.07-30.68-12.57-10.51-3.45-21.32-5.89-32.2-7.8-10.91-1.82-21.95-2.69-33.02-3,44.32-.83,88.85,12.59,126.14,37.74,37.3,25.16,67.11,62.01,84.48,104.46,17.58,42.4,22.04,90.33,13.41,135.57l.02.02Z"/>
  <path class="cls-3" d="M151.02,262.12c11.14-25.05,26.61-47.81,45.4-67.16,18.82-19.3,40.94-35.22,65.29-46.68,24.37-11.48,50.82-18.46,78.25-21.33-27.46-2.85-55.9,1.27-82.23,11.46-26.37,10.14-50.73,26.24-70.72,46.87-20.03,20.58-35.69,45.64-45.55,72.76-9.9,27.09-13.92,56.33-11.16,84.58,2.78-28.22,9.55-55.44,20.71-80.5h.01Z"/>
  <path class="cls-2" d="M262.05,449.08l-8.98,39.96,32.24-24.08c17.71,9.43,37.79,14.81,59.08,14.81,71.07,0,128.89-59.48,128.89-132.58,0-40.92-18.13-77.57-46.55-101.91l8.98-39.96-32.24,24.1c-17.71-9.44-37.79-14.82-59.09-14.82-71.07,0-128.89,59.48-128.89,132.59,0,40.93,18.13,77.57,46.55,101.91v-.02ZM398.45,233.15l-6.64,4.96c-.33-.15-.65-.31-.99-.46l3.23-8.02c1.68.75,3.34,1.53,4.98,2.35l-.58,1.17h0ZM346.05,324.35c-.55-.03-1.1-.08-1.66-.08-12.27,0-22.25,10.27-22.25,22.9,0,3.77.91,7.33,2.49,10.47l-3.79,5.88c-3.07-4.67-4.86-10.29-4.86-16.35,0-16.15,12.72-29.24,28.41-29.24,1.86,0,3.68.2,5.44.55l-3.78,5.87h0ZM426.91,251.2c1.36,1.24,2.7,2.52,4.02,3.82l-5.98,6.15c-.49-.48-.97-.96-1.47-1.44l1.36-6.05,2.07-2.49h0ZM290.33,461.19l6.64-4.96c.33.15.66.31.99.46l-3.23,8.01c-1.68-.75-3.34-1.53-4.98-2.35l.58-1.17h0ZM424.61,267c9.41,9.96,17.09,21.66,22.52,34.6l-57.87,24.66c-.95-2.16-2.05-4.24-3.27-6.22l15.37-29.11,23.25-23.92h0ZM424.61,427.34l-23.25-23.92-15.37-29.11c1.23-1.98,2.32-4.06,3.27-6.22l57.87,24.66c-5.43,12.93-13.11,24.63-22.52,34.59h0ZM388.7,452.86l-23.97-59.52c2.09-.98,4.12-2.11,6.05-3.38l28.3,15.81,23.25,23.93c-9.68,9.68-21.06,17.57-33.63,23.16h0ZM346,462.21v-5.87l10.85-60.12c1.67-.45,3.3-.99,4.89-1.61l23.96,59.5c-12.31,5.04-25.69,7.89-39.7,8.1h0ZM303.07,454.11l23.96-59.5c1.6.62,3.23,1.16,4.9,1.61l10.84,60.11v5.88c-14.01-.21-27.38-3.06-39.7-8.1h0ZM374.01,321.39l16.59-17.06-15.92,30.16c-1.09-2.73-2.52-5.26-4.22-7.58l3.55-5.52h0ZM456.23,345.51h-5.71l-58.44-11.16c-.43-1.71-.96-3.39-1.56-5.04l57.84-24.64c4.9,12.66,7.67,26.42,7.87,40.84ZM448.36,389.67l-57.84-24.64c.6-1.64,1.12-3.32,1.56-5.04l58.44-11.16h5.71c-.2,14.41-2.97,28.17-7.87,40.84h0ZM359.15,383.47l7.23,4.04c-2.73,1.57-5.62,2.89-8.66,3.86l1.43-7.9ZM383.6,324.54c1.54,2.81,2.82,5.78,3.76,8.91l-7.69-1.47,3.93-7.44ZM387.36,360.89c-.94,3.13-2.22,6.1-3.76,8.91l-3.93-7.44,7.69-1.46h0ZM424.13,350.49l-46.07,8.8-2-3.79c.41-1.63.73-3.3.89-5.01h47.18ZM386.03,394.7l-29.32-16.37c3.06-1.28,5.89-3.02,8.4-5.14l20.92,21.51ZM341.16,429.19l-8-44.33,3.27-5.07c1.54.4,3.11.71,4.74.88v48.53h-.01ZM331.05,391.37c-.57-.18-1.12-.42-1.68-.63l1.23-1.9.45,2.53ZM300.22,452.52l-2.49-12.62,20.23-31.43-17.74,44.05h0ZM301.94,458.38c1.49.61,3,1.18,4.52,1.73l-2.61,8.24c-1.73-.61-3.44-1.27-5.14-1.95l3.23-8.02ZM310.54,461.49c1.53.48,3.07.94,4.64,1.36l-1.97,8.43c-1.77-.47-3.53-1-5.27-1.54l2.61-8.25h0ZM319.37,463.86c1.56.35,3.14.66,4.73.96l-1.31,8.55c-1.81-.33-3.6-.69-5.38-1.09l1.97-8.41h0ZM328.35,465.51c1.59.23,3.18.44,4.78.6l-.66,8.62c-1.83-.18-3.64-.41-5.44-.67l1.32-8.55ZM337.42,466.45c1.6.09,3.21.15,4.82.18v8.65c-1.83-.04-3.66-.1-5.47-.2l.66-8.62h-.01ZM346.54,466.62c1.61-.03,3.22-.08,4.81-.18l.66,8.62c-1.81.11-3.64.17-5.47.2v-8.65h0ZM355.65,466.11c1.61-.16,3.2-.37,4.78-.6l1.31,8.55c-1.8.25-3.61.49-5.43.67l-.66-8.62ZM364.69,464.82c1.59-.29,3.16-.6,4.72-.96l1.96,8.41c-1.78.41-3.57.76-5.37,1.09l-1.31-8.55h0ZM373.6,462.85c1.56-.42,3.1-.88,4.63-1.36l2.61,8.25c-1.75.54-3.5,1.07-5.28,1.54l-1.96-8.43h0ZM382.33,460.11c1.52-.55,3.02-1.12,4.51-1.73l3.22,8.02c-1.69.69-3.41,1.34-5.14,1.95l-2.6-8.24h.01ZM390.82,456.69c1.48-.67,2.94-1.35,4.38-2.07l3.83,7.74c-1.64.82-3.3,1.6-4.98,2.35l-3.23-8.01h0ZM399.03,452.6c1.42-.78,2.81-1.6,4.19-2.44l4.42,7.41c-1.58.96-3.16,1.88-4.78,2.77l-3.83-7.74h0ZM406.88,447.84c1.35-.89,2.69-1.81,4-2.76l4.97,7.03c-1.49,1.08-3.01,2.12-4.55,3.13l-4.42-7.41h0ZM414.38,442.49c1.28-1,2.55-2.01,3.78-3.06l5.49,6.62c-1.41,1.19-2.85,2.35-4.3,3.49l-4.97-7.04h0ZM421.41,436.53c1.2-1.1,2.37-2.22,3.53-3.37l5.98,6.15c-1.31,1.31-2.65,2.59-4.02,3.83l-5.5-6.61h0ZM427.99,430.03c1.11-1.18,2.21-2.4,3.27-3.63l6.43,5.65c-1.21,1.41-2.45,2.78-3.72,4.14l-5.98-6.16h0ZM434.07,423.05c1.02-1.28,2.01-2.58,2.98-3.9l6.84,5.11c-1.1,1.5-2.22,2.98-3.38,4.43l-6.44-5.65h0ZM439.58,415.57c.92-1.35,1.81-2.72,2.67-4.12l7.21,4.54c-.99,1.59-2,3.15-3.05,4.68l-6.83-5.11h0ZM444.51,407.69c.82-1.42,1.61-2.86,2.37-4.31l7.53,3.94c-.86,1.66-1.76,3.3-2.69,4.91l-7.21-4.54ZM448.85,399.44c.7-1.48,1.36-2.99,2.01-4.5l7.8,3.32c-.73,1.72-1.49,3.43-2.28,5.12l-7.52-3.94h-.01ZM452.5,390.84c.59-1.53,1.15-3.08,1.67-4.65l8.02,2.68c-.6,1.79-1.23,3.54-1.9,5.29l-7.79-3.32ZM455.52,381.99c.47-1.57.91-3.16,1.32-4.76l8.19,2.02c-.46,1.83-.96,3.63-1.5,5.43l-8.02-2.68h0ZM457.83,372.91c.35-1.6.65-3.23.93-4.86l8.31,1.35c-.32,1.86-.67,3.7-1.07,5.53l-8.18-2.02h.01ZM459.43,363.67c.22-1.63.42-3.27.58-4.92l8.38.68c-.17,1.88-.4,3.74-.65,5.6l-8.31-1.35h0ZM460.34,354.34c.1-1.65.14-3.3.17-4.96h8.4c-.03,1.89-.09,3.76-.2,5.63l-8.38-.67h.01ZM460.51,344.95c-.03-1.65-.07-3.31-.17-4.95l8.38-.68c.1,1.87.17,3.74.2,5.63h-8.41ZM460.01,335.59c-.15-1.65-.36-3.29-.58-4.93l8.31-1.35c.25,1.85.48,3.72.65,5.6l-8.38.68ZM458.76,326.3c-.28-1.63-.59-3.25-.93-4.86l8.18-2.02c.4,1.83.75,3.67,1.07,5.53l-8.31,1.35h-.01ZM456.85,317.12c-.41-1.61-.86-3.19-1.32-4.77l8.02-2.68c.53,1.79,1.04,3.6,1.5,5.42l-8.19,2.02h0ZM454.17,308.14c-.52-1.56-1.08-3.11-1.67-4.65l7.79-3.31c.67,1.75,1.3,3.5,1.9,5.28l-8.02,2.68ZM450.86,299.41c-.64-1.52-1.3-3.03-2.01-4.5l7.51-3.94c.8,1.68,1.56,3.4,2.29,5.13l-7.8,3.32h0ZM446.88,290.96c-.76-1.46-1.55-2.89-2.37-4.31l7.21-4.54c.93,1.61,1.83,3.25,2.69,4.91l-7.53,3.94h0ZM442.25,282.88c-.86-1.39-1.76-2.76-2.67-4.12l6.83-5.11c1.05,1.54,2.06,3.1,3.05,4.69l-7.21,4.54h0ZM437.05,275.18c-.97-1.32-1.96-2.62-2.98-3.89l6.44-5.65c1.16,1.45,2.28,2.93,3.38,4.43l-6.84,5.11ZM431.26,267.94c-1.06-1.24-2.16-2.44-3.27-3.63l5.98-6.15c1.27,1.35,2.51,2.72,3.72,4.13l-6.43,5.65h0ZM422.33,264.65l-23.25,23.92-6.14,3.43,16.24-25.22,12.64-2.64c.17.18.34.34.51.51h0ZM367.95,330.82c3.07,4.67,4.86,10.29,4.86,16.35,0,16.15-12.73,29.23-28.42,29.23-1.85,0-3.67-.2-5.43-.55l3.79-5.88c.54.04,1.09.09,1.65.09,12.28,0,22.26-10.28,22.26-22.9,0-3.78-.91-7.33-2.49-10.47l3.79-5.88h-.01ZM261.87,443.14c-1.37-1.24-2.71-2.52-4.02-3.83l5.98-6.15c.49.48.97.97,1.47,1.44l-1.36,6.05-2.07,2.49h0ZM241.65,392.75l57.87-24.66c.95,2.16,2.05,4.24,3.28,6.22l-15.37,29.11-23.25,23.92c-9.41-9.96-17.09-21.66-22.52-34.59h0ZM264.17,267l23.25,23.92,15.37,29.11c-1.23,1.99-2.32,4.06-3.28,6.22l-57.86-24.66c5.43-12.94,13.11-24.63,22.52-34.6h0ZM300.09,241.48l23.97,59.52c-2.1.98-4.12,2.11-6.05,3.37l-28.3-15.81-23.26-23.92c9.69-9.68,21.05-17.58,33.64-23.17h0ZM342.77,232.13v5.88l-10.84,60.11c-1.67.45-3.3.99-4.9,1.61l-23.96-59.5c12.31-5.04,25.69-7.89,39.7-8.1h0ZM385.71,240.23l-23.96,59.5c-1.59-.62-3.22-1.15-4.89-1.61l-10.85-60.11v-5.88c14.01.21,27.39,3.06,39.7,8.1ZM266.45,429.69l23.26-23.93,6.14-3.42-16.24,25.22-12.64,2.64c-.17-.17-.35-.34-.52-.51h0ZM232.56,348.83h5.7l58.44,11.16c.44,1.72.96,3.4,1.56,5.04l-57.84,24.64c-4.9-12.67-7.68-26.43-7.87-40.84h0ZM240.43,304.67l57.84,24.64c-.6,1.64-1.12,3.32-1.56,5.04l-58.44,11.16h-5.71c.19-14.41,2.98-28.18,7.87-40.84h0ZM314.77,372.94l-16.59,17.06,15.92-30.15c1.09,2.72,2.52,5.26,4.22,7.57l-3.55,5.52ZM309.11,331.98l-7.68,1.47c.94-3.13,2.22-6.1,3.76-8.91l3.93,7.44h0ZM309.11,362.35l-3.93,7.44c-1.54-2.81-2.81-5.77-3.76-8.91l7.68,1.46h0ZM264.65,343.85l46.07-8.8,2,3.79c-.41,1.63-.72,3.29-.89,5.01h-47.18,0ZM302.75,299.63l29.32,16.38c-3.06,1.28-5.89,3.01-8.4,5.14l-20.92-21.51h0ZM329.63,310.87l-7.23-4.04c2.73-1.57,5.62-2.89,8.66-3.85l-1.42,7.9h-.01ZM347.62,265.15l8,44.34-3.26,5.08c-1.54-.4-3.12-.72-4.73-.88v-48.53h0ZM357.73,302.97c.57.18,1.12.42,1.68.63l-1.23,1.9-.46-2.53h.01ZM344.39,328.7c9.92,0,17.96,8.26,17.96,18.47s-8.04,18.46-17.96,18.46-17.95-8.26-17.95-18.46,8.04-18.47,17.95-18.47h0ZM388.56,241.82l2.49,12.62-20.23,31.43,17.74-44.05h0ZM386.84,235.96c-1.49-.61-2.99-1.18-4.51-1.72l2.6-8.25c1.73.61,3.45,1.26,5.14,1.95l-3.23,8.02ZM378.23,232.85c-1.53-.48-3.07-.94-4.63-1.36l1.96-8.43c1.78.48,3.53.99,5.28,1.54l-2.61,8.25ZM369.41,230.48c-1.56-.35-3.14-.67-4.72-.96l1.31-8.54c1.81.32,3.6.68,5.37,1.08l-1.96,8.42ZM360.43,228.83c-1.59-.23-3.18-.44-4.78-.6l.66-8.62c1.82.17,3.63.41,5.43.66l-1.31,8.55h0ZM351.36,227.89c-1.6-.1-3.21-.15-4.81-.18v-8.65c1.83.03,3.66.09,5.47.21l-.66,8.62ZM342.24,227.72c-1.61.03-3.22.07-4.82.18l-.66-8.62c1.81-.11,3.64-.17,5.47-.21v8.65h.01ZM333.13,228.23c-1.6.16-3.19.37-4.78.6l-1.32-8.55c1.8-.26,3.61-.49,5.44-.66l.66,8.62h0ZM324.1,229.52c-1.59.29-3.16.61-4.73.96l-1.97-8.42c1.78-.4,3.57-.76,5.38-1.08l1.31,8.54h0ZM315.18,231.49c-1.56.42-3.11.88-4.64,1.36l-2.61-8.25c1.75-.55,3.5-1.06,5.27-1.54l1.97,8.43h0ZM306.46,234.24c-1.52.54-3.03,1.11-4.52,1.72l-3.23-8.02c1.7-.69,3.4-1.34,5.14-1.95l2.61,8.25ZM297.96,237.65c-1.47.66-2.94,1.34-4.38,2.07l-3.83-7.74c1.64-.82,3.3-1.6,4.98-2.35l3.23,8.02h0ZM289.75,241.74c-1.41.78-2.81,1.6-4.19,2.44l-4.41-7.41c1.57-.95,3.16-1.88,4.78-2.76l3.83,7.74h0ZM281.89,246.5c-1.35.89-2.68,1.81-4,2.76l-4.97-7.03c1.5-1.08,3.01-2.12,4.55-3.13l4.41,7.41h0ZM274.41,251.85c-1.28.99-2.55,2.01-3.78,3.06l-5.5-6.62c1.41-1.2,2.85-2.35,4.31-3.48l4.97,7.04ZM267.37,257.81c-1.2,1.09-2.37,2.22-3.53,3.37l-5.98-6.15c1.31-1.31,2.65-2.58,4.02-3.82l5.49,6.61h0ZM260.79,264.31c-1.12,1.19-2.21,2.39-3.27,3.63l-6.43-5.65c1.21-1.41,2.45-2.79,3.72-4.13l5.98,6.15ZM254.7,271.29c-1.02,1.27-2,2.58-2.97,3.89l-6.85-5.11c1.1-1.5,2.22-2.98,3.39-4.43l6.43,5.65h0ZM249.21,278.76c-.92,1.36-1.81,2.73-2.68,4.12l-7.2-4.54c.98-1.59,2-3.15,3.04-4.69l6.84,5.11ZM244.27,286.65c-.81,1.42-1.61,2.85-2.37,4.31l-7.52-3.94c.86-1.66,1.76-3.3,2.69-4.91l7.2,4.54h0ZM239.93,294.91c-.7,1.48-1.36,2.98-2.01,4.5l-7.8-3.32c.73-1.73,1.49-3.44,2.29-5.13l7.52,3.94h0ZM236.28,303.5c-.59,1.53-1.15,3.09-1.67,4.65l-8.01-2.68c.59-1.78,1.23-3.54,1.9-5.28l7.79,3.31h0ZM233.26,312.35c-.47,1.58-.92,3.16-1.32,4.77l-8.19-2.02c.46-1.83.96-3.63,1.5-5.42l8.02,2.68h0ZM230.95,321.43c-.35,1.61-.65,3.23-.93,4.86l-8.31-1.35c.32-1.86.67-3.7,1.06-5.53l8.18,2.02ZM229.35,330.66c-.22,1.63-.43,3.27-.58,4.93l-8.38-.68c.18-1.88.4-3.75.65-5.6l8.31,1.35ZM228.44,340.01c-.1,1.64-.14,3.3-.18,4.95h-8.4c.03-1.89.09-3.76.2-5.63l8.38.68h0ZM228.26,349.38c.03,1.66.08,3.31.18,4.96l-8.38.67c-.11-1.87-.17-3.74-.2-5.63h8.4ZM228.76,358.75c.16,1.65.36,3.29.58,4.92l-8.31,1.35c-.25-1.86-.48-3.72-.65-5.6l8.38-.68h0ZM230.02,368.04c.28,1.63.58,3.26.93,4.86l-8.18,2.02c-.39-1.83-.74-3.67-1.06-5.53l8.31-1.35h0ZM231.94,377.22c.4,1.6.85,3.19,1.32,4.76l-8.02,2.68c-.54-1.79-1.04-3.6-1.5-5.43l8.19-2.02h0ZM234.61,386.19c.53,1.56,1.09,3.11,1.67,4.65l-7.79,3.32c-.67-1.75-1.3-3.51-1.9-5.29l8.01-2.68h0ZM237.92,394.93c.65,1.52,1.31,3.02,2.01,4.5l-7.52,3.94c-.8-1.69-1.56-3.4-2.29-5.12l7.8-3.32ZM241.9,403.38c.76,1.45,1.56,2.89,2.37,4.31l-7.2,4.54c-.93-1.61-1.83-3.25-2.69-4.91l7.52-3.94ZM246.53,411.45c.86,1.39,1.76,2.77,2.68,4.12l-6.84,5.11c-1.05-1.53-2.06-3.09-3.04-4.68l7.2-4.54h0ZM251.73,419.16c.97,1.32,1.95,2.62,2.97,3.9l-6.43,5.65c-1.16-1.45-2.29-2.92-3.38-4.43l6.84-5.11h0ZM257.52,426.41c1.06,1.23,2.16,2.44,3.27,3.63l-5.98,6.16c-1.27-1.36-2.51-2.73-3.72-4.14l6.43-5.65ZM261.17,476.44l9.35-41.58,10.11-2.11,2.09-.44,1.18-1.83,43.86-68.14c.39.45.79.88,1.22,1.31l-43.65,67.8-1.57,2.44-2.78.58-9.03,1.89-8.07,35.88,28.97-21.65-1.83-9.28-.56-2.87,1.56-2.43,43.63-67.78c.54.23,1.09.44,1.65.63l-43.85,68.13-1.18,1.83.43,2.14,2.05,10.4-33.57,25.08h-.01ZM427.6,217.9l-9.34,41.58-10.11,2.12-2.09.43-1.17,1.83-43.86,68.14c-.57-.67-1.19-1.3-1.84-1.9l41.1-69.74-46.25,66.2c-.82-.41-1.67-.77-2.54-1.07l43.85-68.13,1.18-1.83-.43-2.15-2.05-10.4,33.57-25.08h-.02Z"/>
  <polygon class="cls-2" points="493.48 344.53 496.9 344.53 496.9 351.42 500.45 351.42 500.45 344.53 503.7 344.53 503.7 352.66 507.25 352.66 507.25 340.03 489.93 340.03 489.93 352.66 493.48 352.66 493.48 344.53"/>
  <polygon class="cls-2" points="181.54 354.36 181.54 358.87 198.85 354.77 198.85 349.08 188.45 346.42 188.45 346.26 198.85 343.59 198.85 337.92 181.54 333.83 181.54 338.31 193.66 340.8 193.66 340.95 181.54 343.98 181.54 348.58 193.66 351.56 193.66 351.7 181.54 354.36"/>
  <polygon class="cls-2" points="340.9 186.52 341.02 186.52 346.96 196.61 351.04 196.61 351.04 178.94 346.86 178.94 346.86 188.11 346.74 188.11 341.22 178.94 336.75 178.94 336.75 196.61 340.9 196.61 340.9 186.52"/>
  <polygon class="cls-2" points="454.17 243.2 455.4 241.93 452.66 239.12 453.84 237.89 456.16 240.28 457.39 239.01 455.07 236.63 456.2 235.47 458.93 238.29 460.17 237.03 455.91 232.65 449.91 238.82 454.17 243.2"/>
  <polygon class="cls-2" points="449.09 230.93 449.13 230.98 447.79 236.59 449.2 238.04 455.16 231.92 453.71 230.43 450.62 233.61 450.58 233.57 451.75 228.42 450.21 226.82 444.26 232.95 445.69 234.43 449.09 230.93"/>
  <polygon class="cls-2" points="239.46 234.77 236.76 230.14 236.81 230.09 241.31 232.87 243.22 230.9 238.6 223.31 237.09 224.87 240.46 230.05 240.41 230.1 235.18 226.82 233.63 228.43 236.83 233.78 236.79 233.83 231.69 230.42 230.17 231.98 237.55 236.74 239.46 234.77"/>
  <polygon class="cls-2" points="232.08 242.32 228.68 238.82 228.72 238.77 234.18 240.15 235.59 238.7 229.64 232.58 228.2 234.07 231.28 237.24 231.24 237.29 226.24 236.07 224.69 237.67 230.64 243.79 232.08 242.32"/>
  <path class="cls-2" d="M348.02,505.55c-.59-.45-1.45-.75-2.59-.89l-3.17-.41c-.5-.07-.85-.14-1.05-.22-.2-.07-.33-.21-.4-.4-.06-.19-.1-.49-.1-.92,0-.36.02-.64.06-.84.04-.2.15-.36.31-.5.18-.15.49-.27.93-.33s1.06-.1,1.87-.1c1.4,0,3.11.1,5.14.3v-3.49c-1.88-.3-4.04-.44-6.47-.44-1.38,0-2.51.13-3.37.39-.87.25-1.56.81-2.08,1.65-.51.85-.77,2.11-.77,3.79s.24,2.78.72,3.52c.32.53.71.9,1.19,1.12.47.22,1.07.38,1.81.46l3.64.46c.49.06.82.14,1.01.22.19.07.31.21.37.39.06.18.09.48.09.91,0,.35-.03.61-.09.8-.05.19-.19.33-.41.44-.4.21-1.26.31-2.6.31-1.26,0-2.89-.12-4.87-.33v3.42c1.04.19,1.99.32,2.86.41s1.84.13,2.89.13c1.43,0,2.61-.12,3.53-.37s1.66-.77,2.21-1.56c.55-.78.82-1.94.82-3.46,0-1.08-.11-1.98-.31-2.7-.21-.72-.61-1.31-1.2-1.76h.03Z"/>
  <polygon class="cls-2" points="235.06 453.21 230.56 455.99 230.51 455.94 233.21 451.31 231.3 449.34 223.93 454.1 225.43 455.64 230.47 452.18 230.52 452.24 227.35 457.61 228.9 459.21 234.1 455.92 234.15 455.96 230.84 461.21 232.36 462.77 236.98 455.18 235.06 453.21"/>
  <path class="cls-2" d="M239.45,457.89c-.39-.22-.81-.27-1.27-.16-.47.11-.98.46-1.54,1.04-.54.55-.85,1.05-.93,1.48-.07.29-.06.57.03.82.09.24.25.51.47.8l1.1,1.46c.15.19.24.34.28.44.05.09.05.18,0,.26-.03.08-.13.2-.28.34-.12.12-.21.2-.3.25-.08.04-.18.05-.29,0-.21-.07-.54-.35-1-.82-.44-.45-.96-1.06-1.58-1.85l-1.15,1.19c.3.43.58.82.85,1.16.28.34.59.7.96,1.08.5.51.95.89,1.35,1.13.41.24.83.32,1.29.24.46-.07.94-.38,1.46-.9.36-.37.63-.72.8-1.05s.23-.67.18-1.04-.25-.78-.6-1.23l-.96-1.28c-.15-.2-.25-.35-.28-.45-.05-.09-.05-.19,0-.28.04-.09.13-.21.28-.36.13-.13.23-.22.3-.27.08-.05.18-.08.28-.06.11,0,.26.08.43.21s.4.35.68.63c.49.49,1.05,1.15,1.68,1.94l1.18-1.21c-.56-.76-1.26-1.59-2.1-2.46-.48-.49-.91-.85-1.3-1.07l-.02.02Z"/>
  <polygon class="cls-2" points="446.13 459.69 447.36 460.95 450.1 458.13 451.28 459.36 448.96 461.74 450.19 463.01 452.51 460.62 453.64 461.78 450.9 464.59 452.13 465.86 456.38 461.48 450.38 455.31 446.13 459.69"/>
  <path class="cls-2" d="M458.83,453.43c-.31-.18-.65-.24-1.01-.18-.36.05-.76.25-1.2.61l-1.23.99c-.2.15-.34.25-.44.3-.09.04-.18.04-.27,0s-.2-.14-.34-.29c-.12-.12-.21-.23-.26-.31-.05-.09-.07-.18-.06-.29,0-.12.08-.27.2-.45.13-.18.33-.41.62-.7.49-.49,1.11-1.08,1.89-1.72l-1.18-1.21c-.75.57-1.54,1.29-2.39,2.16-.48.49-.83.93-1.04,1.33-.22.4-.27.84-.16,1.32.1.48.44,1,1.01,1.59.54.56,1.02.88,1.44.96.29.08.55.06.79-.03.24-.09.5-.25.78-.48l1.42-1.14c.19-.15.33-.24.43-.28.09-.04.18-.04.25,0,.09.04.2.13.34.28.12.12.2.22.24.31.04.08.05.18,0,.29-.07.21-.34.56-.8,1.03-.43.45-1.04.99-1.8,1.62l1.15,1.18c.42-.3.8-.6,1.13-.88.33-.28.68-.61,1.05-.98.49-.51.86-.98,1.1-1.39.23-.42.32-.86.24-1.33-.07-.47-.37-.97-.88-1.49-.36-.38-.7-.65-1.01-.82h0Z"/>
  <path class="cls-2" d="M403.5,204.56c2.19-.6,3.49-2.9,2.91-5.15s-2.82-3.59-5.01-2.99c-2.19.59-3.49,2.89-2.91,5.14s2.82,3.59,5.01,3Z"/>
  <path class="cls-2" d="M483.45,289.57c1.95,1.17,4.46.49,5.6-1.52,1.14-2.01.48-4.59-1.47-5.76-1.96-1.17-4.46-.49-5.6,1.52-1.14,2.01-.48,4.59,1.48,5.76h-.01Z"/>
  <path class="cls-2" d="M486.56,410.84c2.19-.59,3.49-2.9,2.92-5.14-.58-2.25-2.82-3.59-5.01-3-2.18.59-3.49,2.9-2.91,5.15.57,2.25,2.82,3.59,5,3h0Z"/>
  <path class="cls-2" d="M404.52,488.57c-1.96-1.17-4.46-.49-5.6,1.52-1.14,2.01-.48,4.59,1.48,5.76,1.95,1.17,4.46.49,5.59-1.51,1.14-2.02.48-4.6-1.47-5.76h0Z"/>
  <path class="cls-2" d="M283.94,488.14c-2.19.59-3.49,2.89-2.91,5.15.58,2.25,2.82,3.58,5,2.99,2.19-.59,3.49-2.89,2.92-5.14-.58-2.25-2.82-3.59-5.01-3h0Z"/>
  <path class="cls-2" d="M203.98,403.12c-1.95-1.17-4.46-.49-5.59,1.52-1.14,2.01-.48,4.58,1.48,5.76,1.95,1.17,4.46.49,5.6-1.51,1.14-2.01.47-4.59-1.48-5.76h-.01Z"/>
  <path class="cls-2" d="M202.97,290c2.18-.59,3.49-2.89,2.92-5.15-.58-2.25-2.82-3.59-5.01-2.99-2.18.59-3.49,2.89-2.91,5.14.58,2.25,2.82,3.59,5,3Z"/>
  <path class="cls-2" d="M282.93,204.13c1.95,1.17,4.46.49,5.6-1.53,1.14-2.01.47-4.59-1.47-5.76-1.96-1.17-4.47-.49-5.6,1.52-1.14,2.01-.48,4.59,1.48,5.76h0Z"/>
  <path class="cls-3" d="M366.39,387.51l-7.23-4.04-1.43,7.9c3.04-.97,5.93-2.29,8.66-3.86Z"/>
  <path class="cls-3" d="M357.73,302.97l.46,2.53,1.23-1.9c-.56-.21-1.11-.45-1.68-.63h-.01Z"/>
  <path class="cls-3" d="M322.39,306.83l7.23,4.04,1.42-7.9c-3.04.97-5.93,2.28-8.66,3.85h.01Z"/>
  <path class="cls-3" d="M387.36,360.89l-7.69,1.46,3.93,7.44c1.54-2.81,2.82-5.77,3.76-8.91h0Z"/>
  <path class="cls-3" d="M331.05,391.37l-.45-2.53-1.23,1.9c.56.2,1.11.44,1.68.63Z"/>
  <path class="cls-3" d="M301.42,333.45l7.68-1.47-3.93-7.44c-1.54,2.81-2.81,5.78-3.76,8.91h0Z"/>
  <path class="cls-3" d="M305.18,369.8l3.93-7.44-7.68-1.46c.94,3.13,2.22,6.1,3.76,8.91h0Z"/>
  <path class="cls-3" d="M387.36,333.45c-.94-3.13-2.22-6.1-3.76-8.91l-3.93,7.44,7.69,1.47Z"/>
  <path class="cls-1" d="M355.62,309.48l-8-44.34v48.53c1.62.16,3.19.48,4.73.88l3.26-5.08h0Z"/>
  <path class="cls-1" d="M378.05,359.29l46.07-8.8h-47.18c-.16,1.71-.49,3.37-.89,5.01l2,3.79Z"/>
  <path class="cls-1" d="M333.16,384.85l8,44.33v-48.53c-1.62-.16-3.19-.48-4.74-.88l-3.27,5.07h.01Z"/>
  <path class="cls-1" d="M310.72,335.05l-46.07,8.8h47.18c.17-1.72.49-3.37.89-5.01l-2-3.79h0Z"/>
  <path class="cls-1" d="M332.06,316.01l-29.32-16.38,20.92,21.51c2.51-2.13,5.35-3.85,8.4-5.14h0Z"/>
  <path class="cls-1" d="M374.68,334.49l15.92-30.16-16.59,17.06-3.55,5.52c1.71,2.32,3.14,4.85,4.22,7.58h0Z"/>
  <path class="cls-1" d="M356.72,378.33l29.32,16.37-20.92-21.51c-2.51,2.12-5.34,3.85-8.4,5.14Z"/>
  <path class="cls-1" d="M314.1,359.86l-15.92,30.15,16.59-17.06,3.55-5.52c-1.71-2.31-3.14-4.85-4.22-7.57Z"/>
  <path class="cls-3" d="M364.16,336.7c1.58,3.15,2.49,6.7,2.49,10.47,0,12.62-9.99,22.9-22.26,22.9-.55,0-1.1-.04-1.65-.09l-3.79,5.88c1.76.35,3.58.55,5.43.55,15.7,0,28.42-13.09,28.42-29.23,0-6.06-1.79-11.68-4.86-16.35l-3.79,5.88h0Z"/>
  <path class="cls-3" d="M349.83,318.49c-1.76-.35-3.58-.55-5.44-.55-15.69,0-28.41,13.09-28.41,29.24,0,6.06,1.79,11.68,4.86,16.35l3.79-5.88c-1.58-3.14-2.49-6.7-2.49-10.47,0-12.62,9.99-22.9,22.25-22.9.56,0,1.11.05,1.66.08l3.78-5.87Z"/>
  <path class="cls-1" d="M139.88,347.17c-.8,41.35,11,82.94,33.15,117.78,22.18,34.84,54.67,62.71,92.14,78.96,37.42,16.46,79.74,20.61,119.7,12.56,40.02-7.96,77.55-28.54,106.42-58.2,28.82-29.71,48.84-68.3,56.58-109.47,7.83-41.1,3.78-84.63-12.22-123.12-15.8-38.54-42.88-71.97-76.75-94.78-33.88-22.78-74.3-34.92-114.5-34.1,10.04.3,20.05,1.1,29.95,2.77,9.87,1.74,19.65,3.96,29.18,7.1,9.5,3.19,18.84,6.9,27.8,11.43,8.93,4.58,17.6,9.69,25.81,15.5,33,23.01,59.08,56.19,73.94,94.04,3.77,9.44,6.68,19.21,9.1,29.09,2.37,9.9,3.92,19.98,4.96,30.11.89,10.15,1.07,20.35.65,30.52-.62,10.17-1.72,20.3-3.69,30.28-7.71,39.96-27.32,77.29-55.39,105.95-27.87,28.86-64.15,49.04-102.99,56.97-9.7,2.02-19.56,3.16-29.43,3.79-9.89.43-19.81.26-29.68-.67-19.71-2.01-39.15-6.83-57.55-14.47-36.79-15.29-69.05-42.11-91.41-76.06-5.64-8.45-10.61-17.36-15.06-26.55-4.42-9.21-8.01-18.82-11.12-28.59-3.06-9.81-5.22-19.87-6.91-30.03-1.62-10.17-2.41-20.47-2.69-30.8h.01Z"/>
  <path class="cls-4" d="M470.53,152.97c-37.29-25.15-81.83-38.56-126.14-37.74,11.07.31,22.12,1.18,33.02,3,10.88,1.9,21.68,4.34,32.2,7.8,10.48,3.5,20.79,7.58,30.68,12.57,9.86,5.04,19.42,10.67,28.5,17.06,36.42,25.37,65.23,61.95,81.67,103.72,4.17,10.42,7.39,21.2,10.07,32.1,2.62,10.93,4.34,22.06,5.49,33.24,1,11.2,1.19,22.46.73,33.7-.68,11.21-1.89,22.41-4.06,33.43-8.5,44.11-30.14,85.34-61.12,116.99-30.77,31.85-70.84,54.12-113.73,62.86-10.71,2.23-21.59,3.48-32.49,4.18-10.92.48-21.87.27-32.76-.75-10.86-1.18-21.69-2.93-32.3-5.65-10.6-2.75-21.08-6.07-31.21-10.36-40.61-16.9-76.18-46.52-100.82-83.99-6.21-9.33-11.69-19.18-16.58-29.31-4.86-10.17-8.82-20.77-12.23-31.55-3.36-10.82-5.73-21.93-7.58-33.12-1.77-11.22-2.62-22.58-2.92-33.96-.81,45.58,12.23,91.4,36.68,129.76,24.46,38.37,60.27,69.04,101.55,86.91,41.22,18.1,87.81,22.66,131.8,13.79,44.06-8.78,85.37-31.45,117.15-64.11,31.73-32.7,53.78-75.19,62.31-120.52,8.64-45.25,4.17-93.17-13.41-135.57-17.37-42.46-47.18-79.31-84.48-104.46l-.02-.02Z"/>
  <path class="cls-1" d="M294.74,451.35l-2.05-10.4-.43-2.14,1.18-1.83,43.85-68.13c-.56-.19-1.11-.4-1.65-.63l-43.63,67.78-1.56,2.43.56,2.87,1.83,9.28-28.97,21.65,8.07-35.88,9.03-1.89,2.78-.58,1.57-2.44,43.65-67.8c-.42-.42-.83-.86-1.22-1.31l-43.86,68.14-1.18,1.83-2.09.44-10.11,2.11-9.35,41.58,33.57-25.08h.01Z"/>
  <path class="cls-5" d="M394.04,242.99l2.05,10.4.43,2.15-1.18,1.83-43.85,68.13c.87.3,1.72.66,2.54,1.07l46.25-66.2-41.1,69.74c.65.6,1.27,1.23,1.84,1.9l43.86-68.14,1.17-1.83,2.09-.43,10.11-2.12,9.34-41.58-33.57,25.08h.02ZM425.57,221.59l-8.82,36.29-9.7,1.86,18.52-38.15h0Z"/>
  <polygon class="cls-2" points="407.06 259.74 416.76 257.88 425.57 221.59 407.06 259.74"/>
  <path class="cls-4" d="M326.44,347.17c0,10.2,8.04,18.46,17.95,18.46s17.96-8.26,17.96-18.46-8.04-18.47-17.96-18.47-17.95,8.26-17.95,18.47h0ZM344.39,332.91c7.65,0,13.86,6.39,13.86,14.26s-6.2,14.25-13.86,14.25-13.85-6.38-13.85-14.25,6.21-14.26,13.85-14.26h0Z"/>
  <path class="cls-2" d="M344.39,361.42c7.65,0,13.86-6.38,13.86-14.25s-6.2-14.26-13.86-14.26-13.85,6.39-13.85,14.26,6.21,14.25,13.85,14.25h0ZM344.39,338.26c4.79,0,8.67,3.99,8.67,8.91s-3.88,8.91-8.67,8.91-8.66-3.99-8.66-8.91,3.88-8.91,8.66-8.91h0Z"/>
  <path class="cls-1" d="M335.73,347.17c0,4.92,3.88,8.91,8.66,8.91s8.67-3.99,8.67-8.91-3.88-8.91-8.67-8.91-8.66,3.99-8.66,8.91h0ZM344.39,353.41c-3.35,0-6.06-2.79-6.06-6.24s2.71,0,6.06,0,6.07-3.45,6.07,0-2.72,6.24-6.07,6.24Z"/>
  <path class="cls-2" d="M344.39,347.17c-3.35,0-6.06-3.45-6.06,0s2.71,6.24,6.06,6.24,6.07-2.79,6.07-6.24-2.72,0-6.07,0Z"/>
</svg>