<?xml version="1.0" encoding="UTF-8"?>
<svg id="Layer_1" data-name="Layer 1" xmlns="http://www.w3.org/2000/svg" xmlns:xlink="http://www.w3.org/1999/xlink" viewBox="0 0 1800 416.23">
  <defs>
    <style>
      .cls-1 {
        fill: none;
      }

      .cls-2 {
        fill: #0d242e;
      }

      .cls-3 {
        fill: #05324d;
      }

      .cls-4 {
        fill: #4a8296;
      }

      .cls-5 {
        fill: #ee624a;
      }

      .cls-6 {
        fill: #29708c;
      }

      .cls-7 {
        clip-path: url(#clippath-1);
      }

      .cls-8 {
        fill: #f3907b;
      }

      .cls-9 {
        fill: #fff;
      }

      .cls-10 {
        fill: #f6e4b9;
      }

      .cls-11 {
        clip-path: url(#clippath);
      }
    </style>
    <clipPath id="clippath">
      <rect class="cls-1" x="1478.79" y="56.55" width="273.31" height="148.23"/>
    </clipPath>
    <clipPath id="clippath-1">
      <rect class="cls-1" x="117.54" y="176.28" width="252.89" height="94.24"/>
    </clipPath>
  </defs>
  <g>
    <polygon class="cls-5" points="381.76 -1255.86 378.92 -1251.96 376.08 -1246.91 373.35 -1253.82 370.55 -1250.63 367.77 -1249.9 365.03 -1245.04 362.28 -1244.35 359.52 -1244.11 356.69 -1248.17 353.96 -1246.56 350.93 -1255.86 348.19 -1253.71 345.68 -1245.83 342.83 -1248.05 339.9 -1251.64 337.39 -1245.78 334.24 -1253.03 331.92 -1244.49 328.87 -1249.28 325.76 -1254.4 323.57 -1245.23 320.79 -1245.37 317.39 -1253.59 314.75 -1251.47 312.81 -1241.26 309.92 -1242.7 306.42 -1250.57 304.35 -1242.96 301.83 -1240.41 298.55 -1245.3 296.22 -1241.1 292.53 -1249.24 290.66 -1241.21 287.99 -1240.22 284.57 -1245.39 281.57 -1246.93 279.41 -1241.97 277.37 -1236.47 273.55 -1243.92 271.71 -1237.25 268.54 -1239.76 265.94 -1238.52 262.04 -1245.5 259.51 -1243.65 257.68 -1237.7 255.06 -1236.59 251.12 -1243.11 248.65 -1241.11 246.7 -1236.24 243.53 -1238.18 241.39 -1234.55 237.12 -1242.03 236.3 -1231.85 232.38 -1237.23 230.6 -1232.15 228.67 -1227.97 223.33 -1239.6 223.19 -1227.29 218.73 -1234.58 216.26 -1232.91 214.58 -1227.87 209.92 -1235.56 207.26 -1234.65 205.79 -1228.97 204.2 -1223.9 200.12 -1228.76 199.01 -1221.99 195.11 -1225.99 192.94 -1223.39 188.19 -1230.27 186.32 -1226.57 184.31 -1223.46 179.69 -1229.53 180.06 -1218.18 177.55 -1216.96 172.54 -1224.1 171.79 -1216.98 167.21 -1222.47 165.67 -1218.05 163.12 -1216.93 158.56 -1222.06 156.02 -1220.81 156.59 -1210.18 151.52 -1216.67 149.84 -1212.93 148.45 -1208.45 144.12 -1212.51 139.88 -1216.16 141.49 -1203.34 134.72 -1213.98 133.9 -1208.09 132.31 -1204.4 126.77 -1211.29 126.79 -1203.36 123.24 -1204.88 123.08 -1197.65 119.47 -1199.3 113.65 -1206.42 114.28 -1197.39 109.6 -1201.55 108.52 -1196.86 107.59 -1191.89 104.93 -1191.11 99.51 -1196.79 96.8 -1196.04 95.98 -1190.97 95.22 -1185.83 89.24 -1192.48 87.15 -1190.33 85.46 -1187.34 82.07 -1188.06 81.25 -1183.26 80.32 -1178.76 76.74 -1179.88 75.3 -1176.51 69.16 -1182.84 66.2 -1182.54 64.43 -1179.83 63.15 -1176.19 62.29 -1171.77 55.65 -1178.67 57.82 -1168.4 55.51 -1166.88 52.91 -1165.93 47.69 -1169.86 46.55 -1166.13 42.99 -1166.89 37.54 -1171.06 35.31 -1169.3 33.83 -1166.22 34.95 -1158.55 33.05 -1156.31 26.97 -1161.35 25.97 -1157.51 24.2 -1155.04 21.78 -1153.69 21.56 -1148.66 18.87 -1147.78 12.61 -1152.77 8.6 -1153.97 8.86 -1148.24 8.01 -1144.36 4.46 -1144.79 5.34 -1138.23 -.55 -1142.32 -1.95 -1139.37 -1.48 -1133.59 -8.78 -1139.67 -7.58 -1132.82 -14.01 -1137.45 -17 -1136.87 -15.68 -1129.98 -15.46 -1124.77 -23.08 -1130.93 -26.14 -1130.44 -22.33 -1120.18 -24.81 -1118.91 -28.48 -1119.31 -29.5 -1116 -33.72 -1117.12 -35.81 -1115.28 -37.53 -1112.94 -44.25 -1117.31 -39.48 -1106.35 -47.99 -1112.98 -44.56 -1103.93 -48.06 -1103.95 -51.77 -1104.22 -50.42 -1098.02 -57.27 -1102.22 -55.59 -1095.68 -60.59 -1097.48 -59.47 -1091.72 -67.27 -1096.88 -63.02 -1087.37 -70.8 -1092.41 -71.22 -1088.59 -70.84 -1083.84 -72.32 -1081.34 -76.93 -1082.47 -75.93 -1077.1 -77.63 -1074.85 -84.32 -1078.29 -86.28 -1076.3 -90.63 -1077 -85.73 -1067.43 -92.57 -1070.85 -91.01 -1065.06 -97.05 -1067.52 -96.82 -1063.2 -101.54 -1064.19 -106.44 -1065.29 -102.98 -1057.64 -108.47 -1059.36 -104.98 -1051.77 -106.59 -1049.47 -107.91 -1046.89 -113.25 -1048.36 -111.4 -1042.61 -119.58 -1046.83 -120.52 -1043.85 -123.36 -1042.75 -123.39 -1038.91 -129.81 -1041.22 -131.47 -1038.94 -127.37 -1031.25 -130.17 -1030.09 -128.89 -1025.14 -140.21 -1031.8 -132.1 -1020.62 -135.2 -1019.72 -143.72 -1023.66 -146.15 -1022.09 -148.13 -1020.12 -144.63 -1013.35 -146.4 -1011.22 -154.82 -1014.83 -152.98 -1009.58 -153.91 -1006.72 -155.87 -1004.74 -155.36 -1000.71 -160.55 -1001.41 -158.92 -996.48 -157.16 -991.48 -165.05 -994.32 -169.6 -994.41 -172.02 -992.76 -172.12 -989.28 -171.04 -984.92 -167.99 -979.04 -172.23 -978.83 -180.22 -981.44 -181.39 -978.83 -174.22 -969.98 -181.89 -972.24 -180.81 -968 -181.29 -964.94 -189.99 -967.83 -184.71 -960.6 -186.82 -958.72 -190.86 -958.19 -189 -953.51 -198.74 -956.92 -195.64 -951.39 -202.6 -952.78 -195.19 -944.39 -202.86 -946.21 -205.2 -944.43 -197.83 -936.24 -202.05 -935.71 -204.56 -934.05 -204.98 -931.03 -210.66 -931.37 -215.48 -931.13 -209.24 -923.94 -210.89 -921.71 -210.7 -918.36 -216.38 -918.6 -212.34 -912.93 -224.8 -917.17 -226.11 -914.7 -218.97 -907.27 -221.93 -905.8 -221.19 -902.2 -224.94 -901.16 -226.34 -898.78 -229.26 -897.24 -230.68 -894.86 -228.79 -890.66 -237.17 -892.07 -238.67 -889.71 -236.37 -885.33 -239.32 -883.75 -244.32 -883.22 -237.93 -876.77 -245.48 -877.53 -244.1 -873.7 -241.44 -869.25 -246.74 -868.8 -239.95 -862.36 -247.58 -863.02 -248.28 -860.28 -248.92 -857.52 -254.75 -857.21 -250.55 -852.17 -247.78 -847.85 -257.65 -849.33 -254.25 -844.74 -253.02 -841.16 -254.51 -838.81 -256.24 -836.55 -256.98 -833.86 -265.76 -834.62 -259.78 -829.06 -267.4 -829.25 -266.26 -825.76 -269.94 -824.26 -261.9 -818 -263.5 -815.67 -272.39 -816.22 -272.63 -813.32 -274.86 -811.2 -275.77 -808.55 -267.3 -802.39 -271.97 -801.19 -273.25 -798.71 -272.04 -795.33 -279.42 -795.04 -280.04 -792.3 -283.28 -790.48 -279.58 -786.26 -275.19 -781.84 -278.17 -779.93 -284.28 -779.04 -279.51 -774.56 -282.12 -772.5 -281.94 -769.55 -285.1 -767.63 -290.19 -766.3 -283.75 -761.43 -285.83 -759.18 -289.97 -757.51 -289.86 -754.58 -294.94 -753.14 -291.11 -749.17 -286.79 -745.09 -297.29 -745.1 -293.5 -741.19 -289.85 -737.36 -296.42 -736.21 -295.76 -733.17 -291.29 -729.19 -293.34 -726.86 -302.56 -726.25 -295.76 -721.76 -295.88 -718.96 -301.93 -717.5 -297.96 -713.76 -298.58 -711.07 -302.17 -709.01 -305 -706.78 -306.69 -704.28 -299.01 -699.86 -302.15 -697.68 -301.41 -694.71 -298.86 -691.41 -300.71 -688.96 -308.35 -687.55 -309.9 -685 -311.07 -682.36 -310.32 -679.41 -310.73 -676.65 -304.5 -672.81 -313.77 -671.48 -309.31 -667.96 -309.7 -665.21 -314.24 -663.06 -314.65 -660.3 -304.96 -656.15 -305.69 -653.48 -311.7 -651.47 -305.06 -647.84 -311.25 -645.82 -306.77 -642.5 -306.29 -639.68 -310.97 -637.42 -305.98 -634.12 -315.18 -632.28 -306.39 -628.64 -315.24 -626.69 -314.02 -623.79 -314.23 -621.03 -309.03 -617.83 -314.72 -615.5 -309.31 -612.32 -311.67 -609.72 -320.55 -607.52 -319.42 -604.65 -317.45 -601.75 -311.06 -598.63 -308.55 -595.75 -311.64 -593.14 -315.36 -590.52 -321.63 -587.97 -321.12 -585.15 -313.78 -582.15 -310.43 -579.3 -318.84 -576.72 -317.07 -573.9 -322.72 -571.19 -318.37 -568.35 -321.83 -565.57 -321.13 -562.77 -322.15 -559.97 -312.49 -557.24 -318.04 -554.42 -309.98 -551.76 -311.48 -548.98 -309.77 -546.26 -309.85 -543.51 -318.41 -540.48 -310.45 -537.98 -318.86 -534.89 -319.37 -532.07 -311.81 -529.64 -319.66 -526.47 -313.19 -524.03 -320.33 -520.83 -314.39 -518.41 -312.28 -515.77 -311.21 -513.07 -319.61 -509.66 -320.03 -506.82 -317.46 -504.23 -317.07 -501.47 -309.03 -499.41 -310.97 -496.45 -317.98 -492.96 -316.84 -490.27 -315.68 -487.58 -318.62 -484.45 -316.71 -481.85 -315.72 -479.15 -312.62 -476.72 -317.22 -473.32 -315.86 -470.68 -313.08 -468.24 -305.67 -466.47 -309.36 -463.14 -303.11 -461.27 -310.91 -457.29 -303.59 -455.62 -311.87 -451.49 -303.53 -450.04 -307.3 -446.6 -309.75 -443.35 -300.52 -442.16 -304.57 -438.62 -301.86 -436.31 -302.67 -433.34 -299.66 -431.1 -303.95 -427.43 -305.53 -424.28 -301.1 -422.35 -307.38 -418.19 -301.2 -416.66 -300.85 -413.9 -305.2 -410.07 -297.24 -409.02 -292 -407.4 -293.55 -404.21 -291.49 -401.87 -297.71 -397.5 -290.25 -396.51 -293.15 -392.93 -294.98 -389.59 -291.09 -387.75 -288.27 -385.64 -296.86 -380.44 -285.79 -380.61 -296.83 -374.65 -287.41 -374.43 -289.52 -370.94 -289.03 -368.19 -287.98 -365.6 -282.77 -364.28 -291.54 -358.7 -282.76 -358.51 -289.4 -353.51 -280.32 -353.49 -283.02 -349.7 -280.38 -347.66 -283.12 -343.82 -284.29 -340.48 -274.23 -340.99 -280.74 -335.8 -280.38 -332.97 -280.16 -330.1 -271.26 -330.35 -279.32 -324.46 -267.11 -326.01 -269 -322.37 -275.31 -317.01 -275 -314.14 -273.93 -311.56 -272.65 -309.06 -262.86 -309.97 -267.57 -305.09 -269.17 -301.43 -264.28 -300.44 -267.54 -296.07 -260.13 -296.17 -264.7 -291.21 -265.42 -287.85 -256.68 -288.62 -261.07 -283.66 -257.37 -282.26 -255.63 -280 -255.21 -277.14 -249.38 -276.78 -253.19 -271.96 -249.51 -270.62 -245.87 -269.29 -248.68 -264.87 -243.12 -264.5 -241.28 -262.33 -243.98 -257.92 -247.69 -252.96 -246.04 -250.66 -241.94 -249.63 -244.56 -245.14 -238.04 -245.4 -241.6 -240.39 -238.26 -239 -235.74 -237.19 -231.68 -236.24 -230.69 -233.63 -232.73 -229.33 -226.57 -229.59 -229.9 -224.54 -221.97 -225.85 -220.63 -223.45 -222.5 -219.18 -219.2 -217.91 -221.97 -213.06 -224.14 -208.53 -221.88 -206.63 -211.15 -209.89 -213.92 -204.96 -208.88 -204.83 -214.57 -198.03 -208.18 -198.77 -209.68 -194.54 -212.36 -189.53 -205.13 -190.87 -210.54 -184.03 -205.92 -183.73 -204.94 -181.03 -195.67 -183.89 -194.51 -181.35 -201.27 -173.41 -198.15 -172.16 -198.67 -168.41 -194.39 -168 -188.36 -168.84 -194.72 -160.93 -182.36 -166.36 -181.11 -163.87 -180.53 -160.89 -178.29 -159.11 -185.13 -150.6 -177.36 -152.94 -179.6 -147.78 -176.64 -146.54 -176.64 -143.04 -168.14 -146.1 -167.73 -142.94 -174.45 -134.13 -170 -134.09 -162.09 -136.85 -161.14 -134.08 -158.56 -132.63 -165.67 -123.22 -159.08 -125.05 -153.94 -125.73 -156.59 -119.89 -150.44 -121.46 -153.3 -115.39 -145.83 -118.15 -148.19 -112.46 -141.48 -114.65 -149.06 -104.29 -146.23 -103.06 -145.55 -99.92 -138.27 -102.73 -133.15 -103.65 -133.39 -99.7 -128.53 -100.43 -126.49 -98.58 -128.98 -92.46 -125.02 -92.4 -124.6 -88.99 -128.5 -81.37 -123.31 -82.52 -120.56 -81.32 -119.56 -78.41 -115.33 -78.68 -112.09 -78.02 -113.73 -72.43 -113.27 -68.93 -110.28 -67.99 -106.36 -68.04 -108.73 -61.55 -100.08 -66.61 -100.73 -61.88 -93.52 -65.53 -94.66 -60.26 -92.33 -58.71 -93.71 -53.1 -93.72 -48.93 -90.57 -48.26 -84.56 -50.81 -85 -46.14 -83.97 -43.09 -83.52 -39.35 -80.68 -38.37 -76.58 -38.86 -77.55 -33.43 -73.57 -33.81 -65.18 -39.52 -70.57 -28.69 -61.63 -35.17 -58.24 -34.98 -62.09 -25.84 -59.51 -24.6 -55.23 -25.52 -55.21 -21.08 -53.2 -19.12 -51.18 -17.2 -46.52 -18.69 -43.32 -18.32 -46.44 -9.62 -40.49 -12.88 -35.61 -14.81 -34.79 -11.28 -33.48 -8.4 -28.4 -10.68 -32.79 .15 -30.65 1.97 -25.33 -.73 -25.54 4.42 -22.77 5.33 -21.94 9.04 -17.71 7.81 -15.71 9.82 -8.39 3.91 -9.06 9.9 -8.96 14.79 -5.5 14.58 1.14 9.43 2.92 11.75 1.12 19.73 4.08 20.24 4.69 24.52 13.35 15.84 15.64 17.35 11.75 29.04 14.11 30.54 19.28 27.32 24.02 24.76 26.78 25.48 29.81 25.74 28.61 33.33 30.56 35.51 32.95 36.93 35.25 38.51 37.82 39.61 38.44 44.24 42.58 42.48 45.97 42.04 50.78 38.91 49.33 47.56 51.8 48.84 52.95 52.67 57.44 50.04 61.39 48.38 61.32 54.68 64.28 54.99 69.99 49.67 73.16 49.46 72.4 57.35 73.84 60.8 77.04 60.55 78.14 64.76 83.36 60.12 86.02 60.97 90.81 57.09 92.54 59.94 92.29 67.3 92.88 72.9 99.03 65.74 98.04 75.07 102.25 72.31 104.27 74.67 110.49 66.94 108.4 79.32 112.63 76.32 118.17 69.95 116.77 80.98 122.78 73.27 122.84 80.77 128.74 73.08 130.21 76.98 133.75 75.37 135.73 77.94 136.99 82.54 140.59 80.73 142.99 82.2 145.08 84.6 148.58 82.92 149.02 90.21 151.81 90.63 155.13 89.44 159.77 84.15 161.6 87.45 161.37 97.3 167.27 87.78 167.74 95.59 172.95 87.99 172.57 98.87 174.91 100.8 180 93.26 182.8 93.5 184.55 97.45 185.17 105.59 189.47 100.44 190.85 106.03 196.35 96.12 198.56 98.57 200.91 100.51 201.55 109.32 206.22 102.06 208.89 102.76 212.69 98.76 212.35 112.3 216.02 108.75 220.16 103.02 222.76 104.03 225.26 105.53 226.07 115 228.84 115.43 232.8 110 236.44 105.92 238.02 112.19 241.11 110.83 243.85 111.23 246.39 112.72 249.44 111.4 250.81 119.63 254.39 115.28 257.93 110.93 260.23 113.99 262.88 114.9 265.15 118.41 267.75 119.82 271.86 110.91 274.7 110.47 277.13 112.98 279.92 112.88 281.43 122.71 284.15 123.43 287.12 122.18 290.51 117.15 292.76 121.88 296.38 114.27 297.85 126.66 301.82 115.11 304.05 120.64 306.62 122.98 309.45 122.57 311.99 125.54 315.52 116.35 318.26 116.69 320.63 122.14 323.13 126.21 326.1 123.52 329.01 121.38 331.98 117.74 334.2 128.19 337.4 119.78 339.93 125.02 342.9 120.55 345.76 117.95 348.35 122.77 351.18 120.92 354.03 117.43 356.67 123.35 359.36 128.5 362.26 119.9 364.97 125.66 367.79 118.58 370.55 128.41 373.35 130.67 376.07 120.38 378.84 121.04 381.71 127.63 384.52 128.57 387.21 124.26 390.05 126.27 392.67 121.1 395.48 122.16 398.34 124.34 401.11 124.1 404.09 128.23 406.36 118.03 409.2 119.4 411.8 116.76 414.73 119.38 417.6 120.8 420.85 127.49 423.18 121.23 426.43 127.11 428.62 119.82 432.08 127.51 434.01 117.87 436.46 114.51 439.47 116.97 442.71 121.38 445.31 119.55 447.36 113.05 450.9 119.68 452.8 112.22 456.25 117.72 459.39 120.32 461.19 112.72 464.46 116.34 467.85 120.54 470.45 119.06 471.98 110.44 475.45 114.97 479.39 122.09 481.68 118.74 483.36 111.85 487.07 117.13 488.33 108.14 492.48 115.76 495.18 115.02 498.4 117.09 500.71 114.32 501.97 106.21 505.21 108.37 507.18 104.23 509.75 103.08 515.06 114.84 517.53 113.05 520.24 112.33 522.3 108.77 523.95 103.53 526.09 100.54 529.07 101.2 533.21 106.57 534.57 100.45 537.7 101.62 540.71 102.21 544.9 107.32 546.84 103.7 549.48 102.79 551.16 98.36 553.8 97.52 557.56 100.7 560.08 99.34 562.07 96.24 564.78 95.64 566.83 92.8 568.69 89.43 571.7 89.85 575.95 94.22 577.55 90.05 582.28 95.74 583.65 90.91 586.39 90.35 588.53 87.99 589.8 83.12 594.38 87.97 594.89 81 598.71 83.56 600.29 79.73 603.5 80.52 605.75 78.62 607.34 74.99 612.92 82.03 613.98 76.98 617.71 78.96 619.73 76.52 623.13 77.58 623.99 72.24 627.92 74.59 628.5 68.69 630.46 66.22 637.64 76.26 638.44 70.96 640.43 68.58 645.38 73 645.8 67.01 650.09 69.83 649.37 61.39 654.02 64.98 657.55 66 655.73 55.42 663.7 65.98 662.08 55.98 666.5 58.85 670.27 60.27 670.2 53.74 674.69 56.6 672.81 46.56 675.26 45.32 681.42 51.39 685.97 54.17 687.58 51.2 687.57 45.15 687.53 39.14 693.91 45.29 692.55 36.88 698.08 41.32 703.42 45.28 703.32 39.33 707.02 40.24 708.09 36.47 707.51 29.85 713.17 34.14 713.67 29.47 716.98 29.67 716.81 23.93 723.83 30.32 725.51 27.7 723.41 18.9 731.11 26.18 732.19 22.64 736.64 24.52 733.34 14.04 735.71 12.64 737.64 10.56 743.01 13.78 747.91 16.23 751.26 16.24 753.4 14.4 752.18 7.56 755.95 8.19 755.36 2.38 757.28 .3 764.69 6.15 765.43 2.33 769 2.57 770.79 .25 766.82 -10.06 773.49 -5.53 774.74 -8.54 774.18 -13.95 778.96 -12.13 781.57 -13.27 784.32 -14.23 787.94 -14.05 788.96 -17.3 793.62 -15.81 796.19 -17.06 794.63 -23.54 800.91 -20.1 796.47 -30.11 804.59 -24.45 805.39 -27.88 804.76 -33.04 804.86 -37.26 810.34 -34.99 814.16 -34.75 815.33 -37.68 812.91 -44.79 822.62 -37.73 821.19 -43.64 824.23 -44.39 826.98 -45.48 826.37 -50.35 829.75 -50.73 828.38 -56.38 836.08 -52.03 839.32 -52.63 840.09 -55.92 839.01 -61.16 840.56 -63.56 846.87 -60.93 844.78 -67.15 849.64 -66.11 853 -66.65 847.46 -76.28 854.44 -73.15 851.46 -80.06 855.06 -80.37 859.78 -79.58 863.67 -79.66 863.37 -83.84 865.77 -85.38 865.18 -89.79 869.75 -89.26 873.91 -89.15 870.07 -96.56 873.3 -97.34 873.85 -100.59 879.29 -99.36 879.62 -102.81 877.52 -108.41 882.84 -107.35 889.97 -104.76 889.03 -109.29 888.85 -113.14 896.15 -110.5 892.78 -117.07 897.33 -116.84 897.06 -120.71 896.49 -124.79 897.57 -127.49 902.41 -127.09 904.74 -128.77 903.84 -133.07 905.94 -134.93 911.36 -134.16 910.08 -138.71 913.91 -139.23 909.79 -145.94 910.52 -148.86 913.78 -149.82 923.82 -145.7 923.52 -149.41 926.5 -150.68 928.43 -152.72 930.67 -154.55 925.85 -161.49 926.19 -164.66 927.29 -167.26 928.27 -169.94 929.74 -172.27 939.66 -168.74 940.62 -171.48 935.5 -178.35 936.12 -181.25 941.95 -180.66 938.11 -186.54 949.45 -182.36 946.84 -187.41 949.62 -188.92 952.48 -190.39 956.31 -191.26 955.89 -194.83 949.41 -202.17 952.94 -203.22 951.41 -207.4 953.2 -209.53 955.02 -211.65 955.43 -214.61 956.81 -216.98 961.1 -217.65 960.05 -221.45 961.88 -223.58 970.08 -222.07 974.95 -222.52 974.63 -225.9 967.14 -233.24 971.8 -233.83 977.74 -233.75 978.43 -236.54 981.72 -237.94 977.19 -243.49 973.96 -248.29 982.65 -246.89 983.78 -249.44 987.19 -250.83 989.64 -252.71 982.85 -259.21 985.3 -261.08 986.57 -263.53 988.03 -265.9 997.01 -264.68 993.53 -269.42 991.9 -273.24 990.58 -276.9 990.43 -279.99 991.03 -282.75 994.72 -284.11 1001.18 -284.26 998.83 -288.33 996.8 -292.22 995.99 -295.56 1008.73 -293.15 999.9 -299.87 1000.91 -302.44 1002.75 -304.66 1009.94 -304.73 1008.51 -308.3 1007.36 -311.73 1010.17 -313.6 1009.45 -316.84 1017.4 -316.77 1014.57 -320.83 1013.07 -324.34 1010.42 -328.26 1011.72 -330.72 1019.32 -330.92 1021.84 -332.98 1015.69 -338.07 1017.92 -340.22 1023.53 -341.23 1024.1 -343.98 1028.25 -345.54 1021.56 -350.66 1028.9 -351.21 1020.11 -356.91 1032.65 -355.89 1020.63 -362.51 1023.36 -364.55 1022.97 -367.54 1023.51 -370.25 1024.9 -372.71 1036.45 -372.27 1034.52 -375.71 1038.11 -377.61 1034.94 -381.37 1031.45 -385.19 1029.44 -388.57 1034.28 -390.16 1030.01 -394.11 1040.15 -394.4 1040.53 -397.17 1044.37 -399.11 1041.39 -402.7 1043.87 -404.97 1046.61 -407.21 1038.38 -411.93 1034.86 -415.53 1047.81 -415.54 1046.56 -418.66 1047.36 -421.35 1037.6 -426.18 1048.83 -426.75 1047.92 -429.77 1042.56 -433.63 1046 -435.8 1040.26 -439.66 1048.35 -441.01 1046.07 -444.23 1044 -447.39 1046.16 -449.83 1043.5 -453.06 1045.12 -455.6 1055.88 -456.74 1047.04 -460.89 1047.61 -463.59 1054.27 -465.45 1053.37 -468.38 1045.34 -472.26 1051.97 -474.18 1056.69 -476.38 1058.56 -478.97 1052.35 -482.51 1055.95 -484.89 1049.39 -488.4 1059.04 -490.18 1054.7 -493.41 1055.5 -496.13 1058.3 -498.66 1050.69 -502.13 1054.04 -504.62 1056.05 -507.24 1048.57 -510.59 1054.9 -512.89 1061.82 -515.19 1062.13 -517.99 1059.74 -520.93 1058.09 -523.82 1060.66 -526.47 1056.47 -529.46 1054.09 -532.34 1061.22 -534.83 1059.96 -537.67 1057.56 -540.53 1054.28 -543.4 1050.92 -546.25 1052.21 -548.97 1063.19 -551.55 1058.11 -554.42 1052.57 -557.24 1052.69 -560 1050.93 -562.77 1060.28 -565.55 1062.65 -568.36 1055.76 -571.08 1062.7 -573.96 1052.57 -576.56 1062.36 -579.55 1063.58 -582.38 1050.35 -584.76 1058.28 -587.8 1060.56 -590.67 1061.51 -593.5 1058.43 -596.16 1058.25 -598.94 1052.42 -601.4 1054.7 -604.3 1050.4 -606.81 1056.83 -610 1061.46 -613.12 1053.88 -615.36 1050.56 -617.87 1048.89 -620.49 1055.3 -623.82 1056.41 -626.71 1059.02 -629.76 1053.6 -632.02 1053.62 -634.82 1047.71 -636.97 1055.17 -640.57 1059 -643.83 1054.18 -646.06 1055.14 -648.99 1054.32 -651.7 1056.5 -654.79 1054.14 -657.29 1047.12 -659.12 1053.31 -662.81 1050.07 -665.14 1053.14 -668.42 1051.01 -670.92 1049.11 -673.43 1041.7 -675.01 1041.32 -677.74 1050.92 -682.2 1047.91 -684.5 1041.96 -686.24 1049.66 -690.48 1038.4 -691.17 1044.14 -695.09 1039.26 -696.95 1049.07 -701.76 1049.49 -704.7 1036.74 -704.86 1044.03 -709.25 1046.51 -712.65 1045.61 -715.31 1034.67 -715.67 1033.42 -718.21 1042.32 -723.15 1040.28 -725.53 1038.01 -727.84 1033.45 -729.56 1034.9 -732.77 1031.59 -734.78 1028.36 -736.78 1031.03 -740.34 1034.51 -744.15 1034.39 -747 1033.63 -749.68 1032.14 -752.14 1029.51 -754.28 1029.67 -757.22 1034.55 -761.57 1026.73 -762.12 1027.49 -765.25 1028.26 -768.41 1031.68 -772.4 1027.75 -774.08 1021.67 -775.04 1027.87 -779.99 1026.11 -782.35 1026.89 -785.57 1017.56 -785.32 1020.68 -789.33 1020.27 -792.14 1020.32 -795.11 1011.11 -794.74 1015.54 -799.29 1018.19 -803.23 1012.5 -804.08 1012.55 -807.06 1008.01 -808.28 1012.13 -812.86 1007.02 -813.82 1008.67 -817.45 1006.63 -819.62 1000.35 -820.05 1011.1 -827.46 1008.18 -829.28 997.2 -827.66 996.18 -830.22 997.91 -833.96 999.38 -837.61 1003.01 -842.25 997.23 -842.72 992.65 -843.69 989.46 -845.26 997.41 -851.96 990.7 -851.91 997.67 -858.25 993.69 -859.45 989.89 -860.72 986.86 -862.32 988.04 -865.99 980 -865.1 980 -868.17 980.31 -871.41 981.18 -874.96 975.29 -875.03 985.22 -883.32 982.68 -885.14 971.39 -882.29 976.24 -888.02 979.75 -893.09 977.57 -895.08 972.42 -895.42 972.22 -898.49 969.14 -899.95 963.21 -899.76 960.41 -901.34 969.48 -909.78 965.28 -910.56 958.93 -910.03 966.36 -917.68 954.32 -913.7 954.18 -916.83 959.55 -923.35 959.11 -926.36 952.99 -925.83 948.22 -926.1 945.17 -927.43 944.23 -930.09 948.18 -935.92 948.66 -939.56 948.28 -942.65 945.08 -943.87 938.24 -942.64 936.64 -944.89 935.04 -947.13 937.04 -951.86 934.13 -953.21 928.22 -952.46 934.94 -960.57 930.2 -960.61 934.22 -966.91 931.32 -968.27 922.92 -965.6 919.22 -966.3 919.97 -970.28 925.45 -977.84 916.48 -974.57 919.19 -980.11 916.78 -981.76 915.64 -984.4 913.22 -986.04 914.42 -990.52 907.02 -988.21 907.55 -992.18 900.54 -990.08 898.84 -992.25 896.97 -994.27 904.21 -1003.82 899.66 -1003.68 901.47 -1008.83 890.75 -1003.41 894.61 -1010.34 889.44 -1009.55 884.69 -1009.09 885.16 -1013.15 885.1 -1016.79 887.5 -1022.63 881.12 -1020.66 880.63 -1023.95 881.43 -1028.44 875.35 -1026.64 873.75 -1028.93 868.89 -1028.19 874.67 -1037.4 871.06 -1037.84 866.97 -1037.78 866.01 -1040.71 863.67 -1042.3 864.7 -1047.21 857 -1043.52 861.67 -1052.07 850.65 -1044.98 852.47 -1050.73 852.02 -1054.23 853.69 -1059.93 844.5 -1054.43 849.63 -1063.79 843.34 -1061.22 838.41 -1060.02 841.32 -1067.19 837.3 -1066.94 831.26 -1064.47 832.89 -1070.34 834.19 -1075.91 829.45 -1074.81 827.49 -1076.78 827.47 -1080.96 820.23 -1076.92 820.6 -1081.56 814.81 -1079.09 817.15 -1086.05 817.15 -1090.35 809.22 -1085.25 811.38 -1092.14 808.06 -1092.49 808.05 -1096.86 800.89 -1092.46 798.15 -1093.47 799.33 -1099.34 797.76 -1101.83 797.39 -1105.84 790.58 -1101.66 787.65 -1102.37 789.05 -1108.72 790.22 -1114.84 783.1 -1110.06 780.95 -1111.8 782.11 -1118 778.09 -1117.25 771.16 -1112.48 773.22 -1120.01 769.09 -1119.01 764.83 -1117.78 765.62 -1123.67 762.74 -1124.39 758.45 -1123.06 759.68 -1129.7 754.26 -1126.68 755.13 -1132.88 754.36 -1136.73 748.92 -1133.56 744.47 -1131.83 743.75 -1135.76 745.52 -1143.58 743.53 -1145.64 741.95 -1148.38 738.65 -1148.38 730.16 -1140.05 731.18 -1146.92 730.45 -1151.04 727.08 -1150.85 723.97 -1151.08 720.72 -1151.02 716.25 -1148.89 717.62 -1156.67 717.78 -1162.46 712.33 -1158.61 707.52 -1155.76 709.54 -1164.95 703.92 -1160.6 702.81 -1164.3 700.05 -1165.04 700.6 -1171.87 693.04 -1163.7 693.69 -1170.78 691.61 -1172.81 686.4 -1168.82 686.48 -1174.98 685.69 -1179.54 682.89 -1180.2 678.82 -1178.33 673.48 -1173.82 674.07 -1181.24 670.81 -1180.91 666.22 -1177.76 668.58 -1189.12 665.19 -1188.5 659.93 -1183.82 655.88 -1181.65 653.16 -1182.31 652.8 -1188.18 651.74 -1192.6 645.95 -1186.4 643.28 -1187.17 642.01 -1191.15 639.16 -1191.51 639.87 -1200.26 636.02 -1198.3 631.11 -1193.69 629.16 -1196.21 625.34 -1194.12 622.9 -1195.43 623.95 -1205.56 621.76 -1207.63 616.87 -1202.7 614.98 -1205.54 612.2 -1206.03 607.24 -1200.62 606.03 -1205.32 606.65 -1215.12 602.5 -1211.84 600.71 -1215.14 595.08 -1207.43 592.93 -1209.67 591.57 -1214.26 587.3 -1210.24 585.97 -1215 584.66 -1219.94 582.19 -1221.37 579.59 -1222.42 575.22 -1217.78 571.52 -1215.17 571.72 -1225.34 566.09 -1216.26 563.76 -1218.1 562.87 -1224.95 557.71 -1216.99 557.29 -1225.65 555.62 -1230.05 553.24 -1231.94 547.76 -1222.3 547.51 -1232.17 544.33 -1231.03 541.55 -1231.42 539.44 -1234.47 534.75 -1227.07 531.96 -1227.31 530.7 -1233.94 525.85 -1225.39 523.92 -1229.29 521.78 -1232.33 517.8 -1227.19 515.96 -1231.63 513.32 -1232.53 511.76 -1238.58 509.61 -1242.02 505.05 -1233.44 502.73 -1235.96 499.45 -1233.55 496.49 -1232.75 493.85 -1233.58 492.23 -1240.2 488.74 -1236.32 486.48 -1239.49 484.06 -1241.86 481.39 -1242.71 478.63 -1243.15 476.19 -1245.56 472.2 -1237.74 470.88 -1247.83 467.81 -1246.05 464.05 -1239.14 462.23 -1246.42 459.24 -1244.97 455.9 -1240.64 453.29 -1242.06 451.44 -1250.01 448.8 -1251.53 444.65 -1239.19 442.84 -1248.32 439.75 -1245.41 437.56 -1251.61 434.08 -1244.35 432.12 -1253.61 429.17 -1251.94 426.21 -1249.83 422.72 -1240.7 420.75 -1251.74 418.1 -1253.76 414.66 -1243.77 411.77 -1241.76 409.11 -1243.25 406.59 -1247.91 404.05 -1252.94 400.91 -1244.89 398.52 -1254.26 395.46 -1246.95 392.72 -1248.03 390.13 -1254.3 387.15 -1246.68 384.31 -1242.69 381.76 -1255.86"/>
    <polygon class="cls-8" points="-300.46 -562.78 -301.01 -560.04 -307.22 -557.26 -308.66 -554.48 -305.5 -551.76 -301.79 -549.08 -299.09 -546.4 -302.83 -543.57 -302.79 -540.83 -297.95 -538.26 -310.69 -535.02 -307.07 -532.4 -300.58 -529.95 -299.75 -527.25 -310.06 -523.93 -303.44 -521.54 -305.05 -518.69 -297.53 -516.43 -299.59 -513.55 -308.79 -510.1 -307.37 -507.43 -302.02 -505.11 -295.27 -502.94 -302.52 -499.54 -302.47 -496.77 -303.15 -493.94 -299.72 -491.53 -298.52 -488.9 -302.06 -485.74 -293.73 -483.94 -295.48 -480.99 -299.66 -477.71 -297.84 -475.17 -294.78 -472.8 -291.55 -470.49 -297.88 -466.84 -298.84 -463.93 -300.3 -460.92 -301.77 -457.89 -300.71 -455.26 -291.36 -453.98 -293.79 -450.8 -288.81 -448.87 -291.89 -445.57 -298.56 -441.58 -293.58 -439.69 -286.71 -438.18 -294.03 -434 -295.56 -430.89 -285.05 -430.18 -294.21 -425.52 -294.98 -422.54 -289.68 -420.84 -290.86 -417.77 -286.18 -415.98 -285.38 -413.36 -282.14 -411.29 -291.35 -406.33 -281.18 -405.92 -288.31 -401.37 -287.21 -398.8 -284.84 -396.55 -279.84 -394.99 -284.06 -391.07 -286.25 -387.63 -280.04 -386.45 -279.22 -383.83 -281.68 -380.29 -277.26 -378.68 -272.23 -377.28 -282.7 -371.38 -281.36 -368.88 -271.27 -369.03 -272.85 -365.7 -272.83 -362.84 -274.34 -359.49 -278.46 -355.28 -273.06 -354.11 -276.58 -350.06 -273.56 -348.14 -268.05 -347.09 -262.97 -345.93 -270 -340.61 -260.74 -340.93 -271.22 -334.31 -264.5 -333.79 -258.13 -333.19 -263.08 -328.46 -263.88 -325.22 -255.22 -325.56 -264.35 -319.14 -253.42 -320.42 -255.43 -316.69 -261.78 -311.23 -257.25 -310.06 -251.63 -309.38 -259.48 -303.19 -258.53 -300.57 -248 -302.01 -246.66 -299.62 -253.32 -293.76 -249.5 -292.42 -253.35 -287.71 -250.83 -285.79 -246.63 -284.65 -246.59 -281.64 -246.56 -278.62 -236.57 -280.22 -236.73 -277.14 -244.87 -270.24 -242.94 -268.09 -235.61 -268.57 -234.52 -266.05 -235.39 -262.56 -228.7 -262.84 -232.07 -258.08 -227.7 -257.22 -227.93 -254.02 -228.42 -250.68 -225.93 -248.89 -224.6 -246.49 -227.46 -241.84 -224.36 -240.38 -221.79 -238.65 -222.87 -234.9 -224.21 -230.99 -217.86 -231.39 -212.63 -231.21 -209.57 -229.83 -212.25 -225.12 -208.63 -224.06 -206.8 -221.97 -204.91 -219.92 -209.89 -213.74 -211.85 -209.32 -209.92 -207.25 -205.77 -206.56 -205.4 -203.54 -201.81 -202.54 -200.09 -200.37 -197.16 -198.98 -201.39 -192.97 -190.25 -196.95 -193.82 -191.32 -190.37 -190.32 -186.79 -189.43 -189.26 -184.45 -185.33 -183.81 -187.95 -178.68 -183.77 -178.23 -188.01 -171.9 -184.38 -171.07 -176.8 -173.08 -181.75 -166.14 -180.62 -163.55 -172.15 -166.32 -171.5 -163.4 -170.93 -160.41 -165.23 -161.25 -170.78 -153.63 -161.25 -157.44 -164.61 -151.41 -164.05 -148.37 -163.27 -145.49 -161.29 -143.53 -156.34 -143.96 -156.92 -139.98 -155.3 -137.75 -148.05 -140.11 -146.17 -138.13 -148.79 -132.43 -150.41 -127.5 -148.29 -125.67 -146.35 -123.69 -143.71 -122.32 -143.9 -118.52 -139.76 -118.46 -140.94 -113.76 -139.35 -111.46 -135.06 -111.58 -134.42 -108.43 -132.47 -106.49 -130.04 -104.96 -121.91 -108.7 -127.29 -99.97 -122.78 -100.42 -122.23 -97.15 -120.37 -95.11 -120.88 -90.79 -110.44 -97.04 -112.26 -91.46 -114.56 -85.34 -109.67 -86.29 -106.62 -85.45 -101.47 -86.74 -98.21 -86.17 -96.83 -83.68 -99.92 -76.58 -97.65 -74.96 -91.1 -77.86 -90.53 -74.5 -90.11 -70.95 -90.11 -66.91 -87.98 -65.17 -84.2 -65.21 -81.65 -63.95 -82.58 -58.81 -79.19 -58.48 -73.97 -60.22 -71.27 -59.16 -74.89 -50.85 -73.86 -47.81 -66.7 -51.93 -64.11 -50.75 -68.64 -41.13 -60.78 -46.2 -60.06 -42.78 -57.76 -41.26 -55.65 -39.49 -51.57 -40.18 -50.77 -36.81 -47.39 -36.65 -49.42 -29.67 -42.39 -34.17 -40.25 -32.48 -44.01 -23.12 -34.76 -30.67 -36.06 -24.44 -31.62 -25.79 -29.76 -23.72 -31.36 -16.95 -25.53 -20.24 -24.88 -16.48 -20.2 -18.29 -23.09 -9.54 -15.06 -16.11 -20.08 -4.2 -15.82 -5.49 -10.37 -8.53 -9.37 -5.14 -10.01 .7 -5.11 -1.63 -5.99 4.65 1.32 -1.41 4.68 -1.56 4.08 4.39 3.01 11.14 11.69 2.65 12.53 6.44 13.53 10 18.39 7.36 18.76 11.97 18.16 18.23 24.24 13.5 28.45 11.79 26.24 20.86 27.37 24.39 31.59 22.63 31.84 27.71 37.3 23.72 42.38 20.31 39.54 30.96 43.42 29.66 46.87 29.09 48.42 32 49.55 35.69 56.55 28.42 58.6 30.39 60.92 31.82 61.04 37.53 63.38 38.99 68.82 34.33 71.01 36.04 73.18 37.79 71.33 47.73 77.05 42.29 78.88 44.8 82.85 42.82 81.52 52.05 85.41 50.26 91.02 44.64 88.88 55.89 95.92 47 94.26 57.42 98.08 55.59 101.86 53.81 104.51 54.57 107.78 53.87 108.4 59.39 109.4 64.14 111.42 66.48 116.03 62.52 116.36 69.04 118.99 69.93 121.31 71.61 125.22 69.18 129.66 65.3 132.26 66.17 135.79 64.56 138.67 64.62 137.37 76.13 142.5 70.04 144.72 71.94 147.83 71.37 151.32 69.65 152.63 74.23 155.22 75.13 156.99 78.49 159.56 79.48 162.16 80.36 164.42 82.34 167.49 81.74 171.69 77.49 174.31 78.22 177.4 77.43 179.77 79 182.24 80.24 184.2 83.31 185.92 87.25 187.44 92.06 190.93 89.79 195.62 83 196.42 90.59 200.41 86.19 202.6 88.61 203.68 95.5 207.67 90.91 209.77 93.85 211.15 99.88 213.93 100.16 216.6 100.94 219.18 102.1 223.91 93.61 225.99 96.91 227.69 102.04 230.67 101.37 233.49 101.33 235.64 104.6 238.72 103.29 241.74 102.24 245.69 96.15 246.35 107.61 250.02 102.88 253.2 100.7 254.73 108.03 258.75 100.78 261.23 102.54 264.63 98.67 266.86 102.06 270.06 99.16 271.42 108.73 274.22 108.64 277.35 106.13 280.54 103.04 283.69 100.05 286.03 103.2 287.62 112.81 290.84 109.14 293.82 107.25 296.87 104.51 299 110.47 302.17 106.48 305.07 104.9 307.56 107.7 309.71 114.42 313.02 108.12 315.18 115.42 318.13 113.28 320.93 112.8 323.46 116.18 326.21 116.6 329.42 109.5 332.41 105.05 334.79 111.67 337.41 114.52 340.52 106.44 343.18 108.39 345.69 114.6 348.73 105.88 351.19 115.54 354.14 107.81 356.83 110.13 359.45 117.77 362.32 109.3 365.08 107.93 367.78 114.74 370.55 115.46 373.29 110.9 376.06 114.19 378.78 110.87 381.6 115.08 384.29 111.52 386.93 107.05 389.77 110.74 392.68 116.26 395.35 113.34 397.84 106.68 401.08 118.18 403.49 110.57 406.6 117.36 408.87 108.24 411.96 114.15 414.12 104.77 417.32 111.45 419.74 106.87 422.33 104.77 425.03 104.33 427.97 106.71 431.35 113.96 434.18 114.52 435.97 104.19 438.53 102.45 442.46 113.74 444.81 109.73 447.95 113.01 450.26 108.87 452.54 104.85 456.25 112.43 458.73 109.96 461.21 107.68 464.04 108.02 467.42 112.23 469.6 107.93 472.16 106.38 475.53 110.17 477.31 103.72 479.72 101.38 482.18 99.46 486.47 108.31 487.7 99.31 490.54 99.65 494.39 105.39 496.58 102.1 498.11 95.47 502.69 104.59 503.35 93.82 508.39 104.79 509.68 97.45 512.89 99.35 513.74 90.29 519.3 102.72 521.54 100.08 522.9 93.67 527.35 100.6 529.72 98.59 530.33 89.39 534.01 92.85 536.04 89.69 538.74 89.16 543.13 95.13 544.59 89.84 548.31 93.09 549.19 85.86 551.09 82.49 556.72 92.3 558.5 88.47 559.7 82.78 561.96 80.77 566.54 86.48 569.79 87.67 570.24 79.77 571.83 75.71 576.28 80.71 578.12 77.45 581.24 78.19 583.08 75.01 587.17 78.57 587.33 70.51 592.98 78.49 593.38 71.3 596.74 72.59 597.78 67.38 603.89 76.18 606.63 75.61 605.2 63.9 611.32 72.35 613.9 71.36 614.5 65.25 618.77 68.63 621.77 68.71 622.45 62.97 626.96 66.78 630.2 67.4 628.31 55.65 631.32 55.77 634.23 55.65 639.7 61.4 638.87 52.58 641.31 51.35 645.9 54.94 647.24 51.21 649.07 48.62 653.29 51.25 658.04 54.93 659.52 51.56 657.89 41.72 661.9 43.76 665.74 45.41 670.55 48.95 670.6 42.82 671.35 38.19 678.01 45.27 676.95 37.11 682.57 42.01 681 33.03 686.35 37.31 688.93 36.29 691.42 35.09 692.41 31.12 692.47 25.5 695.73 25.77 702.14 31.62 701.61 25.05 703.86 23.47 706.75 22.99 710.05 23.19 708.81 15.61 716.4 23.1 718.59 21.36 717.27 13.81 719.23 11.76 726.09 17.71 723.33 7.98 725.55 6.4 727.42 4.23 731.78 6.02 737.72 10.18 734.72 .47 739.01 2.03 743.9 4.47 747.76 5.28 748.35 1.17 747.87 -4.46 753.42 -1.19 752.32 -7.66 754.08 -9.94 758.97 -7.72 758.28 -13.48 762.89 -11.73 761.93 -17.78 763.79 -19.87 768.21 -18.44 774.94 -13.94 769.57 -25.8 779.29 -17.4 778.79 -22.65 775.93 -30.93 783.61 -25.42 780.69 -33.69 783.37 -34.67 787.6 -33.73 792.99 -31.35 796.32 -31.61 798.22 -33.67 797.49 -38.94 799.77 -40.5 803 -40.92 805.41 -42.34 806.95 -44.78 807 -48.99 811.88 -47.5 808.32 -55.85 812.74 -54.93 811.83 -60.12 816.27 -59.21 816.09 -63.51 820.86 -62.29 828.2 -58.28 825.12 -65.75 832.62 -61.66 827.7 -71.02 833.03 -69.33 838.62 -67.42 840.13 -69.86 838.89 -75.14 838.47 -79.54 840.25 -81.64 846.51 -79.18 849.33 -80.26 848.97 -84.52 848.25 -89.11 848.4 -92.8 856.86 -88.36 859.64 -89.51 855.18 -97.64 859.78 -97.04 859.25 -101.31 862.5 -102.01 862.35 -105.89 863.04 -108.98 871.99 -104.49 867.65 -112.16 876.68 -107.71 879.34 -109.04 872.69 -118.63 880.65 -115.27 878.02 -121.22 882.88 -120.65 879.76 -126.94 889.14 -122.55 885.53 -129.2 888.55 -130.26 892.59 -130.47 892.13 -134.42 894.4 -136.12 892.88 -140.88 900.35 -138.39 897.86 -143.91 900.44 -145.36 901.83 -147.75 907.26 -147.01 909.36 -148.88 905.59 -155.23 912.36 -153.55 910.58 -158.33 914.06 -159.17 909.84 -165.7 912.55 -167.1 919.51 -165.42 922.75 -166.48 924.14 -168.9 922.36 -173.53 918.8 -179.38 924.47 -178.77 924.87 -181.82 925.93 -184.4 934.28 -182.06 930.69 -187.8 927.63 -193.12 932.98 -192.86 936.73 -193.68 941.63 -193.77 936.61 -200.29 944.19 -198.71 942.61 -202.96 943.87 -205.42 945.86 -207.43 949.48 -208.43 945.24 -214.24 948.85 -215.25 947.11 -219.49 953.99 -218.59 948.97 -224.72 959.37 -221.84 958.76 -225.39 961.57 -226.96 960.69 -230.63 960.21 -234.05 967.6 -233.11 964.21 -238.12 964.76 -240.96 971.57 -240.42 971.03 -243.84 971.8 -246.56 963.9 -253.8 972.41 -252.47 966.58 -258.54 968.46 -260.65 975.22 -260.3 977.03 -262.47 972.81 -267.61 983.4 -265.5 977.86 -271.24 976.59 -274.88 982.26 -275.22 981.21 -278.75 987.34 -278.93 984.52 -283.25 980.78 -287.95 991.09 -286.34 991.32 -289.25 988.66 -293.42 996.37 -293.08 995.43 -296.5 993.93 -300.13 993.13 -303.44 994.07 -306.02 1000.97 -306.17 998.68 -310.08 999.13 -312.87 995.73 -317.16 1003.84 -316.94 995.71 -323.02 998.28 -324.96 1007.88 -324.28 1006.12 -327.88 1004 -331.59 999.62 -336.08 1012.53 -334.37 1001.51 -341.18 1011.06 -340.75 1003.34 -346.3 1013.97 -345.59 1016.32 -347.72 1010.75 -352.46 1016.56 -353.46 1011.2 -358.07 1019.33 -358.38 1020.08 -361.04 1010.91 -366.74 1012.67 -369.05 1017.12 -370.58 1022.13 -371.97 1021.93 -374.91 1025.85 -376.67 1021.02 -380.89 1020.61 -383.85 1018.49 -387.27 1023.92 -388.65 1022.6 -391.83 1026.61 -393.64 1026.81 -396.42 1029.38 -398.62 1022.21 -403.22 1020.6 -406.4 1031.87 -406.55 1031.26 -409.53 1030.83 -412.45 1033.93 -414.58 1026.92 -418.94 1031.42 -420.78 1036 -422.62 1028.13 -427.06 1031.29 -429.21 1027.45 -432.76 1034.81 -434.12 1031.54 -437.54 1029.93 -440.61 1033.22 -442.79 1033.75 -445.49 1039.16 -447.34 1034.49 -450.92 1034.09 -453.76 1039.26 -455.7 1044.27 -457.72 1035.56 -461.84 1032.28 -465.08 1043.42 -466.25 1036.66 -469.97 1033.12 -473.21 1039.5 -475.12 1042.68 -477.49 1046.89 -479.75 1046.75 -482.56 1039.02 -486.22 1041.35 -488.72 1042.06 -491.41 1039.69 -494.41 1040.73 -497.07 1037.28 -500.13 1047.38 -501.97 1045.98 -504.87 1038.18 -508.26 1048.06 -510.24 1044.65 -513.26 1046.4 -515.9 1044.52 -518.79 1041.22 -521.74 1049.23 -524.03 1043.56 -527.1 1042.45 -529.89 1042.29 -532.65 1049.67 -535.09 1042.3 -538.12 1039.58 -540.95 1041.55 -543.62 1051.68 -546.12 1050.75 -548.91 1050.41 -551.69 1040.87 -554.58 1044.1 -557.28 1049.35 -560.01 1047.86 -562.78 1049.86 -565.55 1048.37 -568.3 1043.93 -571.01 1043.05 -573.74 1049.36 -576.61 1041.81 -579.2 1042.12 -581.94 1039.34 -584.59 1041.78 -587.41 1051.34 -590.53 1041.99 -592.89 1046.18 -595.83 1044.32 -598.5 1045.93 -601.34 1047.85 -604.21 1047.53 -606.97 1049.94 -609.9 1045.84 -612.38 1040.17 -614.72 1042.62 -617.66 1041.92 -620.35 1036.6 -622.63 1049.15 -626.53 1040.41 -628.48 1046 -631.8 1037.98 -633.74 1043.6 -637.09 1044.66 -639.99 1036.46 -641.81 1037.88 -644.74 1040.37 -647.8 1045.91 -651.3 1043.75 -653.81 1033.07 -655.12 1038.44 -658.64 1043.49 -662.16 1038.39 -664.19 1034.78 -666.42 1034.75 -669.18 1033.3 -671.72 1031.86 -674.25 1039.3 -678.3 1035.29 -680.4 1037.8 -683.64 1036.78 -686.26 1036.64 -689.04 1036.33 -691.79 1034.71 -694.29 1032.65 -696.69 1029.91 -698.93 1036.93 -703.2 1033.6 -705.32 1033.83 -708.2 1031.55 -710.53 1030.81 -713.19 1023.88 -714.41 1032.11 -719.15 1023.52 -719.94 1025.1 -723.14 1029.13 -726.97 1030.71 -730.21 1019.3 -730.14 1021.09 -733.43 1020.17 -736.02 1022.02 -739.35 1016.14 -740.58 1018.02 -743.94 1024.88 -748.73 1018.86 -749.88 1015.37 -751.72 1014.27 -754.24 1017.95 -758.21 1019.4 -761.53 1017.87 -763.95 1013.91 -765.59 1018.55 -769.96 1015.12 -771.75 1014.5 -774.45 1013.92 -777.17 1007.64 -777.96 1012.73 -782.59 1009.47 -784.39 1005.8 -786.01 1011.59 -790.98 1010.55 -793.55 1005.37 -794.61 1004.93 -797.38 1006.78 -801.01 1004.55 -803.12 1001.06 -804.74 1000.64 -807.52 1001.02 -810.63 1002.51 -814.19 995.75 -814.45 994.25 -816.8 999.82 -822.06 993.73 -822.53 998.12 -827.36 991.77 -827.66 995.24 -832.15 992.23 -833.85 984.62 -833.51 991.61 -839.63 991.75 -842.72 988.16 -844.13 980.55 -843.66 987.08 -849.72 977.98 -848.5 974.74 -849.98 983.58 -857.25 983.9 -860.48 971.08 -857.28 972.41 -860.97 978.89 -867.28 979.17 -870.53 970.27 -869.09 970.26 -872.17 975.03 -877.76 964.31 -875.24 969.92 -881.32 966.2 -882.46 963.82 -884.3 958.13 -884.31 966.85 -892.25 962.56 -893.03 955.33 -892.11 963.27 -899.78 952.66 -896.88 953.07 -900.28 954.92 -904.54 950.87 -905.35 946.94 -906.19 952.05 -912.46 949.15 -913.92 941.93 -912.73 944.67 -917.64 946.58 -922.06 945.21 -924.46 946.24 -928.4 939.73 -927.52 939.62 -930.72 941.34 -935.14 938.71 -936.74 931.66 -935.36 930.18 -937.68 933.26 -943.07 933.21 -946.38 924.88 -944.01 927.45 -949.13 926.01 -951.49 926.97 -955.55 923.33 -956.36 918.04 -955.95 917.64 -959.05 917.19 -962.13 917.68 -965.91 912.84 -965.76 916.16 -971.68 909.8 -970.35 911.24 -974.91 904.95 -973.56 901.09 -974.04 906.1 -981.43 904.13 -983.4 897.48 -981.64 897.64 -985.27 891.07 -983.49 893.7 -989.16 889.51 -989.27 893.01 -995.73 891.59 -998.14 887.01 -997.89 889 -1003.19 880.8 -999.81 884.63 -1006.74 875.64 -1002.56 877.66 -1007.96 879.64 -1013.39 877.37 -1015.07 873.73 -1015.51 865.84 -1012.07 873.39 -1022.66 866.15 -1019.76 867.11 -1024.4 859.59 -1021.12 856.95 -1022.38 857.87 -1027.02 854.9 -1027.97 858.52 -1035.27 856.15 -1036.83 852.23 -1036.85 851.7 -1040.19 851.49 -1043.88 847.55 -1043.84 841.92 -1042.04 842.08 -1046.13 841.66 -1049.65 836.87 -1048.64 839.08 -1054.93 834.06 -1053.64 831.67 -1055.11 830.03 -1057.38 829.73 -1061.1 824.65 -1059.64 821.54 -1060.28 821.21 -1064 818.23 -1064.78 814.83 -1065.07 816.95 -1071.63 813.87 -1072.28 815.1 -1077.91 812.91 -1079.6 805.53 -1075.2 804.9 -1078.69 801.73 -1079.18 803.66 -1085.79 798.44 -1083.79 796.18 -1085.36 790.67 -1082.91 795.32 -1093.06 788.7 -1089.18 791.92 -1097.67 786.56 -1095.31 786.8 -1100.11 784.17 -1101.22 783.51 -1104.92 779.79 -1104.6 777 -1105.48 770.74 -1101.69 767.58 -1102 769.56 -1109.33 764.81 -1107.47 764.43 -1111.63 760.79 -1111.25 761.91 -1117.58 754.24 -1111.44 756.67 -1119.73 753.97 -1120.67 747.04 -1115.4 750.41 -1125.24 748.51 -1127.35 741.94 -1122.47 738.1 -1121.61 738.48 -1127.15 737.83 -1131.2 733.27 -1129.19 731.6 -1131.68 729.03 -1132.74 730.13 -1139.65 728.23 -1141.85 719.62 -1133.09 723.77 -1145.18 715.58 -1136.93 715.32 -1141.83 711.58 -1140.88 711.67 -1146.43 705.54 -1141.35 703.41 -1143.09 707.39 -1155.59 702.38 -1152.36 701.24 -1155.94 694.11 -1148.78 696.15 -1158.17 694.37 -1160.67 689.27 -1157.02 687.95 -1160.38 686.36 -1163.25 681.98 -1160.83 680.24 -1163.44 677.71 -1164.53 675.89 -1167.02 671.45 -1164.3 672.13 -1171.83 667.37 -1168.41 666.27 -1172.42 660.94 -1167.71 660.54 -1173.21 655.99 -1169.98 655.38 -1175.15 650.08 -1170.2 651.76 -1180.44 649.54 -1182.24 644.3 -1177.28 643.85 -1183.04 641.49 -1184.52 638.12 -1183.66 634.12 -1181.31 632.16 -1183.68 629.06 -1183.39 629.1 -1190.64 623.28 -1183.69 620.34 -1183.68 620.46 -1191.34 615.87 -1187.18 615.6 -1194.04 611.68 -1191.51 612.08 -1200.3 607.38 -1195.63 606.17 -1200.29 603.65 -1201.44 599.17 -1197.19 595.62 -1195.38 596.36 -1205.74 591.35 -1199.74 588.31 -1199.33 586.51 -1202.56 585.41 -1207.94 579.28 -1198.16 580.37 -1210.33 574.7 -1201.7 573.93 -1208.31 571.04 -1208.29 567.85 -1207.28 565.11 -1207.67 562.83 -1209.61 561.71 -1215.57 559.33 -1217.31 554.08 -1208.95 552.92 -1214.97 548.18 -1208.09 545.95 -1210.29 542.9 -1209.43 540.3 -1210.26 539.78 -1219.17 535.21 -1212.35 534.59 -1221.14 532.06 -1222.4 527.67 -1215.93 526.81 -1224.22 522.72 -1218.79 521.64 -1226.41 517.7 -1221.48 514.62 -1220.21 511.77 -1219.94 510.83 -1228.81 508.24 -1229.98 505.08 -1228.27 502.34 -1228.66 498.17 -1221.64 495.89 -1224.29 494.5 -1231.87 491.63 -1231.53 488.76 -1231.17 486.58 -1234.8 483.58 -1233.71 480.75 -1233.53 477.59 -1231.25 475.61 -1236.53 472.73 -1235.96 469.64 -1234.02 465.92 -1227.51 463.77 -1231.91 460.28 -1226.51 458.63 -1234.96 455.04 -1228.51 453.38 -1237.46 449.71 -1229.98 447.47 -1234.48 445.05 -1237.68 441.39 -1229.29 439.13 -1234.08 436.19 -1232.16 433.59 -1233.74 430.64 -1231.51 428.33 -1236.57 425.75 -1238.92 422.7 -1235.26 420.46 -1242.34 417.31 -1236.91 414.58 -1237.34 412.13 -1242.5 408.95 -1235.26 405.97 -1230.76 403.35 -1233.1 400.56 -1231.79 398.12 -1238.86 395.12 -1232.09 392.51 -1235.81 389.83 -1238.45 387.01 -1235.28 384.22 -1233.2 381.64 -1242.73 378.74 -1232.23 376.11 -1244.29 373.3 -1235.45 370.55 -1238.4 367.79 -1238.68 365.04 -1238.41 362.34 -1233.85 359.46 -1243.66 356.85 -1235.42 353.92 -1243.06 351.39 -1234.49 348.53 -1238.09 345.85 -1236.15 342.96 -1239.79 340.1 -1241.81 337.8 -1232.18 334.67 -1239.74 331.88 -1240.17 329.08 -1240.76 326.85 -1232.29 323.48 -1241.52 321.56 -1229.56 318.62 -1232.35 315.28 -1239.77 312.46 -1240.27 309.71 -1239.96 306.98 -1239.44 305.11 -1229.95 301.79 -1235.73 298.75 -1238.24 296.44 -1233.9 293.19 -1238.18 291.23 -1231.16 287.78 -1236.83 284.79 -1238.43 283.09 -1229.97 279.59 -1235.47 277.23 -1232.36 274.6 -1231.34 271.76 -1231.73 269.79 -1226.31 266.27 -1231.23 263.97 -1228.12 261.69 -1225.05 258.27 -1228.91 256.36 -1223.76 253.79 -1222.62 250.34 -1226.38 246.66 -1231.24 244.01 -1230.31 241.89 -1226.71 238.36 -1230.42 236.78 -1224.18 233.01 -1228.91 230.76 -1226.14 228.34 -1224.26 226.31 -1220.67 223.55 -1220.46 220.03 -1223.56 218.56 -1217.67 214.68 -1222.18 213.73 -1214.33 211.07 -1213.72 207.53 -1216.65 205.41 -1213.88 201.57 -1217.82 197.86 -1221.11 195.43 -1219.48 195.55 -1208.45 191.63 -1212.42 190.11 -1207.68 185.22 -1214.92 184.15 -1208.67 180.54 -1211.23 176.53 -1215.13 175.8 -1207.93 170.79 -1214.91 169.22 -1210.61 166.39 -1210.42 166.54 -1200.88 163.8 -1200.46 158.13 -1209.01 156.08 -1206.4 152.65 -1207.91 151.08 -1203.97 150.21 -1198.04 144.44 -1206.19 146.18 -1193.03 143.48 -1192.52 140.48 -1192.77 138.17 -1191.15 131.98 -1199.92 132.05 -1191.92 127.76 -1195.44 125.76 -1192.97 122.44 -1193.92 123 -1185.04 119.88 -1185.5 113.36 -1194.25 112.1 -1190.05 112.54 -1181.8 109.64 -1181.66 107.54 -1179.61 100.57 -1188.88 100.49 -1182.13 99.71 -1177.09 94.9 -1181.16 94.7 -1174.92 89.71 -1179.26 90.28 -1171.45 85.52 -1175.2 85.76 -1168.26 78 -1178.22 76.05 -1175.87 72.87 -1176.07 73.54 -1168.42 73.01 -1163.31 69.32 -1164.6 68.67 -1159.81 66.36 -1158.36 61.22 -1162.36 60.08 -1158.62 56.72 -1159.13 50.56 -1164.88 50.22 -1159.65 48.33 -1157.35 45.28 -1157.18 44.39 -1153.11 42.86 -1150.21 38 -1153.26 34.55 -1153.75 32.83 -1151.17 31.81 -1147.44 26.29 -1151.42 28.72 -1141.86 24.41 -1143.74 25.9 -1135.92 21.2 -1138.41 19.1 -1136.61 14.14 -1139.41 10.19 -1140.53 8.68 -1137.72 9.46 -1131.34 5.14 -1133 1.96 -1132.84 -1.71 -1133.41 -3.43 -1130.98 -4.07 -1126.94 -8.98 -1129.31 -9.7 -1125.44 -6.57 -1115.95 -15.39 -1123.95 -11.67 -1113.74 -12.78 -1110.57 -20.41 -1116.65 -22.29 -1114.53 -22.59 -1110.22 -26.82 -1111.38 -29.22 -1110 -31.6 -1108.58 -31.46 -1103.76 -32.68 -1100.83 -40.1 -1106.09 -38.61 -1099.58 -38.12 -1094.44 -41.7 -1094.59 -44.79 -1094.1 -44.01 -1088.68 -53.1 -1095.72 -55.4 -1094.17 -54.3 -1088.41 -59.12 -1089.97 -60.74 -1087.57 -64.5 -1087.77 -64.48 -1083.43 -66.93 -1082.05 -63.32 -1073.54 -68.82 -1075.76 -73.49 -1076.96 -74.23 -1073.61 -71.16 -1065.93 -73.85 -1064.86 -80.92 -1068.69 -82.22 -1066.01 -86.45 -1066.57 -80.56 -1056.04 -82.62 -1054.25 -92.66 -1061.06 -94.72 -1059.2 -93.08 -1053.44 -91.94 -1048.26 -93.38 -1045.82 -94.45 -1043.02 -101.32 -1046.16 -103.93 -1044.88 -105.92 -1042.98 -108.05 -1041.22 -109.79 -1039.06 -114.35 -1039.7 -113.81 -1035.3 -114.32 -1031.96 -112.66 -1026.56 -120.46 -1030.23 -122.35 -1028.22 -126.3 -1028.14 -125.03 -1023.17 -124.53 -1018.97 -130.49 -1020.71 -131.59 -1017.97 -128.1 -1011.13 -128.76 -1008.06 -136.04 -1010.87 -139.71 -1010.42 -140.34 -1007.31 -144.63 -1007.38 -141.66 -1001.19 -143.18 -998.88 -140.8 -993.29 -143.98 -992.4 -150.89 -994.59 -156.36 -995.51 -151.25 -987.76 -159.82 -991.18 -158.35 -986.45 -161.13 -985.14 -155.5 -977.17 -166.67 -982.45 -164.98 -977.63 -160.45 -970.67 -170.52 -974.93 -164.85 -967.16 -171.97 -969.1 -166.29 -961.43 -170.38 -961.07 -169.82 -957.27 -172.8 -956.08 -177.5 -956.09 -176.76 -952.19 -178.81 -950.3 -181.65 -948.94 -181.02 -945.17 -188.04 -946.69 -189.2 -944.14 -188.98 -940.66 -185.23 -934.84 -188.85 -933.98 -198.11 -936.82 -190.7 -928.67 -198.23 -930.29 -192.45 -923.31 -202.65 -926.57 -205.12 -924.87 -199.35 -918 -200.34 -915.4 -204.57 -914.78 -212.44 -916.36 -208.72 -910.89 -214.4 -911.08 -206.5 -903.2 -209.43 -901.74 -211.9 -900.02 -220.42 -901.76 -214.81 -895.38 -216.21 -893.03 -213.45 -888.35 -226.17 -892.27 -223.81 -887.82 -219.51 -882.35 -221.17 -880.15 -223.26 -878.16 -232.45 -879.92 -233.62 -877.4 -229.55 -872.18 -226.68 -867.63 -233.03 -867.79 -232.58 -864.48 -233.7 -861.98 -235.8 -859.96 -235.39 -856.7 -243.55 -857.59 -240.41 -853.02 -237.24 -848.49 -240.76 -847.12 -242.34 -844.83 -246.28 -843.6 -248.32 -841.5 -240.98 -835.21 -241.34 -832.39 -244.38 -830.74 -245.03 -828.06 -254.75 -829.24 -256.17 -826.84 -255.78 -823.68 -251.93 -819.11 -257.01 -818.22 -250.79 -812.75 -262.91 -814.63 -253.05 -807.78 -258.89 -807.12 -261.8 -805.3 -262.17 -802.49 -265.67 -800.87 -257.92 -795.06 -258.97 -792.54 -264.76 -791.73 -269.29 -790.42 -267.54 -786.89 -266.3 -783.54 -263.65 -779.74 -274.13 -780.39 -267.04 -775.12 -272.67 -774.09 -269.23 -770.08 -267.53 -766.67 -272.8 -765.47 -271.79 -762.29 -269.25 -758.65 -275.56 -757.7 -281.16 -756.5 -273.78 -751.47 -279.96 -750.4 -274 -745.85 -284.04 -745.82 -286.93 -743.75 -277.91 -738.44 -279.27 -735.97 -286.27 -734.97 -287.91 -732.54 -284.55 -728.84 -287.19 -726.67 -283 -722.8 -284.74 -720.41 -287.57 -718.26 -288.07 -715.55 -292.77 -713.8 -283.7 -708.95 -285.75 -706.61 -283.94 -703.42 -287.2 -701.32 -289.29 -698.96 -296.49 -697.62 -291.17 -693.75 -297.59 -692.19 -291.27 -688.18 -299.46 -686.9 -290.84 -682.54 -288.3 -679.32 -291.42 -677.09 -296.46 -675.16 -295.41 -672.2 -289.79 -668.53 -297 -666.89 -290.43 -663.12 -296.55 -661.27 -299.84 -658.96 -293.11 -655.25 -297.4 -653.08 -302.26 -650.94 -301.54 -648.06 -293.77 -644.35 -298.98 -642.21 -306.75 -640.33 -304.19 -637.27 -298.1 -633.85 -304.07 -631.7 -295.88 -628.14 -304.19 -626.17 -304.19 -623.41 -307 -620.87 -304.98 -617.94 -297.62 -614.6 -300.52 -612.08 -297.12 -609.1 -296.7 -606.34 -309.23 -604.37 -308.18 -601.53 -308.22 -598.77 -305.37 -595.86 -300.85 -592.9 -298.58 -590.07 -299.99 -587.39 -306.15 -584.85 -300.72 -581.94 -302.64 -579.26 -303.99 -576.54 -309.93 -573.88 -307.01 -571.07 -306.84 -568.31 -303.08 -565.53 -300.46 -562.78"/>
    <polygon class="cls-10" points="-295.36 -562.78 -293.69 -559.49 -294.4 -556.2 -296.17 -552.89 -285.53 -549.79 -287.49 -546.5 -288.11 -543.23 -287.87 -539.98 -292.47 -536.53 -290.07 -533.36 -285.34 -530.31 -288.81 -526.88 -288.99 -523.6 -285.61 -520.54 -285.69 -517.27 -294.42 -513.37 -293.18 -510.16 -289.93 -507.14 -293.71 -503.5 -289.45 -500.59 -288.83 -497.37 -290.39 -493.91 -294.33 -490.18 -293.52 -486.94 -285.31 -484.58 -283.53 -481.52 -284.02 -478.17 -283.03 -475.02 -281.78 -471.9 -289.37 -467.52 -290.82 -463.97 -287.42 -461.15 -277.49 -459.39 -281.34 -455.48 -284.98 -451.56 -279.04 -449.25 -278 -446.13 -279.6 -442.52 -281.59 -438.82 -285.18 -434.78 -280.72 -432.3 -283.64 -428.36 -273.8 -427.05 -277.42 -422.94 -282.02 -418.58 -278.93 -415.88 -271.57 -414.2 -277.88 -409.37 -275.84 -406.48 -268.81 -404.83 -269.14 -401.39 -266.12 -398.8 -272.69 -393.72 -264.38 -392.54 -270.9 -387.39 -271.08 -383.94 -270.65 -380.64 -263.94 -379.15 -265.25 -375.37 -262 -372.92 -259.24 -370.35 -258.14 -367.28 -261.68 -362.76 -257.01 -360.82 -263.92 -355.13 -264.5 -351.47 -256.27 -350.75 -253.39 -348.29 -256.88 -343.62 -250.25 -342.48 -253.01 -338.03 -255.64 -333.59 -247.4 -333.13 -250.95 -328.31 -245.18 -327.01 -250.17 -321.58 -250 -318.11 -242.26 -317.65 -244.32 -313.3 -246.54 -308.84 -243 -306.75 -245.87 -301.97 -238.23 -301.65 -237.23 -298.51 -229.96 -298.15 -231.44 -293.94 -238.44 -287.19 -231.97 -286.52 -226.71 -285.37 -226.03 -282.09 -226.24 -278.38 -232.25 -271.84 -228.14 -270.17 -224.66 -268.23 -216.36 -268.73 -215.71 -265.41 -223.84 -257.58 -212.54 -259.75 -213.34 -255.66 -213.03 -252.13 -215.23 -247.23 -208.54 -247.14 -206.54 -244.52 -211.28 -238.14 -207.68 -236.39 -205.62 -233.8 -206.85 -229.29 -206.35 -225.77 -204.69 -222.92 -195.75 -224.42 -196.61 -220.09 -196.75 -216.17 -189.39 -216.86 -187.41 -214.27 -195.32 -205.42 -191.02 -204.24 -186.44 -203.28 -180.65 -203.15 -187.82 -194.52 -179.21 -196.3 -174.03 -195.86 -172.95 -192.67 -172.22 -189.23 -170.48 -186.48 -176.27 -178.41 -169.95 -178.85 -165.55 -177.99 -168.43 -171.87 -163.73 -171.24 -161.66 -168.7 -155.09 -169.53 -154.52 -165.9 -151.2 -164.34 -149.67 -161.43 -156.7 -151.82 -147.44 -154.92 -148.91 -149.58 -141.31 -151.49 -148.33 -141.61 -136.92 -146.7 -137.2 -142.27 -132.73 -141.75 -134.13 -136.33 -132.94 -133.05 -130.03 -131.24 -125.61 -130.76 -130.74 -121.92 -120.46 -126.65 -122.25 -120.68 -123.18 -115.42 -122.93 -111.19 -111.57 -117.19 -115.01 -109.55 -111.1 -108.72 -112.29 -103.07 -102.79 -107.65 -107.97 -98.09 -99.61 -101.67 -96.77 -99.92 -95.02 -97.06 -96.74 -90.7 -92.1 -90.75 -95.25 -82.82 -86.93 -86.7 -86.24 -82.7 -88.33 -75.71 -84.5 -74.97 -77.15 -78.08 -79.31 -70.89 -76.43 -69.15 -68.38 -73.2 -66.3 -70.65 -63.56 -68.84 -66.13 -60.95 -61.37 -61.44 -55.43 -63.37 -54.39 -59.57 -57.85 -50.37 -52.92 -51.15 -50.22 -49.27 -45.11 -50.36 -47.28 -42.46 -38.57 -48.11 -42.58 -37.78 -39.65 -36.17 -30.71 -42.35 -30.66 -37.08 -29.73 -32.89 -29.18 -28.16 -25.29 -27.87 -19.59 -30.07 -14.98 -30.87 -12.62 -28.6 -11.85 -24.08 -12.8 -17.06 -8.71 -17.17 -2.57 -20.3 -.06 -18.21 3.72 -18 2.89 -10.91 5.42 -8.8 7.3 -5.68 12.39 -7.52 14.07 -4.08 20.16 -7.58 20.7 -2.34 19.03 6.56 23 6.4 29.6 1.85 29.95 7.61 35.69 4.37 34.97 12.02 37.98 13.38 45.33 7.14 44.95 14.41 45.21 20.65 50.85 17.25 55.36 15.82 55.08 23.18 61.59 17.97 61.22 25.64 67.98 19.75 67.35 28.08 70.41 29.28 74.37 28.68 78.03 28.66 77.94 36.26 79.82 39.94 86.41 33.8 87.23 39.71 90.36 40.78 96.04 36.28 95.19 46.03 102.09 38.69 105.59 38.81 107.25 43.12 108.3 48.94 110.7 51.71 116.77 45.71 116.86 54.04 119.42 56.49 122.61 57.39 129.75 48.28 128.94 59.32 133.31 57.13 135.84 59.71 141.01 55.23 142.68 60.12 144.51 64.71 149.69 59.96 150.28 68.18 153.32 69.46 160.33 59.04 159.63 71.42 163.72 69.55 167.5 68.5 169.81 72.05 174.19 69.03 176.69 72.05 180.73 69.98 183.12 73.42 186.58 73.24 188.25 79.33 193.91 71.27 195.5 77.82 197.34 83.6 203.01 75.01 206.88 73.01 209.83 74.58 210.53 85.32 215.2 80 217.66 83.78 222.1 79.14 224.13 84.91 228.75 79.15 230.81 85.08 235.22 79.93 238.03 82.39 240.72 85.52 242.5 93.51 248 82.18 250.37 87.19 252.86 91.84 256.64 89.23 260.8 84.23 263.95 85.06 266.69 88.54 269.81 89.63 271.7 99.17 276.23 90.84 279.51 90.96 281.93 97.42 285.7 93.87 289.55 89.37 292.02 96.13 294.97 99.26 299.19 90.81 302.43 91.07 305.51 92.85 308.97 90.87 311.86 95.01 314.38 104.06 318.08 99.2 321.51 97.21 324.34 103.88 328.4 92 331.09 101.56 334.67 96.13 337.81 98.61 340.97 101.32 344.09 105.63 347.46 104.07 350.71 105.45 354.16 99.54 357.53 94.71 360.78 95.19 363.94 105.19 367.24 104.41 370.55 106.07 373.85 105.29 377.15 104.47 380.47 105.73 383.68 100.9 386.9 98.46 390.04 93.83 393.34 95.42 396.94 104.04 399.8 93.85 403.39 100.79 406.88 104.61 410.11 103.22 413.47 104.12 416.66 102.41 419.77 99.71 422.42 91.51 425.68 91.52 429.52 98.16 432.98 99.91 436.3 100.06 439.81 101.98 442.31 94.39 445.11 90.1 448.24 88.89 452.33 95.54 454.85 89.42 458.35 91.09 462.59 97.97 465.58 95.58 467.87 88.59 472.06 94.43 474.81 90.81 479.09 96.75 481.75 92.61 484.76 90.75 487.92 89.83 491.19 89.47 494.39 88.77 496.75 83.71 501.26 89.73 504.54 89.29 506.02 80.35 509.55 81.3 513.45 83.9 516.29 81.6 518.86 78.21 521.62 75.77 527.07 84.58 530.53 84.85 532.21 78.02 536.44 81.38 539.15 78.74 541.19 73.66 545.57 77.35 547.73 72.88 551.57 74.49 556.5 79.78 559.14 77.04 561.56 73.63 565.67 75.85 568.27 73.08 570.75 70.01 574.33 70.45 575.64 63.9 579.95 66.54 582.81 64.78 587.09 67.14 589.82 64.97 592.22 61.93 594.15 57.61 597.58 57.5 599.45 53.19 606.16 61.75 605.65 51.21 608.23 48.9 615.46 58.39 614.39 46.83 617.8 46.63 621.29 46.57 627.53 53.06 630.15 50.78 630.39 43.01 633.07 41.01 639.69 47.94 638.24 36.65 641.15 35.21 649.18 44.93 648.59 35.83 653.15 37.87 653.07 30.08 660.26 37.51 663.18 35.97 662.07 26.32 670.2 35.29 672.63 32.79 675.99 32.1 676.17 25.28 676.72 19.31 681.94 22.21 681.82 15.08 689.23 21.87 692.57 21.13 694.7 18.19 698.78 18.73 697.78 10.32 698.83 5.63 706.42 12.2 706.48 5.83 712.71 9.88 715.18 7.62 713.81 -.93 717.82 -.65 721 -1.71 726.76 1.28 729.41 -.7 733.06 -1.11 731.68 -9.27 738.7 -4.57 738.54 -10.76 739.91 -14.57 743.49 -15.12 746.25 -16.88 747.77 -20.43 751.88 -20.27 755.3 -21.11 757.18 -24.11 756.66 -30.41 758.96 -32.75 762.44 -33.52 764.29 -36.47 766.9 -38.4 769.39 -40.49 777.49 -35.31 774.16 -44.93 778.22 -45.02 779.05 -49.19 784.91 -47.09 791.74 -43.86 787.93 -53.71 793.76 -51.78 797.21 -52.75 797.3 -57.74 802.24 -56.98 801.38 -63.01 809.55 -58.6 808.6 -64.68 811.41 -66.45 813.34 -69.21 813.75 -73.62 820.61 -70.97 820.35 -76.09 823.57 -77.44 824.08 -81.68 828.54 -81.74 827.45 -87.61 833.23 -86.32 833.07 -91.17 837.96 -90.87 835.41 -98.05 837.99 -100.08 844.41 -98.33 847.4 -99.99 845.41 -106.46 853.68 -103.07 850.23 -110.85 859.8 -106.37 859.32 -111.32 858.03 -116.95 858.96 -120.51 864.98 -119.48 865.23 -123.65 871.09 -122.84 871.32 -127.01 871.75 -130.97 872.99 -134.21 878.13 -134.14 875.02 -141.01 880.77 -140.47 886.37 -140.11 888.57 -142.57 882.38 -151.77 886.41 -152.7 896.4 -148.97 896.53 -153.06 895.88 -157.73 897.81 -160.37 901.96 -161.34 906.09 -162.37 901.12 -170.15 908.59 -168.72 905.57 -174.99 909.67 -176.05 907.52 -181.6 915.08 -180.26 917.72 -182.42 918.24 -186.06 922.15 -187.37 924.75 -189.59 924.98 -193.4 926.11 -196.61 923.14 -202.46 928.17 -203.09 933.79 -203.39 932.73 -207.96 934.91 -210.47 935.06 -214.25 937.27 -216.73 935.84 -221.43 937.03 -224.51 940.29 -226.37 938.96 -230.93 944.39 -231.55 949.62 -232.32 942.98 -239.86 944.22 -242.89 954.67 -240.82 956.65 -243.48 950.04 -250.8 955.61 -251.51 962.53 -251.57 960.71 -256.23 965.27 -257.58 959.05 -264.44 966.78 -264.21 960.94 -270.77 971.68 -269.14 963.73 -276.65 968.71 -277.88 969.4 -281.17 969.22 -284.85 977.53 -284.63 979.01 -287.57 978.8 -291.28 971.38 -298.15 977.9 -298.84 977.52 -302.56 977.39 -306.15 984.8 -306.58 987.04 -309.22 982.06 -314.8 984.43 -317.35 992.23 -317.79 989.75 -322.29 991.27 -325.22 996.69 -326.68 991.55 -332.12 994.12 -334.66 993.06 -338.53 998.48 -340.07 990.29 -346.41 996.67 -347.65 998.36 -350.53 1002.12 -352.73 1006.42 -354.78 996.26 -361.52 999.49 -363.9 1001.23 -366.77 1008.46 -367.97 1000.12 -373.91 1008.45 -374.84 1012.07 -377.21 1012.34 -380.56 1006.89 -385.5 1011.75 -387.55 1009.64 -391.52 1017.21 -392.91 1008.45 -398.56 1011.66 -401.12 1013.03 -404.14 1008.4 -408.61 1009.65 -411.65 1014.85 -413.78 1022.68 -415.36 1013.81 -420.69 1018.75 -422.95 1024 -425.2 1013.59 -430.69 1023 -432.12 1018.84 -436.28 1019.65 -439.44 1020.08 -442.68 1022.22 -445.61 1028.61 -447.82 1029.27 -451.06 1028.07 -454.6 1020.76 -459.08 1030.1 -460.94 1023.36 -465.27 1031.93 -467.34 1025.01 -471.63 1027.38 -474.61 1021.79 -478.62 1024.41 -481.57 1027.79 -484.44 1026.47 -487.88 1032.41 -490.52 1031.27 -493.94 1036.11 -496.77 1031.57 -500.51 1036.04 -503.4 1034.26 -506.86 1035.06 -510.1 1029.57 -513.81 1031.65 -516.94 1026.64 -520.54 1028.78 -523.67 1033.51 -526.68 1029.45 -530.16 1032.33 -533.29 1029.89 -536.67 1037.54 -539.67 1030.7 -543.17 1029.39 -546.47 1032.76 -549.66 1033.37 -552.93 1026.64 -556.28 1030.66 -559.5 1026.64 -562.78 1033.07 -566.05 1029.91 -569.29 1038.44 -572.68 1031.9 -575.86 1036.94 -579.25 1038.39 -582.59 1033.07 -585.71 1029.49 -588.85 1036.58 -592.43 1037.09 -595.76 1029.95 -598.68 1031.85 -602.06 1031.75 -605.33 1031.15 -608.57 1033.97 -612.06 1033.09 -615.29 1031.93 -618.49 1029.83 -621.6 1031.67 -625.06 1033.49 -628.53 1034.41 -631.94 1027.68 -634.54 1022.41 -637.22 1035.05 -641.99 1029.45 -644.63 1022.12 -646.99 1029.93 -651.31 1031.31 -654.82 1023.84 -657.08 1020.45 -659.87 1030.25 -664.66 1020.26 -666.42 1027.99 -670.98 1023.14 -673.5 1027.33 -677.55 1023.34 -680.19 1024.64 -683.75 1015.81 -685.43 1027.45 -690.99 1022.28 -693.33 1021.85 -696.6 1021.42 -699.86 1012.94 -701.4 1019.07 -706.08 1011.23 -707.68 1010.44 -710.83 1019.8 -716.36 1012.75 -718.06 1012.41 -721.34 1006.76 -723.28 1015.57 -728.89 1006.91 -730.03 1013.22 -735.08 1005.72 -736.44 1006.65 -740.07 1011.53 -744.85 1011.12 -748.15 1002.58 -749.07 1006.34 -753.6 1010.57 -758.32 1004.49 -759.9 1007.03 -764.13 996 -764.05 1000 -768.78 996.67 -771.12 993.67 -773.54 1000.24 -779.23 990.02 -779.15 991.57 -783.14 996.52 -788.38 998.16 -792.48 987.74 -792.14 991.54 -797.04 993.87 -801.45 982.3 -800.49 982.76 -804.15 989.52 -810.36 980.39 -810.2 987.71 -816.73 986.98 -820 978.23 -819.88 984.94 -826.31 977.78 -826.8 976.97 -830.01 979.64 -834.79 970.17 -834.11 970.07 -837.65 975.29 -843.66 971.5 -845.52 967.37 -847.18 965.12 -849.73 961.34 -851.5 959.2 -854.07 963.97 -860.09 963.36 -863.46 955.35 -863.04 958.31 -868.23 957.71 -871.61 954.39 -873.56 957.25 -878.82 955.61 -881.68 951.49 -883.16 951.22 -886.75 949.16 -889.37 940.96 -888.46 949.93 -897.4 946.89 -899.45 942.7 -900.8 940.11 -903.08 940.14 -906.93 936.22 -908.38 934.39 -911.1 934.28 -914.89 936.16 -919.97 926.01 -917.4 929.33 -923.42 923.49 -923.53 920.95 -925.77 924.64 -932.14 920.09 -933.04 923.07 -939.04 912.83 -935.98 919.09 -944.31 908.37 -940.79 913.27 -948.27 913.24 -952.29 906.24 -951.29 903.61 -953.42 904.56 -958.19 905.79 -963.2 895.04 -959.21 897.96 -965.53 891.07 -964.35 896.34 -972.58 893.38 -974.45 884.25 -971.37 887.09 -977.82 886.51 -981.57 887.55 -986.67 879.31 -984.13 879.36 -988.42 873.21 -987.51 876.63 -994.71 873.73 -996.55 872.3 -999.65 871.24 -1003.1 862.58 -999.81 861.35 -1003.08 862.33 -1008.36 863.03 -1013.44 860.1 -1015.23 854.68 -1014.67 853.74 -1018.28 847.12 -1016.51 843.67 -1017.7 846.68 -1025.14 848.29 -1031.31 836.64 -1024.42 837.47 -1029.83 839.72 -1036.75 838.13 -1039.83 831.67 -1037.9 832.04 -1043.02 830.14 -1045.79 823.08 -1043.1 818.81 -1043.3 821.24 -1050.71 818.64 -1052.73 811.93 -1050.21 811.93 -1055.08 807.8 -1055.34 805.75 -1057.94 804.04 -1060.93 801.99 -1063.54 799.58 -1065.75 801.74 -1073.36 795.51 -1071.07 789.84 -1069.36 794.37 -1079.99 788 -1077.4 784.33 -1078.04 786.28 -1085.75 780.66 -1083.93 778.32 -1086.27 773.19 -1084.98 775.48 -1093.34 772.86 -1095.34 770.4 -1097.56 765.19 -1096.07 762.05 -1097.32 758.42 -1097.9 754.81 -1098.47 752.27 -1100.51 749.74 -1102.57 751.34 -1110.58 747.07 -1110.18 745.42 -1113.58 740.89 -1112.75 734.68 -1109.36 737.42 -1119.38 735.98 -1123.19 731.53 -1122.39 724.37 -1117.3 720.91 -1117.91 723.33 -1127.9 720.28 -1129.21 716.68 -1129.62 711.58 -1127.54 713.19 -1136.56 707.71 -1133.79 707.37 -1139.7 701.32 -1135.83 700.86 -1141.59 697.55 -1142.43 691.16 -1137.73 692.67 -1147.19 686.74 -1143.21 686.56 -1149.73 680.13 -1144.67 676.26 -1144.3 675.95 -1150.73 672.96 -1152.08 671.03 -1155.49 667.95 -1156.67 664.44 -1156.98 661.41 -1158.23 658.12 -1158.93 657.78 -1165.8 651.45 -1160.13 650.77 -1166.38 648.1 -1168.43 642.5 -1164.06 643.32 -1173.87 636.03 -1165.52 636.53 -1174.83 629.68 -1167.21 626.59 -1168.25 623.29 -1168.76 622.81 -1176.13 620.98 -1180.32 617.73 -1181.04 614.26 -1181.22 612.32 -1185.29 608.54 -1184.62 603.27 -1179.99 599.43 -1179 600.43 -1191.16 595.53 -1187.3 591.07 -1184.55 588.66 -1187.52 586.05 -1189.97 584.51 -1195.63 578.35 -1187.58 576.58 -1192.62 572.82 -1191.63 568.89 -1190 566.61 -1193.61 563.01 -1193 559.94 -1194.09 556.62 -1194.35 556.53 -1205.75 552.19 -1202.52 548.73 -1202.36 546.82 -1207.84 543.44 -1207.95 537.83 -1199.58 534.29 -1198.82 533.01 -1207.06 530.66 -1211.24 526.52 -1208.13 522.74 -1206.38 520.57 -1211.48 516.71 -1209.3 512.19 -1203.97 509.91 -1208.83 508.09 -1216.04 504.15 -1213.22 500.26 -1210.47 497.14 -1211.53 493.67 -1210.75 490.17 -1209.7 487.08 -1210.87 485.21 -1219.12 482.19 -1221 477.87 -1215.01 475.09 -1218.36 472.19 -1221.08 467.9 -1214.59 464.7 -1215.18 461.92 -1218.86 458.68 -1219.29 455.91 -1223.48 451.92 -1217.96 449.67 -1226.67 445.69 -1220.86 443.03 -1226.71 438.92 -1219.03 435.48 -1217.22 432.13 -1216.36 429.35 -1221.83 425.71 -1217.46 422.57 -1218.84 419.68 -1224.06 416.56 -1226.34 413.26 -1226.41 409.65 -1220.95 406.52 -1223.35 403.62 -1231.01 400.28 -1230.24 396.61 -1220.94 393.64 -1229.31 390.26 -1226.58 387.1 -1231.57 383.66 -1225.05 380.4 -1225.79 377.08 -1221.36 373.81 -1221 370.55 -1222.12 367.29 -1222.57 363.99 -1225.94 360.71 -1226.13 357.49 -1222.93 354.31 -1219.43 350.82 -1227.62 347.82 -1219.2 344.34 -1225.19 341.1 -1224.22 337.84 -1223.87 334.45 -1225.88 331.31 -1223.38 327.83 -1226.59 325.1 -1218.24 321.06 -1229 317.69 -1229.63 315.04 -1221.63 311.78 -1221.5 308.36 -1222.83 304.76 -1226.03 301.59 -1224.69 297.96 -1227.63 295.08 -1223.68 291.46 -1226.27 288.16 -1226.06 285.51 -1220.81 282.07 -1221.79 278.74 -1221.84 276.77 -1212.36 272.03 -1222.26 270.39 -1211.21 266.24 -1216.66 263.12 -1215.49 258.7 -1222.05 256.43 -1215.79 252.68 -1218.16 250.15 -1213.73 246.35 -1216.21 243.88 -1211.7 239.44 -1217.28 236.72 -1214.13 234.92 -1206.69 231.73 -1206.05 227.64 -1209.49 224.33 -1209.29 220.06 -1213.27 219.5 -1201.27 214.04 -1210.07 211.66 -1205.97 207.33 -1209.73 206.38 -1200.22 203.31 -1199.11 198.91 -1202.98 196.13 -1200.72 191.75 -1204.28 190.64 -1196.13 186.82 -1197.61 184.04 -1195.53 178.49 -1202.67 178.07 -1192.75 171.8 -1201.95 171.23 -1192.81 166.9 -1195.59 163.83 -1194.41 160.49 -1194.06 158.07 -1190.95 156.67 -1184.96 151.16 -1190.86 148.16 -1189.51 147.21 -1182.44 141.55 -1188.46 137.91 -1188.81 137.45 -1180.65 132.34 -1184.91 132.78 -1174.67 127.2 -1179.98 124.15 -1178.81 119.79 -1180.8 119.37 -1173.18 114.7 -1175.92 112.64 -1172.35 110.91 -1168.1 106.05 -1171.12 102.03 -1172.11 99.55 -1169.59 96.84 -1167.64 95.86 -1161.9 93.46 -1159.35 86.27 -1166.96 87.77 -1156.18 84.07 -1156.37 80.94 -1155.36 74.59 -1160.84 75.51 -1151.65 72.36 -1150.66 66.67 -1154.62 63.09 -1154.38 61.6 -1150.14 60.39 -1145.44 58.75 -1141.62 54.1 -1143.35 51.22 -1141.81 50.64 -1136.16 41.6 -1145.55 40.44 -1140.93 40.72 -1133.87 38.24 -1131.65 30.2 -1138.84 30.63 -1131.7 26.92 -1131.52 27.88 -1123.65 23.95 -1123.83 16.28 -1129.95 14.11 -1127.2 14.05 -1121.17 14.77 -1114.02 8.02 -1118.43 5.16 -1116.81 1.92 -1115.77 .92 -1111.37 -1.27 -1108.8 -6.11 -1110.06 -4.29 -1101.71 -8.13 -1101.52 -13.37 -1103.29 -15.18 -1100.19 -16.26 -1096.12 -17.22 -1091.91 -23.78 -1095.32 -27.21 -1094.44 -30.94 -1093.94 -34.7 -1093.44 -36.93 -1090.94 -34.08 -1081.94 -38.41 -1082.17 -38.17 -1076.62 -42.91 -1077.34 -49.94 -1080.83 -49.66 -1075.28 -48.13 -1068.31 -55.64 -1072.23 -59.48 -1071.69 -55.51 -1061.97 -64.32 -1067.22 -67.68 -1066.07 -67.02 -1060.34 -70.65 -1059.49 -70.36 -1054.25 -72.64 -1051.91 -73.26 -1047.76 -82.38 -1052.84 -78.23 -1043.56 -85.98 -1047.05 -88.07 -1044.48 -89.24 -1040.96 -88.55 -1035.54 -94.37 -1036.83 -98.77 -1036.61 -97.15 -1030.33 -99.39 -1027.96 -104 -1027.9 -103.6 -1022.94 -102.72 -1017.57 -113.28 -1023.14 -115.14 -1020.36 -110.43 -1011.45 -114.42 -1010.72 -117.23 -1008.87 -121.2 -1008.06 -127.19 -1009.04 -125.88 -1003.46 -131.45 -1003.98 -131.95 -1000.04 -130.46 -994.41 -129.28 -989.12 -137.66 -991.95 -133.12 -983.87 -144.32 -988.94 -141.76 -982.57 -139.42 -976.45 -146.25 -977.79 -149.75 -976.38 -145.45 -968.82 -155.82 -972.8 -149.57 -963.8 -154.06 -963.15 -162.22 -965.24 -161.24 -960.39 -159.3 -954.87 -168.85 -957.83 -170.88 -955.23 -164.64 -946.67 -166.29 -943.85 -174.94 -945.97 -174.43 -941.6 -180.67 -941.92 -181.31 -938.36 -180.42 -933.78 -183.23 -931.72 -186.06 -929.65 -179.87 -921.66 -182.84 -919.72 -193.12 -922.43 -194.22 -919.23 -190.3 -912.88 -192.14 -910.18 -195.8 -908.59 -192.36 -902.69 -198.38 -902.5 -197.09 -897.94 -200.15 -895.96 -203.48 -894.11 -203.94 -890.61 -205.5 -887.74 -211.16 -887.16 -211 -883.32 -211.34 -879.77 -215.29 -878.18 -219.51 -876.71 -216.07 -871.16 -213.7 -866.24 -213.48 -862.47 -219.05 -861.66 -218.24 -857.61 -219.24 -854.48 -220.17 -851.31 -228.16 -851.57 -233.1 -850.29 -234.01 -847.08 -232.59 -842.78 -235.1 -840.32 -234.22 -836.31 -235.31 -833.21 -235.09 -829.53 -242.54 -829.21 -233.47 -821.72 -240.24 -821.06 -239.39 -817.16 -238.39 -813.22 -244.02 -812 -242.6 -807.9 -248.44 -806.7 -246.73 -802.51 -254.41 -801.95 -253.29 -798 -247.69 -792.4 -256.25 -792.07 -257.93 -789.17 -251.2 -783.29 -253.41 -780.61 -255.7 -777.94 -252.04 -773.26 -261.46 -772.97 -253.27 -766.83 -260.19 -765.65 -262.51 -762.95 -264.57 -760.16 -265.21 -756.92 -262.26 -752.61 -265.96 -750.3 -267 -747.19 -261.19 -742.14 -261.87 -738.96 -268.08 -737.29 -273.11 -735.25 -273.53 -731.96 -274.16 -728.73 -273.91 -725.28 -277.2 -722.71 -275.03 -718.8 -279.6 -716.5 -280.66 -713.37 -278.24 -709.44 -280.52 -706.58 -281.08 -703.33 -281.02 -699.96 -273.51 -695.07 -283.66 -693.78 -280.81 -689.87 -283.21 -686.99 -283.86 -683.77 -287.68 -681.11 -276.8 -675.87 -282.38 -673.52 -288.65 -671.24 -285.16 -667.34 -284.14 -663.86 -280.21 -659.97 -278.85 -656.49 -280.09 -653.4 -287.57 -651.12 -287.6 -647.81 -281.56 -643.77 -283.94 -640.78 -286.55 -637.8 -289.79 -634.86 -289.97 -631.58 -287.77 -628.07 -287.31 -624.75 -291.95 -621.88 -290.25 -618.44 -285.85 -614.82 -285.13 -611.5 -293.81 -608.83 -295.62 -605.65 -288.19 -601.91 -287.61 -598.62 -297.84 -595.85 -289.22 -592.16 -291.48 -588.99 -291.32 -585.7 -291.46 -582.44 -288.5 -579.09 -290.65 -575.86 -288.76 -572.57 -295.4 -569.37 -287.69 -566.04 -295.36 -562.78"/>
  </g>
  <g class="cls-11">
    <g>
      <path class="cls-4" d="M1605.99,199.67c.69.1,1.39.18,2.09.25-.7-.07-1.4-.15-2.09-.25"/>
      <path class="cls-4" d="M1599.82,198.53c.72.16,1.45.31,2.17.46-.72-.14-1.45-.29-2.17-.46"/>
      <path class="cls-6" d="M1561.89,165.13c-4.32-2.12-7.72-4.47-10.06-6.53-.11-.1-.2-.19-.31-.29,1.26,2.94,2.72,5.76,4.35,8.45,1.96-.5,3.96-1.05,6.02-1.63"/>
      <path class="cls-4" d="M1631.38,198.45c-1.06.26-2.14.48-3.2.68,1.06-.2,2.14-.42,3.2-.68"/>
      <path class="cls-4" d="M1602.89,199.17c.71.13,1.42.24,2.13.35-.71-.11-1.42-.22-2.13-.35"/>
      <path class="cls-4" d="M1590.27,195.58c-.78-.3-1.55-.62-2.32-.95.77.33,1.54.65,2.32.95"/>
      <path class="cls-4" d="M1617.44,200.27c-.69,0-1.37.04-2.05.04.68,0,1.36-.02,2.05-.04"/>
      <path class="cls-4" d="M1618.57,200.24h.26c.58-.03,1.17-.08,1.76-.13-.67.05-1.34.1-2.01.13"/>
      <path class="cls-4" d="M1599,198.33c-.74-.18-1.48-.37-2.21-.57.73.21,1.47.39,2.21.57"/>
      <path class="cls-4" d="M1611.17,200.17c-.69-.04-1.38-.08-2.07-.15.69.06,1.38.11,2.07.15"/>
      <path class="cls-4" d="M1614.29,200.29c-.69,0-1.37-.03-2.05-.06.68.03,1.36.05,2.05.06"/>
      <path class="cls-4" d="M1624.97,199.65c.73-.1,1.46-.23,2.19-.35-.73.12-1.46.25-2.19.35"/>
      <path class="cls-6" d="M1582.07,191.77c3.54-.27,7.11-.81,10.67-1.65,2.1-.49,4.15-1.09,6.16-1.76-7.66-.26-13.26-1.49-17.15-2.86-2.38-.84-4.11-1.76-5.36-2.57-1.73.53-3.44,1.04-5.15,1.55,3.37,2.77,7,5.2,10.83,7.3"/>
      <path class="cls-4" d="M1621.76,200.02c.68-.06,1.36-.15,2.04-.23-.68.08-1.36.17-2.04.23"/>
      <path class="cls-4" d="M1584.68,193.13c-.8-.4-1.6-.81-2.4-1.24.79.42,1.59.84,2.4,1.24"/>
      <path class="cls-4" d="M1593.13,196.63c-.76-.26-1.53-.53-2.28-.82.76.29,1.52.56,2.28.82"/>
      <path class="cls-4" d="M1596.05,197.54c-.75-.22-1.5-.45-2.25-.69.75.25,1.5.47,2.25.69"/>
      <path class="cls-4" d="M1587.44,194.42c-.79-.35-1.58-.72-2.35-1.1.78.38,1.57.75,2.35,1.1"/>
      <path class="cls-6" d="M1585.98,185.18c4.6.84,9.28,1.12,13.95,1.1,9.36-.06,18.66-1.41,27.77-3.51,9.08-2.19,18.02-5.12,26.42-9.23,4.19-2.06,8.26-4.4,12-7.2,1.9-1.37,3.63-2.95,5.27-4.61,1.57-1.73,3.01-3.59,4.01-5.71,0,0-.38.39-1.28,1.57-1.01,1.1-2.6,2.97-5.72,5.33-3.11,2.35-7.66,5.25-14.32,8.34-6.67,3.07-15.46,6.39-26.95,9.13-6.23,1.44-11.81,2.38-16.79,2.97,7.39-4.06,13.87-9.37,19.23-15.6-1.69.47-3.39.92-5.09,1.36-5.07,1.09-10.16,2.08-15.25,2.56-.06,0-.11,0-.18,0-10.94,4.14-21.55,7.79-31.7,10.94.61.28,1.22.54,1.84.78,2.21.75,4.47,1.39,6.78,1.78"/>
      <path class="cls-4" d="M1679.02,115.77s-.09.11-.28.34c.05-.03.1-.06.15-.08.04-.08.09-.17.13-.26"/>
      <path class="cls-3" d="M1563.91,92.95c-1.57-.76-3.07-1.64-4.41-2.64-.93,1.25-1.83,2.55-2.68,3.87,1.71,1.11,3.51,2,5.33,2.73,3.01,1.22,6.1,2.08,9.22,2.61,6.21,1.18,12.49,1.31,18.68.97,6.19-.37,12.33-1.31,18.32-2.73,5.99-1.41,11.86-3.32,17.49-5.75-5.78,2.04-11.72,3.54-17.73,4.53-6.01,1.01-12.09,1.52-18.14,1.47-6.04-.07-12.08-.62-17.82-2.12-2.88-.7-5.67-1.7-8.25-2.95"/>
      <path class="cls-3" d="M1586.3,112.34c-2.87.18-6.48.53-10.99.75-9.02.42-14.04-.28-16.64-1.14-1.3-.43-2.11-.88-2.59-1.22-.48-.34-.74-.46-.74-.46.76,1.68,2.35,2.8,3.99,3.53,1.66.74,3.44,1.21,5.23,1.48,3.59.61,7.25.63,10.88.48,7.27-.36,14.47-1.58,21.54-3.24,0,0-.92-.45-4.09-.47-1.58-.02-3.71.07-6.59.28"/>
      <path class="cls-3" d="M1581.69,74.56c2.5.65,5.03.85,7.51.75,4.95-.22,9.56-1.55,14.11-2.86-4.7.5-9.47.99-14.01.38-2.55-.33-5.05-1.08-7.22-2.2-1.45.78-2.87,1.62-4.27,2.5,1.25.62,2.56,1.09,3.87,1.43"/>
      <path class="cls-6" d="M1686,136.34c-.8.44-1.6.88-2.41,1.33-.03.31-.05.62-.08.93-.39,3.08-.84,6.16-1.63,9.17-2.99,12.08-9.34,23.33-18.18,32.19-4.42,4.43-9.4,8.32-14.87,11.41-1.34.81-2.77,1.47-4.16,2.21l-2.15.97-1.08.48-1.1.43c-2.9,1.24-5.93,2.13-8.97,2.99,12.37-2.61,24-8.78,33.25-17.56,9.19-8.83,15.92-20.23,19.24-32.61,1.08-3.91,1.78-7.91,2.13-11.94"/>
      <path class="cls-6" d="M1589.98,98.03c6.05.05,12.13-.46,18.14-1.47,6.01-1,11.95-2.49,17.73-4.53-5.63,2.43-11.5,4.34-17.49,5.75-5.99,1.42-12.12,2.36-18.32,2.73-6.19.34-12.46.21-18.68-.97-3.12-.54-6.2-1.4-9.22-2.61-1.82-.74-3.62-1.62-5.33-2.74.85-1.32,1.75-2.61,2.68-3.87,1.34,1.01,2.84,1.88,4.41,2.65,2.58,1.25,5.37,2.25,8.25,2.95,5.74,1.5,11.79,2.05,17.82,2.12M1575.43,115.77c-3.63.15-7.29.13-10.88-.48-1.79-.27-3.57-.74-5.23-1.48-1.63-.73-3.23-1.85-3.99-3.53,0,0,.26.12.74.46s1.29.78,2.59,1.22c2.6.86,7.61,1.56,16.64,1.14,4.51-.22,8.12-.57,10.99-.75,2.87-.2,5.01-.29,6.59-.28,3.16.01,4.09.47,4.09.47-7.08,1.66-14.28,2.88-21.54,3.24M1589.3,72.84c4.53.61,9.3.12,14.01-.39-4.54,1.3-9.15,2.64-14.11,2.86-2.47.1-5.01-.1-7.51-.75-1.31-.34-2.62-.81-3.87-1.43,1.39-.88,2.82-1.72,4.27-2.5,2.17,1.13,4.66,1.87,7.22,2.2M1609.72,60.09c-1.6.19-3.2.31-4.78.6-.79.13-1.59.24-2.38.39l-2.35.51c-.79.15-1.56.37-2.32.6l-2.32.66c-1.55.39-3.05.99-4.54,1.55-5.99,2.27-11.67,5.33-16.83,9.11-5.17,3.76-9.75,8.3-13.66,13.32-7.77,10.1-12.79,22.25-14.17,34.82.03-.15.06-.31.08-.46-.12.86-.21,1.71-.3,2.58,4.86,3.16,10.8,4.91,16.73,6.44,6.74,1.69,13.65,2.81,20.61,3.28,6.97.45,13.99.29,20.96-.5,6.96-.84,13.87-2.3,20.59-4.38-6.61,2.42-13.47,4.24-20.44,5.43-6.98,1.15-14.09,1.67-21.2,1.57-7.1-.13-14.22-.92-21.22-2.3-3.5-.74-6.98-1.49-10.44-2.64-1.99-.65-3.98-1.44-5.89-2.41-.2,6.03.36,12.19,1.81,18.35.81,3.45,1.88,6.77,3.16,9.96.52.37,1.06.75,1.67,1.18,3.14,2.07,7.75,4.41,13.56,6.18,8.06-2.38,16.76-5.25,25.86-8.53-2.8.12-5.42.14-7.88.06-9.49-.27-16.43-1.72-21.26-3.34-4.85-1.63-7.53-3.56-9.04-4.68-1.43-1.29-1.83-1.77-1.83-1.77,2.28,1.81,4.92,3.08,7.62,4.14,2.75.92,5.55,1.72,8.42,2.21,5.71,1.05,11.53,1.4,17.34,1.36,4.85-.04,9.72-.36,14.54-.9,6.93-2.61,14.03-5.43,21.22-8.44,8.49-3.54,16.72-7.2,24.55-10.86.14-.91.28-1.82.38-2.73-1.52.72-3.18,1.46-5.03,2.22-5.86,2.42-13.47,4.96-23.3,7.3-9.84,2.29-17.79,3.41-24.12,3.85-6.32.48-11.02.28-14.41-.16s-5.48-1.13-6.66-1.66c-.59-.27-.96-.52-1.18-.66-.22-.14-.31-.21-.31-.21,1.82.72,3.77.96,5.7,1.16,1.94.2,3.88.21,5.83.2,3.89-.05,7.77-.36,11.63-.81,7.73-.89,15.39-2.33,22.96-4.09,7.56-1.79,15.06-3.92,22.37-6.56,3.66-1.32,7.27-2.77,10.77-4.47,1.75-.86,3.48-1.74,5.13-2.78,1.64-1.03,3.28-2.12,4.59-3.57,0,0-.11.05-.34.19-.23.13-.57.37-1.11.68-1.08.62-2.89,1.59-5.89,2.88-1.69.72-3.76,1.55-6.27,2.48.29-4.94.05-9.98-.77-15.05-.7.37-1.42.74-2.17,1.1-6.12,2.98-11.22,4.7-15.28,5.84-4.06,1.16-7.12,1.69-9.35,1.99-2.24.29-3.67.32-4.53.29s-1.17-.11-1.17-.11c5.03-1.19,10.03-2.6,14.91-4.31,4.88-1.69,9.69-3.64,14.34-5.91,4.64-2.27,9.16-4.85,13.29-7.97,2.09-1.53,4.04-3.25,5.82-5.12,1.77-1.88,3.38-3.95,4.45-6.32,0,0-.27.19-.85.81-.28.31-.64.72-1.18,1.22-.25.26-.52.54-.83.86-.32.3-.68.63-1.08,1-2.84,2.58-7.87,6.66-17.34,11.62-.75-3.16-1.71-6.21-2.85-9.16-2.96,1.24-5.14,1.56-6.55,1.6-1.94.03-2.58-.46-2.58-.46,7.86-2.81,15.22-7,21.66-12.32,0,0-.78-.22-2.58.34-1.81.53-4.58,1.86-9.05,4.43-1.09.61-2.05,1.17-2.92,1.68-3.24-6.84-7.51-12.99-12.6-18.29-1.55,1.42-3.61,2.96-6.34,4.52-3.92,2.21-9.18,4.46-16.13,6.11-6.95,1.61-12.66,1.94-17.16,1.71-4.5-.25-7.78-1.1-10.05-2.03-2.28-.93-3.48-2-4.13-2.63-.61-.71-.73-1-.73-1,1.06.84,2.28,1.43,3.53,1.93,1.28.43,2.58.8,3.91,1.02,2.66.49,5.36.65,8.06.63,5.4-.03,10.76-.82,16.01-2.02,5.24-1.26,10.39-2.95,15.24-5.33,2.42-1.19,4.76-2.54,6.92-4.15,1.1-.79,2.09-1.71,3.04-2.66.9-1,1.73-2.07,2.31-3.3-.1-.08-.77,1.08-4.39,3.59-.66.44-1.43.91-2.31,1.42-3.91-3.74-8.25-6.99-12.89-9.71,5.49-.23,11,.13,16.38,1.23,12.17,2.39,23.66,8.12,32.82,16.47,9.21,8.28,16.11,19.11,19.67,30.99.32,1.1.63,2.21.91,3.33.77-.45,1.51-.9,2.25-1.35-.22-.9-.47-1.81-.73-2.7-3.62-12.35-10.77-23.62-20.31-32.24-9.54-8.63-21.49-14.58-34.13-16.96-5.56-1.09-11.24-1.41-16.88-1.12l-.05-1.06h0l.05,1.06c-.77.04-1.53.09-2.29.15"/>
      <path class="cls-6" d="M1542.14,141.31c-2.95,1.76-5.88,3.54-8.77,5.39-4.61,2.94-9.1,6.03-13.43,9.33-4.31,3.3-8.5,6.78-12.16,10.61-.91.96-1.8,1.93-2.53,3-.74,1.06-1.34,2.19-1.79,3.31-.43,1.12-.71,2.22-.8,3.11,0,.43-.02.81.03,1.08s.11.44.17.59.15.31.29.55c.14.23.4.53.7.86.66.63,1.64,1.3,2.77,1.77s2.39.71,3.68.81c1.28.13,2.59.17,3.91.19,5.29.02,10.69-.56,16.04-1.37,5.36-.82,10.71-1.88,16.03-3.11,5.31-1.26,10.6-2.66,15.86-4.18,10.52-3.02,20.91-6.49,31.2-10.25,10.29-3.77,20.49-7.78,30.58-12.04,20.15-8.61,40.05-17.86,59.16-28.51,9.51-5.38,18.89-11.04,27.58-17.53,4.34-3.23,8.52-6.69,12.18-10.47.91-.95,1.8-1.91,2.53-2.96.74-1.04,1.34-2.17,1.78-3.26.43-1.1.71-2.17.8-3.01.02-.41.04-.76,0-1-.03-.24-.07-.38-.11-.52-.04-.13-.09-.28-.19-.54-.12-.24-.35-.56-.63-.92-.62-.7-1.59-1.46-2.71-1.99-1.13-.53-2.4-.79-3.69-.9-1.29-.13-2.61-.2-3.94-.22-5.32-.07-10.73.47-16.12,1.24-5.38.78-10.75,1.79-16.09,2.99-3.37.78-6.73,1.61-10.08,2.49.47.62.93,1.24,1.37,1.88,5.25-1.33,10.54-2.53,15.87-3.5,4.86-.87,9.77-1.58,14.75-1.79,2.49-.08,5-.07,7.51.33,1.25.2,2.52.5,3.75,1.06,1.2.53,2.45,1.46,3.04,2.86.57,1.42.35,2.94-.12,4.17-.46,1.26-1.15,2.37-1.89,3.4-1.49,2.06-3.26,3.84-5.07,5.54-3.66,3.37-7.62,6.35-11.67,9.18-8.11,5.64-16.61,10.63-25.23,15.4-17.27,9.48-35.16,17.77-53.29,25.42-18.15,7.6-36.63,14.48-55.51,20.14-9.44,2.8-18.98,5.33-28.69,7.14-4.86.89-9.76,1.61-14.74,1.85-2.48.09-5,.09-7.52-.3-1.26-.2-2.53-.5-3.76-1.05-1.22-.53-2.46-1.45-3.08-2.87-.58-1.43-.36-2.98.11-4.21.47-1.27,1.15-2.38,1.89-3.42,1.49-2.08,3.25-3.87,5.06-5.58,3.66-3.39,7.61-6.39,11.65-9.23,4.44-3.11,9-6.02,13.63-8.82-.1-.53-.17-1.06-.26-1.6-.02-.17-.05-.34-.07-.52"/>
      <path class="cls-6" d="M1621.96,146.27c-25.09,10.49-49.33,18.84-68.24,23.52-7.02,1.73-12.95,2.89-17.78,3.45-8.96,1.05-14.11.07-15.36-2.93-1.9-4.53,5.76-12.16,22.75-22.65-.08-.35-.16-.7-.23-1.05-.1-.42-.2-.85-.29-1.28-4.41,2.66-8.75,5.42-12.96,8.36-4,2.81-7.92,5.75-11.48,9.04-1.77,1.65-3.47,3.39-4.86,5.31-.69.95-1.3,1.97-1.68,3.01-.41,1.04-.5,2.11-.15,2.99.37.87,1.2,1.56,2.22,2.01,1.01.46,2.16.75,3.32.93,2.34.37,4.78.38,7.2.3,4.85-.21,9.71-.91,14.52-1.77,9.64-1.76,19.15-4.24,28.56-7,18.83-5.57,37.29-12.37,55.44-19.9,9.07-3.77,18.05-7.75,26.92-11.98s17.64-8.67,26.23-13.42,17.03-9.79,25.06-15.41c3.99-2.83,7.9-5.79,11.46-9.11,1.76-1.66,3.46-3.41,4.85-5.34.69-.96,1.29-1.98,1.67-3.03.4-1.05.5-2.13.14-3.03-.39-.88-1.23-1.57-2.26-2.02-1.02-.46-2.17-.74-3.34-.92-2.35-.36-4.78-.36-7.2-.27-4.85.23-9.7.95-14.51,1.83-5.07.95-10.09,2.1-15.09,3.38.45.66.89,1.33,1.32,2.02,19.41-4.71,30.22-4.81,32.12-.28,1.93,4.61-6.03,12.43-23.66,23.21-16.61,10.17-39.58,21.55-64.68,32.04"/>
      <path class="cls-6" d="M1683.64,79.7c5.39-1.27,10.81-2.43,16.32-3.33,5.5-.89,11.06-1.57,16.76-1.6,1.43,0,2.86.04,4.31.16,1.45.14,2.91.27,4.46.37,1.55.11,3.23.22,5.01.87.89.36,1.81.82,2.66,1.56s1.6,1.72,2.11,2.86c.48,1.14.7,2.37.7,3.51-.02,1.14-.25,2.15-.54,3.09-.65,1.82-1.6,3.23-2.59,4.49-1,1.25-2.04,2.34-3.05,3.43-1.01,1.08-1.99,2.15-2.99,3.18-4.05,4.09-8.46,7.57-12.93,10.92-9,6.62-18.4,12.55-28.02,18.09-9.59,5.55-19.38,10.74-29.34,15.56-4.98,2.42-9.99,4.76-15.03,7.05-5.05,2.26-10.14,4.42-15.25,6.54-20.43,8.47-41.34,15.8-62.69,21.73-5.34,1.48-10.72,2.83-16.14,4.05-5.41,1.22-10.86,2.35-16.38,3.2-5.52.85-11.1,1.49-16.83,1.47-1.44,0-2.87-.05-4.33-.19l-4.48-.46c-1.55-.17-3.2-.37-4.94-1.09-.87-.39-1.76-.87-2.58-1.63-.82-.75-1.53-1.73-2.01-2.84-.46-1.12-.65-2.32-.63-3.43.03-1.12.26-2.1.57-3.01.65-1.77,1.6-3.16,2.59-4.39,1-1.23,2.03-2.31,3.04-3.38s1.99-2.12,3-3.14c4.05-4.04,8.45-7.51,12.95-10.79,7.85-5.64,15.99-10.79,24.3-15.6-.06-.68-.11-1.36-.15-2.04v-.15c-.72.41-1.44.81-2.15,1.22-10.41,6.11-20.6,12.63-30.09,20.04-4.72,3.72-9.29,7.66-13.28,12.11-1.97,2.23-3.82,4.59-5.17,7.17-.67,1.29-1.21,2.63-1.46,4.01-.27,1.37-.2,2.75.3,3.97.52,1.22,1.44,2.25,2.61,3.02,1.15.79,2.49,1.36,3.88,1.79,2.79.86,5.76,1.2,8.74,1.38,5.97.3,11.99-.17,17.96-.89,11.95-1.52,23.77-4.15,35.43-7.24,23.34-6.24,46.17-14.38,68.49-23.64,11.16-4.64,22.18-9.62,33.03-14.94,10.85-5.33,21.54-10.99,31.95-17.11,10.4-6.13,20.57-12.7,30.05-20.14,4.71-3.74,9.28-7.71,13.26-12.17,1.96-2.25,3.81-4.61,5.16-7.21.67-1.29,1.22-2.65,1.46-4.03.27-1.38.18-2.77-.32-4.01-.53-1.22-1.47-2.26-2.64-3.03-1.15-.79-2.5-1.34-3.89-1.77-2.8-.85-5.77-1.19-8.74-1.35-5.97-.28-11.98.21-17.95.96-11.95,1.55-23.74,4.24-35.4,7.35-.81.22-1.62.46-2.43.68.53.58,1.05,1.18,1.57,1.78,3.91-1.06,7.84-2.05,11.8-2.97"/>
      <path class="cls-6" d="M1701.54,69.52c-10.63,1.76-22.3,4.42-34.68,7.87.67.64,1.31,1.29,1.95,1.95,1.14-.32,2.26-.65,3.4-.95,11.73-3.09,23.6-5.74,35.67-7.26,6.04-.73,12.13-1.21,18.25-.9,3.06.19,6.14.53,9.14,1.46,1.5.46,2.98,1.08,4.32,2,.68.44,1.3,1.01,1.86,1.62.55.63,1,1.36,1.34,2.13.31.79.51,1.62.57,2.45.04.83,0,1.67-.16,2.46-.3,1.6-.9,3.08-1.63,4.47-1.46,2.78-3.38,5.21-5.41,7.5-4.1,4.56-8.73,8.54-13.5,12.3-9.59,7.48-19.84,14.01-30.28,20.15-20.94,12.23-42.85,22.68-65.16,32.1-22.35,9.35-45.19,17.57-68.6,23.9-11.71,3.13-23.56,5.82-35.62,7.38-6.04.75-12.12,1.24-18.25.96-3.06-.17-6.14-.51-9.14-1.43-1.5-.46-2.98-1.07-4.34-1.99-.69-.43-1.3-1-1.87-1.62-.55-.63-1.01-1.36-1.36-2.14-.31-.79-.51-1.63-.58-2.47-.04-.83,0-1.67.16-2.47.29-1.61.89-3.1,1.62-4.49,1.45-2.79,3.37-5.23,5.39-7.54,4.09-4.58,8.71-8.57,13.47-12.36,9.57-7.51,19.8-14.09,30.24-20.26,1-.59,2.02-1.16,3.03-1.73-.03-.89-.03-1.78-.02-2.67-39.58,22.73-64.37,45.12-59.57,56.6,6.96,16.65,74.05,5.14,146.49-25.15,72.45-30.28,127.77-69.94,120.82-86.59-3.27-7.81-20.61-9.74-47.56-5.29"/>
      <path class="cls-2" d="M1628.28,161.39c-72.44,30.28-139.53,41.8-146.49,25.15-4.8-11.48,19.99-33.87,59.57-56.6,0,.89,0,1.77.01,2.67-1,.58-2.03,1.15-3.03,1.73-10.44,6.17-20.67,12.75-30.24,20.26-4.76,3.78-9.39,7.78-13.47,12.36-2.02,2.31-3.94,4.75-5.4,7.54-.72,1.39-1.33,2.88-1.62,4.49-.17.8-.2,1.64-.16,2.47.06.84.27,1.68.57,2.47.35.78.81,1.51,1.36,2.14.57.62,1.19,1.18,1.87,1.62,1.35.92,2.84,1.53,4.34,1.99,3,.92,6.09,1.25,9.14,1.43,6.13.29,12.22-.21,18.26-.96,12.06-1.56,23.91-4.26,35.62-7.38,23.41-6.33,46.26-14.56,68.6-23.9,22.31-9.42,44.22-19.86,65.16-32.1,10.44-6.15,20.69-12.67,30.28-20.15,4.77-3.76,9.4-7.74,13.49-12.3,2.02-2.29,3.95-4.72,5.41-7.5.73-1.38,1.33-2.87,1.63-4.47.17-.79.2-1.63.16-2.46-.06-.83-.26-1.67-.57-2.45-.34-.78-.79-1.5-1.34-2.13-.56-.61-1.18-1.18-1.86-1.62-1.34-.92-2.82-1.54-4.32-2-3-.92-6.08-1.27-9.14-1.46-6.12-.31-12.22.17-18.25.9-12.07,1.52-23.94,4.18-35.67,7.27-1.13.3-2.26.63-3.39.95-.64-.67-1.29-1.31-1.95-1.95,12.37-3.45,24.05-6.11,34.68-7.87,26.95-4.45,44.29-2.53,47.56,5.29,6.95,16.65-48.37,56.3-120.82,86.59M1576.39,182.92c1.25.81,2.97,1.73,5.36,2.57,3.88,1.37,9.48,2.6,17.15,2.86-2.01.67-4.06,1.27-6.16,1.76-3.56.84-7.13,1.38-10.67,1.65-3.82-2.09-7.45-4.53-10.82-7.3,1.7-.5,3.42-1.02,5.15-1.55M1623.8,199.79c-.68.08-1.36.17-2.04.23.68-.06,1.36-.15,2.04-.23M1627.16,199.3c-.73.12-1.46.25-2.19.35.73-.1,1.46-.23,2.19-.35M1618.57,200.24c.67-.03,1.34-.09,2.01-.13-.58.04-1.17.1-1.75.13h-.26M1615.39,200.31c.68,0,1.36-.02,2.05-.04-.69.02-1.37.04-2.05.04M1612.24,200.23c.68.03,1.36.05,2.05.06-.69,0-1.37-.03-2.05-.06M1609.1,200.02c.69.06,1.38.11,2.07.15-.69-.04-1.38-.09-2.07-.15M1596.8,197.75c.73.21,1.47.4,2.21.58-.74-.18-1.48-.37-2.21-.58M1593.8,196.85c.75.25,1.5.47,2.25.69-.75-.22-1.5-.45-2.25-.69M1590.85,195.81c.76.29,1.52.56,2.28.82-.76-.26-1.53-.53-2.28-.82M1587.95,194.63c.77.33,1.54.65,2.32.95-.78-.3-1.56-.62-2.32-.95M1585.09,193.32c.78.38,1.57.75,2.35,1.1-.79-.35-1.58-.72-2.35-1.1M1582.28,191.89c.79.42,1.59.84,2.4,1.24-.81-.4-1.6-.81-2.4-1.24M1605.02,199.52c-.71-.11-1.42-.22-2.13-.35.71.13,1.42.24,2.13.35M1608.07,199.92c-.7-.07-1.39-.15-2.08-.25.69.1,1.39.18,2.08.25M1601.99,198.99c-.72-.14-1.45-.29-2.17-.46.73.16,1.45.31,2.17.46M1664.63,180.9c-9.25,8.78-20.88,14.95-33.25,17.56-1.06.26-2.14.48-3.2.68,1.06-.2,2.14-.42,3.2-.68,3.04-.85,6.07-1.75,8.97-2.99l1.1-.43,1.07-.48,2.15-.97c1.39-.74,2.82-1.39,4.16-2.21,5.47-3.09,10.45-6.98,14.87-11.41,8.84-8.86,15.19-20.11,18.18-32.19.79-3.01,1.24-6.09,1.63-9.17.03-.31.05-.62.08-.93.81-.45,1.61-.89,2.41-1.33-.35,4.03-1.05,8.04-2.13,11.94-3.32,12.38-10.05,23.78-19.24,32.61M1609.06,171.68c.06,0,.12,0,.17-.02,5.09-.47,10.18-1.47,15.25-2.56,1.7-.43,3.4-.89,5.09-1.36-5.35,6.23-11.83,11.54-19.23,15.6,4.98-.59,10.56-1.53,16.79-2.97,11.49-2.74,20.28-6.06,26.95-9.13,6.66-3.1,11.21-6,14.33-8.34,3.12-2.36,4.7-4.23,5.71-5.33.89-1.18,1.28-1.57,1.28-1.57-1,2.12-2.45,3.99-4.01,5.71-1.64,1.66-3.37,3.24-5.27,4.61-3.74,2.81-7.81,5.14-12.01,7.2-8.4,4.12-17.34,7.05-26.42,9.23-9.11,2.09-18.41,3.45-27.77,3.51-4.67.03-9.36-.25-13.95-1.1-2.31-.39-4.57-1.03-6.78-1.78-.62-.25-1.23-.51-1.84-.78,10.14-3.15,20.76-6.8,31.7-10.94M1541.7,137.76c.06.63.13,1.26.2,1.91-.01-.13-.04-.26-.05-.39-.06-.5-.11-1.01-.15-1.52M1528.84,152.24c-4.04,2.85-7.99,5.84-11.64,9.23-1.81,1.71-3.57,3.5-5.06,5.58-.74,1.04-1.42,2.15-1.88,3.42-.47,1.23-.69,2.78-.11,4.21.61,1.41,1.86,2.34,3.08,2.87,1.23.55,2.5.85,3.76,1.05,2.52.39,5.03.39,7.52.3,4.98-.23,9.88-.96,14.74-1.85,9.71-1.81,19.25-4.34,28.7-7.14,18.87-5.66,37.35-12.54,55.51-20.14,18.14-7.66,36.02-15.94,53.29-25.42,8.62-4.76,17.13-9.76,25.24-15.4,4.05-2.83,8-5.8,11.67-9.17,1.81-1.7,3.58-3.49,5.07-5.55.74-1.03,1.43-2.14,1.89-3.4.47-1.22.7-2.75.12-4.17-.6-1.4-1.84-2.33-3.04-2.86-1.22-.55-2.49-.85-3.75-1.06-2.52-.4-5.02-.41-7.51-.33-4.98.21-9.89.92-14.75,1.79-5.33.97-10.62,2.17-15.87,3.5-.45-.63-.9-1.26-1.37-1.88,3.35-.88,6.7-1.71,10.08-2.49,5.33-1.19,10.71-2.2,16.09-2.99,5.38-.77,10.8-1.31,16.11-1.24,1.32.02,2.65.09,3.94.22,1.29.11,2.56.37,3.69.9,1.12.52,2.09,1.29,2.71,1.99.28.36.51.68.63.92.1.25.15.4.19.54.03.14.07.28.1.52.04.24.02.59,0,.99-.08.84-.36,1.92-.8,3.01-.44,1.1-1.04,2.22-1.78,3.26-.74,1.05-1.63,2.01-2.53,2.96-3.67,3.78-7.84,7.24-12.18,10.47-8.69,6.49-18.07,12.15-27.58,17.53-19.11,10.65-39.01,19.91-59.16,28.51-10.1,4.26-20.3,8.27-30.58,12.04-10.29,3.76-20.69,7.23-31.2,10.25-5.26,1.52-10.54,2.92-15.85,4.18-5.32,1.23-10.67,2.29-16.03,3.11-5.36.81-10.76,1.4-16.05,1.37-1.32,0-2.63-.06-3.91-.19-1.28-.1-2.55-.34-3.68-.81-1.12-.46-2.11-1.14-2.77-1.77-.31-.32-.56-.63-.7-.85-.14-.25-.22-.41-.29-.55-.06-.15-.12-.33-.17-.6s-.04-.64-.03-1.08c.08-.88.36-1.99.8-3.11.45-1.12,1.05-2.26,1.79-3.31.73-1.06,1.63-2.04,2.53-3,3.66-3.83,7.85-7.31,12.16-10.6,4.32-3.3,8.82-6.4,13.43-9.34,2.89-1.85,5.82-3.63,8.77-5.39v-.06c.03.19.06.38.08.57.09.53.16,1.07.26,1.6-4.63,2.79-9.19,5.71-13.63,8.82M1551.83,158.6c2.34,2.06,5.75,4.41,10.06,6.53-2.06.58-4.07,1.12-6.03,1.63-1.62-2.69-3.08-5.51-4.35-8.45.11.1.2.19.31.29M1551.37,167.88c-19.54,4.67-27.61,3.76-28.56,1.51-.95-2.27,4.09-8.65,21.15-19.28-.04-.14-.07-.27-.11-.41,1.72,6.49,4.27,12.58,7.52,18.18M1686.64,114.23c17.63-10.79,25.59-18.6,23.66-23.21-1.89-4.53-12.7-4.44-32.12.28-.43-.68-.88-1.35-1.32-2.02,5-1.28,10.03-2.43,15.09-3.38,4.81-.88,9.66-1.6,14.51-1.83,2.42-.09,4.85-.09,7.2.27,1.17.18,2.31.46,3.34.92,1.03.45,1.87,1.14,2.26,2.02.36.89.27,1.98-.14,3.03-.38,1.05-.98,2.07-1.67,3.03-1.38,1.93-3.09,3.68-4.85,5.34-3.56,3.32-7.47,6.28-11.46,9.11-8.03,5.62-16.47,10.66-25.06,15.41-8.59,4.75-17.36,9.19-26.22,13.42-8.87,4.23-17.85,8.22-26.92,11.99-18.15,7.53-36.61,14.32-55.44,19.9-9.41,2.76-18.92,5.24-28.56,7-4.81.86-9.66,1.57-14.52,1.77-2.42.08-4.85.07-7.19-.3-1.16-.19-2.31-.47-3.32-.93-1.02-.45-1.85-1.14-2.22-2.01-.35-.87-.26-1.95.15-2.98.38-1.04.99-2.05,1.68-3.01,1.38-1.92,3.09-3.66,4.85-5.31,3.57-3.29,7.48-6.24,11.48-9.04,4.21-2.94,8.56-5.7,12.96-8.36-.04-.23-.08-.48-.13-.72.13.67.27,1.33.42,2,.07.35.15.7.23,1.05-16.99,10.49-24.64,18.11-22.75,22.65,1.25,3,6.4,3.98,15.36,2.93,4.83-.56,10.75-1.72,17.78-3.45,18.91-4.68,43.14-13.03,68.24-23.52s48.07-21.87,64.68-32.04M1679.02,115.77c-.04.09-.09.17-.13.26-.05.02-.1.06-.15.08.19-.23.28-.34.28-.34M1679.52,93.45c19.54-4.67,27.62-3.76,28.56-1.5.94,2.26-4.09,8.64-21.15,19.28-1.72-6.34-4.23-12.29-7.41-17.78M1672.7,80.21c11.66-3.12,23.45-5.8,35.4-7.35,5.97-.75,11.99-1.24,17.95-.96,2.97.16,5.95.5,8.74,1.35,1.39.42,2.74.98,3.89,1.77,1.17.77,2.11,1.8,2.64,3.03.5,1.23.58,2.63.32,4.01-.25,1.38-.79,2.74-1.46,4.03-1.35,2.6-3.2,4.96-5.16,7.21-3.98,4.46-8.55,8.42-13.26,12.17-9.48,7.45-19.65,14.01-30.05,20.14-10.41,6.12-21.1,11.78-31.95,17.11s-21.87,10.3-33.03,14.94c-22.32,9.27-45.15,17.41-68.49,23.64-11.66,3.09-23.48,5.73-35.43,7.24-5.97.72-11.99,1.2-17.96.89-2.97-.18-5.95-.52-8.74-1.38-1.39-.43-2.73-.99-3.88-1.79-1.17-.77-2.09-1.8-2.61-3.02-.5-1.22-.57-2.6-.3-3.97.25-1.37.79-2.72,1.46-4.01,1.35-2.58,3.2-4.94,5.17-7.17,3.99-4.45,8.56-8.38,13.28-12.11,9.49-7.41,19.68-13.93,30.09-20.04.71-.41,1.44-.81,2.16-1.22-.01-.08-.01-.16-.01-.24,0,.13.01.26.02.39.04.68.09,1.36.15,2.04-8.31,4.81-16.44,9.96-24.3,15.6-4.51,3.28-8.91,6.75-12.95,10.79-1.01,1.01-1.99,2.07-3,3.14-1.01,1.07-2.04,2.15-3.04,3.38-.99,1.23-1.94,2.61-2.59,4.38-.31.91-.54,1.9-.57,3.01-.02,1.11.17,2.3.63,3.43.48,1.11,1.19,2.1,2.01,2.84.82.76,1.71,1.23,2.58,1.63,1.74.71,3.39.92,4.94,1.09l4.48.46c1.46.14,2.89.19,4.33.19,5.73.02,11.31-.62,16.83-1.47,5.52-.85,10.97-1.97,16.38-3.2,5.42-1.22,10.79-2.58,16.14-4.05,21.35-5.93,42.26-13.26,62.69-21.73,5.11-2.12,10.2-4.28,15.25-6.54,5.04-2.28,10.05-4.62,15.03-7.05,9.96-4.82,19.75-10.02,29.34-15.56,9.61-5.53,19.01-11.46,28.02-18.09,4.48-3.35,8.89-6.83,12.93-10.92,1.01-1.03,1.99-2.1,3-3.18,1.01-1.09,2.05-2.18,3.05-3.43.99-1.26,1.94-2.67,2.59-4.49.3-.94.53-1.95.54-3.09,0-1.14-.21-2.36-.7-3.51-.51-1.13-1.25-2.12-2.11-2.86-.85-.75-1.76-1.21-2.66-1.56-1.79-.65-3.46-.76-5.01-.87-1.55-.1-3.01-.23-4.46-.37-1.45-.12-2.88-.17-4.31-.16-5.7.03-11.26.71-16.76,1.6s-10.93,2.06-16.31,3.33c-3.96.92-7.89,1.92-11.8,2.97-.52-.6-1.03-1.19-1.56-1.78.81-.22,1.62-.46,2.43-.68M1701.14,67.09c-11.1,1.83-23.34,4.66-36.29,8.31-14.11-12.62-32.95-19.75-52.99-18.76l.12,2.23.05,1.06c5.64-.29,11.33.04,16.88,1.12,12.64,2.39,24.59,8.33,34.13,16.96,9.54,8.63,16.69,19.9,20.31,32.24.26.89.5,1.8.73,2.7-.74.45-1.48.9-2.25,1.35-.28-1.12-.58-2.22-.91-3.32-3.56-11.88-10.46-22.71-19.67-30.99-9.15-8.35-20.65-14.08-32.82-16.47-5.37-1.11-10.89-1.47-16.38-1.23,4.65,2.73,8.98,5.98,12.9,9.71.88-.5,1.65-.98,2.3-1.42,3.62-2.51,4.29-3.67,4.39-3.59-.58,1.22-1.41,2.3-2.31,3.3-.95.95-1.95,1.87-3.04,2.66-2.16,1.61-4.5,2.96-6.92,4.15-4.85,2.38-10,4.07-15.24,5.33-5.25,1.2-10.62,1.99-16.01,2.02-2.7.01-5.4-.14-8.06-.63-1.33-.22-2.63-.59-3.91-1.02-1.25-.5-2.47-1.09-3.53-1.93,0,0,.13.28.74,1,.64.64,1.85,1.7,4.13,2.63,2.27.93,5.55,1.78,10.05,2.03,4.49.23,10.21-.09,17.16-1.71,6.95-1.66,12.21-3.91,16.12-6.11,2.73-1.56,4.79-3.1,6.34-4.52,5.08,5.3,9.36,11.45,12.6,18.29.87-.51,1.83-1.07,2.91-1.68,4.47-2.58,7.23-3.9,9.05-4.43,1.8-.55,2.58-.34,2.58-.34-6.43,5.32-13.8,9.51-21.66,12.32,0,0,.64.49,2.58.46,1.41-.04,3.58-.36,6.54-1.6,1.14,2.95,2.11,6,2.85,9.16,9.47-4.96,14.5-9.04,17.34-11.62.4-.36.76-.7,1.08-.99.31-.32.59-.6.83-.86.53-.5.89-.91,1.18-1.22.58-.62.85-.8.85-.8-1.06,2.37-2.68,4.44-4.45,6.32-1.78,1.87-3.73,3.59-5.81,5.12-4.13,3.13-8.65,5.7-13.29,7.97-4.65,2.27-9.46,4.22-14.34,5.91-4.88,1.71-9.88,3.12-14.91,4.31,0,0,.31.08,1.17.11.87.03,2.29,0,4.53-.29,2.23-.3,5.29-.83,9.35-1.99,4.06-1.14,9.16-2.86,15.28-5.84.75-.37,1.47-.74,2.17-1.1.82,5.06,1.05,10.1.77,15.05,2.51-.93,4.59-1.76,6.28-2.48,3-1.3,4.81-2.26,5.89-2.88.54-.31.88-.55,1.11-.68.23-.14.34-.19.34-.19-1.31,1.45-2.95,2.54-4.59,3.57-1.65,1.04-3.38,1.92-5.13,2.78-3.5,1.69-7.11,3.14-10.77,4.47-7.31,2.64-14.81,4.77-22.37,6.56-7.58,1.77-15.23,3.2-22.96,4.09-3.86.45-7.74.76-11.63.81-1.95,0-3.89,0-5.83-.2-1.93-.19-3.88-.43-5.7-1.15,0,0,.09.07.31.21.22.14.59.4,1.18.66,1.18.54,3.26,1.23,6.66,1.66,3.39.44,8.1.64,14.41.16,6.33-.45,14.28-1.56,24.12-3.85,9.83-2.34,17.45-4.88,23.3-7.3,1.86-.76,3.52-1.49,5.03-2.22-.11.91-.24,1.82-.38,2.73-7.83,3.67-16.06,7.32-24.55,10.86-7.19,3.01-14.28,5.82-21.22,8.44-4.83.54-9.69.86-14.54.9-5.81.03-11.62-.31-17.34-1.36-2.86-.48-5.66-1.28-8.41-2.21-2.7-1.07-5.34-2.33-7.62-4.14,0,0,.4.47,1.82,1.77,1.51,1.13,4.18,3.05,9.04,4.68,4.83,1.63,11.77,3.07,21.27,3.34,2.46.09,5.08.06,7.88-.06-9.1,3.28-17.8,6.15-25.87,8.53-5.8-1.78-10.42-4.11-13.56-6.18-.61-.42-1.15-.81-1.66-1.18-1.28-3.19-2.35-6.51-3.16-9.96-1.45-6.16-2.01-12.32-1.81-18.35,1.92.96,3.9,1.75,5.89,2.41,3.47,1.16,6.94,1.9,10.44,2.64,7.01,1.38,14.12,2.17,21.22,2.3,7.11.1,14.22-.42,21.2-1.57,6.98-1.2,13.83-3.01,20.45-5.43-6.73,2.08-13.64,3.54-20.6,4.39-6.97.79-13.99.95-20.96.5-6.96-.48-13.87-1.6-20.61-3.28-5.92-1.53-11.87-3.29-16.72-6.45.08-.86.18-1.72.3-2.58-.02.15-.05.31-.08.46,1.38-12.57,6.4-24.72,14.17-34.82,3.92-5.02,8.49-9.56,13.66-13.32,5.16-3.77,10.84-6.84,16.83-9.11,1.5-.56,2.99-1.16,4.54-1.55l2.32-.66c.77-.23,1.53-.45,2.32-.6l2.35-.51c.79-.15,1.59-.26,2.37-.4,1.58-.29,3.18-.41,4.78-.6.76-.06,1.53-.11,2.29-.15l-.05-1.06-.11-2.23c-4.48.22-8.97.86-13.37,1.89-32.87,7.73-55.46,36.38-57.03,68.55v-.16c-42.18,23.93-67.39,47.48-61.92,60.56,3.45,8.26,18.47,10.74,40.82,8.13,13.03-1.52,28.56-4.78,45.75-9.64,14.1,12.6,32.92,19.72,52.94,18.73,4.48-.22,8.97-.86,13.36-1.89,32.83-7.72,55.39-36.29,57.03-68.39,42.18-23.93,67.39-47.48,61.92-60.56-3.79-9.08-21.63-11.48-50.22-6.76"/>
    </g>
  </g>
  <g class="cls-7">
    <g>
      <path class="cls-9" d="M123.83,215.4c.46.07.87.3,1.2.63h0c.33.33.55.74.63,1.2.22,1.31.46,3.3.67,6.29.21-3,.45-4.98.67-6.29.07-.46.3-.88.62-1.2h0c.33-.33.75-.55,1.2-.63,1.31-.22,3.3-.46,6.3-.67-3-.21-4.98-.45-6.3-.67-.45-.08-.87-.29-1.2-.62h0c-.33-.33-.55-.75-.62-1.21-.22-1.31-.46-3.3-.67-6.3-.21,3-.46,4.98-.67,6.3-.08.46-.3.88-.63,1.2h0c-.33.34-.74.56-1.2.63-1.31.22-3.3.46-6.29.67,3,.21,4.98.45,6.29.67"/>
      <path class="cls-9" d="M355.72,259.94c.6.1,1.14.39,1.56.82h.01c.42.42.71.97.81,1.56.28,1.71.6,4.28.87,8.18.28-3.89.59-6.47.87-8.18.1-.59.38-1.14.81-1.56h.01c.42-.43.97-.71,1.56-.82,1.71-.28,4.28-.6,8.18-.87-3.89-.27-6.47-.59-8.18-.87-.59-.1-1.14-.39-1.56-.82h-.01c-.43-.43-.71-.97-.81-1.56-.28-1.71-.59-4.28-.87-8.18-.28,3.9-.59,6.48-.87,8.18-.1.59-.39,1.14-.81,1.56h-.01c-.42.43-.97.71-1.56.82-1.7.28-4.28.6-8.18.87,3.9.28,6.48.59,8.18.87"/>
      <path class="cls-9" d="M284.8,188.59c.6.1,1.14.38,1.57.81h0c.43.43.71.98.82,1.57.28,1.71.59,4.28.87,8.18.28-3.9.59-6.48.87-8.18.1-.59.38-1.14.81-1.56h.01c.43-.44.97-.72,1.56-.82,1.71-.28,4.28-.59,8.18-.87-3.89-.28-6.47-.59-8.18-.87-.6-.1-1.14-.39-1.56-.81h-.01c-.43-.44-.71-.98-.81-1.57-.29-1.7-.6-4.28-.87-8.18-.28,3.9-.59,6.48-.87,8.18-.1.6-.39,1.14-.82,1.56h0c-.43.44-.97.72-1.57.82-1.7.28-4.28.6-8.18.87,3.9.28,6.48.59,8.18.87"/>
    </g>
  </g>
</svg>