<?xml version="1.0" encoding="UTF-8"?>
<svg id="Layer_1" xmlns="http://www.w3.org/2000/svg" version="1.1" viewBox="0 0 441.4 167">
  <!-- Generator: Adobe Illustrator 30.6.0, SVG Export Plug-In . SVG Version: 2.1.4 Build 109)  -->
  <defs>
    <style>
      .st0 {
        fill: #c34834;
      }

      .st1 {
        fill: #ed5841;
      }

      .st2 {
        fill: #fdfeff;
      }

      .st3 {
        fill: #fff;
      }

      .st4 {
        fill: #85271a;
      }

      .st5 {
        fill: #bfe6f2;
      }

      .st6 {
        fill: #f6947b;
      }

      .st7 {
        fill: #163547;
      }

      .st8 {
        fill: #f1624a;
      }
    </style>
  </defs>
  <path class="st3" d="M79.1,54.1c20.6,7.2,31.9-6.7,46.6-4.7,18.6,2.6,13.4,12.7,22.6,17.8s19.2,4,24.6-3.2c10.5-14,25-16.5,39.2-12.3,36.6,11,36.8,21.4,25.4,23.3-19.4,3.3-20.3,11.6-33.8,16.5-19.4,7.2-26.4-3.8-41.6,3.2s-9.8,19.4-28.4,20.1-17.7-8.9-52.5-.7C62.1,121.9,0,125.5,0,125.5V41.6s51,2.8,79.2,12.6h0Z"/>
  <g id="Generative_Object">
    <g>
      <path class="st7" d="M24.2,88.2l-14.3-1.6c-1.3-.1-1.8-1.5-1.9-2.5,0-1.1.4-2.8,1.8-3l14.4-1.8c.5-13,2.5-29.8,9.2-40.7,1.7-2.8,3.8-4.3,6.9-5.5,31.7-12,64.6-20.9,98.2-26.5,53.4-8.9,108.7-9.2,161.8,1.4,46.4,9.3,95.1,29.3,130.4,61.2,3.3,3,6.3,5.7,8.9,9.3,2.2,3,2.4,7.1,0,10.1-3.2,4.1-6.7,7.5-10.7,11-12.6,11-26.5,20.5-41.4,28.5-35.1,19-73.4,30.1-113,35.2-26.7,3.4-53.2,4.5-80.1,3.1-52.5-2.7-105.1-14-154.1-32.5-2.5-.9-4.5-1.9-5.9-4.1l-2.9-4.8c-5.2-11.3-6.7-24.1-7.3-36.9h0Z"/>
      <g>
        <path class="st5" d="M328.3,126.4l-.4-.2c-.5,1.1-1.1,2.1-1.8,3-8.5,2.5-18.4,3.6-27.3,4.2-.7,0-1.3,0-1.8-.3-.7.7-1.5.8-1.7-.3.2-.3.3-.7.5-1.2,5.9-11.9,8.9-24.7,9.8-38.2l9.9.5,21.8.2c-1.6,11.3-4.3,22.1-9,32.4h0Z"/>
        <path class="st5" d="M366.6,112.4h-.5c-.7,1.4-1.5,2.7-2.5,3.9-9.7,4.4-20.7,8.6-31.1,11.3-1.2.3-2.3.3-3.5.2,4.8-10.6,7.7-21.9,9.4-33.7l13.1-.6,7-.3,7.8-.7c.1-.3.2-.2.3,0l3.9-.4c.1-.2.2-.2.3,0l3.6-.3c-2,7.4-4.5,14.1-7.7,20.6h0Z"/>
        <path class="st2" d="M436.7,85.1c-.9.4-1.5-1-.7-1.6-.8-.3-1.5-.9-2-1.9-35.1-34.2-83.4-55.1-131.5-65.4C216.1-2.3,123.4,9.3,41.2,39.5c-1,.8-1.9,1.1-2.8,1v-1.1c.6-.9,1.4-1.4,2.6-1.8C107.5,12.2,183.6-.3,254.7,6.1c34.4,3.1,67,9.6,99.2,22.2,26.5,10.4,52.4,24.9,73.5,43.9,2.9,2.6,5.5,5,7.9,7.8,1.3,1.5,1.9,3.2,1.3,5h0Z"/>
        <path class="st7" d="M317.1,78.6c-2.7-3.3-1-4.7-1.6-7.5-2-10.4-6.4-20.2-13.4-28.1-4.8-5.4-10.6-8.2-17.5-9.6l-10.7-2.1-10.6-1.6-3.8-.4-11.9-1.7-6.6-.7c-1.5-.1-2.8-.2-4.2-.3l-4.2-.3-4.2-.4-4.9-.3-7.6-.3h-27.3s-6.1.3-6.1.3c-1.5,0-3,.3-4.5.4l-4.9.3-13,1.3c-.4,0-1,.2-1.2.4-.2.2,0,.7.3.8,0,0,3.3,1.1,4.8.9.9.9.7,1.1-.5,1.4-4.4-1.3-8.2-.9-13-.3-23.4,2.8-45.8,7.5-68.4,13.7-2.5.7-4.4,3.1-4.7,5.6v57.8c-.1,0-.8.4-.8.4l.7.4c-.2,3.2,0,6.4.9,9.4l-.6.6,1.8,2.3c9,3.1,18.2,5.6,27.8,7.5l1.5.6c0,.8.5,1.3,1.5,1.5,11.6,2.4,23.1,4.6,34.9,5.9l19.3,2.2,4.5.4c1.4.1,2.6.4,3.9.2l1.4.4h3.9l1.7.3h.7c1.6.2,3.1.7,4.5,1.5,0,0,.2,0,.2,0l1.2.4,5.2,1.3,7,2.6c2,.7,4,1.2,6,1.7l.4-.2,19.6,6.4.3.8v.6c-1.2.3-2.4.4-3.8.4l-15.2-.2-8-.3-5.4-.2-4.6-.4-5.6-.4-4.9-.4c-45-4.1-89.1-14.1-131.4-29.9-.9-.3-1.1-.9-1.1-1.8v-33.9c3.7-1.5,8.5.5,9.9-2.9.6-1.4.3-3.1-.8-4.1-1.2-1.1-2.8-1-4.2-1h-2.8l-1.1-.4c-.3-.2-1.1-.5-1.1-.9v-35.1c0,0,4.2-1.8,4.2-1.8l16.9-5.8,7.5-2.3c.5-.1.8-.2,1.3.2v.7c-9.6,3-19.2,6.2-28.7,9.7,0,11.4.2,22.8.4,34.2l6.2.2c2.6.5,3.9,2.5,3.8,5-.1,5.4-6.5,5.3-10.6,5.1l-.5-.7v11.6c.1,0,.7.5.7.5l.2,22.2c0,0-.3,0-.3,0,22.3,7.7,44.3,14.7,67.4,19.8,22.3,5,45.1,8.2,67.2,10.2,12.7,1.2,25.4,1.6,38.2,1.3l-9.2-2.9c-10.3-4.2-20.9-7.5-31.7-9.8-17-1.4-33.9-3-51.4-6-16-2.7-31-6.6-46.6-10.9-6.7-1.9-6.5-10.7-6.3-16.1l.7-.5-.7-.4v-57.2c.6-3.7,3-7.7,6.8-8.8,35.4-10.5,75.2-16.7,111.2-17.5,20.8-.5,42.7.3,63.9,3.2,11.2,1.5,23.3,3.2,34.2,6.2,8.5,2.3,15.2,9.6,19.7,17,4.2,6.9,8.4,18.6,8.5,26.6,0,.6-.3,1.2-.5,1.7h0Z"/>
        <path class="st3" d="M328.3,126.4c-3.1,7-6.8,13.5-12,19.3-1.9,2.1-3.9,5.1-6.7,6.2-9,3.4-18.5,4.6-28,5.7h-7c8.7-6.9,15.6-15.2,20.6-24.9,1.6.7,1.6-1.9,3.2-3.8.2,1.5-.6,2.3-1.1,3.8,9.6-.5,18.9-1.9,28.3-4.1l2.8-4.6c0,.7,0,1.7-.3,2.4h0Z"/>
        <path class="st0" d="M351.1,139.9c-2.6,1-5.2,1.8-7.9,2.4-.9-.4-.5-1.1,1.1-2.1,7.3-4.5,14.5-9,21.6-13.5,20.5-10.3,40.6-23.4,56.7-39.4,1.3-.6,2.4-1.6,3.3-2.9.3-.6.6-.9,1-.9,0-.3.2-.7.4-.7,1.5-.1,6.1-.3,7.4,0,.6-.1.9.2,1.3.7l.7,1.6s0,0,0,.1l-1.2,2c-22.8,23.9-53.4,41.2-84.4,52.7h0Z"/>
        <path class="st5" d="M293.8,133.2c-5.3,1-11.5.4-16.5-1.4l.4-1c1.9-2.3,3.1-5,4.3-8,4.2-9.8,5.7-20.2,4.9-31.1l17.7,1.5-1.1,10.2c-1.6,10.5-4.8,20.5-9.6,29.7h0Z"/>
        <path class="st3" d="M272.4,158c-10.4,0-20.7-.4-31.3-2.5,15.5-3.3,27.2-10.8,36.2-23.7,5.5.7,11,1.2,16.5,1.4-5.1,9.8-12.6,18.3-21.4,24.8h0Z"/>
        <path class="st3" d="M366.6,112.4c-3.5,7-7.6,13.9-13.5,19.3l-6,3.8c0,.2.1.3,0,.5,0,.4-6.1,3.7-7,4-.2,0-.5-.1-.7-.3l-6.2,3.2c-6.3,3.2-12.9,5.8-20,8l5-5.5c4.3-5.5,8-11.3,10.8-17.5,11.7-3.1,23.1-7.2,34.2-12.1,1.4-1.2,2-3,3-4.6.4.2.4.8.4,1.3h0Z"/>
        <path class="st7" d="M180.4,140.2c1.6,0,3.3.4,4.5,1.5l-4.5-1.5Z"/>
        <path class="st7" d="M178,139.8c.6,0,1.3-.2,1.7.4-.6,0-1.3.1-1.7-.4Z"/>
        <path class="st7" d="M172.7,139.5c.5,0,1.1,0,1.4.4-.5,0-1.1.1-1.4-.4Z"/>
        <path class="st7" d="M45.8,79.7c.4,0,.9,0,1.1.4-.4,0-.7,0-1.1-.4Z"/>
        <path class="st7" d="M83.5,118.1c.5,0,.8.2,1.1.3-.5.2-.8,0-1.1-.3Z"/>
        <path class="st7" d="M185.2,141.6c.5-.2.8.3,1.2.4-.4,0-.9,0-1.2-.4Z"/>
        <path class="st1" d="M317.1,78.6c-1.2-14.6-6.4-28.5-17-38.4-4.2-3.8-8.7-5.9-14.1-7-15.1-3.1-30.1-5.7-45.4-6.9l-4.5-.4-4.2-.4-5.9-.4-5.3-.3-7.5-.3h-21.6l-8.1.4-5.1.2-4.6.4-4.2.4-4.6.3c-16.2,1.7-32.1,3.6-48,6.8-12.5,2.5-24.4,5.1-36.5,9-3.3,1.1-6.2,4.9-6.2,8.4v57.4c-.1,0-.6.6-.6.6-9.4-2.5-18.9-5.1-28.3-7.8-.2-4.1-.3-8.2-.2-12.4l6.3-.3c2.7-.1,4.3-2.2,4-4.8-.2-2.1-1.5-3.6-3.6-3.7l-6.5-.2v-32.7c0-.7-.5-2.1.1-2.6l15.7-5.6,13.4-4.3c41.5-13.2,89.8-21,133.4-22h17.4c47.3,1.3,96,9.7,139,30.1,19.7,9.3,39,21.4,54.7,36.9-3.9.6-7.1,0-10.8,0l-51.2-.3-10.7-.2h-29.4c0,0,0,0,0,0Z"/>
        <path class="st1" d="M426.9,83.6c.1-1.1.1-2.5-.7-3.3-.8-.9-2.3-1-3.4-1-2.1-2.3-4.3-4.4-6.8-6.6-26.7-23.5-60.2-39.5-94.4-49.2-11.4-3.2-22.5-5.8-34.2-7.8-24.8-4.3-49.6-6.3-74.8-6.2l-7.8.2c-53.1,1.6-110.8,13.1-160.4,32.1-1,.4-1.5.8-1.5,1.9v35.3h-4.5v-38.4c1.1-1,2.4-1.6,3.9-2.2,12.3-4.6,24.6-8.5,37.2-12.1C121.4,14.3,163.9,7.6,207.5,6.7c21.6-.4,43.2.9,64.6,3.6,42.9,5.4,84.9,18.2,122.2,40.1,13.2,7.8,25.6,16.8,36.7,27.2,2,1.9,4.1,3.5,5,5.8h-9.1c0,.1,0,.1,0,.1Z"/>
        <g>
          <path class="st7" d="M422.7,79.7l-3.4-2.9c-1.4.5,1.2,2.2,0,2.9-3.6,2.3-8-.4-8.1,1.7-.2.6-2.1.6-2.4,0-.7-.4-.7-.4-1.4,0,0,.2,0,.4-.1.4-6.8.1-13.8,0-20.6,0,0,0-.2-.1-.2-.4-7.4-.1-14.9-.2-22.4-.3,0,.7-1,.7-1.2,0-.2-.9-.6-.8-.8,0v.4c-8.1,0-16,0-24-.1l-.2-.5c0-.2.3-.3.7-.3,5.1,0,10,.2,15.1-.4-.9-1.7-2.2-.6-3.1-.5-1,0-2.1-.5-3.2-.5l-12.4-.2-17.7-.5.3-.7c33.1.1,66.6.3,100.3.6-29.9-28.1-68.8-45.3-108.4-55.1-76.6-18.9-157-11.6-232.5,10.4l-2.1.2c-3.8.9-29,8.6-29.6,10v34.6s-.4.2-.4.2c-.3-.2-.6-.3-.9-.3-.4,0-.6.6-.8.8-.9,1-4.9,1-5.9-1-1.1,1.3-2.4,1.6-3.8,1.4l-5.3-.7v-5.6c.7-7,1.6-13.8,3.2-20.7l1.9-5,1.8-4.3,2.6-.6c0-1.3.2-2.5.8-3.5.6-.1.6.2,0,1.1l.7.2v37.3c.7.4,2.3.4,3,0v-34.4c0-1.1.7-2,1.7-2.4,46.5-18.1,96.1-27.8,145.8-31.5,46.1-3.5,96.9,1.8,141.4,15.9,30.6,9.7,56.8,23.4,81.9,43.4,1.6,1.3,9.6,7.8,9.9,9.4,0,.3,0,.5,0,.8.3.2.2.4-.1.4h0Z"/>
          <g>
            <path class="st0" d="M28.8,74.1c.7-7.1,1.3-14,3.3-20.7.9-3,1.3-6.2,3.7-8.8v34.2c.1,0-7.1,0-7.1,0-.3-1.6-.1-3,0-4.8Z"/>
            <path class="st7" d="M364,81.1h22c.3,0,.4.2.4.3h-21.7c-.4,0-.6-.1-.7-.3h0Z"/>
            <path class="st7" d="M391.4,80.6l5.2-.3,3.2.7h-12.7c1.3-.9,2.8-.3,4.3-.4Z"/>
            <path class="st7" d="M407.4,81.4c0-.2.3-.6.5-.7.4-.1.8.3.9.7h-1.4Z"/>
            <path class="st7" d="M357.7,80.5c.4-.2.8-.3,1.4,0-.2.2-.6.4-1.4,0Z"/>
          </g>
        </g>
        <g>
          <path class="st7" d="M49.6,80.1c1.2-.8,3.7-.2,4.8,1,2.2,2.6.5,6-2.8,6.5-2.3,0-4.5.2-6.5.7-.2,11.5-.2,23.1.2,34.9,56.3,21.3,118.2,32.6,176.4,31.9,1.3-.4,2.3-.3,3.1,0-.2.2-.5.7-.4.9.2.4.7.5,1.1.5h9.4c0,.1,6.5,1.3,6.5,1.3l6.2.5c2.8.2,5.5,1.2,8.5,1.3l2.8.8c-2.6,1.6-5.4,1.9-8.3,1.7-2.4-.1-4.7.2-7,.3l-6.3.3-4.6.3h-25.8c0,0-4.2-.2-4.2-.2l-5.2-.3c-2.3-.1-4.4-.2-6.7-.3l-5.3-.3-5.2-.4-20.1-2c-10.4-1-20.3-2.7-30.6-4.8l-6.1-1-16-3.6c-9.2-2.1-18.1-4.3-27.2-7l-11.9-3.6-14.7-4.9-10.4-3.6-3.6-1.6c-3.3-1.5-1.5-3.9-2.4-6-.2-.5-1.2.1-1.6.3-.9,0-1.4-1.5-1.7-2.2l-2.7-7.1c-1.7-6.5-2.8-13-3.1-19.8.5-1.6,2.5-2.6,3.7-3.6,1.3-1,2.3-1.8,4-2.3.4.5.4,1.4,1.5,1.8-.1-1.5.2-2.6,1.1-3.9l-11.1-.3c-2.5,0-4.8-.4-7.4,0-1,.2-2.4-.6-3.4-.7l-5.5-.8c-.9-.1-1.6-.5-1.4-1.4,0-.5.6-1.1,1.4-1.2l6-1,3.5-.4c2-.2,3.7-.1,5.8-.2l7-.3,7.3.5c3.1.7,8.2.6,9-.5,0-.1-.3-.4-.3-.5h0Z"/>
          <g>
            <path class="st0" d="M38.4,97.8l1-.3c.9.4,1.7.6,2.5.6v-9.2l.7-.5c.2.1.4.3.4.8v35.4l15.3,5.7c21.3,7.3,42.7,13.4,64.8,17.5l14.8,2.8c18,3.4,35.9,5.3,54.2,6.2l6.7.3,12.9.3h23.3c0,0,12.6,1.9,12.6,1.9l7.5.7c.2,0,.2.6,0,.7-.2.1-.5.3-.9.4l-5.2.3-4.6.3-6.3.4-9.1.4h-22.7s-4.9-.3-4.9-.3c-1.9.3-3.7-.2-5.6-.3-2.3,0-4.4-.1-6.7-.3l-5.2-.4-17-1.6c-12.5-1.2-24.7-3.1-37.2-5.4-25.6-4.7-50.6-11.4-75.2-19.9l-14.1-5.2c-1.3-.5-2-1.1-2-2.6v-28.7h0Z"/>
            <path class="st0" d="M35.7,122.2c-1.4.7-5.1-13.4-5.7-18.6l-1-8.9,7-5v32c0,.3-.2.5-.3.6h0Z"/>
            <path class="st1" d="M38.4,97.8v-9.4h4.2c0,0,0,10.7,0,10.7-1.5-.2-2.9-.7-4.2-1.3Z"/>
            <g>
              <path class="st1" d="M23,81.8c9.7,0,19.4.3,29.1.9.3.7.6,1.6.2,2.3-3.3.7-6.8.6-10.4.7h-15.2c0,.1-15.5-1.5-15.5-1.5-.4,0-.5-.4-.4-.5,0-.2.3-.3.6-.4l11.6-1.5h0Z"/>
              <path class="st6" d="M52.4,85.1l-.7-2-22.3-.7-6.4-.5,4.9-.3h9.5s14.6.6,14.6.6c.8,0,1,1.1.9,1.5,0,.4-.1,1.2-.6,1.4h0Z"/>
            </g>
          </g>
        </g>
        <path class="st0" d="M45.2,88.3l.2,11.7,28.7,7.9v7.3c0,3.1,2.3,7.6,5.8,8.7,23.7,7.2,47.7,11.8,72.3,14.4l14.2,1.5,4.1.4,4.5.4c2.7.2,5.3.3,7.8,1.3l7.6,1.9,19,6.8,13.5,4.3h-21.1s-6-.3-6-.3l-5.9-.4-4.9-.3-4.9-.3-4.2-.4-3.8-.4-2.9-.2c-13.1-1.5-26-3.3-39-5.7-29.1-5.4-57.3-13.4-85-23.6l-.2-22.9v-11.9s0,0,0,0Z"/>
        <path class="st0" d="M77.6,118.8l-1-3.8v-6.6c0,0,3.4.7,3.4.7v5.2c0,2.8,1.9,4.2,4.3,4.9l15.3,4,9,4.8c-1.3.7-2.4.2-3.6,0l-15.8-3.8-9.4-2.9-2.2-2.3h0Z"/>
        <g>
          <path class="st7" d="M224.8,154.6l-9.4-2.9-16.9-5.8c4.5,1,7.6,2.8,5.8-.4,2-.8,3.9,0,5.9,0h18c0,0,7.7-.4,7.7-.4,8.7-1.1,17.1-2.1,25.6-4.1,1.3-.3,2.7-1.2,4-.4.5.3,0,1.4-.6,1.7-1.6.8-2.5,2.2-3.9,3.1l-3.8,2.4c-1,.6-1.5.8-2.6,1.2l-6.4,2.4-8.2,2.2-7.5.8-7.9-1.1c0,.4.1.9.1,1.3h0Z"/>
          <path class="st1" d="M213.7,148.7l-8.2-2.8c2.2-.6,4.4.2,6.7.2h16.8c0,0,6.6-.5,6.6-.5,10-.6,19.6-2.4,29.5-4.8-6.4,5.8-15.1,9.7-23.3,11.5l-9.6,1.5c-6.3-1.3-12.3-3.1-18.5-5.1h0Z"/>
        </g>
        <g>
          <path class="st7" d="M380.5,127.6c-.6,0-1,.2-1.6.6-3.5,2-7,3.4-10.7,5.1-9.5,4.4-19.1,8.2-29,11.4-1.8.6-3.4,1.6-5.5,1.2,1.6-1.7,3.5-2.4,5.4-3.4,5.1-2.9,10.2-5.5,15.1-8.7l4.5-2.9,8.1-5.1,6-2.8,4.3-2.3c2.6-1.4,5-2.6,7.3-4.5-.9-.5-1.6-.7-1.8-1.3l1.9-1.9c7.6-5.7,14.8-11.6,21.7-18l9.1-8.4c2.1-1.9,5.2-2,6.4-1.3.5.3.6,1,.8,1.8,1.7-.7,2.8-2,3.6-3.4.6-1.1.2-2.2-.6-2.9l-2-1h-.7c0-.1,0-.3.1-.4,0-1.1,2.1-.8,2.7-.4,1.7,1,3.1,3.2,1.4,4.6,0,.4-.4.9-.8,1.2l-5.7,5.6c-6.6,6.5-13.7,12-21.4,17.4-10.4,7.3-21.2,13.2-32.5,19-3.4,1.7-6.2,4-9.4,6-4.3,2.6-8.5,5.1-12.9,7.5-1,1.1-2.1,1.9-3.3,2.6,3.4-.7,6.7-1.7,10.1-2.9,6.6-2.8,13.3-5.2,19.8-8.5l14.5-7.2c14.7-8,28.3-17.3,40.8-28.3l8.1-8c.9-.9,1.7-1.7,2.3-2.6,0,1.1-.8,2.1-1.6,3l-3.8,3.9c-6.4,6.1-13,11.4-20.2,16.6-9.8,7.2-20.2,13.2-30.7,18.9h0Z"/>
          <g>
            <path class="st7" d="M423.4,79.7c.8,0,1.4.4,2,1-.8,0-1.6-.3-2-1Z"/>
            <path class="st4" d="M344.4,140.2c-.3.6-1.1.7-1.3,1.6,3.1.3,5.5-1.7,8-1.9-2.5,1.1-5.2,2-8,2.9s-5.3,2.3-8.2,2.5l9.4-5h0Z"/>
            <path class="st0" d="M400.5,103.9c-1.4.8-2.9,1.6-4.3,2.5-2.1-.3,1.7-3.5,2.4-4l.3-.3,2.1-1.8.3-.4c2.8-2.2,5.5-4.5,8.1-7,1.2-1.7,2.9-3,4.6-4.4,2-1.7,2.2-4,7.5-2.6-6.7,6.8-13.9,12.5-21.1,18h0Z"/>
            <path class="st4" d="M398.7,102.4c-.7,1.2-2,1.7-2.6,3.4,1.8.2,2.9-2,4.5-1.9-5.1,3.6-10.2,7.2-15.6,10.1,0,0-.3,0-.7.5.9-.3.6-.8,0-.5.4,0,.6-.2.6-.3,2.2-2.1,4.9-3.9,7.4-6l4.9-4.2c.6-.5.9-1.2,1.7-1.2h0Z"/>
            <path class="st4" d="M401.4,99.9l6.3-5.6c.6-.6,1.1-1.3,1.9-1.4-1.1,1.5-2.5,2.6-3.9,3.8l-2.5,2.1c-.5.5-.9,1.2-1.7,1.1h0Z"/>
            <path class="st4" d="M399,102.1c.6-.7,1.2-1.6,2.1-1.8-.5.8-1.2,1.7-2.1,1.8Z"/>
          </g>
        </g>
        <g>
          <path class="st7" d="M248.3,80.5c1,.2,1,.9,0,1.2.4.3.7.5.9.8l173.8.3.4.6h-32.4c0,.1-11.9.2-11.9.2l-17.2.2c-2.5,0-4.8-.3-7.5.5,1,1.1,2.5.5,3.8.5h16.8c3.8,0,7.4,0,11.2,0h9.1c1.4.2,2.7,0,3.9.8-.6.5-1.3.9-1.9,1l-12.5,1.8-18.9,2-5.2.4-5.9.4-6.1.2-13.6.4h-10.3c-1.2.1-2.3-.3-3.5-.2-1.5.1-2.8.1-4.4-.2,0-2-.4-4.2.6-6l1-.3c.1,0,0-.7-.1-.8-.1-.2-.4-.3-.9-.3h-68.9c-.4-1.3-.4-2.3,0-3.4h0Z"/>
          <g>
            <path class="st3" d="M423.4,83.4l-61.1-.3h-113.9c-.2-.6-.1-1-.1-1.4,0-.3,0-.6.2-.6,55.3.2,110.2.3,165.5.9,3.6-.1,7.1,0,10.6.2,0,.9-.9.7-1.2,1.2h0Z"/>
            <path class="st0" d="M341.6,91l-21.6.2-2.8-.5v-4.6c0,0,3.9-.5,3.9-.5h74.1c0,.2,0,.4,0,.6l-12.3,1.8-21.3,2.1-4.6.3-6.1.2-9.3.3h0Z"/>
            <path class="st7" d="M343,84.8c.9-1,2.4-1.2,3.6-.2-1,.6-2.5,1-3.6.2Z"/>
            <path class="st7" d="M347.6,84.4c.6-.4,2-.7,2.3,0s-.7,1-1.1.9c-.5,0-1.1-.2-1.2-.9h0Z"/>
            <path class="st7" d="M322.8,84.7c.2-1,1.9-.8,2-.1-.8,1-2.2.7-2,.1Z"/>
            <path class="st7" d="M332.4,85.4c-.7,0-.9-.2-1-.5-.1-.4,0-.4,0-.6.3-.4.7-.3,1.1,0l.5.5c.1.1,0,.6-.6.6h0Z"/>
          </g>
        </g>
        <g>
          <path class="st3" d="M158,128.6c-10.3-4.9-20.4-10.1-29.9-16.5l-3.4-2.3,14.4-7c1.8-.6,3.6-1.4,5.2-2.3,1.2.7.3,1.7-.6,2.3l-2,1.2c10.9,4,22.2,8.1,33.5,10.2v.5c0,0-15.9,13.8-15.9,13.8-.4.3-1,.2-1.3.1h0Z"/>
          <path class="st3" d="M187.1,135.2l-3.7,3.6c-8.1-2.8-15.9-6.1-23.6-9.5,5.2-4,9.9-8.3,14.9-12.7l4.2-3.8c2.3-1,2.5,1.3.5,2.4,7.6,1.8,15.2,3.1,22.8,3.8.3.2.4.5.3.8l-6.2,6.1-9.2,9.2h0Z"/>
          <path class="st7" d="M177.3,43.6c-1-.1-1.9-.7-2.7-1.8-2.8-2.2-8.1-6.4-11.4-7.4-1.7-.5-3.6-.5-5.4-.3-9.7,1.2-19.7,2.6-30,4.3-4.9,1.2-9.9,1.9-14.9,2.1-2.6,1-5.3,1.6-8,1.8-.1.7-.4.6-.4-.1-7,2-14,3.9-21.1,5.8l-1.3.6c.5.5.3.7-.3.3-.9.8-1.1,1.8-1.1,3.2v57.7c-.2.4-.3,1,0,1.4v3.5c0,1,.3,1.8,1,2.2l1.8,1.2,1.1.3,3.8,1,1.1.4,2,.3,1.1.4h.3l1.2.4,5.5,1.5,8.7,4.6,2.9,2.2h-2.5c-9.2-2.1-18.4-4.1-27.5-6.9-1.8-.6-3.2-1.9-3.6-3.5l.4-.3c.8.4,1.6,1.1,2.2,2.1,8.5,2.6,17.2,4.9,25.9,6.8l-6.8-3.6-15.4-4.1c-5-1.9-5-5.3-4.5-10.2l.7-.5-.7-.2c0-19,0-38.1,0-57.1.2-2.1.5-3.6,2.4-4.8,24.9-7.2,50.4-11.9,76.1-14.9,2.2-.2,4.6-.2,6.7.6,5,2.1,11.7,8,15.8,11.7,1.3,1.1,2.7,2.9,3.1,4.6,2.4,9.2,3.6,18.8,4.1,28.3h49.3l.3-.2.2-32.9.7-.4c-1,0-.9-.5,0-.8.5.2.9.8,1.7.6v-6.9c.1-.6.4-1,.9-1h.5c.2,13.9.3,27.8.3,41.7,1.4-.3,2.3,0,2.7.6,0-1,1.2-.9,1.4.1-1.4.8-3.7.9-5.4,0-.3-.6-.2-1.8-.7-2.2-.7.7-.9,1.5-1.2,2.7l-23.8.3h-10.8c0,0-7.2,0-7.2,0h-9.3c-1.3-1.7-.9-3.5-1.1-5.4-.6-7.8-1.6-15.5-3.5-23.1-.7-3-3-5.1-5.3-6.7h0Z"/>
          <path class="st7" d="M88.4,119.5c.4,0,.9,0,1.1.4-.4,0-1,.1-1.1-.4Z"/>
          <path class="st7" d="M91.6,120.2c.4,0,.9,0,1.1.4-.4,0-.9,0-1.1-.4Z"/>
          <path class="st7" d="M92.9,120.6c.3,0,.8.3,1.2.4-.5,0-.9,0-1.2-.4Z"/>
          <path class="st1" d="M238.1,35.2l-2.3.3c-19.9-.5-40.4-.5-59.9,1.2,3.2,2.3,6.2,4.9,8.8,7.7,16.2-1.5,32.4-1.8,48.6-1.6.8,0,1.5.1,2.3.3s1.5.3,2.3.5v21.8c-.1,0-.2,12.4-.2,12.4h-50.9c-.4-9.6-1.5-18.9-3.9-28.2-.6-2.4-2.2-4.2-4.1-5.8-4.1-3.6-8.2-7-12.8-9.9-2.7-1.7-5.7-1.8-8.9-1.4l-22.6,3-27,5.1-25.2,6.6c-1.6.4-2.3,2.7-2.3,4.3v57.3c.3,1-3.1.2-3.2.1-.2-.2-.3-.5-.3-.8v-58c.1-3.3,3.1-5.9,6-6.7,16.2-4.7,32.3-8.2,48.9-10.8,9.2-1.5,18-2.8,27.3-3.4l4.6,1c.3,0,.6,0,.8-.2,0-.1,0-.4,0-.5.1,0,.3,0,.4,0l1.9.5,4.8,3c22.1-2.1,44.5-2.8,66.6-.7l2.3.6c-.7.5-1.8,1.1-1.8,2h0Z"/>
          <path class="st7" d="M81.8,48.9c0,0,.2-.2.3-.3l1.3-.6c7.1-1.8,14.1-3.7,21.1-5.8.1.2.3.1.4.1,2.8-.3,5.4-.9,8-1.8,11.3-2.3,22.5-4.2,34-5.7l10.4-1.3c3.6-.5,6.7,0,9.6,2.1,3.6,2.6,7.6,4.7,10.3,8.1l1.2,1.4c1.9,1.6,3.3,3.9,3.8,6.3l1.4,6.7,1.7,12.9.7,8.5c-1.6,1.1-3.4.1-4.8.3-1.9.3-3.2.2-5.1,0-2.9-.4-6.1,1.1-8.3-.9.5-2.5.1-5.1-.2-7.6l-1.3-9.7c-.6-4.6-2.4-6.7-5.4-9.3-1.8-1.7-3.8-3.2-5.8-4.7-2.6-2-5.6-2.3-8.8-2l-12.8,1.5-5.6.4-3.2.4c-3.3.4-6.3,1-9.6,1.6-4.3.7-8.4,1.2-12.8,2.1l-6.4,1.2c-3.2.6-6.1,1-9.2,2-1.3.4-2.8.3-3.8,1.4-.7.8-.3,2-.6,2.8-.4,1.4-.3,2-.1,3.4.9,5.3-.8,8.1-.1,10.6.3,1.1.1,2.5-.1,3.8-1.5-.8-.5-2.3-.6-3.4-.4-4.3-.2-8.4-.3-12.8l-.2-8,.7-3.6h0Z"/>
          <path class="st1" d="M252.4,44.8l1.1-.8c15.5.3,31.6,2.9,47.1,5.8,4.1,4.8,9,10.7,10.7,16.7,0,.3,0,.6,0,.9h.3s1.4,4.5,1.4,4.5l.7,6.4h-32c0,0-29.4-33.6-29.4-33.6h0Z"/>
          <path class="st5" d="M175.2,114.6c-.3-.3.4.7,0,.6l-16.7-4.6-18.5-6.6c-3.3-1.3,1-1.1-1-1.3,9.3-4.9,18-10.6,26.9-16.7h40.5c0,0-16.9,15.3-16.9,15.3l-14.3,13.2h0Z"/>
          <path class="st3" d="M311.7,66.3c.2.9.1,1.3-.4,1.1-2.7-6.2-6.4-11.9-11-17.1-12.9-2.5-25.6-4.2-38.7-5.3-3.2-.3-6.1-.5-9.2-.3l-5.8-6.7c-.7-.6-1.1-1.3-1.1-2.1.6-.1,1.1-.3,1.7-.4s1.1-.2,1.7-.1c3.8.3,7.7.6,11.5,1.1,6.5.7,13.2,1.6,19.4,3.4.8,0,1.2,0,1.1-.5h-1.8c-11.3-2.3-22.5-3.9-33.6-5l-.9-.8c-1.6-.1-3-.4-4.6-.5-22.9-1.8-45.8-1.5-69,.7-2.1-1.5-3.9-2.8-6.3-3.5-.3,0-.3-.6-.2-.7,11.4-1,22.8-1.9,34.6-2,22.6-.1,44.8,1.6,67.1,5l19.2,3.5c2,.4,3.9.8,5.7,1.6,10.4,4.9,18,17.6,20.7,28.3h0Z"/>
          <path class="st5" d="M202.5,119.9c-.3-.3-1,0-1.5,0-7.8-.9-15.3-2.5-23.1-4.2l2.6-2.3c-.7,0-1.2,0-1.6-.5l17.3-16,12.1-10.7,27.8.2-33.5,33.6h0Z"/>
          <path class="st3" d="M238,43v.8c-17.8-.4-35.5,0-53.4,1.4-3.3-3.3-6.6-6-10.3-8.7,1-.7,1.9-.4,3-.5,20.3-1.5,40.6-1.9,60.8-.8v7.7Z"/>
          <path class="st1" d="M241.9,129.3c-.4,0-.8.2-1.4,0v-43.1s3.8.6,3.8.6h.5c-.8,14.2-1.6,28.2-2.4,42.2l-.5.2h0Z"/>
          <path class="st1" d="M244.1,77.9h-3.5c0,.1.1-42.3.1-42.3h1.3s.4.2.4.2c.8,13.8,1.6,27.7,2.4,41.6l-.7.5h0Z"/>
          <path class="st1" d="M279.7,39.9c-11.3-1.8-22.7-3.4-34.2-4,0-.8-.6-1.4-.9-2.2l5,.3c10.6,1.4,21,3.1,31.3,5.4.5.4.1.6-1.1.5h0Z"/>
          <g>
            <path class="st7" d="M380.5,127.6c-1.9,1.9-5.6,3.3-8.8,4.8l-5.7,2.7-6.3,2.7-5.7,2.3-7.1,2.7-9.4,3.3c-1.4.5-3.3,1-4.5.3s2-2.6.3-3.7l6.2-3.2.8.2c1.2,0,5.8-3.1,7-3.9,0,0,0-.2-.1-.5l5.6-4.3c5.3-5.4,9.7-11.5,13.2-18.4l1-2.5c2.7-5.7,4.8-11.6,6.5-17.7-1.3.3-17.9,1.7-21.4,1.5l-36.8.4-8.9-.4c-.8,11.7-3.4,22.9-8,33.7-.4,1-3.1,6.4-3.4,7.1-1.2,2.9-4.1,6.8-6.1,9.4-3.6,4.7-7.7,8.9-12.2,12.6l5.1.7c.1.3-.2.8-.4.7l-1.4,1-9.1-.2,2.7-2.8c7.7-6,14.2-13.4,18.9-21.9l1.8-3.5c5.9-11.6,8.7-24.6,9.6-37l-16-1.4c.6,13.1-1.9,26.8-8.9,37.9l-2.8,3.1c-.3-1.2,1.8-4.9,2.8-5.8-1.1-.5-1,.8-1.4,1.1-.9.9-1.9,1.7-2.4,2.9s-1.8,1.4-3,1.6l-8.5,1.3-8.3,1.1-11.2,1.4-10.1.7-3.9.3h-7c0-.8.4-.9,1.2-1,16-.7,32.3-2.3,48.6-5.3.6-.1,1.1-.5,1.4-1,4.5-6.7,7.2-13.5,8.8-21.3.2-1.1,2.3-16.9.9-17.8-.9-.6-5.3-.7-6.4,0-1.8,3.1-5.3,3.1-2.8-.9-8.7-1.2-17.5-2.2-26.3-3l-.4.3c-.7,11.3-1.4,22.7-2,34.1,0,1.1.6,2,1.5,2.7-.4,1.3-1,2.5-1.9,3.7-.2,5-8.6,4.5-7.7,0,.5-2.5,2.7-2.1,2.2.5.7.5,1.6.6,2.6.1h-.4c0,0,2.4-41.5,2.4-41.5l-.5-.9c-.4,1.1-3.6.5-3.7-.6-.4,2.3-.5,4.7-.5,7.1-1.1,1-1.6,0-1.9-1.3.2-1.6,0-2.5-.8-2.7-16.1,15.9-32,31.8-47.8,47.8,1.8,0,3.5.2,5.3.4l.3.8c-2,.5-4.3.5-6.4-.3-1.3-.5-5,1.1-7,1.3l5.1-4.9c4.8-4.8,9.6-9.5,14.4-14.3l1.1-1.1,32-32.2-25.7-.2c-9.6,8.4-19,17.1-28.4,25.9,0,0-.8.7-.9.8-5.1,4.9-11.3,10.4-17,14.8-.3.2-3.9,3.2-4.3,3.3v-3.1c5.3-4.4,10.5-8.9,15.8-13.4l1.4-1.2,29.6-27.1h-38.4c0-.1-9.2,6-9.2,6-5.6,4-8.5,6-13.8,8.6l-4.1,2c-4.4,2-8.7,4.2-12.8,6.5,1.2.5,1.8,1.2,1.8,2-1.2.6-.9,2-.9,2.8-.8.9-2.4.4-3.4.2l-15-2.2-8.4-1.5-3.4-.8-11.7-2.3c-1.9-.4-2.6-1.5-2.6-3.4v-13.4c0,0-.3-3.1-.3-3.1.1-1.6.7-3-.3-4.6.9-1.1.4-2.3-.1-3.3.9-.4-.1-.8-.2-.4l-.2.8c-.6,9.4-.2,18.7-.2,28.1s-.8,5.4.4,7.9c-.3.1-.6,0-.7-.2-.8-1.7-.8-3.4-.6-5.3,0,0,.2-.1.4-.2-.3-.4-.3-1,0-1.4-.2,0-.4,0-.4,0-.1-19.5,0-39.6.1-59.1.2-1.3.6-1.9,1.3-1.8h.4c-.3,2.8-.4,5.6-.3,8.5,0-1.5,1-2.2,2.4-2.7,21.5-5.3,43.7-8.3,65.5-9.8,5.3.7,13.5,7.2,15.8,11.9,1.8,3.6,2.9,14.8,3.2,19.1-.5,2-.2,3,.7,3.2,5.2.2,10.5.2,15.7,0-.8-9.8-1.8-19.6-4.2-29.2-1-2.1-2.3-3.9-4.1-5.6l.3-.8c.2-.1.4-.2.5-.1,2.1,1.6,4.4,3.8,5,6.4,2.1,8.9,3.4,18,3.8,27.1,0,.6.2,1.1.7,1.4,16.8,0,33.7.1,50.6,0,0-2.9,2.2-4.6,2.3-.5.5,1,4.1.5,5.2.3l-.7-.2-2.3-41.4c0-.1-.3-.4-.5-.8,0,1-1.1,1-1.3,0l-.4.9v7.4c-1.2.8-2,.3-2.2-1-.3,0-.7-.1-.7-.3-.1-1.2,0-3.8,0-5.1-.2-1.2,0-2,.7-2.3-1.3-1.2.5-1.9,1.8-2,1.1-1,3.7-.6,4.6.5,1.2.3,2,1.4.9,2.2.5.1.9.6,1.2,1.2l35.5,40.4h31.6c0-1.6-.4-3.7-.7-5.6s-1.6-6.4-1.6-6.4c-4-11.8-11.3-24-23.8-28-37.8-8-79.9-11.4-119.8-7.4l-3.3-.4c-.1.6-.4.6-.4,0-.4.7-4.8-.3-5.3-.6-.5-.3-.7-1-.3-1.5.8-1,21.6-2.2,24.1-2.3,35.7-1.8,72,1.1,106.8,9.1,16.6,5.6,25.7,25.1,27,41.5l.9,2.8c11.1,0,22.1.3,33.1.7,1-.3,4.8-.4,3.7,1.3-5.4.2-10.7.4-16.1.4,0,.4,0,.5-.3.5l-88.8-.4-.4-.6c-.4,1.4-.3,2.3.4,2.9h-.3c0,.1,69.8.2,69.8.2.8.4.8,1.2.3,2-1.6-.4-1.4,5-1.1,5.2,26.7,1,53.7-.7,80.1-5-13.7-.4-27.9-.4-41.6-.2-2.3-.3-2.8-2.1-.2-2.1h67.8c-.4-.6,0-1,1.2-1.3-4.4-.2-8.8-.3-13.2-.4l-.2-.4c-.9-.7-.4-1.2.5-1.5,2.6.3,5,.1,7.4-.5-.3-.3-.2-.4.2-.5-.9-.7-1.7-3,0-2.6.3,0,3.1,2.9,3.4,3.4.1-.3.6-.3.7,0l2,1c.5-.4.7,0,1,.5,1,2.1-2,5.9-3.6,6.3-.5.1-.8,0-1-.5-.4-2.7-4.2-1.3-5.7-.3-9.8,9.3-20.2,18.2-31.2,26.7-1.4,1.1-1.6,1.7-.6,1.8l.6,1c-6.1,4-12.4,7.5-18.8,10.5-9.9,6.4-20.5,12.8-31.1,18.3v.5c15.6-4.3,30.9-11.3,45.3-18.4l.3.4h0Z"/>
            <g>
              <path class="st5" d="M408.7,89.8l-1.4,1.1c.5.7-.9,2-1.7,1.4-11.2,8.5-25.1,16-37.8,22l-.8-.4c3.5-7.1,6.3-14.5,8.4-22.2,9.6-.9,18.7-2.2,27.8-3.8,0-.3,0-.7.2-.7.9-.2,8-1.6,8.4-1.4,1.6.8-1.3,3.5-2.3,4.2h-.8c0-.1,0-.1,0-.1Z"/>
              <path class="st3" d="M399.2,98.1c-.3.3-.9.7-1.3,1l.2.7c-4.8,3.9-9.7,7.9-14.5,11.8l-.7-.3-1.8,1.4c-.3.5-.6.9-1,1.4s-.7.8-1.2,1.2c-4.6,3.6-9.7,7.5-15,9.7l-5.5,3.6c.2.9-.6,1.2-1.1.3,3.7-4.7,7.1-9.8,9.8-15.1l7.3-3.5c10.8-5.3,21-11.4,30.9-18.3.2-.1.4,0,.4.3.1.2.3.6.2.8-.7.7-5.7,5.3-6.1,5.3-.2,0-.3,0-.5-.2h0Z"/>
              <path class="st7" d="M363.9,125.1c5.9-3.9,11.6-7.9,17.2-12.2,1.7,1,0,2.1,0,4.5-1.5,1.5-3.7,2.1-5.3,3.1-2.2,1.4-4.4,2.1-6.6,3.1l-4.5,2.1c-.2,0-.5,0-.6,0s0-.4,0-.6h0Z"/>
              <path class="st7" d="M408.7,89.8l3.4-3.5-8.8,1.5-1.8-.3c-.5,0-1,.6-1.4.5-.6-.2-1.2-.2-1.5-1,1.2-.4,1.6-1.4,1.7-2.7,4.5,0,13.2-.5,14.7.2.2,0,0,.5-.1.8l-4.6,5c-.2.2-.7.2-.9.2-.2,0-.4-.3-.6-.7h0Z"/>
              <path class="st7" d="M382.8,111.5l15.1-12.3c.3,0,1,0,1,.3.3,1.6-3.5,3.3-5.2,4.7l-5.6,4.9c-1.7,1.5-4.3,4.1-5.2,3,0-.1,0-.4,0-.6h0Z"/>
              <path class="st7" d="M399.2,98.1l6.4-5.9,1.7-1.4c.3.1.6.4.6.6,0,.2-.2.8-.4,1l-6.9,6.4c-.2.2-.8.2-1,.1s-.3-.4-.3-.8Z"/>
              <path class="st7" d="M339.5,139.7l7.7-4.2c.2,0,.7,0,.8.3.2.7-7.6,5.9-8.3,4.5,0-.1,0-.3-.2-.7h0Z"/>
              <path class="st7" d="M357.3,129c.4,0,.8-.1,1.1-.3.2,0,.4-.1.8,0-.4,1.1-1,1.7-2,2.2l-2.5,1.3c0-2.5,2.6-1.6,2.7-3.2Z"/>
              <path class="st7" d="M356.8,92.8c-1.9.3-4,.3-4.2-.4-.1-.6,2.6-.9,4.2.4Z"/>
              <path class="st7" d="M374.9,91.4c-1.1.2-2,.4-3.1,0,1-.7,2.5-1.1,3.2-.8.2,0,.4.7,0,.8Z"/>
              <path class="st7" d="M366.5,92.4c-.1,0-.2,0-.3,0-.7-.1-1.5.3-2.4-.4.9-.6,1.8-.4,2.6-.2.2,0,.2.7.1.7h0Z"/>
              <path class="st7" d="M359.1,92.5c.4-.7,1.5-1,2.4-.2-.8.5-1.5.4-2.4.2Z"/>
              <path class="st7" d="M370.4,92c-.5,0-1.2.1-1.7-.3.7-.4,1.1-.6,1.4-.5.3,0,.6.5.6.8h-.3Z"/>
              <path class="st7" d="M387.9,89.3c0-.3,1.3-.3,1.3.2s-1.2.6-1.3-.2Z"/>
              <path class="st7" d="M80.8,111.2c-.3,0-.3-.3-.4-.5,0-.4,0-.8.4-.9v1.4h0Z"/>
              <g>
                <path class="st0" d="M98.3,93.7c.5.9,0,1-.9.8l-8-7.2c-.3-.2-4.1-1.1-4.2-1-.5.3-.5,10.5-.1,11.9-.3,2.5-.3,5,0,7.5,2.2.7,4.4,1,6.7,1.1,6.9,2,13.9,3.4,21.1,4.4,1.5,0,2.5.6,2.9,1.6-10.7-1.5-21.4-3.6-32.2-6.3v-50.1c9.9-2.5,19.7-4.4,29.8-5.9,11.3-1.8,22.3-3.3,33.7-4,4.9-1,7.8,1.8,11.4,4.8l2.3,1.9c2.2,1.9,4.1,3.9,4.5,6.8l1.8,12.2c.3,1.8.6,3.6.1,5.6h-78.5c-2.3,0-3.6,1.4-3.7,3.5,0,1.4.2,2.5,1.1,3.4.7.7,2.1.7,3.2.9l9.1,8h0Z"/>
                <path class="st1" d="M245.9,44.4c.2-1.2,2.1-.8,2.9-.3l29.8,33.9h-11.3c0,0-19.3,0-19.3,0l-2-33.6h0Z"/>
                <path class="st5" d="M136.7,102.8c-.6,0-1.3-.1-1.9-.3s-1.2-.2-1.8-.5c-10.8-4.5-21.3-9.7-31.5-15.4-2.4.2-4.9,0-7.3-.2-.3-.2-.9-.2-.8-.8l70.4.5c-9.1,6.2-17.8,11.7-27.2,16.7h0Z"/>
                <path class="st0" d="M123.5,114.3l-1.5-.3c-1.1-.4-2.3-.7-3.5-.5-1-.1-1.9-.2-2.8-.6-3.7-1.5-7.9-1.5-12-2.4l-8.4-1.8c-1.9-.4-3.3-1.4-5.4-1.3-1.7,0-3.9-.4-5.4-1.1-1.3-2.9.3-7.2-.4-9.3-.5-1.5,0-2.9,0-4.3,0-1.1-.1-1.8,0-3l.4-4.3,5.2,1.3,3.8,3.6,4.2,3.6c.2.2.5.2.6-.2,8.2,7.2,17.2,13.3,26.2,19.5.9.5.6.9-1,1.1h0Z"/>
                <path class="st3" d="M94.2,86.4c.1-.1.3-.4.5-.4h7c11.4,6.4,23,12.1,34.9,16.8l-13.2,6.3c-10.3-7-20.1-14.3-29.3-22.7h0Z"/>
                <path class="st3" d="M224.8,81.9l-.6.5c-45.4,0-90.9,0-136.3-.3l-.4-.7c0-.4,0-.7.3-.8.1,0,.4-.2.8-.2h78.6s58.7,0,58.7,0c-.1.7-.8,1-1,1.5h0Z"/>
                <path class="st3" d="M87.5,81.4l137.3.4c-.3.6-.3,1.1-1.1,1.4H87.9c-.7-.6-.5-1.2-.4-1.8h0Z"/>
                <path class="st3" d="M424.6,82.2h-58.2c0-.1-54-.3-54-.3l-64.2-.2v-1.2s89.5.5,89.5.5h26.2c7.5.2,14.9.3,22.4.4h21c2.6,0,16.5.3,16.5.3.3,0,.6,0,.7.2,0,.1,0,.4.1.2Z"/>
                <path class="st1" d="M280.5,88.4c.1-1.2,1.2-1.9,2.2-2.7h31.2c0,1.8,0,3.5-.5,5.2-11-.3-21.5-1.4-32.8-2.6h0Z"/>
                <path class="st2" d="M245.4,78.1h-1.4c0-.1-1.5-26.7-1.5-26.7l-.7-15.7c.2,0,.5,0,.8.1s.2.5.2.9l2.5,41.3h0Z"/>
                <path class="st2" d="M242.8,129.3h-.9l.4-9.8,2-32.6c.2,0,1,0,1.1.2l-2.6,42.1h0Z"/>
                <path class="st8" d="M277.1,88.3l-17.3-2.1,19.3-.4c-.3,1-.9,1.8-2,2.6Z"/>
                <path class="st2" d="M245.9,44.4l-.2-3.7,3.1,3.5c-1,.4-1.9.2-2.9.3h0Z"/>
                <path class="st6" d="M313,72l-1.8-4.5c.4-.2.5-.7.4-1.1,0,0,1.4,5.6,1.4,5.6Z"/>
                <path class="st0" d="M123.5,114.3c.5-.2,1-.5,1-1.1.5.3,1.1.4,1.4,1.1h-2.4s0,0,0,0Z"/>
                <path class="st0" d="M118.5,113.5c1-.6,2.5-.1,3.5.5l-3.5-.5Z"/>
              </g>
            </g>
          </g>
          <g>
            <path class="st7" d="M223.1,138h-3.8c-2.3.5-4.7.6-7,.4h-.7c-5.3.5-10.8.5-16.1,0h-.4c-2.8-.8-5.8.2-6.3-.9-.1-.3,0-.9.3-1.2l8.1-8.1,2.7-2.5,22.9-22.9,1.8-1.8,12.3-12.1c.4-.4,1.2,0,1.4.2,1,1-.1,3,1.2,4.3l.5-5.3c0-.7.1-1.5.6-1.8l.7.2v41.9c0,.2.3.5.6.9.2-1,.6-1,.9,0-.8.6-2,.6-2.9,0,0-.7.2-1.3-.3-1.8-1.2.7-1,1.9-.6,2.8.6,1.4,3.7,1.7,5.1.3.7-.7.5-1.7,1.1-2.6l1.8-2.9c-1.3-.6-1.8-1.7-1.7-3.1l.2-5.2c0-1.7.2-3.2.4-4.9l.4-5.9.3-6.3.4-5.6c.1-1.6.5-3.2.2-4.9-.1-.7.1-1.4.5-1.8.4-.3,1-.4,1.6-.4l17.4,2.1,7.4.8c.4,0,1.4.4,1.3.9-.2.8-1.1,1.6-1,2.5,1.5,0,2-1.8,2.9-2.3,2.2-1,4.8-.3,7.1.1.4.8.6,1.5.6,2.3l-.2,8.6c-.6,4.3-1.1,8.3-2.3,12.4-1.7,5.9-4,11.3-7.4,16.3-.9,1.3-1.2,1.6-2.8,1.9-8.8,1.5-17.5,2.9-26.4,3.6l-3.3.3-4.2.4-4.2.4c-3.2.3-8.3.8-9.5.6-.7-.1-1.3.3-1.7.3h0Z"/>
            <g>
              <path class="st7" d="M195.5,138.4h16.1c-1.2.8-2.7.5-4.2.5h-2.9c-2.4.1-4.5.4-7-.2-.5-.1-1.7.4-2-.3h0Z"/>
              <path class="st7" d="M212.2,138.4c.9,0,1.8-.3,2.8-.3h4.2c-2,.7-5.2,1-7,.3h0Z"/>
              <g>
                <path class="st0" d="M201.7,124.8l1.5-.4c11.3.3,22.6.4,33.9-.4v-33.1s.7-.4.7-.4c.2.1.4.4.4.8v36c-.1,1.6-.5,3.2,1,4.3.7.5,2.2.5,3,.5,2.1.1,3.4-1.5,3.4-3.9l4.1-4.8c4.7-.8,9.5-1.4,14.3-2,5.4-1,10.8-1.6,16.2-1.8-1.3,3.7-3.1,7.1-5.3,10.5-.7,1.1-1.5,1.8-2.9,2l-16.4,2.4-14.9,1.6-4.9.4-4.6.3-5.6.4c-1.6,0-3.2.1-4.9.3l-4.2.3h-23.7c-1.1,0-2.2-.1-3.4-.6l12.3-12.3h0Z"/>
                <path class="st1" d="M237.8,90.5v34.2c-12,.7-24.1,1.1-36.1,0l32.2-32.2,3.9-3.6c.3.7,0,1.1,0,1.5h0Z"/>
                <path class="st1" d="M280.2,119.6c-10,1.7-19.9,3.1-30.1,4.2-.3,0-.5-.3-.4-.4l5.9-6.7,21.6-24.8c1-1.1,1.7-1,3.1-.7,1.2.3,2.7-.2,4,.6v10.2c-.6,6.2-2.1,12-4.1,17.7h0Z"/>
                <path class="st1" d="M246.8,107.2l.4-6.1.4-6c.2-2.8.3-7,.4-7.2.2-.3.9-.3,1.4-.3l16.8,2,8.9,1-25.2,29-3.9,4.1c-.5-1.7.2-3.1.2-4.6,0-2.3.2-4.4.3-6.7l.3-5.4h0Z"/>
                <rect class="st7" x="253.5" y="115.9" width="1.5" height=".8" transform="translate(-15.9 188.4) rotate(-39.5)"/>
                <path class="st7" d="M251.5,119.8c-.6-.5.4-1.6.7-1.3.4.5-.4,1.3-.7,1.3Z"/>
              </g>
            </g>
          </g>
          <path class="st7" d="M82.1,48.6c.3-.6.8-.8,1.5-1l20.9-5.4c-.5.7-1.5.6-2.3.9l-7.4,2-6.8,2-5.9,1.5h0Z"/>
          <path class="st7" d="M104.9,42.3l8-1.8c-1.5,1.2-5.6,1.8-8,1.8Z"/>
          <path class="st6" d="M279.7,39.9c.4,0,.9,0,1.1-.5l5.3,1.2c0,.1-.2.2-.2.2l-6.1-1h0Z"/>
        </g>
      </g>
    </g>
  </g>
</svg>