<?xml version="1.0" encoding="UTF-8"?>
<svg id="Layer_1" xmlns="http://www.w3.org/2000/svg" version="1.1" viewBox="0 0 316.3 222.8">
  <!-- Generator: Adobe Illustrator 30.6.0, SVG Export Plug-In . SVG Version: 2.1.4 Build 109)  -->
  <defs>
    <style>
      .st0 {
        fill: #153447;
      }

      .st1 {
        fill: #fff;
      }

      .st2 {
        fill: #f2cc6d;
      }

      .st3 {
        fill: #eba800;
      }
    </style>
  </defs>
  <path class="st1" d="M79.1,84.4c20.6,7.2,31.9-6.7,46.6-4.7,18.6,2.6,13.4,12.7,22.6,17.8s19.2,4,24.6-3.2c10.5-14,26.2-18.2,40.4-14,36.6,11,31.5,13.7,32.7,30.1.9,13.2-5.4,20.1-37.1,23.3-17.1,1.7-28.4-10.9-43.6-3.9s-13.1,14.7-31.7,15.4-17.7-8.9-52.5-.7c-19,7.7-81.1,11.3-81.1,11.3v-83.9s51,2.8,79.2,12.6h0Z"/>
  <g>
    <path class="st3" d="M254.4,136.5c-.8-.1-1.5-.2-2.1-.3.3-1.8.6-3.7.9-5.7.5.2,1,.4,1.6.6.6.2,1.4.4,2.1.6-.2,1.8-.5,3.5-.9,5.2-.6-.1-1.1-.2-1.6-.4Z"/>
    <path class="st3" d="M250.1,144.8s0,0,0,0c.8-2.4,1.4-5,2-7.7.5.3,1.1.6,1.7,1,.5.2,1.1.5,1.7.8-.6,2.3-1.3,4.6-2,6.8-1.2-.2-2.4-.5-3.4-.8Z"/>
    <path class="st3" d="M244.7,88.7c-1,.3-1.9.6-2.8.8,0,0-.1,0-.2,0-1.8-2.9-3.7-5.8-5.4-8.8,1.1,0,2.3-.2,3.6-.4.6,1.1,1.3,2.3,2,3.5,1,1.6,1.9,3.2,2.9,4.9Z"/>
    <path class="st3" d="M250.3,97.9c-1,.4-2,.7-2.8,1,0,0,0,0-.1,0-1.4-2.7-3-5.3-4.6-7.9,1,0,2.1-.2,3.2-.4.9,1.5,1.9,3,2.8,4.6.5.9,1.1,1.9,1.6,2.8Z"/>
    <path class="st3" d="M248.5,152.4c-.4,0-.7-.2-1.1-.2.8-1.9,1.5-3.8,2.2-5.9.9.5,2,1,3.1,1.5-.7,1.8-1.4,3.5-2,5.2-.8-.2-1.5-.4-2.2-.7Z"/>
    <path class="st3" d="M242.4,181.1c-.7,0-1.4-.2-2.1-.3-.4,0-.8-.1-1.1-.2,0-.2,0-.5,0-.7,0-2.1.2-4.1.5-6,.6.3,1.2.6,1.9.9.4.2.9.3,1.4.5-.1.7-.2,1.4-.3,2.1-.1,1.3-.2,2.5-.3,3.7Z"/>
    <path class="st3" d="M246.9,206.1c-.2.1-.4.3-.6.4-1.2-1.8-2.4-3.8-3.4-6.1.3,0,.6,0,.9-.1.4,0,.8-.2,1.1-.3.8,2.1,1.7,4,2.7,5.6-.3.2-.5.3-.8.5Z"/>
    <path class="st3" d="M243.3,198.6c-.3.1-.7.3-1,.4-.9-2.2-1.6-4.7-2.1-7.5,0,0,.2,0,.2,0,.8.1,1.6.2,2.4.2.4,2.3.9,4.4,1.5,6.4-.3.1-.7.3-1,.4Z"/>
    <path class="st3" d="M240.6,189.7c-.3,0-.5,0-.7,0-.4-2.3-.6-4.7-.7-7.4.2,0,.4.2.6.3.8.2,1.6.4,2.4.6,0,2.3,0,4.5.3,6.5-.7,0-1.3,0-1.9,0Z"/>
    <path class="st3" d="M238.7,78.2c-1.2.4-2.3.6-3.3.8-1.7-3-3.3-6.1-4.7-9.4,1,0,2.2.1,3.4,0,.1,0,.3,0,.4,0,.6,1.2,1.1,2.5,1.8,3.8.8,1.6,1.6,3.2,2.5,4.8Z"/>
    <path class="st3" d="M246.1,158.7c-.5,0-.9-.2-1.3-.3.7-1.7,1.5-3.5,2.2-5.3.2.2.5.4.8.6.6.4,1.3.8,2,1.3-.6,1.4-1.2,2.8-1.9,4.2-.7-.2-1.3-.4-1.9-.5Z"/>
    <path class="st3" d="M230.8,59.8c.7,2.4,1.6,4.9,2.7,7.5-1.3.3-2.4.5-3.5.5-1-2.6-1.9-5.3-2.5-8.2.4,0,.8.1,1.2.2.7,0,1.4,0,2.1,0Z"/>
    <path class="st3" d="M292.9,181.2c-.6,0-1.2,0-1.8.2-.6.2-1.1.4-1.6.7-.5.3-.9.6-1.2.9-.3.4-.5.7-.7.9-.1.2-.2.4-.2.4,0,0,.2,0,.4,0,.2,0,.6-.1,1-.2.4-.1.8-.2,1.3-.3.5-.1,1-.2,1.5-.3.5-.2,1-.3,1.4-.4.5-.2.9-.3,1.3-.4,0,0,0,0,0,0,1,1.6,1.8,3.3,2.3,5.2-.4-.2-.9-.4-1.4-.6-.7-.1-1.3-.2-1.9-.2-.6,0-1.2.2-1.7.3-.5.2-.8.4-1.1.5-.2.2-.4.3-.4.3,0,0,.2,0,.4.1.3,0,.7.1,1.1.3.4,0,.9.2,1.4.3.5,0,1,.2,1.6.4.5,0,1.1.2,1.6.4.3,0,.6.1.9.2.3,1.6.5,3.3.4,5,0,0-.1-.1-.2-.2-.6-.4-1.2-.7-1.8-1-.7-.2-1.4-.3-2-.3-.7,0-1.3.1-1.8.2-.5.2-.9.4-1.2.5-.3.2-.4.3-.4.3,0,0,.2,0,.5.1.3,0,.7.1,1.1.3.5,0,1,.2,1.5.4.5.1,1.1.3,1.6.5.6.1,1.1.3,1.6.6.4.1.7.2,1,.4-.1,1.2-.3,2.4-.6,3.6-.3.8-.6,1.5-.9,2.3-.1.3-.3.6-.5.9,0-.2-.2-.3-.3-.5-.5-.5-1-1.1-1.5-1.6-.6-.4-1.3-.8-1.9-1.2-.7-.3-1.3-.5-1.9-.6-.6,0-1-.1-1.4-.1-.3,0-.5,0-.5,0,0,0,.1.1.4.3.3.2.6.5,1,.8.4.3.9.7,1.4,1.1.5.4,1,.8,1.5,1.2.5.4,1.1.8,1.5,1.2.3.2.6.4.8.7-.6.9-1.2,1.8-1.9,2.7-.6.7-1.3,1.5-2,2.1-.2-.6-.5-1.3-.8-1.9-.4-.6-.8-1.2-1.3-1.7-.5-.5-1-.9-1.4-1.2-.5-.3-.9-.5-1.2-.6-.3-.1-.5-.2-.5-.2,0,0,0,.2.2.5.2.3.4.7.6,1.1.3.4.5.9.8,1.5.3.5.6,1.1.9,1.7.4.5.7,1.1,1,1.6.1.1.2.3.3.4-.5.4-1,.8-1.5,1.1-1,.7-2.1,1.4-3.3,1.9,0-.3,0-.7,0-1-.2-.8-.4-1.5-.6-2.2-.3-.7-.6-1.3-1-1.8-.4-.5-.7-.8-.9-1.1-.3-.2-.4-.3-.4-.3,0,0,0,.2,0,.5,0,.3.2.8.2,1.3.1.5.2,1.1.3,1.8.1.6.2,1.3.3,2,.1.5.2,1.1.2,1.6-.4.1-.7.3-1.1.4-1.6.6-3.2,1-4.9,1.3,0-.3.1-.5.2-.8,0-.8,0-1.7,0-2.4-.1-.8-.2-1.5-.4-2.1-.2-.6-.4-1.1-.5-1.4-.2-.3-.3-.5-.3-.5,0,0,0,.2-.1.6,0,.4-.1.9-.2,1.4,0,.6-.1,1.3-.3,2,0,.7-.2,1.5-.3,2.2,0,.5-.1.9-.2,1.4,0,0,0,0-.1,0-2.3.3-4.6.3-6.9,0,0,0,0,0,0,0,.6,0,.8,0,.8,0-4.5,0-9.1-1.2-12.8-3.9-3.7-2.6-6.5-6.4-8.3-10.5-1.9-4.1-2.9-8.6-3.3-13.1-.2-2.3-.2-4.5-.1-6.8.1-2.3.3-4.5.7-6.8.8-4.5,2-8.9,3.8-13,1.8-4.1,3.8-8.2,5.4-12.5,1.6-4.2,3-8.5,4-13,1-4.4,1.5-9,1.4-13.5,0-9.1-2.8-18-6.9-26-1.1-2-2.3-3.9-3.4-5.9-1.2-1.9-2.4-3.8-3.6-5.8-2.4-3.9-4.7-7.8-6.7-11.8-1.1-2-2-4.1-3-6.1-.9-2.1-1.8-4.1-2.6-6.3-.8-2.1-1.4-4.3-2-6.5-.5-2.2-1-4.4-1.1-6.7-.4-4.5-.2-9.1,1.1-13.5,1.3-4.4,3.3-8.4,5.8-12.2,0,0-.6.8-2.3,3.2-.5.6-.8,1.4-1.3,2.2-.4.9-1.1,1.8-1.5,3.1-1,2.4-2.2,5.4-2.6,9.4-.6,3.9-.6,8.8.7,14.3.1.7.3,1.3.5,2-.5,0-1,.1-1.5.2-.6,0-1.1.2-1.6.2-.6-3.4-1-7-1-10.9,0-8.8,3.4-16.6,6.3-21.8.4-.4.8-.8,1.3-1.3.6-.6,1.2-1.2,1.9-1.9.6-.6,1.2-1.2,1.9-1.9.6-.6,1.2-1.2,1.8-1.8,1.2-1.1,2.3-2.2,3.3-3.2.9-.9,1.8-1.8,2.4-2.3.6-.6.9-.9.9-.9,0,0-.5.1-1.3.4-.8.2-1.9.6-3.2,1.3-.9.4-1.9,1-2.9,1.7,1.2-4,.5-7.5.5-9s1.3-1.7,3-1.7,4.2.8,6.2,2.9c3.8,4,8.2,6.8,20.4,6.8,0,0,.4,2.7,2,5.4-.4,0-.8-.1-1.2-.2-1-.1-2-.2-3-.2-1.9,0-3.6-.2-5.1-.3-1.5-.1-2.7-.4-3.5-.6-.8-.3-1.4-.4-1.4-.4,0,0,.3.4,1,1,.7.6,1.8,1.4,3.4,2,1.5.6,3.3,1.1,5.2,1.4.9.2,1.9.3,2.9.5,1,.2,1.9.3,2.8.6.9.2,1.8.5,2.7.7.8.3,1.6.7,2.4,1.1,0,0,.1,0,.2.1,2.3,2.1,4.4,5.9,6.4,9.6-1.3-1.8-2.7-3.5-4.3-4.9-1.7-1.4-3.7-2.3-5.5-2.4-1.8,0-3.2.4-4,1-.4.3-.7.5-.9.7-.2.2-.3.3-.3.3,0,0,.1,0,.3-.2.2-.1.5-.4,1-.5.9-.4,2.2-.7,3.8-.4,1.6.2,3.3,1.1,4.7,2.5,1.5,1.3,2.8,3.1,4.1,4.9,1.3,1.8,2.7,3.7,4.2,5.2.8.8,1.6,1.5,2.4,2.1.1.1.2.2.3.3,4.1,3.7,12.6,8.4,14.8,9.6-.2.1-.4.3-.5.4-.3.3-.5.5-.6.7-.1.2-.2.3-.2.3,0,0,.1,0,.3,0,.2,0,.5-.1.8-.2.3-.1.7-.2,1.1-.3.4-.1.8-.2,1.2-.2.4-.1.8-.2,1.2-.2.1,0,.2,0,.4,0,2,.2,4.1,1,4.4,3.2l-4.4-.3,4,2.8c0,.1,0,.3-.2.4-.4,1.1-1,1.9-1.5,2.5-.4,0-.7.2-1.2.3-.7.1-1.6.3-2.2.2-.3,0-.7-.1-.9-.2-.3-.1-.6-.3-.9-.5-.3-.2-.6-.5-.8-.7-.3-.3-.5-.6-.7-.9-.4-.7-.8-1.4-1-2.1-.3-.7-.5-1.4-.6-1.8-.2-.5-.3-.8-.3-.8,0,0-.2.2-.4.7-.2.5-.5,1.1-.7,2-.2.9-.2,2,.2,3.2,0,.2.1.4.2.5-.6,0-1.2,0-1.8,0-1,0-2,0-3.2-.1-2.3-.4-4.8-1.4-7.4-2.9-1.3-.7-2.7-1.5-4.2-2.3-1.5-.8-3.1-1.4-4.9-1.9-1.7-.5-3.4-.8-5-1-1.6-.3-3.1-.6-4.5-.9-2.9-.7-5.5-1.8-7.6-2.8-2.2-1.1-3.9-2.1-5.1-2.9-1.2-.8-1.9-1.3-1.9-1.3,0,0,.5.7,1.4,1.8s2.5,2.6,4.5,4.2c1.6,1.2,3.6,2.4,5.9,3.3-2.4.5-4.7,1.4-6.8,2.3-.1,0-.3.1-.4.2,0,0,0-.1-.1-.2l-.3.3c-1.2.5-2.2.9-3.2,1.1-1.2.3-2.3.1-3.5-.3-1.2-.4-2.4-1.2-3.6-2.1-.6-.4-1.1-.9-1.7-1.4-.5-.5-1.1-1-1.6-1.5-4.1-4.3-7.2-9.8-9.8-15.7.2,3.2,1.1,6.4,2.2,9.4,1.2,3,2.8,6,4.9,8.6.5.7,1.1,1.3,1.7,1.9.6.6,1.2,1.2,1.9,1.7,1.3,1.1,2.7,2.1,4.5,2.8,1.3.6,2.9.9,4.5.8,6.9,4.3,13.3,9.8,18.8,16.3-1.5-3.2-3.2-6.3-5.1-9.4,8.9,9.6,19.7,25.3,19.7,45,0,33.8-35.4,42.7-35.4,74.4s5.8,13.6,12.5,15.8c.9.3,1.7.6,2.6.8,3.3.5,6.6.5,9.8-.7,1.6-.6,3.1-1.4,4.5-2.5,1.4-1.1,2.5-2.5,3.3-4.1,1.7-3.1,2.1-6.9,1-10.4-.6-1.7-1.6-3.4-3-4.6-1.4-1.1-3-2.1-4.9-2.4-1.9-.4-3.9,0-5.5,1.2-1.6,1.1-2.8,2.9-2.7,5,0,1,.4,2,.9,2.6.4.7,1,1.4,1.7,1.9.9.7,2.1,1.1,3.1,1,0,0,0,0,0,0,0,0,.1,0,.2,0,0,0,.1,0,.2,0,.2,0,.3,0,.5-.1,0,0,0,0,.1,0,0,0,.1,0,.2,0,0,0,.2,0,.3,0,0,0,0,0,0,0,.9-.5,1.5-1.4,1.5-2.5,0-1.6-1.3-2.9-2.9-2.9s-2.8,1.2-2.9,2.7c-.1-.2-.2-.5-.3-.7-.2-.7-.3-1.1-.2-1.7.1-1,.8-1.7,1.7-2.2,0,0,0,.2,0,.3,0,.1.1.3.1.4,0,.1.1.2.2.3,0,0,.1,0,.1,0,0,0,0,0,.1,0,0,0,.2-.1.2-.2,0,0,.2-.2.2-.3,0-.1,0-.3,0-.4,0-.1,0-.2,0-.3.8-.2,1.6-.2,2.4,0,1,.3,1.9.8,2.7,1.6-.2,0-.4.1-.6.2-.2.1-.4.2-.6.3-.2,0-.3.3-.5.4-.1.1-.2.3-.3.3,0,0-.1.2-.1.2,0,0,0,0,.2,0,.1,0,.3,0,.5,0,.2,0,.4,0,.6,0,.2,0,.4-.1.7-.2.2-.1.4-.2.6-.3,0,0,.2-.1.2-.2.6.7,1.1,1.5,1.4,2.5.3.8.4,1.7.4,2.6-.2,0-.5-.2-.7-.2-.3,0-.6,0-.8,0-.2,0-.4.1-.6.2-.1,0-.2.1-.2.1,0,0,0,0,.2.2.1,0,.3.2.4.3.2.1.4.2.6.4.2.1.4.2.6.4.1,0,.2.1.4.2,0,.5-.2.9-.3,1.3,0,0,0,.1-.1.2-.6,1-1.5,1.6-2.8,2.1,0,0-.2,0-.2,0,0-.4-.1-.8-.2-1.2-.2-.4-.3-.7-.5-1-.2-.3-.4-.5-.6-.6-.2-.1-.3-.2-.3-.2,0,0,0,.1-.1.3,0,.2-.1.4-.2.7,0,.3,0,.6-.2,1,0,.3,0,.7,0,1,0,.2,0,.3,0,.4-.6,0-1.3.2-2,.2-.7,0-1.5,0-2.2-.1-.3,0-.6-.1-1-.2,0,0,0,0,0,0,.2-.5.4-1,.5-1.5,0-.5,0-1,0-1.3,0-.4-.2-.7-.3-.9-.1-.2-.2-.3-.2-.3,0,0,0,.1-.2.3,0,.2-.3.5-.5.7-.1.3-.3.6-.6,1-.2.3-.4.7-.6,1,0,.2-.2.4-.3.5-1-.4-2-.8-2.8-1.3-.3-.2-.5-.3-.8-.5-.7-.9-1.3-1.8-1.7-2.8.1,0,.3,0,.5,0,.5-.1.9-.3,1.4-.4.4-.3.9-.5,1.2-.8.3-.4.6-.7.9-1,.2-.3.3-.6.4-.9,0-.2.1-.4.1-.4,0,0-.1,0-.4,0-.2,0-.5.1-.9.2-.3.1-.7.3-1.1.4-.4.2-.8.3-1.2.5-.4.2-.8.4-1.1.6-.1,0-.3.2-.4.3-.7-2.4-.7-5,0-7.5t0,0c.3.3.7.6,1.1,1,.4.2.9.4,1.3.5.5,0,.9.1,1.3.1.4,0,.7-.1.9-.2.2,0,.3-.1.3-.1,0,0,0,0-.3-.3-.2-.1-.4-.3-.6-.6-.3-.2-.6-.4-.9-.7-.3-.2-.6-.4-1-.7-.4-.2-.7-.4-1-.6-.2,0-.3-.2-.5-.2,1-1.9,2.5-3.6,4.8-4.8,0,.5,0,.9,0,1.3.2.4.4.8.6,1.2.3.4.5.6.8.9.3.2.5.4.7.5.2,0,.3.1.3.1,0,0,0-.1,0-.4,0-.2,0-.5,0-.8,0-.3,0-.7-.1-1,0-.3-.2-.7-.2-1.1-.1-.3-.2-.6-.3-.9,0-.2-.1-.4-.2-.7,1.9-.8,4.2-1.2,6.9-1.3,0,0-.1,0-.2.1-.3.4-.5.9-.8,1.4-.1.5-.2,1.1-.2,1.5,0,.5.2,1,.3,1.3.2.4.4.6.5.8.2.2.3.3.3.3,0,0,0-.1.1-.4,0-.2.1-.5.3-.8,0-.3.2-.7.3-1,0-.4.2-.7.4-1.1,0-.4.2-.7.3-1.1,0-.4.2-.7.3-1,0,0,0,0,0,0,2.5.1,4.8.7,6.8,1.6-.3.1-.7.3-1,.5-.5.3-.9.7-1.3,1.1-.3.4-.6.9-.8,1.2-.1.4-.2.8-.3,1,0,.3,0,.4,0,.4,0,0,.1,0,.4-.2.2-.1.5-.3.9-.5.3-.2.7-.4,1.1-.6.4-.2.8-.5,1.2-.7.4-.3.7-.5,1.1-.7.2-.2.4-.3.7-.4,1.6,1.1,3.1,2.4,4.2,3.9-.2,0-.4,0-.7-.1ZM273.5,30.4c-2.2,0-4,1.8-4,4s1.8,4,4,4,4-1.8,4-4-1.8-4-4-4ZM277.2,39.4c-.4.1-.9.3-1.6.3-.7,0-1.4.1-2.2,0-.8,0-1.6-.3-2.4-.7-.8-.3-1.5-.8-2-1.4-.6-.5-1.1-1.2-1.4-1.7-.4-.6-.6-1.1-.7-1.5-.2-.4-.2-.6-.2-.6,0,0,0,.2,0,.7,0,.4,0,1,.3,1.7.3.7.6,1.5,1.2,2.2.6.7,1.4,1.4,2.3,1.8.9.4,1.9.6,2.9.6.9,0,1.8-.2,2.5-.4.7-.3,1.2-.6,1.5-.9.3-.3.5-.4.5-.4,0,0-.2,0-.6.2ZM288.8,46.4c.8.6,1.7,1.2,2.5,1.8.9.6,1.8,1.1,2.7,1.5.9.5,1.7.9,2.4,1.2.7.3,1.3.5,1.8.7.4.2.7.2.7.2,0,0-.2-.1-.6-.3-.4-.2-1-.5-1.7-.9-.7-.4-1.5-.8-2.3-1.3-.8-.5-1.7-1-2.6-1.6-.9-.6-1.7-1.1-2.5-1.7-.8-.6-1.6-1.1-2.2-1.5-.6-.5-1.2-.9-1.5-1.1-.4-.3-.6-.4-.6-.4,0,0,.2.2.5.5.3.3.8.8,1.4,1.3.6.5,1.3,1.1,2.1,1.7ZM263.6,49.5c.6.3,1.4.8,2.5,1.2,1.1.4,2.3.8,3.7,1,1.4.3,2.9.5,4.4.7,1.5.2,3,.4,4.3.7,1.4.3,2.6.7,3.6,1.1,1,.4,1.8.9,2.4,1.3.5.4.8.6.8.6,0,0-.3-.3-.8-.7-.5-.4-1.3-1-2.3-1.5-1-.5-2.3-1-3.7-1.3-1.4-.3-2.9-.6-4.4-.8-1.5-.2-3-.3-4.4-.6-1.4-.2-2.7-.5-3.7-.8-1.1-.3-1.9-.7-2.5-1-.6-.3-.9-.5-.9-.5,0,0,.3.2.9.6ZM249.2,198c.7-.6,1.4-1.2,1.9-1.7.5-.6.9-1.1,1.1-1.4.2-.4.3-.6.3-.6,0,0-.2.1-.6.3-.4.2-.9.5-1.5.8-.6.4-1.3.7-2.1,1-.5.2-1,.5-1.5.7.2.7.4,1.3.6,2,.6-.3,1.3-.7,1.8-1.1ZM245.7,191.5c.2,0,.5,0,.7-.1.9-.3,1.7-.6,2.4-.9.7-.4,1.2-.7,1.6-1,.3-.3.5-.5.5-.5,0,0-.3,0-.7,0-.4,0-1,.2-1.8.2-.7.1-1.5.2-2.4.3-.2,0-.4,0-.6,0,0,.6.1,1.3.2,1.9ZM245.4,183.4c.2,0,.4,0,.6,0,1-.1,1.9-.3,2.7-.5.8-.2,1.4-.5,1.8-.7.4-.2.6-.3.6-.3,0,0-.3,0-.7,0-.5,0-1.1,0-1.9,0-.7,0-1.6,0-2.5-.2-.2,0-.3,0-.5,0,0,.6,0,1.3-.1,1.9ZM246.2,176c.3,0,.7,0,1,.1.9,0,1.8,0,2.5,0,.7-.1,1.4-.2,1.8-.3.4-.1.7-.2.7-.2,0,0-.2,0-.7-.2-.4,0-1-.2-1.7-.4-.7-.1-1.5-.3-2.4-.5-.3,0-.6-.1-.9-.2-.1.6-.3,1.3-.4,1.9ZM237.7,27.9c-.1-.5-.2-.8-.2-.8,0,0,0,.3,0,.8,0,.5.2,1.3.3,2.1.2.9.4,1.9.7,3,.3,1.1.7,2.2,1.2,3.3.5,1.1,1,2.2,1.6,3.1.5,1,1.1,1.9,1.6,2.6.5.7,1,1.3,1.3,1.7.3.4.5.6.5.6,0,0-.2-.2-.4-.7-.3-.4-.7-1.1-1.1-1.8-.5-.8-.9-1.7-1.5-2.6-.5-1-1-2.1-1.5-3.1-.5-1.1-.9-2.2-1.3-3.2-.3-1-.7-2-.9-2.9-.2-.9-.4-1.6-.6-2.1ZM243.9,15.3c-.7.6-1.4,1.1-2,1.7-.6.6-1.1,1.2-1.6,1.7-.4.5-.8,1-1,1.3-.2.3-.3.5-.3.5,0,0,.2-.1.5-.3.3-.2.8-.5,1.3-.9.5-.4,1.1-.8,1.8-1.3.6-.5,1.3-1,2.1-1.5.7-.5,1.4-1,2-1.5.6-.5,1.3-1,1.8-1.3.5-.4,1-.7,1.3-1,.3-.3.5-.4.5-.4,0,0-.2,0-.6.2-.4.1-.9.3-1.5.5-.6.3-1.3.6-2.1,1-.7.4-1.5.9-2.2,1.4ZM254.2,12.7c-.3-.1-.8-.3-1.3-.6-.5-.2-1.1-.6-1.8-.9-.6-.4-1.3-.8-1.9-1.2-.6-.4-1.2-.9-1.8-1.4-.5-.5-1.1-.9-1.5-1.3-.4-.4-.8-.8-1-1-.2-.3-.4-.4-.4-.4,0,0,.1.2.3.5.2.3.5.7.8,1.2.4.5.8,1,1.4,1.5.5.5,1.2,1,1.8,1.5.7.4,1.3.8,2,1.2.7.3,1.3.6,1.9.8.6.2,1,.3,1.4.4.3,0,.5.1.5.1,0,0-.2,0-.5-.2ZM255.3,16.4c1,.4,2.2.8,3.3,1.2,1.2.3,2.4.5,3.5.6,1.1,0,2.2,0,3.1,0,.9,0,1.6-.2,2.1-.3.5-.1.8-.2.8-.2,0,0-.3,0-.8,0-.5,0-1.2-.1-2.1-.2-.9,0-1.9-.2-2.9-.4-1.1-.2-2.2-.4-3.3-.7-1.1-.3-2.2-.6-3.2-.9-1-.3-2-.7-2.8-1-.8-.3-1.5-.6-2-.8-.5-.2-.8-.3-.8-.3,0,0,.2.2.6.5.4.3,1,.8,1.7,1.3.8.5,1.7,1,2.7,1.5ZM251.7,31.8c0-.9.1-1.9.3-2.9.1-1,.3-1.9.6-2.8.3-.9.5-1.7.8-2.4.3-.7.5-1.3.7-1.7.2-.4.3-.6.3-.6,0,0-.1.2-.4.6-.2.4-.6.9-.9,1.6-.3.7-.7,1.5-1,2.4-.3.9-.5,1.9-.7,2.9-.1,1-.2,2-.2,3,0,1,0,1.8.2,2.6.1.8.3,1.4.4,1.8.1.4.2.7.2.7,0,0,0-.2,0-.7,0-.4-.1-1.1-.2-1.8,0-.7,0-1.6,0-2.5ZM257.8,52.1c1.2.7,2.2,1.3,2.9,1.6.7.3,1.2.4,1.2.4,0,0-.4-.2-1-.7-.7-.4-1.6-1.1-2.6-2-1-.9-2.1-1.9-3.1-3.2-1-1.3-2-2.7-2.7-4.3-.8-1.5-1.4-3.2-1.7-4.8-.4-1.6-.6-3.1-.6-4.4,0-1.3,0-2.4,0-3.2,0-.8.1-1.2.1-1.2,0,0-.2.4-.4,1.2-.2.8-.4,1.9-.6,3.3,0,1.4,0,3,.2,4.7.3,1.7.9,3.5,1.6,5.2.8,1.7,1.9,3.2,3,4.5,1.2,1.3,2.4,2.3,3.6,3.1ZM236.6,33.7c.3.9.6,2.1,1.2,3.5.6,1.4,1.3,3.1,2.1,4.8.9,1.7,2,3.5,3.1,5.2,1.2,1.7,2.5,3.3,3.8,4.8,1.3,1.4,2.6,2.7,4,3.6,1.4.8,2.7,1.1,3.6,1.1.5,0,.8,0,1-.1.2,0,.4-.1.4-.1,0,0-.5.1-1.4,0-.9-.1-2.1-.5-3.2-1.5-1.2-.9-2.3-2.3-3.5-3.7-1.2-1.5-2.4-3.1-3.5-4.8-1.2-1.6-2.3-3.4-3.2-5-1-1.6-1.8-3.2-2.5-4.6-.7-1.4-1.2-2.5-1.6-3.3-.4-.8-.6-1.3-.6-1.3,0,0,.1.5.3,1.4ZM241.5,56.3c-.6,0-1.4,0-2.4,0-1,0-2.1.1-3.3.2-1,.1-2,.2-3.1.3.3.9.5,1.7.9,2.6.9-.2,1.8-.4,2.6-.6,1.2-.4,2.2-.7,3.1-1.1.9-.4,1.6-.7,2.2-1,.5-.3.8-.4.8-.4,0,0-.3,0-.9,0ZM251.2,63.7c-.8,0-1.9.2-3.2.3-1.3.2-2.8.5-4.5.8-1.6.4-3.3.8-5,1.2-.7.2-1.3.4-2,.6.4.8.8,1.6,1.2,2.5.5-.1,1.1-.2,1.6-.3,1.7-.5,3.4-1.1,4.9-1.5,1.5-.6,3-1.1,4.2-1.6,1.2-.6,2.2-1,2.9-1.3.7-.4,1.1-.6,1.1-.6,0,0-.4,0-1.2,0ZM261,71.2c-.9.2-2.2.5-3.8.9-1.5.5-3.3,1-5.3,1.6-1.9.7-3.9,1.4-5.9,2-1.3.5-2.7,1-4,1.4.4.8.9,1.5,1.4,2.3,1.2-.3,2.4-.7,3.6-1.1,2-.8,4-1.6,5.9-2.4,1.8-.9,3.5-1.7,5-2.4,1.4-.8,2.6-1.4,3.4-1.9.8-.5,1.3-.8,1.3-.8,0,0-.5.1-1.5.3ZM269.5,79.4c-1,0-2.5.2-4.3.6-1.7.5-3.7,1.1-5.7,2-2,.9-4.1,1.9-6.2,2.9-1.7.9-3.5,1.8-5.2,2.5,0,0,0,0,0,0,.4.7.9,1.4,1.4,2.1,1.7-.6,3.4-1.3,5.1-2.1,2.1-1.1,4.1-2.2,6-3.2,1.9-1.1,3.6-2,5.2-2.7,1.5-.8,2.9-1.3,3.8-1.6,1-.4,1.5-.5,1.5-.5,0,0-.6,0-1.6,0ZM275.5,89.6c-1,.2-2.4.6-4.1,1-1.7.5-3.6,1.1-5.7,1.7-2.1.7-4.3,1.4-6.5,2.2-1.8.7-3.7,1.5-5.4,2.2.4.7.8,1.5,1.1,2.3,1.7-.6,3.5-1.2,5.3-1.8,2.2-.9,4.3-1.7,6.3-2.5,2-.9,3.8-1.7,5.4-2.5,1.6-.8,2.9-1.5,3.8-1.9.9-.5,1.4-.8,1.4-.8,0,0-.6.1-1.6.3ZM283.8,103.9c-.3,0-.7-.3-1.3-.4-1.1-.3-2.7-.6-4.7-.6-2,0-4.3.3-6.7.7-2.4.5-4.9,1.3-7.4,2-1.8.6-3.6,1.2-5.3,1.7.3.8.5,1.6.7,2.4,1.8-.4,3.6-.9,5.4-1.5,2.4-.8,4.8-1.7,7.1-2.3,2.2-.7,4.4-1.2,6.2-1.5,1.8-.4,3.4-.4,4.6-.4.6,0,1,0,1.3,0,.3,0,.5,0,.5,0,0,0-.2,0-.4-.2ZM286,116.1s-.6.1-1.7.3c-1,.3-2.6.6-4.4.9-1.8.4-3.9.7-6.2,1-2.3.4-4.7.6-7.1.7-1.9.2-3.8.3-5.7.3,0,.8.1,1.7.2,2.5,1.9,0,3.8,0,5.7,0,2.5-.3,5-.7,7.3-1.1,2.3-.6,4.4-1.2,6.2-1.9,1.7-.7,3.2-1.4,4.1-1.9,1-.5,1.5-.8,1.5-.8ZM281.9,132.5c.9-.3,1.4-.4,1.4-.4,0,0-.5,0-1.5-.2-.9,0-2.3-.1-3.8-.3-1.6,0-3.4-.2-5.4-.4-2-.1-4-.3-6.1-.5-1.9-.1-3.8-.3-5.6-.5,0,.8-.2,1.6-.3,2.5,1.8.3,3.7.6,5.6.9,2.1.1,4.3.2,6.3.2,2-.1,3.9-.3,5.5-.5,1.6-.3,2.9-.5,3.8-.7ZM274.2,141.9c.7-.1,1.1-.2,1.1-.2,0,0-.4-.1-1.1-.4-.7-.2-1.7-.5-2.8-.8-1.2-.3-2.5-.6-4-1-1.5-.3-3-.7-4.5-1.1-1.1-.2-2.2-.4-3.2-.7-.2.8-.4,1.7-.6,2.5,1,.3,2.1.6,3.2.9,1.6.3,3.2.6,4.7.8,1.5,0,3,.2,4.2.2,1.2,0,2.3-.1,3-.2ZM267.7,149.3c.6-.2,1-.3,1-.3,0,0-.4,0-1-.3-.6-.1-1.5-.3-2.6-.6-1-.2-2.3-.4-3.5-.8-1.3-.2-2.7-.5-4-.9-.1,0-.3,0-.4,0-.3.9-.6,1.8-.9,2.6.2,0,.5.1.7.2,1.5.2,2.9.4,4.3.6,1.4,0,2.7,0,3.8,0,1.1-.1,2-.3,2.6-.4ZM262.9,157.8c.5-.1.9-.2.9-.2,0,0-.3-.1-.8-.4-.5-.2-1.2-.5-2.1-.8-.9-.3-1.9-.6-2.9-1-1.1-.3-2.2-.7-3.3-1.1-.2,0-.3,0-.5-.1-.1.3-.2.5-.3.8-.3.6-.5,1.2-.8,1.7.2,0,.5.2.7.3,1.2.3,2.4.6,3.6.8,1.2.1,2.3.2,3.2.2.9,0,1.7-.1,2.3-.2ZM257.5,164c.5,0,.7-.1.7-.1,0,0-.2-.1-.6-.4-.4-.2-.9-.5-1.6-.9-.7-.3-1.4-.7-2.3-1.1-.8-.3-1.5-.6-2.3-1-.1.2-.2.5-.3.7-.3.6-.6,1.2-.8,1.8.9.3,1.9.5,2.8.8,1,.1,1.8.2,2.6.3.8,0,1.4,0,1.9,0ZM254.4,169.4c.4-.2.7-.3.7-.3,0,0-.2-.1-.7-.3-.4-.1-1-.3-1.7-.6-.7-.2-1.5-.4-2.4-.6-.6-.1-1.1-.3-1.7-.4-.3.9-.6,1.7-.9,2.6.8,0,1.5.2,2.2.2,1,0,1.8-.1,2.6-.2.8-.2,1.4-.3,1.8-.5ZM254.7,200.9c-.3.2-.8.6-1.4,1-.5.4-1.2.9-1.9,1.3-.6.4-1.2.8-1.8,1.2.3.6.7,1.2,1,1.8.7-.5,1.3-1,1.9-1.6.6-.7,1.2-1.3,1.6-1.9.4-.6.7-1.2.9-1.5.2-.4.3-.6.3-.6,0,0-.2.1-.6.4ZM260.6,206.6c-.2.3-.6.8-1.1,1.3-.4.5-1,1.1-1.6,1.7-.6.6-1.2,1.2-1.9,1.8-.2.2-.4.4-.6.5.6.5,1.1.9,1.7,1.3.1,0,.2-.2.3-.2.7-.7,1.3-1.5,1.9-2.2.5-.8.9-1.6,1.1-2.2.2-.7.4-1.3.5-1.7,0-.4,0-.7,0-.7,0,0-.2.2-.4.5ZM269,209.6c-.1-.4-.2-.7-.2-.7,0,0,0,.2-.2.6-.1.4-.3,1-.6,1.6-.2.7-.5,1.4-.9,2.2-.3.8-.7,1.6-1.2,2.3-.1.3-.3.5-.4.8.3,0,.6.1.9.2.5,0,.9.1,1.2.1,0,0,0,0,.1,0,0,0,0,0,0-.1.4-.9.8-1.8,1.1-2.8.2-.9.3-1.8.3-2.6,0-.8-.1-1.4-.2-1.8Z"/>
    <path class="st3" d="M254.3,212.9s0,0-.1,0c0,0,0,0,0,0-1.7-.8-3.2-1.8-4.6-2.7-.7-.8-1.5-1.6-2.2-2.5.1,0,.3,0,.4-.1.3-.2.7-.3,1-.5.6.9,1.2,1.7,1.9,2.4,1.2,1.3,2.4,2.4,3.7,3.3Z"/>
    <path class="st2" d="M231.7,112.2c3.1-.1,6.2,0,9.2.2l-9.4,2.5,10.8.8-12,2.6,10.3.7-10,2.3,11.5.7-9.2,2.4,11.5.6s0,0,0,0l-13,3,13.1.6c0,0,0,.2,0,.2l-12.6,1.9,12.5,1.2s0,0,0,0c-4,.9-8.2,1.5-12.4,1.9,3.4.7,6.9,1.2,10.4,1.5-3.4,1-6.8,1.8-10.3,2.3,3.7.5,7.5.8,11.4.7,0,.2-.1.5-.2.7l-11.3,2,10.3,1.4-7.7,2.3,6.8,1c0,.3-.2.6-.3.9-.3,0-.7,0-1.1,0-1.1,0-2.4,0-3.7.2-.3,0-.5,0-.8,0-2.5,0-3.2-1.2-4.7-8.2-.2-1.1-.5-2.3-.7-3.5-1.7-7.2-1.3-13.3-1-19.8v-1.1c.2-3.2,1.4-6.7,3.5-6.7s1,.1,1.6.4c1.7.7,3.1,1.2,4.5,1.5-2.4.8-4.8,1.6-7.1,2.6Z"/>
    <path class="st3" d="M239.9,172.7c.4-1.8.9-3.6,1.5-5.4.1.1.3.2.5.4.7.4,1.4.8,2.3,1.2,0,0,.1,0,.2,0-.4,1.5-.8,3-1,4.5-.4,0-.8-.2-1.2-.3-.8-.1-1.5-.3-2.2-.4Z"/>
    <path class="st3" d="M252.1,110.6c1,0,2.2-.1,3.3-.2.8,2.9,1.4,5.9,1.7,9.1-1.3,0-2.5,0-3.6-.1-.2-3.1-.7-6-1.5-8.8Z"/>
    <path class="st3" d="M242.4,166.1c-.2,0-.4,0-.6,0,.8-2.3,1.7-4.5,2.7-6.8.3.3.5.5.9.9.5.4,1.1.8,1.7,1.2-.6,1.5-1.2,2.9-1.7,4.4,0,.3-.2.5-.2.8,0,0-.2,0-.2,0-.9-.1-1.7-.2-2.4-.4Z"/>
    <path class="st3" d="M254.7,108.2s0,0,0,.1c-1.1.3-2.2.5-3.2.6-.9-3-2.1-5.8-3.5-8.5,1-.1,2.1-.4,3.2-.6.2.5.5,1,.7,1.5.3.5.5,1.1.8,1.6.3.6.4,1.1.7,1.7.4,1.2.9,2.3,1.3,3.5Z"/>
    <path class="st3" d="M253.3,129.4c.2-2.3.3-4.8.3-7.4s0-.6,0-.9c1.1.2,2.4.4,3.7.6,0,.7,0,1.5,0,2.2,0,2,0,4-.3,5.9-.7,0-1.4-.2-2-.2-.7,0-1.3,0-1.8-.2Z"/>
    <path class="st0" d="M234.7,7.4c0-.6,0-1,0-1.5,0-2.9,2.5-5.9,7.2-5.9s6.8,1.5,9.3,4.2c2.8,3,6.1,5.5,17.4,5.5s3.8,1.5,4.2,3.6c.2,1.4,1.5,5.4,4.2,6.7,4.3,2,7.2,7.3,10.1,12.5,1.7,3.1,3.5,6.3,5,7.7,3.2,2.8,10,6.8,13.4,8.7.2,0,.4,0,.7,0,4.3,0,7.4,1.3,9.1,3.8,1.1,1.6,2,4.3.4,8.2-2.4,5.8-6.6,6.7-8.9,6.7s-4.3-.8-5.6-1.5c-.8,0-2,.1-3.3.1-2.8,0-7.1-.3-11.3-1.9-2.6-1-4.4-1.9-6.1-2.7-3.1-1.6-5-2.5-9.9-2.5s-4,.3-5.5.7c9.4,8.2,28.1,27.8,28.1,55s-10.2,30.7-19.2,41.2c-8.4,9.8-16.3,19.1-16.3,33.1s4.8,10.2,9.8,11.8c-4.6-3.1-7.3-8.5-7.3-13.8s1.8-8.6,5-11.6c2.5-2.3,7-5,14.7-5,14.6,0,22.2,12.1,22.2,24s-2.7,14.2-7.5,19.3c-3.9,4.1-11,9-22.8,9-18.6,0-28.1-8.6-32.8-15.8-9.3-14.2-8.1-35.5-2.1-49.2,1.2-2.8,2.4-5.6,3.4-8.3,0,0,0,0,0,0-1,0-2.1,0-3.4.2-.4,0-.7,0-1.1,0-6.2,0-6.4-6.2-8.1-13.9-1.9-8-1.3-14.8-1-21.7.3-4.7,2.2-9.4,6.2-9.4s1.7.2,2.7.6c1.4.6,2.7,1,3.9,1.3-1.4-3-3.1-6-5.2-9.3-9.8-15.4-15-28.8-16-40.9-1.1-14.3,3.5-27.1,14-39.1,3-3.5,2.7-7.4,2.6-10ZM244.4,168.9c0,0-.1,0-.2,0-.9-.4-1.6-.8-2.3-1.2-.2-.1-.3-.2-.5-.4-.6,1.8-1.1,3.6-1.5,5.4.7.2,1.4.3,2.2.4.4,0,.8.2,1.2.3.3-1.5.6-3,1-4.5ZM245.3,165.8c.5-1.5,1.1-2.9,1.7-4.4-.6-.4-1.2-.8-1.7-1.2-.3-.3-.6-.6-.9-.9-1,2.3-1.9,4.5-2.7,6.8.2,0,.4,0,.6,0,.7.1,1.5.3,2.4.4,0,0,.2,0,.2,0,0-.3.2-.5.2-.8ZM257.3,123.9c0-.7,0-1.5,0-2.2-1.3-.2-2.6-.4-3.7-.6,0,.3,0,.6,0,.9,0,2.6-.1,5.1-.3,7.4.6,0,1.2.1,1.8.2.6,0,1.3.2,2,.2.2-1.9.3-3.9.3-5.9ZM255.4,110.4c-1.2.1-2.3.2-3.3.2.8,2.8,1.3,5.7,1.5,8.8,1.1,0,2.3.1,3.6.1-.3-3.2-.9-6.2-1.7-9.1ZM251.9,101.3c-.3-.5-.5-1-.7-1.5-1.1.3-2.2.5-3.2.6,1.4,2.7,2.6,5.6,3.5,8.5,1-.1,2.1-.3,3.2-.6,0,0,0,0,0-.1-.4-1.2-.9-2.4-1.3-3.5-.2-.6-.4-1.2-.7-1.7-.3-.5-.5-1.1-.8-1.6ZM229.9,67.8c1.1,0,2.3-.2,3.5-.5-1.1-2.6-2-5.1-2.7-7.5-.7,0-1.4,0-2.1,0-.4,0-.8-.1-1.2-.2.7,2.9,1.5,5.6,2.5,8.2ZM234,69.7c-1.2,0-2.3,0-3.4,0,1.4,3.3,3,6.4,4.7,9.4,1-.2,2.2-.5,3.3-.8-.9-1.7-1.7-3.3-2.5-4.8-.6-1.3-1.2-2.6-1.8-3.8-.1,0-.3,0-.4,0ZM239.9,80.3c-1.2.2-2.4.3-3.6.4,1.8,3,3.6,5.9,5.4,8.8,0,0,.1,0,.2,0,.9-.2,1.8-.4,2.8-.8-1-1.7-2-3.3-2.9-4.9-.7-1.2-1.3-2.3-2-3.5ZM242.7,91c1.6,2.6,3.2,5.3,4.6,7.9,0,0,0,0,.1,0,.9-.3,1.8-.6,2.8-1-.5-.9-1.1-1.9-1.6-2.8-.9-1.5-1.8-3.1-2.8-4.6-1.1.2-2.2.4-3.2.4ZM254.8,131.1c-.6-.2-1.1-.4-1.6-.6-.2,2-.5,3.9-.9,5.7.6.1,1.3.2,2.1.3.5.1,1.1.2,1.6.4.4-1.7.7-3.4.9-5.2-.7-.2-1.4-.4-2.1-.6ZM253.8,138c-.7-.4-1.2-.7-1.7-1-.6,2.7-1.2,5.3-2,7.7,0,0,0,0,0,0,1,.3,2.1.5,3.4.8.8-2.2,1.4-4.5,2-6.8-.6-.3-1.2-.5-1.7-.8ZM249.6,146.3c-.7,2-1.4,4-2.2,5.9.3,0,.7.2,1.1.2.6.2,1.4.4,2.2.7.7-1.7,1.4-3.4,2-5.2-1.2-.5-2.2-1.1-3.1-1.5ZM247.8,153.8c-.3-.2-.5-.4-.8-.6-.7,1.8-1.5,3.6-2.2,5.3.4,0,.8.2,1.3.3.6.2,1.2.4,1.9.5.6-1.4,1.2-2.8,1.9-4.2-.7-.4-1.4-.9-2-1.3ZM239.9,182.6c-.2,0-.4-.2-.6-.3,0,2.6.3,5.1.7,7.4.2,0,.5,0,.7,0,.6,0,1.3,0,1.9,0-.2-2.1-.3-4.2-.3-6.5-.8-.2-1.6-.3-2.4-.6ZM241.6,174.9c-.7-.3-1.3-.6-1.9-.9-.3,1.9-.5,3.9-.5,6s0,.5,0,.7c.4,0,.7.1,1.1.2.7.1,1.4.2,2.1.3,0-1.2.2-2.4.3-3.7,0-.7.2-1.4.3-2.1-.5-.1-.9-.3-1.4-.5ZM242.9,191.8c-.8,0-1.6,0-2.4-.2,0,0-.2,0-.2,0,.5,2.8,1.2,5.2,2.1,7.5.3-.1.7-.3,1-.4.3-.1.7-.3,1-.4-.6-2-1.1-4.1-1.5-6.4ZM243.9,200.3c-.3,0-.6,0-.9.1,1,2.3,2.1,4.3,3.4,6.1.2-.1.4-.3.6-.4.3-.2.5-.3.8-.5-1-1.7-1.9-3.6-2.7-5.6-.4.1-.8.2-1.1.3ZM247.7,207.8c-.1,0-.3,0-.4.1.7.9,1.4,1.7,2.2,2.5,1.4,1,2.9,1.9,4.6,2.7,0,0,0,0,0,0,0,0,0,0,.1,0-1.2-.9-2.4-2-3.7-3.3-.6-.7-1.3-1.5-1.9-2.4-.3.2-.7.3-1,.5ZM289.3,177.4c-.2.1-.4.3-.7.4-.4.2-.8.5-1.1.7-.4.2-.8.4-1.2.7-.4.2-.8.4-1.1.6-.4.2-.6.3-.9.5-.2.1-.4.2-.4.2,0,0,0-.1,0-.4,0-.2.1-.6.3-1,.2-.4.5-.8.8-1.2.4-.4.8-.8,1.3-1.1.3-.2.7-.3,1-.5-2-.9-4.2-1.5-6.8-1.6,0,0,0,0,0,0-.1.3-.3.6-.3,1-.1.3-.3.7-.3,1.1-.2.4-.3.7-.4,1.1-.1.3-.3.7-.3,1-.1.3-.2.6-.3.8,0,.2-.1.4-.1.4,0,0-.1,0-.3-.3-.1-.2-.3-.4-.5-.8-.1-.4-.2-.8-.3-1.3,0-.5,0-1,.2-1.5.2-.5.5-.9.8-1.4,0,0,.1,0,.2-.1-2.7,0-5,.6-6.9,1.3,0,.2,0,.4.2.7,0,.3.1.6.3.9,0,.4.1.7.2,1.1,0,.4,0,.7.1,1,0,.3,0,.6,0,.8,0,.2,0,.4,0,.4,0,0-.1,0-.3-.1-.2-.1-.4-.3-.7-.5-.2-.2-.5-.5-.8-.9-.2-.4-.4-.8-.6-1.2,0-.4-.1-.9,0-1.3-2.2,1.2-3.8,2.9-4.8,4.8.2,0,.3.2.5.2.3.2.7.4,1,.6.3.2.6.5,1,.7.3.2.6.5.9.7.3.2.5.4.6.6.2.2.3.3.3.3,0,0-.1,0-.3.1-.2,0-.5.1-.9.2-.4,0-.8,0-1.3-.1-.4-.1-.9-.3-1.3-.5-.4-.3-.8-.6-1.1-1t0,0c-.8,2.4-.8,5.1,0,7.5.1,0,.3-.2.4-.3.4-.2.8-.4,1.1-.6.4-.1.8-.3,1.2-.5.4-.1.8-.2,1.1-.4.4,0,.7-.2.9-.2.2,0,.4,0,.4,0,0,0,0,.1-.1.4,0,.2-.2.5-.4.9-.2.3-.5.6-.9,1-.4.3-.8.6-1.2.8-.5.2-1,.3-1.4.4-.2,0-.3,0-.5,0,.4,1,1,2,1.7,2.8.3.2.5.3.8.5.8.5,1.8.9,2.8,1.3,0-.2.2-.3.3-.5.2-.3.4-.7.6-1,.2-.3.4-.7.6-1,.2-.3.4-.6.5-.7.1-.2.2-.3.2-.3,0,0,0,.1.2.3,0,.2.2.5.3.9,0,.4,0,.8,0,1.3-.1.5-.3,1-.5,1.5,0,0,0,0,0,0,.3,0,.6.2,1,.2.7,0,1.5.1,2.2.1.7,0,1.3,0,2-.2,0-.1,0-.3,0-.4,0-.3,0-.7,0-1,0-.3.1-.7.2-1,0-.3.2-.6.2-.7,0-.2.1-.3.1-.3,0,0,0,0,.3.2.1.1.3.3.6.6.2.3.3.6.5,1,0,.4.1.8.2,1.2,0,0,.2,0,.2,0,1.3-.5,2.1-1.1,2.8-2.1,0,0,0-.1.1-.2.1-.4.2-.9.3-1.3-.1,0-.2-.1-.4-.2-.2-.1-.4-.3-.6-.4-.2-.2-.4-.3-.6-.4-.2-.1-.3-.3-.4-.3-.1-.1-.2-.2-.2-.2,0,0,0,0,.2-.1.1,0,.3-.1.6-.2.2,0,.5,0,.8,0,.2,0,.5.1.7.2,0-.9-.1-1.7-.4-2.6-.3-.9-.8-1.8-1.4-2.5,0,0-.2.1-.2.2-.2.1-.4.2-.6.3-.2,0-.4.1-.7.2-.2,0-.4,0-.6,0-.2,0-.4,0-.5,0-.1,0-.2,0-.2,0,0,0,0,0,.1-.2,0,0,.2-.2.3-.3.1-.1.3-.3.5-.4.2-.1.4-.2.6-.3.2,0,.4-.1.6-.2-.8-.8-1.8-1.3-2.7-1.6-.8-.2-1.6-.2-2.4,0,0,.1,0,.2,0,.3,0,.1,0,.3,0,.4,0,.1-.1.2-.2.3,0,.1-.2.2-.2.2,0,0-.1,0-.1,0,0,0,0,0-.1,0,0,0-.1-.2-.2-.3,0-.1-.1-.2-.1-.4,0,0,0-.2,0-.3-.9.5-1.6,1.3-1.7,2.2,0,.5,0,1,.2,1.7,0,.2.2.5.3.7.1-1.5,1.3-2.7,2.9-2.7s2.9,1.3,2.9,2.9-.6,2-1.5,2.5c0,0,0,0,0,0,0,0-.2,0-.3,0,0,0-.1,0-.2,0,0,0,0,0-.1,0-.2,0-.3,0-.5.1,0,0-.1,0-.2,0,0,0-.1,0-.2,0s0,0,0,0c-1.1,0-2.2-.3-3.1-1-.7-.5-1.2-1.2-1.7-1.9-.5-.7-.9-1.7-.9-2.6,0-2,1.1-3.9,2.7-5,1.6-1.1,3.6-1.5,5.5-1.2,1.9.3,3.6,1.3,4.9,2.4,1.4,1.2,2.4,2.9,3,4.6,1.2,3.5.7,7.3-1,10.4-.8,1.6-2,3-3.3,4.1-1.4,1.1-2.9,1.9-4.5,2.5-3.2,1.2-6.5,1.2-9.8.7-.9-.2-1.8-.4-2.6-.8-6.7-2.2-12.5-7.8-12.5-15.8,0-31.7,35.4-40.5,35.4-74.4s-10.7-35.4-19.7-45c1.9,3,3.6,6.2,5.1,9.4-5.5-6.5-11.9-12-18.8-16.3-1.5,0-3.1-.2-4.5-.8-1.8-.7-3.2-1.7-4.5-2.8-.6-.6-1.3-1.2-1.9-1.7-.6-.6-1.2-1.2-1.7-1.9-2.1-2.7-3.7-5.6-4.9-8.6-1.1-3.1-2-6.2-2.2-9.4,2.5,5.9,5.6,11.4,9.8,15.7.5.6,1.1,1,1.6,1.5.6.5,1.1.9,1.7,1.4,1.2.8,2.4,1.6,3.6,2.1,1.2.4,2.3.6,3.5.3,1-.2,2.1-.6,3.2-1.1l.3-.3s0,.1.1.2c.1,0,.3-.1.4-.2,2.1-.9,4.4-1.8,6.8-2.3-2.3-1-4.2-2.2-5.9-3.3-2.1-1.5-3.6-3-4.5-4.2s-1.4-1.8-1.4-1.8c0,0,.7.5,1.9,1.3,1.2.8,3,1.9,5.1,2.9,2.2,1.1,4.8,2.1,7.6,2.8,1.4.4,2.9.7,4.5.9,1.6.3,3.3.6,5,1,1.7.5,3.4,1.2,4.9,1.9,1.5.7,2.9,1.5,4.2,2.3,2.6,1.4,5.2,2.5,7.4,2.9,1.1.2,2.2.2,3.2.1.6,0,1.3,0,1.8,0,0-.2-.2-.4-.2-.5-.4-1.2-.4-2.3-.2-3.2.2-.9.5-1.6.7-2,.2-.5.4-.7.4-.7,0,0,.1.3.3.8.2.5.4,1.1.6,1.8.3.7.6,1.5,1,2.1.2.3.5.6.7.9.3.3.5.5.8.7.3.2.6.4.9.5.3.1.6.2.9.2.7,0,1.5,0,2.2-.2.4,0,.8-.2,1.2-.3.6-.6,1.1-1.4,1.5-2.5,0-.2,0-.3.2-.4l-4-2.8,4.4.3c-.3-2.2-2.4-3-4.4-3.2-.1,0-.2,0-.4,0-.4,0-.8.1-1.2.2-.4,0-.8.1-1.2.2-.4,0-.8.2-1.1.3-.3,0-.6.1-.8.2-.2,0-.3,0-.3,0,0,0,0-.1.2-.3.1-.2.3-.4.6-.7.2-.1.3-.3.5-.4-2.1-1.2-10.7-5.9-14.8-9.6-.1-.1-.2-.2-.3-.3-.8-.6-1.6-1.3-2.4-2.1-1.5-1.5-2.9-3.4-4.2-5.2-1.3-1.8-2.6-3.6-4.1-4.9-1.5-1.4-3.1-2.3-4.7-2.5-1.6-.3-3,0-3.8.4-.4.2-.8.4-1,.5-.2.2-.3.2-.3.2,0,0,0-.1.3-.3.2-.2.5-.5.9-.7.8-.5,2.3-1.1,4-1,1.8.1,3.8,1,5.5,2.4,1.7,1.4,3,3.1,4.3,4.9-2-3.7-4.1-7.4-6.4-9.6,0,0-.1,0-.2-.1-.7-.4-1.5-.8-2.4-1.1-.8-.3-1.7-.6-2.7-.7-.9-.2-1.9-.4-2.8-.6-1-.2-1.9-.3-2.9-.5-1.9-.4-3.7-.8-5.2-1.4-1.5-.6-2.6-1.4-3.4-2-.7-.6-1-1-1-1,0,0,.5.2,1.4.4.9.2,2.1.5,3.5.6,1.5.2,3.2.2,5.1.3.9,0,1.9.1,3,.2.4,0,.8,0,1.2.2-1.6-2.7-2-5.4-2-5.4-12.2,0-16.7-2.8-20.4-6.8-2-2.1-4.4-2.9-6.2-2.9s-3,.7-3,1.7c0,1.5.7,5.1-.5,9,1-.7,2-1.2,2.9-1.7,1.3-.6,2.4-1,3.2-1.3.8-.2,1.3-.4,1.3-.4,0,0-.3.4-.9.9-.6.6-1.4,1.4-2.4,2.3-1,1-2.1,2-3.3,3.2-.6.6-1.2,1.2-1.8,1.8-.6.6-1.2,1.2-1.9,1.9-.6.6-1.2,1.2-1.9,1.9-.4.4-.8.9-1.3,1.3-3,5.1-6.3,13-6.3,21.8s.4,7.5,1,10.9c.5,0,1-.1,1.6-.2.5,0,1,0,1.5-.2-.2-.7-.3-1.3-.5-2-1.2-5.5-1.2-10.3-.7-14.3.5-4,1.6-7,2.6-9.4.5-1.2,1.1-2.2,1.5-3.1.5-.9.9-1.6,1.3-2.2,1.7-2.4,2.3-3.2,2.3-3.2-2.5,3.8-4.5,7.9-5.8,12.2-1.2,4.4-1.5,9-1.1,13.5.2,2.3.7,4.5,1.1,6.7.6,2.2,1.2,4.4,2,6.5.7,2.1,1.7,4.2,2.6,6.3,1,2,1.9,4.1,3,6.1,2.1,4,4.4,7.9,6.7,11.8,1.2,1.9,2.4,3.8,3.6,5.8,1.2,1.9,2.3,3.9,3.4,5.9,4.2,8,6.9,16.9,6.9,26,0,4.5-.4,9.1-1.4,13.5-1,4.4-2.4,8.7-4,13-1.6,4.2-3.6,8.3-5.4,12.5-1.8,4.2-3,8.5-3.8,13-.4,2.2-.6,4.5-.7,6.8,0,2.3,0,4.5.1,6.8.4,4.5,1.4,9,3.3,13.1,1.9,4.1,4.6,7.9,8.3,10.5,3.7,2.7,8.3,3.9,12.8,3.9,0,0-.2,0-.8,0,0,0,0,0,0,0,2.3.2,4.6.2,6.9,0,0,0,0,0,.1,0,0-.5.1-.9.2-1.4.1-.7.3-1.5.3-2.2.1-.7.2-1.4.3-2,.1-.6.2-1.1.2-1.4,0-.4.1-.6.1-.6,0,0,.1.2.3.5.1.3.3.8.5,1.4.2.6.3,1.3.4,2.1,0,.8,0,1.6,0,2.4,0,.3-.1.5-.2.8,1.7-.3,3.3-.7,4.9-1.3.4-.1.7-.3,1.1-.4,0-.5-.1-1.1-.2-1.6,0-.7-.1-1.4-.3-2,0-.7-.2-1.3-.3-1.8,0-.6-.1-1-.2-1.3,0-.3,0-.5,0-.5,0,0,.2.1.4.3.2.2.6.6.9,1.1.3.5.6,1.1,1,1.8.2.7.4,1.4.6,2.2,0,.4,0,.7,0,1,1.2-.6,2.3-1.2,3.3-1.9.5-.4,1-.7,1.5-1.1,0-.1-.2-.3-.3-.4-.3-.5-.6-1.1-1-1.6-.3-.6-.6-1.1-.9-1.7-.3-.6-.5-1.1-.8-1.5-.2-.5-.4-.9-.6-1.1-.1-.3-.2-.5-.2-.5,0,0,.2,0,.5.2.3.1.7.3,1.2.6.4.3.9.7,1.4,1.2.4.5.9,1.1,1.3,1.7.3.6.6,1.3.8,1.9.7-.7,1.4-1.4,2-2.1.7-.9,1.4-1.8,1.9-2.7-.3-.2-.5-.4-.8-.7-.5-.4-1-.8-1.5-1.2-.5-.4-1-.9-1.5-1.2-.5-.4-1-.8-1.4-1.1-.4-.4-.8-.6-1-.8-.3-.2-.4-.3-.4-.3,0,0,.2,0,.5,0,.3,0,.8,0,1.4.1.5.1,1.2.3,1.9.6.6.3,1.3.7,1.9,1.2.6.5,1.1,1.1,1.5,1.6.1.2.2.3.3.5.2-.3.3-.6.5-.9.4-.8.7-1.5.9-2.3.3-1.2.5-2.4.6-3.6-.3-.1-.7-.3-1-.4-.5-.2-1.1-.4-1.6-.6-.5-.2-1.1-.4-1.6-.5-.5-.2-1-.3-1.5-.4-.5-.1-.9-.2-1.1-.3-.3,0-.5-.1-.5-.1,0,0,.1-.1.4-.3.3-.1.7-.3,1.2-.5.5-.1,1.1-.2,1.8-.2.7,0,1.4.2,2,.3.7.3,1.3.6,1.8,1,0,0,.1.1.2.2,0-1.7-.1-3.4-.4-5-.3,0-.6-.2-.9-.2-.5-.2-1-.3-1.6-.4-.5-.2-1-.3-1.6-.4-.5-.2-1-.3-1.4-.3-.4-.1-.8-.2-1.1-.3-.3,0-.4-.1-.4-.1,0,0,.1-.1.4-.3.2-.1.6-.3,1.1-.5.5-.1,1-.2,1.7-.3.6,0,1.3,0,1.9.2.5.2.9.4,1.4.6-.5-1.8-1.3-3.6-2.3-5.2,0,0,0,0,0,0-.4,0-.8.2-1.3.4-.5,0-1,.2-1.4.4-.5,0-1,.2-1.5.3-.5,0-.9.2-1.3.3-.4,0-.8.1-1,.2-.3,0-.4,0-.4,0,0,0,0-.1.2-.4.1-.2.4-.5.7-.9.3-.3.7-.6,1.2-.9.5-.2,1.1-.5,1.6-.7.6,0,1.2-.1,1.8-.2.2,0,.4,0,.7.1-1.2-1.5-2.6-2.9-4.2-3.9ZM234.3,108.1c-.6-.2-1.2-.4-1.6-.4-2.1,0-3.3,3.5-3.4,6.7v1.1c-.4,6.5-.8,12.6.9,19.8.3,1.2.5,2.4.7,3.5,1.4,7,2.1,8.2,4.7,8.2s.5,0,.8,0c1.3-.1,2.5-.2,3.7-.2s.7,0,1.1,0c0-.3.2-.6.3-.9l-6.8-1,7.7-2.3-10.3-1.4,11.3-2c0-.2.1-.5.2-.7-3.8,0-7.6-.2-11.4-.7,3.5-.5,7-1.3,10.3-2.3-3.5-.3-7-.8-10.4-1.5,4.2-.4,8.3-1,12.4-1.9,0,0,0,0,0,0l-12.5-1.2,12.6-1.9c0,0,0-.2,0-.2l-13.1-.6,13-3s0,0,0,0l-11.5-.6,9.2-2.4-11.5-.7,10-2.3-10.3-.7,12-2.6-10.8-.8,9.4-2.5c-3-.3-6.1-.4-9.2-.2,2.3-1,4.7-1.9,7.1-2.6-1.3-.4-2.8-.8-4.5-1.5ZM229,83.8c3,6.2,7,11.9,10.2,17.9,3.2,6,5.7,12.4,6.8,19.1.6,3.3.8,6.7.6,10.1-.2,3.4-.7,6.7-1.5,10-1.6,6.6-4.3,12.9-6.9,19.3-2.5,6.5-3.7,13.4-3.8,20.3,0,6.9,1.1,13.9,4.1,20.1-2.7-6.3-3.7-13.3-3.4-20.1.2-6.8,1.5-13.6,4.1-19.9,2.8-6.2,5.5-12.6,7.2-19.4.8-3.4,1.4-6.8,1.6-10.3.1-3.5,0-7-.6-10.4-1.2-6.9-3.7-13.4-7-19.5-.8-1.6-1.7-3-2.6-4.5-.9-1.5-1.8-2.9-2.7-4.4-1.8-2.9-3.5-5.9-5.1-8.9-3.2-6-5.8-12.4-7.4-19-1.7-6.6-2-13.6-.9-20.3-1.4,6.7-1.2,13.8.3,20.5,1.5,6.7,4.1,13.2,7.2,19.4Z"/>
    <path class="st0" d="M273.5,38.4c-2.2,0-4-1.8-4-4s1.8-4,4-4,4,1.8,4,4-1.8,4-4,4ZM274.8,32.2c-.6,0-1.2.4-1.3,1,0,0-.1,0-.2,0-.5,0-.9.4-.9.9s.4.9.9.9.5-.1.7-.3c.2.2.5.3.9.3.8,0,1.4-.6,1.4-1.4s-.6-1.4-1.4-1.4Z"/>
    <path class="st0" d="M239.4,57.8c-.9.3-2,.7-3.1,1.1-.8.2-1.7.4-2.6.6-.3-.9-.6-1.8-.9-2.6,1,0,2.1-.2,3.1-.3,1.2,0,2.3-.1,3.3-.2,1,0,1.8,0,2.4,0,.6,0,.9,0,.9,0,0,0-.3.2-.8.4-.5.2-1.3.6-2.2,1Z"/>
    <path class="st0" d="M248.4,65.6c-1.2.5-2.7,1-4.2,1.6-1.6.5-3.3,1-4.9,1.5-.5.1-1,.2-1.6.3-.4-.8-.8-1.7-1.2-2.5.7-.2,1.3-.4,2-.6,1.7-.4,3.4-.8,5-1.2,1.6-.3,3.1-.5,4.5-.8,1.3-.1,2.4-.3,3.2-.3.8,0,1.2,0,1.2,0,0,0-.4.2-1.1.6-.7.3-1.7.8-2.9,1.3Z"/>
    <path class="st0" d="M257.8,73.6c-1.5.7-3.1,1.5-5,2.4-1.9.8-3.8,1.6-5.9,2.4-1.2.4-2.4.7-3.6,1.1-.5-.8-.9-1.5-1.4-2.3,1.3-.4,2.7-.9,4-1.4,2-.6,4-1.4,5.9-2,1.9-.6,3.7-1.1,5.3-1.6,1.6-.4,2.9-.7,3.8-.9.9-.2,1.5-.3,1.5-.3,0,0-.5.3-1.3.8-.8.5-2,1.1-3.4,1.9Z"/>
    <path class="st0" d="M265.8,81.5c-1.6.7-3.3,1.6-5.2,2.7-1.9,1-3.9,2.1-6,3.2-1.7.8-3.4,1.5-5.1,2.1-.5-.7-.9-1.4-1.4-2.1,0,0,0,0,0,0,1.7-.7,3.5-1.5,5.2-2.5,2.1-1,4.2-2,6.2-2.9,2-.8,4-1.5,5.7-2,1.7-.4,3.2-.5,4.3-.6,1,0,1.6,0,1.6,0,0,0-.6.2-1.5.5-1,.3-2.3.8-3.8,1.6Z"/>
    <path class="st0" d="M271.9,92c-1.6.7-3.4,1.6-5.4,2.5-2,.8-4.2,1.7-6.3,2.5-1.8.6-3.5,1.2-5.3,1.8-.4-.8-.7-1.5-1.1-2.3,1.8-.7,3.6-1.4,5.4-2.2,2.2-.7,4.4-1.5,6.5-2.2,2.1-.6,4-1.2,5.7-1.7,1.7-.4,3.1-.7,4.1-1,1-.2,1.6-.3,1.6-.3,0,0-.5.3-1.4.8-.9.5-2.2,1.1-3.8,1.9Z"/>
    <path class="st0" d="M282.5,104c-1.1,0-2.7,0-4.6.4-1.9.3-4,.8-6.2,1.5-2.3.6-4.7,1.5-7.1,2.3-1.8.5-3.6,1-5.4,1.5-.2-.8-.5-1.6-.7-2.4,1.7-.5,3.5-1.1,5.3-1.7,2.5-.7,5-1.5,7.4-2,2.4-.5,4.7-.7,6.7-.7,2,0,3.6.4,4.7.6.6.1,1,.3,1.3.4.3.1.4.2.4.2,0,0-.2,0-.5,0-.3,0-.7,0-1.3,0Z"/>
    <path class="st0" d="M274.2,120.8c-2.3.5-4.8.9-7.3,1.1-1.9,0-3.9,0-5.7,0,0-.8,0-1.7-.2-2.5,1.9,0,3.8-.1,5.7-.3,2.4-.1,4.8-.4,7.1-.7,2.3-.3,4.4-.6,6.2-1,1.8-.3,3.3-.6,4.4-.9,1.1-.2,1.7-.3,1.7-.3,0,0-.5.3-1.5.8-1,.5-2.4,1.2-4.1,1.9-1.8.7-3.9,1.3-6.2,1.9Z"/>
    <path class="st0" d="M266.3,133.5c-1.9-.2-3.8-.5-5.6-.9.1-.8.2-1.6.3-2.5,1.8.2,3.7.4,5.6.5,2.1.2,4.1.4,6.1.5,2,.2,3.8.3,5.4.4,1.6.2,2.9.3,3.8.3.9,0,1.5.2,1.5.2,0,0-.5.1-1.4.4-.9.2-2.2.5-3.8.7-1.6.2-3.5.3-5.5.5-2,0-4.1,0-6.3-.2Z"/>
    <path class="st0" d="M262.3,141.1c-1.1-.3-2.1-.6-3.2-.9.2-.8.4-1.6.6-2.5,1,.2,2.1.5,3.2.7,1.5.4,3.1.8,4.5,1.1,1.4.4,2.8.8,4,1,1.2.4,2.1.6,2.8.8.7.2,1.1.4,1.1.4,0,0-.4,0-1.1.2-.7,0-1.7.1-3,.2-1.2,0-2.7,0-4.2-.2-1.5-.2-3.1-.5-4.7-.8Z"/>
    <path class="st0" d="M257.1,149.2c-.2,0-.5-.1-.7-.2.3-.9.6-1.7.9-2.6.1,0,.3,0,.4,0,1.3.4,2.7.7,4,.9,1.3.3,2.5.6,3.5.8,1,.3,1.9.5,2.6.6.6.2,1,.3,1,.3,0,0-.4,0-1,.3-.6.1-1.5.3-2.6.4-1.1,0-2.4,0-3.8,0-1.4-.1-2.8-.3-4.3-.6Z"/>
    <path class="st0" d="M253.9,157c-.2,0-.5-.2-.7-.3.3-.6.5-1.1.8-1.7.1-.3.2-.5.3-.8.2,0,.3,0,.5.1,1.1.4,2.2.8,3.3,1.1,1,.4,2,.8,2.9,1,.8.4,1.6.6,2.1.8.5.2.8.4.8.4,0,0-.3,0-.9.2-.5,0-1.3.1-2.3.2-.9,0-2,0-3.2-.2-1.1-.2-2.4-.5-3.6-.8Z"/>
    <path class="st0" d="M250.3,163c.3-.6.5-1.2.8-1.8.1-.2.2-.5.3-.7.8.4,1.6.7,2.3,1,.8.4,1.6.8,2.3,1.1.6.4,1.2.7,1.6.9.4.3.6.4.6.4,0,0-.3,0-.7.1-.4,0-1.1,0-1.9,0-.8,0-1.6-.2-2.6-.3-.9-.2-1.8-.5-2.8-.8Z"/>
    <path class="st0" d="M250,170.1c-.7,0-1.5-.1-2.2-.2.3-.9.5-1.7.9-2.6.6.1,1.1.3,1.7.4.9.3,1.7.5,2.4.6.7.3,1.3.4,1.7.6.4.2.7.3.7.3,0,0-.2,0-.7.3-.4.1-1.1.3-1.8.5-.8,0-1.6.2-2.6.2Z"/>
    <path class="st0" d="M249.9,174.8c.7.2,1.3.4,1.7.4.4.1.7.2.7.2,0,0-.2,0-.7.2-.4,0-1,.2-1.8.3-.7,0-1.6,0-2.5,0-.3,0-.7,0-1-.1.1-.6.2-1.3.4-1.9.3,0,.6.1.9.2.9.2,1.7.4,2.4.5Z"/>
    <path class="st0" d="M248.6,181.7c.8,0,1.4,0,1.9,0,.5,0,.7,0,.7,0,0,0-.2.1-.6.3-.4.2-1,.4-1.8.7-.8.2-1.7.4-2.7.5-.2,0-.4,0-.6,0,0-.6,0-1.2.1-1.9.2,0,.3,0,.5,0,.9,0,1.8.2,2.5.2Z"/>
    <path class="st0" d="M248.5,189.2c.7,0,1.3-.2,1.8-.2.4,0,.7,0,.7,0,0,0-.2.2-.5.5-.4.3-.9.6-1.6,1-.7.3-1.5.6-2.4.9-.2,0-.5,0-.7.1,0-.6-.1-1.2-.2-1.9.2,0,.4,0,.6,0,.9,0,1.7-.1,2.4-.3Z"/>
    <path class="st0" d="M248.2,196.4c.8-.3,1.5-.7,2.1-1,.6-.3,1.2-.6,1.5-.8.4-.2.6-.3.6-.3,0,0-.1.2-.3.6-.2.4-.6.8-1.1,1.4-.5.5-1.2,1.1-1.9,1.7-.6.4-1.2.7-1.8,1.1-.2-.6-.4-1.3-.6-2,.5-.2,1-.4,1.5-.7Z"/>
    <path class="st0" d="M254.1,202.7c-.4.6-1,1.2-1.6,1.9-.6.5-1.2,1.1-1.9,1.6-.4-.6-.7-1.2-1-1.8.6-.4,1.2-.8,1.8-1.2.7-.5,1.4-.9,1.9-1.3.6-.4,1.1-.7,1.4-1,.4-.2.6-.4.6-.4,0,0,0,.2-.3.6-.2.4-.5.9-.9,1.5Z"/>
    <path class="st0" d="M260.6,208.5c-.3.7-.7,1.4-1.1,2.2-.5.7-1.2,1.5-1.9,2.2-.1,0-.2.2-.3.2-.6-.4-1.1-.8-1.7-1.3.2-.2.4-.4.6-.5.7-.6,1.3-1.2,1.9-1.8.6-.6,1.1-1.1,1.6-1.7.5-.5.9-.9,1.1-1.3.3-.3.4-.5.4-.5,0,0,0,.2,0,.7,0,.4-.2,1-.5,1.7Z"/>
    <path class="st0" d="M267.8,216.7s0,0,0,.1c0,0,0,0-.1,0-.3,0-.7,0-1.2-.1-.3,0-.6-.1-.9-.2.2-.3.3-.5.4-.8.5-.7.9-1.5,1.2-2.3.4-.8.7-1.5.9-2.2.3-.6.5-1.2.6-1.6.1-.4.2-.6.2-.6,0,0,0,.2.2.7,0,.4.2,1,.2,1.8,0,.7-.1,1.6-.3,2.6-.3.9-.6,1.8-1.1,2.8Z"/>
    <path class="st2" d="M221.6,43.9c-1.1,6.8-.8,13.7.9,20.3,1.6,6.6,4.3,13,7.4,19,1.6,3,3.3,6,5.1,8.9.9,1.5,1.8,2.9,2.7,4.4.9,1.5,1.9,2.9,2.6,4.5,3.3,6.1,5.9,12.6,7,19.5.6,3.4.7,6.9.6,10.4-.2,3.5-.8,6.9-1.6,10.3-1.7,6.7-4.4,13.1-7.2,19.4-2.6,6.3-3.9,13.1-4.1,19.9-.2,6.8.7,13.7,3.4,20.1-3-6.2-4.1-13.2-4.1-20.1,0-6.9,1.3-13.8,3.8-20.3,2.6-6.3,5.3-12.6,6.9-19.3.8-3.3,1.3-6.7,1.5-10,.1-3.4,0-6.8-.6-10.1-1.1-6.7-3.6-13.1-6.8-19.1-3.2-6-7.2-11.6-10.2-17.9-3.1-6.2-5.7-12.6-7.2-19.4-1.5-6.7-1.7-13.8-.3-20.5Z"/>
    <path class="st0" d="M254.2,49c-1.1-1.3-2.2-2.8-3-4.5-.8-1.7-1.3-3.5-1.6-5.2-.3-1.7-.3-3.3-.2-4.7.1-1.4.4-2.5.6-3.3.2-.8.4-1.2.4-1.2,0,0,0,.5-.1,1.2,0,.8-.1,1.9,0,3.2,0,1.3.2,2.9.6,4.4.4,1.6.9,3.3,1.7,4.8.7,1.6,1.7,3,2.7,4.3,1,1.3,2.1,2.4,3.1,3.2,1,.9,1.9,1.5,2.6,2,.6.4,1,.7,1,.7,0,0-.4-.1-1.2-.4-.7-.3-1.7-.8-2.9-1.6-1.1-.8-2.4-1.8-3.6-3.1Z"/>
    <path class="st0" d="M238.5,36.9c.7,1.4,1.5,2.9,2.5,4.6.9,1.7,2,3.4,3.2,5,1.1,1.7,2.3,3.3,3.5,4.8,1.2,1.5,2.3,2.9,3.5,3.7,1.1.9,2.3,1.4,3.2,1.5.9.1,1.4,0,1.4,0,0,0-.1,0-.4.1-.2,0-.6.1-1,.1-.9,0-2.3-.3-3.6-1.1-1.4-.9-2.6-2.2-4-3.6-1.3-1.5-2.6-3.1-3.8-4.8-1.2-1.7-2.2-3.5-3.1-5.2-.9-1.7-1.6-3.4-2.1-4.8-.5-1.5-.9-2.7-1.2-3.5-.2-.9-.3-1.4-.3-1.4,0,0,.2.5.6,1.3.4.8.9,2,1.6,3.3Z"/>
    <path class="st0" d="M248.2,12.9c.6-.2,1.2-.4,1.5-.5.4,0,.6-.2.6-.2,0,0-.2.1-.5.4-.3.2-.8.6-1.3,1-.5.4-1.2.8-1.8,1.3-.7.5-1.4,1-2,1.5-.7.5-1.4,1-2.1,1.5-.7.5-1.3.9-1.8,1.3-.6.4-1,.7-1.3.9-.3.2-.5.3-.5.3,0,0,.1-.2.3-.5.2-.3.6-.8,1-1.3.4-.5,1-1.1,1.6-1.7.6-.6,1.3-1.1,2-1.7.7-.5,1.5-1,2.2-1.4.8-.4,1.5-.7,2.1-1Z"/>
    <path class="st0" d="M250.9,13.7c-.4-.4-.6-.5-.6-.5,0,0,.3.1.8.3.5.2,1.1.5,2,.8.8.3,1.8.7,2.8,1,1,.4,2.1.7,3.2.9,1.1.3,2.2.6,3.3.7,1.1.2,2.1.4,2.9.4.9.1,1.6.2,2.1.2.5,0,.8,0,.8,0,0,0-.3,0-.8.2-.5,0-1.3.2-2.1.3-.9,0-1.9,0-3.1,0-1.1-.1-2.3-.3-3.5-.6-1.2-.3-2.3-.7-3.3-1.2-1-.5-1.9-1-2.7-1.5-.7-.5-1.3-1-1.7-1.3Z"/>
    <path class="st0" d="M275.8,40.5c-.7.2-1.5.4-2.5.4-.9,0-1.9-.2-2.9-.6-.9-.5-1.7-1.1-2.3-1.8-.6-.7-1-1.5-1.2-2.2-.2-.7-.3-1.3-.3-1.7,0-.4,0-.7,0-.7,0,0,0,.2.2.6.1.4.4.9.7,1.5.3.6.8,1.2,1.4,1.7.6.6,1.3,1.1,2,1.4.7.4,1.6.6,2.4.7.8.1,1.6.1,2.2,0,.7,0,1.2-.2,1.6-.3.4-.1.6-.2.6-.2,0,0-.2.2-.5.4-.3.2-.8.6-1.5.9Z"/>
    <path class="st0" d="M284.8,42.9s.2.2.6.4c.4.3.9.7,1.5,1.1.6.5,1.4,1,2.2,1.5.8.6,1.7,1.1,2.5,1.7.9.6,1.8,1.1,2.6,1.6.8.5,1.6,1,2.3,1.3.7.4,1.3.7,1.7.9.4.2.6.3.6.3,0,0-.2,0-.7-.2-.4-.2-1-.4-1.8-.7-.7-.3-1.6-.7-2.4-1.2-.9-.5-1.8-1-2.7-1.5-.9-.6-1.7-1.2-2.5-1.8-.8-.6-1.5-1.2-2.1-1.7-.6-.5-1.1-1-1.4-1.3-.3-.3-.5-.5-.5-.5Z"/>
    <path class="st0" d="M266.2,50.4c1.1.3,2.3.6,3.7.8,1.4.2,2.9.4,4.4.6,1.5.2,3,.5,4.4.8,1.4.3,2.6.8,3.7,1.3,1,.5,1.8,1,2.3,1.5.5.4.8.7.8.7,0,0-.3-.2-.8-.6-.5-.4-1.4-.8-2.4-1.3-1-.4-2.3-.8-3.6-1.1-1.4-.3-2.8-.5-4.3-.7-1.5-.2-3-.4-4.4-.7-1.4-.3-2.7-.6-3.7-1-1.1-.4-1.9-.8-2.5-1.2-.6-.4-.9-.6-.9-.6,0,0,.3.2.9.5.6.3,1.5.6,2.5,1Z"/>
    <path class="st0" d="M240.5,36.1c.5,1.1,1,2.2,1.5,3.1.5,1,1,1.9,1.5,2.6.5.8.8,1.4,1.1,1.8.3.4.4.7.4.7,0,0-.2-.2-.5-.6-.3-.4-.8-1-1.3-1.7-.5-.7-1.1-1.6-1.6-2.6-.5-1-1.1-2.1-1.6-3.1-.5-1.1-.9-2.2-1.2-3.3-.3-1.1-.6-2.1-.7-3-.2-.9-.3-1.6-.3-2.1,0-.5,0-.8,0-.8,0,0,0,.3.2.8.1.5.3,1.2.6,2.1.2.9.6,1.8.9,2.9.4,1,.8,2.1,1.3,3.2Z"/>
    <path class="st0" d="M251.9,36.2c0,.4,0,.7,0,.7,0,0,0-.2-.2-.7-.1-.4-.3-1-.4-1.8-.1-.7-.2-1.6-.2-2.6,0-.9,0-2,.2-3,.2-1,.4-2,.7-2.9.3-.9.6-1.7,1-2.4.3-.7.7-1.2.9-1.6.2-.4.4-.6.4-.6,0,0-.1.2-.3.6-.2.4-.4,1-.7,1.7-.3.7-.5,1.5-.8,2.4-.2.9-.4,1.9-.6,2.8-.2,1-.2,2-.3,2.9,0,.9,0,1.8,0,2.5,0,.7.1,1.4.2,1.8Z"/>
    <path class="st0" d="M252.8,12.4c-.6-.2-1.2-.5-1.9-.8-.7-.4-1.3-.8-2-1.2-.6-.5-1.3-1-1.8-1.5-.5-.5-1-1-1.4-1.5-.4-.5-.7-.9-.8-1.2-.2-.3-.3-.5-.3-.5,0,0,.1.1.4.4.2.3.6.6,1,1,.4.4.9.9,1.5,1.3.6.5,1.2.9,1.8,1.4.6.5,1.3.9,1.9,1.2.6.4,1.2.7,1.8.9.5.3,1,.5,1.3.6.3.1.5.2.5.2,0,0-.2,0-.5-.1-.3,0-.8-.2-1.4-.4Z"/>
    <path class="st1" d="M274.8,34.9c-.3,0-.6-.1-.9-.3-.2.2-.4.3-.7.3-.5,0-.9-.4-.9-.9s.4-.9.9-.9.2,0,.2,0c.2-.6.7-1,1.3-1s1.4.6,1.4,1.4-.6,1.4-1.4,1.4Z"/>
  </g>
</svg>