<?xml version="1.0" encoding="UTF-8"?>
<svg id="Layer_1" data-name="Layer 1" xmlns="http://www.w3.org/2000/svg" viewBox="0 0 322.23 228.22">
  <defs>
    <style>
      .cls-1 {
        fill: #26bdbd;
      }

      .cls-2 {
        fill: #153447;
      }

      .cls-3 {
        fill: #fff;
      }

      .cls-4 {
        fill: #82d8d8;
      }
    </style>
  </defs>
  <path class="cls-3" d="M79.14,86.15c20.62,7.18,31.92-6.73,46.56-4.7,18.57,2.58,13.35,12.65,22.61,17.79s19.18,3.99,24.61-3.25c10.48-13.99,26.2-18.25,40.37-13.99,36.63,11.02,31.54,13.74,32.72,30.1.95,13.16-5.37,20.1-37.07,23.29-17.12,1.72-28.38-10.95-43.58-3.9s-13.05,14.72-31.67,15.39-17.67-8.85-52.54-.67c-19,7.71-81.14,11.3-81.14,11.3v-83.91s50.99,2.75,79.15,12.56h-.01Z"/>
  <g>
    <path class="cls-1" d="M254.35,138.23c-.78-.12-1.47-.23-2.06-.34.35-1.81.63-3.71.85-5.69.51.19,1.04.39,1.64.61.65.2,1.36.4,2.09.59-.23,1.77-.54,3.5-.9,5.18-.57-.12-1.12-.23-1.62-.35Z"/>
    <path class="cls-1" d="M250.14,146.49s-.02,0-.03,0c.76-2.42,1.44-4.99,2.01-7.72.49.28,1.07.61,1.72.97.52.24,1.09.5,1.69.76-.58,2.33-1.25,4.6-2,6.79-1.24-.25-2.4-.5-3.39-.78Z"/>
    <path class="cls-1" d="M244.74,90.38c-.98.32-1.93.58-2.81.75-.07.02-.13.03-.2.05-1.8-2.89-3.65-5.8-5.43-8.8,1.1-.07,2.3-.2,3.55-.38.64,1.14,1.29,2.29,1.95,3.48.95,1.59,1.91,3.24,2.93,4.9Z"/>
    <path class="cls-1" d="M250.26,99.6c-1,.37-1.95.7-2.84.96-.05.02-.09.03-.14.05-1.42-2.68-3-5.31-4.62-7.94,1-.08,2.08-.22,3.21-.45.94,1.5,1.9,3.04,2.76,4.58.54.93,1.08,1.85,1.63,2.8Z"/>
    <path class="cls-1" d="M248.51,154.11c-.39-.08-.73-.16-1.06-.25.75-1.88,1.49-3.82,2.17-5.87.9.49,1.96,1.01,3.12,1.55-.66,1.79-1.35,3.53-2.05,5.22-.78-.21-1.53-.43-2.18-.65Z"/>
    <path class="cls-1" d="M242.37,182.83c-.7-.08-1.39-.17-2.05-.29-.38-.05-.75-.11-1.11-.17,0-.24-.02-.47-.02-.72,0-2.07.19-4.05.52-5.98.57.29,1.19.6,1.88.91.45.16.91.31,1.39.46-.12.71-.23,1.42-.31,2.12-.15,1.26-.24,2.48-.3,3.68Z"/>
    <path class="cls-1" d="M246.88,207.83c-.2.14-.4.26-.6.39-1.25-1.77-2.39-3.79-3.37-6.08.31-.03.62-.07.95-.12.37-.09.75-.2,1.13-.32.78,2.08,1.69,3.98,2.69,5.64-.27.16-.54.33-.8.49Z"/>
    <path class="cls-1" d="M243.34,200.26c-.34.14-.68.29-1.01.42-.86-2.24-1.57-4.73-2.09-7.48.08.02.15.04.23.06.77.11,1.58.17,2.41.2.35,2.29.86,4.43,1.49,6.4-.34.15-.68.28-1.02.4Z"/>
    <path class="cls-1" d="M240.65,191.44c-.25,0-.49,0-.74,0-.35-2.28-.58-4.74-.66-7.38.21.09.41.18.63.26.76.22,1.58.41,2.41.57-.04,2.29.08,4.46.3,6.54-.66.03-1.32.04-1.94.01Z"/>
    <path class="cls-1" d="M238.71,79.95c-1.18.35-2.3.62-3.34.83-1.72-3.01-3.33-6.13-4.72-9.44,1.05.09,2.19.11,3.38.04.13-.01.27-.04.41-.06.56,1.25,1.14,2.51,1.77,3.8.78,1.58,1.63,3.18,2.49,4.84Z"/>
    <path class="cls-1" d="M246.09,160.45c-.49-.1-.9-.18-1.26-.27.72-1.72,1.47-3.47,2.21-5.28.24.21.48.41.77.64.58.4,1.27.83,2,1.27-.62,1.42-1.23,2.82-1.85,4.18-.68-.18-1.31-.37-1.86-.54Z"/>
    <path class="cls-1" d="M230.75,61.49c.72,2.4,1.62,4.91,2.7,7.51-1.26.31-2.44.47-3.52.54-1-2.6-1.86-5.32-2.52-8.2.4.06.8.12,1.22.16.69.02,1.4,0,2.12-.02Z"/>
    <path class="cls-1" d="M292.87,182.92c-.56.01-1.16.06-1.76.16-.57.19-1.13.42-1.63.67-.47.33-.89.64-1.22.94-.3.36-.53.66-.67.88-.13.24-.19.38-.19.38,0,0,.16-.02.43-.05.24-.06.6-.13,1.02-.18.38-.12.84-.21,1.32-.28.46-.14.95-.24,1.45-.32.47-.16.96-.29,1.43-.38.46-.16.91-.29,1.3-.36.03-.01.06-.02.09-.03.99,1.58,1.75,3.31,2.28,5.15-.44-.22-.9-.42-1.39-.59-.66-.11-1.32-.17-1.93-.18-.63.08-1.19.18-1.66.32-.47.19-.83.39-1.08.53-.23.18-.37.29-.37.29,0,0,.16.04.44.12.27.05.65.12,1.09.25.43.06.93.18,1.43.33.51.09,1.04.23,1.56.4.54.1,1.07.23,1.56.4.3.07.58.14.85.22.32,1.63.46,3.31.42,5.01-.07-.07-.14-.13-.22-.2-.56-.35-1.18-.68-1.84-.95-.69-.17-1.39-.28-2.04-.33-.66.04-1.28.11-1.78.24-.51.18-.9.36-1.17.5-.25.18-.4.28-.4.28,0,0,.17.04.47.13.29.05.69.13,1.15.27.45.07.97.22,1.5.39.54.12,1.09.3,1.62.51.56.14,1.11.33,1.61.56.37.11.7.25,1.02.38-.11,1.2-.32,2.4-.61,3.58-.26.75-.57,1.52-.94,2.3-.14.31-.31.62-.48.93-.09-.16-.18-.3-.29-.47-.45-.55-.98-1.11-1.54-1.63-.63-.43-1.28-.83-1.92-1.16-.67-.25-1.31-.46-1.86-.58-.58-.08-1.05-.1-1.38-.11-.34.03-.54.05-.54.05,0,0,.15.13.41.34.26.18.63.45,1.04.81.44.28.91.65,1.4,1.07.51.36,1.03.78,1.52,1.23.54.38,1.06.8,1.52,1.23.29.22.56.45.81.66-.57.9-1.2,1.8-1.92,2.66-.62.75-1.3,1.45-2.05,2.14-.22-.63-.5-1.28-.82-1.92-.41-.6-.85-1.17-1.28-1.69-.5-.46-.98-.88-1.41-1.2-.47-.29-.88-.49-1.17-.63-.3-.11-.48-.17-.48-.17,0,0,.07.17.2.47.15.27.35.66.57,1.14.27.43.54.94.82,1.49.33.52.64,1.08.93,1.66.35.53.69,1.09.98,1.62.1.14.19.29.28.43-.48.38-.97.76-1.49,1.12-1.03.72-2.13,1.35-3.29,1.93,0-.35-.02-.69-.04-1.04-.15-.77-.36-1.53-.6-2.22-.32-.67-.64-1.27-.96-1.76-.37-.47-.7-.82-.94-1.07-.27-.22-.42-.35-.42-.35,0,0,.02.2.06.54.07.32.15.78.21,1.33.13.52.22,1.14.29,1.79.13.64.22,1.32.27,2,.11.55.16,1.09.21,1.62-.36.15-.73.31-1.1.45-1.57.59-3.22,1.02-4.9,1.34.06-.26.13-.52.18-.78.06-.83.08-1.66.06-2.44-.11-.78-.22-1.49-.38-2.09-.2-.6-.4-1.08-.54-1.41-.18-.32-.29-.5-.29-.5,0,0-.04.2-.12.57-.04.35-.11.85-.23,1.44-.05.58-.14,1.26-.27,1.96-.06.71-.17,1.45-.32,2.19-.04.48-.13.94-.19,1.39-.05,0-.1.02-.14.02-2.28.27-4.6.27-6.87.06.02-.02.03-.05.05-.07.59-.03.83-.05.83-.05-4.52-.03-9.1-1.25-12.79-3.93-3.7-2.64-6.49-6.41-8.34-10.53-1.87-4.14-2.89-8.62-3.3-13.13-.19-2.26-.22-4.52-.14-6.79.13-2.26.34-4.52.73-6.76.75-4.47,2.02-8.85,3.8-13.01,1.83-4.15,3.82-8.23,5.44-12.46,1.64-4.22,3.04-8.55,4.03-12.96,1.03-4.42,1.45-8.96,1.42-13.49-.02-9.1-2.77-18-6.94-26.02-1.1-1.98-2.27-3.93-3.43-5.87-1.2-1.92-2.43-3.82-3.6-5.77-2.35-3.87-4.65-7.78-6.74-11.8-1.09-1.99-2.02-4.06-3-6.09-.88-2.09-1.84-4.15-2.56-6.29-.83-2.11-1.39-4.31-2.02-6.49-.45-2.22-.96-4.43-1.12-6.7-.42-4.5-.16-9.09,1.06-13.47,1.25-4.37,3.31-8.44,5.79-12.24,0,0-.61.76-2.3,3.17-.46.59-.83,1.35-1.32,2.23-.45.89-1.09,1.85-1.55,3.07-.99,2.38-2.16,5.44-2.63,9.41-.57,3.94-.56,8.78.66,14.25.13.66.29,1.32.46,1.99-.5.06-.99.12-1.46.15-.55.08-1.09.15-1.6.21-.64-3.39-1.02-6.98-1.02-10.86,0-8.81,3.39-16.64,6.34-21.78.41-.42.83-.85,1.25-1.28.61-.62,1.23-1.24,1.85-1.87.62-.62,1.25-1.23,1.87-1.85.62-.6,1.22-1.2,1.82-1.79,1.18-1.14,2.31-2.23,3.29-3.18.95-.94,1.77-1.75,2.35-2.34.57-.57.88-.94.88-.94,0,0-.47.1-1.25.35-.79.24-1.89.65-3.15,1.26-.92.43-1.9.99-2.93,1.66,1.22-3.95.55-7.55.55-9.02,0-1.01,1.25-1.7,2.96-1.7,1.85,0,4.25.8,6.2,2.88,3.76,4,8.22,6.82,20.44,6.82,0,0,.45,2.73,2.03,5.44-.41-.06-.83-.12-1.23-.16-1.02-.11-2.02-.17-2.97-.22-1.89-.09-3.61-.15-5.07-.31-1.46-.15-2.67-.39-3.54-.62-.85-.26-1.36-.42-1.36-.42,0,0,.33.41,1.04,1.03.71.61,1.85,1.36,3.35,1.98,1.5.62,3.31,1.08,5.21,1.43.93.17,1.9.33,2.88.5.96.18,1.92.33,2.83.56.94.18,1.81.46,2.66.74.83.3,1.63.66,2.38,1.07.07.04.14.08.2.12,2.32,2.13,4.41,5.89,6.44,9.55-1.3-1.76-2.69-3.54-4.34-4.9-1.7-1.37-3.68-2.26-5.46-2.37-1.78-.1-3.21.43-4.05.98-.42.28-.7.55-.89.73-.18.19-.28.3-.28.3,0,0,.12-.08.33-.24.22-.15.54-.35.98-.54.86-.41,2.25-.71,3.82-.41,1.58.22,3.26,1.14,4.73,2.52,1.52,1.32,2.83,3.09,4.09,4.92,1.31,1.79,2.66,3.66,4.16,5.2.8.79,1.62,1.51,2.43,2.14.11.11.21.23.32.33,4.09,3.68,12.62,8.4,14.77,9.57-.2.13-.37.26-.53.39-.26.26-.46.5-.59.67-.11.19-.18.29-.18.29,0,0,.12-.02.33-.06.19-.06.48-.14.82-.2.31-.11.69-.19,1.08-.26.38-.11.79-.19,1.21-.25.4-.11.82-.19,1.21-.23.13-.03.25-.04.38-.06,1.97.23,4.15,1.01,4.42,3.23l-4.38-.32,4.02,2.81c-.05.14-.09.29-.15.44-.44,1.09-.96,1.91-1.53,2.51-.36.08-.75.16-1.18.25-.75.15-1.55.26-2.24.16-.35-.04-.66-.12-.95-.24-.29-.13-.6-.28-.89-.5-.29-.2-.56-.46-.83-.73-.25-.29-.5-.58-.71-.9-.43-.66-.77-1.4-1.04-2.11-.27-.7-.48-1.36-.63-1.84-.15-.47-.26-.77-.26-.77,0,0-.19.24-.44.7-.24.46-.54,1.15-.7,2.05-.16.89-.17,2.03.21,3.22.06.18.15.36.22.54-.56-.06-1.18-.06-1.82-.02-1.02.07-2.04.08-3.19-.12-2.28-.35-4.79-1.43-7.43-2.87-1.34-.72-2.73-1.51-4.24-2.25-1.5-.75-3.14-1.44-4.85-1.92-1.7-.46-3.37-.76-4.96-1.03-1.6-.28-3.08-.55-4.51-.94-2.87-.74-5.46-1.79-7.64-2.85-2.17-1.07-3.92-2.14-5.12-2.93-1.19-.82-1.89-1.3-1.89-1.3,0,0,.46.7,1.42,1.82s2.46,2.63,4.52,4.15c1.62,1.19,3.61,2.36,5.87,3.34-2.4.54-4.73,1.41-6.84,2.34-.14.06-.28.12-.42.18-.05-.05-.09-.1-.14-.15l-.26.31c-1.15.48-2.24.89-3.23,1.1-1.21.26-2.29.13-3.49-.32-1.2-.43-2.4-1.23-3.59-2.08-.57-.45-1.15-.89-1.71-1.37-.52-.52-1.09-.99-1.58-1.55-4.15-4.3-7.22-9.83-9.76-15.68.22,3.22,1.05,6.37,2.19,9.43,1.17,3.04,2.77,5.97,4.86,8.63.51.67,1.12,1.27,1.68,1.9.6.6,1.24,1.17,1.88,1.75,1.31,1.08,2.74,2.1,4.5,2.83,1.33.58,2.93.86,4.46.77,6.91,4.32,13.31,9.8,18.81,16.28-1.48-3.21-3.2-6.35-5.11-9.39,8.95,9.62,19.67,25.27,19.67,45,0,33.84-35.42,42.65-35.42,74.38,0,8.02,5.82,13.57,12.52,15.77.86.32,1.73.58,2.63.76,3.26.55,6.58.48,9.81-.67,1.6-.57,3.15-1.41,4.51-2.51,1.36-1.12,2.5-2.52,3.34-4.08,1.67-3.13,2.14-6.91.98-10.39-.58-1.72-1.58-3.39-3.02-4.63-1.36-1.14-3.03-2.07-4.93-2.39-1.89-.36-3.93.07-5.53,1.15-1.61,1.05-2.8,2.94-2.7,4.97.02.98.41,1.99.9,2.64.45.7,1.01,1.36,1.69,1.89.91.72,2.06,1.07,3.15,1.02.02,0,.03,0,.05,0,.08,0,.14-.02.21-.02.05,0,.11,0,.16-.01.16-.02.32-.06.48-.1.05-.01.09-.03.14-.05.07-.02.14-.05.21-.08.09-.03.17-.06.25-.1-.02,0-.04,0-.06,0,.89-.49,1.5-1.43,1.5-2.52,0-1.59-1.3-2.88-2.89-2.88s-2.75,1.18-2.87,2.67c-.11-.22-.21-.45-.3-.69-.25-.66-.32-1.14-.23-1.69.15-.95.85-1.73,1.71-2.23.01.09.02.19.04.28.02.13.11.26.14.36.05.1.15.19.19.26.06.06.1.1.1.1,0,0,.04-.03.11-.1.05-.06.15-.14.2-.24.05-.1.15-.22.18-.35.03-.13.06-.27.08-.4-.02-.11-.03-.23-.05-.34.78-.2,1.63-.16,2.42.04.99.26,1.92.84,2.75,1.6-.19.06-.4.11-.59.18-.21.11-.42.22-.61.32-.19.1-.34.27-.49.38-.14.11-.24.26-.32.34-.07.1-.11.16-.11.16,0,0,.07.01.19.04.11,0,.28.04.46.02.18-.02.41,0,.61-.07.21-.07.43-.13.66-.19.2-.11.41-.22.61-.32.09-.05.16-.11.24-.17.6.7,1.06,1.53,1.35,2.45.25.83.37,1.7.37,2.57-.24-.09-.47-.18-.69-.24-.31-.03-.59-.04-.83-.03-.24.05-.45.11-.58.16-.13.07-.21.11-.21.11,0,0,.06.06.18.16.12.08.27.2.44.35.18.1.38.24.58.4.22.11.43.24.64.39.12.05.24.12.36.18-.07.45-.16.91-.29,1.35-.05.07-.09.14-.14.22-.64.96-1.52,1.63-2.78,2.09-.07.02-.15.04-.22.07-.05-.4-.1-.8-.18-1.17-.16-.39-.33-.73-.49-1.01-.22-.27-.42-.47-.56-.61-.18-.12-.28-.2-.28-.2,0,0-.04.11-.12.31-.03.19-.1.45-.2.75-.03.29-.09.62-.17.95-.01.34-.05.68-.1,1.03.02.15.01.3.03.45-.64.1-1.3.18-1.96.18-.75.02-1.5-.03-2.23-.12-.33-.05-.64-.14-.96-.2.01-.02.03-.04.05-.06.21-.48.39-.99.51-1.46.04-.5.05-.96.02-1.35-.1-.4-.2-.72-.29-.93-.12-.21-.19-.33-.19-.33,0,0-.08.11-.22.31-.1.19-.25.46-.47.75-.14.3-.34.63-.57.95-.17.35-.38.7-.62,1.02-.08.19-.19.35-.28.53-1.01-.36-1.96-.79-2.77-1.26-.28-.16-.55-.33-.8-.5-.7-.86-1.28-1.81-1.72-2.82.15,0,.29-.02.45-.03.46-.11.95-.27,1.43-.44.44-.26.87-.55,1.25-.83.34-.35.64-.69.88-.99.2-.35.35-.65.45-.86.07-.24.11-.37.11-.37,0,0-.13.02-.38.06-.22.06-.52.14-.89.22-.33.13-.72.26-1.13.38-.38.18-.79.34-1.2.48-.37.23-.76.44-1.14.62-.14.1-.27.16-.39.25-.72-2.42-.74-5.05.07-7.48t0,0c.32.32.68.65,1.08.95.45.22.9.39,1.33.54.46.06.89.11,1.26.11.38-.05.68-.13.9-.18.21-.09.34-.14.34-.14,0,0-.09-.09-.26-.26-.17-.13-.39-.32-.65-.56-.27-.17-.56-.4-.85-.65-.32-.19-.65-.42-.96-.66-.36-.17-.7-.36-1.01-.56-.17-.07-.34-.15-.49-.22.98-1.9,2.55-3.6,4.76-4.83-.03.46,0,.92.08,1.34.17.43.36.84.56,1.21.27.35.53.65.76.89.29.22.54.38.71.49.2.09.32.14.32.14,0,0,.01-.13.03-.35,0-.2-.02-.48,0-.82-.05-.3-.09-.66-.11-1.03-.09-.35-.17-.73-.22-1.09-.14-.33-.24-.64-.29-.92-.1-.22-.15-.44-.15-.65,1.91-.77,4.2-1.24,6.9-1.32-.05.05-.1.09-.16.14-.29.41-.55.87-.77,1.35-.11.53-.18,1.05-.19,1.55.08.5.18.95.32,1.32.19.36.38.63.53.81.18.16.28.25.28.25,0,0,.04-.13.12-.35.05-.21.12-.5.26-.82.06-.31.18-.67.32-1.01.08-.36.21-.73.37-1.08.08-.37.2-.75.34-1.08.09-.37.2-.72.34-1.01,0-.01,0-.02.01-.03,2.52.12,4.78.68,6.76,1.62-.34.13-.69.28-1.02.45-.46.34-.88.72-1.25,1.09-.31.44-.57.86-.77,1.23-.14.42-.23.76-.29,1-.02.26-.03.41-.03.41,0,0,.13-.06.36-.17.2-.13.5-.29.85-.46.31-.21.67-.43,1.08-.63.35-.25.75-.48,1.17-.69.36-.28.74-.54,1.12-.74.23-.18.45-.3.67-.45,1.65,1.07,3.07,2.4,4.24,3.95-.22-.04-.43-.07-.66-.1ZM273.55,32.1c-2.21,0-4.01,1.8-4.01,4.01s1.79,4.01,4.01,4.01,4.01-1.8,4.01-4.01-1.79-4.01-4.01-4.01ZM277.22,41.13c-.38.13-.93.28-1.6.34-.65.1-1.42.12-2.22,0-.79-.08-1.62-.31-2.36-.69-.76-.34-1.46-.83-2.03-1.39-.6-.54-1.07-1.15-1.41-1.72-.37-.55-.61-1.08-.74-1.45-.17-.37-.24-.6-.24-.6,0,0-.02.24-.03.66.02.42.08,1.02.3,1.73.25.69.65,1.47,1.23,2.22.62.71,1.41,1.36,2.32,1.83.94.41,1.95.62,2.89.64.94-.02,1.8-.21,2.49-.45.69-.29,1.2-.61,1.53-.86.33-.27.49-.44.49-.44,0,0-.22.09-.62.2ZM288.77,48.08c.79.58,1.65,1.19,2.53,1.76.9.55,1.81,1.08,2.67,1.54.87.47,1.71.85,2.42,1.18.72.33,1.34.55,1.76.71.43.16.68.24.68.24,0,0-.23-.12-.64-.34-.4-.21-.98-.53-1.66-.9-.69-.36-1.47-.84-2.32-1.31-.85-.49-1.73-1.03-2.6-1.6-.88-.55-1.75-1.12-2.55-1.68-.79-.57-1.55-1.07-2.17-1.55-.63-.46-1.16-.86-1.52-1.13-.37-.27-.58-.42-.58-.42,0,0,.18.18.5.51.33.31.79.78,1.39,1.29.59.51,1.3,1.11,2.09,1.7ZM263.58,51.21c.56.34,1.4.8,2.48,1.18,1.07.38,2.34.75,3.74,1.01,1.4.26,2.89.45,4.38.66,1.49.18,2.97.4,4.33.7,1.36.3,2.61.66,3.65,1.1,1.03.43,1.85.88,2.39,1.26.55.36.83.6.83.6,0,0-.26-.27-.77-.69-.51-.42-1.28-.98-2.31-1.46-1.03-.49-2.29-.96-3.67-1.29-1.38-.34-2.88-.58-4.37-.79-1.49-.18-2.98-.35-4.36-.58-1.38-.23-2.66-.49-3.73-.82-1.07-.33-1.94-.68-2.52-.97-.59-.29-.92-.48-.92-.48,0,0,.3.22.86.57ZM249.15,199.7c.73-.58,1.38-1.15,1.9-1.68.49-.56.86-1.05,1.11-1.41.22-.37.35-.59.35-.59,0,0-.23.1-.62.29-.36.2-.9.48-1.55.76-.6.35-1.34.71-2.12,1.05-.46.24-.96.47-1.46.69.18.68.36,1.33.57,1.97.64-.35,1.26-.71,1.83-1.08ZM245.7,193.16c.24-.05.49-.09.73-.14.92-.3,1.75-.62,2.43-.95.67-.38,1.2-.73,1.56-.99.34-.29.53-.45.53-.45,0,0-.25.02-.69.08-.42.08-1.03.18-1.76.24-.7.14-1.53.22-2.41.28-.19.02-.39.03-.59.05.05.64.12,1.27.19,1.89ZM245.41,185.05c.21,0,.43,0,.63-.01.99-.14,1.9-.3,2.67-.49.76-.25,1.37-.5,1.79-.68.41-.22.65-.34.65-.34,0,0-.26-.02-.73-.05-.45,0-1.09-.02-1.85-.1-.75,0-1.62-.06-2.54-.16-.16,0-.33-.03-.5-.04-.05.63-.09,1.26-.12,1.88ZM246.24,177.68c.34.04.69.08,1.02.11.93,0,1.8-.03,2.53-.09.74-.12,1.35-.24,1.78-.33.42-.13.66-.2.66-.2,0,0-.24-.07-.66-.21-.42-.1-1.01-.24-1.71-.45-.7-.13-1.51-.32-2.37-.54-.27-.05-.58-.13-.86-.19-.14.64-.27,1.28-.38,1.9ZM237.75,29.59c-.12-.51-.2-.8-.2-.8,0,0,.03.29.09.82.06.51.15,1.26.34,2.13.18.88.42,1.89.75,2.97.34,1.07.75,2.19,1.2,3.3.49,1.09,1.02,2.16,1.56,3.15.55.98,1.12,1.85,1.63,2.59.5.74.98,1.31,1.3,1.73.34.4.53.62.53.62,0,0-.16-.25-.44-.69-.29-.43-.67-1.07-1.13-1.83-.47-.75-.94-1.67-1.46-2.65-.51-.99-1.01-2.05-1.47-3.14-.47-1.08-.9-2.18-1.25-3.23-.34-1.05-.69-2.03-.91-2.88-.24-.86-.44-1.58-.55-2.08ZM243.94,16.97c-.7.55-1.39,1.13-2.02,1.68-.59.59-1.13,1.16-1.58,1.66-.42.53-.75.98-.98,1.29-.21.33-.33.53-.33.53,0,0,.19-.12.53-.33.32-.22.77-.54,1.33-.9.52-.4,1.14-.84,1.82-1.3.65-.49,1.35-.99,2.06-1.48.68-.53,1.38-1.05,2.05-1.5.65-.5,1.26-.96,1.8-1.33.51-.42.95-.75,1.27-.98.3-.25.47-.4.47-.4,0,0-.22.05-.6.15-.37.12-.9.29-1.53.53-.61.27-1.31.61-2.07.99-.72.43-1.48.9-2.22,1.39ZM254.23,14.4c-.32-.13-.76-.34-1.28-.6-.54-.24-1.12-.58-1.76-.94-.63-.36-1.28-.77-1.91-1.23-.64-.44-1.25-.91-1.8-1.38-.54-.48-1.06-.92-1.47-1.34-.41-.41-.77-.76-.99-1.01-.24-.26-.37-.4-.37-.4,0,0,.1.17.28.46.19.29.46.71.84,1.16.37.46.83.99,1.37,1.49.55.51,1.16,1.01,1.8,1.49.66.44,1.34.85,2,1.2.67.34,1.31.59,1.87.8.56.2,1.04.31,1.38.4.34.07.53.11.53.11,0,0-.18-.08-.5-.22ZM255.32,18.11c1.04.43,2.17.83,3.33,1.17,1.17.27,2.36.46,3.48.59,1.12.06,2.17.08,3.07.03.89-.08,1.63-.18,2.14-.27.51-.12.8-.18.8-.18,0,0-.29-.03-.81-.09-.51-.03-1.24-.1-2.11-.24-.86-.08-1.87-.24-2.92-.45-1.07-.18-2.19-.43-3.29-.74-1.12-.26-2.22-.58-3.23-.95-1.03-.33-1.98-.67-2.78-1.02-.82-.3-1.49-.59-1.96-.81-.48-.2-.75-.31-.75-.31,0,0,.22.2.61.55.4.32.99.78,1.74,1.28.76.48,1.69.96,2.7,1.46ZM251.71,33.52c.03-.93.12-1.92.27-2.89.14-.98.35-1.95.59-2.84.26-.89.5-1.73.79-2.42.27-.7.5-1.28.69-1.67.18-.4.28-.63.28-.63,0,0-.14.21-.38.57-.23.38-.57.91-.89,1.6-.33.68-.68,1.5-.97,2.4-.28.91-.51,1.9-.69,2.9-.13,1-.2,2.02-.21,2.97,0,.96.1,1.84.21,2.59.1.75.27,1.36.38,1.79.13.42.2.67.2.67,0,0-.03-.25-.09-.69-.06-.43-.12-1.06-.16-1.8-.07-.75-.05-1.62-.03-2.55ZM257.79,53.78c1.16.74,2.17,1.25,2.9,1.57.74.3,1.17.44,1.17.44,0,0-.39-.23-1.04-.68-.66-.42-1.57-1.07-2.55-1.96-1.01-.86-2.1-1.95-3.1-3.24-1.04-1.27-1.98-2.74-2.71-4.31-.78-1.55-1.35-3.2-1.71-4.81-.4-1.58-.57-3.12-.62-4.44-.09-1.32-.03-2.44.05-3.21.05-.78.11-1.23.11-1.23,0,0-.16.42-.38,1.18-.2.77-.44,1.88-.57,3.25-.08,1.37-.05,2.98.22,4.7.31,1.71.86,3.49,1.63,5.18.85,1.66,1.9,3.19,3.04,4.49,1.18,1.27,2.43,2.3,3.56,3.08ZM236.61,35.41c.26.86.63,2.09,1.15,3.55.56,1.44,1.27,3.1,2.14,4.84.91,1.71,1.96,3.5,3.11,5.22,1.2,1.68,2.49,3.31,3.77,4.76,1.31,1.41,2.59,2.74,3.95,3.6,1.38.84,2.73,1.11,3.64,1.09.46-.02.81-.09,1.05-.15.23-.07.36-.1.36-.1,0,0-.52.12-1.39-.02-.87-.11-2.07-.54-3.21-1.47-1.17-.89-2.3-2.25-3.48-3.75-1.21-1.46-2.42-3.09-3.54-4.77-1.18-1.65-2.26-3.35-3.2-5.01-.98-1.63-1.81-3.2-2.48-4.57-.72-1.35-1.25-2.51-1.62-3.32-.38-.82-.6-1.28-.6-1.28,0,0,.13.5.34,1.37ZM241.5,58.04c-.57-.01-1.39-.03-2.38-.05-.96.06-2.08.14-3.28.21-.98.13-2.02.24-3.06.34.26.86.55,1.74.86,2.64.91-.18,1.81-.38,2.65-.57,1.15-.39,2.23-.75,3.15-1.06.9-.4,1.65-.73,2.17-.96.52-.29.81-.44.81-.44,0,0-.34-.03-.92-.1ZM251.22,65.41c-.77.08-1.88.21-3.2.35-1.31.23-2.83.49-4.46.78-1.6.37-3.31.77-5.02,1.18-.68.21-1.35.4-2.02.58.37.81.76,1.63,1.17,2.47.52-.1,1.05-.21,1.57-.33,1.68-.53,3.37-1.05,4.94-1.54,1.55-.59,2.99-1.14,4.22-1.61,1.22-.55,2.22-1.02,2.94-1.34.7-.37,1.09-.58,1.09-.58,0,0-.45.02-1.24.05ZM261,72.9c-.92.22-2.23.55-3.8.94-1.55.47-3.34,1.02-5.27,1.61-1.89.68-3.9,1.4-5.91,2.04-1.34.52-2.67.99-3.99,1.41.45.75.89,1.52,1.35,2.3,1.19-.32,2.39-.67,3.58-1.06,2.03-.79,4.01-1.64,5.86-2.43,1.81-.88,3.5-1.7,4.95-2.41,1.42-.78,2.6-1.44,3.42-1.9.81-.51,1.27-.79,1.27-.79,0,0-.54.1-1.47.29ZM269.52,81.11c-1.03.05-2.51.22-4.26.6-1.72.46-3.69,1.14-5.73,1.96-2.01.91-4.09,1.94-6.17,2.91-1.74.93-3.49,1.78-5.2,2.48,0,.02.02.03.03.05.44.7.9,1.41,1.35,2.12,1.7-.61,3.41-1.34,5.09-2.12,2.06-1.1,4.07-2.24,5.96-3.23,1.86-1.08,3.62-1.99,5.18-2.66,1.53-.76,2.88-1.26,3.85-1.55.95-.35,1.52-.51,1.52-.51,0,0-.58-.04-1.62-.03ZM275.49,91.26c-1,.23-2.42.57-4.12.96-1.68.49-3.63,1.06-5.72,1.66-2.06.7-4.26,1.44-6.45,2.18-1.85.74-3.68,1.48-5.43,2.15.39.73.77,1.49,1.13,2.25,1.73-.56,3.5-1.16,5.27-1.76,2.15-.86,4.3-1.72,6.32-2.53,1.98-.9,3.83-1.74,5.42-2.46,1.56-.8,2.85-1.47,3.76-1.94.89-.51,1.4-.81,1.4-.81,0,0-.57.11-1.59.3ZM283.82,105.59c-.29-.1-.71-.27-1.27-.41-1.11-.29-2.74-.57-4.74-.65-1.98.02-4.3.26-6.72.71-2.4.54-4.91,1.28-7.36,2-1.78.62-3.56,1.22-5.28,1.72.26.8.51,1.61.73,2.44,1.79-.43,3.61-.94,5.4-1.47,2.43-.85,4.83-1.68,7.1-2.31,2.25-.73,4.38-1.24,6.24-1.5,1.85-.35,3.44-.43,4.56-.4.56-.02,1.01.02,1.31.02.31.01.47.02.47.02,0,0-.15-.06-.44-.16ZM286.02,117.85s-.61.13-1.69.34c-1.05.26-2.56.59-4.39.89-1.79.41-3.91.74-6.17,1.03-2.26.35-4.67.61-7.1.74-1.92.18-3.83.27-5.69.3.08.83.13,1.68.18,2.52,1.87.06,3.79.07,5.74-.02,2.52-.27,5.01-.66,7.32-1.15,2.29-.62,4.4-1.25,6.16-1.92,1.75-.72,3.16-1.4,4.14-1.89.96-.54,1.5-.85,1.5-.85ZM281.89,134.16c.91-.25,1.42-.39,1.42-.39,0,0-.53-.06-1.47-.16-.93-.06-2.25-.15-3.83-.31-1.58-.06-3.4-.21-5.36-.4-1.95-.11-4.03-.29-6.1-.53-1.91-.12-3.8-.3-5.61-.51-.08.83-.18,1.65-.29,2.46,1.81.32,3.72.61,5.64.85,2.14.11,4.29.17,6.29.16,2.01-.12,3.88-.26,5.47-.46,1.59-.26,2.9-.53,3.82-.72ZM274.22,143.56c.72-.11,1.13-.17,1.13-.17,0,0-.39-.14-1.08-.37-.69-.19-1.67-.47-2.83-.83-1.17-.27-2.53-.63-3.97-1.03-1.46-.32-3-.7-4.53-1.12-1.09-.21-2.15-.44-3.19-.68-.19.85-.39,1.67-.59,2.49,1.02.32,2.08.64,3.15.93,1.61.3,3.23.56,4.74.77,1.54.1,2.97.17,4.2.2,1.24-.05,2.26-.13,2.98-.2ZM267.75,150.96c.63-.18.98-.28.98-.28,0,0-.35-.1-.98-.27-.62-.12-1.51-.31-2.55-.58-1.05-.18-2.26-.44-3.53-.76-1.29-.23-2.65-.53-4-.89-.14-.02-.28-.06-.42-.08-.3.88-.61,1.76-.93,2.61.25.07.49.15.74.22,1.45.25,2.92.44,4.29.56,1.39,0,2.67-.01,3.77-.09,1.1-.15,2.01-.32,2.64-.45ZM262.93,159.47c.55-.12.86-.18.86-.18,0,0-.29-.13-.8-.37-.51-.18-1.23-.45-2.08-.82-.86-.26-1.85-.62-2.89-1.02-1.06-.32-2.17-.7-3.27-1.11-.17-.04-.33-.09-.49-.14-.11.26-.22.54-.33.79-.26.59-.52,1.15-.77,1.73.24.1.49.2.74.3,1.21.32,2.43.59,3.57.81,1.18.1,2.26.18,3.2.2.94-.05,1.73-.14,2.27-.2ZM257.46,165.68c.46-.08.72-.13.72-.13,0,0-.22-.15-.6-.41-.39-.21-.95-.52-1.59-.91-.67-.3-1.44-.67-2.25-1.08-.75-.29-1.54-.64-2.32-.99-.12.24-.22.49-.34.72-.29.62-.55,1.22-.82,1.82.94.29,1.87.55,2.75.77.95.12,1.83.23,2.59.29.78-.02,1.42-.06,1.87-.09ZM254.37,171.09c.43-.17.67-.27.67-.27,0,0-.25-.1-.67-.27-.42-.13-1.02-.31-1.72-.58-.71-.16-1.52-.39-2.38-.64-.55-.11-1.13-.27-1.7-.4-.31.87-.6,1.74-.86,2.6.77.1,1.53.18,2.25.22.96-.05,1.84-.11,2.59-.2.76-.17,1.38-.33,1.81-.46ZM254.71,202.58c-.34.25-.82.6-1.42.98-.55.43-1.22.89-1.95,1.34-.56.42-1.16.81-1.79,1.2.33.63.68,1.23,1.03,1.79.68-.51,1.33-1.05,1.92-1.57.62-.69,1.18-1.34,1.62-1.93.4-.62.69-1.16.89-1.54.16-.4.26-.63.26-.63,0,0-.21.14-.57.36ZM260.65,208.31c-.24.33-.61.78-1.1,1.28-.41.53-.95,1.11-1.55,1.68-.55.61-1.18,1.22-1.86,1.77-.19.19-.4.37-.59.55.57.47,1.13.89,1.69,1.26.11-.08.22-.16.32-.24.69-.7,1.33-1.45,1.88-2.2.47-.8.87-1.55,1.14-2.23.24-.7.37-1.29.46-1.71.05-.43.07-.67.07-.67,0,0-.16.18-.45.5ZM268.97,211.3c-.12-.42-.19-.66-.19-.66,0,0-.08.24-.22.64-.11.4-.29.97-.56,1.61-.19.66-.5,1.4-.87,2.15-.32.77-.72,1.57-1.19,2.31-.13.28-.29.54-.45.8.33.06.64.12.9.18.5.06.89.11,1.19.14.05,0,.08,0,.13.02.03-.03.05-.07.07-.1.44-.91.81-1.85,1.08-2.75.18-.94.29-1.8.31-2.55-.03-.75-.12-1.37-.2-1.79Z"/>
    <path class="cls-1" d="M254.28,214.64s-.07.06-.1.08c-.03.02-.06.05-.09.07-1.68-.85-3.2-1.78-4.59-2.73-.75-.76-1.47-1.58-2.17-2.47.13-.05.25-.08.39-.13.34-.16.69-.33,1.03-.5.61.86,1.24,1.66,1.88,2.37,1.21,1.33,2.44,2.42,3.66,3.31Z"/>
    <path class="cls-4" d="M231.72,113.91c3.12-.12,6.2-.03,9.23.24l-9.43,2.53,10.77.79-11.96,2.55,10.31.66-10.01,2.28,11.49.69-9.19,2.4,11.49.62s0,.05,0,.07l-12.99,3.01,13.12.6c0,.08,0,.16,0,.24l-12.62,1.89,12.48,1.18s0,.03,0,.05c-4.04.88-8.17,1.53-12.37,1.9,3.4.67,6.87,1.17,10.38,1.48-3.36.99-6.82,1.77-10.34,2.31,3.73.51,7.53.76,11.36.75-.05.24-.11.48-.16.71l-11.27,1.96,10.25,1.41-7.67,2.32,6.79,1.02c-.09.29-.19.57-.29.86-.34-.01-.69-.02-1.05-.02-1.14,0-2.37.06-3.68.19-.27.03-.54.04-.78.04-2.53,0-3.22-1.22-4.65-8.2-.23-1.11-.47-2.28-.75-3.48-1.66-7.18-1.32-13.32-.96-19.82l.06-1.06c.18-3.23,1.33-6.71,3.43-6.71.48,0,1.03.13,1.64.38,1.65.68,3.14,1.17,4.47,1.52-2.43.77-4.8,1.64-7.09,2.64Z"/>
    <path class="cls-1" d="M239.95,174.4c.38-1.84.88-3.64,1.46-5.42.15.12.29.22.46.35.66.38,1.44.79,2.3,1.21.07.03.14.05.21.08-.42,1.51-.75,3.01-1.05,4.48-.42-.09-.82-.18-1.22-.27-.79-.13-1.52-.27-2.17-.43Z"/>
    <path class="cls-1" d="M252.06,112.33c1.05-.03,2.17-.1,3.32-.23.81,2.89,1.4,5.94,1.72,9.12-1.27,0-2.47-.03-3.57-.1-.18-3.1-.71-6-1.47-8.78Z"/>
    <path class="cls-1" d="M242.42,167.84c-.22-.02-.4-.03-.6-.05.79-2.25,1.7-4.49,2.67-6.79.25.25.53.53.87.86.49.37,1.07.78,1.69,1.21-.63,1.47-1.22,2.95-1.71,4.4-.09.26-.16.52-.24.78-.08-.02-.16-.03-.24-.05-.89-.1-1.73-.22-2.44-.35Z"/>
    <path class="cls-1" d="M254.71,109.86s.02.07.04.1c-1.11.28-2.19.48-3.2.62-.94-2.96-2.14-5.77-3.52-8.52.98-.14,2.05-.35,3.17-.6.24.51.48,1.02.73,1.54.26.54.52,1.09.79,1.63.26.56.45,1.13.68,1.71.43,1.15.91,2.31,1.31,3.51Z"/>
    <path class="cls-1" d="M253.27,131.1c.22-2.35.35-4.82.35-7.44,0-.3-.02-.59-.03-.89,1.12.22,2.36.42,3.68.59.04.73.07,1.46.08,2.2.02,2.02-.07,3.99-.26,5.93-.69-.08-1.36-.15-1.98-.24-.67-.05-1.28-.1-1.85-.16Z"/>
    <path class="cls-2" d="M234.68,9.15c-.04-.56-.07-1.05-.07-1.52,0-2.95,2.47-5.93,7.19-5.93,3.38,0,6.76,1.54,9.28,4.22,2.83,3,6.08,5.48,17.36,5.48,2.08,0,3.85,1.51,4.17,3.56.24,1.41,1.49,5.41,4.23,6.73,4.27,2.04,7.22,7.35,10.07,12.48,1.73,3.12,3.52,6.34,5.03,7.7,3.16,2.84,9.97,6.81,13.38,8.68.2,0,.43-.01.66-.01,4.25,0,7.39,1.33,9.08,3.82,1.06,1.57,1.98,4.27.38,8.24-2.35,5.84-6.58,6.71-8.9,6.71s-4.27-.81-5.6-1.53c-.85.08-1.99.15-3.32.15-2.81,0-7.05-.33-11.26-1.88-2.57-.95-4.44-1.91-6.09-2.75-3.11-1.58-4.99-2.54-9.94-2.54-2.19,0-4.02.3-5.51.72,9.44,8.18,28.06,27.78,28.06,54.97,0,18.75-10.17,30.69-19.15,41.23-8.36,9.82-16.27,19.1-16.27,33.15,0,6.38,4.85,10.24,9.79,11.81-4.65-3.06-7.25-8.51-7.25-13.85,0-4.49,1.77-8.62,4.98-11.62,2.46-2.29,7-5.03,14.68-5.03,14.6,0,22.24,12.06,22.24,23.96,0,7.32-2.67,14.18-7.51,19.34-3.87,4.13-10.97,9.04-22.84,9.04-18.59,0-28.1-8.57-32.81-15.76-9.28-14.17-8.08-35.48-2.09-49.2,1.23-2.83,2.38-5.57,3.41-8.27-.02,0-.02,0-.04,0-.98,0-2.1.05-3.4.18-.37.04-.72.06-1.06.06-6.23,0-6.37-6.19-8.15-13.87-1.85-7.98-1.35-14.8-.97-21.67.26-4.73,2.17-9.37,6.25-9.37.82,0,1.72.19,2.71.59,1.43.59,2.71,1.01,3.86,1.32-1.41-2.96-3.12-6.04-5.18-9.27-9.81-15.39-15.04-28.78-15.98-40.93-1.1-14.27,3.48-27.06,14.01-39.1,3.04-3.48,2.75-7.42,2.55-10.03ZM244.38,170.62c-.07-.03-.14-.05-.21-.08-.86-.42-1.65-.83-2.3-1.21-.17-.13-.31-.23-.46-.35-.59,1.78-1.08,3.58-1.46,5.42.65.15,1.38.29,2.17.43.4.09.8.18,1.22.27.29-1.47.62-2.97,1.05-4.48ZM245.35,167.47c.48-1.45,1.08-2.93,1.71-4.4-.62-.43-1.2-.84-1.69-1.21-.34-.33-.62-.6-.87-.86-.97,2.3-1.88,4.54-2.67,6.79.2.02.38.03.6.05.71.14,1.55.25,2.44.35.08.02.16.03.24.05.09-.26.15-.51.24-.78ZM257.35,125.56c-.01-.74-.04-1.47-.08-2.2-1.32-.17-2.55-.37-3.68-.59,0,.3.03.59.03.89,0,2.61-.12,5.09-.35,7.44.57.06,1.18.1,1.85.16.62.09,1.29.17,1.98.24.19-1.93.28-3.91.26-5.93ZM255.38,112.1c-1.15.13-2.27.21-3.32.23.76,2.78,1.29,5.69,1.47,8.78,1.1.07,2.3.1,3.57.1-.32-3.18-.91-6.23-1.72-9.12ZM251.93,103c-.25-.51-.49-1.02-.73-1.54-1.12.25-2.18.46-3.17.6,1.38,2.75,2.58,5.56,3.52,8.52,1.01-.14,2.08-.35,3.2-.62-.01-.03-.02-.07-.04-.1-.4-1.2-.89-2.36-1.31-3.51-.23-.58-.42-1.16-.68-1.71-.26-.54-.53-1.09-.79-1.63ZM229.93,69.54c1.08-.07,2.26-.23,3.52-.54-1.08-2.6-1.98-5.11-2.7-7.51-.72.02-1.43.03-2.12.02-.42-.05-.82-.1-1.22-.16.66,2.88,1.51,5.6,2.52,8.2ZM234.04,71.37c-1.19.08-2.33.05-3.38-.04,1.39,3.31,3,6.44,4.72,9.44,1.04-.2,2.16-.48,3.34-.83-.86-1.66-1.71-3.26-2.49-4.84-.64-1.29-1.22-2.55-1.77-3.8-.13.02-.27.05-.41.06ZM239.85,82c-1.25.18-2.45.31-3.55.38,1.77,3.01,3.62,5.91,5.43,8.8.07-.02.13-.02.2-.05.88-.18,1.83-.43,2.81-.75-1.02-1.66-1.98-3.32-2.93-4.9-.67-1.19-1.31-2.34-1.95-3.48ZM242.66,92.67c1.63,2.62,3.2,5.25,4.62,7.94.05-.02.09-.03.14-.05.88-.26,1.84-.58,2.84-.96-.55-.95-1.09-1.88-1.63-2.8-.86-1.54-1.83-3.08-2.76-4.58-1.13.23-2.21.37-3.21.45ZM254.78,132.81c-.6-.22-1.13-.42-1.64-.61-.22,1.98-.5,3.88-.85,5.69.59.1,1.28.22,2.06.34.5.12,1.06.23,1.62.35.37-1.68.67-3.41.9-5.18-.74-.2-1.45-.4-2.09-.59ZM253.84,139.73c-.65-.36-1.23-.69-1.72-.97-.56,2.74-1.24,5.3-2.01,7.72.01,0,.02,0,.03,0,.99.28,2.15.54,3.39.78.75-2.19,1.43-4.45,2-6.79-.6-.26-1.18-.52-1.69-.76ZM249.62,148c-.68,2.04-1.42,3.99-2.17,5.87.33.08.67.17,1.06.25.64.22,1.39.44,2.18.65.69-1.69,1.39-3.43,2.05-5.22-1.15-.53-2.21-1.05-3.12-1.55ZM247.81,155.54c-.29-.23-.53-.44-.77-.64-.74,1.81-1.49,3.57-2.21,5.28.36.08.77.17,1.26.27.55.18,1.19.36,1.86.54.62-1.36,1.24-2.76,1.85-4.18-.73-.44-1.43-.87-2-1.27ZM239.88,184.32c-.22-.09-.42-.18-.63-.26.09,2.64.31,5.1.66,7.38.25,0,.48,0,.74,0,.63.03,1.29.02,1.94-.01-.22-2.07-.34-4.25-.3-6.54-.83-.16-1.65-.35-2.41-.57ZM241.59,176.58c-.69-.31-1.32-.62-1.88-.91-.33,1.93-.52,3.91-.52,5.98,0,.24.02.48.02.72.36.06.73.11,1.11.17.66.12,1.36.22,2.05.29.06-1.2.16-2.42.3-3.68.09-.7.2-1.41.31-2.12-.48-.15-.95-.3-1.39-.46ZM242.87,193.46c-.83-.03-1.64-.09-2.41-.2-.08-.02-.15-.05-.23-.06.53,2.75,1.24,5.24,2.09,7.48.33-.13.67-.27,1.01-.42.34-.12.68-.26,1.02-.4-.63-1.97-1.13-4.11-1.49-6.4ZM243.86,202.02c-.33.05-.64.09-.95.12.98,2.29,2.13,4.3,3.37,6.08.2-.13.4-.25.6-.39.26-.16.53-.33.8-.49-1-1.66-1.92-3.55-2.69-5.64-.38.11-.76.23-1.13.32ZM247.71,209.47c-.14.05-.27.08-.39.13.7.89,1.43,1.71,2.17,2.47,1.39.95,2.92,1.88,4.59,2.73.03-.02.06-.05.09-.07.03-.03.07-.05.1-.08-1.21-.89-2.45-1.98-3.66-3.31-.64-.71-1.27-1.51-1.88-2.37-.35.18-.69.35-1.03.5ZM289.29,179.07c-.22.14-.44.27-.67.45-.38.21-.76.46-1.12.74-.41.21-.81.44-1.17.69-.4.2-.77.42-1.08.63-.35.17-.65.33-.85.46-.23.11-.36.17-.36.17,0,0,.01-.15.03-.41.05-.24.15-.58.29-1,.2-.37.45-.79.77-1.23.37-.38.8-.75,1.25-1.09.33-.18.68-.32,1.02-.45-1.98-.93-4.24-1.5-6.76-1.62,0,.01,0,.02-.01.03-.14.29-.25.64-.34,1.01-.14.34-.26.71-.34,1.08-.16.35-.29.72-.37,1.08-.15.35-.27.7-.32,1.01-.14.32-.22.61-.26.82-.08.23-.12.35-.12.35,0,0-.1-.09-.28-.25-.14-.18-.34-.45-.53-.81-.14-.37-.24-.82-.32-1.32.02-.5.08-1.02.19-1.55.22-.49.48-.95.77-1.35.05-.05.1-.09.16-.14-2.7.08-4.99.55-6.9,1.32,0,.22.05.43.15.65.05.28.15.59.29.92.05.36.13.75.22,1.09.02.37.06.73.11,1.03,0,.34,0,.62,0,.82-.02.22-.03.35-.03.35,0,0-.12-.06-.32-.14-.18-.11-.43-.27-.71-.49-.23-.25-.49-.54-.76-.89-.19-.37-.39-.78-.56-1.21-.07-.42-.11-.88-.08-1.34-2.21,1.24-3.77,2.93-4.76,4.83.16.07.32.15.49.22.32.21.66.39,1.01.56.31.25.63.47.96.66.29.25.59.48.85.65.25.25.48.43.65.56.17.16.26.26.26.26,0,0-.12.05-.34.14-.21.05-.52.13-.9.18-.37,0-.8-.05-1.26-.11-.44-.15-.89-.32-1.33-.54-.39-.3-.76-.63-1.08-.95t0,0c-.81,2.43-.79,5.06-.07,7.48.13-.09.26-.16.39-.25.37-.18.77-.39,1.14-.62.41-.14.82-.31,1.2-.48.41-.12.8-.24,1.13-.38.37-.08.67-.16.89-.22.24-.04.38-.06.38-.06,0,0-.04.13-.11.37-.1.21-.25.51-.45.86-.24.3-.54.64-.88.99-.38.29-.81.57-1.25.83-.48.18-.97.33-1.43.44-.16.01-.3.02-.45.03.44,1.01,1.02,1.96,1.72,2.82.25.17.51.34.8.5.8.47,1.76.9,2.77,1.26.1-.18.2-.35.28-.53.23-.32.45-.67.62-1.02.23-.32.43-.65.57-.95.22-.29.37-.56.47-.75.14-.19.22-.31.22-.31,0,0,.07.12.19.33.08.22.19.53.29.93.04.39.03.85-.02,1.35-.12.48-.29.98-.51,1.46-.02.02-.03.04-.05.06.32.06.63.16.96.2.73.09,1.48.14,2.23.12.66,0,1.32-.08,1.96-.18-.01-.15-.01-.29-.03-.45.05-.34.08-.69.1-1.03.08-.34.14-.67.17-.95.1-.3.17-.56.2-.75.08-.2.12-.31.12-.31,0,0,.1.07.28.2.14.14.33.35.56.61.16.28.33.63.49,1.01.08.37.14.77.18,1.17.07-.03.16-.05.22-.07,1.26-.46,2.14-1.13,2.78-2.09.05-.07.09-.14.14-.22.13-.44.22-.9.29-1.35-.12-.06-.24-.12-.36-.18-.21-.15-.43-.28-.64-.39-.2-.16-.4-.3-.58-.4-.17-.15-.32-.27-.44-.35-.11-.1-.18-.16-.18-.16,0,0,.08-.04.21-.11.14-.05.34-.11.58-.16.24-.01.52,0,.83.03.22.06.46.14.69.24,0-.87-.11-1.74-.37-2.57-.29-.93-.75-1.76-1.35-2.45-.07.06-.15.12-.24.17-.2.1-.4.21-.61.32-.23.06-.45.13-.66.19-.21.06-.43.05-.61.07-.18.02-.35-.02-.46-.02-.12-.02-.19-.04-.19-.04,0,0,.04-.06.11-.16.08-.08.17-.23.32-.34.14-.11.3-.28.49-.38.19-.1.4-.21.61-.32.2-.06.4-.12.59-.18-.83-.76-1.76-1.34-2.75-1.6-.8-.2-1.64-.24-2.42-.04.01.11.03.23.05.34-.03.14-.06.27-.08.4-.03.13-.13.25-.18.35-.05.1-.16.18-.2.24-.07.06-.11.1-.11.1,0,0-.04-.04-.1-.1-.04-.06-.14-.15-.19-.26-.04-.1-.13-.23-.14-.36-.02-.09-.03-.19-.04-.28-.86.49-1.56,1.28-1.71,2.23-.08.54-.02,1.02.23,1.69.08.24.19.47.3.69.11-1.49,1.34-2.67,2.87-2.67s2.89,1.29,2.89,2.88c0,1.09-.61,2.02-1.5,2.52.02,0,.04,0,.06,0-.08.04-.17.07-.25.1-.07.03-.14.06-.21.08-.05.02-.09.03-.14.05-.16.05-.31.08-.48.1-.05,0-.11,0-.16.01-.07,0-.14.02-.21.02-.02,0-.03,0-.05,0-1.09.05-2.24-.3-3.15-1.02-.68-.53-1.24-1.18-1.69-1.89-.48-.65-.88-1.67-.9-2.64-.09-2.03,1.1-3.92,2.7-4.97,1.6-1.08,3.65-1.51,5.53-1.15,1.9.32,3.57,1.25,4.93,2.39,1.44,1.24,2.44,2.91,3.02,4.63,1.16,3.48.69,7.26-.98,10.39-.85,1.56-1.99,2.96-3.34,4.08-1.37,1.11-2.91,1.94-4.51,2.51-3.23,1.16-6.55,1.22-9.81.67-.9-.18-1.77-.44-2.63-.76-6.7-2.21-12.52-7.75-12.52-15.77,0-31.72,35.42-40.54,35.42-74.38,0-19.73-10.72-35.38-19.67-45,1.91,3.05,3.63,6.18,5.11,9.39-5.5-6.47-11.89-11.96-18.81-16.28-1.53.08-3.13-.19-4.46-.77-1.76-.73-3.2-1.75-4.5-2.83-.64-.58-1.28-1.15-1.88-1.75-.56-.63-1.18-1.23-1.68-1.9-2.09-2.65-3.69-5.58-4.86-8.63-1.14-3.06-1.97-6.21-2.19-9.43,2.54,5.85,5.61,11.38,9.76,15.68.49.55,1.07,1.02,1.58,1.55.57.48,1.14.92,1.71,1.37,1.19.85,2.4,1.65,3.59,2.08,1.21.45,2.28.57,3.49.32.98-.21,2.07-.62,3.23-1.1l.26-.31s.09.1.14.15c.14-.06.28-.12.42-.18,2.11-.93,4.43-1.8,6.84-2.34-2.26-.97-4.25-2.15-5.87-3.34-2.06-1.53-3.56-3.03-4.52-4.15s-1.42-1.82-1.42-1.82c0,0,.7.48,1.89,1.3,1.2.8,2.95,1.87,5.12,2.93,2.17,1.06,4.77,2.11,7.64,2.85,1.43.38,2.92.66,4.51.94,1.59.27,3.26.56,4.96,1.03,1.71.48,3.36,1.17,4.85,1.92,1.51.74,2.9,1.54,4.24,2.25,2.65,1.44,5.15,2.51,7.43,2.87,1.15.2,2.17.19,3.19.12.64-.04,1.26-.04,1.82.02-.07-.18-.16-.36-.22-.54-.38-1.2-.37-2.33-.21-3.22.16-.9.46-1.59.7-2.05.25-.46.44-.7.44-.7,0,0,.11.29.26.77.16.47.36,1.13.63,1.84.27.71.61,1.45,1.04,2.11.21.32.45.61.71.9.27.27.54.53.83.73.29.22.59.37.89.5.29.13.6.2.95.24.68.1,1.49-.01,2.24-.16.43-.09.82-.18,1.18-.25.57-.61,1.09-1.42,1.53-2.51.06-.15.1-.3.15-.44l-4.02-2.81,4.38.32c-.27-2.22-2.45-3-4.42-3.23-.13.02-.25.03-.38.06-.39.04-.81.12-1.21.23-.41.06-.82.14-1.21.25-.4.07-.77.15-1.08.26-.34.06-.62.13-.82.2-.21.04-.33.06-.33.06,0,0,.06-.1.18-.29.13-.17.33-.41.59-.67.16-.13.34-.26.53-.39-2.14-1.17-10.67-5.89-14.77-9.57-.11-.1-.21-.22-.32-.33-.81-.63-1.63-1.35-2.43-2.14-1.51-1.54-2.85-3.41-4.16-5.2-1.26-1.83-2.57-3.6-4.09-4.92-1.46-1.37-3.15-2.3-4.73-2.52-1.57-.3-2.96,0-3.82.41-.44.19-.77.39-.98.54-.21.16-.33.24-.33.24,0,0,.1-.1.28-.3.19-.19.48-.45.89-.73.84-.54,2.27-1.07,4.05-.98,1.79.11,3.76,1,5.46,2.37,1.65,1.36,3.05,3.13,4.34,4.9-2.03-3.67-4.12-7.43-6.44-9.55-.06-.04-.13-.09-.2-.12-.75-.41-1.55-.78-2.38-1.07-.85-.29-1.73-.56-2.66-.74-.92-.22-1.88-.38-2.83-.56-.98-.17-1.94-.33-2.88-.5-1.9-.35-3.71-.81-5.21-1.43-1.5-.62-2.64-1.37-3.35-1.98-.71-.62-1.04-1.03-1.04-1.03,0,0,.51.16,1.36.42.86.23,2.08.47,3.54.62,1.46.16,3.18.21,5.07.31.94.05,1.94.1,2.97.22.41.04.82.1,1.23.16-1.58-2.71-2.03-5.44-2.03-5.44-12.22,0-16.68-2.82-20.44-6.82-1.96-2.08-4.35-2.88-6.2-2.88-1.71,0-2.96.69-2.96,1.7,0,1.47.67,5.07-.55,9.02,1.02-.66,2.01-1.22,2.93-1.66,1.26-.62,2.36-1.02,3.15-1.26.78-.25,1.25-.35,1.25-.35,0,0-.31.37-.88.94-.59.59-1.41,1.39-2.35,2.34-.99.95-2.11,2.03-3.29,3.18-.6.58-1.2,1.18-1.82,1.79-.62.62-1.25,1.23-1.87,1.85-.62.63-1.24,1.25-1.85,1.87-.43.43-.84.86-1.25,1.28-2.95,5.14-6.34,12.97-6.34,21.78,0,3.88.38,7.47,1.02,10.86.51-.06,1.05-.13,1.6-.21.47-.03.97-.09,1.46-.15-.17-.67-.33-1.33-.46-1.99-1.21-5.47-1.23-10.31-.66-14.25.48-3.97,1.65-7.03,2.63-9.41.46-1.22,1.1-2.17,1.55-3.07.48-.88.86-1.64,1.32-2.23,1.69-2.41,2.3-3.17,2.3-3.17-2.48,3.8-4.54,7.87-5.79,12.24-1.21,4.38-1.48,8.97-1.06,13.47.16,2.27.67,4.48,1.12,6.7.63,2.18,1.18,4.38,2.02,6.49.72,2.15,1.67,4.21,2.56,6.29.99,2.04,1.92,4.11,3,6.09,2.09,4.02,4.39,7.93,6.74,11.8,1.17,1.94,2.4,3.84,3.6,5.77,1.16,1.95,2.33,3.89,3.43,5.87,4.17,8.02,6.92,16.92,6.94,26.02.04,4.52-.39,9.06-1.42,13.49-.99,4.42-2.39,8.74-4.03,12.96-1.63,4.24-3.61,8.32-5.44,12.46-1.78,4.16-3.05,8.55-3.8,13.01-.39,2.24-.6,4.49-.73,6.76-.08,2.27-.05,4.53.14,6.79.41,4.51,1.43,8.99,3.3,13.13,1.85,4.12,4.64,7.89,8.34,10.53,3.69,2.68,8.27,3.9,12.79,3.93,0,0-.24.01-.83.05-.01.02-.03.05-.05.07,2.27.21,4.59.2,6.87-.06.05,0,.09-.01.14-.02.06-.46.15-.92.19-1.39.14-.74.25-1.49.32-2.19.13-.7.22-1.38.27-1.96.12-.59.19-1.08.23-1.44.08-.36.12-.57.12-.57,0,0,.1.18.29.5.14.34.34.82.54,1.41.15.6.27,1.31.38,2.09.03.77,0,1.61-.06,2.44-.05.27-.12.52-.18.78,1.68-.31,3.32-.75,4.9-1.34.37-.14.74-.3,1.1-.45-.05-.53-.1-1.08-.21-1.62-.05-.68-.14-1.36-.27-2-.07-.65-.16-1.27-.29-1.79-.05-.55-.13-1.01-.21-1.33-.04-.35-.06-.54-.06-.54,0,0,.16.13.42.35.24.24.57.6.94,1.07.32.49.64,1.09.96,1.76.24.69.45,1.45.6,2.22.02.35.03.7.04,1.04,1.15-.57,2.26-1.21,3.29-1.93.51-.35,1.01-.73,1.49-1.12-.09-.14-.18-.28-.28-.43-.29-.54-.62-1.09-.98-1.62-.29-.58-.61-1.14-.93-1.66-.28-.55-.55-1.07-.82-1.49-.21-.47-.42-.86-.57-1.14-.13-.3-.2-.47-.2-.47,0,0,.18.06.48.17.28.14.7.35,1.17.63.43.32.91.73,1.41,1.2.44.52.87,1.09,1.28,1.69.32.64.59,1.29.82,1.92.74-.69,1.43-1.4,2.05-2.14.72-.87,1.36-1.76,1.92-2.66-.25-.21-.52-.44-.81-.66-.46-.43-.98-.84-1.52-1.23-.49-.45-1.01-.87-1.52-1.23-.49-.41-.96-.79-1.4-1.07-.4-.36-.77-.63-1.04-.81-.26-.22-.41-.34-.41-.34,0,0,.2-.02.54-.05.33,0,.81.03,1.38.11.55.13,1.18.33,1.86.58.64.33,1.29.73,1.92,1.16.56.52,1.09,1.08,1.54,1.63.1.17.19.31.29.47.17-.31.33-.62.48-.93.37-.78.67-1.55.94-2.3.29-1.19.5-2.38.61-3.58-.32-.13-.65-.26-1.02-.38-.5-.22-1.05-.42-1.61-.56-.53-.21-1.09-.39-1.62-.51-.52-.18-1.04-.32-1.5-.39-.46-.15-.86-.23-1.15-.27-.3-.08-.47-.13-.47-.13,0,0,.15-.1.4-.28.27-.14.66-.33,1.17-.5.5-.12,1.12-.2,1.78-.24.66.05,1.36.16,2.04.33.66.27,1.28.6,1.84.95.08.07.14.13.22.2.04-1.7-.11-3.38-.42-5.01-.27-.08-.55-.15-.85-.22-.49-.17-1.03-.3-1.56-.4-.51-.17-1.05-.31-1.56-.4-.5-.15-1-.27-1.43-.33-.44-.13-.82-.21-1.09-.25-.28-.08-.44-.12-.44-.12,0,0,.13-.1.37-.29.25-.14.61-.34,1.08-.53.47-.14,1.04-.24,1.66-.32.61.01,1.28.07,1.93.18.49.17.94.37,1.39.59-.53-1.84-1.3-3.58-2.28-5.15-.03,0-.06.02-.09.03-.39.08-.84.21-1.3.36-.47.09-.96.22-1.43.38-.5.08-.99.19-1.45.32-.48.07-.94.16-1.32.28-.42.05-.78.12-1.02.18-.27.03-.43.05-.43.05,0,0,.07-.14.19-.38.14-.22.37-.53.67-.88.33-.3.75-.61,1.22-.94.5-.25,1.06-.47,1.63-.67.6-.09,1.2-.14,1.76-.16.23.03.45.06.66.1-1.17-1.55-2.59-2.88-4.24-3.95ZM234.34,109.76c-.61-.25-1.17-.38-1.64-.38-2.1,0-3.26,3.48-3.43,6.71l-.06,1.06c-.37,6.5-.71,12.64.96,19.82.28,1.2.52,2.37.75,3.48,1.43,6.97,2.13,8.2,4.65,8.2.24,0,.51-.02.78-.04,1.31-.13,2.54-.19,3.68-.19.37,0,.72,0,1.05.02.1-.29.2-.57.29-.86l-6.79-1.02,7.67-2.32-10.25-1.41,11.27-1.96c.05-.23.11-.47.16-.71-3.84.01-7.64-.24-11.36-.75,3.53-.54,6.98-1.32,10.34-2.31-3.51-.32-6.98-.81-10.38-1.48,4.19-.37,8.32-1.02,12.37-1.9,0-.02,0-.03,0-.05l-12.48-1.18,12.62-1.89c0-.08,0-.16,0-.24l-13.12-.6,12.99-3.01s0-.05,0-.07l-11.49-.62,9.19-2.4-11.49-.69,10.01-2.28-10.31-.66,11.96-2.55-10.77-.79,9.43-2.53c-3.03-.27-6.12-.37-9.23-.24,2.29-.99,4.67-1.87,7.09-2.64-1.33-.35-2.81-.84-4.47-1.52ZM229.02,85.49c2.98,6.22,6.99,11.9,10.23,17.86,3.23,5.99,5.69,12.41,6.78,19.09.62,3.33.75,6.72.64,10.1-.17,3.38-.69,6.74-1.47,10.05-1.6,6.62-4.28,12.92-6.91,19.27-2.54,6.46-3.75,13.38-3.84,20.28-.01,6.87,1.1,13.86,4.11,20.07-2.72-6.32-3.66-13.26-3.42-20.06.23-6.81,1.54-13.61,4.14-19.88,2.77-6.25,5.47-12.65,7.15-19.37.82-3.37,1.38-6.81,1.58-10.28.13-3.47.03-6.97-.6-10.4-1.16-6.87-3.73-13.42-7.04-19.47-.75-1.56-1.74-2.98-2.6-4.48-.88-1.49-1.79-2.93-2.7-4.38-1.78-2.92-3.51-5.86-5.09-8.89-3.18-6.04-5.85-12.38-7.44-19.02-1.71-6.61-2.05-13.57-.93-20.34-1.43,6.72-1.25,13.77.26,20.5,1.47,6.74,4.06,13.21,7.16,19.36Z"/>
    <path class="cls-2" d="M273.55,40.13c-2.21,0-4.01-1.8-4.01-4.01s1.79-4.01,4.01-4.01,4.01,1.8,4.01,4.01-1.79,4.01-4.01,4.01ZM274.82,33.86c-.64,0-1.15.45-1.31,1.03-.07-.02-.14-.05-.22-.05-.49,0-.87.39-.87.88s.39.86.87.86c.26,0,.5-.13.65-.31.24.2.54.34.88.34.76,0,1.38-.62,1.38-1.38s-.62-1.37-1.38-1.37Z"/>
    <path class="cls-2" d="M239.44,59.54c-.92.31-2,.67-3.15,1.06-.84.19-1.74.39-2.65.57-.31-.89-.6-1.77-.86-2.64,1.04-.09,2.08-.21,3.06-.34,1.2-.07,2.32-.15,3.28-.21.99.02,1.81.03,2.38.05.59.06.92.1.92.1,0,0-.29.16-.81.44-.52.23-1.27.56-2.17.96Z"/>
    <path class="cls-2" d="M248.43,67.28c-1.23.47-2.68,1.02-4.22,1.61-1.58.49-3.26,1.02-4.94,1.54-.52.12-1.05.22-1.57.33-.41-.84-.8-1.66-1.17-2.47.67-.18,1.34-.37,2.02-.58,1.71-.4,3.41-.8,5.02-1.18,1.63-.28,3.15-.55,4.46-.78,1.33-.14,2.43-.26,3.2-.35.79-.04,1.24-.05,1.24-.05,0,0-.4.21-1.09.58-.71.32-1.72.79-2.94,1.34Z"/>
    <path class="cls-2" d="M257.78,75.31c-1.45.71-3.14,1.53-4.95,2.41-1.85.79-3.83,1.64-5.86,2.43-1.19.39-2.39.74-3.58,1.06-.46-.78-.91-1.55-1.35-2.3,1.32-.43,2.65-.89,3.99-1.41,2.01-.64,4.02-1.37,5.91-2.04,1.93-.59,3.72-1.13,5.27-1.61,1.57-.39,2.88-.71,3.8-.94.93-.18,1.47-.29,1.47-.29,0,0-.46.29-1.27.79-.82.46-2.01,1.12-3.42,1.9Z"/>
    <path class="cls-2" d="M265.78,83.2c-1.56.67-3.32,1.58-5.18,2.66-1.89.99-3.91,2.12-5.96,3.23-1.68.78-3.39,1.52-5.09,2.12-.46-.71-.91-1.42-1.35-2.12,0-.02-.02-.03-.03-.05,1.71-.7,3.47-1.55,5.2-2.48,2.08-.97,4.16-2,6.17-2.91,2.04-.82,4.01-1.5,5.73-1.96,1.75-.38,3.23-.55,4.26-.6,1.04-.01,1.62.03,1.62.03,0,0-.57.16-1.52.51-.97.29-2.31.8-3.85,1.55Z"/>
    <path class="cls-2" d="M271.92,93.71c-1.59.72-3.44,1.56-5.42,2.46-2.02.81-4.17,1.67-6.32,2.53-1.78.6-3.54,1.2-5.27,1.76-.37-.76-.74-1.52-1.13-2.25,1.76-.67,3.59-1.42,5.43-2.15,2.2-.74,4.39-1.48,6.45-2.18,2.09-.6,4.04-1.17,5.72-1.66,1.7-.4,3.12-.74,4.12-.96,1.01-.19,1.59-.3,1.59-.3,0,0-.51.29-1.4.81-.91.47-2.2,1.14-3.76,1.94Z"/>
    <path class="cls-2" d="M282.48,105.72c-1.11-.03-2.71.05-4.56.4-1.86.26-3.99.77-6.24,1.5-2.27.63-4.67,1.46-7.1,2.31-1.79.53-3.61,1.05-5.4,1.47-.23-.83-.47-1.64-.73-2.44,1.72-.5,3.5-1.09,5.28-1.72,2.46-.72,4.96-1.46,7.36-2,2.42-.45,4.74-.69,6.72-.71,2,.07,3.63.36,4.74.65.56.14.98.32,1.27.41.29.1.44.16.44.16,0,0-.16,0-.47-.02-.3,0-.74-.04-1.31-.02Z"/>
    <path class="cls-2" d="M274.22,122.51c-2.31.48-4.81.88-7.32,1.15-1.94.09-3.87.08-5.74.02-.04-.85-.09-1.69-.18-2.52,1.86-.03,3.77-.12,5.69-.3,2.42-.13,4.84-.39,7.1-.74,2.26-.29,4.38-.62,6.17-1.03,1.83-.29,3.34-.63,4.39-.89,1.08-.21,1.69-.34,1.69-.34,0,0-.54.31-1.5.85-.98.5-2.39,1.18-4.14,1.89-1.76.67-3.88,1.3-6.16,1.92Z"/>
    <path class="cls-2" d="M266.31,135.18c-1.93-.24-3.83-.53-5.64-.85.11-.81.21-1.64.29-2.46,1.8.21,3.7.39,5.61.51,2.07.24,4.15.42,6.1.53,1.96.19,3.79.34,5.36.4,1.58.17,2.9.26,3.83.31.94.1,1.47.16,1.47.16,0,0-.52.14-1.42.39-.92.19-2.23.46-3.82.72-1.59.2-3.46.34-5.47.46-2,0-4.15-.05-6.29-.16Z"/>
    <path class="cls-2" d="M262.3,142.79c-1.07-.3-2.13-.61-3.15-.93.21-.82.41-1.64.59-2.49,1.04.24,2.11.47,3.19.68,1.53.42,3.07.8,4.53,1.12,1.44.4,2.8.76,3.97,1.03,1.16.37,2.14.64,2.83.83.69.23,1.08.37,1.08.37,0,0-.41.06-1.13.17-.72.06-1.74.14-2.98.2-1.22-.02-2.66-.1-4.2-.2-1.52-.21-3.14-.48-4.74-.77Z"/>
    <path class="cls-2" d="M257.06,150.94c-.25-.07-.49-.15-.74-.22.32-.86.62-1.73.93-2.61.14.02.28.06.42.08,1.35.36,2.71.66,4,.89,1.28.32,2.49.58,3.53.76,1.04.27,1.93.46,2.55.58.63.18.98.27.98.27,0,0-.35.1-.98.28-.63.13-1.53.3-2.64.45-1.1.08-2.38.1-3.77.09-1.37-.12-2.84-.31-4.29-.56Z"/>
    <path class="cls-2" d="M253.89,158.66c-.25-.09-.5-.2-.74-.3.26-.58.51-1.14.77-1.73.11-.26.22-.53.33-.79.17.05.33.1.49.14,1.1.41,2.21.79,3.27,1.11,1.04.4,2.03.76,2.89,1.02.84.36,1.56.63,2.08.82.5.23.8.37.8.37,0,0-.31.06-.86.18-.54.06-1.32.14-2.27.2-.94-.02-2.02-.1-3.2-.2-1.15-.21-2.36-.49-3.57-.81Z"/>
    <path class="cls-2" d="M250.25,164.71c.27-.6.53-1.2.82-1.82.11-.23.22-.48.34-.72.78.35,1.57.7,2.32.99.81.41,1.58.79,2.25,1.08.64.39,1.2.7,1.59.91.38.26.6.41.6.41,0,0-.26.05-.72.13-.45.03-1.09.07-1.87.09-.75-.06-1.64-.16-2.59-.29-.88-.22-1.82-.48-2.75-.77Z"/>
    <path class="cls-2" d="M249.96,171.75c-.72-.05-1.48-.13-2.25-.22.26-.86.55-1.73.86-2.6.57.13,1.15.29,1.7.4.85.26,1.67.49,2.38.64.7.26,1.3.45,1.72.58.42.17.67.27.67.27,0,0-.25.1-.67.27-.43.13-1.05.29-1.81.46-.75.09-1.64.16-2.59.2Z"/>
    <path class="cls-2" d="M249.86,176.51c.7.21,1.29.35,1.71.45.42.13.66.21.66.21,0,0-.24.08-.66.2-.42.09-1.03.22-1.78.33-.74.06-1.6.08-2.53.09-.33-.03-.67-.06-1.02-.11.11-.63.25-1.26.38-1.9.29.06.59.14.86.19.86.23,1.67.41,2.37.54Z"/>
    <path class="cls-2" d="M248.57,183.37c.76.08,1.4.1,1.85.1.46.03.73.05.73.05,0,0-.24.12-.65.34-.42.18-1.04.43-1.79.68-.77.2-1.68.36-2.67.49-.21.01-.43,0-.63.01.03-.62.07-1.24.12-1.88.17,0,.34.03.5.04.92.1,1.79.16,2.54.16Z"/>
    <path class="cls-2" d="M248.51,190.94c.72-.06,1.33-.15,1.76-.24.44-.05.69-.08.69-.08,0,0-.19.16-.53.45-.36.26-.89.61-1.56.99-.69.33-1.52.65-2.43.95-.24.05-.49.1-.73.14-.08-.62-.14-1.25-.19-1.89.2-.02.4-.03.59-.05.88-.06,1.71-.14,2.41-.28Z"/>
    <path class="cls-2" d="M248.22,198.13c.79-.34,1.52-.7,2.12-1.05.65-.28,1.18-.56,1.55-.76.39-.18.62-.29.62-.29,0,0-.13.21-.35.59-.25.35-.62.85-1.11,1.41-.52.53-1.17,1.09-1.9,1.68-.57.37-1.19.73-1.83,1.08-.21-.64-.39-1.29-.57-1.97.51-.22,1-.45,1.46-.69Z"/>
    <path class="cls-2" d="M254.13,204.39c-.44.59-1,1.24-1.62,1.93-.59.53-1.24,1.06-1.92,1.57-.35-.56-.7-1.16-1.03-1.79.62-.38,1.23-.78,1.79-1.2.72-.46,1.4-.91,1.95-1.34.6-.38,1.09-.73,1.42-.98.37-.22.57-.36.57-.36,0,0-.09.23-.26.63-.2.38-.5.91-.89,1.54Z"/>
    <path class="cls-2" d="M260.57,210.19c-.27.68-.67,1.43-1.14,2.23-.54.74-1.18,1.5-1.88,2.2-.11.08-.22.16-.32.24-.56-.37-1.12-.79-1.69-1.26.2-.18.4-.35.59-.55.68-.56,1.31-1.16,1.86-1.77.6-.58,1.14-1.15,1.55-1.68.49-.5.86-.95,1.1-1.28.29-.32.45-.5.45-.5,0,0-.02.24-.07.67-.08.42-.22,1.01-.46,1.71Z"/>
    <path class="cls-2" d="M267.78,218.39s-.05.07-.07.1c-.05,0-.08-.01-.13-.02-.3-.04-.69-.09-1.19-.14-.27-.05-.57-.11-.9-.18.16-.26.31-.52.45-.8.47-.74.88-1.54,1.19-2.31.37-.75.68-1.49.87-2.15.28-.64.45-1.21.56-1.61.14-.4.22-.64.22-.64,0,0,.07.24.19.66.08.42.17,1.04.2,1.79-.02.75-.13,1.61-.31,2.55-.27.91-.64,1.84-1.08,2.75Z"/>
    <path class="cls-4" d="M221.6,45.63c-1.12,6.77-.78,13.73.93,20.34,1.59,6.64,4.27,12.98,7.44,19.02,1.58,3.03,3.31,5.97,5.09,8.89.91,1.45,1.82,2.89,2.7,4.38.86,1.5,1.85,2.92,2.6,4.48,3.31,6.05,5.88,12.6,7.04,19.47.62,3.42.73,6.93.6,10.4-.2,3.48-.76,6.92-1.58,10.28-1.69,6.72-4.38,13.12-7.15,19.37-2.6,6.26-3.91,13.07-4.14,19.88-.24,6.8.71,13.73,3.42,20.06-3.01-6.2-4.12-13.19-4.11-20.07.09-6.9,1.29-13.82,3.84-20.28,2.63-6.35,5.31-12.65,6.91-19.27.78-3.31,1.31-6.66,1.47-10.05.11-3.38-.02-6.77-.64-10.1-1.09-6.68-3.56-13.1-6.78-19.09-3.24-5.96-7.25-11.63-10.23-17.86-3.1-6.15-5.68-12.61-7.16-19.36-1.5-6.73-1.69-13.78-.26-20.5Z"/>
    <path class="cls-2" d="M254.23,50.7c-1.14-1.3-2.2-2.83-3.04-4.49-.78-1.69-1.33-3.47-1.63-5.18-.27-1.71-.3-3.32-.22-4.7.13-1.37.37-2.48.57-3.25.22-.77.38-1.18.38-1.18,0,0-.06.45-.11,1.23-.08.78-.13,1.9-.05,3.21.04,1.32.22,2.86.62,4.44.35,1.6.93,3.26,1.71,4.81.73,1.57,1.67,3.05,2.71,4.31,1,1.29,2.09,2.39,3.1,3.24.99.88,1.9,1.53,2.55,1.96.65.45,1.04.68,1.04.68,0,0-.43-.14-1.17-.44-.73-.32-1.74-.83-2.9-1.57-1.13-.78-2.37-1.81-3.56-3.08Z"/>
    <path class="cls-2" d="M238.48,38.64c.67,1.37,1.5,2.94,2.48,4.57.94,1.65,2.02,3.36,3.2,5.01,1.12,1.68,2.33,3.31,3.54,4.77,1.18,1.5,2.3,2.86,3.48,3.75,1.14.93,2.35,1.36,3.21,1.47.87.13,1.39.02,1.39.02,0,0-.12.03-.36.1-.24.06-.59.13-1.05.15-.92.02-2.27-.25-3.64-1.09-1.36-.86-2.64-2.2-3.95-3.6-1.28-1.46-2.57-3.08-3.77-4.76-1.15-1.72-2.2-3.51-3.11-5.22-.87-1.74-1.58-3.39-2.14-4.84-.53-1.45-.89-2.69-1.15-3.55-.21-.88-.34-1.37-.34-1.37,0,0,.22.46.6,1.28.37.81.9,1.97,1.62,3.32Z"/>
    <path class="cls-2" d="M248.22,14.59c.63-.24,1.17-.41,1.53-.53.38-.1.6-.15.6-.15,0,0-.17.14-.47.4-.32.23-.75.56-1.27.98-.54.37-1.16.83-1.8,1.33-.67.46-1.37.97-2.05,1.5-.72.49-1.42.99-2.06,1.48-.67.46-1.3.9-1.82,1.3-.56.36-1.01.68-1.33.9-.34.21-.53.33-.53.33,0,0,.12-.19.33-.53.23-.32.56-.77.98-1.29.44-.5.98-1.06,1.58-1.66.62-.55,1.31-1.12,2.02-1.68.74-.5,1.5-.97,2.22-1.39.75-.38,1.46-.72,2.07-.99Z"/>
    <path class="cls-2" d="M250.89,15.36c-.39-.35-.61-.55-.61-.55,0,0,.27.11.75.31.46.22,1.14.51,1.96.81.8.35,1.75.69,2.78,1.02,1.02.36,2.12.68,3.23.95,1.1.31,2.22.56,3.29.74,1.06.21,2.06.37,2.92.45.87.14,1.6.21,2.11.24.52.06.81.09.81.09,0,0-.29.07-.8.18-.52.09-1.25.2-2.14.27-.89.05-1.94.03-3.07-.03-1.12-.13-2.3-.32-3.48-.59-1.15-.34-2.29-.74-3.33-1.17-1.01-.5-1.94-.98-2.7-1.46-.74-.5-1.33-.96-1.74-1.28Z"/>
    <path class="cls-2" d="M275.82,42.24c-.69.24-1.55.42-2.49.45-.94-.03-1.94-.23-2.89-.64-.91-.47-1.7-1.12-2.32-1.83-.58-.75-.98-1.53-1.23-2.22-.21-.71-.28-1.31-.3-1.73,0-.42.03-.66.03-.66,0,0,.07.23.24.6.13.38.37.9.74,1.45.34.57.81,1.18,1.41,1.72.56.56,1.27,1.05,2.03,1.39.74.38,1.57.61,2.36.69.8.13,1.57.11,2.22,0,.67-.06,1.22-.21,1.6-.34.4-.11.62-.2.62-.2,0,0-.16.17-.49.44-.33.25-.85.58-1.53.86Z"/>
    <path class="cls-2" d="M284.78,44.58s.21.15.58.42c.37.27.9.67,1.52,1.13.62.47,1.38.98,2.17,1.55.8.56,1.67,1.13,2.55,1.68.87.56,1.76,1.11,2.6,1.6.85.48,1.63.95,2.32,1.31.69.37,1.26.69,1.66.9.4.22.64.34.64.34,0,0-.25-.08-.68-.24-.43-.16-1.04-.38-1.76-.71-.72-.32-1.55-.7-2.42-1.18-.86-.46-1.77-.99-2.67-1.54-.88-.58-1.74-1.18-2.53-1.76-.79-.59-1.49-1.18-2.09-1.7-.6-.51-1.06-.98-1.39-1.29-.32-.33-.5-.51-.5-.51Z"/>
    <path class="cls-2" d="M266.15,52.08c1.07.33,2.35.59,3.73.82,1.38.23,2.87.4,4.36.58,1.49.21,2.99.45,4.37.79,1.38.33,2.64.8,3.67,1.29,1.03.49,1.8,1.05,2.31,1.46.51.42.77.69.77.69,0,0-.29-.24-.83-.6-.54-.38-1.36-.83-2.39-1.26-1.03-.44-2.28-.8-3.65-1.1-1.36-.3-2.84-.52-4.33-.7-1.49-.21-2.98-.4-4.38-.66-1.4-.25-2.67-.62-3.74-1.01-1.08-.38-1.91-.84-2.48-1.18-.56-.35-.86-.57-.86-.57,0,0,.33.19.92.48.58.29,1.45.64,2.52.97Z"/>
    <path class="cls-2" d="M240.46,37.78c.46,1.09.96,2.16,1.47,3.14.52.97.99,1.89,1.46,2.65.46.77.84,1.4,1.13,1.83.28.44.44.69.44.69,0,0-.19-.22-.53-.62-.32-.41-.8-.98-1.3-1.73-.51-.73-1.08-1.61-1.63-2.59-.54-.98-1.07-2.06-1.56-3.15-.45-1.11-.86-2.23-1.2-3.3-.33-1.07-.57-2.09-.75-2.97-.19-.87-.28-1.62-.34-2.13-.06-.52-.09-.82-.09-.82,0,0,.08.29.2.8.12.5.31,1.22.55,2.08.22.86.56,1.84.91,2.88.36,1.05.78,2.15,1.25,3.23Z"/>
    <path class="cls-2" d="M251.91,37.86c.05.44.09.69.09.69,0,0-.07-.25-.2-.67-.11-.42-.27-1.04-.38-1.79-.11-.75-.2-1.63-.21-2.59,0-.95.07-1.96.21-2.97.17-1,.4-1.99.69-2.9.29-.9.63-1.72.97-2.4.32-.69.66-1.22.89-1.6.24-.37.38-.57.38-.57,0,0-.1.23-.28.63-.19.39-.43.97-.69,1.67-.29.69-.52,1.53-.79,2.42-.25.89-.45,1.86-.59,2.84-.15.97-.25,1.96-.27,2.89-.02.93-.04,1.8.03,2.55.05.74.1,1.36.16,1.8Z"/>
    <path class="cls-2" d="M252.82,14.11c-.56-.21-1.2-.46-1.87-.8-.66-.35-1.34-.76-2-1.2-.64-.47-1.25-.98-1.8-1.49-.54-.51-1-1.03-1.37-1.49-.38-.45-.65-.88-.84-1.16-.18-.29-.28-.46-.28-.46,0,0,.14.14.37.4.23.25.58.6.99,1.01.41.42.93.86,1.47,1.34.55.47,1.16.94,1.8,1.38.63.45,1.28.87,1.91,1.23.64.35,1.22.7,1.76.94.52.25.97.47,1.28.6.32.14.5.22.5.22,0,0-.19-.04-.53-.11-.33-.08-.82-.19-1.38-.4Z"/>
    <path class="cls-3" d="M274.82,36.61c-.34,0-.64-.14-.88-.34-.15.19-.39.31-.65.31-.49,0-.87-.39-.87-.86s.39-.88.87-.88c.08,0,.15.03.22.05.16-.59.67-1.03,1.31-1.03.76,0,1.38.61,1.38,1.37s-.62,1.38-1.38,1.38Z"/>
  </g>
</svg>