<?xml version="1.0" encoding="UTF-8"?>
<svg id="Layer_1" xmlns="http://www.w3.org/2000/svg" version="1.1" viewBox="0 0 319.2 224.6">
  <!-- Generator: Adobe Illustrator 30.6.0, SVG Export Plug-In . SVG Version: 2.1.4 Build 109)  -->
  <defs>
    <style>
      .st0 {
        fill: #2e787d;
      }

      .st1 {
        fill: #05324d;
      }

      .st2 {
        fill: #059dc5;
      }

      .st3 {
        fill: #fff;
      }

      .st4 {
        fill: #ef614a;
      }

      .st5 {
        fill: #f4917b;
      }

      .st6 {
        fill: #195373;
      }
    </style>
  </defs>
  <path class="st3" d="M79.1,83.6c20.6,7.2,31.9-6.7,46.6-4.7,18.6,2.6,13.4,12.7,22.6,17.8s19.2,4,24.6-3.2c10.5-14,25-16.5,39.2-12.3,36.6,11,36.8,21.4,25.4,23.3-19.4,3.3-20.3,11.6-33.8,16.5-19.4,7.2-26.4-3.8-41.6,3.2s-9.8,19.4-28.4,20.1-17.7-8.9-52.5-.7c-19,7.7-81.1,11.3-81.1,11.3v-83.9s51,2.8,79.2,12.6h0Z"/>
  <g>
    <path class="st2" d="M198.5,49.2c2-1.3,4.1-2.5,6.3-3.3-.4.6-.7,1.2-.8,1.9l-1.5.4s-.2.2-.6.5l2.9,10c-.2.7-.4,1.4-.5,2l-3.5-11.1c-1.6,1.5-3.7,3.9-3.1,6.5l5.3,19.2c0,1.3.2,2.7.3,4.2l-6.8-24c-.8-3.5,2.2-6.2,2.2-6.2"/>
    <path class="st2" d="M215.1,119.6c.4,1,.8,1.9,1.3,2.7-.9-.9-1.6-1.8-1.8-2.6l-5.2-18.4c.4.6.8,1.2,1.2,1.8l4.5,16.4Z"/>
    <path class="st1" d="M196.4,55.5l6.8,24c-.1-1.5-.2-2.9-.3-4.2l-5.3-19.2c-.6-2.5,1.5-5,3.1-6.5l3.5,11.1c.1-.7.3-1.3.5-2l-2.9-10c.4-.3.6-.5.6-.5l1.5-.4c.1-.7.4-1.3.8-1.9-2.2.8-4.3,2-6.3,3.3,0,0-3,2.7-2.2,6.2M205.3,79.5c.4,2.1.8,4.1,1.3,6.2.5,2,1.1,4.1,1.7,6.1-.4-2.1-.9-4.1-1.3-6.2s-.9-4.1-1.2-6.2c-.4-2.1-.6-4.1-.7-6.2,0-1,0-2.1,0-3.1,0-1.1.1-2.1.3-3.1-.4,2.1-.7,4.2-.7,6.3s.3,4.2.6,6.3M208.7,94.8c0-.2.2-.4.4-.7.3-.6.8-1.4,1.5-2.3.7-.9,1.7-1.9,2.8-2.8.2-.2.5-.4.8-.6h0c.1,0,.2-.1.3-.2,1-.5,2-.8,3-1.2s2-.6,3-.8c4-.9,8.2-1,12.2-.5-4,0-8.1.6-11.8,1.8-.9.3-1.9.7-2.8,1.1-.9.4-1.8.8-2.5,1.3-.2.1-.4.3-.6.4.2.4.3.9.5,1.3-.1.1-.3.3-.4.4-.4.5-.8.9-1,1.3-.3.4-.5.8-.6,1s-.2.4-.2.4c0,0,.1-.1.3-.3.2-.2.4-.5.8-.9.3-.4.7-.8,1.1-1.2.4-.4.9-.9,1.4-1.3.2-.2.4-.3.6-.5.4-.3.9-.6,1.3-.8.7-.3,1.4-.7,2-.9.6-.2,1.1-.4,1.4-.4.4,0,.6-.1.6-.1,0,0-.2.1-.5.3-.3.2-.8.4-1.3.8-.5.3-1.1.7-1.7,1.1-.6.4-1.3.9-1.9,1.4-.4.3-.8.6-1.2.9,1.2,2.8,2.5,5,4,6.7.4.4.8.7,1.3,1.1-.2.6-.4,1.1-.5,1.6-.3.8-.4,1.7-.3,2.4,0,.7.2,1.3.3,1.7.1.4.2.6.2.6,0,0,0-.2,0-.6,0-.4-.1-1-.1-1.7,0-.7.2-1.5.4-2.3.3-.8.6-1.7.9-2.5,0,0,0-.1,0-.2.6-.9,1.3-1.8,2.1-2.6,2.4-2.3,5.4-3.7,8.5-4.1-3,.8-5.7,2.7-7.5,5-.8,1.1-1.5,2.3-1.9,3.6.3,0,.6.2.9.3,0,0,0-.2,0-.2.2-.6.5-1.1.8-1.6.3-.5.6-.9.9-1.3.3-.4.5-.7.7-.8.2-.2.3-.3.3-.3,0,0,0,.1-.2.4-.1.2-.3.6-.5.9-.2.4-.4.9-.7,1.4-.2.5-.5,1.1-.7,1.6,0,0,0,.1,0,.2,3.4.9,7.8,1.2,11.8,1.4,0,.7,0,1.3,0,1.9,0,.9.1,1.7.2,2.4,0,.7.2,1.3.3,1.7,0,.4.1.6.1.6,0,0,0-.2,0-.6,0-.4,0-1,0-1.7,0-.7,0-1.5,0-2.4s0-1.8.1-2.7c0,0,0-.2,0-.3.7-4,2.6-7.8,5.2-10.6-1.8-.3-2.3-1.2-3.6-1.4-.2,0-.3,0-.5,0,0,0,0,0,0,0-.3,0-.6,0-.9,0-.1,0-.2,0-.3,0,0,0,0,0,0,0-.5,0-.9,0-1.2-.3-2.2-.7-4.7-1-7.2-.7,1.9-1,4-1.7,6.2-1.9,0-.2,0-.3,0-.5-.1-.3-.3-.5-.4-.8-.4-.9-1.1-1.6-1.8-2.2-.7-.6-1.4-1.1-2.1-1.4-.7-.4-1.3-.6-1.7-.7-.2,0-.4,0-.5-.1s-.2,0-.2,0c0,0,0,0,.2,0,.1,0,.3,0,.5,0,.5,0,1.1,0,1.9.3.8.3,1.6.7,2.5,1.3.5.4,1,.9,1.4,1.5,0-2,0-4.3,0-6.3-1.4-3.8-4.2-7.2-7.8-9.5,2.6.9,5,2.4,7,4.4-1.2-3.8-3.9-10.1-8.9-13.6-.4-.3-.8-.7-1.3-1-.6-.4-1.2-.7-1.9-1-2.2-.1-4.6-.4-7.4-.9-.2,0-.4,0-.6,0-.9.2-1.7.5-2.4.8-1.5.7-2.8,1.7-3.7,2.6-.9,1-1.5,1.9-1.8,2.6-.2.3-.3.6-.4.8,0,.2-.1.3-.1.3,0,0,0,0,.2-.2.1-.2.3-.4.5-.7.5-.6,1.2-1.3,2.2-2,1-.7,2.2-1.4,3.6-2,.7-.3,1.4-.5,2.2-.6.7-.1,1.4-.2,2.1-.2-2.6,2.1-4.3,5.7-5,9.8-.6.2-1.1.5-1.6.8-.7.4-1.4.9-1.9,1.3-.3.2-.5.4-.7.6-.2.2-.4.4-.5.5-.3.3-.4.5-.4.5,0,0,.2-.1.5-.4.1-.1.3-.3.6-.4.2-.2.5-.3.7-.5.5-.4,1.2-.8,1.9-1.2.6-.3,1.3-.6,2-.8.5,0,1-.2,1.5-.2,1.9-.1,4,.2,5.6,1.2-1.8-.6-3.6-.4-5.3.1-.9.3-1.9.7-2.7,1.2,0,.8,0,1.6,0,2.4-.5.4-1,.8-1.4,1.2-.5.4-.9.9-1.2,1.3s-.6.8-.7,1c-.2.2-.2.4-.2.4,0,0,.1-.1.3-.3.2-.2.5-.5.9-.8.4-.4.8-.7,1.3-1.1.5-.4,1-.8,1.6-1.2.4-.3.8-.6,1.2-.8.4-.2.8-.3,1.2-.4.8-.2,1.5-.3,2.1-.3.3,0,.6,0,.9,0,.2,0,.5,0,.6,0,.4,0,.6.1.6.1,0,0-.2,0-.6,0-.2,0-.4,0-.6,0-.2,0-.5,0-.8.2-.6,0-1.2.3-1.9.6-.7.2-1.4.6-2.1,1-.3.2-.7.4-1,.6.1,1.5.4,3,.7,4.4.8,3.2,1.6,6,2.4,8.6-.3.2-.6.5-.9.8-1.1.9-2,2-2.7,3-.7,1-1.1,1.8-1.4,2.5-.1.3-.2.6-.3.7,0,.2-.1.3-.1.3,0,0,0,0,.1-.2M214.5,119.8c.2.8.9,1.7,1.8,2.6-.5-.8-.9-1.7-1.3-2.7l-4.5-16.4c-.4-.6-.8-1.2-1.2-1.8l5.2,18.4ZM216,105.1c1.9,1.8,4.5,3.7,7.5,5,1.5.7,3.2,1.2,4.9,1.5,1.7.3,3.5.6,5.2.7,3.5.2,7.1.3,10.4,0,3.3-.3,6.3-.9,8.9-1.4,2.6-.5,4.8-.9,6.3-1.1.5,0,1-.2,1.3-.2,0,.2,0,.3.1.5.8-.4,1.7-1,2.6-1.6-.4-4-.2-8.1.6-11.9-.2,4,.3,8,1.3,11.8,1,.4,2.8,1.2,4.4,1.4.1,0,.3,0,.4,0,.3-1.7.7-3.4,1.2-5,.3,1.5.7,3,1.2,4.4l2.1,1.1c2,.6,3.5,1.7,4.9,2.8,1.8,1.3,3.1,2.4,5.1,2.1.7,0,1.2-.2,1.5-.2-.3-.3-.6-.6-.8-.9-1.2-1.4-2.2-2.6-3.3-3.5-1-.9-2.1-1.5-2.8-1.8-.4-.2-.7-.2-.9-.3s-.3,0-.3,0h.4c.2,0,.6,0,1,0,.9,0,2.1.4,3.4,1.2,1.3.8,2.6,2,3.9,3.2.3.3.6.6,1,.9,0,0,.1.1.2.2s.1.1.2.1c0,0,.3.1.4.2.3,0,.6,0,.6,0,0,0,0,0,0,0,.1-.2.2-.5.2-.8,0-.6,0-1.3-.3-1.8-.3-.7-.9-1.3-1.5-1.9-.6-.6-1.2-1.3-1.8-1.9s-1.1-1.2-1.6-1.7c-1-1-1.9-1.9-2.5-2.5-.6-.6-1-.9-1-.9,0,0,.4.2,1.2.6s1.8,1,3,1.9c.6.4,1.2.9,1.9,1.4.5.4,1,.8,1.5,1.2.1,0,.3.2.4.2.3.2.7.5,1.1.7.4.2.8.2,1,0,.1,0,.3-.4.3-.9s0-.5,0-.8c0-.1,0-.2-.1-.4v-.2c0,0-.3-.3-.3-.3,0,0-.2-.2-.3-.3-.2-.2-.5-.4-.7-.7-.5-.4-1-.9-1.5-1.3-.5-.4-1-.9-1.5-1.3-.5-.4-.9-.8-1.4-1.2-.4-.4-.8-.8-1.2-1.1-1.5-1.4-2.4-2.4-2.4-2.4,0,0,1.3.5,3.1,1.5.5.3.9.5,1.4.9s1,.7,1.5,1,1.1.8,1.6,1.2c.5.4,1.1.9,1.6,1.3.3.2.5.5.8.7.1,0,.2.2.3.3,0-.2,0-.4,0-.6-.6-3.3-4.9-7-8.6-9.1-1-.6-2.9-1-4.7-1.4-1,1.3-1.8,2.7-2.5,4.2-.8,1.9-1.4,4-1.8,6.1-.2-2.2-.2-4.4.2-6.6.2-1.5.6-3,1.1-4.4-.6-.1-1.1-.2-1.5-.4-3.9-1.1-9,1.6-9.1,1.6-.5.3-1.1.1-1.5-.3-.8-.9-2.3-2.2-3.1-2.1-.4,0-.7.6-.9,1.5-1.1,4.1-1.1,8.3-.7,11.6v-1.3c0-3.1.5-6.1,1.2-9-.4,3-.5,6-.2,9,.1,1.5.4,3,.7,4.4.1.5.2,1,.3,1.4-.4,0-.8,0-1.3.2-1.5.2-3.7.5-6.3.9-2.6.4-5.6.9-8.9,1.2-3.3.3-6.8.3-10.3,0-1.8-.1-3.5-.3-5.2-.7-1.7-.3-3.3-.8-4.8-1.4-3-1.3-5.6-3.1-7.5-4.8-2-1.8-3.3-3.5-4.1-4.8-.4-.7-.7-1.2-.9-1.6-.2-.4-.3-.6-.3-.6,0,0,0,.2.3.6.1.4.4.9.8,1.6.8,1.3,2.1,3.1,4.1,4.9M220.9,114.3c.5,1.6.9,3.1,1.4,4.7.5,1.6,1,3.1,1.5,4.6-.4-1.6-.7-3.2-1.1-4.7-.4-1.6-.9-3.1-1.3-4.7-.2-.7-.4-1.3-.6-2-.1-.2-.2-.5-.4-.7-.1,0-.2,0-.3,0,.3,1,.5,1.9.8,2.9M227.9,114.6c.4.2.9.4,1.5.6.6.2,1.3.5,2,.7,1.5.5,3.2,1,5.1,1.5.7.2,1.4.3,2,.4.1,2.9,1.1,6.8,2.1,10.9-.6.2-1.1.4-1.6.7-1.1.6-2.1,1.3-2.9,1.9-.8.6-1.4,1.3-1.8,1.7-.2.2-.3.4-.4.5-.1.1-.1.2-.1.2,0,0,0,0,.2-.2.1-.1.3-.3.5-.5.4-.4,1.1-1,1.9-1.6.8-.6,1.8-1.2,3-1.7,1.1-.5,2.4-1,3.7-1.3,1.1-.3,2.2-.5,3.4-.6,3-.2,6.1.2,8.8,1.2-4.8-.9-9.8,0-13.7,2.3.6,2.3,1.2,4.5,1.7,6.5.1.6.3,1.2.4,1.8h0c-1,0-2,0-3,.2-.9.1-1.8.4-2.5.8-.7.3-1.2.8-1.5,1.1-.3.3-.5.5-.5.5,0,0,.2-.2.5-.4.4-.3.9-.6,1.6-.9.7-.3,1.5-.5,2.4-.6.9-.1,1.9-.1,2.9-.2.4,0,.8,0,1.2,0,1.3,0,2.5.2,3.8.5-1.6.2-3.1.6-4.6,1,.9,5.9.9,10.3,2.9,14.1.6,1.2,1,2.4,1.2,3.6-.9,0-1.8,0-2.6-.1-1.1-.1-2-.2-2.9-.3-.9-.1-1.6-.2-2.1-.3s-.8-.1-.8-.1c0,0,.3,0,.8.2.5.1,1.2.3,2,.5s1.8.4,2.9.5c1.1.1,2.2.2,3.4.2.3,0,.6,0,.8,0,3.6,0,7.2-.4,10.8-1.4-3.7,2.5-7.9,4.4-12.4,5.4-.3,1.8-.9,3.6-1.5,5.8-.8,2.7-.5,3.9-.4,5.2-.2,0-.5,0-.7,0-.8-.1-1.6-.2-2.4-.4-.8-.2-1.5-.4-2.1-.6s-1.1-.4-1.4-.5c-.3-.1-.5-.2-.5-.2,0,0,.2.1.5.3.3.2.8.5,1.4.7s1.3.5,2.1.7,1.6.4,2.4.5c.8.1,1.7.2,2.5.2h.4c.8,0,1.6.1,2.4.2-1.4.5-2.9.8-4.4,1,0,1-.4,2.4-1.2,4.4-.4,1-.7,1.8-1,2.6-.6-.3-1.2-.6-1.8-1-.7-.5-1.4-.9-2-1.3-.6-.4-1-.8-1.4-1-.3-.2-.5-.4-.5-.4,0,0,.2.2.4.5.3.3.7.7,1.2,1.2.5.5,1.2,1,1.9,1.5.6.4,1.3.8,2,1.2,2.1,1.4,4.4,2.4,6.8,3.1-2.5,0-5.1-.3-7.6-1.1-.5,2-.6,3.3-1.2,4.9,0,0,0,0-.1,0-.5-.2-.9-.5-1.4-.7-.4-.2-.8-.4-1.2-.7-.3-.2-.6-.4-.8-.5s-.3-.2-.3-.2c0,0,0,.1.2.3.2.2.4.4.7.6.3.2.7.5,1.1.8s.9.5,1.4.8c.4.2.8.4,1.2.6,1,.6,2,1.2,3.1,1.7-1.6,0-3.2-.2-4.9-.6-1,2.2-1.4,4.6-1.4,6.2-.8-.3-1.6-.6-2.2-1.1-.8-.6-1.4-1.4-1.7-2.1-.3-.8-.6-1.4-.7-1.9-.1-.5-.2-.8-.2-.8,0,0,0,.3.1.8,0,.5.2,1.2.5,2,.3.8.8,1.8,1.8,2.4.9.7,2,1.1,3.1,1.5.9.3,1.9.6,2.8.8,1.7.6,3.4.9,4.6.9.2,0,.3,0,.5,0,1.9-.2,3.4-1.2,4.6-2.5.2-.4.4-.8.6-1.2,0,0,0,0-.1.1-.4.4-.9.8-1.4,1.1-.5.3-.9.6-1.3.8-.4.2-.8.4-1,.5-.2,0-.4.1-.4.1,0,0,.1,0,.3-.2.2-.1.5-.4.9-.6.4-.2.8-.6,1.2-.9.4-.4.9-.7,1.3-1.1.4-.3.7-.7,1-1,.6-1.6,1-3.5,1.2-5.4.1-1,.3-1.8.5-2.4-.2.1-.4.2-.6.3-.9.4-1.8.6-2.6.7-.8,0-1.4,0-1.9-.1-.2,0-.4-.1-.5-.1-.1,0-.2,0-.2,0h.2c.1,0,.3,0,.5,0,.4,0,1.1,0,1.8-.3.7-.2,1.5-.5,2.3-.9.8-.4,1.6-1,2.3-1.6.3-.2.6-.5.9-.8.2-.1.4-.3.6-.4.6-.4,1.1-.9,1.7-1.4s1-.9,1.3-1.3c.4-.4.7-.8.9-1,.2-.2.3-.4.3-.4,0,0-.1.1-.4.3-.2.2-.6.5-1,.9-.4.4-.9.7-1.4,1.2,0,0,0,0,0,0,.4-.6.8-1.2,1.1-2,.6-1.3,1.3-2.5,1.9-3.7,0,0-.1.1-.2.2-1.1.6-2.1,1-3,1.3-.9.3-1.7.4-2.2.6-.5.1-.8.2-.8.2,0,0,.3-.1.8-.4.5-.2,1.2-.6,2-1,.8-.4,1.8-.9,2.7-1.5.4-.2.7-.6,1-.9.3-.2.6-.5.9-.8.6-.6,1.1-1.2,1.5-1.9s.7-1.3,1-1.9c.2-.6.4-1.1.5-1.4,0-.4.1-.6.1-.6,0,0,0,.2-.2.5-.1.3-.4.8-.6,1.3-.3.5-.7,1.1-1.1,1.7-.2.2-.4.5-.6.7,0,0,0-.1,0-.2,0,0,0,0,0-.1,0,0,0,0,0,0,.7-2,.9-4,0-6.6-1.1-3.4-1-9.4-1.1-14.6-.4.8-.9,1.5-1.3,2-.5.5-.9.9-1.2,1.2-.3.2-.5.4-.5.4,0,0,.1-.2.4-.5.2-.3.6-.8.9-1.4.4-.6.7-1.3,1-2.1.3-.7.5-1.5.6-2.3.2-.6.4-1.2.5-1.8.2-.6.3-1.2.3-1.7,0-.5.1-.9.1-1.2,0-.3,0-.5,0-.5,0,0,0,.2-.1.4,0,.3-.2.7-.3,1.2-.1.5-.3,1-.5,1.6-.1-1.9-.3-3.4-.8-4.3-.9-1.8-1.3-4.2-1.5-6.5-.4-.7-.8-1.4-1.2-2.1-.5-.7-1-1.3-1.4-1.8-.2-.3-.4-.5-.6-.7-.2-.2-.4-.4-.5-.5-.3-.3-.4-.5-.4-.5,0,0,.2.1.6.3.2,0,.4.2.6.4.2.1.5.3.8.6.6.4,1.1,1,1.8,1.7.1.1.2.3.3.4,0-1.4-.1-2.6-.2-3.5-.2-3,0-5,1.6-2.7.7,1,2.2,3.2,3.9,6,0,0,0,0,0,0-.3.5-.6.9-.8,1.3-.2.4-.4.7-.5,1-.1.2-.2.4-.2.4,0,0,0-.1.3-.3.1-.2.4-.5.7-.9.3-.4.6-.8,1-1.2.3-.3.6-.7.9-1.1,2.5-2.4,5.6-3.9,8.9-4.5-3.8,1.5-6.9,4.5-8.5,7.9,1.7,2.9,3.4,6.1,4.6,9.3h0c-.5,0-1.1,0-1.6-.1-.5,0-1-.1-1.4-.2-.4,0-.7-.1-1-.2-.2,0-.4,0-.4,0l.3.2c.2.1.5.2.9.4s.9.3,1.4.4c.5,0,1.1.1,1.6.2.6,0,1.1,0,1.6,0,.1,0,.2,0,.4,0,1.1,0,2.1-.1,3.2-.4-1.3.9-2.8,1.6-4.3,2.1,1.9,4.3,3.3,5.7,4.1,7.9-1.1-.1-2.1-.2-3-.4s-1.6-.4-2.1-.6c-.5-.2-.8-.3-.8-.3,0,0,.3.1.7.4.5.2,1.2.5,2.1.8.9.2,1.9.5,3,.6,1.1.1,2.3.2,3.5.2h.1c3.7.3,7.5-.1,11.3-1.3-3.9,2.9-8.6,5-13.7,5.9,1,4.1,2.8,8.9,3.4,13,.1.7.1,1.5.1,2.3-.3,0-.5-.1-.8-.2-.9-.2-1.8-.5-2.5-.8-.7-.3-1.3-.6-1.7-.8-.4-.2-.6-.4-.6-.4,0,0,.2.2.5.5.4.3.9.7,1.6,1,.7.4,1.5.7,2.5,1s2,.5,3,.6c.3,0,.6,0,1,.1,2.8.4,5.8.4,8.6-.1-3.7,1.3-7.8,1.9-11.9,1.6-.3,2.6-.9,5.6-1.5,8.4-.7,0-1.4-.2-2-.4-.8-.2-1.6-.5-2.2-.9-.6-.3-1.1-.6-1.4-.8-.3-.2-.5-.4-.5-.4,0,0,.2.2.5.4.3.3.8.6,1.4,1,.6.4,1.3.8,2.2,1,.8.3,1.8.5,2.7.6.9,0,1.8,0,2.6,0,.6,0,1.1,0,1.7,0,1,0,2-.2,2.8-.4.4,0,.8-.1,1.1-.2.3,0,.6-.1.9-.2.5-.1.8-.2.8-.2,0,0-.2.1-.7.4-.2.1-.5.3-.8.4-.3.1-.7.3-1.1.5-.8.3-1.8.6-2.9.8-1.1.2-2.2.2-3.4.2-.6,0-1.2-.1-1.9-.2-.4,1.6-.7,3.1-1,4.5-.4,2.2-.8,3.8-.9,4.9-.4-.1-.8-.2-1.2-.4-.8-.3-1.5-.5-2.1-.8-.6-.2-1.1-.5-1.4-.6-.3-.2-.5-.3-.5-.3,0,0,.2.1.5.4.3.2.8.5,1.4.8.6.3,1.3.6,2,.9.8.3,1.6.5,2.5.8.3,0,.6.1.9.2,2.5.5,5.2.6,7.9,0-2.2.9-4.5,1.4-6.9,1.5,2.3.5,4.5.7,5.9.5,0,0,.1,0,.2,0,3.9-.6,4-3.5,5.3-8.1.9-3.1,2.6-6.8,3.4-10.6-.2.3-.5.6-.8.8-.7.5-1.4.9-2,1.2-.6.2-1.1.4-1.5.5-.4,0-.6.1-.6.1,0,0,.2-.1.5-.3.3-.2.8-.4,1.3-.8.5-.4,1.1-.8,1.6-1.4.2-.2.5-.5.7-.8.2-.1.3-.3.5-.5.4-.4.7-.9,1-1.4.3-.5.4-1,.5-1.4,0-.4,0-.8,0-1.1,0-.2,0-.4,0-.4,0,0,0,.1,0,.4,0,.2-.1.6-.2,1-.1.3-.3.7-.5,1.1,0-.8,0-1.5,0-2.3-.5-4.6-1.4-14.8-1.7-20.9-.3.5-.6.9-1,1.3-.7.7-1.4,1.2-2,1.5-.7.3-1.2.5-1.7.6-.4,0-.6.1-.6.1,0,0,.2-.1.6-.3.4-.2.9-.5,1.4-.9.5-.4,1.1-.9,1.6-1.6.5-.6,1-1.4,1.3-2.2,0,0,0-.1,0-.2,0,0,0,0,0-.1.2-.6.4-1.2.6-1.9.1-.6.2-1.3.2-1.9,0-.6,0-1.2-.1-1.7,0-.5-.2-.9-.3-1.2,0-.3-.1-.4-.1-.4,0,0,0,.2,0,.4,0,.3,0,.7,0,1.2,0,.5,0,1,0,1.6,0,.5-.1.9-.2,1.4-.2-4.3-1.7-5.2-3.2-11.5-.2-.7-.4-1.4-.6-2.1-.2.9-.6,1.7-1,2.5-.5.7-1,1.4-1.4,1.8-.5.5-1,.8-1.3,1-.3.2-.5.3-.5.3,0,0,.1-.2.4-.5.2-.3.6-.7.9-1.2.4-.5.8-1.2,1.1-1.9.3-.7.6-1.5.8-2.3.1-.4.2-.9.2-1.3,0-.4.2-.8.2-1.2,0-.5,0-1,.1-1.4s0-.8,0-1c0-.2,0-.4,0-.4,0,0,0,.1,0,.4,0,.2-.1.6-.2,1,0,.4-.1.8-.2,1.2-2.6-6.9-6.8-14.5-8.9-16.8-.4-.2-.9-.4-1.4-.6-1.2-.5-2.5-.7-3.8-.7-1.2,0-2.4,0-3.4,0-1,0-1.9.2-2.5.2-.6,0-.9,0-.9,0,0,0,.3-.1.9-.3.6-.2,1.4-.4,2.4-.6,1-.2,2.2-.4,3.5-.4,1,0,2,0,3,.3-.7-.8-1.2-1.6-1.7-2.5-1.8-1-3.2-2.5-6.1-2.9-.7,0-1.4,0-2.1-.2-.4,0-.8,0-1.2,0-3.8,1.6-9.3,3.4-15.9,4.1-1.1.1-2.2.2-3.3.3-.2,0-.4,0-.5,0,6.5.6,13.2-.3,19.4-2.8-6.8,3.5-14.7,5.1-22.5,4.5-.7,0-1.5-.2-2.2-.3-2-.3-4.1-.7-5.9-1.1-1.9-.4-3.6-.8-5.1-1.3-.7-.2-1.4-.4-2-.6-.6-.2-1.1-.3-1.6-.5-.9-.3-1.4-.4-1.4-.4,0,0,.5.2,1.3.5M233.2,196.5c-.1.1-.3.2-.4.3,0,0-.1.1-.2.2-.1.1-.2.2-.4.4,0,0-.1.1-.2.2-.1.1-.2.3-.3.4,0,0,0,.1-.1.2-.1.2-.2.3-.3.5,0,0,0,.1,0,.1-.2.4-.4.9-.6,1.4h0c0,.2-.1.5-.2.7,0,0,0,0,0,0,0,.2-.1.4-.2.6,0,0,0,0,0,0-.3,1.2-.4,2.4-.5,3.1,0,0,0,0,0,0,1.2,1.2,4.6,3.6,7.9,4.5,2.3.7,4.2,2.5,6.3,4.5,1.8,1.7,3.6,3.4,5.9,4.6,4,2.1,7.3,2.1,8.9,1.9,0,0,0,0,0,0,0,0,.2-.2.3-.3,0,0,0,0,0,0,.2-.2.5-.5.7-.9,0,0,0,0,0,0,.7-1,1.5-2.3,1.6-3.7,0-1-.6-2-1.5-3.1-.2,0-.3,0-.5,0-.5,0-1-.2-1.6-.2-.6-.1-1.2-.1-1.8-.2-.6,0-1.2-.1-1.8-.2-.6,0-1.1-.1-1.6-.1-.5,0-.9,0-1.1,0-.3,0-.4,0-.4,0,0,0,.1,0,.4-.2.3-.1.6-.3,1.1-.4.5-.1,1-.2,1.6-.3.6,0,1.3,0,1.9,0,.6.1,1.3.2,1.9.4.2,0,.5.2.7.3-.8-.8-1.7-1.6-2.4-2.5-.4,0-.8-.1-1.2-.1-.6-.1-1.2-.1-1.8-.2-.6,0-1.2-.1-1.8-.2-.6,0-1.1-.1-1.6-.1-.5,0-.9,0-1.2-.1-.3,0-.4,0-.4,0,0,0,.1,0,.4-.2.3-.1.6-.3,1.1-.4.5-.1,1-.2,1.6-.3.6,0,1.3,0,1.9,0,.6,0,1.2.2,1.8.4,0-.1-.1-.2-.2-.4-1-1.8-.9-3.6-1.5-5-1.8,1.7-3.7,2.3-5.3,2.5-.2,0-.4,0-.6,0-2,0-4.5-.6-6.3-1.2.3.3.7.6,1,.8,1.3,1,2.7,1.9,4.2,2.5-1.6-.2-3.2-.9-4.7-1.7-.9-.5-1.8-1-2.7-1.5.6,1.8,2.3,3.1,3.9,4.4,1.4,1.1,2.8,2.2,3.6,3.6,1.6,2.8,5.7,5.4,9.5,6.8.2-.2.4-.4.5-.6.8-1.2,1.3-2.3,1.3-2.3l-.5,2c0,.4-.2.8-.4,1.2.1,0,.3,0,.4.1.4-.2.8-.6,1.1-1,.9-1.4,1.5-2.7,1.5-2.7l-.5,2.3c-.1.5-.3,1.2-.7,1.7h0c-.3.4-.5.6-.7.9,0,0-.2,0-.3,0-1.1.1-4.2.2-8.1-1.9-2.2-1.1-4-2.9-5.8-4.5-2.1-2-4.1-3.9-6.6-4.6-3-.9-6.1-3.1-7.4-4.2,0-.2,0-.4.1-.6.3-1.9.7-5,2.9-6.7h0c0-.2-.1-.4-.2-.6M229,205.7h0s0,0,0,0c-.5.3-.2.5-.4,1,0,.2.1.5.5.9.7.8,2.2,1.8,4,2.7.9.4,1.9.9,2.9,1.2,2.3.7,4.4,2.6,6.6,4.5.5.4,1,.9,1.5,1.3.3.2.5.4.8.6,1.1.9,2.2,1.6,3.4,2.3h0c.4.2.8.4,1.2.6,0,0,.1,0,.2,0,.4.2.7.3,1.1.5,0,0,.1,0,.2,0,.3.1.7.3,1,.4,0,0,.1,0,.1,0,.3.1.6.2.9.3h0c.3,0,.6.1.9.2,0,0,0,0,.1,0,.3,0,.5.1.8.1,0,0,0,0,.1,0,.2,0,.5,0,.7,0h0c.2,0,.4,0,.6,0h0c.2,0,.5,0,.7,0,.1,0,.3,0,.4,0,.1,0,.2,0,.3,0,.1,0,.2-.1.3-.2,0,0,0,0,0,0,0,0,.1-.1.2-.2,0,0,0,0,0,0,0,0,.1-.2.1-.3,0,0,0,0,0,0,0-.1,0-.2,0-.3,0,0,0,0,0,0,0,0,0,0-.1,0-1.9.2-5.3,0-9.2-2-2.4-1.3-4.3-3.1-6.1-4.8-2-1.9-3.8-3.6-5.9-4.2-2.5-.8-6.4-2.9-8.2-4.7M268.6,205.3c0-1.7.1-4.4,1.6-6.3,0-.1-.1-.2-.2-.4,0,0,0-.2-.1-.3h0c-.1.1-.2.3-.3.4,0,0-.1.1-.1.2,0,.1-.2.3-.3.4,0,0,0,.1-.1.2,0,.2-.2.3-.2.5,0,0,0,.1,0,.2-.2.5-.3.9-.4,1.4h0c0,.2,0,.5-.1.7,0,0,0,0,0,0,0,.2,0,.4,0,.6h0c-.1,1.3-.1,2.4-.2,3.1.4.3,1,.7,1.8,1.1,0,0,0,0,0,0,.1,0,.2.1.4.2,0,0,.1,0,.2.1.1,0,.2.1.3.2,0,0,.2,0,.3.1s.2.1.3.1c.1,0,.2.1.4.2,0,0,.2,0,.3.1.2,0,.4.2.6.3,0,0,.1,0,.2,0,.2,0,.3.1.5.2,0,0,.2,0,.3,0,.1,0,.3.1.4.1,0,0,.2,0,.3,0,.1,0,.3,0,.4.1.1,0,.2,0,.3,0,.1,0,.3,0,.4.1,0,0,.2,0,.3,0,.2,0,.4,0,.5.1,0,0,0,0,.1,0,.7.1,1.4.4,2,.7,1.1.5,2.3,1.3,3.4,2.1.4.3.9.6,1.3,1,.1.1.3.2.4.3,1.2.9,2.5,1.8,3.8,2.6.7.4,1.4.7,2.1,1,.4.1.7.3,1,.4.1,0,.2,0,.3.1.2,0,.5.1.7.2.1,0,.2,0,.4,0,.2,0,.4.1.6.1.1,0,.2,0,.3,0,.3,0,.5,0,.8.1,0,0,.2,0,.3,0,.2,0,.4,0,.6,0,.1,0,.2,0,.3,0,.2,0,.3,0,.5,0h.3c.2,0,.3,0,.5,0,0,0,.2,0,.2,0,.2,0,.4,0,.6,0h0c.2,0,.3,0,.5,0,.1,0,.2,0,.3,0,0,0,0,0,.1,0,.1,0,.2,0,.3,0,0,0,0,0,0,0,.1,0,.2,0,.3,0h0c0,0,.1-.2.2-.3,0,0,0,0,0,0,.2-.2.4-.6.6-.9,0,0,0,0,0,0,.6-1,1.2-2.5,1.1-3.8,0-1-.9-2-2-2.9h-.4c-.4,0-1,0-1.5,0-.5,0-1.1,0-1.7,0-.6,0-1.1,0-1.7,0-.5,0-1.1,0-1.5,0-.5,0-.8,0-1.1,0h-.4s.1,0,.4-.2c.2-.1.6-.3,1-.5.4-.2,1-.3,1.5-.5.6-.1,1.2-.2,1.8-.2.6,0,1.2,0,1.8.2.2,0,.3,0,.5.1-.8-.7-1.7-1.3-2.5-2-.3,0-.6,0-1,0-.5,0-1.1,0-1.7,0-.6,0-1.1,0-1.7,0-.5,0-1.1,0-1.5,0-.5,0-.8,0-1.1,0h-.4s.1,0,.4-.2c.2-.1.6-.3,1-.5.4-.2,1-.3,1.5-.5.6-.1,1.2-.2,1.8-.2.5,0,1,0,1.5.1-.1-.1-.2-.3-.3-.4-.7-.9-1-1.9-1.3-2.9-.9.9-2.2,1.6-4,1.9,0,0-.2,0-.3,0-2.7.3-6.8-.5-9.6-1.3-.4-.1-.8-.2-1.1-.3,0,0,0,0,0,0,2.5,1.6,5.2,2.9,8,3.9-2.2-.4-4.5-.9-6.7-1.7.9.9,2.1,1.7,3.2,2.4,1.5.9,3,1.9,4,3.2,1.9,2.5,6.2,4.7,10.1,5.6.2-.2.4-.4.5-.7.6-1.3,1-2.4,1-2.4l-.2,2c0,.4,0,.8-.3,1.3.1,0,.3,0,.4,0,.4-.3.8-.7,1-1.2.7-1.5,1.2-2.8,1.2-2.8l-.2,2.4c0,.8-.2,1.7-1,2.5,0,0,0,0,0,.1-.3,0-.7.2-1.2.2-1.5.2-4,.1-7.2-1.1-2.3-.9-4.2-2.4-6.2-3.8-2.3-1.8-4.5-3.4-7-3.9-3-.6-6.3-2.3-7.7-3.3,0-.2,0-.4,0-.6M267.3,207.3c0,0-.2.1-.2.2,0,0,0,0,0,0,0,0-.2.2-.2.2,0,0,0,0,0,0,0,0-.1.2-.2.2,0,0,0,0,0,0,0,.1,0,.2-.1.3,0,0,0,.2.1.3.1.1.3.3.5.4.2.2.5.3.8.5,1.6.9,4.3,2,6.9,2.4,1.3.2,2.6.9,3.9,1.6.5.3,1,.6,1.6,1,.8.5,1.6,1.1,2.4,1.7.5.4,1.1.8,1.7,1.1.3.2.6.4.9.5.9.5,1.8,1,2.8,1.4,2.4.9,4.3,1.4,5.9,1.5.9,0,1.7,0,2.3,0,.3,0,.6,0,.8-.1.2,0,.4-.1.6-.2.1,0,.2-.1.3-.2,0,0,0,0,0,0,0,0,.1-.2.2-.2,0,0,0,0,0,0,0,0,0-.2.1-.3,0,0,0,0,0,0,0-.1,0-.2,0-.3h0c-.2,0-.4,0-.5.1-.2,0-.5,0-.7.1-1.8.2-4.2,0-7.1-.9-.3-.1-.7-.2-1-.4-.2,0-.3-.1-.5-.2-2.3-1-4.3-2.5-6.2-3.9-2.1-1.6-4.1-3.1-6.2-3.5,0,0,0,0,0,0-.1,0-.2,0-.4,0,0,0-.1,0-.2,0-.1,0-.2,0-.4,0,0,0,0,0-.1,0-.1,0-.3,0-.5-.1,0,0-.1,0-.2,0-.1,0-.2,0-.4-.1,0,0,0,0-.1,0-.2,0-.3-.1-.5-.2,0,0,0,0-.1,0-.1,0-.3-.1-.4-.2,0,0,0,0-.1,0-.2,0-.4-.1-.5-.2,0,0,0,0,0,0-.2,0-.3-.1-.5-.2,0,0,0,0,0,0-.4-.2-.8-.3-1.1-.5,0,0,0,0,0,0-.4-.2-.7-.4-1.1-.6h0c-.7-.4-1.3-.8-1.8-1.2M269.8,61.5c0-.3.2-.7.4-1.2.1-.5.2-1.1.3-1.8,0-.7.1-1.3.1-2,0-.7,0-1.4-.1-2.1,0-.7-.2-1.3-.3-1.8,0,0,0-.1,0-.2-.3-1.8-.7-3.5-1.4-5.2,1.2,1.8,2.2,3.8,2.9,6,0,.2.1.5.2.8,0-.3,0-.7,0-1,0-.5,0-1,0-1.4,0-.4,0-.8,0-1,0-.2,0-.4,0-.4,0,0,0,.1.2.3.1.2.2.6.4,1,.1.4.2.9.4,1.4,0,.5.2,1.1.2,1.7,0,.6,0,1.1,0,1.7h0c.2-.4.4-.7.7-1.1,1.2-1.8,2.7-3.3,4.5-4.2-1.5,1.3-2.6,3-3.3,4.8-.4.9-.6,1.9-.8,2.9.9.5,2.1,1.2,3.4,2.5,0,0-.2.2-.2.3-.4.5-.7,1-.9,1.4-.2.4-.4.8-.5,1.1,0,.3-.1.4-.1.4,0,0,0-.1.2-.4.1-.2.4-.6.6-.9.3-.4.6-.8,1-1.2.4-.4.8-.9,1.3-1.3.3-.3.7-.6,1-.8.8-.5,1.7-.9,2.6-1.1-1.7,1.1-2.8,2.7-3.4,4.4,2.7,2.9,5.8,4.2,8.3,6.9,0,.5,0,1.1,0,1.6,0,.6,0,1.1.1,1.6,0,.4.1.8.2,1.1,0,.3.1.4.1.4v-.4c0-.3,0-.6,0-1.1,0-.4,0-1,0-1.5s0-1.2,0-1.8c0-.3,0-.5,0-.8.2-1.3.6-2.4,1.3-3.5-.9,3-.2,6.2,1.4,8.5.2.2.5.4.7.6,0-.2,0-.3,0-.5.2-.7.4-1.4.6-2.1.3-.7.6-1.4,1-2,.4-.6.7-1.1,1.1-1.6.4-.4.7-.8.9-1,.2-.2.4-.3.4-.3,0,0,0,.2-.2.5-.1.3-.3.7-.5,1.2-.2.5-.5,1.1-.7,1.7,0,.1,0,.2-.1.3,1.5-2.1,3.2-4.2,5.3-5.9,0,0,.2-.1.3-.2-.4-.4-.8-.8-1.1-1.3-.4-.5-.8-.9-1.2-1.3-.4-.2-1-.5-1.5-.7-.6-.2-1.2-.4-1.9-.5-.7-.1-1.3-.2-2-.1-.6,0-1.2,0-1.7.2-.3,0-.5,0-.7.2-.2,0-.4.1-.5.2-.3,0-.5.2-.5.2,0,0,.1-.1.4-.3s.3-.2.5-.3c.2-.1.4-.3.7-.4.5-.2,1.1-.5,1.8-.6.7,0,1.5,0,2.2,0,0,0,0,0,.1,0-1.9-1.1-3.7-2-4.6-3.4-.7-1.1-1.8-2.2-3.2-3.2,0,0-.1,0-.1,0-.6,0-1.2,0-1.8,0-.6,0-1.3.2-1.9.4-.6.2-1.2.3-1.6.5-.5.1-.9.3-1.2.4-.3,0-.5.1-.5.1,0,0,.1-.1.4-.3.2-.2.6-.4,1-.8.4-.3,1-.6,1.6-.9.6-.2,1.3-.5,2-.6.2,0,.4,0,.6,0-1.5-1-3-2-4.3-2.9-2-1.4-4.7-2.3-6.7-3.3,0,0,0,.2.1.3.1.4.2.7.3,1,0,.3.1.6.1.8,0,.2,0,.3,0,.3,0,0,0,0-.1-.3,0-.2-.2-.4-.3-.7-.1-.3-.3-.6-.5-1-.1-.3-.3-.6-.4-.9,0,0-.1,0-.2-.1,0,0,0,.2.1.3.2.7.3,1.4.5,2,0,.6.1,1.1.1,1.5v.6s0-.2-.2-.5c-.1-.3-.3-.8-.5-1.3-.2-.6-.5-1.2-.8-1.9,0,0,0,0,0-.2,0-.3-.1-.5-.2-.8-.2-.5-.4-.9-.5-1.3-.2-.4-.4-.8-.6-1.1-.2-.3-.4-.6-.5-.7-.1-.2-.2-.3-.2-.3,0,0,0,.1.1.3s.2.5.3.8c0,.2.1.4.2.6-1.8-1.4-5.2-2.7-7.8-3.2-1.2-.2-3.8-.4-6.7-.5,1.6,1.8,2.9,3.8,3.8,6-1.3-2-2.9-3.7-4.8-5.1l.7,3.2c2.5,1.7,5.9,5.3,8.7,9.5,0,.3.2.6.2.9,0,.5.2,1,.2,1.4,0,.4,0,.8.1,1,0,.2,0,.4,0,.4,0,0,0-.1,0-.4,0-.2,0-.6,0-1s0-.9,0-1.4-.2-1.1-.4-1.6c-.1-.4-.3-.8-.5-1.2-.5-1.9-1.3-3.7-2.3-5.3-1-1.7-2.3-3.3-3.9-4.7,1.7,1.2,3.1,2.7,4.4,4.3,1.2,1.7,2.3,3.5,3.1,5.5s1.3,4,1.4,6.2c0,0,0,.2,0,.3.4.7.7,1.4,1,2.1.1.2.2.5.3.7.7-.5,1.4-1.3,2.1-1.8,0,0,0,.2,0,.2,0,.6,0,1.2-.2,1.8s-.1,1-.2,1.2c0,.3,0,.5,0,.5,0,0,0-.2.2-.4M294.7,79.8c2-3.2,4.3-6.1,7-8.7-2.3,3-4.1,6.2-5.5,9.7.3.6,1,2.1,1.8,3.3.4-.4.9-.7,1.3-1,1-.8,2-1.4,2.9-2.2-.5,1.1-1.1,2.2-1.7,3.2-.4.8-.8,1.7-1.1,2.6.3.7.5,1.5.8,2.3.5,1.6,1,3.4,1.9,4.2.9.8,1.2.9,1.2.9,0,0,.2-.1.6-.8.2-.3,0-.7-.5-1.6-.5-1.1-1.2-2.4-.8-4.1.3-1.2.6-2.3,1.5-2.6.8-.3,1.4.2,1.9.5,0,0,.2.1.3.2.8.6,1,1.8,1.4,5.4.2,1.6.6,4.6,1,5.5,0,0,0,0,0,0,.3-.1.6-.4,1-.9.3-.4.5-.9.5-1.4.1-.5.1-1.1,0-1.7,0-.7-.1-1.3-.2-2,0-.6,0-1.2-.1-1.8s0-1.1-.1-1.6c0-1-.1-1.9-.2-2.5,0-.6,0-.9,0-.9,0,0,.2.3.4.9.3.6.6,1.4.9,2.3.2.5.3,1,.5,1.6.1.6.3,1.2.4,1.8.1.6.2,1.2.3,1.8,0,.2.2.5.3.7,0,.2.2.3.3.3s.2,0,.2,0c0,0,.4-.2.6-.6.1-.2.2-.4.3-.6,0-.1,0-.2.1-.3v-.2c0,0,0,0,0,0v-.2c0,0,0-.2,0-.4,0-.3,0-.6-.1-.8,0-.6-.2-1.2-.3-1.7-.1-.6-.2-1.1-.3-1.7-.1-.6-.2-1.1-.2-1.6,0-.5-.1-1-.2-1.4-.2-1.8-.3-3-.3-3,0,0,.7,1.1,1.4,2.8.2.4.4.9.5,1.4.2.5.4,1,.5,1.6.1.6.3,1.1.5,1.7s.2,1.2.4,1.8c0,.2,0,.4,0,.7,0,0,0,0,0-.1,1.5-2.8.7-7.6-.6-10.8-.3-.8-1.3-2.1-2.4-3.5-1.4.5-2.7,1.2-4,2-1.6,1-3.2,2.3-4.6,3.7,1-1.7,2.2-3.4,3.6-4.9,1-1,2-2,3.1-2.9-.5-.5-1-1-1.3-1.3-2.6-2.4-6.1-2.7-6.2-2.7-.6,0-1.1-.6-1.1-1.2,0-1.3-.4-2.7-.8-2.9,0,0-.5,0-1.3.7-2.3,1.9-4.1,4.2-5.5,6.4,1.5-1.9,3.2-3.7,5.1-5.3-1.9,2.1-3.6,4.3-5,6.7-.7,1.2-1.4,2.4-1.9,3.7-.2.5-.5,1.1-.7,1.6.7,0,1.5,0,2.3,0M256.3,33.3c.2-.6.2-1.2.2-1.8-1.4,3.7-7.4,5.9-15.8,7.4-8.2,1.5-14.6-.3-18.5-4.4-.8-.5-1.5-1.1-2.2-1.8-.2,0-.3.2-.5.3,1,1.7,2.1,3.3,3.1,4.6,0,0-.2,0-.2-.1-1.4-.8-2.6-1.6-3.7-2.3-1.1-.7-1.9-1.3-2.5-1.8-.6-.4-1-.7-1-.7,0,0,.3.3.8.8.5.5,1.3,1.3,2.3,2.1,1,.8,2.2,1.8,3.6,2.6.3.2.7.4,1.1.6.4.2.7.4,1.1.6s.8.4,1.2.5c.4.2.8.3,1.2.5.5.2,1,.3,1.5.5,1.5.5,3,.9,4.5,1.1.9,0,1.8.2,2.7.1.9,0,1.8,0,2.8-.2,3.7-.4,7.4-1,10.8-2.2,1.7-.7,3.3-1.5,4.7-2.5.4-.3.7-.6,1.1-.9.8-.9,1.6-2.1,1.9-3.3M254.7,24.9c-.2,0-.3.2-.3.4,0,.2.2.4.4.3.2,0,.3-.2.3-.4,0-.2-.2-.4-.4-.3M254.3,29.6c0,.2.1.4.3.4s.4-.1.4-.3-.1-.4-.3-.4-.4.1-.4.3M251.9,33.4c-1.3.6-2.6,1-4,1.4-1.4.4-2.8.7-4.2,1-1.4.3-2.8.6-4.2.8-2.8.4-5.7.5-8.4-.1-2.8-.5-5.4-1.7-7.6-3.6.9,1.1,2.1,2,3.3,2.8,0,0,0,0,0,0,0,0,0,0,0,0,0,.1,0,.3,0,.4s.3,0,.4,0c0,0,0,0,0-.2,1.1.6,2.4,1.1,3.6,1.4,1.4.4,2.9.6,4.4.6s2.9,0,4.4-.2c2.9-.5,5.7-1.1,8.5-2,1.4-.5,2.7-1,4-1.8,1.2-.8,2.5-1.7,3.2-2.9-.5.5-1,1-1.6,1.4-.6.4-1.2.7-1.9,1M251,28.8c.2.1.4.1.5,0,.1-.2.1-.4,0-.5-.2-.1-.4-.1-.5,0-.1.2-.1.4,0,.5M250.5,33.5c.2,0,.4,0,.5-.2,0-.2,0-.4-.2-.5-.2,0-.4,0-.5.2,0,.2,0,.4.2.5M248.5,27.7c.1,0,.3,0,.4,0s0-.3,0-.4-.3,0-.4,0,0,.3,0,.4M246.8,22.6c.2.1.4.1.5,0,.1-.2.1-.4,0-.5-.2-.1-.4-.1-.5,0-.1.2-.1.4,0,.5M244.2,18.4c0-.2-.2-.3-.4-.3s-.3.2-.3.4c0,.2.2.4.4.3.2,0,.3-.2.3-.4M246.2,33.5c-.1,0-.3,0-.3.2,0,.1,0,.3.2.3s.3,0,.3-.2c0-.1,0-.3-.2-.3M245.9,27c.1,0,.3,0,.4,0s0-.3,0-.4-.3,0-.4,0,0,.3,0,.4M245.8,25.8c0-.1,0-.3,0-.4s-.3,0-.4,0,0,.3,0,.4.3,0,.4,0M244.1,28c.1,0,.3,0,.3-.2,0-.1,0-.3-.2-.3-.1,0-.3,0-.3.2,0,.1,0,.3.2.3M241.5,33.7c.1,0,.3,0,.3-.2,0-.1,0-.3-.2-.3-.1,0-.3,0-.3.2,0,.1,0,.3.2.3M238.6,26.4c0,.1.1.2.3.2s.2-.1.2-.3c0-.1-.1-.2-.3-.2s-.2.1-.2.3M245.4,10c-4.6-2-7.5,1-6.8,3,0,.2.2.4.3.6-1.5.4-1.9,2.3-1.4,2.5.4.4,1.3-.3,2.4-.1,1.1,0,1.9.9,2.3.6.1,0,.2-.3,0-.6.9.4,1.9.8,2.9,1.3,3,1.2,5.8,2.8,6.6,1.4.8-1.3-1.8-6.6-6.4-8.6M238.7,10.3c0,.1.2.2.3.2s.2-.2.2-.3c0-.1-.2-.2-.3-.2-.1,0-.2.2-.2.3M237,27.5c.2,0,.3-.2.3-.4,0-.2-.2-.4-.4-.3-.2,0-.3.2-.3.4,0,.2.2.3.4.3M237.7,32.5c-.2,0-.4.2-.3.4,0,.2.2.3.4.3.2,0,.3-.2.3-.4,0-.2-.2-.3-.4-.3M236,13.6c0-.1-.1-.2-.3-.2s-.2.1-.2.3.1.2.3.2.2-.1.2-.3M236.5,19.9c-.2,0-.3.2-.3.4,0,.2.2.3.4.3s.3-.2.3-.4-.2-.3-.4-.3M233,22.6c0-.1-.1-.2-.3-.2s-.2.1-.2.3c0,.1.1.2.3.2.1,0,.2-.1.2-.3M234,35.9c-.1.2-.1.4,0,.5.2.1.4,0,.5,0,.1-.2.1-.4,0-.5-.2-.1-.4,0-.5,0M232,30c0,.1.1.2.3.2.1,0,.2-.2.2-.3,0-.1-.1-.2-.3-.2-.1,0-.2.2-.2.3M230.3,13.3c0-.2-.2-.3-.4-.3s-.3.2-.3.4c0,.2.2.3.4.3s.3-.2.3-.4M230.5,30.5c0,.2.2.3.4.3s.3-.2.3-.4c0-.2-.2-.3-.4-.3s-.3.2-.3.4M228.1,18c0,.1.1.2.3.2s.2-.1.2-.3c0-.1-.1-.2-.3-.2s-.2.1-.2.3M228.2,24.3c0,.1.1.2.3.2.1,0,.2-.1.2-.3,0-.1-.1-.2-.3-.2s-.2.1-.2.3M226.2,16.4c0,.1.1.2.3.2s.2-.1.2-.3c0-.1-.1-.2-.3-.2s-.2.1-.2.3M226.6,31.5c.1,0,.3,0,.4,0s0-.3,0-.4-.3,0-.4,0,0,.3,0,.4M226.1,27.8c.1,0,.3,0,.4,0s0-.3,0-.4-.3,0-.4,0,0,.3,0,.4M224.5,20.8c.2,0,.4-.2.3-.4s-.2-.3-.4-.3-.4.2-.3.4c0,.2.2.4.4.3M225.3,30.2c-.1,0-.2.1-.2.3,0,.1.1.2.3.2s.2-.1.2-.3-.1-.2-.3-.2M222.8,30.4c-.2-.1-.4,0-.5,0-.1.2-.1.4,0,.5.2.1.4,0,.5,0,.1-.2.1-.4,0-.5M222.3,24.3c-.2-.1-.4-.1-.5,0-.1.2-.1.4,0,.5.2.1.4.1.5,0,.1-.2.1-.4,0-.5M222.8,27.2c-.1,0-.3,0-.4,0s0,.3,0,.4.3,0,.4,0,0-.3,0-.4M217.5,32c.2,0,.5,0,.7,0,0,0,.2,0,.2,0,1.6-.3,2.4-2.3,2-4.4-.4-2-1.9-3.3-3.4-3.1,0,0-.2,0-.2,0-.3,0-.6.2-.9.4h0c1.4-.2,2.8,1.1,3.3,3,.4,1.9-.3,3.7-1.7,4.1M216.7,31.4c.1,0,.2,0,.4,0,0,0,.1,0,.1,0,.5-.1.9-.5,1.2-1.1.3-.7.4-1.5.2-2.3-.3-1.5-1.5-2.6-2.5-2.5,0,0-.1,0-.1,0-.5.1-.8.5-1.1.9,0,0,.1,0,.2,0,1.1-.2,2.2.7,2.6,2.2.3,1.2-.1,2.3-.9,2.8M231.4,2.4c-1.7.2-3.6.6-5.6,1.1-19.3,5.1-16.4,22.1-14.9,29.2.3,1.3.6,2.5,1,3.5.4,1,.8,1.9,1.2,2.6.4.7.8,1.3,1.2,1.8.9,1.1,1.5,1.6,1.5,1.6l1.6,7.8c3,.5,5.6.5,8,.6,1.7,0,3.2,0,4.8.3,1.2,0,2.6-.2,3.9-.3,1.6-.2,3.3-.5,5.1-.8,11.9-2.5,13.9-5.5,13.9-5.5l-.8-4c-1,.6-2,1-3.1,1.4-3.7,1.3-7.5,2-11.3,2.2-.9,0-1.9.1-2.9,0-.3,0-.7,0-1,0,1.3.3,2.6.4,4,.5-2.8.5-5.8.5-8.8,0,.2.3.2.7.2,1.3-.9,0-1.8,0-2.6,0-1.4,0-2.7,0-3.8-.1-1.1,0-2-.1-2.7-.2-.6,0-1,0-1,0,0,0,.4,0,1,.2.6,0,1.6.2,2.7.4,1.1.1,2.4.2,3.8.3,1.4,0,2.9,0,4.4,0,.1,0,.2,0,.4,0,6.5,0,13.1-.8,19.4-2.8-6.7,2.9-14,4.6-21.4,5.1,0,.6.1,1.2.2,1.9-6,.2-10.6-.5-11.9-.7l-1.6-7.5c0-.1-.1-.2-.2-.3s-3.3-2.5-4.7-9.3c-.8-3.7-.8-11,3.2-16.9-.3,2.7,0,5.4.7,8,0,0,0,0,.1,0,0-1.1.2-2.1.5-3.1.9-2.7,2.6-4.9,4.6-6.7,2-1.8,4.3-3.3,6.7-4.4,4.9-2.2,10.3-3,15.5-2.1-5.2-.2-10.4,1-14.9,3.3-2.3,1.2-4.4,2.6-6.2,4.3-1.8,1.7-3.3,3.8-4.1,6.1-.2.7-.4,1.4-.4,2.1.4,0,.8,0,1.2.2,2.1-8.1,14.3-16.2,27.6-14.9.9.1,1.7.4,2.5,1-3.7-5.4-9-8-17.1-7.1M240,67.4c0,0,.1-.2.2-.2.1-.1.4-.5.6-.7,0,0,0-.2,0-.2,0,0-.2,0-.2,0,0,0-.1,0-.2,0-.5.2-.9.6-1.1,1.3-.2.8-.2,1.8.1,2.7,0,.3.2.6.3.8,0-.1,0-.2-.1-.4-.4-1.8.4-3.3.4-3.4M241.1,98.3v1.4c0,.6,0,1.3,0,2,0,.6,0,1.3,0,2h.7c4.6,0,8.3-.3,11.3-.7-.1,2.2.2,3.6.4,4.3.1.4.2.6.3.8,0,.1.1.2.1.2-.8-3.7-.3-7.5.5-11.1,0,0,0,.2,0,1,0,.8-.3,2.2-.5,4.5h0c.7,0,1.4-.1,2-.2-.1-3,0-6.3.9-9.5-.5,0-1.1-.2-1.6-.3-1.6,2.1-2.8,4.8-3,7.7-.5-2.6-.4-5.4.6-8.1-2.4-.3-4.8-.6-7.1-.3-1.3.1-2.2,0-2.9,0-2.4,3.5-3.5,7.7-3.3,11.6.2,0,.4,0,.7,0,0-.7,0-1.4,0-2,.1-.7.2-1.4.3-2,.1-.6.3-1.1.4-1.4.1-.3.2-.5.2-.5,0,0,0,.2,0,.5M235.1,67.4c.1.4.3.9.5,1.5.2.6.4,1.4.6,2.2s.3,1.7.4,2.5c0,.2,0,.5,0,.8.2-.7.4-1.4.7-2,.2-.6.5-1.1.6-1.4.2-.3.3-.5.3-.5,0,0,0,.2,0,.6,0,.4-.2.9-.3,1.5-.1.6-.3,1.3-.4,2.1-.1.8-.3,1.6-.4,2.4-.1.8-.2,1.6-.3,2.4,0,.9,0,1.8,0,2.7,0,1.9-.1,5,.3,6.2,2.3-.2,3.5.4,4.4.9.8.4,1.5.8,4.1.6,0,0,.1,0,.2,0,.6-.1,1.2-.2,2-.4,1.2-.2,2.6-.5,4.1-.8.7-.2,1.5-.3,2.3-.5.8-.2,1.6-.4,2.3-.6.8-.2,1.6-.4,2.3-.6.8-.2,1.5-.4,2.2-.6.7-.2,1.4-.4,2.1-.6.7-.2,1.3-.4,1.9-.6,1.2-.3,2.1-.7,2.8-.9.7-.2,1.1-.3,1.1-.3,0,0-.4.2-1,.6-.6.4-1.5.9-2.6,1.4-.5.3-1.2.6-1.8.8-.6.3-1.4.6-2.1.8-.7.2-1.5.5-2.3.8-.8.2-1.6.4-2.4.7-.8.2-1.6.4-2.4.5-.8.2-1.6.3-2.4.4,0,0-.1,0-.2,0,1.5.2,3.1.4,4.6.7.4,0,.9.1,1.3.2.5-.8,1.2-1.3,2-1.4,1.7-.3,3.4.9,4.5,1.9l.4-3.2,1.5,2.9c1.4-.5,3.3-1,5.3-1.1-.1-.6-.4-1.5-.6-2.5-.2-1.1-.5-2.3-.8-3.6s-.6-2.7-.9-4.1c-.3-1.4-.5-2.8-.8-4.1-.3-1.3-.5-2.6-.6-3.6s-.3-1.9-.4-2.6c0-.6-.1-1-.1-1,0,0,0,.3.2.9.1.6.4,1.5.6,2.5.2,1,.5,2.3.8,3.6s.6,2.7.9,4.1c.3,1.4.5,2.8.8,4.1.2,1.3.5,2.6.6,3.6.2,1.1.3,1.9.4,2.5h.8c-.3-3.3-.7-6.6-1.4-9.3-2.3-9-2.5-14.2-5.3-20.3-2.3-5-6.4-10.2-9.6-13.2,0,.1.2.2.3.3.3.5.6.9.8,1.4.2.5.4.9.5,1.3.1.4.2.7.2,1,0,.2,0,.4,0,.4,0,0,0,0-.2-.3-.1-.2-.3-.5-.6-.8-.2-.3-.5-.7-.8-1.1-.3-.4-.6-.8-.9-1.2-.1-.2-.2-.3-.3-.5.3,2.7.3,5.3.1,8-.2-3-.8-5.9-1.5-8.7-.3.2-.6.4-.9.6.1,3.5,0,6.9-.5,10.3,0-3.2-.3-6.4-.8-9.5-2.8,1.5-6.7,2.7-11.7,3.7-1,.2-2,.4-3.1.5.6.3,1.3.6,2,1h0c1,0,2.1-.2,3.2-.4,1.1-.2,2.1-.4,3.1-.6,1-.2,1.9-.4,2.7-.7.8-.2,1.5-.4,1.9-.5.5-.1.7-.2.7-.2,0,0-.2.2-.6.4-.4.2-1,.6-1.8.9-.8.3-1.7.7-2.7,1-1,.3-2.1.6-3.2.8-.7,0-1.3.2-2,.2,2.4,1.6,4.4,3.6,5.8,5.7.6-.1,1.3-.3,1.9-.5,1.2-.3,2.3-.5,3.4-.8,1.1-.3,2.1-.5,3-.8.9-.2,1.6-.4,2.1-.5.5-.1.8-.2.8-.2,0,0-.3.1-.8.3-.5.2-1.2.5-2.1.7-.9.3-1.9.6-2.9.9-1.1.3-2.2.6-3.4.9-.6.1-1.2.3-1.8.4.1.2.3.5.4.8.3,0,.7-.2,1-.2.9-.2,1.7-.4,2.5-.6.8-.2,1.6-.4,2.4-.6.8-.2,1.6-.4,2.3-.7.7-.2,1.4-.4,2-.6,2.5-.8,4.2-1.3,4.2-1.3,0,0-.4.2-1,.7-.3.2-.7.4-1.2.7-.5.3-1,.5-1.6.8-.6.3-1.3.6-2,.9-.7.3-1.5.6-2.2.9-.8.2-1.6.6-2.5.8-.8.2-1.7.4-2.6.7-.2,0-.4,0-.7.1.3.8.5,1.5.7,2.3,0,.2.1.3.2.5.1.4.3.9.5,1.5s.3,1.1.5,1.7c.1.6.3,1.2.4,1.8s.2,1.1.3,1.5c.1.4.1.8.2,1.1,0,.3,0,.4,0,.4,0,0,0-.1-.2-.4,0-.2-.2-.6-.4-1.1-.1-.4-.3-.9-.5-1.5-.2-.6-.3-1.1-.5-1.7-.1-.6-.3-1.2-.4-1.8,0,0,0-.1,0-.2,0,.5,0,1-.2,1.6,0,.1,0,.2-.1.3l1.6,5.9c.3,0,.6-.1.9-.2.8-.2,1.7-.4,2.5-.6.8-.2,1.7-.4,2.5-.6.8-.2,1.6-.4,2.4-.6.3,0,.5-.1.8-.2l-1.4-8.8,2.9,8.3c.7-.2,1.4-.4,2-.6,1.2-.4,2.3-.7,3-.9.7-.2,1.2-.3,1.2-.3,0,0-.4.2-1,.6-.7.4-1.6.9-2.8,1.4-.6.3-1.2.6-2,.8-.7.3-1.5.6-2.2.8-.8.2-1.6.5-2.4.8-.8.2-1.7.4-2.5.7-.9.2-1.7.4-2.6.5-.9.2-1.7.3-2.5.4-1.6.2-3.2.3-4.5.4-1.3,0-2.4,0-3.2,0-.8,0-1.2,0-1.2,0,0,0,.4,0,1.2-.2.8-.1,1.8-.3,3.1-.6,1.3-.2,2.8-.5,4.4-.8,0,0,0,0,.1,0l-.4-5.5c-.7,1.8-2,3.1-3.8,3.7-.3.3-.6.6-1,.7-.1,0-.2,0-.4,0-1.5.2-3.1-1.3-3.8-3.5-.3-1.1-.4-2.2-.1-3.2.3-1,.9-1.7,1.7-2,.2,0,.4,0,.5,0-.2-.5-.5-1.1-1-1.7h-1.5c-.7,0-1.3,0-1.8,0-.5,0-1,0-1.4-.1-.8-.1-1.2-.2-1.2-.2,0,0,1.8-.2,4.4-.5.2,0,.5,0,.7,0-.7-.7-1.7-1.5-2.9-2.3-.7-.4-1.3-.8-1.9-1,.5.5,1,1.1,1.4,1.6-.7-.7-1.5-1.4-2.3-2-1.4-.5-2.8-.7-4.4-.8.7.5,1.3,1,1.9,1.4.3.3.6.6.9.8s.5.5.7.7c.3.4.5.6.5.6,0,0-.2-.2-.7-.5-.2-.2-.5-.3-.8-.5-.3-.2-.6-.4-1-.7-.7-.5-1.6-1-2.6-1.5-.3-.2-.6-.3-.9-.5-.1,0-.3,0-.5,0,5.2,3.7,8.3,10,9.8,15,0-.6-.1-1.2-.2-1.8-.1-.8-.2-1.5-.4-2.2-.1-.6-.2-1.2-.3-1.5,0-.4-.1-.6-.1-.6,0,0,0,.2.2.6M207.6,57.4c.2,0,.3-.2.5-.3.2-.5.6-1.1,1.1-1.7-.2,0-.4-.2-.5-.2-.1.2-.3.4-.4.7-.2.6-.5,1.1-.7,1.6M207.8,45.5c.2,0,.4-.2.6-.2,1.2-.4,2.2-.6,2.9-.8.7-.1,1.1-.2,1.1-.2,0,0-.4.2-1.1.4-.7.3-1.6.6-2.7,1.2-.6.2-1.1.6-1.5,1-.4.5-.8,1.1-.8,1.7,0,.7.1,1.3.5,2,.4.6.9,1.1,1.6,1.5,1.3.8,2.9,1.2,4.4,1.6,1.5.4,2.9.7,4.1,1,1.2.3,2.2.4,2.9.5.7.1,1.1.2,1.1.2,0,0-.4,0-1.1,0-.7,0-1.8,0-3-.1-1.2-.1-2.7-.3-4.2-.7-.5-.1-1-.2-1.5-.4.9.3,1.8.6,2.9.8,4.6.9,8.2,1,11.3,1.1,2.4,0,4.5.1,6.4.6-1.1-.3-2.1-.5-3.1-.5-1.2-.2-2.2-.2-2.9-.2-.7,0-1.1,0-1.1,0,0,0,.4,0,1.1-.2.7,0,1.7-.1,3-.2,1.2,0,2.7.1,4.2.5.8.2,1.6.5,2.3.9.7.4,1.5.8,2.1,1.3,1.4,1,2.6,2.1,3.6,3.3,1,1.2,1.9,2.4,2.3,3.6.3,1.3,0,2.4-.3,3-.2.3-.4.5-.6.6-.1.1-.2.2-.2.2,0,0,0,0,.2-.2.1-.1.3-.4.4-.7.3-.6.4-1.7,0-2.7-.1-.4-.4-.8-.7-1.2.6,1.2.7,2.3.4,3.1,0,0-.5.7-.9,1.1-.1.2-.5,1.2-.3,2.1.1.6.4,1,.7,1.3.2.2.5.3.8.2,1.8-.5,3.1-1.8,3.5-3.7.9-4.1-2.2-9.4-7.4-12.6-4.7-3-8.8-3.1-13.5-3.3-3,0-6.4-.2-10.7-1-1.4-.3-2.5-.6-3.2-.9,0,0,0,0-.1,0-.4-.1-.7-.2-1.1-.5-.4-.2-.7-.5-.9-.9-.2-.4-.2-.8-.1-1.2.3-.7.9-.8,1.2-.9.3,0,.5,0,.5,0,0,0-.2,0-.4.3-.3.2-.7.5-.7.9,0,0,0,0,0,.2.6-.8,2-1.7,4.3-2.4l-.8-2.2c-2.5.7-4.3,1.3-5.6,2M197.3,47.8c0,0,.1,0,.2-.2,2.8-1.9,5.9-3.4,9.2-4.3l5.6-1.6c-1.2-1.7-2.7-4.5-3.6-8.6-.9-4.5-1.9-10.5-.3-16.4,2-7.9,7.7-13.1,16.8-15.4,2.1-.5,4.1-.9,5.9-1.1,16.5-1.9,22.4,9.5,26.2,27.3.9,1.3,1.8,3.6,1.1,6.3-.4,1.3-1.1,2.5-1.9,3.5,2.6,0,4.9.2,6.2.5,3.3.6,8.7,2.8,10.3,5.2.3.4,2,1.1,3.2,1.6,1.7.7,3.6,1.5,5.2,2.7.7.5,1.6,1.1,2.5,1.7,2.8,1.8,5.7,3.7,7.1,6.1.5.8,1.7,1.5,3.1,2.3,1.8,1,4,2.3,5.8,4.5.5.6,1,1.1,1.5,1.6.5,0,1,0,1.5.2,1,.5,1.6,1.6,1.9,2.7.6.5,1.1,1,1.5,1.6,1.5.4,3.5,1.3,5.3,2.9,1.5,1.3,5.4,5.7,6.2,7.8,1.5,3.8,2.3,9.2.5,12.8-1.2,2.3-3.7,5-5.6,5.2-.2,0-.3,0-.5,0-.7.9-1.9,2.1-3.1,2.3,0,0-.1,0-.1,0-.5,0-1.1,0-1.5-.4-.8-.6-1.2-1.7-1.5-4-.5.8-1.1,1.6-2.2,1.8-1.2.2-2.4-.7-3.2-1.5-1.3-1.2-1.9-3.3-2.5-5.2-.4-1.2-.7-2.4-1.2-3.1-1-1.4-2-3.4-2.5-4.4-3.8,0-4.4-.5-4.7-.7-.2-.2-.5-.5-.5-1.1s.1-.8.3-1.4c-3.1-1.3-5.4-3.1-7.6-4.8-.5-.4-1-.8-1.5-1.2-2.4-1.8-4.9-3.1-6.7-4-.6-.3-1.2-.6-1.6-.8-.5-.3-.9-.4-1.5-.4.3,1.4.6,2.8.9,4.2.5,2.4,1,5.1,1.8,8.3.8,3,1.2,6.6,1.5,10.2h0c.7.2,1.8.4,2.9.7,2.5.5,5.2,1.1,6.8,2,4.1,2.3,9.1,6.5,9.8,10.8.5,2.6,0,6.4-1.6,7.9-.2.2-.4.3-.6.5,0,1.1-.3,2.9-1.3,3.8-.5.5-1.1.8-1.8.8s-1,0-1.2.1c-.4.1-1,.3-2.7.5-1.5.2-2.8-.1-3.9-.7.2.2.4.4.7.6,3.1,2.3,9.9,15.2,11.9,23.7.6,2.6,1.2,4.2,1.8,5.7.8,2.1,1.5,3.8,1.5,7.2,0,4.3,1.2,18.2,1.9,24.1.5,4.6-1.1,9-2.5,12.9-.5,1.4-1,2.7-1.3,3.9-.2.6-.3,1.2-.4,1.7-.4,1.5-.7,2.9-1.3,4.1.2.5.4.9.5,1.4.3.9.5,1.6,1,2.3.7.9,1.9,1.9,3.1,2.9,2.1,1.7,4.2,3.4,4.4,5.7.2,2.5-1.2,4.8-2.1,6,.1,1.3-.3,2.7-1.7,3.4-.5.3-1.2.4-2,.5-1.4.2-4.5.2-9.1-1.7-2.6-1-4.9-2.6-6.9-4-2.1-1.5-4.1-2.9-6-3.2-2-.4-4.3-1.1-6.3-2-2.8-1.3-3.9-2.5-3.6-3.9.2-1.2,1-1.9,1.5-2.3,0,0,0,0,0,0,0-.2,0-.4,0-.6,0-2.2.2-6.4,3.3-9,0,0,.1,0,.2-.1,0-1.5.6-3.1,1.2-4.8.6-1.8,1.3-3.6,1.3-5.4,0-2.1.4-4.5.8-6.8.4-2.7.9-5.6.7-7.4-.4-3.4-5-17.8-6.5-21.3-.2-.6-.6-1.4-1-2.2.6,4.9,1.3,9.7,1.5,11.5.5,4,.8,7.3.6,12.9-.1,4.5-2.3,7.5-4.4,10.4-.7,1-1.5,2.1-2.2,3.2-1.8,2.8-2.7,5.4-3.5,7.8-.4,1.2-.8,2.3-1.3,3.3-.6,1.3-1.2,2.3-1.9,3.2.6,1,.9,2.2,1,3.1.2.9.3,1.7.7,2.5.6,1,1.7,2.1,2.8,3.2,1.9,1.9,3.9,3.9,3.8,6.2-.1,2.5-1.8,4.7-2.8,5.8,0,1.3-.6,2.7-2.1,3.2-.3.1-.7.2-1.2.3-1.2.1-4.6.2-9.8-2.6-2.5-1.3-4.6-3.1-6.4-4.8-1.9-1.7-3.8-3.3-5.6-3.9-2.7-.8-4.8-2.1-5.8-2.9-2.3-1.6-3.1-2.9-2.8-4.3.3-.9.5-1.4,1.1-2,0-.2,0-.5.1-.8.3-2.2.9-6.4,4.4-8.7.1-.1.3-.2.5-.2-.6-4.1.7-7,2.1-8.8.9-1.3.8-3.6.6-5.9-.2-2.7-.4-5.6,1.1-7.8.4-.6,1-3.4.6-9.6-.4-5-1.2-9.3-1.9-10.9-1.2-2.9-2.6-10-3.9-16.3-.6-3-1.2-5.9-1.5-7-.2-.8-.4-1.4-.5-1.9,0-.3-.1-.5-.2-.7l-.4.2c-1.9.9-3.8,1.4-5.9,1.6-.8,0-1.6.1-2.4.1s-.7-.1-1-.3c-1.4-.9-6.1-4.2-6.9-7.1l-18.2-64.3s0,0,0,0c-1.1-4.5,2.6-7.9,2.8-8"/>
    <path class="st2" d="M220.8,112.2c.2.7.4,1.3.6,2,.4,1.6.9,3.1,1.3,4.7.4,1.6.8,3.1,1.1,4.7-.5-1.5-1-3.1-1.5-4.6-.5-1.6-.9-3.1-1.4-4.7-.3-1-.5-1.9-.8-2.9.1,0,.2,0,.3,0,.1.2.2.5.4.7"/>
    <path class="st4" d="M267.3,207.7c-.3.3-.5.5-.6.9.2.6,4,2.7,8.1,3.4,2.3.4,4.5,2,6.8,3.6,2,1.4,4,2.8,6.4,3.8,4.2,1.6,6.8,1.7,8,1.5.5,0,1-.2,1.2-.3.2,0,.3-.2.4-.4-.3,0-.6.1-.9.1-1.8.2-4.6.1-8.2-1.2-2.5-1-4.6-2.6-6.7-4.1-2.1-1.6-4.1-3.1-6.1-3.4-2.6-.5-6.6-2.2-8.6-3.7M269.1,208.4c.4.2.7.4,1.1.6,0,0,0,0,0,0,.4.2.7.4,1.1.5,0,0,0,0,0,0,.2,0,.3.1.5.2,0,0,0,0,0,0,.2,0,.4.1.5.2,0,0,0,0,.1,0,.1,0,.3.1.4.2,0,0,0,0,.1,0,.2,0,.3.1.5.2,0,0,0,0,.1,0,.1,0,.2,0,.4.1,0,0,.1,0,.2,0,.2,0,.3,0,.5.1,0,0,0,0,.1,0h.4c0,0,.1.1.1.1.1,0,.2,0,.4,0,0,0,0,0,0,0,2.1.4,4.1,1.9,6.2,3.5,1.9,1.4,3.9,2.9,6.2,3.9.1,0,.3.1.5.2.3.1.7.2,1,.4,2.9.9,5.3,1.1,7.1.9.3,0,.5,0,.7-.1.2,0,.4,0,.5-.1h0c0,.1,0,.2,0,.3h0c0,.1,0,.2-.1.3,0,0,0,0,0,0,0,0-.1.2-.2.2,0,0,0,0,0,0,0,0-.2.1-.3.2-.1,0-.3.1-.6.2-.2,0-.5.1-.8.1-.6,0-1.4,0-2.3,0-1.5-.2-3.5-.6-5.9-1.5-1-.4-1.9-.9-2.8-1.4-.3-.2-.6-.4-.9-.5-.6-.4-1.1-.7-1.7-1.1-.8-.6-1.6-1.1-2.4-1.7-.5-.4-1-.7-1.6-1-1.3-.8-2.6-1.4-3.9-1.6-2.6-.5-5.3-1.5-6.9-2.4-.3-.2-.6-.4-.8-.5-.2-.2-.4-.3-.5-.4-.1-.1-.2-.2-.1-.3,0-.1,0-.2.1-.3,0,0,0,0,0,0,0,0,.1-.2.2-.2,0,0,0,0,0,0,0,0,.1-.2.2-.2,0,0,0,0,0,0,0,0,.2-.1.2-.2.5.4,1.1.8,1.8,1.2h0"/>
    <path class="st1" d="M282,214.8c2,1.5,4.1,3.1,6.7,4.1,3.6,1.4,6.5,1.5,8.2,1.2.3,0,.6,0,.9-.1,0,.2-.2.3-.4.4-.3.1-.7.2-1.2.3-1.2.1-3.9.1-8-1.5-2.4-.9-4.4-2.4-6.4-3.8-2.3-1.6-4.5-3.1-6.8-3.6-4.1-.8-7.9-2.9-8.1-3.4,0-.4.3-.6.6-.9,2,1.5,6,3.2,8.6,3.7,2,.4,4,1.9,6.1,3.4"/>
    <path class="st4" d="M283.3,213c1.9,1.4,3.9,2.9,6.2,3.8,3.1,1.2,5.6,1.3,7.2,1.1.5,0,1-.1,1.2-.2,0,0,0,0,0-.1.8-.8.9-1.8,1-2.5l.2-2.4s-.5,1.3-1.2,2.8c-.2.4-.7.9-1,1.2-.1,0-.3,0-.4,0,.2-.5.2-.9.3-1.3l.2-2s-.4,1.1-1,2.4c-.1.2-.3.5-.5.7-3.9-1-8.2-3.1-10.1-5.6-1-1.3-2.5-2.2-4-3.2-1.2-.7-2.4-1.5-3.2-2.4,2.2.8,4.4,1.3,6.7,1.7-2.8-1-5.5-2.3-8-3.9,0,0,0,0,0,0,.4.1.7.2,1.1.3,2.7.8,6.9,1.6,9.6,1.3,0,0,.2,0,.3,0,1.8-.3,3.1-.9,4-1.9.3.9.6,1.9,1.3,2.9.1.1.2.3.3.4-.5,0-1-.1-1.5-.1-.6,0-1.2.1-1.8.2-.6.1-1.1.3-1.5.5-.4.2-.8.4-1,.5-.2.1-.4.2-.4.2h.4c.3,0,.6,0,1.1,0,.4,0,1,0,1.5,0,.5,0,1.1,0,1.7,0,.6,0,1.1,0,1.7,0,.4,0,.7,0,1,0,.8.7,1.6,1.4,2.5,2-.1,0-.3,0-.5-.1-.6,0-1.2-.1-1.8-.2-.6,0-1.2.1-1.8.2-.6.1-1.1.3-1.5.5-.4.2-.8.4-1,.5-.2.2-.4.2-.4.2h.4c.3,0,.6,0,1.1,0,.4,0,1,0,1.5,0,.5,0,1.1,0,1.7,0,.6,0,1.1,0,1.7,0,.5,0,1.1,0,1.5,0h.4c1.1,1,1.9,1.9,2,2.9.1,1.4-.5,2.8-1.1,3.8,0,0,0,0,0,0-.2.4-.4.7-.6.9,0,0,0,0,0,0,0,.1-.2.2-.2.3h0c0,0-.2,0-.3,0,0,0,0,0,0,0,0,0-.2,0-.3,0,0,0,0,0-.1,0,0,0-.2,0-.3,0-.1,0-.3,0-.5,0h0c-.2,0-.4,0-.6,0,0,0-.1,0-.2,0-.1,0-.3,0-.5,0h-.3c-.1,0-.3,0-.5,0-.1,0-.2,0-.3,0-.2,0-.4,0-.6,0,0,0-.2,0-.3,0-.2,0-.5,0-.8-.1-.1,0-.2,0-.3,0-.2,0-.4,0-.6-.1-.1,0-.2,0-.4,0-.2,0-.4-.1-.7-.2-.1,0-.2,0-.3-.1-.3-.1-.7-.2-1-.4-.7-.3-1.4-.6-2.1-1-1.3-.8-2.6-1.7-3.8-2.6-.1-.1-.3-.2-.4-.3-.5-.3-.9-.7-1.3-1-1.1-.8-2.2-1.6-3.4-2.1-.6-.3-1.3-.5-2-.7,0,0,0,0-.1,0-.2,0-.4,0-.5-.1,0,0-.2,0-.3,0-.1,0-.3,0-.4-.1-.1,0-.2,0-.3,0-.1,0-.3,0-.4-.1,0,0-.2,0-.3,0-.1,0-.3-.1-.4-.1,0,0-.2,0-.3,0-.2,0-.3-.1-.5-.2,0,0-.1,0-.1,0-.2,0-.4-.2-.6-.3,0,0-.2,0-.3-.1-.1,0-.2-.1-.4-.2-.1,0-.2-.1-.3-.1,0,0-.2,0-.3-.1-.1,0-.2-.1-.3-.2,0,0-.1,0-.2-.1-.1,0-.2-.1-.4-.2,0,0,0,0,0,0-.8-.4-1.4-.8-1.8-1.1,0-.7,0-1.8.2-3.1h0c0-.3,0-.5,0-.7,0,0,0,0,0,0,0-.2,0-.4.1-.7h0c.1-.5.2-1,.4-1.4,0,0,0-.1,0-.2,0-.2.1-.3.2-.5,0,0,0-.1.1-.2,0-.1.2-.3.3-.4,0,0,0-.1.1-.2.1-.1.2-.3.3-.4h0c0,0,0,.2.1.3,0,.1.1.2.2.4-1.5,1.9-1.5,4.6-1.6,6.3,0,.2,0,.4,0,.6,1.4,1,4.7,2.8,7.7,3.3,2.5.5,4.7,2.1,7,3.9"/>
    <path class="st4" d="M230.4,203.8c0,.2,0,.4-.1.6,1.3,1.1,4.4,3.3,7.4,4.2,2.4.7,4.4,2.6,6.6,4.6,1.8,1.7,3.6,3.4,5.8,4.5,3.9,2.1,7,2,8.1,1.9.1,0,.2,0,.3,0,.2-.2.5-.5.7-.9h0c.4-.6.5-1.2.7-1.7l.5-2.3s-.6,1.3-1.5,2.7c-.3.4-.7.8-1.1,1-.1,0-.3,0-.4-.1.2-.4.3-.9.4-1.2l.5-2s-.5,1.1-1.3,2.3c-.1.2-.3.4-.5.6-3.8-1.4-7.8-4-9.5-6.8-.8-1.4-2.2-2.5-3.6-3.6-1.6-1.3-3.3-2.6-3.9-4.4.9.5,1.8,1,2.7,1.5,1.5.8,3.1,1.4,4.7,1.7-1.6-.6-2.9-1.5-4.2-2.5-.4-.3-.7-.6-1-.8,1.8.6,4.2,1.3,6.3,1.2.2,0,.4,0,.6,0,1.6-.2,3.5-.8,5.3-2.5.6,1.4.5,3.3,1.5,5,0,.1.1.2.2.4-.6-.1-1.2-.3-1.8-.4-.7,0-1.3,0-1.9,0-.6,0-1.2.2-1.6.3-.5.2-.9.3-1.1.4-.3.1-.4.2-.4.2,0,0,.2,0,.4,0,.3,0,.7,0,1.2.1.5,0,1,0,1.6.1.6,0,1.2,0,1.8.2.6,0,1.2,0,1.8.2.4,0,.8,0,1.2.1.7.9,1.6,1.7,2.4,2.5-.2,0-.5-.2-.7-.3-.6-.2-1.2-.3-1.9-.4-.7,0-1.3,0-1.9,0-.6,0-1.2.2-1.6.3-.5.2-.9.3-1.1.4-.3.1-.4.2-.4.2,0,0,.2,0,.4,0,.3,0,.7,0,1.1,0,.5,0,1,0,1.6.1.6,0,1.2,0,1.8.2.6,0,1.2,0,1.8.2.6,0,1.1.1,1.6.2.2,0,.4,0,.5,0,.9,1.1,1.6,2.1,1.5,3.1,0,1.4-.9,2.7-1.6,3.7,0,0,0,0,0,0-.3.3-.5.6-.7.9,0,0,0,0,0,0-.1.1-.2.2-.3.3,0,0,0,0,0,0-1.6.3-4.9.3-8.9-1.9-2.2-1.2-4.1-2.9-5.9-4.6-2.1-1.9-4-3.8-6.3-4.5-3.2-1-6.6-3.4-7.9-4.5,0,0,0,0,0,0,.1-.7.2-1.8.5-3.1,0,0,0,0,0,0,0-.2.1-.4.2-.6,0,0,0,0,0,0,0-.2.1-.4.2-.7h0c.2-.5.4-.9.6-1.4,0,0,0-.1,0-.1,0-.2.2-.3.3-.5,0,0,0-.1.1-.2.1-.1.2-.3.3-.4,0,0,.1-.1.2-.2.1-.1.2-.2.4-.4,0,0,.1-.1.2-.2.1-.1.3-.2.4-.3,0,.2.1.4.2.6h0c-2.2,1.7-2.6,4.8-2.9,6.7"/>
    <path class="st1" d="M242.8,214.9c1.9,1.8,3.8,3.6,6.2,4.9,3.4,1.8,6.3,2.2,8.1,2.1.3,0,.6,0,1,0-.1.2-.3.4-.5.5-.2,0-.4.1-.7.1-.2,0-.4,0-.6,0-1.2,0-3.9-.3-7.9-2.4-2.3-1.2-4.1-2.9-6-4.5-2.1-1.9-4.1-3.6-6.4-4.3-4.1-1.2-7.2-3.9-7.1-4.4,0-.2,0-.4,0-.5,0-.1,0-.2,0-.2,1.9,1.7,5.6,3.9,8.2,4.6,2,.6,3.8,2.3,5.7,4.1"/>
    <path class="st4" d="M229,206.1c0,0,0,.1,0,.2,0,.1,0,.3,0,.5,0,.5,3,3.2,7.1,4.4,2.3.7,4.3,2.5,6.4,4.3,1.8,1.6,3.7,3.3,6,4.5,4,2.1,6.7,2.4,7.9,2.4.2,0,.4,0,.6,0,.3,0,.5,0,.7-.1.2,0,.4-.2.5-.5-.3,0-.6,0-1,0-1.8,0-4.7-.4-8.1-2.1-2.4-1.3-4.4-3.1-6.2-4.9-1.9-1.8-3.7-3.6-5.7-4.1-2.5-.8-6.3-2.9-8.2-4.6M243.1,214.6c1.9,1.8,3.8,3.6,6.1,4.8,3.9,2.1,7.3,2.2,9.2,2,0,0,0,0,.1,0,0,0,0,0,0,0,0,.1,0,.2,0,.3,0,0,0,0,0,0,0,0,0,.2-.1.3,0,0,0,0,0,0,0,0-.1.2-.2.2,0,0,0,0,0,0,0,0-.2.1-.3.2,0,0-.2,0-.3,0-.1,0-.3,0-.4,0-.2,0-.4,0-.7,0h0c-.2,0-.4,0-.6,0h0c-.2,0-.4,0-.7,0,0,0,0,0-.1,0-.2,0-.5,0-.8-.1,0,0,0,0-.1,0-.3,0-.6-.1-.9-.2h0c-.3,0-.6-.2-.9-.3,0,0-.1,0-.1,0-.3-.1-.6-.2-1-.4,0,0-.1,0-.2,0-.4-.1-.7-.3-1.1-.5,0,0-.1,0-.2,0-.4-.2-.8-.4-1.2-.6h0c-1.2-.6-2.4-1.4-3.4-2.3-.3-.2-.5-.4-.8-.6-.5-.4-1-.9-1.5-1.3-2.2-2-4.3-3.8-6.6-4.5-1-.3-2-.7-2.9-1.2-1.8-.9-3.2-2-3.9-2.7-.4-.4-.5-.7-.5-.9.2-.5,0-.7.4-1,0,0,0,0,0,0,0,0,0,0,0,0,1.8,1.7,5.7,3.9,8.2,4.7,2.1.6,3.9,2.4,5.9,4.2"/>
    <path class="st4" d="M267,52.2c0-.3-.2-.8-.4-1.4-.2-.6-.5-1.3-.8-2-.3-.7-.7-1.4-1.1-2.1-.5-.7-.9-1.4-1.4-2s-1-1.1-1.4-1.5c-.4-.4-.8-.8-1.1-1-.3-.2-.4-.3-.4-.3,0,0,.1.2.4.4.2.3.6.7,1,1.1.4.5.8,1,1.3,1.6.5.6.9,1.3,1.3,2,.4.7.8,1.4,1.2,2,.3.7.7,1.3.9,1.9.2.5.5,1,.6,1.3.1.3.2.5.2.5,0,0,0-.2-.1-.5M269.7,61.5c0-.3.1-.7.2-1.2,0-.5.1-1.1.2-1.8,0,0,0-.2,0-.2-.6.5-1.3,1.3-2.1,1.8-.1-.2-.2-.5-.3-.7-.3-.7-.7-1.4-1-2.1,0,0,0-.2,0-.3-.1-2.2-.7-4.2-1.4-6.2-.8-2-1.8-3.8-3.1-5.5s-2.7-3.1-4.4-4.3c1.5,1.3,2.8,3,3.9,4.7,1,1.7,1.8,3.5,2.3,5.3.2.4.3.8.5,1.2.2.5.3,1.1.4,1.6s0,1,0,1.4c0,.4,0,.8,0,1,0,.2,0,.4,0,.4,0,0,0-.1,0-.4,0-.2,0-.6-.1-1,0-.4-.1-.9-.2-1.4,0-.3-.1-.6-.2-.9-2.9-4.2-6.2-7.7-8.7-9.5l-.7-3.2c1.8,1.4,3.5,3.1,4.8,5.1-.9-2.2-2.2-4.2-3.8-6,2.9,0,5.5.2,6.7.5,2.5.5,6,1.8,7.8,3.2,0-.2-.1-.4-.2-.6-.1-.3-.2-.6-.3-.8,0-.2-.1-.3-.1-.3,0,0,0,0,.2.3.1.2.3.4.5.7.2.3.4.7.6,1.1s.4.9.5,1.3c0,.3.2.5.2.8,0,0,0,0,0,.2.3.7.6,1.3.8,1.9.2.5.4,1,.5,1.3.1.3.2.5.2.5v-.6c0-.3,0-.9-.1-1.5-.1-.6-.3-1.3-.5-2,0,0,0-.2-.1-.3,0,0,.1,0,.2.1.1.3.3.6.4.9.2.3.3.7.5,1,.1.3.2.5.3.7,0,.2.1.3.1.3,0,0,0-.1,0-.3,0-.2,0-.5-.1-.8,0-.3-.2-.7-.3-1,0,0,0-.2-.1-.3,2,.9,4.7,1.9,6.7,3.3,1.3.9,2.8,1.9,4.3,2.9-.2,0-.4,0-.6,0-.7.1-1.4.4-2,.6-.6.3-1.1.6-1.6.9-.4.3-.8.6-1,.8-.2.2-.4.3-.4.3,0,0,.2,0,.5-.1.3,0,.7-.2,1.2-.4.5-.2,1-.4,1.6-.5.6-.2,1.2-.3,1.9-.4.6-.1,1.2-.2,1.8,0,0,0,.1,0,.1,0,1.3,1,2.5,2.1,3.2,3.2.9,1.5,2.7,2.3,4.6,3.4,0,0,0,0-.1,0-.8,0-1.5,0-2.2,0-.7.2-1.3.3-1.8.6-.2.1-.5.3-.7.4-.2.1-.4.2-.5.3-.2.2-.4.3-.4.3,0,0,.2,0,.5-.2.1,0,.3-.1.5-.2.2,0,.4-.1.7-.2.5-.1,1.1-.2,1.7-.2.6,0,1.3,0,2,.1.7,0,1.3.3,1.9.5.6.2,1.1.4,1.5.6.4.4.9.8,1.2,1.3.4.5.8.9,1.1,1.3l-.3.2c-2,1.7-3.8,3.8-5.3,5.9,0-.1,0-.2.1-.3.2-.6.5-1.2.7-1.7.2-.5.4-.9.5-1.2.1-.3.2-.5.2-.5,0,0-.1.1-.4.3-.2.2-.5.6-.9,1-.3.4-.7,1-1.1,1.6-.3.6-.7,1.3-1,2-.2.7-.5,1.4-.6,2.1,0,.2,0,.3,0,.5-.2-.2-.5-.4-.7-.6-1.6-2.3-2.2-5.5-1.4-8.5-.6,1.1-1,2.3-1.3,3.5,0,.2,0,.5,0,.8,0,.6,0,1.2,0,1.8,0,.6,0,1.1,0,1.5v1.5s0-.2-.1-.4c0-.3-.1-.6-.2-1.1,0-.4-.1-1-.1-1.6,0-.5,0-1,0-1.6-2.5-2.6-5.6-4-8.3-6.9.6-1.7,1.7-3.3,3.4-4.4-.9.2-1.8.6-2.6,1.1-.4.2-.7.5-1,.8-.5.4-.9.8-1.3,1.3-.4.4-.8.8-1,1.2-.3.4-.5.7-.6.9-.1.2-.2.4-.2.4,0,0,0-.2.1-.4.1-.3.2-.6.5-1.1.2-.4.5-.9.9-1.4,0,0,.2-.2.2-.3-1.3-1.3-2.5-2-3.4-2.5.2-1,.4-1.9.8-2.9.7-1.8,1.8-3.5,3.3-4.8-1.8,1-3.3,2.5-4.5,4.2-.2.4-.5.7-.7,1.1h0c0-.6,0-1.1,0-1.7,0-.6-.1-1.1-.2-1.7-.1-.5-.2-1-.4-1.4-.1-.4-.3-.7-.4-1-.1-.2-.2-.4-.2-.4,0,0,0,.1,0,.4v1c0,.4,0,.9,0,1.4,0,.3,0,.7,0,1,0-.2-.1-.5-.2-.8-.7-2.1-1.6-4.2-2.9-6,.7,1.7,1.2,3.5,1.4,5.2,0,0,0,.1,0,.2.1.5.2,1.1.3,1.8,0,.7.1,1.4.1,2.1,0,.7,0,1.4-.1,2,0,.7-.2,1.2-.3,1.8-.1.5-.3.9-.4,1.2-.1.3-.2.4-.2.4,0,0,0-.2,0-.5"/>
    <path class="st4" d="M247.7,88.1c.6,0,1.2-.5,1.6-1.1.8-.6,1.3-1.8,1.1-3.2-.2-1.4-.9-2.6-1.8-2.9-.5-.5-1.1-.8-1.8-.7-1.5.2-2.5,2-2.2,4.3.2,2.2,1.6,3.8,3.1,3.6M255.7,86c.6,0,1.2-.5,1.6-1.1.8-.6,1.3-1.8,1.1-3.2-.2-1.4-.9-2.6-1.8-2.9-.5-.5-1.1-.8-1.8-.7-1.5.2-2.5,2-2.2,4.3.2,2.2,1.6,3.8,3.1,3.6M263.8,83.8c.6,0,1.2-.5,1.6-1.1.8-.6,1.3-1.8,1.1-3.2-.2-1.4-.9-2.5-1.8-2.9-.5-.5-1.1-.8-1.8-.7-1.5.2-2.5,2-2.2,4.3s1.6,3.8,3.1,3.6M257.4,70.3c0-.4-.1-.9-.2-1.5s-.2-1.1-.3-1.7c-.1-.6-.3-1.1-.4-1.7-.1-.5-.3-1-.4-1.4-.1-.4-.3-.8-.3-1,0-.2-.1-.4-.1-.4,0,0,0,.2,0,.4s0,.6.1,1.1c0,.4.1.9.2,1.5s.2,1.1.3,1.7c.1.6.3,1.1.4,1.7.1.5.3,1,.4,1.4.1.4.3.8.3,1,0,.2.1.4.1.4,0,0,0-.2,0-.4s0-.6-.1-1.1M235.3,69c.1.6.2,1.4.4,2.2,0,.6.2,1.2.2,1.8-1.4-5-4.6-11.3-9.8-15,.1,0,.3,0,.5,0,.3.2.6.3.9.5,1,.5,1.9,1,2.6,1.5.4.2.7.5,1,.7s.6.4.8.5c.4.3.7.5.7.5,0,0-.2-.2-.5-.6-.2-.2-.4-.4-.7-.7-.3-.3-.6-.5-.9-.8-.5-.5-1.2-.9-1.9-1.4,1.6.1,3,.3,4.4.8.8.6,1.6,1.3,2.3,2-.4-.6-.9-1.1-1.4-1.6.6.3,1.3.6,1.9,1,1.2.8,2.2,1.6,2.9,2.3-.2,0-.5,0-.7,0-2.6.3-4.4.5-4.4.5,0,0,.4,0,1.2.2.4,0,.9,0,1.4.1.5,0,1.1,0,1.8,0,.5,0,1,0,1.5,0,.5.7.8,1.2,1,1.7-.2,0-.4,0-.5,0-.8.2-1.4.9-1.7,2-.3.9-.2,2.1.1,3.2.7,2.2,2.3,3.7,3.8,3.5.1,0,.2,0,.4,0,.4-.1.8-.3,1-.7,1.8-.6,3.1-1.9,3.8-3.7l.4,5.5s0,0-.1,0c-1.6.3-3.1.6-4.4.8-1.3.2-2.4.4-3.1.6-.8.2-1.2.2-1.2.2,0,0,.4,0,1.2,0,.8,0,1.9,0,3.2,0,1.3,0,2.9-.2,4.5-.4.8-.1,1.7-.2,2.5-.4.9-.2,1.7-.3,2.6-.5.9-.2,1.7-.4,2.5-.7.8-.2,1.6-.5,2.4-.8.8-.3,1.5-.6,2.2-.8.7-.3,1.4-.6,2-.8,1.2-.5,2.2-1.1,2.8-1.4.7-.4,1-.6,1-.6,0,0-.4.1-1.2.3-.7.2-1.8.5-3,.9-.6.2-1.3.4-2,.6l-2.9-8.3,1.4,8.8c-.3,0-.5.1-.8.2-.8.2-1.6.4-2.4.6-.8.2-1.7.4-2.5.6s-1.7.4-2.5.6c-.3,0-.6.1-.9.2l-1.6-5.9c0-.1,0-.2.1-.3.1-.5.2-1,.2-1.6,0,0,0,.1,0,.2.1.6.3,1.2.4,1.8.2.6.3,1.2.5,1.7.2.6.4,1.1.5,1.5s.3.8.4,1.1c.1.2.2.4.2.4,0,0,0-.2,0-.4,0-.3-.1-.7-.2-1.1-.1-.4-.2-1-.3-1.5s-.3-1.2-.4-1.8c-.2-.6-.3-1.2-.5-1.7s-.4-1.1-.5-1.5c0-.2-.1-.3-.2-.5-.1-.8-.4-1.5-.7-2.3.2,0,.4,0,.7-.1.9-.2,1.7-.4,2.6-.7.9-.2,1.7-.5,2.5-.8.8-.3,1.6-.6,2.2-.9.7-.3,1.4-.6,2-.9.6-.3,1.1-.6,1.6-.8.5-.3.9-.5,1.2-.7.7-.4,1-.7,1-.7,0,0-1.7.5-4.2,1.3-.6.2-1.3.4-2,.6-.7.2-1.5.4-2.3.7-.8.2-1.6.4-2.4.6-.8.2-1.7.4-2.5.6-.3,0-.7.1-1,.2-.1-.3-.3-.5-.4-.8.6-.1,1.2-.2,1.8-.4,1.2-.3,2.3-.6,3.4-.9s2.1-.6,2.9-.9c.9-.3,1.6-.5,2.1-.7.5-.2.8-.3.8-.3,0,0-.3,0-.8.2-.5.1-1.2.3-2.1.5-.9.2-1.9.5-3,.8-1.1.3-2.2.5-3.4.8-.7.2-1.3.3-1.9.5-1.4-2.2-3.4-4.2-5.8-5.7.6,0,1.3-.1,2-.2,1.1-.2,2.2-.5,3.2-.8,1-.3,1.9-.7,2.7-1,.8-.4,1.4-.7,1.8-.9.4-.3.6-.4.6-.4,0,0-.3,0-.7.2-.5.2-1.1.3-1.9.5-.8.2-1.7.5-2.7.7-1,.2-2.1.5-3.1.6-1.1.2-2.1.3-3.2.4h0c-.7-.4-1.3-.7-2-1,1-.2,2.1-.3,3.1-.5,4.9-1,8.9-2.3,11.7-3.7.5,3.1.8,6.3.8,9.5.5-3.4.7-6.8.5-10.3.4-.2.7-.4.9-.6.8,2.8,1.3,5.8,1.5,8.7.2-2.6.1-5.3-.1-8,.1.2.2.3.3.5.3.4.6.8.9,1.2.3.4.6.8.8,1.1.2.3.5.6.6.8.1.2.2.3.2.3,0,0,0-.1,0-.4,0-.2-.1-.6-.2-1-.1-.4-.3-.8-.5-1.3-.2-.5-.5-.9-.8-1.4,0-.1-.2-.2-.3-.3,3.2,3,7.3,8.2,9.6,13.2,2.8,6.2,3,11.3,5.3,20.3.7,2.7,1.1,6,1.4,9.3h-.8c-.1-.6-.2-1.5-.4-2.5-.2-1.1-.4-2.3-.6-3.6-.2-1.3-.5-2.7-.8-4.1-.3-1.4-.6-2.8-.9-4.1-.3-1.3-.6-2.5-.8-3.6-.2-1.1-.5-1.9-.6-2.5-.2-.6-.2-.9-.2-.9,0,0,0,.3.1,1,.1.6.2,1.5.4,2.6s.4,2.3.6,3.6c.2,1.3.5,2.7.8,4.1.3,1.4.6,2.8.9,4.1.3,1.3.6,2.5.8,3.6.2,1,.5,1.9.6,2.5-2,0-3.9.6-5.3,1.1l-1.5-2.9-.4,3.2c-1-1-2.8-2.2-4.5-1.9-.8.2-1.5.7-2,1.4-.4,0-.9-.1-1.3-.2-1.6-.3-3.1-.5-4.6-.7,0,0,.1,0,.2,0,.8-.1,1.6-.2,2.4-.4.8-.2,1.6-.3,2.4-.5.8-.2,1.6-.4,2.4-.7.8-.2,1.5-.5,2.3-.8.7-.3,1.4-.5,2.1-.8.6-.3,1.3-.6,1.8-.8,1.1-.5,2-1,2.6-1.4.6-.4,1-.6,1-.6,0,0-.4.1-1.1.3-.7.2-1.7.5-2.8.9-.6.2-1.2.4-1.9.6-.7.2-1.4.4-2.1.6-.7.2-1.5.4-2.2.6-.8.2-1.5.4-2.3.6-.8.2-1.6.4-2.3.6-.8.2-1.5.3-2.3.5-1.5.3-2.9.6-4.1.8-.8.2-1.4.3-2,.4,0,0-.1,0-.2,0-2.6.2-3.3-.2-4.1-.6-.9-.5-2.1-1.2-4.4-.9-.4-1.2-.3-4.2-.3-6.2,0-.9,0-1.8,0-2.7,0-.8.2-1.6.3-2.4.1-.8.2-1.7.4-2.4.1-.8.2-1.5.4-2.1.1-.6.2-1.2.3-1.5,0-.4,0-.6,0-.6,0,0-.1.2-.3.5-.2.3-.4.8-.6,1.4-.2.6-.4,1.2-.7,2,0-.2,0-.5,0-.8-.1-.9-.2-1.7-.4-2.5-.2-.8-.4-1.5-.6-2.2-.2-.6-.4-1.1-.5-1.5-.1-.3-.2-.6-.2-.6,0,0,0,.2.1.6,0,.4.2.9.3,1.5"/>
    <path class="st4" d="M208.6,55.2c.2,0,.4.2.5.2-.5.6-.8,1.2-1.1,1.7-.2,0-.3.2-.5.3.2-.5.4-1,.7-1.6.1-.2.2-.4.4-.7"/>
    <path class="st4" d="M240.5,99.7c-.1.6-.2,1.3-.3,2,0,.6,0,1.3,0,2-.2,0-.4,0-.7,0-.2-4,.9-8.2,3.3-11.6.7,0,1.7.1,2.9,0,2.3-.2,4.7,0,7.1.3-.9,2.7-1.1,5.5-.6,8.1.2-2.9,1.4-5.6,3-7.7.5,0,1.1.2,1.6.3-.8,3.2-1,6.5-.9,9.5-.6.1-1.3.2-2,.4h0c.2-2.5.4-3.9.5-4.7,0-.8,0-1,0-1-.8,3.6-1.3,7.4-.5,11.1,0,0,0,0-.1-.2s-.2-.4-.3-.8c-.2-.7-.5-2.1-.4-4.3-3,.4-6.7.8-11.3.7h-.7c0-.7,0-1.3,0-2,0-.7,0-1.4,0-2,0-.6,0-1.1,0-1.4,0-.3,0-.5,0-.5,0,0,0,.2-.2.5-.1.3-.2.8-.4,1.4"/>
    <path class="st4" d="M218.9,11.8c-.1,0-.3.1-.5.2-.2.1-.4.2-.7.4s-.5.4-.7.6c-.2.2-.4.4-.6.7-.2.2-.3.5-.5.6-.1.2-.2.4-.3.5,0,.1,0,.2,0,.2,0,0,0,0,.2-.1.1,0,.3-.2.4-.4.2-.2.4-.3.6-.5s.4-.4.6-.6c.2-.2.4-.4.6-.6s.4-.4.6-.5.3-.3.4-.4c0-.1.1-.2.1-.2,0,0,0,0-.2,0M229.6,10.6c-.3.1-.8.3-1.4.6-.6.3-1.2.6-1.9,1-.7.4-1.3.9-2,1.4-.6.5-1.3,1-1.8,1.6s-1,1.1-1.4,1.5c-.4.5-.7.9-.9,1.2-.2.3-.3.5-.3.5,0,0,.1-.1.4-.4.2-.3.6-.6,1.1-1,.4-.4,1-.9,1.5-1.4.6-.5,1.2-1,1.9-1.5.6-.5,1.3-1,1.9-1.4.6-.4,1.2-.8,1.8-1.1.5-.3,1-.6,1.3-.8.3-.2.5-.3.5-.3,0,0-.2,0-.5.2M218.4,23.3c-.4-.1-.8-.2-1.2-.2,0-.7.2-1.4.4-2.1.8-2.3,2.3-4.4,4.1-6.1,1.8-1.7,3.9-3.2,6.2-4.3,4.5-2.3,9.7-3.5,14.9-3.3-5.2-.9-10.6,0-15.5,2.1-2.4,1.1-4.7,2.6-6.7,4.4-2,1.8-3.7,4-4.6,6.7-.3,1-.5,2-.5,3.1,0,0,0,0-.1,0-.7-2.5-1-5.3-.7-8-4.1,5.9-4,13.2-3.2,16.9,1.4,6.8,4.6,9.2,4.7,9.3.1,0,.2.2.2.3l1.6,7.5c1.3.2,5.8,1,11.9.7-.1-.7-.2-1.3-.2-1.9,7.4-.5,14.7-2.2,21.4-5.1-6.3,1.9-12.9,2.9-19.4,2.8-.1,0-.2,0-.4,0-1.5,0-3,0-4.4,0-1.4,0-2.7-.2-3.8-.3-1.1-.1-2-.3-2.7-.4-.6-.1-1-.2-1-.2,0,0,.4,0,1,0,.6,0,1.6.1,2.7.2,1.1,0,2.4,0,3.8.1.8,0,1.7,0,2.6,0,0-.6,0-1-.2-1.3,2.9.5,5.9.6,8.8,0-1.3,0-2.7-.2-4-.5.3,0,.7,0,1,0,1,0,1.9,0,2.9,0,3.8-.2,7.6-.9,11.3-2.2,1.1-.4,2.1-.9,3.1-1.4l.8,4s-2.1,3-13.9,5.5c-1.7.4-3.4.6-5.1.8-1.4.2-2.7.3-3.9.3-1.6-.2-3.1-.2-4.8-.3-2.3,0-4.9-.2-8-.6l-1.6-7.8s-.6-.5-1.5-1.6c-.4-.5-.8-1.1-1.2-1.8-.4-.7-.8-1.6-1.2-2.6-.4-1-.7-2.2-1-3.5-1.5-7.1-4.4-24.1,14.9-29.2,2-.5,3.9-.9,5.6-1.1,8.1-.9,13.4,1.6,17.1,7.1-.8-.6-1.6-.9-2.5-1-13.3-1.3-25.4,6.8-27.6,14.8"/>
    <path class="st4" d="M254.4,36.6c-.3.3-.7.6-1.1.9-1.4,1.1-3,1.9-4.7,2.5-3.4,1.3-7.1,1.9-10.8,2.2-.9,0-1.9.2-2.8.2-.9,0-1.8,0-2.7-.1-1.5-.2-3-.6-4.5-1.1-.5-.2-1-.3-1.5-.5-.4-.2-.8-.3-1.2-.5s-.8-.4-1.2-.5c-.4-.2-.8-.4-1.1-.6-.4-.2-.7-.4-1.1-.6-1.4-.8-2.6-1.8-3.6-2.6-1-.8-1.8-1.6-2.3-2.1-.5-.5-.8-.8-.8-.8,0,0,.4.2,1,.7.6.4,1.5,1,2.5,1.8,1.1.7,2.3,1.5,3.7,2.3,0,0,.2,0,.2.1-1.1-1.3-2.1-2.9-3.1-4.6.2,0,.4-.2.5-.3.7.7,1.4,1.2,2.2,1.8,3.9,4.1,10.3,5.9,18.5,4.4,8.4-1.5,14.4-3.7,15.8-7.4,0,.5,0,1.1-.2,1.8-.3,1.2-1.1,2.3-1.9,3.3"/>
    <path class="st3" d="M245.1,17.2c-1-.5-2-.9-2.9-1.3,0,.3,0,.5,0,.6-.4.3-1.2-.5-2.3-.6-1.1-.2-1.9.5-2.4.1-.4-.2,0-2.2,1.4-2.5-.1-.2-.2-.4-.3-.6-.7-2,2.2-4.9,6.8-3,4.6,2,7.2,7.3,6.4,8.6-.8,1.4-3.6-.2-6.6-1.4"/>
    <path class="st5" d="M216,24.9h0c.3-.2.6-.3.9-.4,0,0,.2,0,.2,0,1.5-.2,3,1.2,3.4,3.1.5,2.1-.4,4-2,4.4,0,0-.2,0-.2,0-.2,0-.5,0-.7,0,1.4-.4,2.1-2.2,1.7-4.1-.4-1.9-1.9-3.1-3.3-3"/>
    <path class="st2" d="M215,26.5c0,0-.1,0-.2,0,.3-.5.6-.8,1.1-.9,0,0,.1,0,.1,0,1.1-.1,2.2,1,2.5,2.5.2.8.1,1.6-.2,2.3-.3.6-.7,1-1.2,1.1,0,0-.1,0-.1,0-.1,0-.2,0-.4,0,.8-.5,1.1-1.6.9-2.8-.3-1.4-1.5-2.4-2.6-2.2"/>
    <path class="st3" d="M236.9,20.2c0,.2-.1.4-.3.4-.2,0-.4-.1-.4-.3,0-.2.1-.4.3-.4.2,0,.4.1.4.3"/>
    <path class="st3" d="M231.2,30.5c0,.2-.1.4-.3.4-.2,0-.4-.1-.4-.3s.1-.4.3-.4c.2,0,.4.1.4.3"/>
    <path class="st3" d="M229.6,13.4c0-.2.1-.4.3-.4.2,0,.4.1.4.3,0,.2-.1.4-.3.4-.2,0-.4-.1-.4-.3"/>
    <path class="st3" d="M232.4,22.7c0-.1,0-.3.2-.3s.3,0,.3.2c0,.1,0,.3-.2.3-.1,0-.3,0-.3-.2"/>
    <path class="st3" d="M235.5,13.7c0-.1,0-.3.2-.3.1,0,.3,0,.3.2,0,.1,0,.3-.2.3-.1,0-.3,0-.3-.2"/>
    <path class="st3" d="M239.1,26.4c0,.1,0,.3-.2.3s-.3,0-.3-.2c0-.1,0-.3.2-.3.1,0,.3,0,.3.2"/>
    <path class="st3" d="M225.3,30.7c-.1,0-.3,0-.3-.2,0-.1,0-.3.2-.3.1,0,.3,0,.3.2,0,.1,0,.3-.2.3"/>
    <path class="st3" d="M224.2,20.5c0-.2.1-.4.3-.4.2,0,.4.1.4.3,0,.2-.1.4-.3.4s-.4-.1-.4-.3"/>
    <path class="st3" d="M236.6,27.2c0-.2.1-.4.3-.4.2,0,.4.1.4.3,0,.2-.1.4-.3.4-.2,0-.4-.1-.4-.3"/>
    <path class="st3" d="M254.7,25.6c-.2,0-.4-.1-.4-.3,0-.2.1-.4.3-.4.2,0,.4.1.4.3,0,.2-.1.4-.3.4"/>
    <path class="st3" d="M228.6,18c0,.1,0,.3-.2.3-.1,0-.3,0-.3-.2s0-.3.2-.3.3,0,.3.2"/>
    <path class="st3" d="M226.7,16.4c0,.1,0,.3-.2.3-.1,0-.3,0-.3-.2s0-.3.2-.3.3,0,.3.2"/>
    <path class="st3" d="M228.7,24.2c0,.1,0,.3-.2.3-.1,0-.3,0-.3-.2s0-.3.2-.3.3,0,.3.2"/>
    <path class="st3" d="M221.9,24.9c-.2-.1-.2-.4,0-.5.1-.2.4-.2.5,0,.2.1.2.4,0,.5-.1.2-.4.2-.5,0"/>
    <path class="st3" d="M222.4,31c-.2-.1-.2-.4,0-.5.1-.2.4-.2.5,0,.2.1.2.4,0,.5-.1.2-.4.2-.5,0"/>
    <path class="st3" d="M226.9,31.1c.1,0,.1.2,0,.4,0,.1-.2.1-.4,0s-.1-.2,0-.4c0-.1.2-.1.4,0"/>
    <path class="st3" d="M226,27.4c0-.1.2-.1.4,0,.1,0,.1.2,0,.4,0,.1-.2.1-.4,0-.1,0-.1-.2,0-.4"/>
    <path class="st3" d="M243.9,18.8c-.2,0-.4-.1-.4-.3,0-.2.1-.4.3-.4.2,0,.4.1.4.3,0,.2-.1.4-.3.4"/>
    <path class="st3" d="M247.3,22.1c.2.1.2.4,0,.5-.1.2-.4.2-.5,0s-.2-.4,0-.5c.1-.2.4-.2.5,0"/>
    <path class="st3" d="M251.4,28.2c.2.1.2.4,0,.5-.1.2-.4.2-.5,0-.2-.1-.2-.4,0-.5.1-.2.4-.2.5,0"/>
    <path class="st3" d="M246.2,26.6c.1,0,.1.2,0,.4,0,.1-.2.1-.4,0-.1,0-.1-.2,0-.4,0-.1.2-.1.4,0"/>
    <path class="st3" d="M245.4,25.8c-.1,0-.1-.2,0-.4,0-.1.2-.1.4,0,.1,0,.1.2,0,.4,0,.1-.2.1-.4,0"/>
    <path class="st3" d="M250.8,32.8c.2,0,.3.3.2.5,0,.2-.3.3-.5.2-.2,0-.3-.3-.2-.5s.3-.3.5-.2"/>
    <path class="st3" d="M246.1,34c-.1,0-.2-.2-.2-.3,0-.1.2-.2.3-.2.1,0,.2.2.2.3,0,.1-.2.2-.3.2"/>
    <path class="st3" d="M244.3,27.5c.1,0,.2.2.2.3,0,.1-.2.2-.3.2s-.2-.2-.2-.3c0-.1.2-.2.3-.2"/>
    <path class="st3" d="M232.4,29.9c0,.1,0,.2-.2.3s-.2,0-.3-.2,0-.2.2-.3.2,0,.3.2"/>
    <path class="st3" d="M241.7,33.2c.1,0,.2.2.2.3s-.2.2-.3.2-.2-.2-.2-.3c0-.1.2-.2.3-.2"/>
    <path class="st3" d="M255,29.7c0,.2-.2.3-.4.3s-.3-.2-.3-.4.2-.3.4-.3.3.2.3.4"/>
    <path class="st3" d="M237.8,33.2c-.2,0-.4-.1-.4-.3,0-.2.1-.4.3-.4.2,0,.4.1.4.3,0,.2-.1.4-.3.4"/>
    <path class="st3" d="M234.6,36.3c-.1.2-.4.2-.5,0-.2-.1-.2-.4,0-.5.1-.2.4-.2.5,0,.2.1.2.3,0,.5"/>
    <path class="st3" d="M239.1,10.2c0,.1,0,.3-.2.3-.1,0-.3,0-.3-.2,0-.1,0-.3.2-.3.1,0,.3,0,.3.2"/>
    <path class="st3" d="M222.8,27.5c0,.1-.2.1-.4,0-.1,0-.1-.2,0-.4,0-.1.2-.1.4,0,.1,0,.1.2,0,.4"/>
    <path class="st3" d="M248.8,27.3c.1,0,.1.2,0,.4,0,.1-.2.1-.4,0-.1,0-.1-.2,0-.4,0-.1.2-.1.4,0"/>
    <path class="st2" d="M252.1,33.9c-1.3.7-2.6,1.3-4,1.8-2.8,1-5.6,1.6-8.5,2-1.5.2-2.9.3-4.4.2-1.5,0-2.9-.2-4.4-.6-1.3-.3-2.5-.8-3.6-1.4,0,0,0,0,0,.2,0,.1-.2.1-.4,0s-.1-.2,0-.4c0,0,0,0,0,0,0,0,0,0,0,0-1.2-.8-2.4-1.7-3.3-2.8,2.2,1.9,4.9,3.1,7.6,3.6,2.8.6,5.6.5,8.4.1,1.4-.2,2.8-.5,4.2-.8,1.4-.3,2.8-.6,4.2-1,1.4-.4,2.7-.8,4-1.4.6-.3,1.3-.6,1.9-1,.6-.4,1.1-.9,1.6-1.4-.8,1.3-2,2.2-3.2,2.9"/>
    <path class="st4" d="M293.4,78.2c.2-.3.5-.7.9-1.3.4-.5.8-1.1,1.3-1.8.5-.7,1-1.3,1.5-2,.5-.7,1-1.4,1.5-2,.5-.6.9-1.2,1.3-1.7.4-.5.7-.9.9-1.2.2-.3.4-.5.4-.5,0,0-.2.1-.5.4-.3.2-.7.6-1.1,1.1-.5.5-1,1-1.5,1.6-.5.6-1,1.3-1.6,2-.5.7-1,1.4-1.4,2.1-.4.7-.8,1.3-1.1,1.9s-.5,1.1-.7,1.4c-.1.3-.2.5-.2.5,0,0,.1-.2.4-.5M301.5,72.7c-.3.3-.7.7-1.1,1.2-.4.5-.8.9-1.1,1.5-.4.5-.7,1.1-1,1.6-.3.5-.5,1-.7,1.4-.2.4-.3.8-.4,1.1,0,.3-.1.4-.1.4,0,0,0-.1.2-.3.1-.2.4-.6.6-.9.2-.4.6-.8.9-1.3.3-.5.7-1,1-1.5.3-.5.7-1,1-1.5.4-.5.6-.9.9-1.3.3-.4.5-.7.7-.9.2-.2.2-.3.2-.3,0,0-.1,0-.3.3-.2.2-.5.4-.9.8M304.4,84.1c.2-.2.6-.5,1-.9.4-.4.9-.8,1.4-1.2.5-.4,1-.9,1.6-1.4.5-.5,1.1-.9,1.6-1.4s1-.8,1.4-1.2c.4-.3.8-.6,1-.8.2-.2.4-.3.4-.3,0,0-.2,0-.5.2-.3.2-.7.3-1.2.6-.5.3-1,.6-1.6,1-.5.4-1.1.9-1.7,1.3-.5.5-1.1,1-1.6,1.5-.5.5-.9,1-1.3,1.4-.4.4-.6.8-.8,1-.2.3-.3.4-.3.4,0,0,.1-.1.4-.3M295,74.4c1.4-2.4,3.1-4.7,5-6.7-1.8,1.6-3.5,3.3-5.1,5.3,1.4-2.2,3.3-4.5,5.5-6.4.8-.7,1.2-.7,1.3-.7.4.2.8,1.6.8,2.9,0,.6.5,1.1,1.1,1.2,0,0,3.5.3,6.2,2.7.4.3.8.8,1.3,1.3-1.2.9-2.2,1.8-3.1,2.9-1.4,1.5-2.6,3.2-3.6,4.9,1.4-1.4,3-2.7,4.6-3.7,1.3-.8,2.6-1.5,4-2,1.1,1.3,2.1,2.7,2.4,3.5,1.3,3.2,2,8,.6,10.8,0,0,0,0,0,.1,0-.2,0-.5,0-.7-.1-.6-.2-1.2-.4-1.8-.1-.6-.3-1.2-.4-1.7-.1-.6-.3-1.1-.5-1.6s-.3-.9-.5-1.4c-.7-1.7-1.3-2.8-1.3-2.8,0,0,0,1.2.3,3,0,.4.1.9.2,1.4,0,.5.1,1.1.2,1.6.1.6.2,1.1.3,1.7s.2,1.2.3,1.7c0,.3.1.6.1.8,0,.1,0,.3,0,.4v.2h0c0,0,0,.2,0,.2,0,.1,0,.2-.1.3-.1.2-.2.4-.3.6-.2.4-.6.6-.6.6,0,0-.1,0-.2,0-.1,0-.2-.2-.3-.3-.1-.2-.2-.4-.3-.7,0-.6-.2-1.2-.3-1.8-.1-.6-.3-1.2-.4-1.8s-.3-1.1-.5-1.6c-.3-1-.6-1.8-.9-2.3-.3-.6-.4-.9-.4-.9,0,0,0,.3,0,.9s.1,1.4.2,2.5c0,.5,0,1.1.1,1.6,0,.6,0,1.2.1,1.8,0,.6.1,1.3.2,2,0,.6,0,1.2,0,1.7,0,.5-.3.9-.5,1.4-.4.4-.8.8-1,.9,0,0,0,0,0,0-.4-.9-.8-3.9-1-5.5-.4-3.6-.6-4.8-1.4-5.4,0,0-.2-.1-.3-.2-.4-.3-1-.8-1.9-.5-.9.3-1.2,1.4-1.5,2.6-.4,1.7.3,3,.8,4.1.4.9.6,1.3.5,1.6-.4.7-.6.8-.6.8,0,0-.3,0-1.2-.9-.9-.8-1.4-2.6-1.9-4.2-.2-.8-.5-1.6-.8-2.3.3-.8.7-1.7,1.1-2.6.5-1.1,1.1-2.2,1.7-3.2-1,.8-2,1.4-2.9,2.2-.4.3-.9.7-1.3,1-.8-1.3-1.5-2.7-1.8-3.3,1.4-3.4,3.2-6.7,5.5-9.7-2.7,2.5-5,5.4-7,8.7-.8,0-1.6,0-2.3,0,.2-.5.5-1.1.7-1.6.6-1.3,1.2-2.5,1.9-3.7"/>
    <path class="st1" d="M305.1,83c.4-.4.8-.9,1.3-1.4.5-.5,1-1,1.6-1.5.6-.5,1.1-.9,1.7-1.3.5-.4,1.1-.7,1.6-1,.5-.3.9-.5,1.2-.6.3-.1.5-.2.5-.2,0,0-.1.1-.4.3s-.6.5-1,.8c-.4.3-.9.8-1.4,1.2-.5.4-1.1.9-1.6,1.4-.6.4-1.1.9-1.6,1.4s-1,.8-1.4,1.2c-.4.4-.8.7-1,.9-.2.2-.4.3-.4.3,0,0,.1-.2.3-.4.2-.2.5-.6.8-1"/>
    <path class="st1" d="M302.7,71.6s0,.1-.2.4c-.2.2-.4.5-.7.9-.3.4-.6.8-.9,1.3-.4.5-.7,1-1,1.5-.4.5-.7,1-1,1.5-.3.5-.6.9-.9,1.3-.3.4-.5.7-.6.9-.2.2-.2.3-.2.3,0,0,0-.2.1-.4.1-.3.2-.6.4-1.1.2-.4.4-.9.7-1.4.3-.5.6-1,1-1.6.4-.5.8-1,1.1-1.5.4-.5.8-.8,1.1-1.2.3-.3.6-.6.9-.8.2-.2.3-.3.3-.3"/>
    <path class="st1" d="M294,76.7c.3-.6.7-1.2,1.1-1.9s.9-1.4,1.4-2.1c.5-.7,1.1-1.3,1.6-2,.5-.6,1-1.2,1.5-1.6.4-.5.9-.8,1.1-1.1.3-.2.5-.4.5-.4,0,0-.1.2-.4.5-.2.3-.5.7-.9,1.2-.4.5-.8,1.1-1.3,1.7-.5.6-1,1.3-1.5,2-.5.7-1,1.4-1.5,2-.5.7-.9,1.2-1.3,1.8-.4.5-.7.9-.9,1.3-.2.3-.4.5-.4.5,0,0,0-.2.2-.5.2-.3.4-.8.7-1.4"/>
    <path class="st4" d="M260.4,106.2c0,.7.2,1.2.3,1.6,0,.4.1.6.1.6v-.6c0-.4,0-1,0-1.7,0-.7,0-1.5,0-2.3,0-.8,0-1.8,0-2.7,0-.9,0-1.8,0-2.7,0-.8,0-1.6,0-2.3,0-.7,0-1.2,0-1.7,0-.4,0-.6,0-.6,0,0,0,.2-.1.6,0,.4-.2.9-.3,1.6s-.2,1.5-.3,2.3c0,.9-.1,1.8-.1,2.7,0,.9,0,1.8,0,2.7,0,.9.2,1.7.2,2.3M264.7,103.6c0,.6.2,1.2.3,1.7,0,.5.2.9.3,1.2,0,.3.1.4.1.4,0,0,0-.2,0-.5s0-.7,0-1.2c0-.5,0-1.1,0-1.7,0-.6,0-1.3,0-1.9,0-.7,0-1.3,0-1.9,0-.6,0-1.2,0-1.7,0-.5,0-.9,0-1.2v-.5s0,.2-.1.4c0,.3-.2.7-.3,1.2,0,.5-.2,1.1-.2,1.7,0,.6,0,1.3,0,2,0,.7,0,1.3.1,2M275.6,106.1c0-.3.2-.8.3-1.4.1-.6.3-1.2.5-1.9.2-.7.4-1.5.6-2.2.2-.8.4-1.5.6-2.2.2-.7.4-1.3.6-1.9.2-.6.3-1,.4-1.3s.2-.5.2-.5c0,0-.1.2-.3.5-.2.3-.4.7-.7,1.3-.2.5-.5,1.2-.8,1.9-.2.7-.5,1.4-.7,2.2-.2.8-.4,1.5-.5,2.2s-.2,1.4-.3,2c0,.6,0,1.1,0,1.4v.5s0-.2.1-.5M211.1,98.5c-.2-.4-.3-.6-.3-.6,0,0,.1.2.3.6.2.4.5.9.9,1.6.8,1.3,2.2,3,4.2,4.8,1.9,1.8,4.5,3.5,7.5,4.8,1.5.7,3.1,1.1,4.8,1.4,1.7.3,3.4.5,5.2.7,3.5.3,7,.3,10.3,0,3.3-.3,6.3-.8,8.9-1.2,2.6-.4,4.8-.7,6.3-.9.5,0,1-.1,1.3-.2-.1-.5-.2-1-.3-1.4-.3-1.4-.5-2.9-.7-4.4-.3-3-.2-6,.2-9-.8,2.9-1.2,6-1.2,9v1.3c-.4-3.3-.5-7.5.7-11.6.2-.9.6-1.4.9-1.5.8-.2,2.3,1.1,3.1,2.1.4.4,1,.6,1.5.3,0,0,5.2-2.7,9.1-1.6.4.1,1,.2,1.5.4-.5,1.5-.9,3-1.1,4.4-.3,2.2-.4,4.4-.2,6.6.4-2.1,1-4.2,1.8-6.1.7-1.5,1.5-3,2.5-4.2,1.8.4,3.8.9,4.7,1.4,3.8,2.1,8.1,5.9,8.6,9.1,0,.2,0,.4,0,.6-.1,0-.2-.2-.3-.3-.3-.2-.5-.5-.8-.7-.5-.5-1.1-.9-1.6-1.3s-1.1-.8-1.6-1.2c-.5-.4-1-.7-1.5-1-.5-.3-1-.6-1.4-.9-1.8-1-3.1-1.5-3.1-1.5,0,0,1,1,2.4,2.4.4.4.8.7,1.2,1.1.4.4.9.8,1.4,1.2.5.4,1,.9,1.5,1.3.5.4,1,.9,1.5,1.3.2.2.5.4.7.7.1.1.2.2.3.3l.2.3v.2c.1.1.1.2.2.4,0,.2,0,.5,0,.8,0,.5-.2.8-.3.9-.1.1-.6.1-1,0-.4-.2-.8-.4-1.1-.7-.1,0-.3-.2-.4-.2-.5-.4-1-.8-1.5-1.2-.6-.5-1.3-1-1.9-1.4-1.2-.9-2.2-1.5-3-1.9-.8-.4-1.2-.6-1.2-.6,0,0,.4.3,1,.9.6.6,1.5,1.4,2.5,2.5.5.5,1,1.1,1.6,1.7s1.2,1.2,1.8,1.9c.6.6,1.2,1.2,1.5,1.9.3.6.4,1.3.3,1.8,0,.3-.1.6-.2.8,0,0,0,0,0,0,0,0-.3,0-.6,0-.1,0-.4-.1-.4-.2,0,0-.1,0-.2-.1,0,0-.1,0-.2-.2-.3-.3-.6-.6-1-.9-1.3-1.3-2.6-2.5-3.9-3.2-1.3-.8-2.5-1.1-3.4-1.2-.4,0-.8,0-1,0h-.4s.1,0,.3,0c.2,0,.5.1.9.3.8.3,1.8.9,2.8,1.8,1.1.9,2.1,2.1,3.3,3.5.3.3.5.6.8.9-.3,0-.8.1-1.5.2-2,.2-3.3-.8-5.1-2.1-1.4-1.1-2.9-2.2-4.9-2.8l-2.1-1.1c-.5-1.4-.9-2.9-1.2-4.4-.5,1.6-.9,3.3-1.2,5-.1,0-.3,0-.4,0-1.6-.2-3.4-.9-4.4-1.4-1-3.8-1.5-7.8-1.3-11.8-.8,3.9-1,7.9-.6,11.9-.9.6-1.8,1.1-2.6,1.6,0-.2-.1-.3-.1-.5-.4,0-.8.1-1.3.2-1.5.2-3.7.6-6.3,1.1-2.6.5-5.6,1.1-8.9,1.4-3.3.3-6.9.3-10.4,0-1.8-.1-3.5-.4-5.2-.7-1.7-.3-3.4-.8-4.9-1.5-3.1-1.3-5.6-3.2-7.5-5-1.9-1.8-3.3-3.6-4.1-4.9-.4-.7-.7-1.2-.8-1.6"/>
    <path class="st1" d="M275.6,104.6c0-.6.1-1.3.3-2,.1-.7.3-1.5.5-2.2.2-.8.5-1.5.7-2.2.2-.7.5-1.3.8-1.9s.5-1,.7-1.3c.2-.3.3-.5.3-.5,0,0,0,.2-.2.5-.1.3-.2.8-.4,1.3-.2.6-.4,1.2-.6,1.9s-.4,1.4-.6,2.2c-.2.7-.4,1.5-.6,2.2-.2.7-.4,1.4-.5,1.9-.1.6-.3,1-.3,1.4,0,.3-.1.5-.1.5v-.5c0-.3,0-.8,0-1.4"/>
    <path class="st1" d="M264.7,99.7c0-.6.1-1.2.2-1.7,0-.5.2-.9.3-1.2,0-.3.1-.4.1-.4v.5c0,.3,0,.7,0,1.2,0,.5,0,1.1,0,1.7,0,.6,0,1.3,0,1.9,0,.7,0,1.3,0,1.9,0,.6,0,1.2,0,1.7,0,.5,0,.9,0,1.2,0,.3,0,.5,0,.5,0,0,0-.2-.1-.4,0-.3-.2-.7-.3-1.2-.1-.5-.2-1.1-.3-1.7,0-.6-.1-1.3-.1-2,0-.7,0-1.3,0-2"/>
    <path class="st1" d="M260.1,101.2c0-.9,0-1.8.1-2.7,0-.9.2-1.7.3-2.3.1-.7.2-1.2.3-1.6.1-.4.1-.6.1-.6,0,0,0,.2,0,.6,0,.4,0,1,0,1.7,0,.7,0,1.5,0,2.3,0,.8,0,1.8,0,2.7,0,.9,0,1.8,0,2.7,0,.8,0,1.6,0,2.3,0,.7,0,1.2,0,1.7v.6s0-.2-.1-.6c0-.4-.2-.9-.3-1.6,0-.7-.2-1.5-.2-2.3,0-.9,0-1.8,0-2.7"/>
    <path class="st4" d="M215.5,85.1c.4,0,.9,0,1.5-.2.6,0,1.4-.1,2.1-.2.8,0,1.6-.1,2.4-.2.8,0,1.7,0,2.4,0,.8,0,1.5,0,2.1,0,.6,0,1.1,0,1.5,0,.4,0,.6,0,.6,0,0,0-.2,0-.6-.1-.4,0-.9-.2-1.5-.2-.6,0-1.4-.2-2.1-.2s-1.6,0-2.5,0c-.8,0-1.7.1-2.5.2-.8,0-1.5.2-2.1.4-.6.1-1.1.3-1.5.4-.4.1-.6.2-.6.2,0,0,.2,0,.6,0M228.5,72.9c.6.5,1.1.9,1.4,1.2.4.3.6.5.6.5,0,0-.1-.2-.4-.6-.3-.4-.6-.9-1.1-1.5-.5-.6-1.2-1.3-1.9-2-.8-.7-1.6-1.3-2.4-1.9-.9-.6-1.8-1.1-2.7-1.5-.9-.4-1.8-.8-2.5-1-.8-.2-1.4-.4-1.9-.5-.5,0-.7-.1-.7-.1,0,0,.2.1.6.3.4.2,1,.5,1.7.9.7.3,1.5.8,2.3,1.3.8.5,1.7,1,2.5,1.6.9.6,1.7,1.2,2.4,1.8.8.6,1.5,1.1,2.1,1.7M226.5,63.4c.5.5,1.1,1,1.5,1.5.4.4.8.8,1,1.1.2.3.4.4.4.4,0,0-.1-.2-.3-.5-.2-.3-.4-.8-.8-1.2-.4-.5-.8-1.1-1.4-1.6s-1.1-1.1-1.8-1.7c-.6-.5-1.3-1-2-1.4-.7-.4-1.3-.8-1.9-1-.6-.3-1.1-.4-1.4-.6-.3-.1-.5-.2-.5-.2,0,0,.2,0,.5.3.3.2.8.4,1.3.8.5.3,1.1.7,1.8,1.1.6.4,1.3.9,1.9,1.4.6.5,1.2,1.1,1.8,1.6M209,94.1c.3-.6.7-1.5,1.4-2.5.7-.9,1.6-2,2.7-3,.3-.2.6-.5.9-.8-.8-2.6-1.6-5.4-2.4-8.6-.4-1.4-.6-2.9-.7-4.4.3-.2.6-.4,1-.6.7-.4,1.4-.7,2.1-1,.7-.3,1.3-.5,1.9-.6.3,0,.6-.1.8-.2.2,0,.4,0,.6,0,.4,0,.6,0,.6,0,0,0-.2,0-.6-.1-.2,0-.4,0-.6,0-.2,0-.5,0-.9,0-.6,0-1.4.1-2.1.3-.4.1-.8.3-1.2.4-.4.2-.8.5-1.2.8-.6.4-1.1.8-1.6,1.2-.5.4-.9.8-1.3,1.1-.4.3-.7.6-.9.8s-.3.3-.3.3c0,0,0-.1.2-.4.2-.2.4-.6.7-1,.3-.4.7-.8,1.2-1.3.4-.4.9-.8,1.4-1.2,0-.8,0-1.6,0-2.4.8-.5,1.7-.9,2.7-1.2,1.7-.5,3.5-.8,5.3-.1-1.6-1-3.6-1.3-5.6-1.2-.5,0-1,0-1.5.2-.7.2-1.4.5-2,.8-.7.4-1.4.8-1.9,1.2-.3.2-.5.4-.7.5-.2.2-.4.3-.6.4-.3.2-.5.4-.5.4,0,0,.1-.2.4-.5s.3-.3.5-.5c.2-.2.4-.4.7-.6.5-.4,1.2-.9,1.9-1.3.5-.3,1.1-.5,1.6-.8.7-4.1,2.3-7.7,5-9.8-.7,0-1.4,0-2.1.2-.8.2-1.5.3-2.2.6-1.4.5-2.6,1.2-3.6,2-1,.7-1.7,1.5-2.2,2-.2.3-.4.5-.5.7-.1.2-.2.2-.2.2,0,0,0,0,.1-.3,0-.2.2-.5.4-.8.3-.7.9-1.6,1.8-2.6.9-1,2.2-1.9,3.7-2.6.8-.3,1.6-.6,2.4-.8.2,0,.4,0,.6,0,2.8.5,5.2.8,7.4.9.7.3,1.3.6,1.9,1,.5.3.9.6,1.3,1,5,3.5,7.7,9.8,8.9,13.6-2.1-1.9-4.5-3.4-7-4.4,3.6,2.3,6.4,5.8,7.8,9.5,0,2,0,4.3,0,6.3-.4-.6-.9-1.1-1.4-1.5-.8-.6-1.7-1-2.5-1.3-.8-.2-1.5-.3-1.9-.3-.2,0-.4,0-.5,0-.1,0-.2,0-.2,0,0,0,0,0,.2,0,.1,0,.3,0,.5.1.4.1,1.1.3,1.7.7.7.3,1.4.8,2.1,1.4.7.6,1.3,1.4,1.8,2.2.1.2.3.5.4.8,0,.2,0,.3,0,.5-2.2.3-4.3.9-6.2,1.9,2.5-.3,5,0,7.2.7.3.3.7.3,1.2.3,0,0,0,0,0,0,.1,0,.2,0,.3,0,.3,0,.6,0,.9,0,0,0,0,0,0,0,.2,0,.4,0,.5,0,1.4.2,1.8,1.1,3.6,1.4-2.7,2.8-4.6,6.5-5.2,10.6,0,0,0,.2,0,.3,0,.9-.1,1.8-.1,2.7,0,.9,0,1.7,0,2.4,0,.7,0,1.3,0,1.7,0,.4,0,.6,0,.6,0,0,0-.2-.1-.6,0-.4-.2-1-.3-1.7,0-.7-.2-1.5-.2-2.4,0-.6,0-1.3,0-1.9-4-.1-8.4-.4-11.8-1.4,0,0,0-.1,0-.2.2-.6.4-1.1.7-1.6s.5-1,.7-1.4c.2-.4.4-.7.5-.9.1-.2.2-.4.2-.4l-.3.3c-.2.2-.4.5-.7.8-.3.4-.6.8-.9,1.3-.3.5-.5,1.1-.8,1.6,0,0,0,.2,0,.2-.3,0-.6-.2-.9-.3.4-1.3,1.1-2.5,1.9-3.6,1.8-2.4,4.4-4.2,7.5-5-3.1.4-6.2,1.8-8.5,4.1-.8.8-1.5,1.7-2.1,2.6,0,0,0,.1,0,.2-.4.8-.7,1.7-.9,2.5s-.5,1.6-.4,2.3c0,.7,0,1.3.1,1.7,0,.4,0,.6,0,.6,0,0,0-.2-.2-.6-.1-.4-.3-1-.3-1.7,0-.7,0-1.6.3-2.4.2-.5.3-1.1.5-1.6-.5-.3-1-.7-1.3-1.1-1.5-1.7-2.8-3.9-4-6.7.4-.3.8-.6,1.2-.9.6-.5,1.3-1,1.9-1.4.6-.4,1.2-.8,1.7-1.1.5-.3.9-.6,1.3-.8.3-.2.5-.3.5-.3,0,0-.2,0-.6.1-.4,0-.9.2-1.4.4-.6.2-1.2.5-2,.9-.4.2-.9.5-1.3.8-.2.2-.4.3-.6.5-.5.4-1,.8-1.4,1.3-.4.4-.8.8-1.1,1.2-.3.4-.6.7-.8.9-.2.2-.3.3-.3.3,0,0,0-.2.2-.4.1-.2.3-.6.6-1s.6-.9,1-1.3c.1-.2.3-.3.4-.4-.2-.4-.3-.8-.5-1.3.2-.2.4-.3.6-.4.8-.5,1.6-.9,2.5-1.3.9-.4,1.8-.8,2.8-1.1,3.8-1.3,7.8-1.9,11.8-1.8-4-.6-8.1-.4-12.2.5-1,.2-2,.5-3,.8-1,.3-2,.7-3,1.2-.1,0-.2.1-.3.2h0c-.3.2-.5.4-.8.6-1.1.9-2.1,1.9-2.8,2.8s-1.2,1.7-1.5,2.3c-.2.3-.3.5-.4.7,0,.2-.1.2-.1.2,0,0,0,0,.1-.3,0-.2.1-.4.3-.7"/>
    <path class="st0" d="M263,76.8h0c-.8.6-1.2,1.8-1,3.2.2,1.4.9,2.5,1.8,2.9h0c-1,.1-1.9-1.2-2.1-2.9s.5-3.2,1.4-3.3"/>
    <path class="st3" d="M264.1,80.3c0,.2.1.4.2.6,0,.2.1.3.2.4,0,0,0,.2,0,.2,0,0,0,0,0-.2,0-.1,0-.3,0-.4,0-.2,0-.4,0-.6s0-.5,0-.7c0-.2,0-.5-.1-.7s-.1-.4-.2-.6c0-.2-.1-.3-.2-.4,0,0,0-.2,0-.2,0,0,0,0,0,.2,0,.1,0,.3,0,.4,0,.2,0,.4,0,.6s0,.5,0,.7c0,.2,0,.5.1.7M263.9,77.4c.7,0,1.5.9,1.6,2.3.1,1.3-.4,2.5-1.1,2.6-.7,0-1.5-.9-1.6-2.2-.1-1.3.4-2.5,1.1-2.6"/>
    <path class="st1" d="M263.7,83h0c-.9-.4-1.6-1.5-1.8-2.9s.3-2.6,1-3.2h0c-1,.1-1.6,1.6-1.4,3.3.2,1.7,1.2,3,2.1,2.9M264.5,82.2c.7,0,1.2-1.3,1.1-2.6s-.9-2.3-1.6-2.3c-.7,0-1.2,1.3-1.1,2.6s.9,2.3,1.6,2.2M262.9,75.9c.6,0,1.3.2,1.8.7.9.4,1.6,1.5,1.8,2.9.2,1.4-.3,2.7-1.1,3.2-.4.6-.9,1-1.6,1.1-1.5.2-2.9-1.4-3.1-3.6-.2-2.2.7-4.1,2.2-4.3"/>
    <path class="st0" d="M254.9,78.9h0c-.8.6-1.2,1.8-1,3.2.2,1.4.9,2.5,1.8,2.9h0c-1,.1-1.9-1.2-2.1-2.9s.5-3.2,1.4-3.3"/>
    <path class="st3" d="M256,82.6c0,.2.1.4.2.6,0,.2.1.3.2.4,0,0,0,.2,0,.2,0,0,0,0,0-.2,0,0,0-.2,0-.4s0-.4,0-.6,0-.4,0-.7c0-.2,0-.4-.1-.7,0-.2-.1-.4-.2-.6,0-.2-.1-.3-.2-.4,0,0,0-.2,0-.2,0,0,0,0,0,.2,0,0,0,.2,0,.4s0,.4,0,.6,0,.4,0,.7c0,.2,0,.4.1.7M255.9,79.5c.7,0,1.5.9,1.6,2.3.1,1.3-.4,2.5-1.1,2.6-.7,0-1.5-.9-1.6-2.2-.1-1.3.4-2.5,1.1-2.6"/>
    <path class="st1" d="M255.6,85.1h0c-.9-.4-1.6-1.5-1.8-2.9-.2-1.4.3-2.6,1-3.2h0c-1,.1-1.6,1.6-1.4,3.3.2,1.7,1.2,3,2.1,2.9M256.4,84.3c.7,0,1.2-1.3,1.1-2.6s-.9-2.3-1.6-2.3c-.7,0-1.2,1.3-1.1,2.6.1,1.3.9,2.3,1.6,2.2M254.8,78.1c.6,0,1.3.2,1.8.7.9.4,1.6,1.5,1.8,2.9.2,1.4-.3,2.7-1.1,3.2-.4.6-.9,1-1.6,1.1-1.5.2-2.9-1.4-3.1-3.6-.3-2.2.7-4.1,2.2-4.3"/>
    <path class="st0" d="M246.8,81.1h0c-.8.6-1.2,1.8-1,3.2.2,1.4.9,2.5,1.8,2.9h0c-1,.1-1.9-1.2-2.1-2.9s.5-3.2,1.4-3.3"/>
    <path class="st3" d="M248,84.8c0,.2.1.4.2.6,0,.2.1.3.2.4,0,0,0,.2,0,.2,0,0,0,0,0-.2,0-.1,0-.3,0-.4,0-.2,0-.4,0-.6,0-.2,0-.5,0-.7,0-.2-.1-.5-.1-.7,0-.2-.1-.4-.2-.6,0-.2-.1-.3-.2-.4,0,0,0-.2,0-.2,0,0,0,0,0,.2,0,.1,0,.3,0,.4,0,.2,0,.4,0,.6,0,.2,0,.5,0,.7,0,.2.1.5.1.7M247.8,81.6c.7,0,1.5.9,1.6,2.2.1,1.3-.4,2.5-1.1,2.6-.7,0-1.5-.9-1.6-2.3-.1-1.3.4-2.5,1.1-2.6"/>
    <path class="st1" d="M247.5,87.2h0c-.9-.4-1.6-1.5-1.8-2.9-.2-1.4.3-2.6,1-3.2h0c-1,.1-1.6,1.6-1.4,3.3.2,1.7,1.2,3,2.1,2.9M248.3,86.4c.7,0,1.2-1.3,1.1-2.6-.1-1.3-.9-2.3-1.6-2.2-.7,0-1.2,1.3-1.1,2.6.1,1.3.9,2.3,1.6,2.3M246.7,80.2c.6,0,1.3.2,1.8.7.9.4,1.6,1.5,1.8,2.9s-.3,2.7-1.1,3.2c-.4.6-.9,1-1.6,1.1-1.5.2-2.9-1.4-3.1-3.6-.2-2.2.7-4.1,2.2-4.3"/>
    <path class="st1" d="M224,69.4c-.8-.6-1.7-1.1-2.5-1.6-.8-.5-1.6-.9-2.3-1.3-.7-.4-1.3-.7-1.7-.9-.4-.2-.6-.3-.6-.3,0,0,.3,0,.7.1.4,0,1.1.2,1.9.5.8.2,1.6.6,2.5,1,.9.4,1.8,1,2.7,1.5.9.6,1.7,1.3,2.4,1.9.7.7,1.4,1.4,1.9,2,.5.6.9,1.2,1.1,1.5.2.4.4.6.4.6,0,0-.2-.2-.6-.5-.3-.3-.8-.8-1.4-1.2-.6-.5-1.3-1.1-2.1-1.7-.8-.6-1.6-1.2-2.4-1.8"/>
    <path class="st1" d="M266.3,50.8c-.2-.6-.6-1.2-.9-1.9-.4-.7-.8-1.4-1.2-2-.4-.7-.9-1.4-1.3-2-.5-.6-.9-1.2-1.3-1.6-.4-.5-.7-.9-1-1.1-.2-.3-.4-.4-.4-.4,0,0,.2.1.4.3.3.2.7.5,1.1,1,.4.4.9,1,1.4,1.5.5.6,1,1.3,1.4,2,.4.7.8,1.4,1.1,2.1.3.7.6,1.4.8,2,.2.6.3,1.1.4,1.4,0,.3.1.5.1.5,0,0,0-.2-.2-.5-.1-.3-.3-.8-.6-1.3"/>
    <path class="st1" d="M257.4,71.4c0-.2-.2-.6-.3-1-.1-.4-.3-.9-.4-1.4s-.3-1.1-.4-1.7c-.1-.6-.2-1.2-.3-1.7-.1-.5-.2-1.1-.2-1.5,0-.4-.1-.8-.1-1.1,0-.3,0-.4,0-.4,0,0,0,.1.1.4,0,.2.2.6.3,1,.1.4.3.9.4,1.4s.3,1.1.4,1.7c.1.6.2,1.2.3,1.7.1.5.2,1.1.2,1.5,0,.4.1.8.1,1.1,0,.3,0,.4,0,.4,0,0,0-.1-.1-.4"/>
    <path class="st1" d="M222.8,60.4c-.6-.4-1.2-.8-1.8-1.1-.5-.3-1-.6-1.3-.8-.3-.2-.5-.3-.5-.3,0,0,.2,0,.5.2.3.1.8.3,1.4.6.6.3,1.2.6,1.9,1,.6.4,1.3.9,2,1.4.6.5,1.2,1.1,1.8,1.7.5.6,1,1.1,1.4,1.6.4.5.6.9.8,1.2.2.3.3.5.3.5,0,0-.1-.2-.4-.4-.2-.3-.6-.7-1-1.1-.4-.5-.9-.9-1.5-1.5-.6-.5-1.1-1.1-1.8-1.6-.6-.5-1.3-1-1.9-1.4"/>
    <path class="st1" d="M217,84.6c.6-.1,1.3-.3,2.1-.4.8,0,1.6-.2,2.5-.2.8,0,1.7,0,2.5,0,.8,0,1.5.1,2.1.2.6,0,1.1.2,1.5.2.4,0,.6.1.6.1,0,0-.2,0-.6,0s-.9,0-1.5,0c-.6,0-1.4,0-2.1,0-.8,0-1.6,0-2.4,0-.8,0-1.7,0-2.4.2-.8,0-1.5.1-2.1.2-.6,0-1.1.1-1.5.2-.4,0-.6,0-.6,0,0,0,.2,0,.6-.2.4,0,.9-.2,1.5-.4"/>
    <path class="st1" d="M228.3,11.4c-.5.3-1.1.7-1.8,1.1-.6.4-1.3.9-1.9,1.4-.6.5-1.3,1-1.9,1.5-.6.5-1.1,1-1.5,1.4-.4.4-.8.8-1.1,1-.2.2-.4.4-.4.4,0,0,.1-.2.3-.5.2-.3.5-.7.9-1.2.4-.5.9-1,1.4-1.5.6-.5,1.2-1.1,1.8-1.6.7-.5,1.4-.9,2-1.4.7-.4,1.3-.7,1.9-1,.6-.3,1-.4,1.4-.6.3-.1.5-.2.5-.2,0,0-.2.1-.5.3-.3.2-.8.4-1.3.8"/>
    <path class="st1" d="M218.6,12.3c-.2.1-.3.4-.6.5-.2.2-.4.4-.6.6-.2.2-.4.4-.6.6s-.4.4-.6.5c-.2.1-.3.3-.4.4-.1,0-.2.1-.2.1,0,0,0,0,0-.2,0-.1.1-.3.3-.5s.3-.4.5-.6c.2-.2.4-.4.6-.7.2-.2.5-.4.7-.6.2-.2.5-.3.7-.4.2-.1.4-.2.5-.2.1,0,.2,0,.2,0,0,0,0,0-.1.2-.1,0-.2.2-.4.4"/>
    <path class="st1" d="M263.9,78.3c0-.2,0-.3,0-.4,0-.1,0-.2,0-.2,0,0,0,0,0,.2,0,0,.1.2.2.4,0,.2.1.4.2.6,0,.2,0,.4.1.7,0,.2,0,.5,0,.7,0,.2,0,.4,0,.6s0,.3,0,.4c0,.1,0,.2,0,.2,0,0,0,0,0-.2,0,0-.1-.2-.2-.4,0-.2-.1-.4-.2-.6,0-.2,0-.4-.1-.7,0-.2,0-.5,0-.7s0-.4,0-.6"/>
    <path class="st1" d="M255.8,80.6c0-.2,0-.3,0-.4,0,0,0-.2,0-.2,0,0,0,0,0,.2,0,0,.1.2.2.4,0,.2.1.3.2.6s0,.4.1.7c0,.2,0,.4,0,.7,0,.2,0,.4,0,.6s0,.3,0,.4c0,0,0,.2,0,.2,0,0,0,0,0-.2,0,0-.1-.2-.2-.4,0-.2-.1-.3-.2-.6s0-.4-.1-.7c0-.2,0-.4,0-.7,0-.2,0-.4,0-.6"/>
    <path class="st1" d="M247.7,82.8c0-.2,0-.3,0-.4,0-.1,0-.2,0-.2v.2c.1,0,.2.2.2.4,0,.2.1.4.2.6,0,.2.1.5.1.7,0,.2,0,.5,0,.7,0,.2,0,.4,0,.6,0,.2,0,.3,0,.4,0,.1,0,.2,0,.2,0,0,0,0,0-.2,0,0-.1-.2-.2-.4,0-.2-.1-.4-.2-.6,0-.2-.1-.5-.1-.7,0-.2,0-.5,0-.7,0-.2,0-.4,0-.6"/>
    <path class="st0" d="M239.7,71.2c-.1-.3-.2-.5-.3-.8-.3-1-.3-1.9-.1-2.7.2-.7.6-1.2,1.1-1.3,0,0,.1,0,.2,0h.2c0,0,0,.2,0,.2-.2.2-.5.6-.6.7,0,0-.1.1-.2.2,0,0-.9,1.6-.4,3.4,0,.1,0,.3.1.4"/>
    <path class="st2" d="M214.2,45.7c-2.2.7-3.6,1.7-4.3,2.4v-.2c0-.4.4-.8.7-.9.3-.2.4-.3.4-.3,0,0-.2,0-.5,0-.3.1-.9.3-1.2,1-.1.3-.1.8.1,1.2.2.4.5.7.9.9.4.2.7.3,1.1.5,0,0,0,0,.1,0,.8.3,1.8.6,3.2.9,4.3.9,7.7,1,10.7,1,4.7.1,8.8.3,13.5,3.3,5.2,3.3,8.3,8.6,7.4,12.6-.4,1.9-1.7,3.2-3.5,3.7-.3,0-.6,0-.8-.2-.4-.3-.6-.8-.7-1.3-.2-1,.1-1.9.3-2.1.4-.4.8-1,.9-1.1.3-.8.2-1.9-.4-3.1.3.4.5.8.7,1.2.4,1.1.3,2.1,0,2.7-.1.3-.3.6-.4.7-.1.2-.2.2-.2.2,0,0,0,0,.2-.2.1-.1.4-.3.6-.6.4-.6.7-1.7.3-3-.4-1.3-1.3-2.5-2.3-3.6-1.1-1.1-2.3-2.3-3.6-3.3-.7-.5-1.4-.9-2.1-1.3-.7-.4-1.5-.7-2.3-.9-1.5-.4-3-.5-4.2-.5-1.2,0-2.2,0-3,.2-.7,0-1.1.2-1.1.2,0,0,.4,0,1.1,0,.7,0,1.7,0,2.9.2.9,0,2,.3,3.1.5-2-.4-4-.5-6.4-.6-3.2,0-6.7-.2-11.3-1.1-1.1-.2-2-.5-2.9-.8.5.1,1,.2,1.5.4,1.5.3,3,.5,4.2.7,1.2,0,2.3.1,3,.1.7,0,1.1,0,1.1,0,0,0-.4,0-1.1-.2-.7-.1-1.7-.3-2.9-.5-1.2-.2-2.6-.5-4.1-1-1.5-.4-3.1-.8-4.4-1.6-.6-.4-1.2-.9-1.6-1.5-.4-.6-.6-1.3-.5-2,0-.7.3-1.2.8-1.7s1-.8,1.5-1c1.1-.5,2.1-.9,2.7-1.2.7-.3,1.1-.4,1.1-.4,0,0-.4,0-1.1.2-.7.2-1.7.4-2.9.8-.2,0-.4.2-.6.2,1.2-.7,3.1-1.4,5.6-2l.8,2.2h0Z"/>
    <path class="st1" d="M246.3,120.2c-1.5-.3-2.8-.7-3.6-.9-.9-.3-1.3-.5-1.3-.5,0,0,.5.1,1.4.3.9.2,2.1.4,3.6.5,1.5.2,3.3.3,5.2.2,1.9,0,3.9-.2,5.9-.6,2-.3,3.9-.8,5.8-1.4,1.9-.5,3.6-.9,5.1-1.2,1.5-.2,2.8-.3,3.7-.3.5,0,.8,0,1,0,.2,0,.4,0,.4,0,0,0-.1,0-.4,0s-.6,0-1,.1c-.9,0-2.1.3-3.6.7-1.5.4-3.2.9-5,1.5-1.8.6-3.8,1.2-5.9,1.5-2.1.3-4.1.5-6.1.5-1.9,0-3.8-.3-5.3-.5"/>
    <path class="st4" d="M241.9,120c.3.1.6.3,1.1.5.5.2,1,.4,1.6.6s1.3.4,1.9.6c.7.1,1.3.3,2,.4.6,0,1.2.1,1.7.2.5,0,.9,0,1.2,0,.3,0,.5,0,.5,0,0,0-.2,0-.5,0-.3,0-.7-.1-1.2-.2-.5,0-1.1-.2-1.7-.3-.6-.1-1.3-.3-1.9-.4-.7-.2-1.3-.3-1.9-.5-.6-.2-1.2-.3-1.7-.5-.5-.1-.9-.2-1.2-.3-.3,0-.4-.1-.4-.1,0,0,.1,0,.4.2M257.7,120.3c2-.4,4-1,5.9-1.5,1.8-.6,3.5-1.2,5-1.5,1.5-.4,2.7-.6,3.6-.7.4,0,.8,0,1-.1.2,0,.4,0,.4,0,0,0-.1,0-.4,0-.2,0-.6,0-1,0-.9,0-2.2,0-3.7.3-1.5.3-3.3.7-5.1,1.2-1.8.5-3.8,1.1-5.8,1.4-2,.4-4,.6-5.9.6-1.9,0-3.7,0-5.2-.2-1.5-.1-2.8-.3-3.6-.5-.9-.2-1.4-.3-1.4-.3,0,0,.5.2,1.3.5.9.3,2.1.6,3.6.9,1.5.3,3.3.5,5.3.5,1.9,0,4-.1,6.1-.5M259.6,160.3c-.6.4-1.2.8-1.9,1.2-.6.4-1.3.7-2,1-.6.3-1.2.6-1.8.8-.5.2-1,.4-1.3.5-.3.1-.5.2-.5.2,0,0,.2,0,.5,0s.8-.1,1.4-.3c.6-.1,1.2-.3,1.9-.6.7-.3,1.4-.6,2.1-1,.7-.4,1.3-.8,1.9-1.3.6-.4,1.1-.9,1.5-1.3.4-.4.7-.8.9-1,.2-.3.3-.4.3-.4,0,0-.1.1-.4.3-.2.2-.6.5-1.1.9-.4.4-1,.8-1.5,1.2M251.3,181.5c-.6,0-1.3,0-1.8,0-.5,0-1,0-1.3,0-.3,0-.5,0-.5,0,0,0,.2,0,.5.1.3,0,.7.2,1.3.3.5,0,1.1.2,1.8.2.7,0,1.4,0,2.1,0,.7,0,1.4-.1,2.1-.2s1.3-.2,1.8-.4c.5-.1.9-.3,1.2-.4.3-.1.5-.2.5-.2,0,0-.2,0-.5,0-.3,0-.7,0-1.3.2-.5,0-1.1.1-1.8.2-.6,0-1.3.1-2,.1-.7,0-1.4,0-2,0M274.8,132.8c-.6.5-1.2,1-1.6,1.4-.5.4-.8.8-1.1,1.1-.2.3-.4.4-.4.4,0,0,.2-.1.5-.4.3-.2.7-.6,1.2-.9.5-.4,1.1-.8,1.7-1.3.6-.4,1.3-.9,2-1.3.7-.4,1.4-.8,2.1-1.2.7-.3,1.4-.7,1.9-.9.6-.2,1-.5,1.4-.6.3-.1.5-.2.5-.2,0,0-.2,0-.6.1-.4,0-.9.2-1.5.4-.6.2-1.3.4-2,.8-.7.3-1.5.7-2.2,1.1-.7.4-1.4.9-2,1.4M279.9,148.2c.3-.1.8-.2,1.3-.5.5-.2,1.1-.6,1.7-1,.6-.4,1.2-.9,1.7-1.4.5-.6,1-1.1,1.5-1.7.4-.6.7-1.2,1-1.7.3-.5.4-1,.5-1.3.1-.3.1-.5.1-.5,0,0,0,.2-.2.4-.1.3-.4.7-.7,1.2-.3.5-.7,1-1.1,1.5-.4.5-.9,1.1-1.5,1.6-.5.5-1.1,1-1.6,1.4-.6.4-1.1.8-1.6,1.1-.5.3-.9.5-1.2.7-.3.2-.5.2-.5.2,0,0,.2,0,.5-.1M287.4,161.3c-.2,0-.5.2-.9.3-.4.1-.8.2-1.2.4-.5.1-.9.3-1.4.4-.5.1-1,.2-1.4.3-.5,0-.9.2-1.3.2-.4,0-.7.1-.9.2-.2,0-.4,0-.4,0,0,0,.1,0,.4,0,.2,0,.5,0,.9,0,.4,0,.8,0,1.3,0s1-.2,1.5-.3c.5-.1,1-.3,1.4-.5s.9-.4,1.2-.6c.3-.2.6-.4.8-.5.2-.1.3-.2.3-.2,0,0-.1,0-.3.1M289.7,189.6c-.6.2-1.2.4-1.9.5-.6.2-1.3.3-1.9.4-.6,0-1.2.2-1.7.2-.5,0-.9,0-1.2.1s-.5,0-.5,0c0,0,.2,0,.5,0,.3,0,.7.1,1.2.1s1.1,0,1.8,0c.6,0,1.3-.2,2-.3.7-.2,1.3-.4,1.9-.6.6-.2,1.1-.5,1.6-.7.5-.2.8-.5,1.1-.6.2-.2.4-.3.4-.3,0,0-.2,0-.4.2-.3.1-.7.3-1.1.4-.5.2-1,.4-1.6.5M229.5,114.9c.6.2,1.3.4,2,.6,1.5.4,3.2.8,5.1,1.3,1.9.4,3.9.8,5.9,1.1.8.1,1.5.2,2.2.3,7.8.5,15.7-1,22.5-4.5-6.2,2.5-12.9,3.4-19.4,2.8.2,0,.4,0,.5,0,1.1,0,2.2-.2,3.3-.3,6.6-.8,12.1-2.5,15.9-4.1.4,0,.8,0,1.2,0,.7.1,1.5.2,2.1.2,2.9.5,4.3,2,6.1,2.9.5.9,1,1.7,1.7,2.5-1-.2-2.1-.3-3-.3-1.3,0-2.5.2-3.5.4-1,.2-1.8.5-2.4.6-.6.2-.9.3-.9.3,0,0,.3,0,.9,0,.6,0,1.5-.2,2.5-.2,1,0,2.2-.2,3.4,0,1.2,0,2.6.3,3.8.7.5.2.9.4,1.4.6,2.2,2.3,6.4,9.9,8.9,16.8,0-.4.2-.8.2-1.2,0-.4.1-.8.2-1,0-.2,0-.4,0-.4,0,0,0,.1,0,.4,0,.2,0,.6,0,1,0,.4,0,.9-.1,1.4,0,.4-.1.8-.2,1.2,0,.4-.1.9-.2,1.3-.2.8-.4,1.6-.8,2.3-.3.7-.7,1.4-1.1,1.9-.3.5-.7,1-.9,1.2-.2.3-.4.5-.4.5,0,0,.2-.1.5-.3.3-.2.8-.6,1.3-1,.5-.5,1-1.1,1.4-1.8.4-.7.8-1.6,1-2.5.2.7.4,1.4.6,2.1,1.5,6.3,3,7.1,3.2,11.5,0-.5.2-1,.2-1.4,0-.6,0-1.2,0-1.6,0-.5,0-.9,0-1.2,0-.3,0-.4,0-.4,0,0,0,.2.1.4,0,.3.2.7.3,1.2,0,.5.1,1.1.1,1.7,0,.6-.1,1.3-.2,1.9-.2.6-.4,1.3-.6,1.9,0,0,0,0,0,.1,0,0,0,.1,0,.2-.3.8-.7,1.6-1.3,2.2-.5.7-1.1,1.2-1.6,1.6-.5.4-1,.7-1.4.9-.4.2-.6.3-.6.3,0,0,.2,0,.6-.1.4,0,1-.3,1.6-.6.6-.4,1.4-.9,2-1.5.4-.4.7-.8,1-1.3.3,6.1,1.2,16.4,1.7,20.9,0,.8.1,1.5,0,2.3.2-.4.4-.7.5-1.1.1-.4.2-.7.2-1,0-.2,0-.4,0-.4,0,0,0,.1,0,.4,0,.2,0,.6,0,1.1,0,.4-.2.9-.5,1.4-.2.5-.6,1-1,1.4-.1.2-.3.3-.5.5-.2.3-.5.5-.7.8-.5.6-1.1,1-1.6,1.4-.5.4-1,.7-1.3.8-.3.2-.5.3-.5.3,0,0,.2,0,.6-.1.4,0,.9-.2,1.5-.5.6-.3,1.3-.7,2-1.2.3-.2.5-.5.8-.8-.8,3.8-2.5,7.5-3.4,10.6-1.2,4.6-1.4,7.5-5.3,8.1,0,0-.1,0-.2,0-1.4.2-3.6,0-5.9-.5,2.4,0,4.8-.6,6.9-1.5-2.6.6-5.4.5-7.9,0-.3,0-.6-.1-.9-.2-.9-.2-1.7-.5-2.5-.8-.8-.3-1.5-.6-2-.9-.6-.3-1-.6-1.4-.8-.3-.2-.5-.4-.5-.4,0,0,.2,0,.5.3s.8.4,1.4.6,1.3.5,2.1.8c.4.1.8.3,1.2.4.1-1.1.5-2.7.9-4.9.3-1.4.6-2.9,1-4.5.6.1,1.2.2,1.9.2,1.2,0,2.3,0,3.4-.2,1.1-.2,2-.5,2.9-.8.4-.1.8-.3,1.1-.5.3-.1.6-.3.8-.4.4-.3.7-.4.7-.4,0,0-.3,0-.8.2-.2,0-.5.1-.9.2-.3,0-.7.2-1.1.2-.8.2-1.8.3-2.8.4-.5,0-1.1,0-1.7,0-.8.1-1.7.1-2.6,0-.9-.1-1.9-.3-2.7-.6s-1.6-.7-2.2-1-1-.8-1.4-1c-.3-.3-.5-.4-.5-.4,0,0,.2.1.5.4.3.2.8.5,1.4.8.6.3,1.4.6,2.2.9.6.2,1.3.3,2,.4.6-2.8,1.2-5.7,1.5-8.4,4.1.3,8.1-.3,11.9-1.6-2.9.5-5.8.5-8.6.1-.3,0-.6,0-1-.1-1-.1-2.1-.4-3-.6s-1.8-.6-2.5-1c-.7-.4-1.2-.8-1.6-1-.4-.3-.5-.5-.5-.5,0,0,.2.1.6.4.4.2,1,.5,1.7.8.7.3,1.6.6,2.5.8.3,0,.5.1.8.2,0-.8,0-1.6-.1-2.3-.6-4.1-2.4-8.9-3.4-13,5.1-1,9.8-3,13.7-5.9-3.8,1.2-7.6,1.6-11.3,1.3h-.1c-1.2,0-2.4-.1-3.5-.2-1.1-.1-2.2-.4-3-.6-.9-.2-1.6-.6-2.1-.8-.5-.2-.7-.4-.7-.4,0,0,.3.1.8.3.5.2,1.2.4,2.1.6s1.9.3,3,.4c-.9-2.2-2.3-3.6-4.1-7.9,1.6-.5,3.1-1.2,4.3-2.1-1.1.2-2.2.4-3.2.4-.1,0-.2,0-.4,0-.5,0-1.1,0-1.6,0-.6,0-1.1,0-1.6-.2-.5,0-1-.2-1.4-.4-.4-.1-.7-.3-.9-.4l-.3-.2s.1,0,.4,0,.6.1,1,.2c.4,0,.9.1,1.4.2.5,0,1,0,1.6.1h0c-1.2-3.1-2.9-6.4-4.6-9.3,1.6-3.4,4.7-6.4,8.5-7.9-3.2.6-6.3,2.1-8.9,4.5-.3.4-.6.7-.9,1.1-.3.4-.7.8-1,1.2-.3.4-.5.6-.7.9-.2.2-.3.3-.3.3,0,0,0-.1.2-.4.1-.2.3-.6.5-1s.5-.9.8-1.3c0,0,0,0,0,0-1.7-2.8-3.2-5-3.9-6-1.6-2.3-1.8-.3-1.6,2.7,0,.9.1,2.2.2,3.5-.1-.1-.2-.3-.3-.4-.6-.7-1.2-1.2-1.8-1.7-.3-.2-.5-.4-.8-.6-.2-.2-.5-.3-.6-.4-.4-.2-.6-.3-.6-.3,0,0,.2.2.4.5.1.1.3.3.5.5s.4.4.6.7c.5.5,1,1.1,1.4,1.8.5.6.9,1.3,1.2,2.1.2,2.3.6,4.7,1.5,6.5.4.9.6,2.4.8,4.3.2-.6.4-1.1.5-1.6.1-.5.3-.9.3-1.2,0-.3.1-.4.1-.4,0,0,0,.2,0,.5s0,.7-.1,1.2c0,.5-.2,1.1-.3,1.7-.2.6-.3,1.2-.5,1.8-.1.8-.4,1.6-.6,2.3-.3.8-.6,1.5-1,2.1-.3.6-.6,1.1-.9,1.4-.2.3-.4.5-.4.5,0,0,.2-.1.5-.4.3-.3.8-.7,1.2-1.2.4-.6.9-1.2,1.3-2,0,5.2,0,11.3,1.1,14.6.8,2.6.6,4.6,0,6.6,0,0,0,0,0,0,0,0,0,0,0,.1,0,0,0,.1,0,.2.2-.2.4-.5.6-.7.4-.6.8-1.2,1.1-1.7.3-.5.5-1,.6-1.3.1-.3.2-.5.2-.5,0,0,0,.2-.1.6,0,.3-.2.8-.5,1.4-.2.6-.5,1.2-1,1.9-.4.6-1,1.3-1.5,1.9-.3.3-.6.5-.9.8-.3.3-.7.6-1,.9-.9.7-1.9,1.1-2.7,1.5-.8.4-1.5.7-2,1-.5.2-.8.4-.8.4,0,0,.3,0,.8-.2.5-.1,1.3-.3,2.2-.6.9-.3,1.9-.7,3-1.3,0,0,.1-.1.2-.2-.6,1.2-1.3,2.4-1.9,3.7-.4.8-.8,1.5-1.1,2,0,0,0,0,0,0,.5-.4,1-.8,1.4-1.2.4-.4.8-.6,1-.9.2-.2.4-.3.4-.3,0,0-.1.1-.3.4-.2.2-.5.6-.9,1s-.8.9-1.3,1.3c-.5.4-1.1.9-1.7,1.4-.2.1-.4.3-.6.4-.3.3-.6.5-.9.8-.7.6-1.5,1.2-2.3,1.6-.8.4-1.6.7-2.3.9-.7.2-1.3.3-1.8.3-.2,0-.4,0-.5,0h-.2s0,0,.2,0,.3.1.5.1c.4.1,1.1.2,1.9.1.8,0,1.7-.3,2.6-.7.2-.1.4-.2.6-.3-.2.6-.4,1.4-.5,2.4-.2,1.9-.7,3.8-1.2,5.4-.3.4-.7.7-1,1-.4.4-.9.8-1.3,1.2-.4.3-.8.7-1.2.9-.4.3-.7.5-.9.6-.2.1-.3.2-.3.2,0,0,.1,0,.4-.1.2-.1.6-.2,1-.5s.9-.5,1.3-.8c.5-.3.9-.7,1.4-1.1,0,0,0,0,.1-.1-.2.4-.4.8-.6,1.2-1.2,1.3-2.7,2.3-4.6,2.5-.2,0-.3,0-.5,0-1.2,0-2.9-.3-4.6-.9-.9-.2-1.9-.5-2.8-.8-1.1-.4-2.1-.8-3.1-1.5-.9-.6-1.4-1.6-1.8-2.4-.3-.8-.4-1.5-.5-2,0-.5-.1-.8-.1-.8,0,0,0,.3.2.8s.4,1.2.7,1.9c.3.8.9,1.6,1.7,2.1.6.4,1.4.8,2.2,1.1,0-1.6.3-4,1.4-6.2,1.6.4,3.3.6,4.9.6-1.1-.5-2.1-1-3.1-1.7-.4-.2-.8-.4-1.2-.6-.5-.3-.9-.5-1.4-.8-.4-.3-.8-.6-1.1-.8-.3-.2-.6-.5-.7-.6-.2-.2-.2-.3-.2-.3,0,0,.1,0,.3.2.2.1.5.3.8.5.3.2.8.4,1.2.7.4.2.9.5,1.4.7,0,0,0,0,.1,0,.6-1.6.7-2.9,1.2-4.9,2.5.8,5.1,1.1,7.6,1.1-2.5-.7-4.8-1.7-6.8-3.1-.7-.4-1.4-.8-2-1.2-.7-.5-1.4-1-1.9-1.5-.5-.5-.9-.9-1.2-1.2-.3-.3-.4-.5-.4-.5,0,0,.2.1.5.4.3.3.8.6,1.4,1,.6.4,1.2.9,2,1.3.6.3,1.1.7,1.8,1,.3-.8.6-1.6,1-2.6.8-2,1.1-3.4,1.2-4.4,1.5-.2,3-.6,4.4-1-.8,0-1.6,0-2.4-.2h-.4c-.8,0-1.6,0-2.5-.2-.8-.1-1.7-.3-2.4-.5-.8-.2-1.5-.5-2.1-.7-.6-.2-1-.5-1.4-.7-.3-.2-.5-.3-.5-.3,0,0,.2,0,.5.2.3.1.8.3,1.4.5s1.3.4,2.1.6c.8.2,1.6.3,2.4.4.2,0,.5,0,.7,0-.1-1.3-.4-2.5.4-5.2.6-2.1,1.2-4,1.5-5.8,4.6-1.1,8.8-2.9,12.5-5.4-3.6,1.1-7.2,1.5-10.8,1.4-.3,0-.5,0-.8,0-1.1,0-2.3,0-3.4-.2-1.1-.1-2.1-.3-2.9-.5s-1.5-.4-2-.5c-.5-.1-.8-.2-.8-.2,0,0,.3,0,.8.1.5,0,1.2.2,2.1.3.8.1,1.8.2,2.9.3.8,0,1.7.1,2.6.1-.2-1.1-.6-2.3-1.2-3.6-2-3.9-1.9-8.2-2.9-14.1,1.5-.5,3-.8,4.6-1-1.2-.2-2.5-.4-3.8-.5h-1.2c-1,0-2,0-2.9.1-.9.1-1.8.3-2.4.6-.7.3-1.2.6-1.6.9-.4.3-.5.4-.5.4,0,0,.1-.2.5-.5.3-.3.8-.7,1.5-1.1.7-.3,1.6-.6,2.5-.8s2-.2,3-.2h0c-.1-.6-.2-1.2-.4-1.8-.4-2-1.1-4.2-1.7-6.5,4-2.3,8.9-3.2,13.7-2.3-2.8-1-5.8-1.4-8.8-1.2-1.1.1-2.2.4-3.3.6-1.3.3-2.6.8-3.7,1.3-1.1.5-2.1,1.1-3,1.7-.8.6-1.4,1.1-1.9,1.6-.2.2-.4.4-.5.5-.1.1-.2.2-.2.2,0,0,0,0,.1-.2.1-.1.2-.3.4-.5.4-.4,1-1.1,1.8-1.7.8-.6,1.8-1.3,2.9-1.9.5-.2,1-.5,1.6-.7-1.1-4-2-8-2.1-10.9-.7-.1-1.4-.3-2-.4-1.9-.5-3.6-1-5.1-1.5-.7-.2-1.4-.5-2-.7-.6-.2-1.1-.4-1.5-.6-.8-.3-1.3-.5-1.3-.5,0,0,.5.2,1.4.4.4.2.9.3,1.6.5"/>
    <path class="st1" d="M279.1,130.3c.7-.3,1.4-.6,2-.8.6-.2,1.1-.3,1.5-.4.4,0,.6-.1.6-.1,0,0-.2,0-.5.2-.3.1-.8.4-1.4.6-.6.2-1.2.6-1.9.9-.7.4-1.4.8-2.1,1.2-.7.4-1.4.9-2,1.3-.6.5-1.2.9-1.7,1.3-.5.4-.9.7-1.2.9-.3.2-.5.4-.5.4,0,0,.1-.2.4-.4.2-.3.6-.7,1.1-1.1.5-.4,1-.9,1.6-1.4.6-.5,1.3-.9,2-1.4.7-.4,1.5-.8,2.2-1.1"/>
    <path class="st1" d="M243.1,120.2c.5.2,1.1.3,1.7.5.6.2,1.3.3,1.9.5.6.2,1.3.3,1.9.4s1.2.3,1.7.3c.5,0,.9.2,1.2.2s.5,0,.5,0c0,0-.2,0-.5,0-.3,0-.7,0-1.2,0-.5,0-1.1,0-1.7-.2-.6,0-1.3-.2-2-.4-.7-.2-1.3-.4-1.9-.6-.6-.2-1.2-.4-1.6-.6s-.9-.4-1.1-.5c-.3-.1-.4-.2-.4-.2,0,0,.2,0,.4.1.3,0,.7.2,1.2.3"/>
    <path class="st1" d="M262.2,158.2c.2-.2.4-.3.4-.3,0,0-.1.1-.3.4-.2.3-.5.6-.9,1-.4.4-.9.9-1.5,1.3-.6.4-1.2.9-1.9,1.3-.7.4-1.4.7-2.1,1-.7.3-1.3.5-1.9.6-.6.1-1,.2-1.4.3-.3,0-.5,0-.5,0,0,0,.2,0,.5-.2.3-.1.8-.3,1.3-.5.5-.2,1.1-.5,1.8-.8.6-.3,1.3-.6,2-1,.7-.4,1.3-.8,1.9-1.2.6-.4,1.1-.8,1.5-1.2.4-.4.8-.7,1.1-.9"/>
    <path class="st1" d="M257.2,181.2c.5,0,1-.1,1.3-.2.3,0,.5,0,.5,0,0,0-.2,0-.5.2-.3,0-.7.2-1.2.4-.5.1-1.1.3-1.8.4s-1.4.2-2.1.2c-.7,0-1.4,0-2.1,0-.7,0-1.3-.1-1.8-.2s-.9-.2-1.3-.3c-.3,0-.5-.1-.5-.1,0,0,.2,0,.5,0,.3,0,.8,0,1.3,0,.5,0,1.1,0,1.8,0,.6,0,1.4,0,2,0,.7,0,1.4,0,2-.1s1.3-.1,1.8-.2"/>
    <path class="st1" d="M292.9,188.5s-.1.1-.4.3c-.2.2-.6.4-1.1.6-.5.2-1,.5-1.6.7-.6.2-1.3.4-1.9.6-.7.1-1.4.2-2,.3-.6,0-1.2,0-1.8,0-.5,0-.9,0-1.2-.1-.3,0-.5,0-.5,0,0,0,.2,0,.5,0,.3,0,.7,0,1.2-.1.5,0,1.1-.1,1.7-.2.6,0,1.3-.2,1.9-.4.6-.1,1.3-.3,1.9-.5.6-.2,1.2-.4,1.6-.5.5-.2.9-.3,1.1-.4.3-.1.4-.2.4-.2"/>
    <path class="st1" d="M286.6,161.9c-.3.2-.8.4-1.2.6s-1,.3-1.4.5c-.5.1-1,.2-1.5.3-.5,0-.9,0-1.3,0s-.7,0-.9,0c-.2,0-.4,0-.4,0,0,0,.1,0,.4,0,.2,0,.5-.1.9-.2.4,0,.8-.2,1.3-.2s1-.2,1.4-.3c.5-.1,1-.2,1.4-.4.5-.1.9-.2,1.2-.4.4-.1.7-.2.9-.3.2,0,.3-.1.3-.1,0,0-.1,0-.3.2-.2.1-.5.3-.8.5"/>
    <path class="st1" d="M281,147.4c.5-.3,1-.7,1.6-1.1.5-.4,1.1-.9,1.6-1.4.5-.5,1-1.1,1.5-1.6.4-.6.8-1.1,1.1-1.5.3-.5.5-.9.7-1.2.2-.3.2-.4.2-.4,0,0,0,.2-.1.5-.1.3-.3.8-.5,1.3-.2.5-.6,1.1-1,1.7-.4.6-.9,1.2-1.5,1.7-.6.5-1.1,1-1.7,1.4-.6.4-1.2.7-1.7,1-.5.2-1,.4-1.3.5-.3,0-.5.1-.5.1,0,0,.2,0,.5-.2.3-.1.7-.4,1.2-.7"/>
    <path class="st4" d="M205.3,66.9c-.1,1-.2,2.1-.3,3.1,0,1,0,2.1,0,3.1,0,2.1.4,4.2.7,6.2.3,2.1.8,4.1,1.2,6.2.4,2.1.9,4.1,1.3,6.2-.6-2-1.2-4-1.7-6.1-.5-2-1-4.1-1.3-6.2-.3-2.1-.6-4.2-.6-6.3s.2-4.2.7-6.3"/>
    <path class="st5" d="M231.4,2.4c8.1-.9,13.4,1.6,17.1,7.1-.8-.6-1.6-.9-2.5-1-8.5-.9-16.6,2.2-21.8,6.6,0-.2-.1-.4-.2-.6.2-.2.5-.4.7-.6.6-.5,1.3-1,1.9-1.4.6-.4,1.2-.8,1.8-1.1.5-.3,1-.6,1.3-.8.3-.2.5-.3.5-.3,0,0-.2,0-.5.2-.3.1-.8.3-1.4.6-.6.3-1.2.6-1.9,1-.7.4-1.3.9-2,1.4-.2.2-.4.3-.6.5,0-.2-.1-.3-.2-.5,1.4-1.1,2.8-2,4.4-2.8,4.5-2.3,9.7-3.5,14.9-3.3-5.2-.9-10.6,0-15.5,2.1-1.5.7-2.9,1.5-4.3,2.5-.7-2.3-1.2-4.7-1.3-7,1.2-.5,2.6-1,4.1-1.4,2-.5,3.9-.9,5.6-1.1"/>
    <path class="st5" d="M241.1,45.6c3.8-1.4,8.8-3.3,11.3-5.2l.8,3.8s-2.1,3-13.9,5.5c-.1,0-.2,0-.3,0l-.3-2.6c4.2-.9,8.4-2.2,12.3-3.8-3.2,1-6.6,1.7-9.9,2.2"/>
    <path class="st5" d="M247,39.3c3.1-1.3,4.9-2.4,7.5-5.2.9-.8,1.6-1.6,1.9-2.6,0,.5,0,1.1-.2,1.8-.3,1.2-1.1,2.3-1.9,3.3-.3.3-.7.6-1.1.9-1.4,1.1-3,1.9-4.7,2.5-2.6,1-5.5,1.6-8.3,2v-.8c2.6-.5,5.3-1.3,6.7-1.9"/>
    <path class="st5" d="M255.3,43.7l-.7-3.2c1.8,1.4,3.5,3.1,4.8,5.1-.9-2.2-2.2-4.2-3.8-6,2.9,0,5.5.2,6.7.5,2.5.5,6,1.8,7.8,3.2,0-.2-.1-.4-.2-.6-.1-.3-.2-.6-.3-.8,0-.2-.1-.3-.1-.3,0,0,0,0,.2.3.1.2.3.4.5.7.2.3.4.7.6,1.1s.4.9.5,1.3c0,.3.2.5.2.8,0,0,0,0,0,.2.3.7.6,1.3.8,1.9.2.5.4,1,.5,1.3.1.3.2.5.2.5v-.6c0-.3,0-.9-.1-1.5-.1-.6-.3-1.3-.5-2,0,0,0-.2-.1-.3,0,0,.1,0,.2.1.1.3.3.6.4.9.2.3.3.7.5,1,.1.3.2.5.3.7,0,.2.1.3.1.3,0,0,0-.1,0-.3,0-.2,0-.5-.1-.8,0-.3-.2-.7-.3-1,0,0,0-.2-.1-.3,2,.9,4.7,1.9,6.7,3.3,1.3.9,2.8,1.9,4.3,2.9-.2,0-.4,0-.6,0-.7.1-1.4.4-2,.6-.6.3-1.1.6-1.6.9-.4.3-.8.6-1,.8-.2.2-.4.3-.4.3,0,0,.2,0,.5-.1.3,0,.7-.2,1.2-.4.5-.2,1-.4,1.6-.5.6-.2,1.2-.3,1.9-.4.6-.1,1.2-.2,1.8,0,0,0,.1,0,.1,0,1.3,1,2.5,2.1,3.2,3.2.9,1.5,2.7,2.3,4.6,3.4,0,0,0,0-.1,0-.8,0-1.5,0-2.2,0-.7.2-1.3.3-1.8.6,0,0-.1,0-.2,0-.6-.3-1.3-.5-2.2-.6-5.4-.9-7.8-4.1-11-6.8.5-.8,1.1-1.5,1.9-2-.8.4-1.6,1-2.3,1.7-.3-.3-.7-.5-1-.8-1.9-1.2-3.5-2.8-5.6-4-.1-.2-.2-.4-.4-.6,0,.2.1.3.2.5-1.2-.7-2.6-1.1-4.4-1.3-.4-.6-.9-1.2-1.3-1.8-.5-.6-1-1.1-1.4-1.5-.4-.4-.8-.8-1.1-1-.3-.2-.4-.3-.4-.3,0,0,.1.2.4.4.2.3.6.7,1,1.1.4.5.8,1,1.3,1.6.3.5.7.9,1,1.4-.3,0-.7,0-1,0-.2-.3-.5-.7-.7-1-1.2-1.7-2.7-3.1-4.4-4.3,1.5,1.3,2.8,3,3.9,4.7.1.2.2.5.4.7-.9,0-1.9.2-2.9.5-1.3-1.4-2.6-2.5-3.7-3.3"/>
    <path class="st5" d="M290.1,60.8c.4,0,.8-.1,1.3-.1.6,0,1.3,0,2,.1.7,0,1.3.3,1.9.5.6.2,1.1.4,1.5.6.4.4.9.8,1.2,1.3.4.5.8.9,1.1,1.3l-.3.2c-1,.8-1.9,1.8-2.8,2.7-2.4-2.6-3.6-5.2-6-6.7"/>
    <path class="st5" d="M312.4,77.3c.2-.2.4-.3.4-.3,0,0-.2,0-.5.2-.2.1-.5.3-.9.5-.2-.2-.4-.3-.7-.5.8-.4,1.6-.8,2.4-1,1.1,1.3,2.1,2.7,2.4,3.5,1.1,2.6,1.7,6.2,1.2,9-.6-2.4-1.5-4.5-2.5-6.9-.9-1.9-1.6-3-2.5-3.8.3-.2.5-.4.7-.6"/>
    <path class="st5" d="M301.3,71.6c-.5-.6-1-1.2-1.6-1.8,0,0,.2-.2.2-.3.4-.5.7-.9.9-1.2.2-.3.4-.5.4-.5,0,0-.2.1-.5.4-.3.2-.7.6-1.1,1.1,0,0-.2.2-.2.2-.1-.2-.3-.3-.5-.5.4-.4.7-.8,1.1-1.2-.4.4-.8.7-1.2,1.1-.1-.1-.2-.2-.3-.3.6-.7,1.3-1.3,2-1.9.8-.7,1.2-.7,1.3-.7.4.2.8,1.6.8,2.9,0,.6.5,1.1,1.1,1.2,0,0,3.5.3,6.2,2.7.4.3.8.8,1.3,1.3-.9.7-1.7,1.4-2.5,2.2-.6-.2-1.4-.5-2.2-.8-1.8-.6-3.1-1.7-4.4-2.9.1-.2.2-.3.4-.5.2-.2.2-.4.2-.4,0,0-.1,0-.3.3-.1,0-.3.2-.4.4-.2-.2-.4-.4-.6-.7.1-.2.2-.3.4-.5-.1.1-.3.3-.4.4"/>
    <path class="st5" d="M259.4,96.5c-.2-.1-.5-.3-.7-.4.1-.9.3-1.8.6-2.8.2-.9.6-1.4.9-1.5.8-.2,2.3,1.1,3.1,2.1.4.4,1,.6,1.5.3,0,0,5.2-2.7,9.1-1.6.4.1,1,.2,1.5.4-.4,1-.6,2-.9,3-2.8-.5-4.8-.8-6.7,0-.7.3-1.6.6-2.5.9h0v-.6s0,.2-.1.4c0,0,0,.1,0,.2-.4,0-.8.2-1.2.2v-.6c0,.2,0,.4-.1.6-1,.1-2,0-2.9-.1,0-.3,0-.6,0-.8,0-.7,0-1.2,0-1.7,0-.4,0-.6,0-.6,0,0,0,.2-.1.6,0,.4-.2.9-.3,1.6,0,.2,0,.5-.1.7-.3,0-.6-.2-.8-.3,0-.7.1-1.3.2-2-.2.6-.3,1.3-.4,1.9"/>
    <path class="st5" d="M279,96.6c-.3,0-.6,0-.8,0,0,0,0,0,0,0,.2-.6.3-1,.4-1.3s.2-.5.2-.5c0,0-.1.2-.3.5-.2.3-.4.7-.7,1.3,0,0,0,.1,0,.2-.4,0-.8-.1-1.1-.2.5-1,1.1-1.9,1.7-2.7,1.8.4,3.8.9,4.7,1.4,3.8,2.1,8.1,5.9,8.6,9.1,0,.2,0,.4,0,.6-.1,0-.2-.2-.3-.3-.3-.2-.5-.5-.8-.7-.5-.5-1.1-.9-1.6-1.3s-1-1.7-1.5-2.1c-.3-.2-1.3-1.1-1.6-1.3-2.6-2.2-4.3-2.2-7-2.4"/>
    <path class="st3" d="M272.3,89.9h-.8c-.1-.6-.2-1.5-.4-2.5-.2-1.1-.4-2.3-.6-3.6-.2-1.3-.5-2.7-.8-4.1-.3-1.4-.6-2.8-.9-4.1-.3-1.3-.6-2.5-.8-3.6-.1-.6-.2-1-.4-1.5.1-.9.3-1.9.5-2.7.9,3.6,1.5,7.6,2.8,12.9.7,2.7,1.1,6,1.4,9.3"/>
    <path class="st5" d="M268.9,84s-.4.1-1.1.3c-.1,0-.3,0-.5.2.2-1.5.3-3.3,0-5.7-.4-2.6-.1-5.2.2-7.6,0,.3,0,.6.1.9.2,1.1.4,2.3.6,3.6.2,1.3.5,2.7.8,4.1.3,1.4.6,2.8.9,4.1.3,1.3.6,2.5.8,3.6.2,1,.5,1.9.6,2.5-1.8,0-3.5.5-4.9.9-.2-2.1.3-3.7.7-5.9.3-.2.5-.3.7-.4.6-.4,1-.6,1-.6"/>
    <path class="st5" d="M255.4,48.1c.3.4.6.8.9,1.2.2.2.4.5.5.7-.4.2-.9.5-1.5.7,0-1,0-2.1-.2-3.1.1.2.2.3.3.5"/>
    <path class="st5" d="M257.1,48.8c-.2-.5-.5-.9-.8-1.4,0-.1-.2-.2-.3-.4.7.6,1.4,1.3,2.1,2.1-.2.1-.4.3-.6.4-.1-.2-.2-.5-.3-.8"/>
    <path class="st5" d="M247.9,52.4c.8-.4,1.4-.7,1.8-.9.4-.3.6-.4.6-.4,0,0-.3,0-.7.2-.5.2-1.1.3-1.9.5-.8.2-1.7.5-2.7.7-.4,0-.8.2-1.2.3-1.9,0-3.8-.1-5.9-.4.6,0,1.2-.2,1.8-.3,4.9-1,8.9-2.3,11.7-3.7.2,1.2.4,2.3.5,3.5-1.3.3-2.8.6-4.3.7.1,0,.3-.1.4-.2"/>
    <path class="st5" d="M253.7,46.8c.4,1.3.7,2.7.9,4.1-.6.2-1.2.4-1.9.6,0-1.3,0-2.7,0-4.1.4-.2.7-.4.9-.6"/>
    <path class="st5" d="M228.5,89.6c2.5-.3,5,0,7.2.7.3.3.7.3,1.2.3,0,0,0,0,0,0,.1,0,.2,0,.3,0,.3,0,.6,0,.9,0s0,0,0,0c.2,0,.4,0,.5,0,1.4.2,1.8,1.1,3.6,1.4-.8.8-1.5,1.7-2.1,2.6-1.4,0-2.7-.1-3.8-.3-5-.8-8-4.8-8-4.8"/>
    <path class="st5" d="M231.4,85.8c.4,0,.8,0,1.3,0-.4,0-.8,0-1.2-.1.2-.6.4-1.3.4-2.1.2.2.4.3.6.5.7.6,1.3,1.4,1.8,2.2.1.2.3.5.4.8,0,.2,0,.3,0,.5-2.2.3-4.3.9-6.2,1.9,0,0,1.9-1.2,2.9-3.8"/>
    <path class="st5" d="M234.5,78.5c0,2,0,4.3,0,6.3-.4-.6-.9-1.1-1.4-1.5-.4-.3-.8-.6-1.3-.8-.1-2.2,0-5.7-.2-9.2,1.2,1.6,2.2,3.3,2.9,5.1"/>
    <path class="st5" d="M233.8,73.4c-.7-.7-1.5-1.2-2.2-1.8-.1-1.7-.3-3.3-.5-4.7,1.3,2.4,2.2,4.7,2.8,6.6"/>
    <path class="st5" d="M242.8,92.1c.7,0,1.7.1,2.9,0,2.3-.2,4.7,0,7.1.3-.3.9-.5,1.8-.6,2.6-3.8-.4-7.7-.3-10.9-.4.4-.9.9-1.8,1.5-2.6"/>
    <path class="st5" d="M255.3,92.8c.5,0,1.1.2,1.6.3-.2.9-.4,1.7-.5,2.6-.9-.2-1.7-.3-2.6-.4.4-.9.9-1.7,1.5-2.4"/>
    <path class="st5" d="M281.7,200.5c2.5-1.4,6.2-3,8.1-7.7.6-1.4.9-2.4,1.2-3.3.2,0,.3-.2.5-.2.5-.2.8-.5,1.1-.6.2-.2.4-.3.4-.3,0,0-.2,0-.4.2-.3.1-.7.3-1.1.4,0,0-.1,0-.2,0,.3-1.1.3-1.9.3-3,.1,0,.3,0,.5,0,.4,0,.9-.2,1.5-.5.6-.3,1.3-.7,2-1.2.3-.2.5-.5.8-.8-.8,3.8-2.5,7.5-3.4,10.6-1.2,4.6-1.4,7.5-5.3,8.1,0,0-.1,0-.2,0-1.4.2-3.6,0-5.9-.5,2.4,0,4.8-.6,6.9-1.5-2.2.5-4.4.5-6.5.2"/>
    <path class="st5" d="M290.2,135.2c0,.4,0,.9-.1,1.4,0,.4-.1.8-.2,1.2,0,.4-.1.9-.2,1.3-.2.8-.4,1.6-.8,2.3-.3.7-.7,1.4-1.1,1.9,0,0-.1.1-.1.2,0-.9-.1-1.9-.2-2.7,0,0,0-.1,0-.2.1-.3.1-.5.1-.5,0,0,0,.2-.2.4,0-1,0-2,0-2.9,0-4.4.2-5.6-.5-7.6,1,2.1,1.9,4.2,2.7,6.3,0-.4.2-.8.2-1.2,0-.4.1-.8.2-1,0-.2,0-.4,0-.4,0,0,0,.1,0,.4,0,.2,0,.6,0,1"/>
    <path class="st5" d="M290.6,179.5c1.1-.2,2.2-.6,3.3-.9-1.1.2-2.2.3-3.3.3.5-3.1.9-6.7.3-10.8-.3-2.1-.7-4.6-1.1-7.4,0,0,.1,0,.2,0,.4,0,1-.3,1.7-.6.6-.4,1.4-.9,2-1.5.4-.4.7-.8,1-1.3.3,6.1,1.2,16.4,1.7,20.9,0,.8.1,1.5,0,2.3.2-.4.4-.7.5-1.1.1-.4.2-.7.2-1,0-.2,0-.4,0-.4,0,0,0,.1,0,.4,0,.2,0,.6,0,1.1,0,.4-.2.9-.5,1.4-.2.5-.6,1-1,1.4-.1.2-.3.3-.5.5-.2.3-.5.5-.7.8-.5.6-1.1,1-1.6,1.4-.5.4-1,.7-1.3.8-.2.1-.3.2-.4.2-.1-1.4-.4-3.3-.8-6.6"/>
    <path class="st5" d="M294.3,155.6c0,0,0,.1,0,.2-.3.8-.7,1.6-1.3,2.2-.5.7-1.1,1.2-1.6,1.6-.5.4-1,.7-1.4.9,0,0-.1,0-.2.1-.1-.7-.2-1.5-.3-2.2,1-.6,2-1.2,2.9-1.9-1,.3-2,.6-3,.8-.6-4.3-1.2-8.9-1.6-13,.2-.1.4-.3.6-.5.5-.5,1-1.1,1.4-1.8.4-.7.8-1.6,1-2.5.2.7.4,1.4.6,2.1,1.5,6.3,3,7.1,3.2,11.5,0-.5.2-1,.2-1.4,0-.6,0-1.2,0-1.6,0-.5,0-.9,0-1.2,0-.3,0-.4,0-.4,0,0,0,.1.1.4,0,.3.2.7.3,1.2,0,.5.1,1.1.1,1.7,0,.6-.1,1.3-.2,1.9-.2.6-.4,1.3-.6,1.9,0,0,0,0,0,.1"/>
    <path class="st5" d="M252.2,189.5c-.1,0-.2,0-.3,0,.7-1.9,1.4-3.7,2.4-5.1.5-.7,1-1.6,1.5-2.7.5,0,1-.2,1.5-.3.5-.1.9-.3,1.2-.4.3-.1.5-.2.5-.2,0,0-.2,0-.5,0-.3,0-.7,0-1.3.2-.4,0-.8,0-1.2.1,1.8-4.7,2.9-12.2,2.7-19.8.5-.3.9-.6,1.3-.9.6-.4,1.1-.9,1.5-1.3.4-.4.7-.8.9-1,.2-.3.3-.4.3-.4,0,0-.1.1-.4.3-.2.2-.6.5-1.1.9-.4.4-1,.8-1.5,1.2-.3.2-.7.4-1,.7,0-.4,0-.9,0-1.3.6-.4,1.2-.7,1.8-1.1-.6.2-1.2.3-1.8.5,0-.2,0-.4,0-.6-.8-8.5,1.4-13.9,2.9-19.3.2,1.8.6,3.6,1.3,5,.4.9.6,2.4.8,4.3.2-.6.4-1.1.5-1.6.1-.5.3-.9.3-1.2,0-.3.1-.4.1-.4,0,0,0,.2,0,.5s0,.7-.1,1.2c0,.5-.2,1.1-.3,1.7-.2.6-.3,1.2-.5,1.8-.1.8-.4,1.6-.6,2.3-.3.8-.6,1.5-1,2.1-.3.6-.6,1.1-.9,1.4-.2.3-.4.5-.4.5,0,0,.2-.1.5-.4.3-.3.8-.7,1.2-1.2.4-.6.9-1.2,1.3-2,0,5.2,0,11.3,1.1,14.6.8,2.6.6,4.6,0,6.6,0,0,0,0,0,0,0,0,0,0,0,.1,0,0,0,.1,0,.2.2-.2.4-.5.6-.7.4-.6.8-1.2,1.1-1.7.3-.5.5-1,.6-1.3.1-.3.2-.5.2-.5,0,0,0,.2-.1.6,0,.3-.2.8-.5,1.4-.2.6-.5,1.2-1,1.9-.4.6-1,1.3-1.5,1.9-.3.3-.6.5-.9.8-.3.3-.7.6-1,.9-.9.7-1.9,1.1-2.7,1.5-.8.4-1.5.7-2,1-.5.2-.8.4-.8.4,0,0,.3,0,.8-.2.5-.1,1.3-.3,2.2-.6.9-.3,1.9-.7,3-1.3,0,0,.1-.1.2-.2-.6,1.2-1.3,2.4-1.9,3.7-.4.8-.8,1.5-1.1,2,0,0,0,0,0,0,.5-.4,1-.8,1.4-1.2.4-.4.8-.6,1-.9.2-.2.4-.3.4-.3,0,0-.1.1-.3.4-.2.2-.5.6-.9,1s-.8.9-1.3,1.3c-.5.4-1.1.9-1.7,1.4-.2.1-.4.3-.6.4-.3.3-.6.5-.9.8-.7.6-1.5,1.2-2.3,1.6-.8.4-1.6.7-2.3.9"/>
    <path class="st5" d="M251.7,190.1h.6c.8,0,1.7-.3,2.6-.7.2-.1.4-.2.6-.3-.2.6-.4,1.4-.5,2.4-.2,1.9-.7,3.8-1.2,5.4-.3.4-.7.7-1,1-.4.4-.9.8-1.3,1.1s-.8.7-1.2.9c-.4.3-.7.5-.9.6-.2.1-.3.2-.3.2,0,0,.1,0,.4-.1.2-.1.6-.2,1-.5s.9-.5,1.3-.8c.5-.3.9-.7,1.4-1.1,0,0,0,0,.1-.1-.2.4-.4.8-.6,1.2-1.2,1.3-2.7,2.3-4.6,2.5-.2,0-.3,0-.5,0-.8,0-1.7-.1-2.7-.3,3.8-3.3,5.4-7.7,6.8-11.6"/>
    <path class="st3" d="M273.8,47.2c0-.3-.2-.7-.3-1,0,0,0-.2-.1-.3,2,.9,4.7,1.9,6.7,3.3,1.3.9,2.8,1.9,4.3,2.9-.2,0-.4,0-.6,0-.2,0-.4,0-.5.1-3-2.1-6.8-4-9.1-4.9,0,0-.2,0-.3-.1"/>
    <path class="st3" d="M270.1,43.3c0-.2-.1-.4-.2-.6-.1-.3-.2-.6-.3-.8,0-.2-.1-.3-.1-.3,0,0,0,0,.2.3.1.2.3.4.5.7s.4.7.6,1.1.4.9.5,1.3c0,.2.1.5.2.7-1.3-1.1-2.2-2.2-3.3-2.7-1.5-.6-7-3-12.2-3.1-.1-.1-.2-.2-.3-.4,2.9,0,5.5.2,6.7.5,2.5.5,6,1.8,7.8,3.2"/>
    <path class="st3" d="M273.1,46.3c.1.2.2.4.3.6-.2-.1-.4-.2-.6-.3,0-.3-.1-.6-.2-1,0,0,0-.2-.1-.3,0,0,.1,0,.2.1.1.3.3.6.4.9"/>
    <path class="st3" d="M284.4,53.1c.5,0,.9,0,1.3,0,0,0,.1,0,.1,0,1.3,1,2.5,2.1,3.2,3.2.9,1.5,2.7,2.3,4.6,3.4,0,0,0,0-.1,0-.7,0-1.4,0-2,0-1.6-1.1-3.5-3.1-5.6-5.2-.4-.5-1-.9-1.5-1.3"/>
    <path class="st3" d="M294.3,61c.4,0,.7.2,1,.3.6.2,1.1.4,1.5.7.4.4.9.8,1.2,1.3.4.5.8.9,1.1,1.3l-.3.2c-.1.1-.2.2-.4.3-1.5-1.6-2.9-3.3-4.3-4.2"/>
    <path class="st3" d="M315.5,79.6c.8,1.9,1.3,4.3,1.4,6.6-.3-1.1-.5-2.2-.8-3.2-.9-3.3-2.3-5.3-3.5-6.6.2,0,.4-.2.6-.2,1.1,1.3,2.1,2.7,2.4,3.5"/>
    <path class="st3" d="M301.8,65.8c.4.2.8,1.6.8,2.9,0,.6.5,1.1,1.1,1.2,0,0,3.5.3,6.2,2.7.4.3.8.8,1.3,1.3-.2.2-.5.4-.7.6-1.8-1.5-4.6-3.5-6.6-3.9-2.3-.4-1.9-1.5-2.5-2.9-.4-.8-.6-.8-1-1.1,0,0,0,0,.1,0,.8-.7,1.2-.7,1.3-.7"/>
    <path class="st3" d="M225.8,3.5c2-.5,3.9-.9,5.6-1.1,8.1-.9,13.4,1.6,17.1,7.1-.7-.5-1.4-.8-2.1-.9-2.6-3-8-5.2-11.4-5.3-2.9,0-7.8.4-12.1,1.2.9-.3,1.9-.7,2.9-.9"/>
    <path class="st5" d="M293.1,205.5c.1.1.2.3.3.4-.5,0-1-.1-1.5-.1-.4,0-.8,0-1.1.1-.4-.6-.8-1.2-1-1.9.9-.4,1.5-.8,2.1-1.4.3.9.6,1.9,1.3,2.9"/>
    <path class="st5" d="M297.8,217.8s0,0,0-.1c.8-.8.9-1.8,1-2.5l.2-2.4s-.5,1.3-1.2,2.8c-.2.4-.7.9-1,1.2,0,0,0,0-.1,0,1.1-2.1,1.9-4,1.4-4.4-.4-.4-1.5-1.1-2.9-2.1.4,0,.7,0,1.1,0,.5,0,1.1,0,1.5,0h.4c1.1,1,1.9,1.9,2,2.9.1,1.4-.5,2.8-1.1,3.8,0,0,0,0,0,0-.2.4-.4.7-.6.9,0,0,0,0,0,0,0,.1-.2.2-.2.3h0c0,0-.2,0-.3,0,0,0,0,0,0,0,0,0-.2,0-.3,0,0,0,0,0-.1,0,0,0-.2,0-.3,0-.1,0-.3,0-.5,0h0c-.2,0-.4,0-.6,0,0,0-.1,0-.2,0h0c.1-.2.2-.4.4-.6.2,0,.3,0,.5,0,.5,0,1-.1,1.2-.2"/>
    <path class="st5" d="M293.6,207.1c.4,0,.7,0,1,0,.8.7,1.6,1.4,2.5,2-.1,0-.3,0-.5-.1-.6,0-1.2-.1-1.8-.2-.3,0-.7,0-1,0-.7-.6-1.4-1.2-2-1.8h.1c.6,0,1.1,0,1.7,0"/>
    <path class="st5" d="M259.8,218.9s0,0,0,0c-.3.3-.5.6-.7.9,0,0,0,0,0,0-.1.1-.2.2-.3.3,0,0,0,0,0,0-.6.1-1.5.2-2.7,0,.1-.2.3-.4.4-.6.8,0,1.3,0,1.7,0,.1,0,.2,0,.3,0,.2-.2.5-.5.7-.9h0c.4-.6.5-1.2.7-1.7l.5-2.3s-.6,1.3-1.5,2.7c-.3.4-.7.8-1.1,1-.1,0-.2,0-.4-.1,1-1.6,1.5-3.1,1.1-3.9-.4-.8-1.1-1.7-1.9-2.7.4,0,.8,0,1.2.1.6,0,1.1.1,1.6.2.2,0,.4,0,.5,0,.9,1.1,1.6,2.1,1.5,3.1,0,1.4-.9,2.7-1.6,3.7"/>
    <path class="st5" d="M255.1,208.3c.4,0,.8,0,1.2.1.7.9,1.6,1.7,2.4,2.5-.2,0-.4-.2-.7-.3-.6-.2-1.2-.3-1.9-.4-.2,0-.5,0-.7,0-.5-.7-1-1.4-1.5-2.1.4,0,.8,0,1.2.1"/>
    <path class="st5" d="M255.1,206.7c0,.1.1.2.2.4-.6-.1-1.2-.3-1.8-.4h-.4c-.6-1.1-1.1-2.3-1.4-3.6.7-.4,1.3-.8,2-1.4.6,1.4.5,3.3,1.5,5"/>
    <path class="st3" d="M260.2,91.8c.8-.2,2.3,1.1,3.1,2.1.4.4,1,.6,1.5.3,0,0,5.2-2.7,9.1-1.6.4.1,1,.2,1.5.4,0,.2-.2.5-.2.7-.4,0-.8,0-1.2-.1-1.8,0-4.7-.6-7.5.9-2.8,1.5-3.7.3-4.6-.6-.6-.6-1.6-1-2.3-1.2.2-.6.5-.9.8-1"/>
    <path class="st3" d="M278.3,93.6c1.8.4,3.8.9,4.7,1.4,3.2,1.8,6.8,4.8,8.1,7.6-1.9-2.8-5.3-5.2-6.1-5.9-1.2-.9-3.3-1.8-4.7-2.1-.6-.1-1.5-.3-2.4-.5.1-.2.2-.4.4-.6"/>
    <path class="st3" d="M235.7,90.3c.3.3.7.3,1.2.3,0,0,0,0,0,0,.1,0,.2,0,.3,0,.3,0,.6,0,.9,0s0,0,0,0c.2,0,.4,0,.5,0,1.4.2,1.8,1.1,3.6,1.4-.2.2-.3.3-.4.5-1.9-.2-3.2-.5-3.7-.8-.9-.6-3.8-.5-4.9-1-.3-.1-.4-.5-.4-1,.9.1,1.8.3,2.6.6"/>
    <path class="st3" d="M234.6,87.1c0,.2,0,.3,0,.5-.5,0-1,.2-1.4.2.1-.7.3-1.6.4-2.4.2.3.4.6.5.9.1.2.3.5.4.8"/>
    <path class="st3" d="M234.5,84.9c-.2-.3-.4-.5-.7-.8,0-.2,0-.4,0-.6,0-1.8.2-4.2.3-5.8.1.3.2.5.3.8,0,2,0,4.3,0,6.3"/>
    <path class="st3" d="M242.5,92.6c.1-.2.2-.3.3-.5.7,0,1.7.1,2.9,0,2.3-.2,4.7,0,7.1.3,0,.3-.2.6-.2.8-1.9-.3-4.1-.6-6-.6-1.6,0-2.9,0-4.1-.1"/>
    <path class="st3" d="M255.3,92.8c.5,0,1.1.2,1.6.3,0,.3-.2.7-.2,1-.5,0-1.1-.2-1.9-.4.2-.3.4-.6.6-.8"/>
    <path class="st3" d="M290.3,199.5c.6-2,1.7-5.7,2.9-8.7.7-1.7,1.4-4.1,1.9-6.2,0,0,.1,0,.2-.1.3-.2.5-.5.8-.8-.8,3.8-2.5,7.5-3.4,10.6-1.1,4.2-1.4,7-4.4,7.9.8-.7,1.7-1.7,2-2.6"/>
    <path class="st3" d="M290.1,134.2c0-.2,0-.4,0-.4,0,0,0,.1,0,.4,0,.2,0,.6,0,1,0,.4,0,.9-.1,1.4,0,.2,0,.5-.1.7,0-.4-.2-.8-.3-1.2,0-.3.1-.7.2-.9,0-.4.1-.8.2-1"/>
    <path class="st3" d="M297.2,178.6c0-.2,0-.4,0-.4,0,0,0,.1,0,.4,0,.2,0,.6,0,1.1,0,.4-.2.9-.5,1.4-.2.5-.6,1-1,1.4-.1.1-.2.2-.3.3.2-1,.3-1.9.3-2.5,0-2.2-1.1-10.4-1.5-15.2-.2-2.2-.1-4.6-.1-6.9.2-.2.4-.5.5-.8.3,6.1,1.2,16.4,1.7,20.9,0,.8.1,1.5,0,2.3.2-.4.4-.7.5-1.1.1-.4.2-.7.2-1"/>
    <path class="st3" d="M295,153.6c-.2.6-.4,1.3-.6,1.9,0,0,0,0,0,.1,0,0,0,.1,0,.2,0,.1,0,.2-.1.3,0-2-.3-3.9-.8-5.6-.8-2.6-1.8-6.5-2.8-10.5,0-.2.1-.3.2-.5.2.7.4,1.4.6,2.1,1.5,6.3,3,7.1,3.2,11.5,0-.5.2-1,.2-1.4,0-.6,0-1.2,0-1.6,0-.5,0-.9,0-1.2,0-.3,0-.4,0-.4,0,0,0,.1.1.4,0,.3.2.7.3,1.2,0,.5.1,1.1.1,1.7,0,.6-.1,1.3-.2,1.9"/>
    <path class="st3" d="M259.8,182.1c.5-1.1,1-2,1.5-3,.4-.2.8-.4,1.2-.6,0,0,.1-.1.2-.2-.6,1.2-1.3,2.4-1.9,3.7-.4.8-.8,1.5-1.1,2,0,0,0,0,0,0,.5-.4,1-.8,1.4-1.2.4-.4.8-.6,1-.9.2-.2.4-.3.4-.3,0,0-.1.1-.3.4-.2.2-.5.6-.9,1s-.8.9-1.3,1.3c-.5.4-1.1.9-1.7,1.4-.2.1-.4.3-.6.4-.3.3-.6.5-.9.8-.6.5-1.2.9-1.8,1.3.2-.3.4-.6.6-.9,1.2-1.2,2.6-2.2,4.1-5.3"/>
    <path class="st3" d="M266.4,172.3c-.2.6-.5,1.2-1,1.9-.4.6-1,1.3-1.5,1.9-.3.3-.6.5-.9.8-.3.3-.7.6-1,.9.6-1.3,1.1-2.6,1.5-4,.9-2.7,0-5.5-.4-10-.3-2.8,0-5.8.5-8.8,0,4.8,0,9.8,1,12.8.8,2.6.6,4.6,0,6.6,0,0,0,0,0,0,0,0,0,0,0,.1,0,0,0,.1,0,.2.2-.2.4-.5.6-.7.4-.6.8-1.2,1.1-1.7.3-.5.5-1,.6-1.3.1-.3.2-.5.2-.5,0,0,0,.2-.1.6,0,.3-.2.8-.5,1.4"/>
    <path class="st3" d="M250.5,201.2c1-.7,1.7-1.5,2.1-2.3.2-.2.4-.3.6-.5,0,0,0,0,.1-.1-.2.4-.4.8-.6,1.2-.6.7-1.4,1.4-2.2,1.8"/>
    <path class="st3" d="M255,191.5c-.2,1.9-.7,3.8-1.2,5.4-.2.2-.5.5-.7.7.5-1.6.5-3.2.7-4.3.2-1.4.5-2.7.8-3.8.1,0,.3,0,.4-.1.2-.1.4-.2.6-.3-.2.6-.4,1.4-.5,2.4"/>
    <path class="st3" d="M293.1,205.5c.1.1.2.3.3.4-.2,0-.4,0-.5,0-.6-.9-1-1.8-1.3-3,0,0,.2-.1.3-.2.3.9.6,1.9,1.3,2.9"/>
    <path class="st3" d="M299.9,212.9c-.2-.8-1-1.7-2.2-2.7,0,0,.2,0,.3,0h.4c1.1,1,1.9,1.9,2,2.9.1,1.4-.5,2.8-1.1,3.8,0,0,0,0,0,0-.2.4-.4.7-.6.9,0,0,0,0,0,0,0,.1-.2.2-.2.3h0s2-4.1,1.7-5.4"/>
    <path class="st3" d="M294,207.1h.6c.8.7,1.6,1.4,2.5,2-.1,0-.3,0-.5-.1-.1,0-.3,0-.4,0-.3-.2-.6-.4-.9-.7-.5-.4-1-.8-1.4-1.2"/>
    <path class="st3" d="M259.1,212c0,0,.1,0,.2,0,.2,0,.4,0,.5,0,.9,1.1,1.6,2.1,1.5,3.1,0,1.4-.9,2.7-1.6,3.7,0,0,0,0,0,0-.3.3-.5.6-.7.9,0,0,0,0,0,0-.1.1-.2.2-.3.3,0,0,0,0,0,0,0,0,2.3-3.3,2.1-5.1-.2-1.4-.7-2.3-1.6-3.1"/>
    <path class="st3" d="M257.4,210.5c-.8-.7-1.5-1.5-2-2.2.3,0,.6,0,.9.1.7.9,1.6,1.7,2.4,2.5-.2,0-.4-.2-.7-.3-.2,0-.4-.1-.6-.1"/>
    <path class="st3" d="M253.6,201.7c.6,1.4.5,3.3,1.5,5,0,.1.1.2.2.4-.2,0-.5-.1-.7-.2-.6-1.3-1.3-3.4-1.5-4.8.2-.1.4-.3.5-.4"/>
    <path class="st6" d="M240.9,61.5c-1.1-1.1-2.3-2.3-3.6-3.3-.7-.5-1.4-.9-2.1-1.3-.7-.4-1.5-.7-2.3-.9-1.5-.4-3-.5-4.2-.5-1.2,0-2.2,0-3,.2-.7,0-1.1.2-1.1.2,0,0,.4,0,1.1,0,.7,0,1.7,0,2.9.2.9,0,2,.3,3.1.5-2-.4-4-.5-6.4-.6-3.2,0-6.7-.2-11.3-1.1-1.1-.2-2-.5-2.9-.8.5.1,1,.2,1.5.4,1.5.3,3,.5,4.2.7,1.2,0,2.3.1,3,.1.7,0,1.1,0,1.1,0,0,0-.4,0-1.1-.2-.7-.1-1.7-.3-2.9-.5-1.2-.2-2.6-.5-4.1-1-1.5-.4-3.1-.8-4.4-1.6-.6-.4-1.2-.9-1.6-1.5-.4-.6-.6-1.3-.5-2,0,0,0,0,0,0,.4,1.3,2,2.6,4.9,4,6.9,3.2,19.7-.7,26.7,4.3,7,5,7.8,9.2,6.8,11.8-.4,1.2-1.6,2.5-3,2.8-.2-.3-.4-.6-.5-1.1-.2-1,.1-1.9.3-2.1.4-.4.8-1,.9-1.1.3-.8.2-1.9-.4-3.1.3.4.5.8.7,1.2.4,1.1.3,2.1,0,2.7-.1.3-.3.6-.4.7-.1.2-.2.2-.2.2,0,0,0,0,.2-.2.1-.1.4-.3.6-.6.4-.6.7-1.7.3-3-.4-1.3-1.3-2.5-2.3-3.6"/>
  </g>
</svg>