<?xml version="1.0" encoding="UTF-8"?>
<svg id="Layer_1" data-name="Layer 1" xmlns="http://www.w3.org/2000/svg" viewBox="0 0 323.63 141">
  <defs>
    <style>
      .cls-1 {
        fill: #bdbdbd;
      }

      .cls-2 {
        fill: #969696;
      }

      .cls-3 {
        fill: #006d8e;
      }

      .cls-4 {
        fill: #fff;
      }

      .cls-5 {
        fill: #211c24;
      }

      .cls-6 {
        fill: #6ccbe2;
      }

      .cls-7 {
        fill: #009fc7;
      }
    </style>
  </defs>
  <g>
    <path class="cls-7" d="M28.75,52.69c-.76-1.48-1.53-2.95-2.3-4.42l8.04-1.02-8.94-.7c-.49-.93-.97-1.87-1.47-2.8-5.22-9.74-10.66-19.36-16.38-28.82l7.71-.98-8.62-.68-.27-4.13c-.07-1.2-.17-2.4-.26-3.59,1.57-.13,3.15-.27,4.72-.42l28.87,47.28-11.1.27Z"/>
    <path class="cls-7" d="M80.43,68.02l-2.74.07-1.62-6.74-.44,6.79-7.9.19c.96-1.11,1.53-2.57,1.49-4.15l-.15-6.31c-.08-3.4-2.91-6.09-6.31-6.01l-16.56.4L16.63,8.46l26.75,43.87-1.61.04L12.82,4.96s.05,0,.07,0c1.32-.12,2.64-.29,3.96-.43,1.32-.14,2.64-.31,3.96-.49,3.87-.09,7.6,1.44,10.29,4.22,12.38,12.85,47.75,49.85,48.36,53.59.28,1.76.64,4.04.97,6.18"/>
  </g>
  <polygon class="cls-2" points="22.59 110.3 20.44 109.88 20.47 111.11 22.62 111.43 22.66 112.86 20.51 112.49 20.53 113.59 22.68 113.84 22.78 117.91 22.8 118.59 20.65 118.56 20.77 123.28 22.9 122.89 22.94 124.46 20.81 124.85 20.84 126.05 22.96 125.52 22.98 126.05 20.33 126.71 19.9 109.24 22.58 109.77 22.59 110.3"/>
  <g>
    <path class="cls-1" d="M28.51,119.65c-1.21-.42-2.39-.88-3.48-1.4l.19,7.82c.92.17,2.87.48,5.3.71.1.27.2.53.29.77-3.67-.32-6.32-.86-6.32-.86l-.21-8.82-.02-.85-.19-7.96s1.09-.28,2.83-.61c.38,4.45.97,8.15,1.63,11.2"/>
    <path class="cls-7" d="M40.11,90.71c.01.62-.48,1.14-1.1,1.16-.62.02-1.14-.48-1.16-1.1-.02-.62.48-1.14,1.1-1.16.62-.01,1.14.48,1.16,1.1M33.04,90.88c.02.62-.48,1.14-1.1,1.15-.62.02-1.14-.48-1.15-1.1-.02-.62.48-1.14,1.1-1.16.62-.02,1.14.48,1.16,1.1M25.96,91.05c.01.62-.48,1.14-1.1,1.16-.62.01-1.14-.48-1.16-1.1-.01-.62.48-1.14,1.1-1.16.62-.02,1.14.48,1.16,1.1M34.14,75.48c-.89,1.61-1.86,3.75-2.73,6.47,1.2,0,2.4-.01,3.59,0h2.69s1.34.01,1.34.01c.37-.02,1.11.02,1.55.19l5.14,1.54c3.42,1.06,6.85,2.11,10.25,3.27-3.54-.62-7.04-1.36-10.55-2.09l-5.25-1.14c-.42-.1-.58-.07-1.1-.05l-1.34.07-2.68.14c-3.57.21-7.15.31-10.72.47h-.34c-.08.02-.14.02-.21.03-.13.02-.26.05-.39.1-.26.09-.49.25-.68.44l-1.7,1.98-.38.45,16.65.34-17.44,1.2s0,.07,0,.1l.02.65.04,1.34.02,1.34v.65s.03.06.03.1l17.48.35-16.62,1.14.41.43,1.79,1.89c.2.18.44.32.7.41.13.04.26.07.4.08.07,0,.13.01.21.01h.34c3.58-.02,7.15-.09,10.73-.06h2.69s1.34.01,1.34.01c.52,0,.69.02,1.1-.1l5.19-1.39c3.47-.9,6.93-1.8,10.43-2.61-3.34,1.32-6.71,2.54-10.07,3.76l-3.75,1.32,31.99-.78c0-.31-.01-.62-.01-.93-5.14-.05-10.29-.11-15.43-.22l15.43-.38c.03-10.15,1.9-18.42,3.25-23.08-5.38.04-10.76.09-16.15.08,5.45-.28,10.89-.49,16.34-.72.2-.67.39-1.25.55-1.74-6.99.17-13.4.33-18.99.46-4.12,2.64-6.45,4-12.38,4.14-4.62.11-10.17.25-12.76.31"/>
    <path class="cls-6" d="M123.78,69.45c-.13.38-.27.82-.42,1.31-6.43.18-12.85.37-19.28.58l-21.35.75c-1.09.05-2.18.09-3.27.14.22-.7.4-1.27.56-1.71,13.21-.32,28.34-.69,43.75-1.07"/>
    <path class="cls-4" d="M312.57,115.1c-.09.05-.19.11-.28.17.09-.06.19-.12.28-.17"/>
    <path class="cls-7" d="M185.62,72.15c4.49,0,8.98-.05,13.47,0-4.48.26-8.97.43-13.45.65l-13.46.51c-.83.03-1.66.05-2.49.08l.16-1.06c.77-.01,1.54-.03,2.31-.04l13.47-.15ZM189.57,70.53c-6.47.22-12.94.41-19.41.58-1.32,4.53-3.15,12.64-3.2,22.65l43.86-1.07c.03-10.13,1.89-18.38,3.23-23.05-1.04.04-2.09.08-3.13.13l-21.36.75Z"/>
    <path class="cls-6" d="M214.26,68.95c-1.11.01-2.23.02-3.35.03l-21.37.29c-6.31.1-12.62.22-18.92.35.16-.52.31-.95.43-1.31,18-.44,33.7-.82,43.75-1.07-.16.48-.34,1.06-.54,1.71"/>
    <path class="cls-6" d="M168.88,69.65c-7.36.16-14.71.32-22.07.46-7.23.21-14.46.4-21.7.6.16-.51.31-.95.43-1.3,14.87-.36,29.94-.73,43.75-1.07-.12.38-.26.82-.41,1.3"/>
    <path class="cls-4" d="M313.09,114.75c-.09.06-.18.12-.27.17.09-.06.18-.11.27-.17"/>
    <path class="cls-7" d="M168.43,71.16c-.11.38-.22.77-.33,1.2-7.62.11-15.25.27-22.88.44-6.96.18-13.92.38-20.88.61l-.18,1.13c7.03-.11,14.06-.25,21.09-.41,7.52-.2,15.05-.41,22.57-.67-1.2,4.84-2.48,11.95-2.51,20.35l-43.86,1.07c.04-10,1.88-18.12,3.2-22.64,7.4-.16,14.8-.32,22.2-.47,7.19-.21,14.39-.4,21.58-.6"/>
    <path class="cls-7" d="M108.93,96.7l-32.98.81c0-.29,0-.59,0-.87,3.33.03,6.66.06,9.99.09l23-.02Z"/>
    <path class="cls-4" d="M271.56,123.68c-.22.02-.45.04-.68.05.22-.01.45-.03.68-.05"/>
    <path class="cls-4" d="M256.52,124.46c-.31.01-.62.02-.94.03.31-.01.62-.02.94-.03"/>
    <path class="cls-4" d="M291.29,121.53c-.09.02-.18.03-.27.05.09-.02.18-.03.27-.05"/>
    <path class="cls-4" d="M264.55,124.11c-.2.01-.4.02-.6.03.2,0,.4-.02.6-.03"/>
    <path class="cls-4" d="M261.56,124.26c-.18.01-.38.02-.56.02.19,0,.38-.01.56-.02"/>
    <path class="cls-4" d="M259.1,124.36c-.3.02-.59.03-.9.04.3-.01.6-.02.9-.04"/>
    <path class="cls-4" d="M287.92,122.03c-.2.03-.4.05-.59.08.2-.03.4-.05.59-.08"/>
    <path class="cls-4" d="M311.41,115.77c-.09.05-.19.1-.28.15.09-.05.19-.1.28-.15"/>
    <path class="cls-4" d="M289.51,121.81c-.16.02-.32.04-.49.07.16-.03.32-.05.49-.07"/>
    <path class="cls-4" d="M310.54,116.23c-.1.05-.2.1-.3.15.1-.05.2-.1.3-.15"/>
    <path class="cls-4" d="M312.02,115.43c-.1.06-.19.12-.29.17.1-.06.19-.11.29-.17"/>
    <path class="cls-4" d="M293,121.25c-.17.03-.34.06-.51.09.17-.03.34-.06.51-.09"/>
    <path class="cls-4" d="M278.4,123.12c-.23.02-.47.04-.7.06.23-.02.47-.04.7-.06"/>
    <path class="cls-4" d="M282.16,122.74c-.12.01-.25.03-.37.04.12-.01.25-.03.37-.04"/>
    <path class="cls-4" d="M280.32,122.93c-.22.02-.43.04-.65.06.22-.02.44-.04.65-.06"/>
    <path class="cls-4" d="M284.4,122.48c-.16.02-.32.04-.48.06.16-.02.32-.04.48-.06"/>
    <path class="cls-4" d="M286.25,122.25c-.2.03-.41.05-.62.08.21-.03.41-.05.62-.08"/>
    <path class="cls-4" d="M253.75,124.55c-.27,0-.54.02-.81.02.27,0,.54-.02.81-.02"/>
    <path class="cls-4" d="M273.85,123.51c-.06,0-.13.01-.19.02.06,0,.13-.01.19-.02"/>
    <path class="cls-4" d="M309.86,116.56c-.11.05-.22.1-.33.15.11-.05.22-.1.33-.15"/>
    <path class="cls-4" d="M267.08,123.97c-.27.02-.54.03-.81.04.27-.02.54-.03.81-.04"/>
    <path class="cls-4" d="M269.38,123.83c-.27.02-.54.04-.81.05.27-.02.54-.03.81-.05"/>
    <path class="cls-4" d="M276.36,123.3c-.22.02-.44.04-.66.06.22-.02.44-.04.66-.06"/>
    <path class="cls-4" d="M313.79,114.26c-.15.11-.3.22-.46.33.15-.11.31-.22.46-.33"/>
    <path class="cls-4" d="M298.72,120.12c-.14.03-.27.06-.41.09.14-.03.27-.06.41-.09"/>
    <path class="cls-4" d="M295.8,120.74c-.16.03-.32.06-.48.1.16-.03.32-.06.48-.1"/>
    <path class="cls-4" d="M297.1,120.48c-.09.02-.18.04-.27.05.09-.02.18-.04.27-.05"/>
    <path class="cls-4" d="M299.97,119.83c-.15.04-.3.07-.45.11.15-.04.3-.07.45-.11"/>
    <path class="cls-4" d="M301.12,119.55c-.14.03-.29.07-.44.11.15-.04.3-.07.44-.11"/>
    <path class="cls-4" d="M314.24,113.92c-.08.06-.16.13-.24.19.08-.06.16-.12.24-.19"/>
    <path class="cls-4" d="M294.44,120.99c-.18.03-.35.06-.53.1.18-.03.35-.06.53-.1"/>
    <path class="cls-4" d="M314.65,113.58c-.08.07-.15.13-.23.2.08-.07.15-.13.23-.2"/>
    <path class="cls-4" d="M309.15,116.88c-.11.04-.23.1-.34.15.11-.05.23-.1.34-.15"/>
    <path class="cls-4" d="M306.43,117.95c-.12.04-.24.08-.36.13.12-.04.24-.08.36-.13"/>
    <path class="cls-4" d="M307.39,117.6c-.11.04-.24.09-.35.13.12-.04.24-.09.35-.13"/>
    <path class="cls-4" d="M308.37,117.21c-.11.05-.22.09-.33.14.11-.05.22-.09.33-.14"/>
    <path class="cls-4" d="M304.59,118.57c-.13.04-.26.08-.39.12.13-.04.26-.08.39-.12"/>
    <path class="cls-4" d="M303.51,118.9c-.1.03-.2.06-.3.09.1-.03.2-.06.3-.09"/>
    <path class="cls-4" d="M302.21,119.26c-.12.03-.25.07-.38.1.13-.03.25-.07.38-.1"/>
    <path class="cls-4" d="M305.54,118.26c-.13.04-.26.09-.39.13.13-.04.26-.09.39-.13"/>
    <path class="cls-7" d="M82.75,72.91l21.36-.29c6.27-.09,12.53-.22,18.8-.35-.11.38-.22.78-.33,1.2-1.43.05-2.86.09-4.29.14l-13.46.51c-4.49.22-8.97.39-13.46.65,4.49.04,8.98,0,13.47,0l13.47-.15c1.33-.01,2.66-.04,3.99-.06-1.21,4.84-2.48,11.95-2.51,20.35l-43.85,1.07c.04-10.33,1.99-18.63,3.31-23.05,1.16,0,2.33-.02,3.5-.02"/>
    <path class="cls-7" d="M38.08,106.53c-2.83,0-5.68,0-8.56,0l.07.73c.24,2.07.46,4.13.76,6.18.28,2.06.63,4.11,1.01,6.15.39,2.04.86,4.06,1.39,6.08-.44-.95-.78-1.94-1.13-2.93-.32-1-.61-2-.88-3.02-.54-2.03-.91-4.1-1.21-6.17-.28-2.08-.49-4.16-.57-6.25-.04-.82-.05-1.64-.06-2.47l8.32-.2c.25,0,.5-.02.75-.04.02.64.06,1.28.1,1.93"/>
    <path class="cls-6" d="M27.88,56.35s.55-.04,1.51-.12c.96-.05,2.32-.17,3.97-.25,1.64-.07,3.56-.2,5.62-.26,2.05-.07,4.24-.14,6.44-.21,2.19-.03,4.39-.07,6.44-.1,2.06-.03,3.98,0,5.62-.01,1.64,0,3.02.05,3.98.06.96.03,1.51.05,1.51.05,0,0-.55.04-1.5.12-.96.06-2.33.17-3.97.25-1.64.08-3.56.2-5.61.26-2.05.07-4.24.14-6.44.21-2.19.03-4.38.07-6.44.1-2.06.04-3.98,0-5.62.01-1.64,0-3.02-.05-3.98-.06-.96-.03-1.51-.04-1.51-.04M24.9,58.95c-.28,2.02-.3,4.04-.27,6.05,0,.5.08,1.11.29,1.61.22.51.53.99.94,1.35.8.75,1.94,1.09,2.95.88-1.01-.14-1.89-.63-2.49-1.34-.6-.71-.9-1.57-.87-2.53,0-.22-.02-.45-.03-.67l39.29-.96c.08.58.2,1.15.37,1.71.14.49.32.97.57,1.42.14.22.27.45.46.64.17.18.43.37.7.32-.26-.05-.4-.26-.51-.46-.12-.2-.2-.43-.27-.66-.14-.46-.23-.93-.31-1.41-.15-.96-.25-1.93-.31-2.9-.07-.97-.09-1.95-.09-2.93,0-.98.04-1.95.16-2.95.06-.19.12-.36.19-.51-.7-.8-1.72-1.31-2.86-1.28l-34.33.84c-2.03.05-3.63,1.73-3.58,3.77"/>
    <path class="cls-5" d="M185.63,72.8l-13.46.51c-.83.03-1.66.05-2.49.08l.16-1.06c.77-.01,1.54-.03,2.31-.04l13.47-.15c4.49,0,8.98-.05,13.47,0-4.48.26-8.97.43-13.46.65"/>
  </g>
  <polygon class="cls-5" points="253.22 73.28 256.86 72.34 259.38 77.67 253.75 79.53 253.22 73.28"/>
  <polygon class="cls-5" points="245.75 79.73 247.25 73.64 251.01 73.55 250.79 79.61 245.75 79.73"/>
  <g>
    <path class="cls-7" d="M293.8,110.48c.02.91-.7,1.67-1.62,1.7-.91.02-1.67-.7-1.69-1.62-.02-.91.7-1.68,1.61-1.7.91-.02,1.68.7,1.7,1.62M289.11,110.59c.02.91-.7,1.67-1.61,1.7-.92.02-1.67-.7-1.7-1.61-.02-.92.7-1.68,1.61-1.7.92-.02,1.67.7,1.7,1.62M287.51,113.14c.45-.01.82.34.83.79-.07.32-.3.55-.54.62-.25.07-.51.01-.68-.16-.18-.16-.25-.43-.19-.67.06-.25.28-.49.59-.58M292.21,113.02c.45-.01.82.34.83.79-.08.32-.3.55-.55.62s-.51.01-.68-.16c-.18-.16-.25-.43-.19-.67.06-.25.28-.49.59-.58M266.92,78.28c-1.02.1-2.04.16-3.07.23-1.01.08-2.02.12-3.02.18-2.47.92-4.96,1.8-7.46,2.65l-.05.02h-.06c-3.5.09-6.99.16-10.49.16h-.43s.13-.4.13-.4c.78-2.38,1.57-4.74,2.45-7.08-.53,2.3-1.13,4.57-1.75,6.84,3.34-.17,6.68-.27,10.01-.34,2.5-.84,5-1.63,7.52-2.39l.05-.02h.03c1.02.01,2.05,0,3.07.04,1.03.02,2.05.04,3.07.09M259.39,77.61l-5.5,1.81-.51-6.1,3.55-.92,2.46,5.2ZM251.01,73.59l-.22,5.91-4.92.12,1.46-5.94,3.67-.09ZM314.69,113.55c1.04-.8,1.97-1.78,2.66-2.94.67-1.17,1.06-2.5,1.2-3.84.16-1.32.05-2.76-.46-4.04-.5-1.28-1.27-2.43-2.14-3.45-1.79-2.02-3.91-3.66-6.16-5.06-2.24-1.41-4.58-2.64-7-3.69,0,0,0,0,.01,0-13.82-7.07-32.36-12.24-35.56-13.11l-5.76.14-2.58-5.2,3.87-.09c-5.75-5.42-13.34-6.32-21.49-6.12-5.2.13-10.62.7-15.93.83-1.53.04-4.57.11-8.78.21-.16.45-.35,1.03-.57,1.74,5.43-.04,10.86-.09,16.29-.08-5.49.28-10.99.5-16.48.72-1.32,4.42-3.28,12.73-3.32,23.08l62.8-1.53c-9,.63-18.01,1.11-27.02,1.64l-23.13,1.11,79.96-1.95c.36.22.72.43,1.07.66.49.31.98.61,1.47.93l-18.41.45c-12.16,1.15-42.66,3.89-61.95,4.36-24.53.6-160.55,3.92-170.28,4.16-3.82.09-7.21.07-10.22-.03l-5.4,1.57c-1.06.3-2.14.5-3.22.59.02.22.06.42.09.63,0,.12.02.25.03.4.05.64.1,1.56.32,2.64.09.54.19,1.13.34,1.74.14.61.27,1.27.49,1.92.4,1.32.88,2.71,1.45,4.07.58,1.35,1.27,2.66,1.93,3.86.68,1.2,1.41,2.27,2.04,3.16.59.84,1.16,1.49,1.57,1.97.06-.01.13-.03.19-.03-.35-.53-.82-1.29-1.37-2.2-.58-.92-1.16-2.05-1.8-3.24-.62-1.2-1.27-2.5-1.8-3.85-.59-1.32-1.1-2.67-1.53-3.96-.23-.64-.4-1.27-.59-1.86-.2-.59-.35-1.16-.47-1.69-.16-.61-.3-1.15-.41-1.63,14.3.05,27.94.4,41.03.95-.1-1.29-.15-2.58-.12-3.87.09,1.06.22,2.11.4,3.16.04.44.1.92.2,1.46.16,1.03.41,2.23.76,3.5.2.63.4,1.27.61,1.93.24.65.47,1.31.74,1.96.54,1.19,1.1,2.35,1.71,3.42.26-.03.52-.06.78-.09,0,0,0,0,0-.01-.62-1.12-1.19-2.38-1.72-3.64-.27-.63-.51-1.27-.77-1.9-.22-.64-.44-1.27-.65-1.88-.36-1.24-.76-2.38-.99-3.39-.06-.21-.11-.42-.16-.61,14.11.6,27.59,1.42,40.56,2.33-.38-2.26-.55-4.54-.5-6.81.15,1.79.44,3.57.85,5.31.1.79.25,1.64.45,2.52.19.64.35,1.31.57,1.97.24.65.44,1.34.73,1.99.3.65.58,1.3.92,1.9.26.52.55,1.01.85,1.48.28,0,.56,0,.84.01-.02-.03-.03-.06-.05-.09-.33-.56-.65-1.14-.94-1.76-.32-.6-.57-1.24-.85-1.87-.29-.63-.5-1.28-.76-1.91-.23-.64-.4-1.29-.6-1.91-.06-.26-.13-.5-.19-.75,14.19,1.01,27.79,2.11,40.99,3.12-1.1-3.6-1.58-7.34-1.5-11.03.32,3.87,1.25,7.65,2.79,11.13,0,0,0,0,.02,0,.03.08.04.15.07.23.55,1.33,1.17,2.63,1.85,3.8.38.67.79,1.29,1.2,1.86.23,0,.46.01.69.02-.41-.68-.83-1.43-1.26-2.23-.61-1.11-1.16-2.35-1.65-3.61,13.85,1.06,27.28,2.01,40.48,2.63-.43-.96-.81-1.94-1.13-2.93-1.3-3.86-1.86-7.91-1.77-11.9.33,3.92,1.27,7.77,2.86,11.29,0,.02.01.04.02.07.55,1.33,1.17,2.63,1.85,3.8.66,1.17,1.41,2.19,2.07,3.04.26.34.52.63.76.9.14,0,.28.01.43.01-.25-.35-.52-.75-.81-1.19-.57-.84-1.16-1.86-1.75-2.97,13.28.59,26.37.84,39.48.52.02,0,.04,0,.06,0-.75-1.48-1.41-3-1.92-4.57-1.3-3.86-1.86-7.91-1.77-11.9.33,3.93,1.27,7.77,2.86,11.29,0,.02.02.04.02.06.55,1.33,1.17,2.63,1.85,3.8.66,1.17,1.41,2.19,2.08,3.04.65.85,1.3,1.48,1.73,1.93.46.43.73.65.73.65,0,0-.24-.26-.61-.76-.38-.49-.9-1.21-1.48-2.09-.31-.45-.62-.97-.94-1.51,14.78-.4,26.63-1.08,36.14-1.91.04.06.07.12.12.16.29.28.76.35,1.1.15.19-.1.32-.27.39-.45,1.02-.09,1.99-.19,2.95-.28.04.18.13.35.26.47.29.28.76.35,1.1.15.31-.16.47-.5.43-.8,9.05-.95,15.55-2.03,20.22-3.08.2-1.31.36-3.06.35-5.32-.01-3.53-.3-6.15-.65-8.01.83.73,1.62,1.48,2.34,2.31.84.96,1.56,2.04,2.04,3.19.5,1.15.61,2.41.56,3.71-.06,2.57-1.32,5-3.22,6.83"/>
    <path class="cls-5" d="M260.83,78.69c-2.47.92-4.96,1.8-7.46,2.65l-.06.02h-.06c-3.5.09-6.99.16-10.49.16h-.43s.13-.4.13-.4c.78-2.38,1.57-4.74,2.45-7.08-.53,2.3-1.13,4.57-1.75,6.84,3.34-.17,6.68-.27,10.01-.34,2.5-.84,5-1.63,7.52-2.38l.05-.02h.03c1.02.01,2.05,0,3.07.04,1.03.02,2.05.04,3.07.09-1.02.1-2.04.16-3.07.23-1.01.08-2.02.12-3.02.18"/>
    <path class="cls-5" d="M292.19,112.18c-.91.02-1.67-.7-1.69-1.62-.02-.91.7-1.68,1.61-1.7.91-.02,1.68.7,1.7,1.62.02.91-.7,1.67-1.62,1.7"/>
    <path class="cls-5" d="M293.04,113.81c-.08.32-.3.55-.55.62-.25.07-.51.01-.68-.16-.18-.16-.25-.43-.19-.67.06-.25.28-.49.59-.58.45-.01.82.34.83.79"/>
    <path class="cls-5" d="M287.49,112.29c-.92.02-1.67-.7-1.7-1.61-.02-.91.7-1.68,1.62-1.7.91-.02,1.67.7,1.7,1.62.02.91-.7,1.67-1.62,1.7"/>
    <path class="cls-5" d="M288.34,113.92c-.08.32-.3.55-.54.62-.25.07-.51.01-.68-.16-.18-.16-.25-.43-.19-.67.06-.25.28-.48.59-.58.45-.01.82.34.83.79"/>
  </g>
  <rect class="cls-5" x="177.81" y="114.78" width="5.72" height="1.88" transform="translate(-2.76 4.43) rotate(-1.39)"/>
  <rect class="cls-5" x="174.03" y="118.74" width="5.72" height="1.88" transform="translate(-2.87 4.35) rotate(-1.4)"/>
  <rect class="cls-5" x="138.68" y="112.45" width="5.72" height="1.88" transform="translate(-2.72 3.48) rotate(-1.39)"/>
  <g>
    <path class="cls-5" d="M39.01,91.86c-.62.02-1.14-.48-1.16-1.1-.02-.62.48-1.14,1.1-1.16.62-.02,1.14.48,1.16,1.1.01.62-.48,1.14-1.1,1.16"/>
    <path class="cls-5" d="M31.93,92.04c-.62.02-1.14-.48-1.15-1.1-.02-.62.48-1.14,1.1-1.16.62-.02,1.14.48,1.16,1.1.01.62-.48,1.14-1.1,1.16"/>
    <path class="cls-5" d="M24.86,92.21c-.62.02-1.14-.48-1.16-1.1-.02-.62.48-1.14,1.1-1.16.62-.02,1.14.48,1.16,1.1.01.62-.48,1.14-1.1,1.16"/>
    <path class="cls-3" d="M246.07,123.6l-23.78.46c-7.92.2-15.85.41-23.78.71-15.85.52-31.69,1.27-47.53,2.13-7.92.46-15.84.89-23.75,1.41-7.91.51-15.82,1.1-23.73,1.71-15.81,1.24-31.6,2.57-47.36,4.38-3.89.13-7.79.24-11.68.36,23.65-7.02,76.62-10.86,136.96-12.91,34.03.82,64.62,1.74,64.64,1.74M6.33,136.08l24.93-.34c8.31-.1,16.62-.29,24.92-.43h.03s0,0,0,0c7.88-.82,15.78-1.47,23.67-2.16,7.9-.69,15.8-1.3,23.7-1.89,7.9-.58,15.81-1.12,23.72-1.63,7.91-.56,15.82-1.02,23.73-1.51,7.91-.44,15.83-.91,23.74-1.29,7.92-.43,15.83-.83,23.75-1.2l23.76-1.07,23.77-.97s-88.03-2.62-131.53-3.01c-10.35,1.01-20.71,2.11-31.04,3.33-10.99,1.31-21.98,2.68-32.89,4.54,10.84-2.27,21.78-4.05,32.73-5.77,4.6-.71,9.22-1.41,13.83-2.08-.31,0-.64.01-.93.02-27.54.67-89.89,15.45-89.89,15.45"/>
    <path class="cls-5" d="M216.2,65.77,253.75,124.55c-.27,0-.54.02-.81.02.27,0,.54-.02.81-.02M286.25,122.25c-.2.03-.41.05-.62.08.21-.03.41-.05.62-.08M284.4,122.48c-.16.02-.32.04-.48.06.16-.02.32-.04.48-.06M282.16,122.74c-.12.01-.25.03-.37.04.12-.01.25-.03.37-.04M280.32,122.93c-.22.02-.43.04-.65.06.22-.02.44-.04.65-.06M278.4,123.12c-.23.02-.47.04-.7.06.23-.02.47-.05.7-.06M276.36,123.3c-.22.02-.44.04-.66.06.22-.02.44-.04.66-.06M273.85,123.51c-.06,0-.13.01-.19.02.06,0,.13-.01.19-.02M271.56,123.68c-.22.02-.45.04-.68.05.22-.01.45-.03.68-.05M269.38,123.83c-.27.02-.54.04-.81.05.27-.02.54-.03.81-.05M267.08,123.97c-.27.02-.54.03-.81.04.27-.01.54-.03.81-.04M264.55,124.11c-.2.01-.4.02-.6.03.2,0,.4-.02.6-.03M261.56,124.26c-.18.01-.38.02-.56.02.19,0,.38-.01.56-.02M259.1,124.36c-.3.02-.59.03-.9.04.3-.01.6-.02.9-.04M256.52,124.46c-.31.01-.62.02-.94.03.31-.01.62-.02.94-.03M287.92,122.03c-.2.03-.4.05-.59.08.2-.03.4-.05.59-.08M291.29,121.53c-.09.02-.18.03-.27.05.09-.02.18-.03.27-.05M289.51,121.81c-.16.02-.32.04-.49.07.16-.03.32-.05.49-.07M293,121.25c-.17.03-.34.06-.51.09.17-.03.34-.06.51-.09M312.02,115.43c-.1.06-.19.12-.29.17.1-.06.19-.12.29-.17M311.41,115.77c-.09.05-.19.1-.28.15.09-.05.19-.1.28-.15M310.54,116.23c-.1.05-.2.1-.3.15.1-.05.2-.1.3-.15M309.86,116.56c-.11.05-.22.1-.33.15.11-.05.22-.1.33-.15M309.15,116.88c-.12.04-.23.1-.34.15.12-.05.23-.1.34-.15M308.37,117.21c-.11.05-.22.09-.33.14.11-.05.22-.09.33-.14M307.39,117.6c-.11.04-.24.09-.35.13.12-.04.24-.09.35-.13M306.43,117.95c-.12.04-.24.08-.36.13.12-.04.24-.08.36-.13M305.54,118.26c-.13.04-.26.09-.39.13.13-.04.26-.09.39-.13M304.59,118.57c-.13.04-.26.08-.39.12.13-.04.26-.08.39-.12M303.51,118.9c-.1.03-.2.06-.3.09.1-.03.2-.06.3-.09M302.21,119.26c-.12.03-.25.07-.38.1.13-.03.25-.07.38-.1M301.12,119.55c-.14.03-.29.07-.44.11.15-.04.3-.07.44-.11M299.97,119.83c-.15.04-.3.07-.45.11.15-.04.3-.07.45-.11M298.72,120.12c-.14.03-.27.06-.41.09.14-.03.27-.06.41-.09M297.1,120.48c-.09.02-.18.04-.27.05.09-.02.18-.04.27-.05M295.8,120.73c-.16.03-.32.06-.48.1.16-.03.32-.06.48-.1M294.44,120.99c-.18.03-.35.06-.53.1.18-.03.35-.06.53-.1M314.65,113.58c-.08.07-.15.13-.23.2.08-.07.15-.13.23-.2M314.24,113.92c-.08.06-.16.13-.24.19.08-.06.16-.13.24-.19M313.79,114.26c-.15.11-.3.22-.46.33.15-.11.31-.22.46-.33M313.09,114.75c-.09.06-.18.12-.27.17.09-.06.18-.12.27-.17M312.57,115.1c-.09.05-.19.11-.28.17.09-.06.19-.12.28-.17M123.78,69.45c-.13.38-.27.82-.42,1.31-6.43.18-12.85.37-19.28.58l-21.35.75c-1.09.05-2.18.09-3.27.14.22-.7.4-1.27.56-1.71,13.21-.32,28.34-.69,43.75-1.07M37.98,104.61c.02.64.06,1.28.1,1.92-2.83,0-5.68,0-8.56.01l.07.73c.24,2.07.46,4.13.76,6.19.28,2.06.63,4.1,1.01,6.14.39,2.04.86,4.06,1.39,6.08-.44-.95-.78-1.94-1.13-2.93-.32-1-.61-2-.88-3.02-.54-2.03-.91-4.1-1.21-6.17-.28-2.08-.49-4.16-.57-6.25-.04-.82-.05-1.64-.06-2.47l8.32-.2c.25,0,.5-.02.75-.04M79.25,72.93c1.16,0,2.33-.02,3.5-.02l21.36-.29c6.27-.09,12.53-.22,18.8-.35-.11.38-.22.78-.33,1.2-1.43.05-2.86.09-4.29.14l-13.46.51c-4.49.22-8.97.39-13.46.65,4.49.04,8.98,0,13.47,0l13.47-.15c1.33-.01,2.66-.04,3.99-.06-1.21,4.84-2.48,11.95-2.51,20.35l-43.85,1.07c.04-10.33,1.99-18.62,3.31-23.05M170.16,71.11c6.47-.18,12.94-.37,19.41-.58l21.36-.75c1.04-.05,2.09-.09,3.13-.13-1.35,4.67-3.2,12.92-3.23,23.05l-43.86,1.07c.04-10.01,1.88-18.12,3.2-22.65M75.94,96.64c3.33.03,6.66.06,9.99.09l23-.02-32.98.8c0-.29,0-.59,0-.87M124.65,72.23c7.4-.16,14.8-.32,22.2-.47,7.19-.21,14.39-.4,21.58-.6-.11.38-.22.77-.33,1.2-7.63.11-15.25.27-22.88.44-6.96.18-13.92.38-20.88.61l-.18,1.13c7.03-.11,14.06-.25,21.09-.41,7.52-.2,15.05-.41,22.57-.67-1.2,4.84-2.48,11.95-2.51,20.35l-43.86,1.07c.04-10,1.88-18.12,3.2-22.64M10.98,5.14l28.87,47.28-11.1.27c-.76-1.48-1.53-2.95-2.3-4.42l8.04-1.02-8.94-.7c-.49-.93-.97-1.87-1.47-2.8-5.22-9.74-10.66-19.36-16.38-28.82l7.71-.98-8.62-.67-.27-4.13c-.07-1.2-.17-2.4-.26-3.59,1.57-.13,3.15-.27,4.72-.42M169.29,68.34c-.12.38-.26.82-.41,1.3-7.35.15-14.71.32-22.07.46-7.23.21-14.46.4-21.7.6.16-.51.31-.95.43-1.3,14.87-.36,29.94-.73,43.75-1.07M214.8,67.23c-.16.48-.34,1.06-.54,1.71-1.11.01-2.23.02-3.35.03l-21.37.29c-6.31.1-12.62.22-18.92.35.16-.52.31-.95.43-1.31,18-.44,33.7-.82,43.75-1.07M90.95,99.83l19.88-.6,39.77-1.07,39.78-.87,19.89-.37,19.89-.28-19.88.68-19.88.6-39.77,1.07-39.78.87-19.89.37-19.89.29,19.88-.69ZM22.58,109.77v.53s-2.14-.42-2.14-.42l.03,1.24,2.15.31.03,1.43-2.15-.37.03,1.1,2.15.25.1,4.07.02.68-2.14-.03.12,4.73,2.13-.39.04,1.57-2.13.39.03,1.19,2.13-.53v.54s-2.63.65-2.63.65l-.43-17.46,2.68.52ZM26.88,108.45c.38,4.45.97,8.15,1.63,11.2-1.21-.42-2.39-.88-3.48-1.4l.19,7.82c.92.17,2.87.48,5.3.71.1.27.2.53.29.77-3.67-.32-6.32-.86-6.32-.86l-.21-8.82-.02-.85-.19-7.96s1.09-.28,2.83-.61M31.41,81.95c.87-2.71,1.84-4.85,2.73-6.47,2.59-.06,8.14-.2,12.76-.31,5.93-.14,8.26-1.5,12.38-4.14,5.59-.14,12-.29,18.99-.46-.16.49-.35,1.07-.55,1.74-5.45.23-10.89.44-16.34.72,5.39.01,10.77-.04,16.15-.08-1.35,4.66-3.21,12.93-3.24,23.08l-15.43.38c5.14.11,10.29.17,15.43.22,0,.3,0,.62.01.93l-31.99.78,3.75-1.33c3.37-1.22,6.74-2.44,10.07-3.76-3.5.8-6.96,1.71-10.43,2.61l-5.18,1.39c-.41.12-.58.1-1.1.1h-1.34s-2.69-.01-2.69-.01c-3.58-.03-7.16.04-10.73.06h-.34c-.08,0-.14,0-.21-.01-.13-.01-.27-.04-.4-.08-.26-.08-.5-.23-.7-.41l-1.79-1.89-.41-.43,16.62-1.14-17.48-.35s-.01-.06-.01-.1v-.66s-.04-1.34-.04-1.34l-.04-1.34-.02-.65s0-.07,0-.1l17.44-1.2-16.65-.34.38-.45,1.7-1.98c.19-.19.42-.35.68-.44.13-.05.26-.08.39-.1.07,0,.13-.01.21-.02h.34c3.57-.17,7.15-.28,10.72-.48l2.68-.14,1.34-.07c.52-.02.69-.05,1.1.05l5.25,1.14c3.5.73,7.01,1.46,10.55,2.09-3.4-1.16-6.82-2.21-10.25-3.27l-5.14-1.54c-.45-.17-1.18-.21-1.55-.19h-1.34s-2.69-.01-2.69-.01c-1.2,0-2.4,0-3.59,0M28.49,55.18l34.33-.84c1.14-.03,2.16.48,2.85,1.28-.07.15-.13.33-.19.51-.12,1-.15,1.97-.16,2.95,0,.98.02,1.95.09,2.93.06.97.16,1.94.31,2.9.08.48.17.95.31,1.41.07.23.15.46.27.66.11.2.25.42.51.46-.26.05-.52-.14-.7-.32-.19-.19-.32-.42-.46-.64-.25-.46-.42-.94-.57-1.42-.17-.56-.28-1.14-.37-1.71l-39.3.96c.01.23.02.45.03.67-.03.96.27,1.82.87,2.53.6.7,1.47,1.19,2.49,1.34-1.01.21-2.15-.14-2.95-.88-.41-.37-.72-.84-.94-1.35-.22-.5-.29-1.11-.29-1.61-.03-2.01-.01-4.03.27-6.05-.05-2.03,1.55-3.72,3.58-3.77M31.1,8.25c12.38,12.85,47.75,49.85,48.36,53.59.28,1.76.64,4.04.97,6.18l-2.74.07-1.62-6.74-.44,6.79-7.9.19c.96-1.11,1.53-2.57,1.49-4.15l-.15-6.31c-.08-3.4-2.91-6.09-6.31-6.01l-16.56.4L16.63,8.46l26.75,43.87-1.61.04L12.82,4.96s.05,0,.07,0c1.32-.12,2.64-.29,3.96-.43,1.32-.15,2.64-.31,3.96-.49,3.87-.09,7.6,1.43,10.29,4.22M317.91,106.72c.06-1.3-.05-2.55-.56-3.71-.48-1.16-1.2-2.23-2.04-3.19-.72-.83-1.51-1.58-2.34-2.31.34,1.86.63,4.48.65,8.01,0,2.26-.15,4-.35,5.32-4.67,1.05-11.16,2.13-20.22,3.08.04.3-.12.64-.43.8-.33.2-.8.13-1.1-.15-.13-.12-.22-.29-.26-.47-.96.1-1.93.19-2.95.28-.07.18-.2.36-.39.45-.34.2-.81.13-1.1-.15-.05-.04-.09-.1-.12-.16-9.5.83-21.36,1.51-36.14,1.91.32.54.63,1.06.94,1.51.58.88,1.1,1.6,1.48,2.09.38.5.61.76.61.76,0,0-.28-.23-.73-.65-.43-.45-1.08-1.07-1.73-1.93-.66-.85-1.41-1.86-2.08-3.04-.68-1.17-1.3-2.47-1.85-3.8,0-.02-.02-.04-.02-.06-1.58-3.53-2.53-7.37-2.86-11.29-.09,3.99.47,8.04,1.77,11.9.51,1.57,1.16,3.09,1.92,4.57-.02,0-.04,0-.06,0-13.11.32-26.2.07-39.48-.52.59,1.1,1.18,2.13,1.75,2.97.29.44.56.84.81,1.19-.14,0-.29,0-.43-.01-.24-.27-.5-.56-.76-.9-.66-.85-1.41-1.86-2.07-3.04-.68-1.17-1.3-2.47-1.85-3.8,0-.02-.02-.04-.02-.07-1.59-3.52-2.53-7.36-2.86-11.29-.09,3.99.47,8.04,1.77,11.9.32,1,.71,1.97,1.13,2.93-13.21-.62-26.63-1.57-40.48-2.63.49,1.26,1.04,2.49,1.65,3.61.42.8.84,1.55,1.26,2.23-.23,0-.46-.01-.69-.02-.41-.57-.82-1.19-1.2-1.86-.68-1.17-1.3-2.47-1.85-3.8-.03-.07-.05-.15-.07-.23,0,0-.01,0-.02,0-1.54-3.48-2.47-7.26-2.79-11.13-.08,3.69.4,7.43,1.5,11.03-13.2-1.02-26.8-2.11-40.99-3.12.06.25.13.5.2.75.2.62.37,1.27.6,1.91.25.63.46,1.29.76,1.91.27.64.52,1.28.85,1.87.29.62.61,1.2.94,1.76.02.03.04.06.05.09-.28,0-.56,0-.84-.01-.3-.48-.59-.97-.85-1.48-.35-.61-.62-1.26-.92-1.91-.28-.65-.49-1.33-.73-1.99-.22-.66-.38-1.33-.57-1.97-.2-.89-.35-1.74-.45-2.52-.41-1.74-.7-3.51-.85-5.31-.05,2.26.12,4.55.5,6.81-12.97-.91-26.45-1.73-40.56-2.33.05.2.11.4.16.61.23,1.01.62,2.15.99,3.39.21.61.43,1.24.65,1.88.26.62.5,1.27.77,1.9.53,1.26,1.1,2.52,1.72,3.64,0,0,0,0,0,.01-.26.03-.52.06-.78.09-.61-1.07-1.18-2.23-1.71-3.42-.26-.65-.49-1.31-.74-1.96-.21-.66-.41-1.3-.61-1.93-.35-1.27-.6-2.47-.76-3.5-.11-.53-.16-1.02-.2-1.46-.17-1.05-.31-2.1-.4-3.16-.03,1.29.02,2.58.12,3.87-13.09-.55-26.73-.9-41.03-.95.11.48.25,1.02.41,1.63.12.53.27,1.1.47,1.69.19.59.36,1.22.59,1.86.42,1.29.93,2.64,1.53,3.96.53,1.34,1.18,2.64,1.8,3.84.64,1.2,1.22,2.32,1.8,3.24.55.91,1.01,1.67,1.37,2.2-.06,0-.12.02-.19.03-.41-.48-.98-1.13-1.57-1.97-.64-.89-1.36-1.96-2.04-3.16-.66-1.2-1.35-2.51-1.93-3.86-.57-1.36-1.05-2.75-1.45-4.07-.23-.65-.35-1.31-.49-1.92-.15-.61-.25-1.2-.34-1.75-.21-1.08-.26-2-.32-2.64,0-.15-.02-.28-.03-.4-.03-.21-.06-.42-.09-.63,1.08-.09,2.16-.28,3.22-.59l5.4-1.57c3.01.1,6.4.13,10.22.03,9.73-.24,145.75-3.56,170.28-4.16,19.29-.47,49.79-3.21,61.95-4.36l18.41-.45c-.49-.32-.98-.63-1.47-.93-.35-.23-.72-.45-1.07-.66l-79.96,1.95,23.13-1.11c9.01-.53,18.02-1.01,27.02-1.64l-62.8,1.53c.04-10.35,2-18.66,3.32-23.08,5.49-.23,10.99-.45,16.48-.72-5.43-.01-10.86.04-16.29.08.22-.71.41-1.29.57-1.74,4.22-.1,7.25-.18,8.78-.21,5.31-.13,10.73-.7,15.93-.83,8.15-.2,15.75.7,21.49,6.12l-3.87.09,2.58,5.2,5.76-.14c3.2.87,21.74,6.04,35.56,13.11,0,0,0,0-.01,0,2.42,1.05,4.76,2.28,7,3.69,2.25,1.4,4.37,3.05,6.16,5.06.87,1.02,1.64,2.17,2.14,3.45.51,1.28.62,2.72.46,4.04-.13,1.34-.52,2.67-1.19,3.84-.69,1.16-1.62,2.14-2.66,2.94,1.9-1.83,3.16-4.26,3.22-6.83M6.33,136.08s62.35-14.78,89.89-15.45c.29,0,.61-.01.93-.02-4.61.67-9.22,1.37-13.83,2.08-10.95,1.71-21.88,3.5-32.73,5.77,10.92-1.86,21.9-3.23,32.89-4.54,10.33-1.21,20.69-2.31,31.04-3.33,43.51.39,131.53,3.01,131.53,3.01l-23.77.97-23.76,1.07c-7.92.37-15.83.77-23.75,1.2-7.92.38-15.83.85-23.74,1.29-7.91.49-15.82.96-23.73,1.51-7.91.51-15.82,1.05-23.72,1.63-7.91.59-15.81,1.2-23.7,1.89-7.9.69-15.79,1.34-23.67,2.16h0s-.03,0-.03,0c-8.31.14-16.62.33-24.92.43l-24.93.34ZM3.86,136.4c.17,1.26,1.25,2.2,2.53,2.16l49.84-1.22c.07,0,.15,0,.22-.01,17.15-1.95,56.52-5.4,109.78-8.15l84.06-2.05c28.75-.7,47.97-3.16,58.76-7.52,5.55-2.24,11.9-5.9,11.69-14.36-.18-7.24-9.15-14.35-27.44-21.73-10.81-4.36-21.71-7.48-24.95-8.37-2.98-4.63-6.88-7.77-11.88-9.58-4.07-1.48-8.78-2.06-15.26-1.91-2.64.06-5.36.24-7.99.42-2.62.17-5.33.35-7.94.41l-142.35,3.47c-.35-2.24-.73-4.67-1.03-6.51-.2-1.26-.51-3.17-20.39-24.67-10.48-11.34-22.44-23.82-28.63-30.25-3.16-3.28-7.58-5.09-12.14-4.98l-15.88.39c-1.37.03-2.45,1.17-2.42,2.55l.23,9.52c0,.41.12.8.31,1.15l21.77,38.88c-1.46,1.16-2.39,2.97-2.34,4.97l.15,6.31c.08,3.4,2.91,6.09,6.31,6.01l5.02-.12c-1.3,1.76-3.45,5.24-5.11,10.75-1.51.01-3.02.03-4.53.04h-.34c-.14,0-.31,0-.46.03-.31.03-.61.11-.9.22-.59.21-1.13.55-1.57.99-.25.25-.34.38-.5.56l-.44.5-.89,1.01-.44.5c-.16.19-.27.29-.49.57-.39.5-.65,1.08-.79,1.7-.06.31-.1.62-.1.93v.69s.04,1.34.04,1.34l.04,1.34.02.69c.01.31.06.63.14.93.16.61.46,1.17.87,1.65.24.27.34.36.51.54l.47.48.93.97.47.48c.17.17.27.29.53.53.46.42,1.02.73,1.61.92.3.09.6.15.91.17.15,0,.32.01.46,0h.34c.59-.04,1.18-.06,1.77-.08,0,.48,0,.96.02,1.45.05,2.07.15,4.01.27,5.84-1.81.34-2.97.63-3.08.66-.39.1-.69.36-.89.68l-2.61-.51c-.11-.02-.22-.03-.32-.03-.34,0-.67.13-.93.35-.35.29-.54.73-.53,1.18l.43,17.46c.01.45.23.87.59,1.15.27.21.61.31.94.31.11,0,.21-.02.32-.04l2.58-.64c.21.32.53.55.92.63.12.03,1.54.31,3.68.59-12.24,2.59-21.16,4.7-22.11,4.92-1.24.29-2.06,1.47-1.89,2.74"/>
    <path class="cls-5" d="M198.51,124.77c-15.85.52-31.69,1.27-47.53,2.13-7.92.46-15.84.89-23.75,1.41-7.91.51-15.82,1.1-23.73,1.71-15.81,1.24-31.6,2.57-47.36,4.38-3.89.13-7.79.24-11.68.36,23.65-7.02,76.62-10.86,136.96-12.91,34.03.82,64.62,1.74,64.64,1.74l-23.78.46c-7.92.2-15.85.41-23.78.71"/>
  </g>
  <polygon class="cls-7" points="150.6 98.16 190.38 97.29 210.27 96.92 230.16 96.63 210.28 97.32 190.39 97.92 150.62 98.99 110.84 99.86 90.96 100.23 71.07 100.52 90.95 99.83 110.83 99.23 150.6 98.16"/>
  <path class="cls-5" d="M29.38,56.23c.96-.05,2.32-.17,3.97-.25,1.64-.07,3.56-.2,5.62-.26,2.05-.07,4.24-.14,6.44-.21,2.2-.03,4.39-.07,6.44-.1,2.06-.03,3.98,0,5.62-.01,1.65,0,3.02.05,3.98.06.96.03,1.51.05,1.51.05,0,0-.55.04-1.5.12-.96.06-2.33.17-3.97.25-1.64.08-3.56.2-5.61.26-2.05.07-4.24.14-6.44.21-2.19.03-4.38.07-6.44.1-2.06.04-3.98,0-5.62.01-1.65,0-3.02-.05-3.98-.06-.96-.03-1.51-.04-1.51-.04,0,0,.55-.04,1.51-.12"/>
</svg>