<?xml version="1.0" encoding="UTF-8"?>
<svg id="Layer_1" data-name="Layer 1" xmlns="http://www.w3.org/2000/svg" viewBox="0 0 1120 145.82">
  <defs>
    <style>
      .cls-1 {
        fill: #21576e;
      }

      .cls-2 {
        fill: #fff;
      }

      .cls-3 {
        fill: #fcfcfc;
      }

      .cls-4 {
        fill: #ed5740;
      }
    </style>
  </defs>
  <rect class="cls-3" x="583.28" y="19.88" width="2" height="85.74"/>
  <g>
    <g>
      <path class="cls-4" d="M64.4,85.8v26.69h-31.34v-31.34h26.69c.43,0,.78-.35.78-.78v-13.45c0-.43-.35-.78-.78-.78h-29.97c-6.48,0-11.73,5.25-11.73,11.73v37.91c0,6.48,5.25,11.73,11.73,11.73h37.91c6.48,0,11.73-5.25,11.73-11.73v-29.97c0-.43-.35-.78-.78-.78h-13.45c-.43,0-.78.35-.78.78Z"/>
      <path class="cls-3" d="M79.42,61.51v-26.73h31.34v31.34h-26.69c-.43,0-.78.35-.78.78v13.45c0,.43.35.78.78.78h29.97c6.48,0,11.73-5.25,11.73-11.73V31.5c0-6.48-5.25-11.73-11.73-11.73h-37.91c-6.48,0-11.73,5.25-11.73,11.73v30.01c0,.43.35.78.78.78h13.45c.43,0,.78-.35.78-.78Z"/>
      <rect class="cls-1" x="64.4" y="66.13" width="15.01" height="15.01" rx="1" ry="1"/>
    </g>
    <g>
      <path class="cls-3" d="M157.12,31.3h12.2v12.71h-12.2v-12.71ZM169.01,53v50.54h-11.58v-50.54h11.58Z"/>
      <path class="cls-3" d="M176.45,53h11.27v5.17c3.82-4.03,8.99-6.51,14.88-6.51,11.89,0,20.05,8.68,20.05,22.84v29.04h-11.58v-28.73c0-7.13-4.03-12.51-11.16-12.51s-11.99,5.06-11.99,13.13v28.11h-11.47v-50.54Z"/>
      <path class="cls-3" d="M234.02,63.03h-9.72v-10.03h9.72v-4.24c0-11.78,5.48-17.57,17.57-17.57h17.05v9.41h-15.71c-4.86,0-7.34,2.27-7.34,7.23v5.17h30.08v50.54h-11.58v-40.52h-18.5v40.52h-11.58v-40.52Z"/>
      <path class="cls-3" d="M283.42,53h11.27v5.17c3.82-4.03,8.99-6.51,14.88-6.51,11.89,0,20.05,8.68,20.05,22.84v29.04h-11.58v-28.73c0-7.13-4.03-12.51-11.16-12.51s-11.99,5.06-11.99,13.13v28.11h-11.47v-50.54Z"/>
      <path class="cls-3" d="M337.07,31.3h12.2v12.71h-12.2v-12.71ZM348.95,53v50.54h-11.58v-50.54h11.58Z"/>
      <path class="cls-3" d="M356.29,105.71v-1.45h11.47v1.34c0,4.55,3.2,7.55,9.72,7.55h8.89c6.61,0,9.72-3.31,9.72-10.34v-6.82c-4.24,3.72-9.72,5.99-15.92,5.99-14.37,0-25.32-10.23-25.32-25.12s10.96-25.32,25.32-25.32c6.51,0,12.2,2.48,16.54,6.61v-5.17h10.96v49.51c0,12.61-7.03,20.46-19.95,20.46h-12.51c-12.92,0-18.91-6.93-18.91-17.26ZM381.51,92.17c8.68,0,15.19-6.41,15.19-15.3s-6.51-15.19-15.19-15.19-14.99,6.72-14.99,15.19,6.41,15.3,14.99,15.3Z"/>
      <path class="cls-3" d="M413.96,89.38c0-9.92,8.27-16.85,23.77-16.85h9.1v-1.24c0-6.3-3.82-10.23-10.34-10.23-5.58,0-10.23,3.51-10.65,8.68h-11.47c.52-10.65,9.72-18.09,22.33-18.09,13.44,0,21.7,8.16,21.7,20.67v31.21h-11.27v-5.27c-3.31,3.93-8.89,6.61-14.37,6.61-11.37,0-18.81-6.1-18.81-15.5ZM433.7,95.89c7.54,0,13.44-6.1,13.44-14.06v-.83h-9.1c-8.37,0-12.82,2.79-12.82,8.06,0,4.03,3,6.82,8.48,6.82Z"/>
      <path class="cls-3" d="M460.68,53h9.51v-13.44h11.58v13.44h13.54v10.03h-13.54v22.74c0,5.17,2.58,7.75,7.44,7.75h6.1v10.03h-7.54c-11.58,0-17.57-5.37-17.57-16.95v-23.57h-9.51v-10.03Z"/>
      <path class="cls-3" d="M497.58,78.84c0-15.5,12.3-27.18,26.46-27.18s24.7,10.75,24.7,24.49c0,1.24-.1,2.89-.41,5.17h-39.48c1.14,8.48,7.55,13.75,15.5,13.75,5.99,0,11.06-3,12.4-7.54h11.37c-2.48,9.92-11.78,17.36-24.5,17.36-15.09,0-26.05-11.58-26.05-26.05ZM536.95,71.91c-.41-5.79-5.79-10.44-12.92-10.44-6.51,0-12.09,4.03-14.37,10.44h27.29Z"/>
    </g>
  </g>
  <g>
    <path class="cls-2" d="M1102.38,19.22c-1.4-.12-2.9-.19-4.45-.19-18.66,0-20.05,8.21-20.05,20.75v29.44h6v-30.02c0-4.19,0-7.82,1.71-10.36,1.88-2.78,5.8-4.07,12.34-4.07,1.52,0,2.96.08,4.28.23l.92.11v-5.82l-.75-.07Z"/>
    <path class="cls-2" d="M916.54,50.01c0,4.2,0,7.82-1.71,10.36-1.88,2.78-5.8,4.07-12.34,4.07s-10.69-1.32-12.64-4.16c-1.76-2.57-1.76-6.31-1.76-10.27v-30.02h-6.09v29.79c0,11.94,1.47,20.4,20.49,20.4s20.05-8.21,20.05-20.75v-29.44h-6v30.02h0Z"/>
    <path class="cls-2" d="M948.3,19.04c-18.66,0-20.05,8.21-20.05,20.75v29.44h6v-30.02c0-4.19,0-7.82,1.71-10.36,1.88-2.78,5.8-4.07,12.34-4.07s10.69,1.32,12.64,4.16c1.76,2.57,1.76,6.31,1.76,10.27v30.02h6.09v-29.79c0-11.94-1.47-20.4-20.49-20.4"/>
    <rect class="cls-2" x="975.2" y="20.08" width="5.91" height="49.15"/>
    <path class="cls-2" d="M1010.49,20.08h-23.06v49.15h5.91v-16.5h17.09c11.07,0,16.91-5.74,16.91-16.6s-5.83-16.05-16.85-16.05M1021.23,36.32c0,7.15-3.39,10.48-10.67,10.48h-17.21v-20.8h17.02c7.31,0,10.86,3.38,10.86,10.32"/>
    <path class="cls-2" d="M1053.4,18.86c-20.16,0-22.75,13.69-22.75,25.62,0,12.71,2.74,25.7,23.1,25.7,9.27,0,14.55-2.98,18.5-5.9l.67-.5-3.43-4.54-.66.48c-3.78,2.77-7.28,4.89-15.08,4.89-13.79,0-16.94-7.37-17.17-18.53h36.69v-.82c.06-8.92-.29-16.7-5.16-21.6-3.21-3.23-8.02-4.8-14.71-4.8M1036.7,40.43c.79-11.29,5.65-15.91,16.6-15.91,12.85,0,13.6,7.28,14.01,15.91h-30.61Z"/>
    <path class="cls-2" d="M870.17,58.47c0,4.19,0,7.82-1.71,10.36-1.88,2.78-5.8,4.07-12.34,4.07-.56,0-1.1,0-1.62-.04l-.86-.04v5.77l.81.02c.54,0,1.1.02,1.68.02,18.66,0,20.05-8.21,20.05-20.75V19.84h-6.01v38.63h0Z"/>
    <path class="cls-2" d="M619.82,19.65h24.77v32.83h28.26V19.65h24.65v85.98h-24.65v-33.91h-28.26v33.91h-24.77V19.65Z"/>
    <path class="cls-2" d="M708.68,19.65h32.71c23.57,0,34.51,10.46,34.51,28.74v.48c0,18.04-12.14,27.78-33.43,27.78h-9.26v28.98h-24.53V19.65ZM740.3,59.82c7.94,0,12.14-3.73,12.14-10.82v-.48c0-7.34-4.33-10.34-12.03-10.34h-7.21v21.64h7.1Z"/>
    <path class="cls-2" d="M784.07,19.65h59.4v19h-34.87v14.79h27.78v17.56h-27.78v15.63h36.8v19h-61.33V19.65Z"/>
    <path class="cls-2" d="M872.22,84.68h5.78v3.37c1.08-2.13,3.37-3.85,6.86-3.85,4.13,0,7.06,2.45,7.06,8.11v13.36h-5.78v-12.52c0-2.85-1.16-4.21-3.73-4.21s-4.41,1.52-4.41,4.61v12.12h-5.78v-20.99h0Z"/>
    <path class="cls-2" d="M895.21,95.43v-.32c0-6.62,4.69-10.91,10.79-10.91,5.42,0,10.23,3.17,10.23,10.67v1.6h-15.13c.16,3.49,2.05,5.5,5.22,5.5,2.69,0,4.01-1.16,4.37-2.93h5.5c-.68,4.53-4.29,7.06-10.03,7.06-6.34,0-10.95-3.97-10.95-10.67ZM910.58,92.9c-.2-3.17-1.81-4.69-4.57-4.69-2.61,0-4.37,1.73-4.82,4.69h9.39Z"/>
    <path class="cls-2" d="M920.53,99.44v-10.63h-2.69v-4.13h2.69v-4.53h5.78v4.53h4.41v4.13h-4.41v10.11c0,1.69.84,2.49,2.33,2.49.88,0,1.56-.12,2.21-.36v4.49c-.84.24-1.97.52-3.57.52-4.37,0-6.74-2.25-6.74-6.62h0Z"/>
    <path class="cls-2" d="M932.44,84.68h6.1l3.69,14.12,4.13-14.12h4.69l3.73,14.12,3.97-14.12h5.58l-6.62,20.99h-5.7l-3.57-13.16-3.85,13.16h-5.78l-6.38-20.99h.01Z"/>
    <path class="cls-2" d="M965.02,95.39v-.32c0-6.58,4.77-10.87,11.07-10.87s11.03,4.21,11.03,10.75v.32c0,6.62-4.78,10.83-11.07,10.83s-11.03-4.17-11.03-10.71ZM981.23,95.31v-.28c0-4.01-1.89-6.42-5.14-6.42s-5.14,2.33-5.14,6.34v.32c0,4.05,1.85,6.42,5.14,6.42s5.14-2.41,5.14-6.38Z"/>
    <path class="cls-2" d="M990.58,84.68h5.78v4.01c1.32-2.85,3.41-4.29,6.82-4.33v5.42c-4.29,0-6.82,1.32-6.82,5.38v10.51h-5.78v-20.99Z"/>
    <path class="cls-2" d="M1012.37,93.58l6.78-8.91h6.18l-7.66,9.55,8.27,11.44h-6.58l-6.98-9.99v9.99h-5.78v-30.5h5.78v18.42h0Z"/>
    <path class="cls-2" d="M1028.18,78.66c0-1.81,1.44-3.17,3.29-3.17s3.33,1.36,3.33,3.17-1.44,3.17-3.33,3.17-3.29-1.36-3.29-3.17ZM1028.62,84.68h5.78v20.99h-5.78v-20.99Z"/>
    <path class="cls-2" d="M1039.29,84.68h5.78v3.37c1.08-2.13,3.37-3.85,6.86-3.85,4.13,0,7.06,2.45,7.06,8.11v13.36h-5.78v-12.52c0-2.85-1.16-4.21-3.73-4.21s-4.41,1.52-4.41,4.61v12.12h-5.78v-20.99h0Z"/>
    <path class="cls-2" d="M1062.44,106.1h5.78c.36,1.85,1.69,3.05,4.65,3.05,3.53,0,5.3-1.85,5.3-5.14v-3.17c-1.16,2.05-3.65,3.89-6.74,3.89-5.1,0-9.15-3.81-9.15-10.03v-.28c0-6.02,4.01-10.23,9.23-10.23,3.41,0,5.46,1.48,6.66,3.61v-3.13h5.78v19.34c-.04,6.22-4.17,9.39-11.07,9.39s-9.87-2.97-10.43-7.3h-.01ZM1078.33,94.63v-.28c0-3.57-1.89-5.74-5.06-5.74s-5.06,2.33-5.06,5.78v.32c0,3.49,2.05,5.66,4.94,5.66,3.05,0,5.18-2.17,5.18-5.74Z"/>
  </g>
</svg>