<?xml version="1.0" encoding="UTF-8"?>
<svg id="Layer_1" data-name="Layer 1" xmlns="http://www.w3.org/2000/svg" viewBox="0 0 1120 270">
  <defs>
    <style>
      .cls-1 {
        fill: #fcfcfc;
      }
    </style>
  </defs>
  <path class="cls-1" d="M480.08,48.09c-4.8-7.44-11.32-13.47-19.56-18.12-8.25-4.62-17.98-6.95-29.19-6.95h-110.34c-4.08,0-8.27,3.29-9.37,7.38l-8.13,30.36c-1.15,4.29.88,8.01,4.84,8.89l34.42,7.59c.42.1.18.75-.28.75h-114.98c-.57,0-.86.85-.3.91l65.49,8.48c2.02.26,3.11,2.05,2.55,4.15l-4.93,18.39c-1.18,4.39.65,8.27,4.48,9.58l19.31,6.55c.56.19.18,1.09-.46,1.09h-115.07c-.48,0-.71.72-.24.76l81.14,8.7c2.03.21,3.14,1.97,2.59,4.07l-6.49,24.22c-1.14,4.25.97,7.88,4.98,8.58l46.63,8.05c.35.06.16.59-.21.59h-86.99c-1.09,0-1.71,1.57-.72,1.84l25.71,7.09c1.96.54,2.93,2.44,2.34,4.61l-13.28,49.57c-1.09,4.08,1.32,7.39,5.4,7.39h48.3c4.08,0,8.28-3.31,9.37-7.39l15.92-59.43c.55-2.04,2.64-3.7,4.68-3.7h52.59c11.2,0,22.1-2.21,32.66-6.63,10.56-4.41,20.13-10.35,28.7-17.79,8.56-7.44,15.97-15.95,22.21-25.56,6.23-9.58,10.71-19.45,13.43-29.59,2.6-9.7,3.24-19.36,1.93-28.95-1.31-9.59-4.36-18.11-9.17-25.54ZM368.57,102.58c-.73,0-1.09,1.05-.41,1.16l48.7,8.11c1.85.3,2.64,2.22,1.44,4.04-4.24,6.39-10.16,11.26-17.3,11.26h-48.54c-2.04,0-3.25-1.65-2.7-3.7l11.19-41.78c.54-2.02,2.59-3.69,4.62-3.69h48.61c5.83,0,9.11,3.25,10.55,7.92,1.22,3.89,3.58,7.37,7.76,8.28l35.64,7.65c.42.09.18.74-.27.74h-99.29Z"/>
  <path class="cls-1" d="M835.34,157.73c8.57-7.44,15.97-15.95,22.21-25.56,6.24-9.58,10.71-19.45,13.43-29.59,2.59-9.7,3.25-19.36,1.94-28.95-1.31-9.59-4.37-18.11-9.17-25.54-4.8-7.44-11.33-13.47-19.56-18.12-8.25-4.62-17.98-6.95-29.19-6.95h-110.35c-4.08,0-8.27,3.3-9.36,7.38l-8.13,30.36c-1.15,4.29.88,8.01,4.85,8.89l34.42,7.59c.42.1.18.75-.28.75h-67.76c-1.29,0-2.06,1.82-.93,2.2l19.21,6.55c1.92.65,2.83,2.6,2.24,4.79l-4.92,18.38c-1.18,4.39.65,8.28,4.48,9.59l19.21,6.55c.57.18.18,1.09-.46,1.09h-115.07c-.48,0-.71.72-.23.76l81.24,8.7c2.03.22,3.15,1.98,2.58,4.08l-10.64,39.72c-1.15,4.29.88,8.02,4.85,8.89l34.43,7.59c.42.09.18.75-.28.75h-99.29c-.71,0-1.07,1.04-.4,1.14l49.94,8.15c2.01.33,3.08,2.14,2.51,4.26l-9.12,34.05c-1.1,4.08,1.33,7.39,5.4,7.39h48.3c4.08,0,8.27-3.31,9.37-7.39l16.09-60.08c.55-2.03,2.64-3.69,4.68-3.69h15.31c2.28,0,4.06,1.23,4.66,3.2l7.26,24.18c1.22,4.07,4.46,6.92,8.83,7.78l39.91,7.83c.39.07.17.67-.24.67h-67.76c-1.13,0-1.76,1.6-.75,1.9l24.55,7c2.11.61,3.66,2.12,4.28,4.16l2.4,8.01c1.19,3.96,4.77,6.42,9.32,6.42h54.07c3.29,0,6.3-3.56,5.42-6.41l-20.77-67.71c-.53-1.74.74-3.92,2.76-4.87,8.94-4.18,17.12-9.5,24.56-15.95ZM752.22,102.58c-.72,0-1.08,1.05-.4,1.16l48.7,8.11c1.85.31,2.64,2.22,1.43,4.04-4.23,6.39-10.16,11.26-17.29,11.26h-48.54c-2.04,0-3.25-1.65-2.7-3.7l11.19-41.77c.55-2.03,2.63-3.7,4.66-3.7h48.57c5.83,0,9.1,3.25,10.55,7.92,1.21,3.91,3.58,7.37,7.75,8.28l35.65,7.65c.42.09.18.74-.27.74h-99.3Z"/>
  <path class="cls-1" d="M997.74,125.64h0l104.51-97.86c2.48-2.31,1.75-5.77-1.22-5.77h-56.39c-4.66,0-9.66,2.14-13.55,5.77l-6.51,6.09c-2.89,2.71-2.61,6.74.52,7.57l26.64,7.17c.49.12.19.89-.35.89h-83.53c-1.07,0-1.67,1.52-.7,1.78l26.87,7.18c1.56.41,1.7,2.43.26,3.78l-47.21,44.21c-1.03.95-2.42.41-2.09-.81l20.43-76.25c1.09-4.07-1.33-7.38-5.4-7.38h-48.3c-4.08,0-8.27,3.31-9.37,7.38l-8.14,30.41c-1.17,4.38.65,8.27,4.48,9.59l19.1,6.52c.56.19.18,1.09-.46,1.09h-83.53c-.71,0-1.07,1.03-.4,1.13l49.94,8.15c2.02.32,3.08,2.14,2.52,4.25l-23.72,88.92c-1.14,4.3.88,8.02,4.86,8.89l34.31,7.56c.42.1.18.75-.28.75h-130.83c-.48,0-.72.72-.25.77l82.42,8.8c1.44.15,2.23,1.4,1.83,2.89-.83,3.1.46,5.86,3.17,6.78l20.98,7.16c.56.18.18,1.1-.46,1.1h-51.99c-1.28,0-2.05,1.82-.92,2.19l19.31,6.54c1.92.66,2.84,2.59,2.25,4.79l-1.77,6.59c-1.09,4.08,1.33,7.39,5.41,7.39h48.3c4.08,0,8.27-3.31,9.36-7.39l11.76-43.9c.63-2.38,2.11-4.69,4.14-6.49l19.4-17.27c1.6-1.42,3.8-1.32,4.47.22l13.71,31.45c1.68,3.85,5.12,6.51,9.54,7.35l41.11,7.87c.38.08.17.66-.23.66h-83.53c-.81,0-1.23,1.17-.47,1.32l41.35,7.88c2.21.43,3.94,1.75,4.77,3.68l3.74,8.59c1.65,3.77,5.4,6.03,10.02,6.03h57.67c3.11,0,5.86-3.5,4.76-6.03l-52.33-119.97h0Z"/>
  <path class="cls-1" d="M258.38,149.25c-1.21-7.56-4.13-13.96-8.74-19.26-4.63-5.27-10.68-9.85-18.15-13.74-7.48-3.88-16.07-7.45-25.77-10.67-6.11-2.15-11.6-3.99-16.48-5.5-4.88-1.51-8.93-3.08-12.17-4.69-3.23-1.63-5.55-3.4-6.98-5.34-1.42-1.95-1.73-4.42-.92-7.44,1.1-4.09,3.55-7.01,7.36-8.73,3.81-1.73,8.51-2.59,14.12-2.59,6.9,0,13.65,1.13,20.27,3.4,6.62,2.27,12.49,4.7,17.62,7.28,4.09,2.05,8.03,4.25,11.83,6.68,3.02,1.93,7.8.7,10.62-2.87l30.78-38.98c2.83-3.58,2.6-8.03-.59-9.78-2.95-1.62-6.12-3.29-9.49-5.01-5.69-2.92-11.93-5.61-18.7-8.09-6.77-2.49-13.94-4.54-21.48-6.14-7.55-1.63-15.52-2.43-23.93-2.43-11.44,0-22.72,1.66-33.85,5.01-11.14,3.34-21.57,8.24-31.27,14.71-8.5,5.66-16.05,12.56-22.65,20.7-2.73,3.35-1.7,7.42,1.8,8.26l31.18,7.43c.45.1.18.81-.3.81H53.19c-.72,0-1.09,1.05-.41,1.16l48.32,8.09c1.94.33,2.86,2.19,2.16,4.24-.19.57-.39,1.16-.58,1.74-.03.1-.06.19-.09.3-.23.72-.45,1.43-.66,2.15-.05.16-.09.31-.14.46-.25.85-.49,1.7-.72,2.56-2.25,8.41-3.11,15.84-2.58,22.32,0,.08.01.15.02.22.38,4.34,3.86,7.05,8.3,7.58l72.39,8.59c.25.04.12.42-.14.42H16.7c-.43,0-.64.64-.21.68l92.94,8.83c2.37.22,4.46,1.09,6.19,2.36,1.02.75,2.1,1.49,3.22,2.2,6.26,3.99,14,7.7,23.21,11.16,6.26,2.38,12.24,4.42,17.92,6.15,5.69,1.73,10.66,3.45,14.95,5.17,4.28,1.73,7.46,3.72,9.55,5.99,2.09,2.26,2.7,5.01,1.84,8.23-.81,3.03-2.81,5.46-5.99,7.29-3.19,1.83-8.23,2.75-15.13,2.75-9.06,0-17.6-1.3-25.64-3.88-8.04-2.59-15.08-5.5-21.11-8.74-5.24-2.66-10.23-5.61-14.98-8.84-2.88-1.96-7.6-.67-10.29,2.86l-.87,1.16c-2.69,3.53-2.13,7.81,1.21,9.17l14.69,6.02c.62.25.17,1.28-.57,1.28h-51.99c-1.47,0-2.38,2.05-1.14,2.55l14.69,6.03c1.67.68,1.95,2.82.6,4.58l-8.54,11.24c-2.85,3.75-2.7,8.32.46,10.27,4.33,2.66,9.02,5.12,14.04,7.36,7.22,3.24,14.88,6.04,22.98,8.42,8.09,2.37,16.39,4.2,24.88,5.49,8.49,1.3,16.95,1.95,25.36,1.95,10.56,0,21.41-1.24,32.53-3.72,11.12-2.48,21.58-6.52,31.39-12.13,9.8-5.6,18.5-13.1,26.08-22.47,7.58-9.38,13.22-20.97,16.92-34.77,2.89-10.78,3.72-19.95,2.51-27.49Z"/>
  <path class="cls-1" d="M560.76,23.02c-4.4,0-9.1,2.83-11.61,7l-18.78,31.13c-2.21,3.68-.92,7.57,2.75,8.2l46.56,8.05c.35.06.16.6-.21.6h-115.07c-.74,0-1.12,1.07-.42,1.2l46.79,8.06c1.83.31,2.48,2.26,1.37,4.09l-34.45,57.11c-2.26,3.75-1.08,7.76,2.54,8.63l31.09,7.42c.45.1.18.81-.31.81h-130.83c-.5,0-.74.75-.25.79l78.08,8.68c1.83.19,2.54,2.08,1.46,3.89l-10.07,16.68c-2.34,3.88-1.4,8.08,2.1,9.43l16.11,6.21c.6.24.17,1.21-.53,1.21h-51.99c-1.41,0-2.27,1.97-1.07,2.43l16.11,6.21c1.75.68,2.22,2.77,1.05,4.72l-12.11,20.07c-2.08,3.45-.47,7,3.16,7h49.59c4.36,0,9-2.9,11.34-7.09l16.6-29.79c1.17-2.09,3.49-3.55,5.67-3.55h57.95c2.13,0,3.63,1.41,3.67,3.46.09,4.24,2.74,7.46,6.84,8.31l37.38,7.74c.41.07.18.71-.26.71h-99.3c-.68,0-1.01.98-.37,1.09l52.85,8.23c2.08.33,3.45,1.88,3.49,3.98.09,4.08,3.09,6.91,7.34,6.91h49.46c3.63,0,7.15-3.55,6.91-7l-14.5-215.63c-.29-4.17-3.46-7-7.86-7h-48.3ZM531.46,165.33c-1.85,0-2.7-1.77-1.71-3.54l32.86-58.82c.58-1.03,2.03-1.03,2.06,0l1.21,58.82c.04,1.76-1.77,3.54-3.62,3.54h-30.8Z"/>
</svg>