<?xml version="1.0" encoding="UTF-8"?>
<svg id="Layer_1" data-name="Layer 1" xmlns="http://www.w3.org/2000/svg" viewBox="0 0 322.23 228.22">
  <defs>
    <style>
      .cls-1 {
        fill: #09ad6c;
      }

      .cls-2 {
        fill: #153447;
      }

      .cls-3 {
        fill: #fff;
      }

      .cls-4 {
        fill: #eba800;
      }
    </style>
  </defs>
  <path class="cls-3" d="M79.14,86.15c20.62,7.18,31.92-6.73,46.56-4.7,18.57,2.58,13.35,12.65,22.61,17.79s19.18,3.99,24.61-3.25c10.48-13.99,26.2-18.25,40.37-13.99,36.63,11.02,31.54,13.74,32.72,30.1.95,13.16-5.37,20.1-37.07,23.29-17.12,1.72-28.38-10.95-43.58-3.9s-13.05,14.72-31.67,15.39-17.67-8.85-52.54-.67c-19,7.71-81.14,11.3-81.14,11.3v-83.91s50.99,2.75,79.15,12.56h-.01Z"/>
  <g>
    <path class="cls-2" d="M286.38,153.61c-3.72.65-7.9-.36-11.76-2.85-1.17-.75-2.27-1.63-3.29-2.58,1.06-1.87,2.78-3.15,4.11-3.91,2.03-1.16,4.61-2.3,6.64-2.95,2.12,1.26,3.85,1.62,5.06,1.86.83.17,1.23.26,1.31.42.23.51.18,1.97-.16,4.35-.2,1.41-.87,3.37-1.91,5.66Z"/>
    <path class="cls-2" d="M271.95,160.26c.41.87.66,1.81.93,2.79.21.79.44,1.61.75,2.4.72,1.84,1.92,3.18,3.31,3.78-.64.87-1.29,1.73-1.97,2.59-1.69-2.08-4.78-3.34-7.23-2.84-1.09.19-2.04.67-2.97,1.12-.53.25-1.06.5-1.61.71-.46.17-1.76.58-2.9.28.47-.76.85-1.57,1.06-2.46.52-2.16-.05-4.36-.67-6.25.12-.01.24-.02.36-.04.3-.04.59-.1.88-.16,3.01-.66,5.48-2.34,6.74-4.59,1.53.05,2.74,1.45,3.31,2.68Z"/>
    <path class="cls-2" d="M274.75,143.05c-1.67.95-3.91,2.63-5.05,5.24-.34.78-.56,1.6-.73,2.42-2.25-.05-4.12-1.97-5.05-3.67-.66-1.19-1.09-2.48-1.53-3.83,3.15-.75,5.81-3.35,6.5-6.53.15-.67.21-1.34.27-1.99.06-.64.12-1.24.25-1.82.11-.5.44-1.58,1.22-2.2,3.12,4.08,6.37,7.01,9.99,9.68-1.91.7-4.09,1.69-5.86,2.71Z"/>
    <path class="cls-2" d="M270.74,149.52c.98.88,2.02,1.71,3.12,2.42,3.84,2.48,7.99,3.57,11.81,3.17-1.87,3.81-4.6,8.36-7.88,12.94-1.16-.35-2.21-1.48-2.86-3.12-.28-.72-.49-1.47-.7-2.25-.27-1-.55-2.04-1.01-3.02-.68-1.46-2.1-3.11-3.98-3.44.4-1.14.6-2.34.79-3.51.18-1.12.37-2.18.7-3.18Z"/>
    <path class="cls-2" d="M274.08,172.95c-3.06,3.81-6.42,7.44-9.88,10.48-.59-.94-.85-2.18-.67-3.56.2-1.51.85-2.99,1.47-4.42.62-1.41,1.27-2.95,1.51-4.59.5-.21,1-.39,1.51-.5,2.04-.42,4.75.76,6.05,2.59Z"/>
    <path class="cls-2" d="M263.65,172.12c.44-.16.88-.36,1.31-.56-.29,1.15-.77,2.26-1.22,3.27-.69,1.58-1.38,3.15-1.6,4.86-.23,1.78.11,3.45.97,4.68-2.4,2-4.84,3.7-7.25,4.94-2.39-3.96-2.28-9.27.34-13.08.54-.78,1.19-1.54,1.83-2.27.47-.55.95-1.1,1.39-1.68,1.61.64,3.41.15,4.22-.16Z"/>
    <path class="cls-2" d="M254.57,189.93c-.54.24-1.08.46-1.61.66-3.69,1.32-7.02,2.31-9.91,2.95-3.85.85-6.66,1.01-8.78.81.12-.73.58-1.5,1.33-2.13.65-.54,1.41-.94,2.21-1.37.31-.16.62-.33.92-.5.96-.55,2.32-1.44,3-2.86.28-.58.41-1.18.54-1.75.07-.3.14-.6.23-.9.48-1.54,1.63-2.86,3.09-3.55,2.37.75,4.87.99,7.19.64-.23,2.77.37,5.61,1.79,8.02Z"/>
    <path class="cls-4" d="M253.44,191.91c-3.9,1.4-7.23,2.37-10.09,3-6.62,1.45-10.68,1.04-13.36-.27-.55-.65-.93-1.46-.94-2.28.82.71,1.98,1.41,3.82,1.78.17-1.08.81-2.15,1.83-3,.76-.64,1.62-1.1,2.45-1.54.3-.16.6-.32.89-.48.8-.46,1.92-1.19,2.43-2.25.21-.44.32-.93.45-1.46.07-.34.15-.67.25-1,.47-1.51,1.45-2.85,2.74-3.77-1.14-.5-2.22-1.11-3.22-1.84.31-.35.63-.7.94-1.06,3.29,2.37,7.63,3.42,11.35,2.72.34-1.79,1.02-3.51,2.05-5.03.58-.85,1.27-1.64,1.93-2.4,1.32-1.52,2.56-2.95,2.98-4.74.46-1.91-.14-4.01-.74-5.81-1.57.06-3.13-.08-4.67-.29.16-.44.28-.9.37-1.37,1.97.26,3.96.4,5.9.11,3.02-.44,5.51-2,6.66-4.13.7-1.29.93-2.76,1.18-4.33.02-.13.05-.26.07-.39-2.25-.14-4.1-1.61-5.32-3.3-1.03,1.57-2.65,2.74-4.51,3.15,0,0-.02,0-.03,0-.77.17-1.55.2-2.3.23-.51.02-1.02.04-1.52.11-.54.08-1.08.4-1.55.82-.15-.34-.32-.69-.49-1.05.36-.3.74-.62,1.13-.98.23-.08.47-.15.72-.18.54-.07,1.09-.1,1.64-.12.72-.03,1.41-.06,2.07-.2,0,0,.02,0,.02,0,1.7-.37,3.2-1.58,3.97-3.13-.7-1.36-1.18-2.8-1.63-4.21-.03-.09-.06-.17-.09-.26.32-.51.64-1.03.96-1.57.05.15.1.3.15.45,2.69-.58,4.98-2.77,5.58-5.48.13-.58.18-1.18.24-1.82.06-.65.12-1.32.27-1.99.29-1.32.91-2.38,1.75-3.02-.66-.92-1.31-1.9-1.97-2.94.17-.62.33-1.25.49-1.9,4.32,7.24,8.58,11.16,13.18,14.55,6.67,4.92,9.51-.33,8.19,8.91-1.32,9.24-20.1,37.97-36.24,43.76ZM288.45,143.6c-.07-.15-.47-.25-1.31-.42-1.21-.24-2.94-.61-5.06-1.86-2.03.66-4.61,1.8-6.64,2.95-1.33.76-3.05,2.03-4.11,3.91,1.02.95,2.12,1.83,3.29,2.58,3.86,2.49,8.03,3.5,11.76,2.85,1.04-2.29,1.71-4.25,1.91-5.66.34-2.38.39-3.85.16-4.35ZM266.52,170.86c-.25,1.65-.89,3.18-1.51,4.59-.63,1.43-1.27,2.91-1.47,4.42-.18,1.37.07,2.62.67,3.56,3.46-3.04,6.82-6.67,9.88-10.48-1.31-1.83-4.01-3.01-6.05-2.59-.51.11-1.01.29-1.51.5ZM245.6,181.28c-1.46.69-2.61,2-3.09,3.55-.09.3-.16.59-.23.9-.13.58-.27,1.18-.54,1.75-.68,1.42-2.04,2.32-3,2.86-.3.18-.61.34-.92.5-.81.43-1.57.83-2.21,1.37-.75.63-1.21,1.39-1.33,2.13,2.12.21,4.93.04,8.78-.81,2.89-.63,6.22-1.63,9.91-2.95.54-.19,1.07-.41,1.61-.66-1.42-2.41-2.02-5.25-1.79-8.02-2.31.35-4.81.12-7.19-.64ZM256.2,176.23c-2.62,3.82-2.73,9.13-.34,13.08,2.41-1.24,4.85-2.94,7.25-4.94-.85-1.24-1.2-2.9-.97-4.68.23-1.71.92-3.28,1.6-4.86.44-1.01.93-2.12,1.22-3.27-.43.2-.87.4-1.31.56-.81.31-2.62.8-4.22.16-.44.58-.92,1.13-1.39,1.68-.64.73-1.29,1.49-1.83,2.27ZM261.89,162.17c-.29.06-.58.12-.88.16-.12.02-.24.03-.36.04.62,1.9,1.19,4.09.67,6.25-.21.9-.6,1.71-1.06,2.46,1.14.3,2.45-.11,2.9-.28.55-.21,1.08-.46,1.61-.71.94-.44,1.88-.92,2.97-1.12,2.45-.5,5.54.75,7.23,2.84.67-.86,1.33-1.73,1.97-2.59-1.39-.6-2.59-1.93-3.31-3.78-.31-.79-.53-1.61-.75-2.4-.27-.98-.52-1.92-.93-2.79-.58-1.24-1.78-2.64-3.31-2.68-1.26,2.25-3.73,3.93-6.74,4.59ZM269.25,156.21c1.88.33,3.29,1.98,3.98,3.44.46.98.74,2.02,1.01,3.02.22.79.42,1.53.7,2.25.64,1.64,1.69,2.77,2.86,3.12,3.28-4.58,6.01-9.13,7.88-12.94-3.82.41-7.97-.69-11.81-3.17-1.11-.71-2.14-1.54-3.12-2.42-.34,1-.52,2.06-.7,3.18-.19,1.17-.39,2.37-.79,3.51ZM269.41,132.86c-.13.58-.19,1.18-.25,1.82-.06.65-.12,1.32-.27,1.99-.7,3.19-3.35,5.79-6.5,6.53.44,1.35.87,2.64,1.53,3.83.93,1.71,2.8,3.62,5.05,3.67.17-.82.39-1.63.73-2.42,1.14-2.6,3.37-4.28,5.05-5.24,1.78-1.01,3.95-2,5.86-2.71-3.62-2.67-6.87-5.6-9.99-9.68-.78.61-1.1,1.69-1.22,2.2Z"/>
    <path class="cls-2" d="M204.35,25.5c2.53-1.33,5.14-2.49,7.72-3.3.16-.05.32-.09.48-.14.18.98.47,1.94.87,2.86-2.22,1.65-4.78,2.87-7.46,3.52-.27.07-.54.12-.81.18-.09-1.08-.37-2.12-.8-3.11Z"/>
    <path class="cls-2" d="M228.96,31.26l.04-.32c.03-.33.06-.64.18-.82.14-.22.48-.37.99-.47,1.86-.35,3.83.12,5.34,1.25-.54,1.7-1.07,3.51-1.5,5.41-2.02,0-4.02.41-5.88,1.2,0-.06,0-.12,0-.18-.1-1.08-.44-1.95-.96-2.6.98-.98,1.64-2.18,1.79-3.45Z"/>
    <path class="cls-2" d="M230.86,28.14c1.95-2.65,2.69-6.17,1.97-9.37,2.49.27,4.16,1.02,4.79,2.26.67,1.31-.4,4.59-1.52,8.06-.04.13-.09.27-.13.4-1.5-.98-3.32-1.46-5.11-1.34Z"/>
    <path class="cls-2" d="M203.78,28.92c-.54.13-1.08.27-1.61.47-1.55.57-2.71,1.47-3.36,2.6-.48.84-.67,1.85-.61,2.93-2.48,1.4-5.55,1.66-8.23.72,3.19-2.97,7.94-6.57,13.14-9.47.36.88.6,1.81.66,2.75Z"/>
    <path class="cls-2" d="M225.84,26.65c-.32-.02-.62-.04-.88-.12-.13-.04-.24-.1-.35-.17.33-.43.63-.87.88-1.32,1.1-1.99,1.4-4.21.87-6.12,1.88-.22,3.56-.31,5.02-.26.85,3.15.03,6.71-2.1,9.18-.86-.62-1.88-1.04-2.93-1.16-.17-.02-.34-.03-.5-.04Z"/>
    <path class="cls-2" d="M220.31,19.97c1.64-.36,3.18-.64,4.63-.85.52,1.6.28,3.51-.68,5.25-.88,1.59-2.28,3-4.4,4.44-.33.22-.67.42-1.01.64-2.59-1.8-4.42-4.68-4.94-7.79,2.2-.65,4.35-1.24,6.4-1.69Z"/>
    <path class="cls-2" d="M220.65,29.97c1.21-.82,2.21-1.67,3.03-2.54.25.2.55.36.89.46.4.11.79.14,1.16.17.15,0,.3.02.44.04.78.09,1.54.39,2.19.83-.14.13-.27.26-.37.42-.31.48-.36,1-.4,1.46l-.03.28c-.22,1.71-1.62,3.3-3.58,4.05-1.69.65-3.61.66-5.23.54-.24-1.28-.91-2.48-1.9-3.34.37-.23.74-.46,1.11-.68.89-.54,1.81-1.09,2.69-1.69Z"/>
    <path class="cls-2" d="M228.19,39c1.73-.82,3.62-1.26,5.53-1.3-.45,2.38-.68,4.85-.48,7.32-1.09-.13-2.14-.56-2.98-1.26-1.07-.89-1.8-2.19-1.99-3.58-.06-.38-.07-.78-.08-1.19Z"/>
    <path class="cls-2" d="M223.11,36.85c.47-.1.93-.24,1.38-.41.57-.22,1.1-.51,1.59-.83.42.53.59,1.26.65,1.83.04.42.05.83.05,1.24,0,.55.01,1.12.1,1.69.12.9.44,1.77.9,2.56-1.18,1.12-2.48,2.1-3.9,2.9-.56-.81-1.01-1.66-1.18-2.58-.16-.9-.08-1.85.02-2.86.11-1.15.2-2.33-.09-3.48.16-.03.33-.04.49-.08Z"/>
    <path class="cls-4" d="M233.41,46.48s0-.03-.01-.05c-1.47-.11-2.9-.64-4.03-1.58-.28-.23-.52-.49-.76-.76-.77.72-1.59,1.38-2.46,1.98-1.24,0-2.49.02-3.77.07-.5-.8-.89-1.65-1.07-2.61-.2-1.09-.1-2.19,0-3.24.11-1.14.19-2.21-.1-3.18-.82.05-1.61.04-2.36-.01-.03.52-.11,1.04-.3,1.54-.36,1-.98,1.84-1.57,2.65-.35.47-.68.93-.95,1.4-.2-.53-.42-1.05-.68-1.54.16-.24.33-.47.5-.69.56-.76,1.09-1.49,1.39-2.29.64-1.76-.07-3.95-1.62-5.01-.18.12-.36.23-.53.35-1.6,1.12-2.78,2.26-3.61,3.46-.41-.22-.85-.39-1.32-.53.93-1.44,2.27-2.79,4.12-4.08.96-.67,1.97-1.28,2.95-1.87.11-.07.23-.15.34-.21-1.43-1.1-2.63-2.49-3.51-4.06-1.56,1.13-3.26,2.05-5.06,2.75.45.99.49,2.17.05,3.17-.39.89-1.06,1.52-1.7,2.14-.22.2-.43.41-.63.62-.38.4-.73.93-.87,1.44-.47.09-.95.21-1.45.37.02-.91.46-1.89,1.3-2.77.22-.23.45-.45.69-.68.57-.54,1.11-1.06,1.39-1.69.3-.67.23-1.49-.11-2.15-.45.14-.9.3-1.35.4-.37.09-.74.17-1.12.25,0,.01,0,.02,0,.03h-.1c-.85.17-1.66.35-2.43.63-.86.32-2.01.92-2.62,1.98-.51.91-.6,2.15-.23,3.43.2.71.53,1.39.89,2.06-.45.23-.86.46-1.22.69-.41-.74-.77-1.51-1.02-2.35,0-.04-.01-.07-.02-.1-.84.42-1.72.73-2.63.93-2.31.51-4.77.3-6.94-.62-1.92,1.92-3.05,3.48-3.03,4.22.02.51.31,1,.88,1.44,1.51,1.17,4.33,1.64,6.72,1.12.77-.17,1.45-.43,2.02-.78.13-.08.28-.18.41-.27-.64,1.01-1.16,1.86-2.58,2.5-4,.69-8.76-.94-8.85-3.96-.12-3.81,14.89-16.22,27.21-20.12,2.82-.9,5.65-1.66,8.36-2.26,9.12-2,16.92-2.03,18.86,1.79,2.11,4.13-5.97,15.66-3.99,26.39-.49-.12-.98-.22-1.47-.3ZM236.1,29.08c1.13-3.47,2.19-6.74,1.52-8.06-.63-1.23-2.29-1.98-4.79-2.26.72,3.21-.03,6.73-1.97,9.37,1.79-.12,3.61.35,5.11,1.34.04-.13.09-.27.13-.4ZM228.13,37.31c0,.06,0,.12,0,.18,1.86-.79,3.86-1.21,5.88-1.2.43-1.89.96-3.71,1.5-5.41-1.51-1.13-3.48-1.6-5.34-1.25-.51.1-.85.26-.99.47-.12.19-.15.5-.18.82l-.04.32c-.16,1.27-.82,2.47-1.79,3.45.52.65.86,1.53.96,2.6ZM229.27,27.85c2.13-2.47,2.95-6.03,2.1-9.18-1.46-.05-3.14.04-5.02.26.54,1.91.24,4.13-.87,6.12-.25.45-.54.89-.88,1.32.1.07.21.13.35.17.26.07.56.09.88.12.17.01.34.03.5.04,1.05.12,2.07.54,2.93,1.16ZM230.26,43.76c.84.7,1.89,1.13,2.98,1.26-.2-2.47.03-4.94.48-7.32-1.92.04-3.8.47-5.53,1.3,0,.41.02.81.08,1.19.19,1.38.92,2.69,1.99,3.58ZM222.71,40.4c-.1,1.01-.19,1.96-.02,2.86.17.92.62,1.77,1.18,2.58,1.42-.8,2.73-1.78,3.9-2.9-.45-.79-.77-1.66-.9-2.56-.08-.57-.09-1.14-.1-1.69,0-.41,0-.83-.05-1.24-.05-.57-.23-1.3-.65-1.83-.49.33-1.02.61-1.59.83-.45.17-.91.31-1.38.41-.16.04-.33.05-.49.08.28,1.15.19,2.33.09,3.48ZM216.86,32.33c.99.86,1.66,2.05,1.9,3.34,1.62.12,3.53.11,5.23-.54,1.96-.75,3.36-2.34,3.58-4.05l.03-.28c.04-.46.09-.98.4-1.46.1-.15.22-.29.37-.42-.65-.45-1.41-.74-2.19-.83-.15-.02-.29-.03-.44-.04-.38-.03-.76-.05-1.16-.17-.34-.1-.64-.26-.89-.46-.83.87-1.83,1.71-3.03,2.54-.88.6-1.8,1.15-2.69,1.69-.37.22-.74.45-1.11.68ZM218.85,29.44c.34-.21.69-.41,1.01-.64,2.12-1.45,3.52-2.86,4.4-4.44.96-1.73,1.2-3.65.68-5.25-1.45.21-2.99.49-4.63.85-2.05.45-4.2,1.03-6.4,1.69.52,3.11,2.35,5.99,4.94,7.79ZM205.97,28.43c2.68-.65,5.24-1.87,7.46-3.52-.4-.92-.69-1.88-.87-2.86-.16.05-.32.09-.48.14-2.58.82-5.2,1.97-7.72,3.3.43.99.71,2.04.8,3.11.27-.06.54-.12.81-.18ZM198.2,34.91c-.06-1.07.13-2.08.61-2.93.64-1.13,1.8-2.03,3.36-2.6.53-.2,1.07-.34,1.61-.47-.06-.95-.29-1.87-.66-2.75-5.21,2.9-9.95,6.5-13.14,9.47,2.68.94,5.75.68,8.23-.72Z"/>
    <path class="cls-2" d="M112.78,124.14c-.07.01-.13.03-.19.04.47-.71,1.51-1.88,2.46-2.94,1.4-1.57,3.14-3.52,5.09-6.06,1.21-1.57,2.06-3.14,2.72-4.68.46,1,.43,2.25-.14,3.19-.26.41-.6.78-.97,1.18-.37.39-.75.79-1.07,1.27-.88,1.33-1.06,3.04-.54,4.52-2.81,1.7-5.66,3.12-7.37,3.49Z"/>
    <path class="cls-2" d="M129.95,100.51c.03-.32.11-.63.18-.94.09-.38.18-.76.21-1.15.1-1-.13-2.04-.62-2.93,1.87-1.53,3.55-2.54,5.44-3.26,1.23,1.05,1.92,2.71,1.74,4.32-.14,1.26-.75,2.42-1.4,3.65-.24.45-.46.91-.67,1.36-1.49-.49-3.15-.42-4.6.2-.24-.26-.35-.71-.29-1.25Z"/>
    <path class="cls-2" d="M123.72,108.25c.39-1.18.71-2.33,1-3.43.85-3.17,1.61-5.96,3.92-8.34.25.56.37,1.18.31,1.79-.03.33-.11.65-.19.97-.08.37-.17.74-.21,1.11-.09.83.08,1.57.46,2.12-.09.06-.18.12-.26.18-.93.76-1.59,1.74-2.23,2.69-.26.38-.52.76-.79,1.13-.41.55-1.13,1.34-2,1.78Z"/>
    <path class="cls-2" d="M138.32,96.12c.02-1.6-.59-3.2-1.66-4.39.43-.12.87-.24,1.33-.34,1.91-.42,4.18-.69,7-.93-.12.23-.23.48-.29.73-.09.36-.14.73-.19,1.1-.04.29-.07.58-.14.86-.29,1.3-1.23,2.45-2.44,3-1.13.51-2.48.48-3.61-.04Z"/>
    <path class="cls-4" d="M119.03,114.32c5.61-7.29,3.29-14.57,9.76-19.88,2.92-2.4,5.42-3.65,8.89-4.41,3.52-.77,8.04-1.05,15.01-1.51-.61.5-1.2,1.01-1.77,1.53-1.52.1-2.91.2-4.18.29-.26.36-.59.83-.68,1.2-.07.31-.12.63-.16.95-.04.33-.09.66-.16.99-.39,1.72-1.63,3.24-3.23,3.97-.03.01-.05.02-.08.03.36.6.55,1.28.59,1.97-1.83,2.78-3.22,5.41-4.2,7.47-.06-.77.02-1.5.28-2.13.29-.7.77-1.32,1.24-1.92.51-.65.99-1.26,1.16-1.9.27-1.03.19-2.33-.51-3.1-.96.13-1.94.04-2.84-.3-.29,1.17-.84,2.25-1.38,3.29-.28.54-.57,1.08-.81,1.63-.95,2.16-1.09,4.49-.47,6.41-.42.2-.85.41-1.27.63-.72-2.01-.69-4.36.1-6.67-1.56-.48-3.4-.15-4.66.89-.77.63-1.35,1.49-1.96,2.39-.27.4-.54.8-.83,1.19-.09.11-.18.23-.27.34.61.27,1.15.72,1.5,1.29.19.31.32.62.44.92.08.19.15.38.25.57.32.62.89,1.13,1.48,1.58-.39.28-.77.57-1.15.87-.6-.49-1.19-1.06-1.58-1.81-.11-.22-.21-.45-.3-.69-.1-.24-.19-.49-.33-.71-.3-.48-.83-.84-1.4-.91h0c-.44.35-.93.67-1.47.89.77,1.46.78,3.31-.09,4.74-.33.54-.75.98-1.15,1.41-.34.36-.67.7-.91,1.08-.57.86-.72,1.97-.47,2.97.58-.37,1.15-.75,1.7-1.13-.85,1.03-1.65,2.09-2.35,3.17-2.89,1.75-5.83,3.19-7.66,3.59-.69.15-1.23.16-1.55-.03-2.15-1.26,1.89-3.87,7.5-11.16ZM144.38,93.16c.06-.28.1-.57.14-.86.05-.37.1-.74.19-1.1.06-.25.17-.49.29-.73-2.83.24-5.09.51-7,.93-.46.1-.9.22-1.33.34,1.07,1.19,1.68,2.78,1.66,4.39,1.13.52,2.48.55,3.61.04,1.22-.55,2.15-1.7,2.44-3ZM134.83,101.56c.21-.46.44-.91.67-1.36.65-1.23,1.26-2.39,1.4-3.65.18-1.61-.51-3.27-1.74-4.32-1.9.72-3.57,1.73-5.44,3.26.49.88.72,1.92.62,2.93-.04.39-.13.77-.21,1.15-.07.31-.15.62-.18.94-.06.54.05,1,.29,1.25,1.44-.62,3.1-.7,4.6-.2ZM126.52,105.35c.64-.95,1.3-1.92,2.23-2.69.08-.07.18-.12.26-.18-.38-.55-.55-1.29-.46-2.12.04-.37.13-.74.21-1.11.08-.32.15-.64.19-.97.06-.61-.06-1.23-.31-1.79-2.31,2.39-3.06,5.17-3.92,8.34-.3,1.09-.61,2.24-1,3.43.88-.44,1.59-1.23,2-1.78.28-.36.53-.75.79-1.13ZM120.69,116.12c.32-.48.7-.88,1.07-1.27.37-.39.72-.76.97-1.18.57-.94.6-2.19.14-3.19-.66,1.54-1.51,3.12-2.72,4.68-1.95,2.54-3.69,4.49-5.09,6.06-.95,1.06-1.99,2.23-2.46,2.94.05-.01.12-.02.19-.04,1.71-.38,4.56-1.79,7.37-3.49-.53-1.49-.34-3.2.54-4.52Z"/>
    <path class="cls-2" d="M137.49,190.98c.37-.1.75-.19,1.13-.28,2.06-.45,4.24-.68,6.55-.92,2.28-.24,4.64-.48,6.84-.96,2.11-.46,4.28-1.17,6.19-2.55l2.58-3.32c-19.52.05-27.97-4.58-35.2-12.68-9.66-10.83-4.78-21.41,4.94-42.5.71-1.53,1.44-3.12,2.2-4.79,1.54-3.36,3.41-7.1,5.55-11.03-.03,0-.06,0-.09.01-3.09.68-6.3,2.98-7.76,4.8-2.8,3.5-12.62,9.62-16.95,10.58-1.21.27-2.16.19-2.9-.24-1.05-.62-1.39-1.45-1.48-2.05-.28-1.76,1.06-3.27,3.5-6,1.36-1.53,3.06-3.43,4.94-5.88,2.35-3.05,3.19-6.18,4.01-9.2,1.03-3.8,2.09-7.74,6.05-10.99,3.15-2.59,5.95-3.98,9.68-4.79,3.48-.77,7.77-1.05,14.27-1.48.97-.06,2.01-.13,3.08-.21,13.27-17.57,30.44-33.72,49.33-37.88.59-.13,1.16-.24,1.74-.35.26-.25.52-.5.79-.75,1.89-1.79,4.49-4.24,4.46-5.67,0-.13,0-.42-.52-.88-1.17-1.04-2.38-1.34-3.93-1-2.21.49-4.61,2.21-6.72,3.73-.93.67-1.8,1.3-2.63,1.81-.88.54-1.9.94-3.02,1.18-3.36.74-7.15.04-9.44-1.73-1.35-1.05-2.09-2.41-2.14-3.92-.17-5.38,16.36-18.11,28.52-21.96,2.94-.93,5.81-1.71,8.52-2.3,8.01-1.76,18.14-2.71,20.93,2.77,1.29,2.52.13,6.07-1.32,10.56-1.71,5.26-3.73,11.53-2.28,17.31,3.16,1.16,5.97,3.14,8.15,5.85.81,1.01,1.51,2.09,2.1,3.21,3.56,1.03,7.98,1.93,11.14,1.24.76-.17,1.39-.42,1.88-.75,1.76-1.2,2.91-2.52,4.14-3.92,2.61-2.98,5.56-6.35,14.49-8.92.59-.17,1.22-.33,1.86-.47,6.29-1.38,14.91-1.34,23.06.11,5.11.91,13.94,3.11,15.69,7.58,2.38,6.11-4.98,13.49-7.39,15.69-.46,6.19-7.73,8.81-14.77,11.35-4.09,1.48-8.32,3.01-11.54,5.18-1.17.79-2.35,1.56-3.53,2.34-7.12,4.67-13.92,9.15-16.5,15.69,3.02,3.61,5.11,7.62,4.11,12.78-.29,1.49-.9,3.5-1.83,5.88,4.63,8.84,9.19,13.47,14.62,17.48,2.2,1.63,3.86,1.96,5.19,2.23,4.12.83,4.54,2.84,3.74,8.45-1.35,9.4-20.34,39.12-37.47,45.25-3.82,1.37-7.29,2.4-10.32,3.07-8.38,1.84-13.93,1.06-17.46-2.46-.66-.66-1-1.51-.99-2.45.03-2.86,3.18-6.03,8.75-11.39,3.59-3.46,7.66-7.37,9.77-10.76l.21-.34c3.05-4.88,7.23-11.57,5.96-14.02-.21-.4-.62-.68-1.12-.89l-3.42-.59s-.09,0-.14-.01c-9.99,10-24.66,20.67-44.31,24.99-1.77.39-3.58.71-5.38.99-.74,1.5-1.55,3.03-2.4,4.55l-.28.56s-.03,0-.05,0c-6.49,11.46-15.46,22.88-19.08,25.56-.81.6-1.72,1.01-2.7,1.23-2.97.65-6.1-.52-9.73-1.88-3.67-1.38-7.84-2.94-12.41-2.69-4.79.26-10.87,1.19-16.24,2.02-9.05,1.39-12.36,1.81-13.98,1.05-.94-.44-1.46-1.39-1.36-2.49.34-3.91,11.32-14.34,20.11-16.73ZM166.43,209.56c.39.11.77.2,1.14.27.75.14,1.46.21,2.15.18.34-.02.67-.06,1-.13.7-.15,1.36-.44,1.99-.9,3.38-2.5,11.51-12.95,17.73-23.58-.62.11-1.23.21-1.82.29-1.19,1.98-2.43,3.95-3.69,5.85-1.35-.42-2.51-1.4-3.2-2.63.57-.96,1.18-1.92,1.92-2.73-.64.03-1.26.06-1.87.07-.26.35-.5.71-.74,1.08-.13-.36-.26-.72-.42-1.07-.55,0-1.09,0-1.62-.02.31.49.53,1.05.75,1.65.17.48.35.97.58,1.44.77,1.55,2.17,2.79,3.78,3.4-.46.68-.92,1.35-1.38,2-1.38-1.57-3.48-2.64-5.9-2.97-2.04-.27-4.09,0-5.84.35,2.01-1.55,3.52-3.68,4.38-6.06-.49-.03-.98-.06-1.46-.09-.84,2.08-2.27,3.92-4.07,5.23-.11-1.21-.32-2.4-.53-3.57l-.34-1.87c-.47,0-.94,0-1.43.02l.38,2.1c.29,1.58.56,3.2.58,4.81-1.07.23-2.13.38-3.09.09-.95-.29-1.84-1.04-2.52-2.11-.57-.9-.95-1.94-1.3-2.97.47-.44.91-.95,1.34-1.48-.73.11-1.48.26-2.27.43-2.3,2.2-5.19,3.35-8.28,4.02-3.66.81-7.58.97-11.08,1.48-1.98.84-4.1,1.96-6.15,3.22.9-.42,1.8-.77,2.68-1.05,1.49,1.21,2.66,2.77,3.36,4.56-2.68-.76-5.61-.74-8.25.11-.53.17-1.06.38-1.58.58-.72.28-1.39.54-2.1.72-.37.09-.8.16-1.25.18-.53.45-1.03.89-1.46,1.31,1.11.23,2.22.08,3.06-.13.79-.2,1.54-.49,2.26-.77.5-.19.99-.39,1.5-.55,2.3-.73,4.85-.78,7.2-.16-2.46.86-4.61,2.59-6.02,4.79.6-.05,1.21-.09,1.81-.12,1.49-1.86,3.6-3.2,5.98-3.71.2.22.43.43.71.59.75.41,1.57.38,2.35.21.33-.07.67-.17.98-.28,2.32-.75,4.63-1.58,6.91-2.45-.05,1.63-.32,3.24-.8,4.8-1.21-.14-2.45-.19-3.75-.12-2.52.13-5.36.45-8.25.83,2.79,0,5.56.19,8.3.57,0,0,.02,0,.03,0,1.75-.09,3.42.05,5.03.34,1.07.19,2.11.45,3.12.74,1.01.29,1.98.62,2.93.96,2.36.85,4.52,1.75,6.47,2.27ZM281.49,139.25c-4.6-3.39-8.86-7.31-13.18-14.55-.16.65-.32,1.28-.49,1.9.65,1.04,1.31,2.02,1.97,2.94-.84.65-1.46,1.7-1.75,3.02-.15.67-.21,1.34-.27,1.99-.06.63-.12,1.23-.24,1.82-.59,2.71-2.89,4.9-5.58,5.48-.05-.15-.09-.3-.15-.45-.32.55-.64,1.07-.96,1.57.03.09.06.18.09.26.46,1.41.93,2.85,1.63,4.21-.77,1.55-2.28,2.76-3.97,3.13,0,0-.01,0-.02,0-.66.14-1.34.17-2.07.2-.55.02-1.1.05-1.64.12-.25.03-.49.1-.72.18-.4.36-.77.68-1.13.98.18.36.34.71.49,1.05.47-.42,1.01-.74,1.55-.82.5-.06,1.01-.08,1.52-.11.75-.03,1.52-.07,2.3-.23,0,0,.02,0,.03,0,1.86-.41,3.48-1.57,4.51-3.15,1.22,1.69,3.07,3.16,5.32,3.3-.02.13-.04.26-.07.39-.25,1.56-.49,3.03-1.18,4.33-1.15,2.14-3.64,3.69-6.66,4.13-1.94.29-3.93.15-5.9-.11-.09.47-.2.93-.37,1.37,1.54.21,3.1.35,4.67.29.61,1.8,1.2,3.9.74,5.81-.42,1.79-1.67,3.22-2.98,4.74-.66.76-1.35,1.56-1.93,2.4-1.04,1.51-1.72,3.24-2.05,5.03-3.72.7-8.06-.34-11.35-2.72-.31.35-.63.7-.94,1.06.99.73,2.08,1.34,3.22,1.84-1.29.92-2.27,2.26-2.74,3.77-.1.33-.18.66-.25,1-.12.53-.23,1.02-.45,1.46-.51,1.06-1.63,1.8-2.43,2.25-.29.17-.59.32-.89.48-.83.44-1.69.9-2.45,1.54-1.01.85-1.65,1.92-1.83,3-1.84-.38-3-1.08-3.82-1.78.01.82.39,1.63.94,2.28,2.67,1.31,6.74,1.72,13.36.27,2.85-.63,6.19-1.6,10.09-3,16.14-5.78,34.92-34.52,36.24-43.76,1.32-9.24-1.51-3.98-8.19-8.91ZM261.79,102.91c.07,8.47-2.66,17.5-7.61,24.61-4.83,6.94-11.43,12.95-21.4,19.49-15.26,10.01-32.06,17.3-49.57,21.68,8.09-1.15,15.85-2.52,23.28-4.43,1.8-.71,3.65-1.46,5.53-2.25,2.88-1.21,5.8-2.56,8.73-4.02,2.92-1.48,5.82-3.09,8.66-4.8,2.84-1.71,5.61-3.54,8.24-5.47,2.61-1.96,5.1-3.99,7.38-6.1,4.57-4.21,8.43-8.58,11.3-12.65,2.86-4.07,4.9-7.73,6.09-10.39.67-1.3,1.06-2.38,1.38-3.1.3-.72.47-1.11.47-1.11,0,0-.13.4-.38,1.14-.26.74-.57,1.86-1.13,3.21-1.06,2.73-2.79,6.6-5.56,10.84-2.78,4.22-6.46,8.9-11.07,13.25-2.3,2.18-4.81,4.28-7.44,6.31-2.66,2-5.45,3.9-8.32,5.68-2.04,1.2-4.11,2.32-6.19,3.39,12.4-5.54,23.72-13.83,33.93-26.88,4.64-7.65,7.27-14.22,7.94-17.67.81-4.16-1.21-7.39-4.28-10.73ZM317.69,52.01c-1.51-3.87-12.41-6.9-23.25-7.42-.04-.03-.07-.06-.11-.09l-.05.08c-4.67-.22-9.31.03-13.18.88-.6.13-1.18.28-1.74.44-12.6,3.63-12.24,8.59-18.09,12.59-.72.49-1.58.83-2.53,1.04-3.07.68-7.11.03-10.59-.87.25.68.45,1.38.62,2.08,1.51.35,3.1.64,4.67.8,1.08.76,1.93,1.89,2.28,3.16.12.45.2.92.27,1.42.12.75.24,1.52.55,2.27.32.76.83,1.42,1.46,1.95-.4.4-.95.76-1.69,1.08-.36.15-.73.28-1.1.42-.66.24-1.35.49-2,.84-.68.37-1.8,1.16-2.25,2.44-.7-.14-1.4-.31-2.09-.52.03.51.08,1.01.13,1.5,1.66.46,3.34.74,5.02.79.05,0,.09,0,.15,0-1.44.9-3.04,1.55-4.7,1.93.1.46.21.93.33,1.37,1.42-.32,2.79-.85,4.07-1.52-.99,1.35-2.11,2.6-3.36,3.71.18.47.35.94.55,1.38,2.3-1.97,4.26-4.34,5.7-6.99.68-.07,1.36-.18,2.03-.32,2.16-.47,4.19-1.31,5.98-2.49,1.23-.81,2.28-1.76,3.12-2.78v.12c1.13-.02,2.25-.16,3.34-.4,3.66-.81,7.04-2.81,9.49-5.67,2.02.11,4.23-.07,6.83-.57.35-.07.72-.14,1.11-.23,2.31-.51,5.24-1.4,7.75-3.16,2.79.79,5.76.84,8.59.22,2.34-.51,4.57-1.51,6.52-2.91.95.27,1.9.33,2.78.21-.65.97-1.39,1.92-2.14,2.78-.29.23-.58.46-.88.71-.74.61-1.59,1.2-2.46,1.73-.84.59-1.72,1.11-2.58,1.55-.87.41-1.65.89-2.39,1.17-.72.3-1.33.62-1.77.77-.44.19-.69.3-.69.3,0,0,.28.02.76.05.48,0,1.18.04,2-.12.81-.14,1.78-.32,2.76-.7.47-.19.96-.41,1.44-.65,0,3.58-4.26,5.53-11.29,8.1,2.19-.07,4.28-.17,6.15-.41,4.17-1.9,7.15-4.18,7.03-7.91,0,0,9.77-8.34,7.5-14.15ZM231.65,50.1c-.87-.07-1.78-.13-2.71-.17,2.11.54,4.13,1.31,5.92,2.33,2.37,1.33,4.21,3.12,5.53,4.81,1.34,1.69,2.03,3.37,2.44,4.54.18.6.31,1.06.37,1.39.07.32.1.49.1.49,0,0-.06-.16-.17-.48-.1-.31-.29-.76-.54-1.32-.5-1.11-1.39-2.62-2.76-4.17-1.35-1.56-3.26-3.08-5.51-4.29-1.9-1.02-4.08-1.76-6.33-2.22.26.33.49.67.68,1.01.51.92.83,1.87,1.03,2.8.21.96.29,1.76.37,2.57l.26,2.39c.2,1.57.37,3.14.69,4.68.57,3.09,1.52,6.11,3.06,9.02-2.46-2.21-4.21-5.21-5.43-8.33-.58-1.57-1.11-3.18-1.49-4.79l-.56-2.4c-.19-.79-.35-1.59-.54-2.2-.39-1.31-1.08-2.27-1.9-2.77-.42-.26-.91-.43-1.48-.52-.29-.04-.59-.07-.9-.07-.31-.01-.76,0-1.13.01-3.12,0-6.23.26-9.31.74-6.14,1.01-12.14,2.93-17.76,5.71-5.64,2.75-10.86,6.38-15.71,10.47-4.81,4.15-9.21,8.8-13.24,13.77-4.03,4.98-7.65,10.31-11.04,15.78-3.02,4.89-5.77,9.96-8.34,15.12.08-.09.15-.2.23-.28,1.37-1.56,2.58-2.8,3.44-3.65.89-.82,1.4-1.28,1.4-1.28,0,0-.37.58-1.02,1.6-.68.99-1.62,2.42-2.66,4.18-1.13,1.7-2.32,3.75-3.54,5.98-1.26,2.2-2.5,4.6-3.64,7.04-1.21,2.41-2.32,4.87-3.26,7.23-.99,2.33-1.87,4.55-2.5,6.48-.74,1.91-1.28,3.54-1.63,4.68-.4,1.14-.63,1.79-.63,1.79,0,0,.05-.69.13-1.9.13-1.2.36-2.91.73-4.96.42-2.03,1.05-4.38,1.8-6.87.86-2.46,1.89-5.04,3.04-7.57,1.28-2.47,2.66-4.88,4.05-7.08.26-.37.51-.73.77-1.08,2.83-7.01,6.02-13.89,9.7-20.55.55-1.02,1.14-2.02,1.71-3.02-7.33,10.53-13.24,21.22-17.18,29.83-3.61,7.88-6.6,14.17-8.69,19.4-4.62,15.06,5.57,23.29,23.01,25.68,28.38-1.2,56.24-10.05,80.2-25.77,9.55-6.27,15.84-11.97,20.38-18.5,3.87-5.56,6.27-12.62,6.81-19.42-.06-.8-.16-1.65-.27-2.56-.17-1.21-.45-2.48-.81-3.72,0-.03-.02-.05-.02-.08-.36-.6-.77-1.22-1.21-1.85-.8-1.15-1.75-2.3-2.73-3.46-.94-1.2-1.86-2.45-2.62-3.69-.41-.65-.74-1.32-1-1.98-3.18-5.33-5.18-12.11-3.93-21.56,1.13-8.5-5.12-16.25-13.67-16.96ZM238.87,20.39c-1.95-3.82-9.75-3.79-18.86-1.79-2.71.6-5.53,1.36-8.36,2.26-12.32,3.91-27.33,16.31-27.21,20.12.09,3.02,4.85,4.65,8.85,3.96,1.42-.65,1.94-1.5,2.58-2.5-.13.09-.29.19-.41.27-.57.35-1.25.61-2.02.78-2.39.52-5.21.05-6.72-1.12-.56-.44-.86-.92-.88-1.44-.02-.75,1.11-2.3,3.03-4.22,2.17.92,4.64,1.13,6.94.62.91-.2,1.79-.51,2.63-.93,0,.03.01.07.02.1.24.84.61,1.61,1.02,2.35.37-.22.77-.45,1.22-.69-.36-.66-.69-1.35-.89-2.06-.37-1.28-.28-2.53.23-3.43.6-1.06,1.76-1.66,2.62-1.98.77-.28,1.58-.46,2.43-.64h.1s0-.01,0-.02c.38-.08.75-.16,1.12-.25.46-.11.9-.26,1.35-.4.34.65.41,1.47.11,2.15-.28.63-.82,1.14-1.39,1.69-.23.22-.47.44-.69.68-.84.89-1.28,1.87-1.3,2.77.5-.16.99-.28,1.45-.37.14-.51.49-1.04.87-1.44.2-.22.42-.42.63-.62.64-.62,1.31-1.25,1.7-2.14.44-1,.4-2.18-.05-3.17,1.8-.69,3.5-1.62,5.06-2.75.89,1.57,2.08,2.97,3.51,4.06-.11.07-.22.14-.34.21-.98.59-1.99,1.2-2.95,1.87-1.85,1.29-3.19,2.64-4.12,4.08.47.14.91.32,1.32.53.82-1.2,2.01-2.34,3.61-3.46.17-.12.35-.23.53-.35,1.54,1.06,2.25,3.26,1.62,5.01-.29.81-.82,1.53-1.39,2.29-.17.23-.34.46-.5.69.26.5.48,1.02.68,1.54.27-.47.6-.93.95-1.4.6-.81,1.21-1.65,1.57-2.65.18-.5.27-1.02.3-1.54.74.05,1.54.06,2.36.01.29.96.21,2.04.1,3.18-.1,1.06-.2,2.15,0,3.24.18.96.57,1.81,1.07,2.61,1.28-.05,2.53-.07,3.77-.07.87-.6,1.69-1.26,2.46-1.98.24.27.48.53.76.76,1.13.94,2.57,1.48,4.03,1.58,0,.02,0,.04.01.05.5.08.99.19,1.47.3-1.98-10.73,6.1-22.26,3.99-26.39ZM111.54,125.48c.32.19.85.18,1.55.03,1.83-.4,4.77-1.85,7.66-3.59.71-1.08,1.5-2.14,2.35-3.17-.55.38-1.12.76-1.7,1.13-.25-1-.1-2.11.47-2.97.25-.38.57-.72.91-1.08.4-.43.82-.87,1.15-1.41.87-1.42.86-3.28.09-4.74.54-.22,1.03-.54,1.47-.9h0c.56.09,1.1.44,1.4.93.14.22.23.46.33.71.09.23.19.47.3.69.39.74.97,1.32,1.58,1.81.38-.3.76-.59,1.15-.87-.59-.45-1.16-.95-1.48-1.58-.09-.18-.17-.38-.25-.57-.12-.3-.25-.61-.44-.92-.35-.57-.89-1.02-1.5-1.29.09-.12.19-.23.27-.34.29-.39.56-.79.83-1.19.61-.9,1.18-1.75,1.96-2.39,1.26-1.03,3.1-1.36,4.66-.89-.79,2.31-.82,4.66-.1,6.67.42-.22.85-.43,1.27-.63-.62-1.91-.48-4.24.47-6.41.24-.55.53-1.09.81-1.63.55-1.04,1.09-2.11,1.38-3.29.9.33,1.89.43,2.84.3.71.77.78,2.07.51,3.1-.17.64-.65,1.25-1.16,1.9-.47.6-.95,1.21-1.24,1.92-.26.63-.33,1.36-.28,2.13.98-2.06,2.37-4.69,4.2-7.47-.05-.68-.23-1.37-.59-1.97.03-.01.06-.01.08-.03,1.61-.73,2.85-2.25,3.23-3.97.07-.33.12-.66.16-.99.04-.32.08-.64.16-.95.09-.37.42-.85.68-1.2,1.28-.1,2.67-.19,4.18-.29.57-.52,1.16-1.03,1.77-1.53-6.97.47-11.49.74-15.01,1.51-3.47.76-5.97,2.01-8.89,4.41-6.47,5.32-4.15,12.59-9.76,19.88-5.61,7.29-9.65,9.91-7.5,11.16ZM169.78,178.16s-3.04-.1-7.59-.37c-2.27-.11-4.92-.27-7.74-.6-2.82-.28-5.81-.75-8.75-1.44-2.94-.65-5.81-1.59-8.37-2.77-2.58-1.15-4.83-2.53-6.59-3.95-1.79-1.38-3.08-2.77-3.91-3.81-.43-.51-.71-.94-.92-1.23-.2-.29-.31-.45-.31-.45,0,0,.09.16.28.47.18.31.44.76.83,1.3.75,1.1,1.96,2.6,3.69,4.13,1.74,1.51,3.99,3.01,6.58,4.28,2.6,1.24,5.53,2.23,8.51,2.94,2.99.66,6.03,1.09,8.88,1.33,2.86.22,5.52.29,7.8.31,4.57-.04,7.6-.15,7.6-.15ZM290.25,77.85s-1.83.84-4.5,2.25c-1.32.73-2.83,1.64-4.44,2.63-1.58,1.04-3.24,2.18-4.86,3.38-1.59,1.24-3.15,2.51-4.59,3.74-1.4,1.27-2.69,2.47-3.76,3.54-2.09,2.18-3.4,3.7-3.4,3.7,0,0,1.46-1.38,3.76-3.32,1.12-1,2.47-2.13,3.92-3.31,1.44-1.19,3.02-2.42,4.62-3.62,1.59-1.21,3.21-2.39,4.75-3.45,1.53-1.07,2.98-2.06,4.26-2.85,2.5-1.68,4.23-2.7,4.23-2.7ZM265.78,92.82c-1.03,1.59-1.64,2.69-1.64,2.69,0,0,.79-.98,2.06-2.37.6-.72,1.34-1.53,2.14-2.37.79-.86,1.65-1.76,2.54-2.62.87-.89,1.77-1.75,2.64-2.53.85-.79,1.66-1.53,2.39-2.12,1.39-1.26,2.38-2.04,2.38-2.04,0,0-1.1.6-2.7,1.63-.78.54-1.66,1.2-2.6,1.93-.91.76-1.85,1.6-2.76,2.48-.88.91-1.73,1.85-2.5,2.75-.73.93-1.4,1.81-1.95,2.59ZM171.24,69.56c-3.18,3-5.8,6.14-7.92,8.9-2.11,2.78-3.61,5.27-4.63,7.02-.52.87-.87,1.59-1.13,2.06-.26.48-.39.73-.39.73,0,0,.16-.24.45-.7.3-.45.71-1.13,1.29-1.96,1.1-1.69,2.82-4.02,4.99-6.71,2.18-2.68,4.95-5.61,8.11-8.54,3.16-2.92,6.8-5.76,10.66-8.23,3.84-2.51,7.91-4.67,11.88-6.36,3.96-1.68,7.77-3.01,11.11-3.91,3.34-.89,6.17-1.49,8.16-1.8.99-.19,1.78-.29,2.32-.37.54-.08.82-.12.82-.12,0,0-.29.02-.83.06-.54.04-1.34.08-2.35.19-2.02.21-4.9.57-8.31,1.35-3.39.8-7.32,1.91-11.37,3.58-4.04,1.66-8.21,3.8-12.14,6.3-3.9,2.57-7.55,5.49-10.73,8.5ZM198.42,177.58c2.62-.82,5.19-1.48,7.54-2.38,1.18-.42,2.34-.83,3.45-1.22,1.1-.44,2.15-.87,3.17-1.28,2.04-.81,3.85-1.67,5.46-2.45.8-.38,1.56-.74,2.25-1.07.68-.36,1.31-.69,1.87-.99,2.25-1.2,3.54-1.89,3.54-1.89,0,0-1.31.64-3.61,1.76-.57.28-1.21.58-1.9.92-.71.3-1.47.63-2.28.98-1.63.71-3.47,1.51-5.53,2.24-1.02.39-2.08.8-3.18,1.22-1.12.37-2.27.76-3.46,1.15-2.36.85-4.92,1.46-7.54,2.22-5.29,1.32-10.99,2.51-16.77,3.16-5.77.65-11.59.99-17.04.79-5.44-.18-10.52-.66-14.81-1.48-1.08-.18-2.11-.36-3.09-.52-.97-.23-1.89-.44-2.76-.64-1.73-.4-3.24-.75-4.45-1.15-2.44-.74-3.84-1.16-3.84-1.16,0,0,1.38.47,3.8,1.29,1.2.45,2.7.85,4.42,1.31.86.23,1.78.48,2.74.74.98.2,2.01.42,3.08.64,4.3.9,9.4,1.48,14.88,1.77,5.49.24,11.35-.05,17.18-.67,5.82-.71,11.55-1.94,16.87-3.31Z"/>
    <path class="cls-2" d="M167.25,201.69c.47.41.92.84,1.39,1.31.44.45.89.9,1.37,1.32.9.79,2.16,1.66,3.6,1.93-.67.69-1.27,1.23-1.74,1.58-.44.33-.92.54-1.45.66-1.82.4-4.21-.39-6.96-1.41,1.34-1.71,2.68-3.48,3.8-5.4Z"/>
    <path class="cls-2" d="M145.51,193.04c1.72-.18,3.49-.36,5.24-.65.91.66,1.64,1.57,2.07,2.61.3.75.47,1.62.53,2.67-2.42.93-4.88,1.81-7.34,2.61-.77.25-1.64.49-2.22.17-.54-.3-.81-1.01-1.1-1.76l-.11-.3c-.67-1.72-1.73-3.26-3.06-4.53,1.84-.39,3.86-.6,6-.83Z"/>
    <path class="cls-2" d="M166.78,199.6c-1.74-1.06-3.95-1.58-6.43-1.47-1.92.08-3.78.5-5.59.95,0-.23.02-.46.02-.69-.01-1.58-.22-2.83-.66-3.92-.36-.9-.93-1.72-1.61-2.42.07-.01.15-.03.22-.04,2.39-.53,5.23-1.42,7.75-3.37.33.94.71,1.87,1.26,2.75.86,1.36,2.03,2.32,3.3,2.7,1.14.35,2.31.24,3.43.02-.18,1.76-.75,3.59-1.68,5.48Z"/>
    <path class="cls-2" d="M170.94,203.27c-.45-.4-.87-.83-1.3-1.26-.54-.54-1.09-1.09-1.7-1.6,1.16-2.27,1.83-4.5,1.98-6.63l.14-.03c1.85-.44,4.27-.92,6.61-.61,2.21.3,4.1,1.3,5.24,2.77-2.59,3.63-5.07,6.79-7.06,9.01-1.5.15-2.95-.8-3.91-1.65Z"/>
    <path class="cls-2" d="M160.41,199.54c1.57-.07,3.82.11,5.72,1.3-1.17,2.02-2.62,3.91-4.06,5.73-2.48-.93-5.17-1.89-8.12-2.39.35-1.18.59-2.39.72-3.62,1.88-.48,3.81-.94,5.74-1.02Z"/>
    <path class="cls-4" d="M157.03,206.33c-1.01-.29-2.05-.55-3.12-.74-1.61-.29-3.28-.43-5.03-.34-.01,0-.02,0-.03,0-2.74-.38-5.51-.57-8.3-.57,2.9-.38,5.73-.7,8.25-.83,1.29-.07,2.54-.02,3.75.12.48-1.56.75-3.17.8-4.8-2.28.87-4.6,1.7-6.91,2.45-.31.1-.65.2-.98.28-.78.17-1.6.2-2.35-.21-.29-.16-.51-.36-.71-.59-2.38.51-4.49,1.85-5.98,3.71-.6.03-1.21.08-1.81.12,1.41-2.2,3.57-3.94,6.02-4.79-2.35-.62-4.9-.58-7.2.16-.51.16-1.01.36-1.5.55-.72.28-1.47.57-2.26.77-.83.21-1.95.36-3.06.13.44-.42.93-.86,1.46-1.31.45-.03.88-.09,1.25-.18.7-.18,1.38-.44,2.1-.72.52-.2,1.05-.41,1.58-.58,2.64-.85,5.58-.87,8.25-.11-.71-1.79-1.87-3.35-3.36-4.56-.89.27-1.78.62-2.68,1.05,2.05-1.26,4.16-2.38,6.15-3.22,3.51-.51,7.43-.67,11.08-1.48,3.09-.68,5.97-1.83,8.28-4.02.79-.18,1.54-.32,2.27-.43-.43.54-.87,1.04-1.34,1.48.35,1.03.73,2.07,1.3,2.97.68,1.07,1.57,1.82,2.52,2.11.96.29,2.02.15,3.09-.09-.02-1.61-.3-3.23-.58-4.81l-.38-2.1c.48-.01.95-.02,1.43-.02l.34,1.87c.21,1.17.41,2.36.53,3.57,1.8-1.31,3.22-3.16,4.07-5.23.48.03.97.06,1.46.09-.86,2.37-2.37,4.5-4.38,6.06,1.74-.36,3.79-.62,5.84-.35,2.42.32,4.52,1.39,5.9,2.97.46-.66.92-1.32,1.38-2-1.62-.61-3.01-1.86-3.78-3.4-.24-.47-.41-.97-.58-1.44-.22-.6-.44-1.16-.75-1.65.53.01,1.07.02,1.62.02.16.36.29.72.42,1.07.23-.37.48-.73.74-1.08.6-.01,1.23-.04,1.87-.07-.75.81-1.35,1.77-1.92,2.73.69,1.23,1.85,2.21,3.2,2.63,1.26-1.9,2.5-3.86,3.69-5.85.59-.08,1.2-.18,1.82-.29-6.22,10.64-14.35,21.08-17.73,23.58-.62.46-1.29.75-1.99.9-.32.07-.66.11-1,.13-.68.03-1.4-.04-2.15-.18-.37-.07-.76-.16-1.14-.27-1.95-.52-4.11-1.42-6.47-2.27-.94-.34-1.92-.67-2.93-.96ZM171.87,207.83c.47-.35,1.06-.89,1.74-1.58-1.44-.28-2.7-1.14-3.6-1.93-.47-.42-.92-.87-1.37-1.32-.46-.47-.92-.9-1.39-1.31-1.12,1.92-2.46,3.69-3.8,5.4,2.75,1.02,5.14,1.81,6.96,1.41.53-.12,1.01-.33,1.45-.66ZM162.07,206.57c1.44-1.82,2.89-3.71,4.06-5.73-1.9-1.18-4.15-1.37-5.72-1.3-1.94.08-3.87.54-5.74,1.02-.13,1.23-.36,2.44-.72,3.62,2.95.5,5.64,1.47,8.12,2.39ZM142.68,198.7c.29.75.56,1.47,1.1,1.76.59.32,1.46.08,2.22-.17,2.46-.8,4.93-1.68,7.34-2.61-.06-1.05-.23-1.92-.53-2.67-.42-1.04-1.15-1.95-2.07-2.61-1.75.29-3.51.47-5.24.65-2.14.23-4.17.44-6,.83,1.33,1.27,2.39,2.81,3.06,4.53l.11.3ZM165.03,194.1c-1.27-.39-2.44-1.35-3.3-2.7-.55-.87-.93-1.81-1.26-2.75-2.52,1.95-5.36,2.84-7.75,3.37-.07.02-.15.03-.22.04.68.7,1.25,1.51,1.61,2.42.44,1.09.65,2.34.66,3.92,0,.23-.01.46-.02.69,1.81-.46,3.67-.87,5.59-.95,2.48-.11,4.69.41,6.43,1.47.94-1.89,1.51-3.73,1.68-5.48-1.11.22-2.29.33-3.43-.02ZM176.66,193.14c-2.34-.31-4.76.17-6.61.61l-.14.03c-.14,2.13-.82,4.35-1.98,6.63.6.5,1.16,1.06,1.7,1.6.42.43.85.86,1.3,1.26.96.85,2.41,1.8,3.91,1.65,1.98-2.22,4.47-5.38,7.06-9.01-1.14-1.46-3.03-2.47-5.24-2.77Z"/>
    <path class="cls-2" d="M255.64,61.68c1.22.01,2.41-.08,3.49-.31,1.23-.27,2.3-.71,3.19-1.32.1-.07.18-.14.28-.21.38.58.58,1.32.58,2.01,0,.73-.13,1.46-.27,2.23-.1.58-.21,1.19-.26,1.81-.12,1.48.21,2.76.89,3.67-.02,0-.03.01-.04.02-.28.14-.57.29-.86.39-.91.33-1.94.3-2.83-.09-.89-.39-1.61-1.13-1.98-2.02-.24-.59-.35-1.25-.45-1.95-.08-.52-.16-1.05-.31-1.58-.27-.98-.77-1.87-1.41-2.65Z"/>
    <path class="cls-2" d="M259.23,71.15c1.22.53,2.63.58,3.87.12.35-.13.68-.29,1.01-.46.41-.2.79-.4,1.18-.49.45-.12.97-.01,1.2.27-.71.8-1.57,1.54-2.54,2.18-2.82,1.86-6.34,2.81-9.92,2.7-.56-.02-1.12-.07-1.68-.14.27-.54.79-1.05,1.5-1.44.56-.31,1.16-.52,1.8-.75.39-.14.78-.28,1.17-.44,1.03-.43,1.8-.96,2.34-1.59.02.01.04.03.06.03Z"/>
    <path class="cls-2" d="M299.21,58.74c-.76-.5-1.34-1.28-1.55-2.24,0-.03,0-.05,0-.07-.27-.74-.32-1.49-.31-1.82,0-.6.05-1.2.12-1.84.09-.87.18-1.78.09-2.7-.11-1.24-.55-2.43-1.22-3.46,3.71.3,7.3.89,10.38,1.65-1.5,1.07-2.79,2.44-3.96,3.87.53.06,1.06.17,1.55.33,1.25-1.46,2.63-2.79,4.24-3.71,4.03,1.16,6.88,2.6,7.41,3.96.01.04.02.08.03.11-2.71-.13-5.46.85-7.47,2.67-.3-.21-.6-.43-.92-.66-.48-.35-.96-.7-1.44-1.03.08.15.15.3.19.47.09.41.03.85-.13,1.29.15.11.31.23.46.34.96.71,2.04,1.49,3.23,2.08-3.56,2.25-8,3.05-12.12,2.18.5-.44.98-.91,1.44-1.41ZM302.06,55.48c.11.02.22.02.34,0,.47-.1.76-.56.66-1.03-.1-.47-.56-.76-1.03-.66-.44.09-.72.52-.66.95,0,0-.01,0-.01,0-.33.07-.53.39-.46.72.07.33.4.54.72.46.23-.05.39-.23.45-.44ZM300.12,53.22c-.25.11-.53.27-.8.49-.26.23-.5.52-.7.84-.16.34-.28.7-.34,1.04-.03.35-.02.67.01.94.15.54.33.84.33.84,0,0,.03-.36.2-.82.05-.23.13-.5.25-.75.09-.27.22-.54.38-.78.12-.27.28-.51.47-.73.16-.24.34-.44.51-.61.31-.39.6-.6.6-.6,0,0-.35,0-.89.16Z"/>
    <path class="cls-2" d="M287.47,52.35c.39.74.8,1.5,1.29,2.22.2.29.42.56.65.83-.97.2-1.98.62-3.07,1.33-.51.34-.99.7-1.48,1.06-.69.52-1.34,1.01-2.05,1.41-.77.44-1.84.88-2.95.83.45-.66.83-1.36,1.14-2.1.92-2.2,1.14-4.56,1.36-6.83l.33-3.41c1.17.15,2.38.96,3.34,2.27.54.74.98,1.55,1.44,2.41Z"/>
    <path class="cls-2" d="M270.85,51.86c2.41,2.56,5.87,4.01,9.39,3.91-.14.55-.32,1.09-.53,1.61-.9,2.14-2.49,3.94-4.49,5.11-1.14-.55-2.14-1.24-2.96-2.07-.48-.48-.91-1.01-1.35-1.58-.38-.48-.77-.95-1.18-1.4-.84-.91-1.71-1.54-2.6-1.9,0-.01.02-.03.03-.04,1.1-1.25,2.16-2.47,3.69-3.64Z"/>
    <path class="cls-2" d="M266.11,56.68c.86.22,1.72.78,2.59,1.71.39.42.75.87,1.11,1.33.37.47.77.94,1.19,1.4-.83.46-1.4,1.31-1.68,2.07-.25.71-.35,1.43-.44,2.12-.05.36-.09.72-.17,1.08-.21,1.05-.68,2.09-1.33,3.06-.63-.56-1.6-.73-2.41-.49-.02,0-.04.01-.06.02-.93-.84-.92-2.36-.87-3,.05-.56.15-1.12.25-1.67.14-.8.29-1.62.29-2.48,0-.91-.24-2-.84-2.88.91-.75,1.67-1.52,2.37-2.28Z"/>
    <path class="cls-2" d="M270.09,66.67c.08-.39.13-.78.18-1.17.09-.65.17-1.27.37-1.83.24-.67.81-1.39,1.5-1.46,1.81,1.47,4.17,2.47,6.8,2.86-2.67,2.73-6.3,4.43-10.1,4.75.6-1,1.03-2.05,1.25-3.14Z"/>
    <path class="cls-2" d="M309.73,56.28c1.77-1.47,4.13-2.22,6.42-2.04-.06.87-.38,1.81-.85,2.76-.99.51-2.29.61-3.62.19-.68-.21-1.32-.53-1.96-.91Z"/>
    <path class="cls-2" d="M276.82,63.13c.75-.53,1.45-1.14,2.06-1.83.82.2,1.64.17,2.39,0,.85-.19,1.63-.54,2.24-.89.78-.44,1.5-.98,2.19-1.5.47-.35.93-.69,1.41-1.01,1.29-.85,2.43-1.25,3.47-1.23.97.92,2.06,1.7,3.27,2.28.82.4,1.6.62,2.34.7-.12.1-.24.21-.36.3-2.1,1.54-4.82,2.6-8.57,3.32-3.17.61-5.72.74-8.02.42-.84-.12-1.65-.32-2.42-.57Z"/>
    <path class="cls-2" d="M281.31,47.35l-.35,3.61c-.11,1.13-.23,2.29-.43,3.41-3.12.18-6.34-1.08-8.53-3.32,1.83-1.18,4.27-2.31,7.86-3.34.46-.13.95-.25,1.45-.36Z"/>
    <path class="cls-2" d="M296.15,50.18c.07.79,0,1.59-.09,2.44-.06.64-.13,1.31-.13,1.98.01,1.49.44,2.77,1.18,3.66-.92.11-1.91-.22-2.66-.58-1.83-.88-3.4-2.23-4.54-3.91-.44-.66-.82-1.35-1.21-2.09-.46-.86-.94-1.75-1.54-2.57-.78-1.06-1.7-1.85-2.67-2.33,3.17-.42,6.59-.49,9.97-.31.95,1.01,1.56,2.32,1.69,3.71Z"/>
    <path class="cls-4" d="M310.19,66.17c.12,3.73-2.86,6.01-7.03,7.91-1.87.24-3.96.34-6.15.41,7.03-2.57,11.29-4.52,11.29-8.1-.48.24-.97.46-1.44.65-.97.39-1.94.56-2.76.7-.82.16-1.52.11-2,.12-.48-.03-.76-.05-.76-.05,0,0,.25-.11.69-.3.45-.16,1.05-.47,1.77-.77.73-.28,1.52-.77,2.39-1.17.86-.43,1.74-.96,2.58-1.55.87-.53,1.71-1.12,2.46-1.73.3-.25.59-.48.88-.71.75-.86,1.49-1.8,2.14-2.78-.88.12-1.83.06-2.78-.21-1.95,1.4-4.17,2.4-6.52,2.91-2.83.62-5.8.57-8.59-.22-2.51,1.76-5.44,2.65-7.75,3.16-.39.08-.76.16-1.11.23-2.6.5-4.81.68-6.83.57-2.45,2.86-5.83,4.86-9.49,5.67-1.09.24-2.21.38-3.34.4v-.12c-.85,1.03-1.89,1.97-3.13,2.78-1.78,1.17-3.82,2.01-5.98,2.49-.67.15-1.34.25-2.03.32-1.44,2.65-3.4,5.02-5.7,6.99-.2-.45-.37-.91-.55-1.38,1.25-1.11,2.37-2.36,3.36-3.71-1.29.68-2.66,1.2-4.07,1.52-.12-.44-.23-.91-.33-1.37,1.66-.38,3.26-1.03,4.7-1.93-.05,0-.1,0-.15,0-1.67-.05-3.36-.32-5.02-.79-.06-.49-.1-.99-.13-1.5.69.21,1.39.38,2.09.52.45-1.28,1.57-2.07,2.25-2.44.65-.36,1.33-.6,2-.84.37-.13.74-.27,1.1-.42.74-.31,1.29-.67,1.69-1.08-.62-.53-1.14-1.19-1.46-1.95-.31-.75-.43-1.52-.55-2.27-.08-.5-.15-.97-.27-1.42-.35-1.27-1.2-2.4-2.28-3.16-1.57-.16-3.15-.44-4.67-.8-.17-.7-.37-1.4-.62-2.08,3.49.9,7.52,1.55,10.59.87.95-.21,1.81-.54,2.53-1.04,5.85-4,5.49-8.96,18.09-12.59.56-.16,1.14-.31,1.74-.44,3.87-.85,8.51-1.1,13.18-.88l.05-.08s.07.06.11.09c10.84.52,21.74,3.55,23.25,7.42,2.27,5.81-7.5,14.15-7.5,14.15ZM315.31,57c.47-.95.79-1.89.85-2.76-2.3-.17-4.65.57-6.42,2.04.64.38,1.28.7,1.96.91,1.33.42,2.63.32,3.62-.19ZM309.9,57.97c-1.19-.59-2.27-1.38-3.23-2.08-.15-.11-.31-.22-.46-.34.16-.44.22-.88.13-1.29-.04-.17-.1-.32-.19-.47.48.33.96.67,1.44,1.03.32.23.62.45.92.66,2.01-1.82,4.76-2.8,7.47-2.67-.01-.04-.01-.08-.03-.11-.53-1.37-3.38-2.8-7.41-3.96-1.61.92-2.99,2.26-4.24,3.71-.49-.16-1.02-.27-1.55-.33,1.17-1.43,2.46-2.8,3.96-3.87-3.08-.75-6.67-1.35-10.38-1.65.67,1.04,1.11,2.22,1.22,3.46.09.92,0,1.83-.09,2.7-.06.64-.12,1.24-.12,1.84,0,.33.05,1.09.31,1.82,0,.03,0,.05,0,.07.21.96.79,1.74,1.55,2.24-.45.49-.93.96-1.44,1.41,4.12.87,8.56.07,12.12-2.18ZM264.58,61.84c0,.86-.15,1.68-.29,2.48-.1.55-.2,1.11-.25,1.67-.05.64-.05,2.16.87,3,.02,0,.04-.02.06-.02.81-.24,1.78-.08,2.41.49.66-.97,1.12-2.01,1.33-3.06.07-.36.12-.72.17-1.08.09-.7.19-1.42.44-2.12.27-.76.85-1.61,1.68-2.07-.42-.46-.82-.93-1.19-1.4-.36-.45-.72-.9-1.11-1.33-.87-.93-1.73-1.5-2.59-1.71-.7.76-1.46,1.53-2.37,2.28.59.87.83,1.97.84,2.88ZM269.73,57.44c.41.45.8.93,1.18,1.4.45.56.87,1.1,1.35,1.58.82.83,1.82,1.52,2.96,2.07,2-1.17,3.6-2.97,4.49-5.11.21-.52.39-1.06.53-1.61-3.52.1-6.98-1.35-9.39-3.91-1.52,1.17-2.59,2.39-3.69,3.64-.01.01-.02.03-.03.04.89.37,1.76.99,2.6,1.9ZM282.69,47.68l-.33,3.41c-.22,2.28-.45,4.63-1.36,6.83-.31.74-.7,1.44-1.14,2.1,1.1.05,2.18-.39,2.95-.83.71-.4,1.36-.89,2.05-1.41.49-.36.97-.72,1.48-1.06,1.08-.71,2.09-1.14,3.07-1.33-.22-.27-.45-.54-.65-.83-.48-.72-.89-1.48-1.29-2.22-.46-.86-.89-1.66-1.44-2.41-.96-1.31-2.17-2.12-3.34-2.27ZM280.54,54.36c.2-1.13.32-2.28.43-3.41l.35-3.61c-.5.11-.99.23-1.45.36-3.59,1.04-6.03,2.16-7.86,3.34,2.2,2.23,5.41,3.5,8.53,3.32ZM284.49,46.78c.97.48,1.89,1.26,2.67,2.33.6.82,1.08,1.71,1.54,2.57.39.74.77,1.43,1.21,2.09,1.14,1.68,2.71,3.03,4.54,3.91.75.36,1.74.69,2.66.58-.74-.89-1.17-2.17-1.18-3.66,0-.68.06-1.34.13-1.98.08-.85.16-1.65.09-2.44-.13-1.39-.74-2.7-1.69-3.71-3.38-.18-6.8-.11-9.97.31ZM287.26,63.28c3.75-.72,6.48-1.78,8.57-3.32.13-.09.24-.21.36-.3-.73-.08-1.52-.3-2.34-.7-1.21-.58-2.3-1.36-3.27-2.28-1.04-.02-2.18.37-3.47,1.23-.48.32-.95.67-1.41,1.01-.69.52-1.41,1.05-2.19,1.5-.61.35-1.38.7-2.24.89-.75.16-1.57.2-2.39,0-.61.69-1.3,1.3-2.06,1.83.77.25,1.58.45,2.42.57,2.3.32,4.85.19,8.02-.42ZM278.94,65.07c-2.62-.39-4.99-1.39-6.8-2.86-.7.08-1.26.79-1.5,1.46-.2.56-.28,1.18-.37,1.83-.05.39-.1.79-.18,1.17-.22,1.09-.65,2.14-1.25,3.14,3.8-.31,7.44-2.02,10.1-4.75ZM255.66,73.15c-.64.23-1.24.45-1.8.75-.71.39-1.23.89-1.5,1.44.56.07,1.12.12,1.68.14,3.58.11,7.1-.84,9.92-2.7.97-.64,1.82-1.38,2.54-2.18-.23-.28-.75-.39-1.2-.27-.39.09-.78.29-1.18.49-.33.17-.66.33-1.01.46-1.24.45-2.66.41-3.87-.12-.02,0-.04-.02-.06-.03-.55.63-1.32,1.15-2.34,1.59-.38.16-.78.31-1.17.44ZM257.36,65.9c.11.7.21,1.35.45,1.95.37.89,1.1,1.63,1.98,2.02.89.39,1.92.42,2.83.09.3-.11.58-.25.86-.39.01,0,.03-.01.04-.02-.69-.91-1.01-2.19-.89-3.67.05-.62.16-1.22.26-1.81.14-.77.27-1.5.27-2.23,0-.69-.2-1.44-.58-2.01-.1.07-.18.14-.28.21-.89.61-1.96,1.05-3.19,1.32-1.08.24-2.27.33-3.49.31.64.77,1.14,1.67,1.41,2.65.15.53.23,1.06.31,1.58Z"/>
    <path class="cls-1" d="M258.12,131.32c-10.22,13.05-21.53,21.34-33.93,26.88,2.08-1.08,4.15-2.19,6.19-3.39,2.87-1.78,5.66-3.68,8.32-5.68,2.63-2.03,5.14-4.13,7.44-6.31,4.61-4.35,8.28-9.03,11.07-13.25,2.77-4.24,4.5-8.1,5.56-10.84.56-1.35.87-2.47,1.13-3.21.25-.75.38-1.14.38-1.14,0,0-.16.39-.47,1.11-.32.72-.71,1.8-1.38,3.1-1.19,2.66-3.23,6.32-6.09,10.39-2.87,4.07-6.74,8.44-11.3,12.65-2.28,2.11-4.77,4.13-7.38,6.1-2.63,1.93-5.4,3.76-8.24,5.47-2.84,1.72-5.75,3.32-8.66,4.8-2.93,1.45-5.86,2.8-8.73,4.02-1.88.79-3.72,1.54-5.53,2.25-7.43,1.92-15.19,3.28-23.28,4.43,17.51-4.39,34.31-11.67,49.57-21.68,9.97-6.54,16.57-12.55,21.4-19.49,4.94-7.11,7.67-16.14,7.61-24.61,3.07,3.34,5.09,6.58,4.28,10.73-.67,3.45-3.3,10.02-7.94,17.67Z"/>
    <path class="cls-1" d="M245.32,67.05c-1.25,9.45.75,16.24,3.93,21.56.27.66.59,1.33,1,1.98.76,1.25,1.68,2.49,2.62,3.69.98,1.16,1.93,2.31,2.73,3.46.44.63.85,1.25,1.21,1.85,0,.03.02.05.02.08.36,1.24.64,2.51.81,3.72.11.91.21,1.76.27,2.56-.54,6.8-2.94,13.86-6.81,19.42-4.54,6.53-10.83,12.24-20.38,18.5-23.97,15.72-51.82,24.57-80.2,25.77-17.44-2.39-27.63-10.61-23.01-25.68,2.1-5.23,5.08-11.51,8.69-19.4,3.94-8.61,9.85-19.3,17.18-29.83-.58,1-1.16,2-1.71,3.02-3.67,6.65-6.86,13.53-9.7,20.55-.26.36-.51.71-.77,1.08-1.39,2.2-2.77,4.61-4.05,7.08-1.14,2.54-2.18,5.11-3.04,7.57-.75,2.5-1.38,4.84-1.8,6.87-.37,2.05-.59,3.76-.73,4.96-.08,1.21-.13,1.9-.13,1.9,0,0,.23-.65.63-1.79.36-1.14.89-2.77,1.63-4.68.63-1.94,1.5-4.15,2.5-6.48.94-2.35,2.05-4.82,3.26-7.23,1.14-2.45,2.38-4.85,3.64-7.04,1.22-2.23,2.41-4.28,3.54-5.98,1.04-1.77,1.98-3.2,2.66-4.18.65-1.02,1.02-1.6,1.02-1.6,0,0-.51.47-1.4,1.28-.86.85-2.07,2.09-3.44,3.65-.07.09-.15.19-.23.28,2.57-5.16,5.32-10.23,8.34-15.12,3.4-5.47,7.01-10.8,11.04-15.78,4.03-4.98,8.43-9.63,13.24-13.77,4.84-4.09,10.07-7.72,15.71-10.47,5.62-2.78,11.62-4.71,17.76-5.71,3.07-.48,6.19-.74,9.31-.74.37,0,.82-.02,1.13-.01.32,0,.61.03.9.07.57.09,1.06.26,1.48.52.82.5,1.5,1.46,1.9,2.77.19.61.35,1.41.54,2.2l.56,2.4c.38,1.61.9,3.22,1.49,4.79,1.22,3.12,2.98,6.12,5.43,8.33-1.55-2.91-2.5-5.93-3.06-9.02-.32-1.54-.48-3.11-.69-4.68l-.26-2.39c-.08-.81-.16-1.62-.37-2.57-.2-.92-.52-1.87-1.03-2.8-.19-.35-.43-.69-.68-1.01,2.26.46,4.44,1.2,6.33,2.22,2.26,1.21,4.16,2.73,5.51,4.29,1.37,1.55,2.26,3.06,2.76,4.17.25.56.44,1,.54,1.32.11.31.17.48.17.48,0,0-.03-.17-.1-.49-.06-.33-.19-.79-.37-1.39-.41-1.16-1.1-2.84-2.44-4.54-1.32-1.69-3.16-3.48-5.53-4.81-1.79-1.01-3.81-1.79-5.92-2.33.94.04,1.85.09,2.71.17,8.54.7,14.79,8.46,13.67,16.96ZM172.88,121.73c1.65-1.22,4.06-2.92,6.94-4.95,2.86-2.06,6.29-4.32,9.94-6.79,3.66-2.44,7.62-4.96,11.63-7.4,3.99-2.47,8.04-4.86,11.87-7.02,3.85-2.14,7.42-4.17,10.55-5.79,3.12-1.64,5.72-3.02,7.56-3.94,1.83-.94,2.88-1.48,2.88-1.48,0,0-1.09.45-2.99,1.25-1.89.82-4.6,1.98-7.78,3.52-3.18,1.52-6.88,3.35-10.77,5.46-3.87,2.12-7.96,4.47-12,6.89-4,2.5-7.94,5.08-11.59,7.57-3.63,2.51-6.94,4.98-9.74,7.12-2.81,2.14-5.07,4.03-6.66,5.34-1.57,1.33-2.47,2.09-2.47,2.09,0,0,.95-.69,2.62-1.9ZM171.73,146.02c-.98.14-1.93.28-2.83.42-.9.1-1.76.2-2.57.29-1.61.2-3.02.37-4.19.45-2.34.23-3.68.36-3.68.36,0,0,1.34.15,3.68.41,1.18.14,2.6.22,4.25.27.83.03,1.7.05,2.62.08.92,0,1.89-.03,2.91-.06,4.06-.04,8.79-.56,13.81-1.39,2.49-.52,5.1-.94,7.66-1.69,2.6-.63,5.17-1.51,7.77-2.31,2.54-.98,5.1-1.89,7.53-3,2.48-1.01,4.79-2.29,7.06-3.42,1.12-.59,2.2-1.24,3.26-1.85,1.06-.61,2.08-1.23,3.05-1.88.97-.64,1.92-1.26,2.83-1.86.91-.61,1.74-1.27,2.56-1.87.81-.61,1.6-1.18,2.32-1.75.71-.59,1.38-1.16,2.01-1.69,1.26-1.05,2.33-2,3.17-2.84,1.68-1.65,2.64-2.6,2.64-2.6,0,0-1.13.73-3.11,2-.96.66-2.18,1.41-3.57,2.25-.69.43-1.42.88-2.19,1.36-.79.45-1.61.93-2.48,1.43-.87.49-1.75,1.03-2.69,1.53-.95.5-1.92,1.02-2.92,1.56-.99.56-2.04,1.07-3.12,1.58-1.07.52-2.16,1.06-3.27,1.6-2.26,1.01-4.58,2.07-6.99,3.03-2.38,1.04-4.88,1.87-7.35,2.78-2.5.82-4.98,1.71-7.49,2.36-2.49.73-4.96,1.35-7.36,1.95-4.82,1.06-9.37,1.98-13.31,2.51ZM205.18,116.04s1.66-.26,4.13-.8c1.23-.28,2.66-.64,4.19-1.03,1.52-.43,3.14-.91,4.74-1.42,1.59-.54,3.18-1.11,4.66-1.67,1.47-.59,2.83-1.15,3.99-1.66,2.3-1.04,3.8-1.81,3.8-1.81,0,0-1.57.59-3.93,1.48-1.18.45-2.56.95-4.04,1.47-1.48.53-3.07,1.07-4.66,1.59-1.59.53-3.19,1.04-4.69,1.49-1.5.46-2.91.89-4.13,1.22-2.42.69-4.04,1.15-4.04,1.15ZM235.79,109.58c-2.54,1.2-5.58,2.41-8.82,3.74-3.26,1.29-6.77,2.56-10.32,3.71-3.54,1.17-7.13,2.24-10.52,3.12-3.4.85-6.57,1.67-9.32,2.21-2.75.57-5.04,1.04-6.66,1.31-1.61.3-2.54.46-2.54.46,0,0,.93-.08,2.57-.21,1.63-.17,3.98-.38,6.76-.85,2.79-.43,6.03-1.03,9.46-1.84,3.43-.83,7.05-1.85,10.65-2.98,3.56-1.22,7.09-2.55,10.34-3.9,3.25-1.38,6.21-2.82,8.71-4.12,2.51-1.27,4.53-2.48,5.95-3.32,1.4-.86,2.2-1.35,2.2-1.35,0,0-.84.41-2.32,1.13-1.47.74-3.59,1.72-6.15,2.89ZM228.64,143.16c.5-.24,1.11-.55,1.79-.93.69-.36,1.46-.79,2.27-1.32,1.63-1.01,3.49-2.28,5.36-3.8,1.86-1.54,3.74-3.29,5.53-5.13,1.72-1.91,3.34-3.91,4.75-5.87,1.38-1.97,2.53-3.91,3.43-5.61.47-.84.85-1.63,1.16-2.35.33-.71.6-1.33.8-1.85.41-1.04.64-1.64.64-1.64,0,0-.31.55-.86,1.53-.25.5-.6,1.08-1.01,1.73-.39.67-.85,1.41-1.36,2.21-.98,1.63-2.31,3.4-3.7,5.31-1.43,1.88-3.06,3.81-4.79,5.65-1.71,1.85-3.52,3.6-5.31,5.15-1.81,1.52-3.49,2.97-5.05,4.05-.76.57-1.47,1.07-2.11,1.51-.63.45-1.18.84-1.66,1.12-.93.61-1.47.97-1.47.97,0,0,.58-.27,1.59-.75ZM247.84,118.76c.83-1.32,1.66-2.64,2.4-4.01l.57-1.03c.2-.42.41-.83.56-1.26.32-.86.57-1.76.67-2.67.25-1.82.05-3.67-.55-5.36-.28-.85-.68-1.66-1.14-2.42-.23-.38-.49-.74-.75-1.1l-.68-.85c-3.54-4.59-6.29-9.86-8.54-15.52.37,6.1,2.34,12.17,5.63,17.53l.62.99c.16.27.33.53.46.81.28.55.52,1.12.66,1.72.3,1.18.36,2.41.15,3.58-.09.59-.28,1.15-.51,1.68-.11.27-.26.52-.39.78l-.57.93c-.72,1.26-1.54,2.47-2.35,3.68-6.6,9.62-15.48,17.66-25.41,24.1-9.93,6.49-20.96,11.33-32.34,14.99-5.7,1.84-11.51,3.35-17.4,4.58-5.87,1.27-11.83,2.21-17.81,2.95,6.03-.23,12.05-.82,18.05-1.68,5.98-.9,11.93-2.11,17.81-3.65,5.88-1.51,11.66-3.48,17.3-5.79,5.65-2.3,11.16-4.99,16.43-8.14,10.49-6.27,20.26-14.38,27.13-24.85ZM154.42,168.3c1.73-.13,4.22-.28,7.18-.66,2.96-.35,6.41-.84,10.08-1.54,3.66-.72,7.55-1.6,11.4-2.59,3.83-1.08,7.64-2.26,11.16-3.48,3.52-1.24,6.75-2.55,9.49-3.73,2.75-1.16,4.97-2.27,6.54-3.03,1.55-.79,2.43-1.24,2.43-1.24,0,0-.92.37-2.54,1.01-1.6.67-3.92,1.55-6.7,2.59-2.77,1.08-6.06,2.15-9.58,3.34-3.52,1.16-7.32,2.28-11.14,3.29-3.82,1.04-7.66,1.98-11.29,2.74-3.64.74-7.03,1.46-9.96,1.92-2.93.49-5.38.9-7.1,1.12-1.72.25-2.7.4-2.7.4,0,0,.99-.05,2.73-.15ZM136.29,154.96c.72.14,1.6.28,2.61.44,1.01.16,2.15.33,3.41.48,2.51.25,5.45.39,8.61.47,3.16-.05,6.53-.23,9.89-.54,3.34-.46,6.66-1.05,9.75-1.72,3.06-.79,5.89-1.6,8.28-2.42,1.19-.42,2.27-.85,3.21-1.24.95-.38,1.77-.71,2.44-1.02,1.33-.63,2.09-.99,2.09-.99,0,0-.82.19-2.25.52-.7.19-1.57.4-2.56.62-.99.24-2.1.48-3.33.72-2.42.59-5.27,1.12-8.33,1.62-3.05.55-6.32,1.02-9.6,1.35-3.27.42-6.57.71-9.66.86-3.09.21-5.99.34-8.48.31-1.25.05-2.39.06-3.41.06-1.02,0-1.9,0-2.63-.02-1.47,0-2.31.01-2.31.01,0,0,.82.18,2.26.49ZM132.61,153.3c1.32-1.01,2.86-2.18,4.51-3.44,1.64-1.28,3.39-2.64,5.13-4,1.73-1.39,3.46-2.77,5.08-4.07,1.61-1.32,3.11-2.54,4.39-3.6,2.55-2.13,4.23-3.57,4.23-3.57,0,0-1.8,1.3-4.46,3.29-1.32,1.01-2.86,2.18-4.52,3.44-1.64,1.28-3.39,2.64-5.13,4-1.73,1.39-3.46,2.77-5.08,4.07-1.61,1.31-3.11,2.54-4.39,3.59-2.55,2.13-4.23,3.58-4.23,3.58,0,0,1.8-1.3,4.46-3.29ZM146.34,131.33c-1.72,1.61-2.84,2.71-2.84,2.71,0,0,1.24-.96,3.07-2.44.91-.75,1.96-1.63,3.09-2.57,1.11-.96,2.31-1.98,3.5-3,1.17-1.04,2.34-2.09,3.44-3.06,1.09-1,2.1-1.92,2.96-2.72,1.72-1.61,2.84-2.72,2.84-2.72,0,0-1.24.96-3.07,2.44-.91.75-1.96,1.63-3.09,2.57-1.12.96-2.31,1.98-3.5,3-1.17,1.04-2.34,2.09-3.44,3.06-1.08,1-2.1,1.92-2.96,2.72ZM194.59,60.94c-.98.53-2.12,1.25-3.42,2.09-.65.42-1.34.87-2.07,1.34-.71.51-1.45,1.04-2.22,1.59-1.57,1.09-3.19,2.37-4.88,3.76-1.7,1.38-3.43,2.9-5.18,4.53-1.71,1.67-3.53,3.34-5.21,5.21-1.74,1.81-3.37,3.77-5.04,5.69-1.57,2.01-3.17,4-4.62,6.04-1.53,1.99-2.79,4.12-4.12,6.11-2.5,4.07-4.66,7.97-6.22,11.45-.83,1.71-1.51,3.32-2.07,4.77-.59,1.43-1.07,2.69-1.41,3.75-.69,2.1-1.09,3.31-1.09,3.31,0,0,.65-1.09,1.78-2.99.54-.96,1.24-2.1,2.04-3.41.78-1.32,1.67-2.79,2.69-4.37,1.98-3.19,4.44-6.79,7.1-10.63,1.38-1.89,2.8-3.83,4.29-5.77,1.44-1.97,3.04-3.88,4.6-5.81,1.6-1.9,3.15-3.84,4.82-5.64,1.62-1.83,3.24-3.61,4.84-5.31,1.64-1.65,3.17-3.32,4.71-4.81,1.55-1.48,2.97-2.93,4.36-4.19.68-.64,1.34-1.26,1.96-1.85.64-.57,1.24-1.11,1.82-1.62,1.13-1.03,2.12-1.94,2.97-2.64,1.66-1.46,2.61-2.3,2.61-2.3,0,0-1.11.61-3.05,1.68ZM194.15,73.48c-2.88,2.29-5.69,4.68-8.24,7-2.54,2.34-4.79,4.64-6.67,6.66-1.9,2-3.35,3.78-4.38,5.02-1.01,1.25-1.58,1.97-1.58,1.97,0,0,.64-.65,1.77-1.8,1.11-1.16,2.74-2.76,4.71-4.67,1.94-1.94,4.35-4.05,6.9-6.34,2.57-2.26,5.39-4.58,8.29-6.81,2.88-2.25,5.83-4.41,8.66-6.34,2.85-1.9,5.49-3.7,7.85-5.11,2.34-1.44,4.3-2.62,5.7-3.4,1.39-.81,2.18-1.26,2.18-1.26,0,0-.84.38-2.3,1.04-1.45.69-3.54,1.66-5.95,3-2.42,1.31-5.21,2.93-8.11,4.8-2.88,1.9-5.89,4.02-8.83,6.24ZM206.51,88.52c-1.8.83-3.89,1.8-6.08,2.96-2.18,1.17-4.48,2.46-6.76,3.8-2.24,1.4-4.45,2.84-6.5,4.24-2.04,1.4-3.87,2.81-5.44,4.02-1.57,1.2-2.81,2.3-3.69,3.04-.86.77-1.36,1.2-1.36,1.2,0,0,.55-.36,1.51-1,.94-.66,2.33-1.55,3.96-2.65,1.62-1.12,3.58-2.32,5.63-3.68,2.07-1.34,4.29-2.72,6.55-4.06,2.23-1.38,4.49-2.71,6.63-3.92,2.15-1.19,4.12-2.37,5.87-3.29,1.74-.94,3.16-1.75,4.19-2.28,1.01-.56,1.59-.87,1.59-.87,0,0-.62.23-1.7.65-1.06.44-2.61,1.03-4.4,1.86ZM206.11,69.42s-1.45,1.11-3.58,2.82c-1.06.86-2.29,1.87-3.61,2.96-1.31,1.1-2.7,2.27-4.09,3.44-1.37,1.2-2.75,2.39-4.04,3.51-1.27,1.14-2.46,2.2-3.48,3.1-2.02,1.84-3.34,3.1-3.34,3.1,0,0,1.44-1.11,3.58-2.82,1.06-.87,2.29-1.87,3.61-2.96,1.31-1.1,2.7-2.27,4.09-3.44,1.38-1.2,2.75-2.39,4.04-3.51,1.27-1.14,2.46-2.2,3.48-3.11,2.02-1.84,3.34-3.09,3.34-3.09ZM205.69,92.43c-9.33,5.08-18.39,10.66-27.09,16.75-2.2,1.48-4.3,3.11-6.45,4.66-2.15,1.56-4.29,3.13-6.36,4.78-4.19,3.26-8.33,6.58-12.35,10.04-8.05,6.89-15.84,14.12-22.98,21.97,8.23-6.67,16.51-13.21,24.87-19.62,4.22-3.16,8.37-6.4,12.65-9.46l3.17-2.35,3.21-2.29c2.15-1.51,4.26-3.1,6.45-4.55l6.48-4.5,6.58-4.34c2.17-1.49,4.39-2.89,6.63-4.28l3.34-2.1c1.11-.71,2.21-1.43,3.35-2.08,8.98-5.49,18.23-10.5,27.63-15.4-10.02,3.42-19.78,7.74-29.12,12.79Z"/>
    <path class="cls-3" d="M300.89,55.46c-.07-.33.13-.65.46-.72,0,0,0,0,.01,0-.06-.44.22-.86.66-.95.47-.1.93.19,1.03.66.1.47-.19.93-.66,1.03-.11.03-.23.03-.34,0-.06.21-.22.39-.45.44-.33.07-.65-.13-.72-.46Z"/>
    <path class="cls-3" d="M300.41,53.66c-.17.16-.35.37-.51.61-.18.22-.34.47-.47.73-.16.25-.29.52-.38.78-.12.26-.2.52-.25.75-.17.47-.2.82-.2.82,0,0-.19-.3-.33-.84-.03-.27-.04-.59-.01-.94.07-.34.18-.7.34-1.04.2-.32.45-.61.7-.84.28-.22.56-.37.8-.49.54-.16.89-.16.89-.16,0,0-.29.21-.6.6Z"/>
    <path class="cls-4" d="M281.76,83.41c-1.55,1.06-3.17,2.23-4.75,3.45-1.6,1.19-3.18,2.42-4.62,3.62-1.46,1.18-2.8,2.3-3.92,3.31-2.3,1.94-3.76,3.32-3.76,3.32,0,0,1.31-1.52,3.4-3.7,1.07-1.07,2.36-2.27,3.76-3.54,1.43-1.23,2.99-2.51,4.59-3.74,1.63-1.19,3.28-2.34,4.86-3.38,1.6-1,3.12-1.9,4.44-2.63,2.67-1.41,4.5-2.25,4.5-2.25,0,0-1.73,1.03-4.23,2.7-1.27.8-2.72,1.78-4.26,2.85Z"/>
    <path class="cls-4" d="M270.22,87.48c.91-.87,1.86-1.72,2.76-2.48.94-.73,1.82-1.39,2.6-1.93,1.6-1.02,2.7-1.63,2.7-1.63,0,0-.99.78-2.38,2.04-.72.6-1.53,1.33-2.39,2.12-.87.78-1.77,1.64-2.64,2.53-.89.86-1.76,1.76-2.54,2.62-.8.85-1.54,1.65-2.14,2.37-1.27,1.38-2.06,2.37-2.06,2.37,0,0,.61-1.1,1.64-2.69.54-.78,1.21-1.65,1.95-2.59.77-.9,1.62-1.84,2.5-2.75Z"/>
    <path class="cls-1" d="M181.55,180.89c-5.82.62-11.69.92-17.18.67-5.48-.29-10.58-.87-14.88-1.77-1.07-.22-2.1-.44-3.08-.64-.96-.26-1.88-.51-2.74-.74-1.72-.46-3.22-.86-4.42-1.31-2.42-.82-3.8-1.29-3.8-1.29,0,0,1.4.42,3.84,1.16,1.21.4,2.72.75,4.45,1.15.86.2,1.78.41,2.76.64.98.17,2.01.34,3.09.52,4.29.82,9.37,1.3,14.81,1.48,5.45.2,11.27-.14,17.04-.79,5.78-.66,11.48-1.84,16.77-3.16,2.62-.77,5.18-1.38,7.54-2.22,1.19-.39,2.34-.78,3.46-1.15,1.1-.42,2.16-.83,3.18-1.22,2.06-.73,3.9-1.53,5.53-2.24.81-.35,1.58-.68,2.28-.98.69-.34,1.33-.64,1.9-.92,2.3-1.12,3.61-1.76,3.61-1.76,0,0-1.29.69-3.54,1.89-.57.3-1.19.63-1.87.99-.69.33-1.45.69-2.25,1.07-1.6.77-3.42,1.63-5.46,2.45-1.02.41-2.08.84-3.17,1.28-1.11.39-2.27.8-3.45,1.22-2.35.9-4.92,1.56-7.54,2.38-5.31,1.37-11.05,2.6-16.87,3.31Z"/>
    <path class="cls-1" d="M162.17,178.31c-2.28-.03-4.95-.09-7.8-.31-2.85-.24-5.89-.67-8.88-1.33-2.98-.71-5.91-1.7-8.51-2.94-2.59-1.27-4.84-2.77-6.58-4.28-1.73-1.53-2.93-3.03-3.69-4.13-.39-.54-.65-1-.83-1.3-.19-.31-.28-.47-.28-.47,0,0,.11.15.31.45.2.29.49.73.92,1.23.82,1.04,2.11,2.43,3.91,3.81,1.76,1.42,4.01,2.8,6.59,3.95,2.56,1.18,5.43,2.11,8.37,2.77,2.93.69,5.92,1.16,8.75,1.44,2.82.32,5.47.49,7.74.6,4.55.27,7.59.37,7.59.37,0,0-3.04.11-7.6.15Z"/>
    <path class="cls-2" d="M186.98,157.53c-5.88,1.54-11.83,2.75-17.81,3.65-5.99.85-12.01,1.45-18.05,1.68,5.99-.74,11.94-1.68,17.81-2.95,5.88-1.23,11.7-2.74,17.4-4.58,11.39-3.66,22.41-8.5,32.34-14.99,9.93-6.44,18.81-14.48,25.41-24.1.8-1.21,1.63-2.42,2.35-3.68l.57-.93c.13-.26.28-.51.39-.78.23-.54.42-1.1.51-1.68.21-1.17.16-2.39-.15-3.58-.14-.6-.38-1.17-.66-1.72-.13-.28-.3-.54-.46-.81l-.62-.99c-3.29-5.35-5.26-11.43-5.63-17.53,2.26,5.66,5,10.93,8.54,15.52l.68.85c.26.36.52.71.75,1.1.46.76.86,1.56,1.14,2.42.6,1.69.8,3.54.55,5.36-.11.91-.35,1.8-.67,2.67-.15.43-.36.85-.56,1.26l-.57,1.03c-.74,1.37-1.58,2.69-2.4,4.01-6.87,10.47-16.64,18.57-27.13,24.85-5.27,3.15-10.78,5.83-16.43,8.14-5.65,2.3-11.42,4.27-17.3,5.79Z"/>
    <path class="cls-2" d="M234.82,79.64c-9.41,4.9-18.65,9.9-27.63,15.4-1.14.65-2.24,1.37-3.35,2.08l-3.34,2.1c-2.24,1.39-4.46,2.78-6.63,4.28l-6.58,4.34-6.48,4.5c-2.19,1.45-4.3,3.04-6.45,4.55l-3.21,2.29-3.17,2.35c-4.28,3.06-8.43,6.31-12.65,9.46-8.36,6.42-16.64,12.95-24.87,19.62,7.14-7.84,14.92-15.07,22.98-21.97,4.02-3.46,8.16-6.78,12.35-10.04,2.08-1.65,4.22-3.22,6.36-4.78,2.15-1.55,4.25-3.18,6.45-4.66,8.7-6.09,17.76-11.67,27.09-16.75,9.35-5.05,19.1-9.37,29.12-12.79Z"/>
    <path class="cls-2" d="M138.97,154.48c1.01,0,2.16,0,3.41-.06,2.49.03,5.39-.1,8.48-.31,3.09-.15,6.39-.44,9.66-.86,3.28-.34,6.56-.8,9.6-1.35,3.06-.5,5.91-1.03,8.33-1.62,1.23-.23,2.34-.48,3.33-.72.99-.22,1.86-.43,2.56-.62,1.43-.33,2.25-.52,2.25-.52,0,0-.76.36-2.09.99-.67.3-1.49.64-2.44,1.02-.95.39-2.02.81-3.21,1.24-2.39.82-5.22,1.62-8.28,2.42-3.09.67-6.41,1.26-9.75,1.72-3.36.31-6.73.49-9.89.54-3.16-.08-6.1-.22-8.61-.47-1.26-.15-2.4-.31-3.41-.48-1.01-.15-1.89-.29-2.61-.44-1.44-.31-2.26-.49-2.26-.49,0,0,.84,0,2.31-.01.73.03,1.61.03,2.63.02Z"/>
    <path class="cls-2" d="M217.03,59.43c1.46-.66,2.3-1.04,2.3-1.04,0,0-.79.46-2.18,1.26-1.4.78-3.36,1.97-5.7,3.4-2.36,1.4-5.01,3.21-7.85,5.11-2.83,1.93-5.78,4.09-8.66,6.34-2.9,2.23-5.72,4.55-8.29,6.81-2.55,2.29-4.96,4.4-6.9,6.34-1.97,1.91-3.61,3.51-4.71,4.67-1.13,1.15-1.77,1.8-1.77,1.8,0,0,.58-.71,1.58-1.97,1.03-1.23,2.49-3.01,4.38-5.02,1.88-2.02,4.13-4.32,6.67-6.66,2.55-2.32,5.36-4.71,8.24-7,2.94-2.22,5.95-4.35,8.83-6.24,2.9-1.87,5.69-3.49,8.11-4.8,2.41-1.34,4.5-2.31,5.95-3Z"/>
    <path class="cls-2" d="M244.25,105.57s-.8.49-2.2,1.35c-1.42.83-3.43,2.04-5.95,3.32-2.5,1.3-5.47,2.74-8.71,4.12-3.26,1.36-6.78,2.69-10.34,3.9-3.59,1.13-7.22,2.14-10.65,2.98-3.43.81-6.67,1.4-9.46,1.84-2.78.47-5.13.68-6.76.85-1.64.14-2.57.21-2.57.21,0,0,.92-.17,2.54-.46,1.62-.27,3.92-.74,6.66-1.31,2.75-.54,5.92-1.36,9.32-2.21,3.39-.88,6.97-1.94,10.52-3.12,3.55-1.15,7.07-2.42,10.32-3.71,3.24-1.33,6.28-2.54,8.82-3.74,2.55-1.16,4.68-2.15,6.15-2.89,1.47-.72,2.32-1.13,2.32-1.13Z"/>
    <path class="cls-2" d="M212.61,86.01s-.58.32-1.59.87c-1.02.53-2.45,1.35-4.19,2.28-1.74.92-3.72,2.1-5.87,3.29-2.14,1.21-4.4,2.54-6.63,3.92-2.25,1.34-4.48,2.72-6.55,4.06-2.05,1.35-4.01,2.56-5.63,3.68-1.63,1.1-3.02,1.99-3.96,2.65-.96.64-1.51,1-1.51,1,0,0,.49-.44,1.36-1.2.88-.74,2.12-1.84,3.69-3.04,1.57-1.21,3.4-2.62,5.44-4.02,2.05-1.39,4.26-2.84,6.5-4.24,2.28-1.33,4.58-2.63,6.76-3.8,2.19-1.16,4.29-2.13,6.08-2.96,1.79-.83,3.34-1.43,4.4-1.86,1.08-.41,1.7-.65,1.7-.65Z"/>
    <path class="cls-2" d="M179.38,116.19c2.81-2.15,6.11-4.61,9.74-7.12,3.65-2.49,7.59-5.07,11.59-7.57,4.04-2.43,8.13-4.78,12-6.89,3.89-2.1,7.58-3.93,10.77-5.46,3.18-1.54,5.89-2.7,7.78-3.52,1.9-.8,2.99-1.25,2.99-1.25,0,0-1.05.54-2.88,1.48-1.84.92-4.44,2.29-7.56,3.94-3.13,1.61-6.71,3.65-10.55,5.79-3.83,2.16-7.88,4.55-11.87,7.02-4.01,2.44-7.97,4.96-11.63,7.4-3.65,2.47-7.08,4.73-9.94,6.79-2.88,2.03-5.28,3.73-6.94,4.95-1.67,1.21-2.62,1.9-2.62,1.9,0,0,.9-.76,2.47-2.09,1.59-1.31,3.84-3.2,6.66-5.34Z"/>
    <path class="cls-2" d="M161.5,166.93c2.93-.46,6.32-1.18,9.96-1.92,3.63-.77,7.47-1.7,11.29-2.74,3.82-1.01,7.62-2.14,11.14-3.29,3.51-1.19,6.81-2.26,9.58-3.34,2.78-1.04,5.1-1.92,6.7-2.59,1.61-.64,2.54-1.01,2.54-1.01,0,0-.89.45-2.43,1.24-1.56.76-3.79,1.87-6.54,3.03-2.74,1.18-5.97,2.48-9.49,3.73-3.53,1.22-7.33,2.4-11.16,3.48-3.86.99-7.74,1.87-11.4,2.59-3.67.7-7.12,1.19-10.08,1.54-2.96.38-5.44.53-7.18.66-1.73.09-2.73.15-2.73.15,0,0,.98-.14,2.7-.4,1.72-.23,4.17-.63,7.1-1.12Z"/>
    <path class="cls-2" d="M230.18,141.82c.64-.44,1.35-.94,2.11-1.51,1.56-1.09,3.24-2.53,5.05-4.05,1.79-1.55,3.6-3.31,5.31-5.15,1.73-1.83,3.36-3.76,4.79-5.65,1.39-1.91,2.72-3.68,3.7-5.31.51-.8.97-1.54,1.36-2.21.4-.66.75-1.24,1.01-1.73.55-.97.86-1.53.86-1.53,0,0-.23.6-.64,1.64-.2.52-.48,1.14-.8,1.85-.31.71-.69,1.51-1.16,2.35-.9,1.7-2.04,3.63-3.43,5.61-1.41,1.96-3.03,3.95-4.75,5.87-1.79,1.84-3.67,3.59-5.53,5.13-1.87,1.51-3.73,2.79-5.36,3.8-.81.53-1.57.95-2.27,1.32-.68.37-1.29.69-1.79.93-1.01.48-1.59.75-1.59.75,0,0,.53-.35,1.47-.97.48-.28,1.03-.67,1.66-1.12Z"/>
    <path class="cls-1" d="M194.11,54.76c4.04-1.67,7.98-2.78,11.37-3.58,3.4-.78,6.29-1.14,8.31-1.35,1.01-.11,1.81-.15,2.35-.19.54-.04.83-.06.83-.06,0,0-.28.04-.82.12-.53.08-1.32.18-2.32.37-2,.31-4.83.92-8.16,1.8-3.34.9-7.15,2.22-11.11,3.91-3.96,1.69-8.04,3.85-11.88,6.36-3.87,2.48-7.5,5.31-10.66,8.23-3.16,2.93-5.93,5.86-8.11,8.54-2.18,2.68-3.89,5.01-4.99,6.71-.58.83-.99,1.51-1.29,1.96-.29.46-.45.7-.45.7,0,0,.13-.25.39-.73.26-.48.62-1.19,1.13-2.06,1.02-1.75,2.53-4.24,4.63-7.02,2.12-2.76,4.75-5.9,7.92-8.9,3.17-3.01,6.83-5.93,10.73-8.5,3.94-2.5,8.1-4.64,12.14-6.3Z"/>
    <path class="cls-2" d="M192.4,141.55c2.51-.66,4.99-1.55,7.49-2.36,2.47-.91,4.97-1.75,7.35-2.78,2.41-.96,4.73-2.01,6.99-3.03,1.11-.54,2.2-1.08,3.27-1.6,1.08-.51,2.13-1.02,3.12-1.58,1-.53,1.98-1.06,2.92-1.56.95-.5,1.83-1.05,2.69-1.53.86-.5,1.69-.98,2.48-1.43.77-.48,1.5-.94,2.19-1.36,1.39-.84,2.6-1.58,3.57-2.25,1.97-1.27,3.11-2,3.11-2,0,0-.96.95-2.64,2.6-.83.84-1.91,1.79-3.17,2.84-.63.53-1.3,1.1-2.01,1.69-.72.57-1.51,1.14-2.32,1.75-.82.6-1.65,1.26-2.56,1.87-.91.6-1.86,1.22-2.83,1.86-.97.65-1.99,1.27-3.05,1.88-1.06.61-2.13,1.26-3.26,1.85-2.28,1.13-4.58,2.42-7.06,3.42-2.43,1.11-5,2.02-7.53,3-2.6.8-5.17,1.68-7.77,2.31-2.57.75-5.17,1.17-7.66,1.69-5.02.83-9.74,1.35-13.81,1.39-1.01.03-1.98.06-2.91.06-.92-.03-1.8-.05-2.62-.08-1.64-.05-3.07-.13-4.25-.27-2.34-.26-3.68-.41-3.68-.41,0,0,1.34-.13,3.68-.36,1.17-.08,2.58-.25,4.19-.45.81-.09,1.66-.19,2.57-.29.9-.13,1.85-.27,2.83-.42,3.94-.53,8.49-1.45,13.31-2.51,2.4-.6,4.87-1.22,7.36-1.95Z"/>
    <path class="cls-2" d="M192.07,64.2c-.57.51-1.18,1.05-1.82,1.62-.62.59-1.28,1.21-1.96,1.85-1.39,1.26-2.81,2.71-4.36,4.19-1.54,1.49-3.07,3.15-4.71,4.81-1.6,1.7-3.22,3.48-4.84,5.31-1.67,1.79-3.22,3.74-4.82,5.64-1.56,1.93-3.16,3.84-4.6,5.81-1.49,1.94-2.91,3.89-4.29,5.77-2.66,3.83-5.13,7.44-7.1,10.63-1.02,1.58-1.91,3.05-2.69,4.37-.8,1.31-1.5,2.45-2.04,3.41-1.13,1.9-1.78,2.99-1.78,2.99,0,0,.4-1.21,1.09-3.31.34-1.06.82-2.32,1.41-3.75.56-1.44,1.24-3.05,2.07-4.77,1.57-3.48,3.72-7.38,6.22-11.45,1.32-1.99,2.59-4.11,4.12-6.11,1.45-2.05,3.05-4.03,4.62-6.04,1.67-1.92,3.31-3.88,5.04-5.69,1.68-1.87,3.5-3.54,5.21-5.21,1.75-1.63,3.48-3.15,5.18-4.53,1.69-1.39,3.31-2.67,4.88-3.76.77-.56,1.51-1.09,2.22-1.59.73-.47,1.42-.92,2.07-1.34,1.3-.84,2.44-1.55,3.42-2.09,1.94-1.07,3.05-1.68,3.05-1.68,0,0-.95.84-2.61,2.3-.85.71-1.83,1.61-2.97,2.64Z"/>
    <path class="cls-2" d="M218.05,112.18c1.6-.51,3.18-1.05,4.66-1.59,1.49-.52,2.87-1.01,4.04-1.47,2.36-.89,3.93-1.48,3.93-1.48,0,0-1.49.78-3.8,1.81-1.16.51-2.52,1.07-3.99,1.66-1.48.56-3.06,1.13-4.66,1.67-1.61.51-3.22.99-4.74,1.42-1.53.4-2.96.75-4.19,1.03-2.47.54-4.13.8-4.13.8,0,0,1.62-.46,4.04-1.15,1.22-.33,2.62-.75,4.13-1.22,1.51-.45,3.11-.96,4.69-1.49Z"/>
    <path class="cls-2" d="M199.28,75.62c-1.29,1.12-2.66,2.31-4.04,3.51-1.39,1.17-2.78,2.34-4.09,3.44-1.32,1.08-2.55,2.09-3.61,2.96-2.13,1.71-3.58,2.82-3.58,2.82,0,0,1.32-1.26,3.34-3.1,1.02-.91,2.2-1.97,3.48-3.1,1.29-1.12,2.66-2.31,4.04-3.51,1.39-1.17,2.79-2.34,4.09-3.44,1.32-1.08,2.55-2.09,3.61-2.96,2.13-1.71,3.58-2.82,3.58-2.82,0,0-1.32,1.25-3.34,3.09-1.02.91-2.21,1.97-3.48,3.11Z"/>
    <path class="cls-2" d="M136.78,149.42c1.62-1.3,3.35-2.68,5.08-4.07,1.75-1.36,3.5-2.72,5.13-4,1.65-1.26,3.2-2.43,4.52-3.44,2.66-1.99,4.46-3.29,4.46-3.29,0,0-1.68,1.45-4.23,3.57-1.29,1.05-2.79,2.28-4.39,3.6-1.62,1.3-3.35,2.68-5.08,4.07-1.75,1.36-3.5,2.72-5.13,4-1.65,1.26-3.19,2.43-4.51,3.44-2.66,1.99-4.46,3.29-4.46,3.29,0,0,1.68-1.45,4.23-3.58,1.29-1.05,2.79-2.28,4.39-3.59Z"/>
    <path class="cls-2" d="M152.74,125.55c1.19-1.02,2.38-2.04,3.5-3,1.13-.94,2.19-1.82,3.09-2.57,1.83-1.48,3.07-2.44,3.07-2.44,0,0-1.12,1.1-2.84,2.72-.87.8-1.88,1.72-2.96,2.72-1.1.98-2.27,2.02-3.44,3.06-1.19,1.02-2.38,2.04-3.5,3-1.13.94-2.19,1.82-3.09,2.57-1.83,1.48-3.07,2.44-3.07,2.44,0,0,1.12-1.1,2.84-2.71.87-.79,1.88-1.72,2.96-2.72,1.1-.98,2.27-2.02,3.44-3.06Z"/>
  </g>
</svg>